G04 #@! TF.GenerationSoftware,KiCad,Pcbnew,(5.1.4)-1*
G04 #@! TF.CreationDate,2023-02-10T17:26:25+00:00*
G04 #@! TF.ProjectId,PIR InterfaceBoard,50495220-496e-4746-9572-66616365426f,rev?*
G04 #@! TF.SameCoordinates,Original*
G04 #@! TF.FileFunction,Copper,L1,Top*
G04 #@! TF.FilePolarity,Positive*
%FSLAX46Y46*%
G04 Gerber Fmt 4.6, Leading zero omitted, Abs format (unit mm)*
G04 Created by KiCad (PCBNEW (5.1.4)-1) date 2023-02-10 17:26:25*
%MOMM*%
%LPD*%
G04 APERTURE LIST*
%ADD10C,2.475000*%
%ADD11C,1.509000*%
%ADD12O,1.600000X1.600000*%
%ADD13R,1.600000X1.600000*%
%ADD14O,1.700000X1.700000*%
%ADD15R,1.700000X1.700000*%
%ADD16C,0.800000*%
%ADD17C,0.250000*%
%ADD18C,0.400000*%
%ADD19C,0.254000*%
G04 APERTURE END LIST*
D10*
X183135000Y-96240000D03*
X182480000Y-85800000D03*
X183135000Y-80290000D03*
X167640000Y-74400000D03*
X139700000Y-74400000D03*
X111760000Y-74400000D03*
X96265000Y-76200000D03*
X96930000Y-82530000D03*
X96265000Y-96240000D03*
D11*
X100330000Y-85320000D03*
X101600000Y-82780000D03*
X102870000Y-85320000D03*
X104140000Y-82780000D03*
X105410000Y-85320000D03*
X106680000Y-82780000D03*
X107950000Y-85320000D03*
X109220000Y-82780000D03*
X100330000Y-78740000D03*
X101600000Y-76200000D03*
X102870000Y-78740000D03*
X104140000Y-76200000D03*
X105410000Y-78740000D03*
X106680000Y-76200000D03*
X107950000Y-78740000D03*
X109220000Y-76200000D03*
X114300000Y-85320000D03*
X115570000Y-82780000D03*
X116840000Y-85320000D03*
X118110000Y-82780000D03*
X119380000Y-85320000D03*
X120650000Y-82780000D03*
X121920000Y-85320000D03*
X123190000Y-82780000D03*
X114300000Y-78740000D03*
X115570000Y-76200000D03*
X116840000Y-78740000D03*
X118110000Y-76200000D03*
X119380000Y-78740000D03*
X120650000Y-76200000D03*
X121920000Y-78740000D03*
X123190000Y-76200000D03*
X128270000Y-85320000D03*
X129540000Y-82780000D03*
X130810000Y-85320000D03*
X132080000Y-82780000D03*
X133350000Y-85320000D03*
X134620000Y-82780000D03*
X135890000Y-85320000D03*
X137160000Y-82780000D03*
X128270000Y-78740000D03*
X129540000Y-76200000D03*
X130810000Y-78740000D03*
X132080000Y-76200000D03*
X133350000Y-78740000D03*
X134620000Y-76200000D03*
X135890000Y-78740000D03*
X137160000Y-76200000D03*
X142240000Y-85320000D03*
X143510000Y-82780000D03*
X144780000Y-85320000D03*
X146050000Y-82780000D03*
X147320000Y-85320000D03*
X148590000Y-82780000D03*
X149860000Y-85320000D03*
X151130000Y-82780000D03*
X142240000Y-78740000D03*
X143510000Y-76200000D03*
X144780000Y-78740000D03*
X146050000Y-76200000D03*
X147320000Y-78740000D03*
X148590000Y-76200000D03*
X149860000Y-78740000D03*
X151130000Y-76200000D03*
X156210000Y-85320000D03*
X157480000Y-82780000D03*
X158750000Y-85320000D03*
X160020000Y-82780000D03*
X161290000Y-85320000D03*
X162560000Y-82780000D03*
X163830000Y-85320000D03*
X165100000Y-82780000D03*
X156210000Y-78740000D03*
X157480000Y-76200000D03*
X158750000Y-78740000D03*
X160020000Y-76200000D03*
X161290000Y-78740000D03*
X162560000Y-76200000D03*
X163830000Y-78740000D03*
X165100000Y-76200000D03*
X170180000Y-85320000D03*
X171450000Y-82780000D03*
X172720000Y-85320000D03*
X173990000Y-82780000D03*
X175260000Y-85320000D03*
X176530000Y-82780000D03*
X177800000Y-85320000D03*
X179070000Y-82780000D03*
X170180000Y-78740000D03*
X171450000Y-76200000D03*
X172720000Y-78740000D03*
X173990000Y-76200000D03*
X175260000Y-78740000D03*
X176530000Y-76200000D03*
X177800000Y-78740000D03*
X179070000Y-76200000D03*
D12*
X179006500Y-54356000D03*
X179006500Y-69596000D03*
X143446500Y-54356000D03*
X176466500Y-69596000D03*
X145986500Y-54356000D03*
X173926500Y-69596000D03*
X148526500Y-54356000D03*
X171386500Y-69596000D03*
X151066500Y-54356000D03*
X168846500Y-69596000D03*
X153606500Y-54356000D03*
X166306500Y-69596000D03*
X156146500Y-54356000D03*
X163766500Y-69596000D03*
X158686500Y-54356000D03*
X161226500Y-69596000D03*
X161226500Y-54356000D03*
X158686500Y-69596000D03*
X163766500Y-54356000D03*
X156146500Y-69596000D03*
X166306500Y-54356000D03*
X153606500Y-69596000D03*
X168846500Y-54356000D03*
X151066500Y-69596000D03*
X171386500Y-54356000D03*
X148526500Y-69596000D03*
X173926500Y-54356000D03*
X145986500Y-69596000D03*
X176466500Y-54356000D03*
D13*
X143446500Y-69596000D03*
D14*
X137096500Y-61531500D03*
X137096500Y-58991500D03*
D15*
X137096500Y-56451500D03*
D14*
X137096500Y-66040000D03*
D15*
X137096500Y-68580000D03*
D16*
X146621500Y-65114010D03*
X174120837Y-67082510D03*
X143065500Y-60960000D03*
X132715000Y-66294000D03*
X153289000Y-85153500D03*
X124276419Y-85464081D03*
X135191500Y-73914000D03*
X145161000Y-80645000D03*
X134429500Y-69532500D03*
X147828000Y-66167000D03*
X161353500Y-66294000D03*
X120396000Y-72009000D03*
X122428000Y-73723500D03*
X141732000Y-83185000D03*
X172847000Y-80962500D03*
X154876500Y-76454000D03*
X140271500Y-68389500D03*
X156781500Y-74168000D03*
X158877000Y-72707500D03*
X165925500Y-57277000D03*
X160274000Y-56197500D03*
X156591000Y-56388000D03*
X109422338Y-74400000D03*
X105219500Y-74041000D03*
X148907500Y-73914000D03*
X139255500Y-79057500D03*
X125666500Y-81788000D03*
X168465500Y-79248000D03*
X170878500Y-65913000D03*
X152717500Y-78994000D03*
X179070000Y-72263000D03*
X172720000Y-74295000D03*
X179324000Y-80962500D03*
X127508000Y-73596500D03*
X154432000Y-72834500D03*
X163322000Y-72771000D03*
X174371000Y-64706500D03*
X164084000Y-58356500D03*
X168021000Y-65913000D03*
X151755085Y-72355552D03*
X128841500Y-68707000D03*
X160782000Y-57594500D03*
X166687500Y-84963000D03*
X154749500Y-67945000D03*
X119507000Y-73469500D03*
X130455510Y-73258543D03*
X152463500Y-66929000D03*
X110299500Y-77851000D03*
D17*
X172152337Y-65114010D02*
X174120837Y-67082510D01*
X146621500Y-65114010D02*
X172152337Y-65114010D01*
D18*
X149866499Y-53155999D02*
X151066500Y-54356000D01*
X144646501Y-53155999D02*
X149866499Y-53155999D01*
X143446500Y-54356000D02*
X144646501Y-53155999D01*
X135191500Y-57848500D02*
X122650250Y-70389750D01*
X143446500Y-54356000D02*
X136771998Y-54356000D01*
X136771998Y-54356000D02*
X135191500Y-55936498D01*
D17*
X122650250Y-70389750D02*
X122555000Y-70485000D01*
D18*
X135191500Y-55936498D02*
X135191500Y-57848500D01*
X106795499Y-78416837D02*
X106795499Y-79294161D01*
X105525499Y-77146837D02*
X106795499Y-78416837D01*
X106795499Y-79294161D02*
X107411007Y-79909669D01*
X105525499Y-75645839D02*
X105525499Y-77146837D01*
X110686338Y-70485000D02*
X105525499Y-75645839D01*
X122555000Y-70485000D02*
X110686338Y-70485000D01*
X107411007Y-79909669D02*
X110717331Y-79909669D01*
X106195159Y-79894501D02*
X106795499Y-79294161D01*
X104024501Y-79894501D02*
X106195159Y-79894501D01*
X102870000Y-78740000D02*
X104024501Y-79894501D01*
X157314999Y-80175001D02*
X158750000Y-78740000D01*
X146215001Y-80175001D02*
X157314999Y-80175001D01*
X144780000Y-78740000D02*
X146215001Y-80175001D01*
X171115488Y-80344512D02*
X172720000Y-78740000D01*
X158750000Y-78740000D02*
X160354512Y-80344512D01*
X160354512Y-80344512D02*
X171115488Y-80344512D01*
X120650000Y-82550000D02*
X120650000Y-82780000D01*
X116840000Y-78740000D02*
X120650000Y-82550000D01*
X102870000Y-78970000D02*
X102870000Y-78740000D01*
X109550331Y-79909669D02*
X110717331Y-79909669D01*
X106680000Y-82780000D02*
X109550331Y-79909669D01*
X115670331Y-79909669D02*
X116840000Y-78740000D01*
X110717331Y-79909669D02*
X115670331Y-79909669D01*
X158750000Y-78970000D02*
X158750000Y-78740000D01*
X162560000Y-82780000D02*
X158750000Y-78970000D01*
X176530000Y-82550000D02*
X176530000Y-82780000D01*
X172720000Y-78740000D02*
X176530000Y-82550000D01*
X144780000Y-78970000D02*
X144780000Y-78740000D01*
X148590000Y-82780000D02*
X144780000Y-78970000D01*
X144780000Y-78740000D02*
X143175488Y-80344512D01*
X135374499Y-82025501D02*
X134620000Y-82780000D01*
X143175488Y-80344512D02*
X137313965Y-80344512D01*
X130055501Y-79494499D02*
X130810000Y-78740000D01*
X123237001Y-80192999D02*
X129313025Y-80192999D01*
X130011525Y-79494499D02*
X130055501Y-79494499D01*
X137313965Y-80344512D02*
X135632976Y-82025501D01*
X129313025Y-80192999D02*
X130011525Y-79494499D01*
X120650000Y-82780000D02*
X123237001Y-80192999D01*
X135632976Y-82025501D02*
X135374499Y-82025501D01*
D17*
X152527000Y-77978000D02*
X152209499Y-77660499D01*
X176466500Y-69596000D02*
X173799500Y-72263000D01*
X173799500Y-72263000D02*
X165036500Y-72263000D01*
X161099501Y-76696426D02*
X160135428Y-77660499D01*
X138503459Y-77660499D02*
X136166184Y-79997774D01*
X165036500Y-72263000D02*
X164057331Y-73242169D01*
X163920169Y-73242169D02*
X161099501Y-76062837D01*
X155374338Y-77978000D02*
X152527000Y-77978000D01*
X155691839Y-77660499D02*
X155374338Y-77978000D01*
X160135428Y-77660499D02*
X155691839Y-77660499D01*
X152209499Y-77660499D02*
X138503459Y-77660499D01*
X161099501Y-76062837D02*
X161099501Y-76696426D01*
X164057331Y-73242169D02*
X163920169Y-73242169D01*
X115379501Y-84240499D02*
X126008001Y-84240499D01*
X114300000Y-85320000D02*
X115379501Y-84240499D01*
X126008001Y-84240499D02*
X130250726Y-79997774D01*
X130250726Y-79997774D02*
X136166184Y-79997774D01*
X107950000Y-75872338D02*
X107950000Y-78740000D01*
X111760000Y-74400000D02*
X109422338Y-74400000D01*
X109422338Y-74400000D02*
X107950000Y-75872338D01*
X178280000Y-85800000D02*
X177800000Y-85320000D01*
X161226500Y-66167000D02*
X161353500Y-66294000D01*
X147828000Y-66167000D02*
X161226500Y-66167000D01*
X97180000Y-82780000D02*
X96930000Y-82530000D01*
X101600000Y-82780000D02*
X97180000Y-82780000D01*
X129643971Y-72533533D02*
X125977504Y-76200000D01*
X125977504Y-76200000D02*
X123190000Y-76200000D01*
X157503744Y-71812991D02*
X155307223Y-74009512D01*
X155307223Y-74009512D02*
X151729280Y-74009512D01*
X151729280Y-74009512D02*
X150253301Y-72533533D01*
X150253301Y-72533533D02*
X129643971Y-72533533D01*
X171709510Y-71812990D02*
X157503744Y-71812991D01*
X173926500Y-69596000D02*
X171709510Y-71812990D01*
X138196500Y-56451500D02*
X137096500Y-56451500D01*
X147726501Y-55155999D02*
X147726501Y-55282999D01*
X148526500Y-54356000D02*
X147726501Y-55155999D01*
X147726501Y-55282999D02*
X145859500Y-57150000D01*
X138376750Y-56652250D02*
X138874500Y-57150000D01*
X138376750Y-56631750D02*
X138376750Y-56652250D01*
X145859500Y-57150000D02*
X138874500Y-57150000D01*
X138376750Y-56631750D02*
X138196500Y-56451500D01*
X151915679Y-73559501D02*
X150439700Y-72083522D01*
X157317344Y-71362980D02*
X155120823Y-73559501D01*
X171386500Y-69596000D02*
X169619520Y-71362980D01*
X169619520Y-71362980D02*
X157317344Y-71362980D01*
X155120823Y-73559501D02*
X151915679Y-73559501D01*
X150439700Y-72083522D02*
X128766978Y-72083522D01*
X127508000Y-73342500D02*
X127508000Y-73596500D01*
X128766978Y-72083522D02*
X127508000Y-73342500D01*
X155209414Y-72834500D02*
X156249457Y-71794457D01*
X157130942Y-70912971D02*
X156249457Y-71794457D01*
X154432000Y-72834500D02*
X155209414Y-72834500D01*
X166306500Y-69596000D02*
X164989529Y-70912971D01*
X164989529Y-70912971D02*
X157130942Y-70912971D01*
X151130000Y-76200000D02*
X152209501Y-75120499D01*
X160972501Y-75120499D02*
X152209501Y-75120499D01*
X163322000Y-72771000D02*
X160972501Y-75120499D01*
X177591501Y-70120589D02*
X174999080Y-72713010D01*
X170261499Y-69055999D02*
X170846499Y-68470999D01*
X177591501Y-69055999D02*
X177591501Y-70120589D01*
X170846499Y-68470999D02*
X177006501Y-68470999D01*
X165100000Y-75132976D02*
X165100000Y-76200000D01*
X167014488Y-72713010D02*
X165100000Y-74627498D01*
X166846501Y-68470999D02*
X167431501Y-69055999D01*
X158686500Y-69596000D02*
X159811501Y-68470999D01*
X177006501Y-68470999D02*
X177591501Y-69055999D01*
X165100000Y-74627498D02*
X165100000Y-75132976D01*
X170261499Y-70084591D02*
X170261499Y-69055999D01*
X174999080Y-72713010D02*
X167014488Y-72713010D01*
X169433120Y-70912970D02*
X170261499Y-70084591D01*
X168208470Y-70912970D02*
X169433120Y-70912970D01*
X167431501Y-70136001D02*
X168208470Y-70912970D01*
X167431501Y-69055999D02*
X167431501Y-70136001D01*
X159811501Y-68470999D02*
X166846501Y-68470999D01*
X163766500Y-54356000D02*
X165417500Y-56007000D01*
X165417500Y-56007000D02*
X166306500Y-56007000D01*
X174307500Y-64077315D02*
X174307500Y-64008000D01*
X174371000Y-64140815D02*
X174307500Y-64077315D01*
X174371000Y-64706500D02*
X174371000Y-64140815D01*
X166306500Y-56007000D02*
X174307500Y-64008000D01*
X162369501Y-79819501D02*
X161290000Y-78740000D01*
X164533001Y-79819501D02*
X162369501Y-79819501D01*
X177411999Y-70936501D02*
X174942500Y-73406000D01*
X170946502Y-73406000D02*
X164533001Y-79819501D01*
X180149500Y-70118002D02*
X179331001Y-70936501D01*
X174942500Y-73406000D02*
X170946502Y-73406000D01*
X179331001Y-70936501D02*
X177411999Y-70936501D01*
X168021000Y-56070500D02*
X169037000Y-56070500D01*
X169037000Y-56070500D02*
X170178589Y-57212089D01*
X170178589Y-57212089D02*
X170178589Y-59119911D01*
X170178589Y-59119911D02*
X180149500Y-69090822D01*
X166306500Y-54356000D02*
X168021000Y-56070500D01*
X180149500Y-69090822D02*
X180149500Y-70118002D01*
X170846045Y-56355545D02*
X168846500Y-54356000D01*
X170846045Y-59150955D02*
X170846045Y-56355545D01*
X180599511Y-68904421D02*
X170846045Y-59150955D01*
X180599511Y-76268151D02*
X180599511Y-68904421D01*
X179588161Y-77279501D02*
X180599511Y-76268151D01*
X174942499Y-77279501D02*
X179588161Y-77279501D01*
X174180499Y-78041501D02*
X174942499Y-77279501D01*
X174180499Y-79258161D02*
X174180499Y-78041501D01*
X175260000Y-80337662D02*
X174180499Y-79258161D01*
X175685324Y-80337662D02*
X175260000Y-80337662D01*
X177609501Y-82261839D02*
X175685324Y-80337662D01*
X175686837Y-83534499D02*
X176011839Y-83859501D01*
X174744499Y-83534499D02*
X175686837Y-83534499D01*
X176011839Y-83859501D02*
X177048161Y-83859501D01*
X173990000Y-82780000D02*
X174744499Y-83534499D01*
X177609501Y-83298161D02*
X177609501Y-82261839D01*
X177048161Y-83859501D02*
X177609501Y-83298161D01*
X176339501Y-79819501D02*
X175260000Y-78740000D01*
X171386500Y-59055000D02*
X181049520Y-68718020D01*
X181049520Y-68718020D02*
X181049520Y-68886476D01*
X181049520Y-68886476D02*
X181049522Y-68886478D01*
X178318161Y-79819501D02*
X176339501Y-79819501D01*
X181049522Y-68886478D02*
X181049522Y-77088140D01*
X171386500Y-54356000D02*
X171386500Y-59055000D01*
X181049522Y-77088140D02*
X178318161Y-79819501D01*
X148526500Y-69596000D02*
X141822002Y-62891502D01*
X135350250Y-61933754D02*
X136307998Y-62891502D01*
X135350250Y-60737750D02*
X135350250Y-61933754D01*
X141822002Y-62891502D02*
X136307998Y-62891502D01*
X135350250Y-60737750D02*
X137096500Y-58991500D01*
X138430000Y-60198000D02*
X137096500Y-61531500D01*
X138430000Y-59245500D02*
X138430000Y-60198000D01*
X164084000Y-58356500D02*
X139319000Y-58356500D01*
X139319000Y-58356500D02*
X138430000Y-59245500D01*
X142430500Y-66040000D02*
X145986500Y-69596000D01*
X137096500Y-66040000D02*
X142430500Y-66040000D01*
X138112500Y-69596000D02*
X137096500Y-68580000D01*
X143446500Y-69596000D02*
X138112500Y-69596000D01*
X152511950Y-72355552D02*
X151755085Y-72355552D01*
X154731501Y-69232999D02*
X154731501Y-70136001D01*
X154731501Y-70136001D02*
X152511950Y-72355552D01*
X156945498Y-67019002D02*
X154731501Y-69232999D01*
X166914998Y-67019002D02*
X156945498Y-67019002D01*
X168021000Y-65913000D02*
X166914998Y-67019002D01*
X128905000Y-65443998D02*
X128905000Y-68580000D01*
X136532499Y-57816499D02*
X128905000Y-65443998D01*
X160560001Y-57816499D02*
X136532499Y-57816499D01*
X160560001Y-57816499D02*
X160782000Y-57594500D01*
X146050000Y-82780000D02*
X147129501Y-83859501D01*
X165250999Y-86399501D02*
X152741499Y-86399501D01*
X147129501Y-83859501D02*
X150201499Y-83859501D01*
X150201499Y-83859501D02*
X152741499Y-86399501D01*
X166687500Y-84963000D02*
X165250999Y-86399501D01*
X154749500Y-67945000D02*
X153592498Y-67945000D01*
X153592498Y-67945000D02*
X152191501Y-69345997D01*
X152191501Y-69345997D02*
X152191501Y-70136001D01*
X152191501Y-70136001D02*
X151144002Y-71183500D01*
X151144002Y-71183500D02*
X123235387Y-71183500D01*
X123235387Y-71183500D02*
X120949387Y-73469500D01*
X120949387Y-73469500D02*
X119507000Y-73469500D01*
X120072685Y-73469500D02*
X119507000Y-73469500D01*
X133350000Y-78740000D02*
X133350000Y-75587348D01*
X133350000Y-75587348D02*
X131021195Y-73258543D01*
X131021195Y-73258543D02*
X130455510Y-73258543D01*
X149066501Y-70721001D02*
X123061476Y-70721001D01*
X152463500Y-66929000D02*
X151897815Y-66929000D01*
X151897815Y-66929000D02*
X150056315Y-68770500D01*
X123061476Y-70721001D02*
X122772466Y-71010011D01*
X150056315Y-68770500D02*
X149756814Y-68470999D01*
X122772466Y-71010011D02*
X117965989Y-71010011D01*
X149651501Y-70136001D02*
X149066501Y-70721001D01*
X111125000Y-77851000D02*
X110299500Y-77851000D01*
X117965989Y-71010011D02*
X111125000Y-77851000D01*
X149651501Y-69055999D02*
X149651501Y-70136001D01*
X149066501Y-68470999D02*
X149651501Y-69055999D01*
X149756814Y-68470999D02*
X149066501Y-68470999D01*
D19*
G36*
X192824500Y-102340000D02*
G01*
X87210500Y-102340000D01*
X87210500Y-97779872D01*
X87765000Y-97779872D01*
X87765000Y-98220128D01*
X87850890Y-98651925D01*
X88019369Y-99058669D01*
X88263962Y-99424729D01*
X88575271Y-99736038D01*
X88941331Y-99980631D01*
X89348075Y-100149110D01*
X89779872Y-100235000D01*
X90220128Y-100235000D01*
X90651925Y-100149110D01*
X91058669Y-99980631D01*
X91424729Y-99736038D01*
X91736038Y-99424729D01*
X91980631Y-99058669D01*
X92149110Y-98651925D01*
X92235000Y-98220128D01*
X92235000Y-97779872D01*
X92188222Y-97544699D01*
X95139906Y-97544699D01*
X95264314Y-97833392D01*
X95594397Y-97997999D01*
X95950251Y-98095048D01*
X96318201Y-98120808D01*
X96684106Y-98074290D01*
X97033906Y-97957282D01*
X97265686Y-97833392D01*
X97390094Y-97544699D01*
X182009906Y-97544699D01*
X182134314Y-97833392D01*
X182464397Y-97997999D01*
X182820251Y-98095048D01*
X183188201Y-98120808D01*
X183554106Y-98074290D01*
X183903906Y-97957282D01*
X184135686Y-97833392D01*
X184158749Y-97779872D01*
X187765000Y-97779872D01*
X187765000Y-98220128D01*
X187850890Y-98651925D01*
X188019369Y-99058669D01*
X188263962Y-99424729D01*
X188575271Y-99736038D01*
X188941331Y-99980631D01*
X189348075Y-100149110D01*
X189779872Y-100235000D01*
X190220128Y-100235000D01*
X190651925Y-100149110D01*
X191058669Y-99980631D01*
X191424729Y-99736038D01*
X191736038Y-99424729D01*
X191980631Y-99058669D01*
X192149110Y-98651925D01*
X192235000Y-98220128D01*
X192235000Y-97779872D01*
X192149110Y-97348075D01*
X191980631Y-96941331D01*
X191736038Y-96575271D01*
X191424729Y-96263962D01*
X191058669Y-96019369D01*
X190651925Y-95850890D01*
X190220128Y-95765000D01*
X189779872Y-95765000D01*
X189348075Y-95850890D01*
X188941331Y-96019369D01*
X188575271Y-96263962D01*
X188263962Y-96575271D01*
X188019369Y-96941331D01*
X187850890Y-97348075D01*
X187765000Y-97779872D01*
X184158749Y-97779872D01*
X184260094Y-97544699D01*
X183135000Y-96419605D01*
X182009906Y-97544699D01*
X97390094Y-97544699D01*
X96265000Y-96419605D01*
X95139906Y-97544699D01*
X92188222Y-97544699D01*
X92149110Y-97348075D01*
X91980631Y-96941331D01*
X91736038Y-96575271D01*
X91453968Y-96293201D01*
X94384192Y-96293201D01*
X94430710Y-96659106D01*
X94547718Y-97008906D01*
X94671608Y-97240686D01*
X94960301Y-97365094D01*
X96085395Y-96240000D01*
X96444605Y-96240000D01*
X97569699Y-97365094D01*
X97858392Y-97240686D01*
X98022999Y-96910603D01*
X98120048Y-96554749D01*
X98138358Y-96293201D01*
X181254192Y-96293201D01*
X181300710Y-96659106D01*
X181417718Y-97008906D01*
X181541608Y-97240686D01*
X181830301Y-97365094D01*
X182955395Y-96240000D01*
X183314605Y-96240000D01*
X184439699Y-97365094D01*
X184728392Y-97240686D01*
X184892999Y-96910603D01*
X184990048Y-96554749D01*
X185015808Y-96186799D01*
X184969290Y-95820894D01*
X184852282Y-95471094D01*
X184728392Y-95239314D01*
X184439699Y-95114906D01*
X183314605Y-96240000D01*
X182955395Y-96240000D01*
X181830301Y-95114906D01*
X181541608Y-95239314D01*
X181377001Y-95569397D01*
X181279952Y-95925251D01*
X181254192Y-96293201D01*
X98138358Y-96293201D01*
X98145808Y-96186799D01*
X98099290Y-95820894D01*
X97982282Y-95471094D01*
X97858392Y-95239314D01*
X97569699Y-95114906D01*
X96444605Y-96240000D01*
X96085395Y-96240000D01*
X94960301Y-95114906D01*
X94671608Y-95239314D01*
X94507001Y-95569397D01*
X94409952Y-95925251D01*
X94384192Y-96293201D01*
X91453968Y-96293201D01*
X91424729Y-96263962D01*
X91058669Y-96019369D01*
X90651925Y-95850890D01*
X90220128Y-95765000D01*
X89779872Y-95765000D01*
X89348075Y-95850890D01*
X88941331Y-96019369D01*
X88575271Y-96263962D01*
X88263962Y-96575271D01*
X88019369Y-96941331D01*
X87850890Y-97348075D01*
X87765000Y-97779872D01*
X87210500Y-97779872D01*
X87210500Y-94935301D01*
X95139906Y-94935301D01*
X96265000Y-96060395D01*
X97390094Y-94935301D01*
X182009906Y-94935301D01*
X183135000Y-96060395D01*
X184260094Y-94935301D01*
X184135686Y-94646608D01*
X183805603Y-94482001D01*
X183449749Y-94384952D01*
X183081799Y-94359192D01*
X182715894Y-94405710D01*
X182366094Y-94522718D01*
X182134314Y-94646608D01*
X182009906Y-94935301D01*
X97390094Y-94935301D01*
X97265686Y-94646608D01*
X96935603Y-94482001D01*
X96579749Y-94384952D01*
X96211799Y-94359192D01*
X95845894Y-94405710D01*
X95496094Y-94522718D01*
X95264314Y-94646608D01*
X95139906Y-94935301D01*
X87210500Y-94935301D01*
X87210500Y-91444947D01*
X96775000Y-91444947D01*
X96775000Y-91895053D01*
X96862811Y-92336510D01*
X97035059Y-92752353D01*
X97285125Y-93126603D01*
X97603397Y-93444875D01*
X97977647Y-93694941D01*
X98393490Y-93867189D01*
X98834947Y-93955000D01*
X99285053Y-93955000D01*
X99726510Y-93867189D01*
X100142353Y-93694941D01*
X100516603Y-93444875D01*
X100834875Y-93126603D01*
X101084941Y-92752353D01*
X101257189Y-92336510D01*
X101345000Y-91895053D01*
X101345000Y-91444947D01*
X178055000Y-91444947D01*
X178055000Y-91895053D01*
X178142811Y-92336510D01*
X178315059Y-92752353D01*
X178565125Y-93126603D01*
X178883397Y-93444875D01*
X179257647Y-93694941D01*
X179673490Y-93867189D01*
X180114947Y-93955000D01*
X180565053Y-93955000D01*
X181006510Y-93867189D01*
X181422353Y-93694941D01*
X181796603Y-93444875D01*
X182114875Y-93126603D01*
X182364941Y-92752353D01*
X182537189Y-92336510D01*
X182625000Y-91895053D01*
X182625000Y-91444947D01*
X182537189Y-91003490D01*
X182364941Y-90587647D01*
X182114875Y-90213397D01*
X181796603Y-89895125D01*
X181422353Y-89645059D01*
X181006510Y-89472811D01*
X180565053Y-89385000D01*
X180114947Y-89385000D01*
X179673490Y-89472811D01*
X179257647Y-89645059D01*
X178883397Y-89895125D01*
X178565125Y-90213397D01*
X178315059Y-90587647D01*
X178142811Y-91003490D01*
X178055000Y-91444947D01*
X101345000Y-91444947D01*
X101257189Y-91003490D01*
X101084941Y-90587647D01*
X100834875Y-90213397D01*
X100516603Y-89895125D01*
X100142353Y-89645059D01*
X99726510Y-89472811D01*
X99285053Y-89385000D01*
X98834947Y-89385000D01*
X98393490Y-89472811D01*
X97977647Y-89645059D01*
X97603397Y-89895125D01*
X97285125Y-90213397D01*
X97035059Y-90587647D01*
X96862811Y-91003490D01*
X96775000Y-91444947D01*
X87210500Y-91444947D01*
X87210500Y-85183146D01*
X98940500Y-85183146D01*
X98940500Y-85456854D01*
X98993898Y-85725302D01*
X99098641Y-85978175D01*
X99250705Y-86205754D01*
X99444246Y-86399295D01*
X99671825Y-86551359D01*
X99924698Y-86656102D01*
X100193146Y-86709500D01*
X100466854Y-86709500D01*
X100735302Y-86656102D01*
X100988175Y-86551359D01*
X101215754Y-86399295D01*
X101409295Y-86205754D01*
X101561359Y-85978175D01*
X101600000Y-85884887D01*
X101638641Y-85978175D01*
X101790705Y-86205754D01*
X101984246Y-86399295D01*
X102211825Y-86551359D01*
X102464698Y-86656102D01*
X102733146Y-86709500D01*
X103006854Y-86709500D01*
X103275302Y-86656102D01*
X103528175Y-86551359D01*
X103755754Y-86399295D01*
X103949295Y-86205754D01*
X104101359Y-85978175D01*
X104140000Y-85884887D01*
X104178641Y-85978175D01*
X104330705Y-86205754D01*
X104524246Y-86399295D01*
X104751825Y-86551359D01*
X105004698Y-86656102D01*
X105273146Y-86709500D01*
X105546854Y-86709500D01*
X105815302Y-86656102D01*
X106068175Y-86551359D01*
X106295754Y-86399295D01*
X106489295Y-86205754D01*
X106641359Y-85978175D01*
X106680000Y-85884887D01*
X106718641Y-85978175D01*
X106870705Y-86205754D01*
X107064246Y-86399295D01*
X107291825Y-86551359D01*
X107544698Y-86656102D01*
X107813146Y-86709500D01*
X108086854Y-86709500D01*
X108355302Y-86656102D01*
X108608175Y-86551359D01*
X108835754Y-86399295D01*
X109029295Y-86205754D01*
X109181359Y-85978175D01*
X109286102Y-85725302D01*
X109339500Y-85456854D01*
X109339500Y-85183146D01*
X109286102Y-84914698D01*
X109181359Y-84661825D01*
X109029295Y-84434246D01*
X108835754Y-84240705D01*
X108608175Y-84088641D01*
X108355302Y-83983898D01*
X108086854Y-83930500D01*
X107813146Y-83930500D01*
X107544698Y-83983898D01*
X107291825Y-84088641D01*
X107064246Y-84240705D01*
X106870705Y-84434246D01*
X106718641Y-84661825D01*
X106680000Y-84755113D01*
X106641359Y-84661825D01*
X106489295Y-84434246D01*
X106295754Y-84240705D01*
X106068175Y-84088641D01*
X105815302Y-83983898D01*
X105546854Y-83930500D01*
X105273146Y-83930500D01*
X105004698Y-83983898D01*
X104751825Y-84088641D01*
X104524246Y-84240705D01*
X104330705Y-84434246D01*
X104178641Y-84661825D01*
X104140000Y-84755113D01*
X104101359Y-84661825D01*
X103949295Y-84434246D01*
X103755754Y-84240705D01*
X103528175Y-84088641D01*
X103275302Y-83983898D01*
X103006854Y-83930500D01*
X102733146Y-83930500D01*
X102464698Y-83983898D01*
X102211825Y-84088641D01*
X101984246Y-84240705D01*
X101790705Y-84434246D01*
X101638641Y-84661825D01*
X101600000Y-84755113D01*
X101561359Y-84661825D01*
X101409295Y-84434246D01*
X101215754Y-84240705D01*
X100988175Y-84088641D01*
X100735302Y-83983898D01*
X100466854Y-83930500D01*
X100193146Y-83930500D01*
X99924698Y-83983898D01*
X99671825Y-84088641D01*
X99444246Y-84240705D01*
X99250705Y-84434246D01*
X99098641Y-84661825D01*
X98993898Y-84914698D01*
X98940500Y-85183146D01*
X87210500Y-85183146D01*
X87210500Y-83834699D01*
X95804906Y-83834699D01*
X95929314Y-84123392D01*
X96259397Y-84287999D01*
X96615251Y-84385048D01*
X96983201Y-84410808D01*
X97349106Y-84364290D01*
X97698906Y-84247282D01*
X97930686Y-84123392D01*
X98055094Y-83834699D01*
X97960603Y-83740208D01*
X100819397Y-83740208D01*
X100885468Y-83979534D01*
X101133215Y-84095883D01*
X101398900Y-84161664D01*
X101672314Y-84174349D01*
X101942948Y-84133449D01*
X102200404Y-84040537D01*
X102314532Y-83979534D01*
X102380603Y-83740208D01*
X101600000Y-82959605D01*
X100819397Y-83740208D01*
X97960603Y-83740208D01*
X96930000Y-82709605D01*
X95804906Y-83834699D01*
X87210500Y-83834699D01*
X87210500Y-82583201D01*
X95049192Y-82583201D01*
X95095710Y-82949106D01*
X95212718Y-83298906D01*
X95336608Y-83530686D01*
X95625301Y-83655094D01*
X96750395Y-82530000D01*
X97109605Y-82530000D01*
X98234699Y-83655094D01*
X98523392Y-83530686D01*
X98687999Y-83200603D01*
X98782984Y-82852314D01*
X100205651Y-82852314D01*
X100246551Y-83122948D01*
X100339463Y-83380404D01*
X100400466Y-83494532D01*
X100639792Y-83560603D01*
X101420395Y-82780000D01*
X100639792Y-81999397D01*
X100400466Y-82065468D01*
X100284117Y-82313215D01*
X100218336Y-82578900D01*
X100205651Y-82852314D01*
X98782984Y-82852314D01*
X98785048Y-82844749D01*
X98810808Y-82476799D01*
X98764290Y-82110894D01*
X98666917Y-81819792D01*
X100819397Y-81819792D01*
X101600000Y-82600395D01*
X102380603Y-81819792D01*
X102314532Y-81580466D01*
X102066785Y-81464117D01*
X101801100Y-81398336D01*
X101527686Y-81385651D01*
X101257052Y-81426551D01*
X100999596Y-81519463D01*
X100885468Y-81580466D01*
X100819397Y-81819792D01*
X98666917Y-81819792D01*
X98647282Y-81761094D01*
X98523392Y-81529314D01*
X98234699Y-81404906D01*
X97109605Y-82530000D01*
X96750395Y-82530000D01*
X95625301Y-81404906D01*
X95336608Y-81529314D01*
X95172001Y-81859397D01*
X95074952Y-82215251D01*
X95049192Y-82583201D01*
X87210500Y-82583201D01*
X87210500Y-81225301D01*
X95804906Y-81225301D01*
X96930000Y-82350395D01*
X98055094Y-81225301D01*
X97930686Y-80936608D01*
X97600603Y-80772001D01*
X97244749Y-80674952D01*
X96876799Y-80649192D01*
X96510894Y-80695710D01*
X96161094Y-80812718D01*
X95929314Y-80936608D01*
X95804906Y-81225301D01*
X87210500Y-81225301D01*
X87210500Y-78603146D01*
X98940500Y-78603146D01*
X98940500Y-78876854D01*
X98993898Y-79145302D01*
X99098641Y-79398175D01*
X99250705Y-79625754D01*
X99444246Y-79819295D01*
X99671825Y-79971359D01*
X99924698Y-80076102D01*
X100193146Y-80129500D01*
X100466854Y-80129500D01*
X100735302Y-80076102D01*
X100988175Y-79971359D01*
X101215754Y-79819295D01*
X101409295Y-79625754D01*
X101561359Y-79398175D01*
X101600000Y-79304887D01*
X101638641Y-79398175D01*
X101790705Y-79625754D01*
X101984246Y-79819295D01*
X102211825Y-79971359D01*
X102464698Y-80076102D01*
X102733146Y-80129500D01*
X103006854Y-80129500D01*
X103066723Y-80117591D01*
X103405059Y-80455927D01*
X103431210Y-80487792D01*
X103481553Y-80529107D01*
X103558355Y-80592137D01*
X103703414Y-80669673D01*
X103860812Y-80717419D01*
X104024501Y-80733541D01*
X104065519Y-80729501D01*
X106154141Y-80729501D01*
X106195159Y-80733541D01*
X106236177Y-80729501D01*
X106236178Y-80729501D01*
X106358848Y-80717419D01*
X106516246Y-80669673D01*
X106661305Y-80592137D01*
X106788450Y-80487792D01*
X106796859Y-80477546D01*
X106817716Y-80502960D01*
X106849575Y-80529106D01*
X106849577Y-80529108D01*
X106915461Y-80583177D01*
X106944861Y-80607305D01*
X107089920Y-80684841D01*
X107247318Y-80732587D01*
X107369988Y-80744669D01*
X107369989Y-80744669D01*
X107411007Y-80748709D01*
X107452025Y-80744669D01*
X107534463Y-80744669D01*
X106876724Y-81402409D01*
X106816854Y-81390500D01*
X106543146Y-81390500D01*
X106274698Y-81443898D01*
X106021825Y-81548641D01*
X105794246Y-81700705D01*
X105600705Y-81894246D01*
X105448641Y-82121825D01*
X105410000Y-82215113D01*
X105371359Y-82121825D01*
X105219295Y-81894246D01*
X105025754Y-81700705D01*
X104798175Y-81548641D01*
X104545302Y-81443898D01*
X104276854Y-81390500D01*
X104003146Y-81390500D01*
X103734698Y-81443898D01*
X103481825Y-81548641D01*
X103254246Y-81700705D01*
X103060705Y-81894246D01*
X102908641Y-82121825D01*
X102871793Y-82210785D01*
X102860537Y-82179596D01*
X102799534Y-82065468D01*
X102560208Y-81999397D01*
X101779605Y-82780000D01*
X102560208Y-83560603D01*
X102799534Y-83494532D01*
X102869912Y-83344674D01*
X102908641Y-83438175D01*
X103060705Y-83665754D01*
X103254246Y-83859295D01*
X103481825Y-84011359D01*
X103734698Y-84116102D01*
X104003146Y-84169500D01*
X104276854Y-84169500D01*
X104545302Y-84116102D01*
X104798175Y-84011359D01*
X105025754Y-83859295D01*
X105219295Y-83665754D01*
X105371359Y-83438175D01*
X105410000Y-83344887D01*
X105448641Y-83438175D01*
X105600705Y-83665754D01*
X105794246Y-83859295D01*
X106021825Y-84011359D01*
X106274698Y-84116102D01*
X106543146Y-84169500D01*
X106816854Y-84169500D01*
X107085302Y-84116102D01*
X107338175Y-84011359D01*
X107565754Y-83859295D01*
X107759295Y-83665754D01*
X107911359Y-83438175D01*
X107950000Y-83344887D01*
X107988641Y-83438175D01*
X108140705Y-83665754D01*
X108334246Y-83859295D01*
X108561825Y-84011359D01*
X108814698Y-84116102D01*
X109083146Y-84169500D01*
X109356854Y-84169500D01*
X109625302Y-84116102D01*
X109878175Y-84011359D01*
X110105754Y-83859295D01*
X110299295Y-83665754D01*
X110451359Y-83438175D01*
X110556102Y-83185302D01*
X110609500Y-82916854D01*
X110609500Y-82852314D01*
X114175651Y-82852314D01*
X114216551Y-83122948D01*
X114309463Y-83380404D01*
X114370466Y-83494532D01*
X114609792Y-83560603D01*
X115390395Y-82780000D01*
X114609792Y-81999397D01*
X114370466Y-82065468D01*
X114254117Y-82313215D01*
X114188336Y-82578900D01*
X114175651Y-82852314D01*
X110609500Y-82852314D01*
X110609500Y-82643146D01*
X110556102Y-82374698D01*
X110451359Y-82121825D01*
X110299295Y-81894246D01*
X110224841Y-81819792D01*
X114789397Y-81819792D01*
X115570000Y-82600395D01*
X116350603Y-81819792D01*
X116284532Y-81580466D01*
X116036785Y-81464117D01*
X115771100Y-81398336D01*
X115497686Y-81385651D01*
X115227052Y-81426551D01*
X114969596Y-81519463D01*
X114855468Y-81580466D01*
X114789397Y-81819792D01*
X110224841Y-81819792D01*
X110105754Y-81700705D01*
X109878175Y-81548641D01*
X109625302Y-81443898D01*
X109356854Y-81390500D01*
X109250368Y-81390500D01*
X109896199Y-80744669D01*
X115629313Y-80744669D01*
X115670331Y-80748709D01*
X115711349Y-80744669D01*
X115711350Y-80744669D01*
X115834020Y-80732587D01*
X115991418Y-80684841D01*
X116136477Y-80607305D01*
X116263622Y-80502960D01*
X116289776Y-80471091D01*
X116643277Y-80117591D01*
X116703146Y-80129500D01*
X116976854Y-80129500D01*
X117036724Y-80117591D01*
X118325220Y-81406088D01*
X118246854Y-81390500D01*
X117973146Y-81390500D01*
X117704698Y-81443898D01*
X117451825Y-81548641D01*
X117224246Y-81700705D01*
X117030705Y-81894246D01*
X116878641Y-82121825D01*
X116841793Y-82210785D01*
X116830537Y-82179596D01*
X116769534Y-82065468D01*
X116530208Y-81999397D01*
X115749605Y-82780000D01*
X115763748Y-82794143D01*
X115584143Y-82973748D01*
X115570000Y-82959605D01*
X114789397Y-83740208D01*
X114792770Y-83752428D01*
X114585192Y-83960006D01*
X114436854Y-83930500D01*
X114163146Y-83930500D01*
X113894698Y-83983898D01*
X113641825Y-84088641D01*
X113414246Y-84240705D01*
X113220705Y-84434246D01*
X113068641Y-84661825D01*
X112963898Y-84914698D01*
X112910500Y-85183146D01*
X112910500Y-85456854D01*
X112963898Y-85725302D01*
X113068641Y-85978175D01*
X113220705Y-86205754D01*
X113414246Y-86399295D01*
X113641825Y-86551359D01*
X113894698Y-86656102D01*
X114163146Y-86709500D01*
X114436854Y-86709500D01*
X114705302Y-86656102D01*
X114958175Y-86551359D01*
X115185754Y-86399295D01*
X115379295Y-86205754D01*
X115531359Y-85978175D01*
X115570000Y-85884887D01*
X115608641Y-85978175D01*
X115760705Y-86205754D01*
X115954246Y-86399295D01*
X116181825Y-86551359D01*
X116434698Y-86656102D01*
X116703146Y-86709500D01*
X116976854Y-86709500D01*
X117245302Y-86656102D01*
X117498175Y-86551359D01*
X117725754Y-86399295D01*
X117919295Y-86205754D01*
X118071359Y-85978175D01*
X118110000Y-85884887D01*
X118148641Y-85978175D01*
X118300705Y-86205754D01*
X118494246Y-86399295D01*
X118721825Y-86551359D01*
X118974698Y-86656102D01*
X119243146Y-86709500D01*
X119516854Y-86709500D01*
X119785302Y-86656102D01*
X120038175Y-86551359D01*
X120265754Y-86399295D01*
X120459295Y-86205754D01*
X120611359Y-85978175D01*
X120650000Y-85884887D01*
X120688641Y-85978175D01*
X120840705Y-86205754D01*
X121034246Y-86399295D01*
X121261825Y-86551359D01*
X121514698Y-86656102D01*
X121783146Y-86709500D01*
X122056854Y-86709500D01*
X122325302Y-86656102D01*
X122578175Y-86551359D01*
X122805754Y-86399295D01*
X122999295Y-86205754D01*
X123151359Y-85978175D01*
X123256102Y-85725302D01*
X123309500Y-85456854D01*
X123309500Y-85183146D01*
X126880500Y-85183146D01*
X126880500Y-85456854D01*
X126933898Y-85725302D01*
X127038641Y-85978175D01*
X127190705Y-86205754D01*
X127384246Y-86399295D01*
X127611825Y-86551359D01*
X127864698Y-86656102D01*
X128133146Y-86709500D01*
X128406854Y-86709500D01*
X128675302Y-86656102D01*
X128928175Y-86551359D01*
X129155754Y-86399295D01*
X129349295Y-86205754D01*
X129501359Y-85978175D01*
X129540000Y-85884887D01*
X129578641Y-85978175D01*
X129730705Y-86205754D01*
X129924246Y-86399295D01*
X130151825Y-86551359D01*
X130404698Y-86656102D01*
X130673146Y-86709500D01*
X130946854Y-86709500D01*
X131215302Y-86656102D01*
X131468175Y-86551359D01*
X131695754Y-86399295D01*
X131889295Y-86205754D01*
X132041359Y-85978175D01*
X132080000Y-85884887D01*
X132118641Y-85978175D01*
X132270705Y-86205754D01*
X132464246Y-86399295D01*
X132691825Y-86551359D01*
X132944698Y-86656102D01*
X133213146Y-86709500D01*
X133486854Y-86709500D01*
X133755302Y-86656102D01*
X134008175Y-86551359D01*
X134235754Y-86399295D01*
X134429295Y-86205754D01*
X134581359Y-85978175D01*
X134620000Y-85884887D01*
X134658641Y-85978175D01*
X134810705Y-86205754D01*
X135004246Y-86399295D01*
X135231825Y-86551359D01*
X135484698Y-86656102D01*
X135753146Y-86709500D01*
X136026854Y-86709500D01*
X136295302Y-86656102D01*
X136548175Y-86551359D01*
X136775754Y-86399295D01*
X136969295Y-86205754D01*
X137121359Y-85978175D01*
X137226102Y-85725302D01*
X137279500Y-85456854D01*
X137279500Y-85183146D01*
X137226102Y-84914698D01*
X137121359Y-84661825D01*
X136969295Y-84434246D01*
X136775754Y-84240705D01*
X136548175Y-84088641D01*
X136295302Y-83983898D01*
X136026854Y-83930500D01*
X135753146Y-83930500D01*
X135484698Y-83983898D01*
X135231825Y-84088641D01*
X135004246Y-84240705D01*
X134810705Y-84434246D01*
X134658641Y-84661825D01*
X134620000Y-84755113D01*
X134581359Y-84661825D01*
X134429295Y-84434246D01*
X134235754Y-84240705D01*
X134008175Y-84088641D01*
X133755302Y-83983898D01*
X133486854Y-83930500D01*
X133213146Y-83930500D01*
X132944698Y-83983898D01*
X132691825Y-84088641D01*
X132464246Y-84240705D01*
X132270705Y-84434246D01*
X132118641Y-84661825D01*
X132080000Y-84755113D01*
X132041359Y-84661825D01*
X131889295Y-84434246D01*
X131695754Y-84240705D01*
X131468175Y-84088641D01*
X131215302Y-83983898D01*
X130946854Y-83930500D01*
X130673146Y-83930500D01*
X130404698Y-83983898D01*
X130151825Y-84088641D01*
X129924246Y-84240705D01*
X129730705Y-84434246D01*
X129578641Y-84661825D01*
X129540000Y-84755113D01*
X129501359Y-84661825D01*
X129349295Y-84434246D01*
X129155754Y-84240705D01*
X128928175Y-84088641D01*
X128675302Y-83983898D01*
X128406854Y-83930500D01*
X128133146Y-83930500D01*
X127864698Y-83983898D01*
X127611825Y-84088641D01*
X127384246Y-84240705D01*
X127190705Y-84434246D01*
X127038641Y-84661825D01*
X126933898Y-84914698D01*
X126880500Y-85183146D01*
X123309500Y-85183146D01*
X123273169Y-85000499D01*
X125970679Y-85000499D01*
X126008001Y-85004175D01*
X126045323Y-85000499D01*
X126045334Y-85000499D01*
X126156987Y-84989502D01*
X126300248Y-84946045D01*
X126432277Y-84875473D01*
X126548002Y-84780500D01*
X126571805Y-84751496D01*
X127583093Y-83740208D01*
X128759397Y-83740208D01*
X128825468Y-83979534D01*
X129073215Y-84095883D01*
X129338900Y-84161664D01*
X129612314Y-84174349D01*
X129882948Y-84133449D01*
X130140404Y-84040537D01*
X130254532Y-83979534D01*
X130320603Y-83740208D01*
X129540000Y-82959605D01*
X128759397Y-83740208D01*
X127583093Y-83740208D01*
X128190211Y-83133090D01*
X128279463Y-83380404D01*
X128340466Y-83494532D01*
X128579792Y-83560603D01*
X129360395Y-82780000D01*
X129346253Y-82765858D01*
X129525858Y-82586253D01*
X129540000Y-82600395D01*
X130320603Y-81819792D01*
X130254532Y-81580466D01*
X130006785Y-81464117D01*
X129888477Y-81434825D01*
X130565528Y-80757774D01*
X135719836Y-80757774D01*
X135282043Y-81195567D01*
X135210810Y-81202583D01*
X135135919Y-81225301D01*
X135053412Y-81250329D01*
X134908353Y-81327865D01*
X134822484Y-81398336D01*
X134817365Y-81402537D01*
X134756854Y-81390500D01*
X134483146Y-81390500D01*
X134214698Y-81443898D01*
X133961825Y-81548641D01*
X133734246Y-81700705D01*
X133540705Y-81894246D01*
X133388641Y-82121825D01*
X133350000Y-82215113D01*
X133311359Y-82121825D01*
X133159295Y-81894246D01*
X132965754Y-81700705D01*
X132738175Y-81548641D01*
X132485302Y-81443898D01*
X132216854Y-81390500D01*
X131943146Y-81390500D01*
X131674698Y-81443898D01*
X131421825Y-81548641D01*
X131194246Y-81700705D01*
X131000705Y-81894246D01*
X130848641Y-82121825D01*
X130811793Y-82210785D01*
X130800537Y-82179596D01*
X130739534Y-82065468D01*
X130500208Y-81999397D01*
X129719605Y-82780000D01*
X130500208Y-83560603D01*
X130739534Y-83494532D01*
X130809912Y-83344674D01*
X130848641Y-83438175D01*
X131000705Y-83665754D01*
X131194246Y-83859295D01*
X131421825Y-84011359D01*
X131674698Y-84116102D01*
X131943146Y-84169500D01*
X132216854Y-84169500D01*
X132485302Y-84116102D01*
X132738175Y-84011359D01*
X132965754Y-83859295D01*
X133159295Y-83665754D01*
X133311359Y-83438175D01*
X133350000Y-83344887D01*
X133388641Y-83438175D01*
X133540705Y-83665754D01*
X133734246Y-83859295D01*
X133961825Y-84011359D01*
X134214698Y-84116102D01*
X134483146Y-84169500D01*
X134756854Y-84169500D01*
X135025302Y-84116102D01*
X135278175Y-84011359D01*
X135505754Y-83859295D01*
X135699295Y-83665754D01*
X135851359Y-83438175D01*
X135890000Y-83344887D01*
X135928641Y-83438175D01*
X136080705Y-83665754D01*
X136274246Y-83859295D01*
X136501825Y-84011359D01*
X136754698Y-84116102D01*
X137023146Y-84169500D01*
X137296854Y-84169500D01*
X137565302Y-84116102D01*
X137818175Y-84011359D01*
X138045754Y-83859295D01*
X138164841Y-83740208D01*
X142729397Y-83740208D01*
X142795468Y-83979534D01*
X143043215Y-84095883D01*
X143308900Y-84161664D01*
X143582314Y-84174349D01*
X143852948Y-84133449D01*
X144110404Y-84040537D01*
X144224532Y-83979534D01*
X144290603Y-83740208D01*
X143510000Y-82959605D01*
X142729397Y-83740208D01*
X138164841Y-83740208D01*
X138239295Y-83665754D01*
X138391359Y-83438175D01*
X138496102Y-83185302D01*
X138549500Y-82916854D01*
X138549500Y-82852314D01*
X142115651Y-82852314D01*
X142156551Y-83122948D01*
X142249463Y-83380404D01*
X142310466Y-83494532D01*
X142549792Y-83560603D01*
X143330395Y-82780000D01*
X142549792Y-81999397D01*
X142310466Y-82065468D01*
X142194117Y-82313215D01*
X142128336Y-82578900D01*
X142115651Y-82852314D01*
X138549500Y-82852314D01*
X138549500Y-82643146D01*
X138496102Y-82374698D01*
X138391359Y-82121825D01*
X138239295Y-81894246D01*
X138164841Y-81819792D01*
X142729397Y-81819792D01*
X143510000Y-82600395D01*
X144290603Y-81819792D01*
X144224532Y-81580466D01*
X143976785Y-81464117D01*
X143711100Y-81398336D01*
X143437686Y-81385651D01*
X143167052Y-81426551D01*
X142909596Y-81519463D01*
X142795468Y-81580466D01*
X142729397Y-81819792D01*
X138164841Y-81819792D01*
X138045754Y-81700705D01*
X137818175Y-81548641D01*
X137565302Y-81443898D01*
X137423628Y-81415717D01*
X137659833Y-81179512D01*
X143134470Y-81179512D01*
X143175488Y-81183552D01*
X143216506Y-81179512D01*
X143216507Y-81179512D01*
X143339177Y-81167430D01*
X143496575Y-81119684D01*
X143641634Y-81042148D01*
X143768779Y-80937803D01*
X143794934Y-80905933D01*
X144583277Y-80117591D01*
X144643146Y-80129500D01*
X144758633Y-80129500D01*
X146019632Y-81390500D01*
X145913146Y-81390500D01*
X145644698Y-81443898D01*
X145391825Y-81548641D01*
X145164246Y-81700705D01*
X144970705Y-81894246D01*
X144818641Y-82121825D01*
X144781793Y-82210785D01*
X144770537Y-82179596D01*
X144709534Y-82065468D01*
X144470208Y-81999397D01*
X143689605Y-82780000D01*
X144470208Y-83560603D01*
X144709534Y-83494532D01*
X144779912Y-83344674D01*
X144818641Y-83438175D01*
X144970705Y-83665754D01*
X145164246Y-83859295D01*
X145391825Y-84011359D01*
X145644698Y-84116102D01*
X145913146Y-84169500D01*
X146186854Y-84169500D01*
X146335192Y-84139994D01*
X146435239Y-84240041D01*
X146434246Y-84240705D01*
X146240705Y-84434246D01*
X146088641Y-84661825D01*
X146050000Y-84755113D01*
X146011359Y-84661825D01*
X145859295Y-84434246D01*
X145665754Y-84240705D01*
X145438175Y-84088641D01*
X145185302Y-83983898D01*
X144916854Y-83930500D01*
X144643146Y-83930500D01*
X144374698Y-83983898D01*
X144121825Y-84088641D01*
X143894246Y-84240705D01*
X143700705Y-84434246D01*
X143548641Y-84661825D01*
X143510000Y-84755113D01*
X143471359Y-84661825D01*
X143319295Y-84434246D01*
X143125754Y-84240705D01*
X142898175Y-84088641D01*
X142645302Y-83983898D01*
X142376854Y-83930500D01*
X142103146Y-83930500D01*
X141834698Y-83983898D01*
X141581825Y-84088641D01*
X141354246Y-84240705D01*
X141160705Y-84434246D01*
X141008641Y-84661825D01*
X140903898Y-84914698D01*
X140850500Y-85183146D01*
X140850500Y-85456854D01*
X140903898Y-85725302D01*
X141008641Y-85978175D01*
X141160705Y-86205754D01*
X141354246Y-86399295D01*
X141581825Y-86551359D01*
X141834698Y-86656102D01*
X142103146Y-86709500D01*
X142376854Y-86709500D01*
X142645302Y-86656102D01*
X142898175Y-86551359D01*
X143125754Y-86399295D01*
X143319295Y-86205754D01*
X143471359Y-85978175D01*
X143510000Y-85884887D01*
X143548641Y-85978175D01*
X143700705Y-86205754D01*
X143894246Y-86399295D01*
X144121825Y-86551359D01*
X144374698Y-86656102D01*
X144643146Y-86709500D01*
X144916854Y-86709500D01*
X145185302Y-86656102D01*
X145438175Y-86551359D01*
X145665754Y-86399295D01*
X145859295Y-86205754D01*
X146011359Y-85978175D01*
X146050000Y-85884887D01*
X146088641Y-85978175D01*
X146240705Y-86205754D01*
X146434246Y-86399295D01*
X146661825Y-86551359D01*
X146914698Y-86656102D01*
X147183146Y-86709500D01*
X147456854Y-86709500D01*
X147725302Y-86656102D01*
X147978175Y-86551359D01*
X148205754Y-86399295D01*
X148399295Y-86205754D01*
X148551359Y-85978175D01*
X148590000Y-85884887D01*
X148628641Y-85978175D01*
X148780705Y-86205754D01*
X148974246Y-86399295D01*
X149201825Y-86551359D01*
X149454698Y-86656102D01*
X149723146Y-86709500D01*
X149996854Y-86709500D01*
X150265302Y-86656102D01*
X150518175Y-86551359D01*
X150745754Y-86399295D01*
X150939295Y-86205754D01*
X151091359Y-85978175D01*
X151136468Y-85869272D01*
X152177704Y-86910509D01*
X152201498Y-86939502D01*
X152230491Y-86963296D01*
X152230495Y-86963300D01*
X152301184Y-87021312D01*
X152317223Y-87034475D01*
X152449252Y-87105047D01*
X152592513Y-87148504D01*
X152704166Y-87159501D01*
X152704175Y-87159501D01*
X152741498Y-87163177D01*
X152778821Y-87159501D01*
X165213677Y-87159501D01*
X165250999Y-87163177D01*
X165288321Y-87159501D01*
X165288332Y-87159501D01*
X165399985Y-87148504D01*
X165543246Y-87105047D01*
X165543897Y-87104699D01*
X181354906Y-87104699D01*
X181479314Y-87393392D01*
X181809397Y-87557999D01*
X182165251Y-87655048D01*
X182533201Y-87680808D01*
X182899106Y-87634290D01*
X183248906Y-87517282D01*
X183480686Y-87393392D01*
X183605094Y-87104699D01*
X182480000Y-85979605D01*
X181354906Y-87104699D01*
X165543897Y-87104699D01*
X165675275Y-87034475D01*
X165791000Y-86939502D01*
X165814803Y-86910498D01*
X166727302Y-85998000D01*
X166789439Y-85998000D01*
X166989398Y-85958226D01*
X167177756Y-85880205D01*
X167347274Y-85766937D01*
X167491437Y-85622774D01*
X167604705Y-85453256D01*
X167682726Y-85264898D01*
X167722500Y-85064939D01*
X167722500Y-84861061D01*
X167682726Y-84661102D01*
X167604705Y-84472744D01*
X167491437Y-84303226D01*
X167347274Y-84159063D01*
X167177756Y-84045795D01*
X166989398Y-83967774D01*
X166789439Y-83928000D01*
X166585561Y-83928000D01*
X166385602Y-83967774D01*
X166197244Y-84045795D01*
X166027726Y-84159063D01*
X165883563Y-84303226D01*
X165770295Y-84472744D01*
X165692274Y-84661102D01*
X165652500Y-84861061D01*
X165652500Y-84923198D01*
X165219500Y-85356199D01*
X165219500Y-85183146D01*
X165166102Y-84914698D01*
X165061359Y-84661825D01*
X164909295Y-84434246D01*
X164715754Y-84240705D01*
X164488175Y-84088641D01*
X164235302Y-83983898D01*
X163966854Y-83930500D01*
X163693146Y-83930500D01*
X163424698Y-83983898D01*
X163171825Y-84088641D01*
X162944246Y-84240705D01*
X162750705Y-84434246D01*
X162598641Y-84661825D01*
X162560000Y-84755113D01*
X162521359Y-84661825D01*
X162369295Y-84434246D01*
X162175754Y-84240705D01*
X161948175Y-84088641D01*
X161695302Y-83983898D01*
X161426854Y-83930500D01*
X161153146Y-83930500D01*
X160884698Y-83983898D01*
X160631825Y-84088641D01*
X160404246Y-84240705D01*
X160210705Y-84434246D01*
X160058641Y-84661825D01*
X160020000Y-84755113D01*
X159981359Y-84661825D01*
X159829295Y-84434246D01*
X159635754Y-84240705D01*
X159408175Y-84088641D01*
X159155302Y-83983898D01*
X158886854Y-83930500D01*
X158613146Y-83930500D01*
X158344698Y-83983898D01*
X158091825Y-84088641D01*
X157864246Y-84240705D01*
X157670705Y-84434246D01*
X157518641Y-84661825D01*
X157480000Y-84755113D01*
X157441359Y-84661825D01*
X157289295Y-84434246D01*
X157095754Y-84240705D01*
X156868175Y-84088641D01*
X156615302Y-83983898D01*
X156346854Y-83930500D01*
X156073146Y-83930500D01*
X155804698Y-83983898D01*
X155551825Y-84088641D01*
X155324246Y-84240705D01*
X155130705Y-84434246D01*
X154978641Y-84661825D01*
X154873898Y-84914698D01*
X154820500Y-85183146D01*
X154820500Y-85456854D01*
X154856831Y-85639501D01*
X153056302Y-85639501D01*
X151533300Y-84116500D01*
X151535302Y-84116102D01*
X151788175Y-84011359D01*
X152015754Y-83859295D01*
X152134841Y-83740208D01*
X156699397Y-83740208D01*
X156765468Y-83979534D01*
X157013215Y-84095883D01*
X157278900Y-84161664D01*
X157552314Y-84174349D01*
X157822948Y-84133449D01*
X158080404Y-84040537D01*
X158194532Y-83979534D01*
X158260603Y-83740208D01*
X157480000Y-82959605D01*
X156699397Y-83740208D01*
X152134841Y-83740208D01*
X152209295Y-83665754D01*
X152361359Y-83438175D01*
X152466102Y-83185302D01*
X152519500Y-82916854D01*
X152519500Y-82852314D01*
X156085651Y-82852314D01*
X156126551Y-83122948D01*
X156219463Y-83380404D01*
X156280466Y-83494532D01*
X156519792Y-83560603D01*
X157300395Y-82780000D01*
X156519792Y-81999397D01*
X156280466Y-82065468D01*
X156164117Y-82313215D01*
X156098336Y-82578900D01*
X156085651Y-82852314D01*
X152519500Y-82852314D01*
X152519500Y-82643146D01*
X152466102Y-82374698D01*
X152361359Y-82121825D01*
X152209295Y-81894246D01*
X152134841Y-81819792D01*
X156699397Y-81819792D01*
X157480000Y-82600395D01*
X158260603Y-81819792D01*
X158194532Y-81580466D01*
X157946785Y-81464117D01*
X157681100Y-81398336D01*
X157407686Y-81385651D01*
X157137052Y-81426551D01*
X156879596Y-81519463D01*
X156765468Y-81580466D01*
X156699397Y-81819792D01*
X152134841Y-81819792D01*
X152015754Y-81700705D01*
X151788175Y-81548641D01*
X151535302Y-81443898D01*
X151266854Y-81390500D01*
X150993146Y-81390500D01*
X150724698Y-81443898D01*
X150471825Y-81548641D01*
X150244246Y-81700705D01*
X150050705Y-81894246D01*
X149898641Y-82121825D01*
X149860000Y-82215113D01*
X149821359Y-82121825D01*
X149669295Y-81894246D01*
X149475754Y-81700705D01*
X149248175Y-81548641D01*
X148995302Y-81443898D01*
X148726854Y-81390500D01*
X148453146Y-81390500D01*
X148393277Y-81402409D01*
X148000869Y-81010001D01*
X157273981Y-81010001D01*
X157314999Y-81014041D01*
X157356017Y-81010001D01*
X157356018Y-81010001D01*
X157478688Y-80997919D01*
X157636086Y-80950173D01*
X157781145Y-80872637D01*
X157908290Y-80768292D01*
X157934445Y-80736423D01*
X158553277Y-80117591D01*
X158613146Y-80129500D01*
X158728633Y-80129500D01*
X159989632Y-81390500D01*
X159883146Y-81390500D01*
X159614698Y-81443898D01*
X159361825Y-81548641D01*
X159134246Y-81700705D01*
X158940705Y-81894246D01*
X158788641Y-82121825D01*
X158751793Y-82210785D01*
X158740537Y-82179596D01*
X158679534Y-82065468D01*
X158440208Y-81999397D01*
X157659605Y-82780000D01*
X158440208Y-83560603D01*
X158679534Y-83494532D01*
X158749912Y-83344674D01*
X158788641Y-83438175D01*
X158940705Y-83665754D01*
X159134246Y-83859295D01*
X159361825Y-84011359D01*
X159614698Y-84116102D01*
X159883146Y-84169500D01*
X160156854Y-84169500D01*
X160425302Y-84116102D01*
X160678175Y-84011359D01*
X160905754Y-83859295D01*
X161099295Y-83665754D01*
X161251359Y-83438175D01*
X161290000Y-83344887D01*
X161328641Y-83438175D01*
X161480705Y-83665754D01*
X161674246Y-83859295D01*
X161901825Y-84011359D01*
X162154698Y-84116102D01*
X162423146Y-84169500D01*
X162696854Y-84169500D01*
X162965302Y-84116102D01*
X163218175Y-84011359D01*
X163445754Y-83859295D01*
X163639295Y-83665754D01*
X163791359Y-83438175D01*
X163830000Y-83344887D01*
X163868641Y-83438175D01*
X164020705Y-83665754D01*
X164214246Y-83859295D01*
X164441825Y-84011359D01*
X164694698Y-84116102D01*
X164963146Y-84169500D01*
X165236854Y-84169500D01*
X165505302Y-84116102D01*
X165758175Y-84011359D01*
X165985754Y-83859295D01*
X166104841Y-83740208D01*
X170669397Y-83740208D01*
X170735468Y-83979534D01*
X170983215Y-84095883D01*
X171248900Y-84161664D01*
X171522314Y-84174349D01*
X171792948Y-84133449D01*
X172050404Y-84040537D01*
X172164532Y-83979534D01*
X172230603Y-83740208D01*
X171450000Y-82959605D01*
X170669397Y-83740208D01*
X166104841Y-83740208D01*
X166179295Y-83665754D01*
X166331359Y-83438175D01*
X166436102Y-83185302D01*
X166489500Y-82916854D01*
X166489500Y-82852314D01*
X170055651Y-82852314D01*
X170096551Y-83122948D01*
X170189463Y-83380404D01*
X170250466Y-83494532D01*
X170489792Y-83560603D01*
X171270395Y-82780000D01*
X170489792Y-81999397D01*
X170250466Y-82065468D01*
X170134117Y-82313215D01*
X170068336Y-82578900D01*
X170055651Y-82852314D01*
X166489500Y-82852314D01*
X166489500Y-82643146D01*
X166436102Y-82374698D01*
X166331359Y-82121825D01*
X166179295Y-81894246D01*
X166104841Y-81819792D01*
X170669397Y-81819792D01*
X171450000Y-82600395D01*
X172230603Y-81819792D01*
X172164532Y-81580466D01*
X171916785Y-81464117D01*
X171651100Y-81398336D01*
X171377686Y-81385651D01*
X171107052Y-81426551D01*
X170849596Y-81519463D01*
X170735468Y-81580466D01*
X170669397Y-81819792D01*
X166104841Y-81819792D01*
X165985754Y-81700705D01*
X165758175Y-81548641D01*
X165505302Y-81443898D01*
X165236854Y-81390500D01*
X164963146Y-81390500D01*
X164694698Y-81443898D01*
X164441825Y-81548641D01*
X164214246Y-81700705D01*
X164020705Y-81894246D01*
X163868641Y-82121825D01*
X163830000Y-82215113D01*
X163791359Y-82121825D01*
X163639295Y-81894246D01*
X163445754Y-81700705D01*
X163218175Y-81548641D01*
X162965302Y-81443898D01*
X162696854Y-81390500D01*
X162423146Y-81390500D01*
X162363277Y-81402409D01*
X162140380Y-81179512D01*
X171074470Y-81179512D01*
X171115488Y-81183552D01*
X171156506Y-81179512D01*
X171156507Y-81179512D01*
X171279177Y-81167430D01*
X171436575Y-81119684D01*
X171581634Y-81042148D01*
X171708779Y-80937803D01*
X171734934Y-80905933D01*
X172523277Y-80117591D01*
X172583146Y-80129500D01*
X172856854Y-80129500D01*
X172916724Y-80117591D01*
X174205220Y-81406088D01*
X174126854Y-81390500D01*
X173853146Y-81390500D01*
X173584698Y-81443898D01*
X173331825Y-81548641D01*
X173104246Y-81700705D01*
X172910705Y-81894246D01*
X172758641Y-82121825D01*
X172721793Y-82210785D01*
X172710537Y-82179596D01*
X172649534Y-82065468D01*
X172410208Y-81999397D01*
X171629605Y-82780000D01*
X172410208Y-83560603D01*
X172649534Y-83494532D01*
X172719912Y-83344674D01*
X172758641Y-83438175D01*
X172910705Y-83665754D01*
X173104246Y-83859295D01*
X173331825Y-84011359D01*
X173584698Y-84116102D01*
X173853146Y-84169500D01*
X174126854Y-84169500D01*
X174282525Y-84138535D01*
X174320223Y-84169473D01*
X174409463Y-84217174D01*
X174374246Y-84240705D01*
X174180705Y-84434246D01*
X174028641Y-84661825D01*
X173990000Y-84755113D01*
X173951359Y-84661825D01*
X173799295Y-84434246D01*
X173605754Y-84240705D01*
X173378175Y-84088641D01*
X173125302Y-83983898D01*
X172856854Y-83930500D01*
X172583146Y-83930500D01*
X172314698Y-83983898D01*
X172061825Y-84088641D01*
X171834246Y-84240705D01*
X171640705Y-84434246D01*
X171488641Y-84661825D01*
X171450000Y-84755113D01*
X171411359Y-84661825D01*
X171259295Y-84434246D01*
X171065754Y-84240705D01*
X170838175Y-84088641D01*
X170585302Y-83983898D01*
X170316854Y-83930500D01*
X170043146Y-83930500D01*
X169774698Y-83983898D01*
X169521825Y-84088641D01*
X169294246Y-84240705D01*
X169100705Y-84434246D01*
X168948641Y-84661825D01*
X168843898Y-84914698D01*
X168790500Y-85183146D01*
X168790500Y-85456854D01*
X168843898Y-85725302D01*
X168948641Y-85978175D01*
X169100705Y-86205754D01*
X169294246Y-86399295D01*
X169521825Y-86551359D01*
X169774698Y-86656102D01*
X170043146Y-86709500D01*
X170316854Y-86709500D01*
X170585302Y-86656102D01*
X170838175Y-86551359D01*
X171065754Y-86399295D01*
X171259295Y-86205754D01*
X171411359Y-85978175D01*
X171450000Y-85884887D01*
X171488641Y-85978175D01*
X171640705Y-86205754D01*
X171834246Y-86399295D01*
X172061825Y-86551359D01*
X172314698Y-86656102D01*
X172583146Y-86709500D01*
X172856854Y-86709500D01*
X173125302Y-86656102D01*
X173378175Y-86551359D01*
X173605754Y-86399295D01*
X173799295Y-86205754D01*
X173951359Y-85978175D01*
X173990000Y-85884887D01*
X174028641Y-85978175D01*
X174180705Y-86205754D01*
X174374246Y-86399295D01*
X174601825Y-86551359D01*
X174854698Y-86656102D01*
X175123146Y-86709500D01*
X175396854Y-86709500D01*
X175665302Y-86656102D01*
X175918175Y-86551359D01*
X176145754Y-86399295D01*
X176339295Y-86205754D01*
X176491359Y-85978175D01*
X176530000Y-85884887D01*
X176568641Y-85978175D01*
X176720705Y-86205754D01*
X176914246Y-86399295D01*
X177141825Y-86551359D01*
X177394698Y-86656102D01*
X177663146Y-86709500D01*
X177936854Y-86709500D01*
X178205302Y-86656102D01*
X178458175Y-86551359D01*
X178488902Y-86530828D01*
X178572246Y-86505546D01*
X178704276Y-86434974D01*
X178820001Y-86340001D01*
X178914974Y-86224276D01*
X178985546Y-86092246D01*
X179010828Y-86008902D01*
X179031359Y-85978175D01*
X179083124Y-85853201D01*
X180599192Y-85853201D01*
X180645710Y-86219106D01*
X180762718Y-86568906D01*
X180886608Y-86800686D01*
X181175301Y-86925094D01*
X182300395Y-85800000D01*
X182659605Y-85800000D01*
X183784699Y-86925094D01*
X184073392Y-86800686D01*
X184237999Y-86470603D01*
X184335048Y-86114749D01*
X184360808Y-85746799D01*
X184314290Y-85380894D01*
X184197282Y-85031094D01*
X184073392Y-84799314D01*
X183784699Y-84674906D01*
X182659605Y-85800000D01*
X182300395Y-85800000D01*
X181175301Y-84674906D01*
X180886608Y-84799314D01*
X180722001Y-85129397D01*
X180624952Y-85485251D01*
X180599192Y-85853201D01*
X179083124Y-85853201D01*
X179136102Y-85725302D01*
X179189500Y-85456854D01*
X179189500Y-85183146D01*
X179136102Y-84914698D01*
X179031359Y-84661825D01*
X178920091Y-84495301D01*
X181354906Y-84495301D01*
X182480000Y-85620395D01*
X183605094Y-84495301D01*
X183480686Y-84206608D01*
X183150603Y-84042001D01*
X182794749Y-83944952D01*
X182426799Y-83919192D01*
X182060894Y-83965710D01*
X181711094Y-84082718D01*
X181479314Y-84206608D01*
X181354906Y-84495301D01*
X178920091Y-84495301D01*
X178879295Y-84434246D01*
X178685754Y-84240705D01*
X178458175Y-84088641D01*
X178205302Y-83983898D01*
X178032866Y-83949598D01*
X178120504Y-83861959D01*
X178149502Y-83838162D01*
X178155637Y-83830686D01*
X178184246Y-83859295D01*
X178411825Y-84011359D01*
X178664698Y-84116102D01*
X178933146Y-84169500D01*
X179206854Y-84169500D01*
X179475302Y-84116102D01*
X179728175Y-84011359D01*
X179955754Y-83859295D01*
X180149295Y-83665754D01*
X180301359Y-83438175D01*
X180406102Y-83185302D01*
X180459500Y-82916854D01*
X180459500Y-82643146D01*
X180406102Y-82374698D01*
X180301359Y-82121825D01*
X180149295Y-81894246D01*
X179955754Y-81700705D01*
X179797106Y-81594699D01*
X182009906Y-81594699D01*
X182134314Y-81883392D01*
X182464397Y-82047999D01*
X182820251Y-82145048D01*
X183188201Y-82170808D01*
X183554106Y-82124290D01*
X183903906Y-82007282D01*
X184135686Y-81883392D01*
X184260094Y-81594699D01*
X183135000Y-80469605D01*
X182009906Y-81594699D01*
X179797106Y-81594699D01*
X179728175Y-81548641D01*
X179475302Y-81443898D01*
X179206854Y-81390500D01*
X178933146Y-81390500D01*
X178664698Y-81443898D01*
X178411825Y-81548641D01*
X178184246Y-81700705D01*
X178155637Y-81729314D01*
X178149502Y-81721838D01*
X178120504Y-81698040D01*
X177001964Y-80579501D01*
X178280839Y-80579501D01*
X178318161Y-80583177D01*
X178355483Y-80579501D01*
X178355494Y-80579501D01*
X178467147Y-80568504D01*
X178610408Y-80525047D01*
X178742437Y-80454475D01*
X178858162Y-80359502D01*
X178871539Y-80343201D01*
X181254192Y-80343201D01*
X181300710Y-80709106D01*
X181417718Y-81058906D01*
X181541608Y-81290686D01*
X181830301Y-81415094D01*
X182955395Y-80290000D01*
X183314605Y-80290000D01*
X184439699Y-81415094D01*
X184728392Y-81290686D01*
X184892999Y-80960603D01*
X184990048Y-80604749D01*
X185015808Y-80236799D01*
X184969290Y-79870894D01*
X184852282Y-79521094D01*
X184728392Y-79289314D01*
X184439699Y-79164906D01*
X183314605Y-80290000D01*
X182955395Y-80290000D01*
X181830301Y-79164906D01*
X181541608Y-79289314D01*
X181377001Y-79619397D01*
X181279952Y-79975251D01*
X181254192Y-80343201D01*
X178871539Y-80343201D01*
X178881965Y-80330498D01*
X180227162Y-78985301D01*
X182009906Y-78985301D01*
X183135000Y-80110395D01*
X184260094Y-78985301D01*
X184135686Y-78696608D01*
X183805603Y-78532001D01*
X183449749Y-78434952D01*
X183081799Y-78409192D01*
X182715894Y-78455710D01*
X182366094Y-78572718D01*
X182134314Y-78696608D01*
X182009906Y-78985301D01*
X180227162Y-78985301D01*
X181560525Y-77651939D01*
X181589523Y-77628141D01*
X181684496Y-77512416D01*
X181755068Y-77380387D01*
X181798525Y-77237126D01*
X181809522Y-77125473D01*
X181809522Y-77125465D01*
X181813198Y-77088140D01*
X181809522Y-77050815D01*
X181809522Y-68923801D01*
X181813198Y-68886478D01*
X181809522Y-68849156D01*
X181809522Y-68849145D01*
X181809520Y-68849125D01*
X181809520Y-68755343D01*
X181813196Y-68718020D01*
X181809520Y-68680697D01*
X181809520Y-68680687D01*
X181798523Y-68569034D01*
X181755066Y-68425773D01*
X181733420Y-68385276D01*
X181684494Y-68293743D01*
X181613319Y-68207017D01*
X181589521Y-68178019D01*
X181560524Y-68154222D01*
X172146500Y-58740199D01*
X172146500Y-55576901D01*
X172187601Y-55554932D01*
X172406108Y-55375608D01*
X172585432Y-55157101D01*
X172656500Y-55024142D01*
X172727568Y-55157101D01*
X172906892Y-55375608D01*
X173125399Y-55554932D01*
X173374692Y-55688182D01*
X173645191Y-55770236D01*
X173856008Y-55791000D01*
X173996992Y-55791000D01*
X174207809Y-55770236D01*
X174478308Y-55688182D01*
X174727601Y-55554932D01*
X174946108Y-55375608D01*
X175125432Y-55157101D01*
X175196500Y-55024142D01*
X175267568Y-55157101D01*
X175446892Y-55375608D01*
X175665399Y-55554932D01*
X175914692Y-55688182D01*
X176185191Y-55770236D01*
X176396008Y-55791000D01*
X176536992Y-55791000D01*
X176747809Y-55770236D01*
X177018308Y-55688182D01*
X177267601Y-55554932D01*
X177486108Y-55375608D01*
X177665432Y-55157101D01*
X177736500Y-55024142D01*
X177807568Y-55157101D01*
X177986892Y-55375608D01*
X178205399Y-55554932D01*
X178454692Y-55688182D01*
X178725191Y-55770236D01*
X178936008Y-55791000D01*
X179076992Y-55791000D01*
X179287809Y-55770236D01*
X179558308Y-55688182D01*
X179807601Y-55554932D01*
X180026108Y-55375608D01*
X180205432Y-55157101D01*
X180338682Y-54907808D01*
X180377490Y-54779872D01*
X187765000Y-54779872D01*
X187765000Y-55220128D01*
X187850890Y-55651925D01*
X188019369Y-56058669D01*
X188263962Y-56424729D01*
X188575271Y-56736038D01*
X188941331Y-56980631D01*
X189348075Y-57149110D01*
X189779872Y-57235000D01*
X190220128Y-57235000D01*
X190651925Y-57149110D01*
X191058669Y-56980631D01*
X191424729Y-56736038D01*
X191736038Y-56424729D01*
X191980631Y-56058669D01*
X192149110Y-55651925D01*
X192235000Y-55220128D01*
X192235000Y-54779872D01*
X192149110Y-54348075D01*
X191980631Y-53941331D01*
X191736038Y-53575271D01*
X191424729Y-53263962D01*
X191058669Y-53019369D01*
X190651925Y-52850890D01*
X190220128Y-52765000D01*
X189779872Y-52765000D01*
X189348075Y-52850890D01*
X188941331Y-53019369D01*
X188575271Y-53263962D01*
X188263962Y-53575271D01*
X188019369Y-53941331D01*
X187850890Y-54348075D01*
X187765000Y-54779872D01*
X180377490Y-54779872D01*
X180420736Y-54637309D01*
X180448443Y-54356000D01*
X180420736Y-54074691D01*
X180338682Y-53804192D01*
X180205432Y-53554899D01*
X180026108Y-53336392D01*
X179807601Y-53157068D01*
X179558308Y-53023818D01*
X179287809Y-52941764D01*
X179076992Y-52921000D01*
X178936008Y-52921000D01*
X178725191Y-52941764D01*
X178454692Y-53023818D01*
X178205399Y-53157068D01*
X177986892Y-53336392D01*
X177807568Y-53554899D01*
X177736500Y-53687858D01*
X177665432Y-53554899D01*
X177486108Y-53336392D01*
X177267601Y-53157068D01*
X177018308Y-53023818D01*
X176747809Y-52941764D01*
X176536992Y-52921000D01*
X176396008Y-52921000D01*
X176185191Y-52941764D01*
X175914692Y-53023818D01*
X175665399Y-53157068D01*
X175446892Y-53336392D01*
X175267568Y-53554899D01*
X175196500Y-53687858D01*
X175125432Y-53554899D01*
X174946108Y-53336392D01*
X174727601Y-53157068D01*
X174478308Y-53023818D01*
X174207809Y-52941764D01*
X173996992Y-52921000D01*
X173856008Y-52921000D01*
X173645191Y-52941764D01*
X173374692Y-53023818D01*
X173125399Y-53157068D01*
X172906892Y-53336392D01*
X172727568Y-53554899D01*
X172656500Y-53687858D01*
X172585432Y-53554899D01*
X172406108Y-53336392D01*
X172187601Y-53157068D01*
X171938308Y-53023818D01*
X171667809Y-52941764D01*
X171456992Y-52921000D01*
X171316008Y-52921000D01*
X171105191Y-52941764D01*
X170834692Y-53023818D01*
X170585399Y-53157068D01*
X170366892Y-53336392D01*
X170187568Y-53554899D01*
X170116500Y-53687858D01*
X170045432Y-53554899D01*
X169866108Y-53336392D01*
X169647601Y-53157068D01*
X169398308Y-53023818D01*
X169127809Y-52941764D01*
X168916992Y-52921000D01*
X168776008Y-52921000D01*
X168565191Y-52941764D01*
X168294692Y-53023818D01*
X168045399Y-53157068D01*
X167826892Y-53336392D01*
X167647568Y-53554899D01*
X167576500Y-53687858D01*
X167505432Y-53554899D01*
X167326108Y-53336392D01*
X167107601Y-53157068D01*
X166858308Y-53023818D01*
X166587809Y-52941764D01*
X166376992Y-52921000D01*
X166236008Y-52921000D01*
X166025191Y-52941764D01*
X165754692Y-53023818D01*
X165505399Y-53157068D01*
X165286892Y-53336392D01*
X165107568Y-53554899D01*
X165036500Y-53687858D01*
X164965432Y-53554899D01*
X164786108Y-53336392D01*
X164567601Y-53157068D01*
X164318308Y-53023818D01*
X164047809Y-52941764D01*
X163836992Y-52921000D01*
X163696008Y-52921000D01*
X163485191Y-52941764D01*
X163214692Y-53023818D01*
X162965399Y-53157068D01*
X162746892Y-53336392D01*
X162567568Y-53554899D01*
X162496500Y-53687858D01*
X162425432Y-53554899D01*
X162246108Y-53336392D01*
X162027601Y-53157068D01*
X161778308Y-53023818D01*
X161507809Y-52941764D01*
X161296992Y-52921000D01*
X161156008Y-52921000D01*
X160945191Y-52941764D01*
X160674692Y-53023818D01*
X160425399Y-53157068D01*
X160206892Y-53336392D01*
X160027568Y-53554899D01*
X159956500Y-53687858D01*
X159885432Y-53554899D01*
X159706108Y-53336392D01*
X159487601Y-53157068D01*
X159238308Y-53023818D01*
X158967809Y-52941764D01*
X158756992Y-52921000D01*
X158616008Y-52921000D01*
X158405191Y-52941764D01*
X158134692Y-53023818D01*
X157885399Y-53157068D01*
X157666892Y-53336392D01*
X157487568Y-53554899D01*
X157416500Y-53687858D01*
X157345432Y-53554899D01*
X157166108Y-53336392D01*
X156947601Y-53157068D01*
X156698308Y-53023818D01*
X156427809Y-52941764D01*
X156216992Y-52921000D01*
X156076008Y-52921000D01*
X155865191Y-52941764D01*
X155594692Y-53023818D01*
X155345399Y-53157068D01*
X155126892Y-53336392D01*
X154947568Y-53554899D01*
X154876500Y-53687858D01*
X154805432Y-53554899D01*
X154626108Y-53336392D01*
X154407601Y-53157068D01*
X154158308Y-53023818D01*
X153887809Y-52941764D01*
X153676992Y-52921000D01*
X153536008Y-52921000D01*
X153325191Y-52941764D01*
X153054692Y-53023818D01*
X152805399Y-53157068D01*
X152586892Y-53336392D01*
X152407568Y-53554899D01*
X152336500Y-53687858D01*
X152265432Y-53554899D01*
X152086108Y-53336392D01*
X151867601Y-53157068D01*
X151618308Y-53023818D01*
X151347809Y-52941764D01*
X151136992Y-52921000D01*
X150996008Y-52921000D01*
X150828833Y-52937466D01*
X150485944Y-52594577D01*
X150459790Y-52562708D01*
X150332645Y-52458363D01*
X150187586Y-52380827D01*
X150030188Y-52333081D01*
X149907518Y-52320999D01*
X149907517Y-52320999D01*
X149866499Y-52316959D01*
X149825481Y-52320999D01*
X144687519Y-52320999D01*
X144646501Y-52316959D01*
X144605483Y-52320999D01*
X144605482Y-52320999D01*
X144482812Y-52333081D01*
X144325414Y-52380827D01*
X144180355Y-52458363D01*
X144053210Y-52562708D01*
X144027064Y-52594567D01*
X143684166Y-52937465D01*
X143516992Y-52921000D01*
X143376008Y-52921000D01*
X143165191Y-52941764D01*
X142894692Y-53023818D01*
X142645399Y-53157068D01*
X142426892Y-53336392D01*
X142275388Y-53521000D01*
X136813016Y-53521000D01*
X136771998Y-53516960D01*
X136730980Y-53521000D01*
X136730979Y-53521000D01*
X136608309Y-53533082D01*
X136536388Y-53554899D01*
X136450911Y-53580828D01*
X136305852Y-53658364D01*
X136229497Y-53721027D01*
X136178707Y-53762709D01*
X136152561Y-53794568D01*
X134630079Y-55317052D01*
X134598209Y-55343207D01*
X134496617Y-55466999D01*
X134493864Y-55470353D01*
X134416328Y-55615412D01*
X134368582Y-55772810D01*
X134352460Y-55936498D01*
X134356500Y-55977517D01*
X134356501Y-57502630D01*
X122209133Y-69650000D01*
X110727356Y-69650000D01*
X110686338Y-69645960D01*
X110645320Y-69650000D01*
X110645319Y-69650000D01*
X110522649Y-69662082D01*
X110365251Y-69709828D01*
X110220192Y-69787364D01*
X110180821Y-69819675D01*
X110138388Y-69854499D01*
X110093047Y-69891709D01*
X110066901Y-69923568D01*
X104964078Y-75026393D01*
X104932208Y-75052548D01*
X104929213Y-75056198D01*
X104798175Y-74968641D01*
X104545302Y-74863898D01*
X104276854Y-74810500D01*
X104003146Y-74810500D01*
X103734698Y-74863898D01*
X103481825Y-74968641D01*
X103254246Y-75120705D01*
X103060705Y-75314246D01*
X102908641Y-75541825D01*
X102870000Y-75635113D01*
X102831359Y-75541825D01*
X102679295Y-75314246D01*
X102485754Y-75120705D01*
X102258175Y-74968641D01*
X102005302Y-74863898D01*
X101736854Y-74810500D01*
X101463146Y-74810500D01*
X101194698Y-74863898D01*
X100941825Y-74968641D01*
X100714246Y-75120705D01*
X100520705Y-75314246D01*
X100368641Y-75541825D01*
X100263898Y-75794698D01*
X100210500Y-76063146D01*
X100210500Y-76336854D01*
X100263898Y-76605302D01*
X100368641Y-76858175D01*
X100520705Y-77085754D01*
X100714246Y-77279295D01*
X100941825Y-77431359D01*
X101194698Y-77536102D01*
X101463146Y-77589500D01*
X101736854Y-77589500D01*
X102005302Y-77536102D01*
X102258175Y-77431359D01*
X102485754Y-77279295D01*
X102679295Y-77085754D01*
X102831359Y-76858175D01*
X102870000Y-76764887D01*
X102908641Y-76858175D01*
X103060705Y-77085754D01*
X103254246Y-77279295D01*
X103481825Y-77431359D01*
X103734698Y-77536102D01*
X104003146Y-77589500D01*
X104276854Y-77589500D01*
X104545302Y-77536102D01*
X104745815Y-77453047D01*
X104750327Y-77467923D01*
X104768418Y-77501768D01*
X104751825Y-77508641D01*
X104524246Y-77660705D01*
X104330705Y-77854246D01*
X104178641Y-78081825D01*
X104140000Y-78175113D01*
X104101359Y-78081825D01*
X103949295Y-77854246D01*
X103755754Y-77660705D01*
X103528175Y-77508641D01*
X103275302Y-77403898D01*
X103006854Y-77350500D01*
X102733146Y-77350500D01*
X102464698Y-77403898D01*
X102211825Y-77508641D01*
X101984246Y-77660705D01*
X101790705Y-77854246D01*
X101638641Y-78081825D01*
X101600000Y-78175113D01*
X101561359Y-78081825D01*
X101409295Y-77854246D01*
X101215754Y-77660705D01*
X100988175Y-77508641D01*
X100735302Y-77403898D01*
X100466854Y-77350500D01*
X100193146Y-77350500D01*
X99924698Y-77403898D01*
X99671825Y-77508641D01*
X99444246Y-77660705D01*
X99250705Y-77854246D01*
X99098641Y-78081825D01*
X98993898Y-78334698D01*
X98940500Y-78603146D01*
X87210500Y-78603146D01*
X87210500Y-77504699D01*
X95139906Y-77504699D01*
X95264314Y-77793392D01*
X95594397Y-77957999D01*
X95950251Y-78055048D01*
X96318201Y-78080808D01*
X96684106Y-78034290D01*
X97033906Y-77917282D01*
X97265686Y-77793392D01*
X97390094Y-77504699D01*
X96265000Y-76379605D01*
X95139906Y-77504699D01*
X87210500Y-77504699D01*
X87210500Y-76253201D01*
X94384192Y-76253201D01*
X94430710Y-76619106D01*
X94547718Y-76968906D01*
X94671608Y-77200686D01*
X94960301Y-77325094D01*
X96085395Y-76200000D01*
X96444605Y-76200000D01*
X97569699Y-77325094D01*
X97858392Y-77200686D01*
X98022999Y-76870603D01*
X98120048Y-76514749D01*
X98145808Y-76146799D01*
X98099290Y-75780894D01*
X97982282Y-75431094D01*
X97858392Y-75199314D01*
X97569699Y-75074906D01*
X96444605Y-76200000D01*
X96085395Y-76200000D01*
X94960301Y-75074906D01*
X94671608Y-75199314D01*
X94507001Y-75529397D01*
X94409952Y-75885251D01*
X94384192Y-76253201D01*
X87210500Y-76253201D01*
X87210500Y-74895301D01*
X95139906Y-74895301D01*
X96265000Y-76020395D01*
X97390094Y-74895301D01*
X97265686Y-74606608D01*
X96935603Y-74442001D01*
X96579749Y-74344952D01*
X96211799Y-74319192D01*
X95845894Y-74365710D01*
X95496094Y-74482718D01*
X95264314Y-74606608D01*
X95139906Y-74895301D01*
X87210500Y-74895301D01*
X87210500Y-54779872D01*
X87765000Y-54779872D01*
X87765000Y-55220128D01*
X87850890Y-55651925D01*
X88019369Y-56058669D01*
X88263962Y-56424729D01*
X88575271Y-56736038D01*
X88941331Y-56980631D01*
X89348075Y-57149110D01*
X89779872Y-57235000D01*
X90220128Y-57235000D01*
X90651925Y-57149110D01*
X91058669Y-56980631D01*
X91424729Y-56736038D01*
X91736038Y-56424729D01*
X91980631Y-56058669D01*
X92149110Y-55651925D01*
X92235000Y-55220128D01*
X92235000Y-54779872D01*
X92149110Y-54348075D01*
X91980631Y-53941331D01*
X91736038Y-53575271D01*
X91424729Y-53263962D01*
X91058669Y-53019369D01*
X90651925Y-52850890D01*
X90220128Y-52765000D01*
X89779872Y-52765000D01*
X89348075Y-52850890D01*
X88941331Y-53019369D01*
X88575271Y-53263962D01*
X88263962Y-53575271D01*
X88019369Y-53941331D01*
X87850890Y-54348075D01*
X87765000Y-54779872D01*
X87210500Y-54779872D01*
X87210500Y-50659981D01*
X192824501Y-50657018D01*
X192824500Y-102340000D01*
X192824500Y-102340000D01*
G37*
X192824500Y-102340000D02*
X87210500Y-102340000D01*
X87210500Y-97779872D01*
X87765000Y-97779872D01*
X87765000Y-98220128D01*
X87850890Y-98651925D01*
X88019369Y-99058669D01*
X88263962Y-99424729D01*
X88575271Y-99736038D01*
X88941331Y-99980631D01*
X89348075Y-100149110D01*
X89779872Y-100235000D01*
X90220128Y-100235000D01*
X90651925Y-100149110D01*
X91058669Y-99980631D01*
X91424729Y-99736038D01*
X91736038Y-99424729D01*
X91980631Y-99058669D01*
X92149110Y-98651925D01*
X92235000Y-98220128D01*
X92235000Y-97779872D01*
X92188222Y-97544699D01*
X95139906Y-97544699D01*
X95264314Y-97833392D01*
X95594397Y-97997999D01*
X95950251Y-98095048D01*
X96318201Y-98120808D01*
X96684106Y-98074290D01*
X97033906Y-97957282D01*
X97265686Y-97833392D01*
X97390094Y-97544699D01*
X182009906Y-97544699D01*
X182134314Y-97833392D01*
X182464397Y-97997999D01*
X182820251Y-98095048D01*
X183188201Y-98120808D01*
X183554106Y-98074290D01*
X183903906Y-97957282D01*
X184135686Y-97833392D01*
X184158749Y-97779872D01*
X187765000Y-97779872D01*
X187765000Y-98220128D01*
X187850890Y-98651925D01*
X188019369Y-99058669D01*
X188263962Y-99424729D01*
X188575271Y-99736038D01*
X188941331Y-99980631D01*
X189348075Y-100149110D01*
X189779872Y-100235000D01*
X190220128Y-100235000D01*
X190651925Y-100149110D01*
X191058669Y-99980631D01*
X191424729Y-99736038D01*
X191736038Y-99424729D01*
X191980631Y-99058669D01*
X192149110Y-98651925D01*
X192235000Y-98220128D01*
X192235000Y-97779872D01*
X192149110Y-97348075D01*
X191980631Y-96941331D01*
X191736038Y-96575271D01*
X191424729Y-96263962D01*
X191058669Y-96019369D01*
X190651925Y-95850890D01*
X190220128Y-95765000D01*
X189779872Y-95765000D01*
X189348075Y-95850890D01*
X188941331Y-96019369D01*
X188575271Y-96263962D01*
X188263962Y-96575271D01*
X188019369Y-96941331D01*
X187850890Y-97348075D01*
X187765000Y-97779872D01*
X184158749Y-97779872D01*
X184260094Y-97544699D01*
X183135000Y-96419605D01*
X182009906Y-97544699D01*
X97390094Y-97544699D01*
X96265000Y-96419605D01*
X95139906Y-97544699D01*
X92188222Y-97544699D01*
X92149110Y-97348075D01*
X91980631Y-96941331D01*
X91736038Y-96575271D01*
X91453968Y-96293201D01*
X94384192Y-96293201D01*
X94430710Y-96659106D01*
X94547718Y-97008906D01*
X94671608Y-97240686D01*
X94960301Y-97365094D01*
X96085395Y-96240000D01*
X96444605Y-96240000D01*
X97569699Y-97365094D01*
X97858392Y-97240686D01*
X98022999Y-96910603D01*
X98120048Y-96554749D01*
X98138358Y-96293201D01*
X181254192Y-96293201D01*
X181300710Y-96659106D01*
X181417718Y-97008906D01*
X181541608Y-97240686D01*
X181830301Y-97365094D01*
X182955395Y-96240000D01*
X183314605Y-96240000D01*
X184439699Y-97365094D01*
X184728392Y-97240686D01*
X184892999Y-96910603D01*
X184990048Y-96554749D01*
X185015808Y-96186799D01*
X184969290Y-95820894D01*
X184852282Y-95471094D01*
X184728392Y-95239314D01*
X184439699Y-95114906D01*
X183314605Y-96240000D01*
X182955395Y-96240000D01*
X181830301Y-95114906D01*
X181541608Y-95239314D01*
X181377001Y-95569397D01*
X181279952Y-95925251D01*
X181254192Y-96293201D01*
X98138358Y-96293201D01*
X98145808Y-96186799D01*
X98099290Y-95820894D01*
X97982282Y-95471094D01*
X97858392Y-95239314D01*
X97569699Y-95114906D01*
X96444605Y-96240000D01*
X96085395Y-96240000D01*
X94960301Y-95114906D01*
X94671608Y-95239314D01*
X94507001Y-95569397D01*
X94409952Y-95925251D01*
X94384192Y-96293201D01*
X91453968Y-96293201D01*
X91424729Y-96263962D01*
X91058669Y-96019369D01*
X90651925Y-95850890D01*
X90220128Y-95765000D01*
X89779872Y-95765000D01*
X89348075Y-95850890D01*
X88941331Y-96019369D01*
X88575271Y-96263962D01*
X88263962Y-96575271D01*
X88019369Y-96941331D01*
X87850890Y-97348075D01*
X87765000Y-97779872D01*
X87210500Y-97779872D01*
X87210500Y-94935301D01*
X95139906Y-94935301D01*
X96265000Y-96060395D01*
X97390094Y-94935301D01*
X182009906Y-94935301D01*
X183135000Y-96060395D01*
X184260094Y-94935301D01*
X184135686Y-94646608D01*
X183805603Y-94482001D01*
X183449749Y-94384952D01*
X183081799Y-94359192D01*
X182715894Y-94405710D01*
X182366094Y-94522718D01*
X182134314Y-94646608D01*
X182009906Y-94935301D01*
X97390094Y-94935301D01*
X97265686Y-94646608D01*
X96935603Y-94482001D01*
X96579749Y-94384952D01*
X96211799Y-94359192D01*
X95845894Y-94405710D01*
X95496094Y-94522718D01*
X95264314Y-94646608D01*
X95139906Y-94935301D01*
X87210500Y-94935301D01*
X87210500Y-91444947D01*
X96775000Y-91444947D01*
X96775000Y-91895053D01*
X96862811Y-92336510D01*
X97035059Y-92752353D01*
X97285125Y-93126603D01*
X97603397Y-93444875D01*
X97977647Y-93694941D01*
X98393490Y-93867189D01*
X98834947Y-93955000D01*
X99285053Y-93955000D01*
X99726510Y-93867189D01*
X100142353Y-93694941D01*
X100516603Y-93444875D01*
X100834875Y-93126603D01*
X101084941Y-92752353D01*
X101257189Y-92336510D01*
X101345000Y-91895053D01*
X101345000Y-91444947D01*
X178055000Y-91444947D01*
X178055000Y-91895053D01*
X178142811Y-92336510D01*
X178315059Y-92752353D01*
X178565125Y-93126603D01*
X178883397Y-93444875D01*
X179257647Y-93694941D01*
X179673490Y-93867189D01*
X180114947Y-93955000D01*
X180565053Y-93955000D01*
X181006510Y-93867189D01*
X181422353Y-93694941D01*
X181796603Y-93444875D01*
X182114875Y-93126603D01*
X182364941Y-92752353D01*
X182537189Y-92336510D01*
X182625000Y-91895053D01*
X182625000Y-91444947D01*
X182537189Y-91003490D01*
X182364941Y-90587647D01*
X182114875Y-90213397D01*
X181796603Y-89895125D01*
X181422353Y-89645059D01*
X181006510Y-89472811D01*
X180565053Y-89385000D01*
X180114947Y-89385000D01*
X179673490Y-89472811D01*
X179257647Y-89645059D01*
X178883397Y-89895125D01*
X178565125Y-90213397D01*
X178315059Y-90587647D01*
X178142811Y-91003490D01*
X178055000Y-91444947D01*
X101345000Y-91444947D01*
X101257189Y-91003490D01*
X101084941Y-90587647D01*
X100834875Y-90213397D01*
X100516603Y-89895125D01*
X100142353Y-89645059D01*
X99726510Y-89472811D01*
X99285053Y-89385000D01*
X98834947Y-89385000D01*
X98393490Y-89472811D01*
X97977647Y-89645059D01*
X97603397Y-89895125D01*
X97285125Y-90213397D01*
X97035059Y-90587647D01*
X96862811Y-91003490D01*
X96775000Y-91444947D01*
X87210500Y-91444947D01*
X87210500Y-85183146D01*
X98940500Y-85183146D01*
X98940500Y-85456854D01*
X98993898Y-85725302D01*
X99098641Y-85978175D01*
X99250705Y-86205754D01*
X99444246Y-86399295D01*
X99671825Y-86551359D01*
X99924698Y-86656102D01*
X100193146Y-86709500D01*
X100466854Y-86709500D01*
X100735302Y-86656102D01*
X100988175Y-86551359D01*
X101215754Y-86399295D01*
X101409295Y-86205754D01*
X101561359Y-85978175D01*
X101600000Y-85884887D01*
X101638641Y-85978175D01*
X101790705Y-86205754D01*
X101984246Y-86399295D01*
X102211825Y-86551359D01*
X102464698Y-86656102D01*
X102733146Y-86709500D01*
X103006854Y-86709500D01*
X103275302Y-86656102D01*
X103528175Y-86551359D01*
X103755754Y-86399295D01*
X103949295Y-86205754D01*
X104101359Y-85978175D01*
X104140000Y-85884887D01*
X104178641Y-85978175D01*
X104330705Y-86205754D01*
X104524246Y-86399295D01*
X104751825Y-86551359D01*
X105004698Y-86656102D01*
X105273146Y-86709500D01*
X105546854Y-86709500D01*
X105815302Y-86656102D01*
X106068175Y-86551359D01*
X106295754Y-86399295D01*
X106489295Y-86205754D01*
X106641359Y-85978175D01*
X106680000Y-85884887D01*
X106718641Y-85978175D01*
X106870705Y-86205754D01*
X107064246Y-86399295D01*
X107291825Y-86551359D01*
X107544698Y-86656102D01*
X107813146Y-86709500D01*
X108086854Y-86709500D01*
X108355302Y-86656102D01*
X108608175Y-86551359D01*
X108835754Y-86399295D01*
X109029295Y-86205754D01*
X109181359Y-85978175D01*
X109286102Y-85725302D01*
X109339500Y-85456854D01*
X109339500Y-85183146D01*
X109286102Y-84914698D01*
X109181359Y-84661825D01*
X109029295Y-84434246D01*
X108835754Y-84240705D01*
X108608175Y-84088641D01*
X108355302Y-83983898D01*
X108086854Y-83930500D01*
X107813146Y-83930500D01*
X107544698Y-83983898D01*
X107291825Y-84088641D01*
X107064246Y-84240705D01*
X106870705Y-84434246D01*
X106718641Y-84661825D01*
X106680000Y-84755113D01*
X106641359Y-84661825D01*
X106489295Y-84434246D01*
X106295754Y-84240705D01*
X106068175Y-84088641D01*
X105815302Y-83983898D01*
X105546854Y-83930500D01*
X105273146Y-83930500D01*
X105004698Y-83983898D01*
X104751825Y-84088641D01*
X104524246Y-84240705D01*
X104330705Y-84434246D01*
X104178641Y-84661825D01*
X104140000Y-84755113D01*
X104101359Y-84661825D01*
X103949295Y-84434246D01*
X103755754Y-84240705D01*
X103528175Y-84088641D01*
X103275302Y-83983898D01*
X103006854Y-83930500D01*
X102733146Y-83930500D01*
X102464698Y-83983898D01*
X102211825Y-84088641D01*
X101984246Y-84240705D01*
X101790705Y-84434246D01*
X101638641Y-84661825D01*
X101600000Y-84755113D01*
X101561359Y-84661825D01*
X101409295Y-84434246D01*
X101215754Y-84240705D01*
X100988175Y-84088641D01*
X100735302Y-83983898D01*
X100466854Y-83930500D01*
X100193146Y-83930500D01*
X99924698Y-83983898D01*
X99671825Y-84088641D01*
X99444246Y-84240705D01*
X99250705Y-84434246D01*
X99098641Y-84661825D01*
X98993898Y-84914698D01*
X98940500Y-85183146D01*
X87210500Y-85183146D01*
X87210500Y-83834699D01*
X95804906Y-83834699D01*
X95929314Y-84123392D01*
X96259397Y-84287999D01*
X96615251Y-84385048D01*
X96983201Y-84410808D01*
X97349106Y-84364290D01*
X97698906Y-84247282D01*
X97930686Y-84123392D01*
X98055094Y-83834699D01*
X97960603Y-83740208D01*
X100819397Y-83740208D01*
X100885468Y-83979534D01*
X101133215Y-84095883D01*
X101398900Y-84161664D01*
X101672314Y-84174349D01*
X101942948Y-84133449D01*
X102200404Y-84040537D01*
X102314532Y-83979534D01*
X102380603Y-83740208D01*
X101600000Y-82959605D01*
X100819397Y-83740208D01*
X97960603Y-83740208D01*
X96930000Y-82709605D01*
X95804906Y-83834699D01*
X87210500Y-83834699D01*
X87210500Y-82583201D01*
X95049192Y-82583201D01*
X95095710Y-82949106D01*
X95212718Y-83298906D01*
X95336608Y-83530686D01*
X95625301Y-83655094D01*
X96750395Y-82530000D01*
X97109605Y-82530000D01*
X98234699Y-83655094D01*
X98523392Y-83530686D01*
X98687999Y-83200603D01*
X98782984Y-82852314D01*
X100205651Y-82852314D01*
X100246551Y-83122948D01*
X100339463Y-83380404D01*
X100400466Y-83494532D01*
X100639792Y-83560603D01*
X101420395Y-82780000D01*
X100639792Y-81999397D01*
X100400466Y-82065468D01*
X100284117Y-82313215D01*
X100218336Y-82578900D01*
X100205651Y-82852314D01*
X98782984Y-82852314D01*
X98785048Y-82844749D01*
X98810808Y-82476799D01*
X98764290Y-82110894D01*
X98666917Y-81819792D01*
X100819397Y-81819792D01*
X101600000Y-82600395D01*
X102380603Y-81819792D01*
X102314532Y-81580466D01*
X102066785Y-81464117D01*
X101801100Y-81398336D01*
X101527686Y-81385651D01*
X101257052Y-81426551D01*
X100999596Y-81519463D01*
X100885468Y-81580466D01*
X100819397Y-81819792D01*
X98666917Y-81819792D01*
X98647282Y-81761094D01*
X98523392Y-81529314D01*
X98234699Y-81404906D01*
X97109605Y-82530000D01*
X96750395Y-82530000D01*
X95625301Y-81404906D01*
X95336608Y-81529314D01*
X95172001Y-81859397D01*
X95074952Y-82215251D01*
X95049192Y-82583201D01*
X87210500Y-82583201D01*
X87210500Y-81225301D01*
X95804906Y-81225301D01*
X96930000Y-82350395D01*
X98055094Y-81225301D01*
X97930686Y-80936608D01*
X97600603Y-80772001D01*
X97244749Y-80674952D01*
X96876799Y-80649192D01*
X96510894Y-80695710D01*
X96161094Y-80812718D01*
X95929314Y-80936608D01*
X95804906Y-81225301D01*
X87210500Y-81225301D01*
X87210500Y-78603146D01*
X98940500Y-78603146D01*
X98940500Y-78876854D01*
X98993898Y-79145302D01*
X99098641Y-79398175D01*
X99250705Y-79625754D01*
X99444246Y-79819295D01*
X99671825Y-79971359D01*
X99924698Y-80076102D01*
X100193146Y-80129500D01*
X100466854Y-80129500D01*
X100735302Y-80076102D01*
X100988175Y-79971359D01*
X101215754Y-79819295D01*
X101409295Y-79625754D01*
X101561359Y-79398175D01*
X101600000Y-79304887D01*
X101638641Y-79398175D01*
X101790705Y-79625754D01*
X101984246Y-79819295D01*
X102211825Y-79971359D01*
X102464698Y-80076102D01*
X102733146Y-80129500D01*
X103006854Y-80129500D01*
X103066723Y-80117591D01*
X103405059Y-80455927D01*
X103431210Y-80487792D01*
X103481553Y-80529107D01*
X103558355Y-80592137D01*
X103703414Y-80669673D01*
X103860812Y-80717419D01*
X104024501Y-80733541D01*
X104065519Y-80729501D01*
X106154141Y-80729501D01*
X106195159Y-80733541D01*
X106236177Y-80729501D01*
X106236178Y-80729501D01*
X106358848Y-80717419D01*
X106516246Y-80669673D01*
X106661305Y-80592137D01*
X106788450Y-80487792D01*
X106796859Y-80477546D01*
X106817716Y-80502960D01*
X106849575Y-80529106D01*
X106849577Y-80529108D01*
X106915461Y-80583177D01*
X106944861Y-80607305D01*
X107089920Y-80684841D01*
X107247318Y-80732587D01*
X107369988Y-80744669D01*
X107369989Y-80744669D01*
X107411007Y-80748709D01*
X107452025Y-80744669D01*
X107534463Y-80744669D01*
X106876724Y-81402409D01*
X106816854Y-81390500D01*
X106543146Y-81390500D01*
X106274698Y-81443898D01*
X106021825Y-81548641D01*
X105794246Y-81700705D01*
X105600705Y-81894246D01*
X105448641Y-82121825D01*
X105410000Y-82215113D01*
X105371359Y-82121825D01*
X105219295Y-81894246D01*
X105025754Y-81700705D01*
X104798175Y-81548641D01*
X104545302Y-81443898D01*
X104276854Y-81390500D01*
X104003146Y-81390500D01*
X103734698Y-81443898D01*
X103481825Y-81548641D01*
X103254246Y-81700705D01*
X103060705Y-81894246D01*
X102908641Y-82121825D01*
X102871793Y-82210785D01*
X102860537Y-82179596D01*
X102799534Y-82065468D01*
X102560208Y-81999397D01*
X101779605Y-82780000D01*
X102560208Y-83560603D01*
X102799534Y-83494532D01*
X102869912Y-83344674D01*
X102908641Y-83438175D01*
X103060705Y-83665754D01*
X103254246Y-83859295D01*
X103481825Y-84011359D01*
X103734698Y-84116102D01*
X104003146Y-84169500D01*
X104276854Y-84169500D01*
X104545302Y-84116102D01*
X104798175Y-84011359D01*
X105025754Y-83859295D01*
X105219295Y-83665754D01*
X105371359Y-83438175D01*
X105410000Y-83344887D01*
X105448641Y-83438175D01*
X105600705Y-83665754D01*
X105794246Y-83859295D01*
X106021825Y-84011359D01*
X106274698Y-84116102D01*
X106543146Y-84169500D01*
X106816854Y-84169500D01*
X107085302Y-84116102D01*
X107338175Y-84011359D01*
X107565754Y-83859295D01*
X107759295Y-83665754D01*
X107911359Y-83438175D01*
X107950000Y-83344887D01*
X107988641Y-83438175D01*
X108140705Y-83665754D01*
X108334246Y-83859295D01*
X108561825Y-84011359D01*
X108814698Y-84116102D01*
X109083146Y-84169500D01*
X109356854Y-84169500D01*
X109625302Y-84116102D01*
X109878175Y-84011359D01*
X110105754Y-83859295D01*
X110299295Y-83665754D01*
X110451359Y-83438175D01*
X110556102Y-83185302D01*
X110609500Y-82916854D01*
X110609500Y-82852314D01*
X114175651Y-82852314D01*
X114216551Y-83122948D01*
X114309463Y-83380404D01*
X114370466Y-83494532D01*
X114609792Y-83560603D01*
X115390395Y-82780000D01*
X114609792Y-81999397D01*
X114370466Y-82065468D01*
X114254117Y-82313215D01*
X114188336Y-82578900D01*
X114175651Y-82852314D01*
X110609500Y-82852314D01*
X110609500Y-82643146D01*
X110556102Y-82374698D01*
X110451359Y-82121825D01*
X110299295Y-81894246D01*
X110224841Y-81819792D01*
X114789397Y-81819792D01*
X115570000Y-82600395D01*
X116350603Y-81819792D01*
X116284532Y-81580466D01*
X116036785Y-81464117D01*
X115771100Y-81398336D01*
X115497686Y-81385651D01*
X115227052Y-81426551D01*
X114969596Y-81519463D01*
X114855468Y-81580466D01*
X114789397Y-81819792D01*
X110224841Y-81819792D01*
X110105754Y-81700705D01*
X109878175Y-81548641D01*
X109625302Y-81443898D01*
X109356854Y-81390500D01*
X109250368Y-81390500D01*
X109896199Y-80744669D01*
X115629313Y-80744669D01*
X115670331Y-80748709D01*
X115711349Y-80744669D01*
X115711350Y-80744669D01*
X115834020Y-80732587D01*
X115991418Y-80684841D01*
X116136477Y-80607305D01*
X116263622Y-80502960D01*
X116289776Y-80471091D01*
X116643277Y-80117591D01*
X116703146Y-80129500D01*
X116976854Y-80129500D01*
X117036724Y-80117591D01*
X118325220Y-81406088D01*
X118246854Y-81390500D01*
X117973146Y-81390500D01*
X117704698Y-81443898D01*
X117451825Y-81548641D01*
X117224246Y-81700705D01*
X117030705Y-81894246D01*
X116878641Y-82121825D01*
X116841793Y-82210785D01*
X116830537Y-82179596D01*
X116769534Y-82065468D01*
X116530208Y-81999397D01*
X115749605Y-82780000D01*
X115763748Y-82794143D01*
X115584143Y-82973748D01*
X115570000Y-82959605D01*
X114789397Y-83740208D01*
X114792770Y-83752428D01*
X114585192Y-83960006D01*
X114436854Y-83930500D01*
X114163146Y-83930500D01*
X113894698Y-83983898D01*
X113641825Y-84088641D01*
X113414246Y-84240705D01*
X113220705Y-84434246D01*
X113068641Y-84661825D01*
X112963898Y-84914698D01*
X112910500Y-85183146D01*
X112910500Y-85456854D01*
X112963898Y-85725302D01*
X113068641Y-85978175D01*
X113220705Y-86205754D01*
X113414246Y-86399295D01*
X113641825Y-86551359D01*
X113894698Y-86656102D01*
X114163146Y-86709500D01*
X114436854Y-86709500D01*
X114705302Y-86656102D01*
X114958175Y-86551359D01*
X115185754Y-86399295D01*
X115379295Y-86205754D01*
X115531359Y-85978175D01*
X115570000Y-85884887D01*
X115608641Y-85978175D01*
X115760705Y-86205754D01*
X115954246Y-86399295D01*
X116181825Y-86551359D01*
X116434698Y-86656102D01*
X116703146Y-86709500D01*
X116976854Y-86709500D01*
X117245302Y-86656102D01*
X117498175Y-86551359D01*
X117725754Y-86399295D01*
X117919295Y-86205754D01*
X118071359Y-85978175D01*
X118110000Y-85884887D01*
X118148641Y-85978175D01*
X118300705Y-86205754D01*
X118494246Y-86399295D01*
X118721825Y-86551359D01*
X118974698Y-86656102D01*
X119243146Y-86709500D01*
X119516854Y-86709500D01*
X119785302Y-86656102D01*
X120038175Y-86551359D01*
X120265754Y-86399295D01*
X120459295Y-86205754D01*
X120611359Y-85978175D01*
X120650000Y-85884887D01*
X120688641Y-85978175D01*
X120840705Y-86205754D01*
X121034246Y-86399295D01*
X121261825Y-86551359D01*
X121514698Y-86656102D01*
X121783146Y-86709500D01*
X122056854Y-86709500D01*
X122325302Y-86656102D01*
X122578175Y-86551359D01*
X122805754Y-86399295D01*
X122999295Y-86205754D01*
X123151359Y-85978175D01*
X123256102Y-85725302D01*
X123309500Y-85456854D01*
X123309500Y-85183146D01*
X126880500Y-85183146D01*
X126880500Y-85456854D01*
X126933898Y-85725302D01*
X127038641Y-85978175D01*
X127190705Y-86205754D01*
X127384246Y-86399295D01*
X127611825Y-86551359D01*
X127864698Y-86656102D01*
X128133146Y-86709500D01*
X128406854Y-86709500D01*
X128675302Y-86656102D01*
X128928175Y-86551359D01*
X129155754Y-86399295D01*
X129349295Y-86205754D01*
X129501359Y-85978175D01*
X129540000Y-85884887D01*
X129578641Y-85978175D01*
X129730705Y-86205754D01*
X129924246Y-86399295D01*
X130151825Y-86551359D01*
X130404698Y-86656102D01*
X130673146Y-86709500D01*
X130946854Y-86709500D01*
X131215302Y-86656102D01*
X131468175Y-86551359D01*
X131695754Y-86399295D01*
X131889295Y-86205754D01*
X132041359Y-85978175D01*
X132080000Y-85884887D01*
X132118641Y-85978175D01*
X132270705Y-86205754D01*
X132464246Y-86399295D01*
X132691825Y-86551359D01*
X132944698Y-86656102D01*
X133213146Y-86709500D01*
X133486854Y-86709500D01*
X133755302Y-86656102D01*
X134008175Y-86551359D01*
X134235754Y-86399295D01*
X134429295Y-86205754D01*
X134581359Y-85978175D01*
X134620000Y-85884887D01*
X134658641Y-85978175D01*
X134810705Y-86205754D01*
X135004246Y-86399295D01*
X135231825Y-86551359D01*
X135484698Y-86656102D01*
X135753146Y-86709500D01*
X136026854Y-86709500D01*
X136295302Y-86656102D01*
X136548175Y-86551359D01*
X136775754Y-86399295D01*
X136969295Y-86205754D01*
X137121359Y-85978175D01*
X137226102Y-85725302D01*
X137279500Y-85456854D01*
X137279500Y-85183146D01*
X137226102Y-84914698D01*
X137121359Y-84661825D01*
X136969295Y-84434246D01*
X136775754Y-84240705D01*
X136548175Y-84088641D01*
X136295302Y-83983898D01*
X136026854Y-83930500D01*
X135753146Y-83930500D01*
X135484698Y-83983898D01*
X135231825Y-84088641D01*
X135004246Y-84240705D01*
X134810705Y-84434246D01*
X134658641Y-84661825D01*
X134620000Y-84755113D01*
X134581359Y-84661825D01*
X134429295Y-84434246D01*
X134235754Y-84240705D01*
X134008175Y-84088641D01*
X133755302Y-83983898D01*
X133486854Y-83930500D01*
X133213146Y-83930500D01*
X132944698Y-83983898D01*
X132691825Y-84088641D01*
X132464246Y-84240705D01*
X132270705Y-84434246D01*
X132118641Y-84661825D01*
X132080000Y-84755113D01*
X132041359Y-84661825D01*
X131889295Y-84434246D01*
X131695754Y-84240705D01*
X131468175Y-84088641D01*
X131215302Y-83983898D01*
X130946854Y-83930500D01*
X130673146Y-83930500D01*
X130404698Y-83983898D01*
X130151825Y-84088641D01*
X129924246Y-84240705D01*
X129730705Y-84434246D01*
X129578641Y-84661825D01*
X129540000Y-84755113D01*
X129501359Y-84661825D01*
X129349295Y-84434246D01*
X129155754Y-84240705D01*
X128928175Y-84088641D01*
X128675302Y-83983898D01*
X128406854Y-83930500D01*
X128133146Y-83930500D01*
X127864698Y-83983898D01*
X127611825Y-84088641D01*
X127384246Y-84240705D01*
X127190705Y-84434246D01*
X127038641Y-84661825D01*
X126933898Y-84914698D01*
X126880500Y-85183146D01*
X123309500Y-85183146D01*
X123273169Y-85000499D01*
X125970679Y-85000499D01*
X126008001Y-85004175D01*
X126045323Y-85000499D01*
X126045334Y-85000499D01*
X126156987Y-84989502D01*
X126300248Y-84946045D01*
X126432277Y-84875473D01*
X126548002Y-84780500D01*
X126571805Y-84751496D01*
X127583093Y-83740208D01*
X128759397Y-83740208D01*
X128825468Y-83979534D01*
X129073215Y-84095883D01*
X129338900Y-84161664D01*
X129612314Y-84174349D01*
X129882948Y-84133449D01*
X130140404Y-84040537D01*
X130254532Y-83979534D01*
X130320603Y-83740208D01*
X129540000Y-82959605D01*
X128759397Y-83740208D01*
X127583093Y-83740208D01*
X128190211Y-83133090D01*
X128279463Y-83380404D01*
X128340466Y-83494532D01*
X128579792Y-83560603D01*
X129360395Y-82780000D01*
X129346253Y-82765858D01*
X129525858Y-82586253D01*
X129540000Y-82600395D01*
X130320603Y-81819792D01*
X130254532Y-81580466D01*
X130006785Y-81464117D01*
X129888477Y-81434825D01*
X130565528Y-80757774D01*
X135719836Y-80757774D01*
X135282043Y-81195567D01*
X135210810Y-81202583D01*
X135135919Y-81225301D01*
X135053412Y-81250329D01*
X134908353Y-81327865D01*
X134822484Y-81398336D01*
X134817365Y-81402537D01*
X134756854Y-81390500D01*
X134483146Y-81390500D01*
X134214698Y-81443898D01*
X133961825Y-81548641D01*
X133734246Y-81700705D01*
X133540705Y-81894246D01*
X133388641Y-82121825D01*
X133350000Y-82215113D01*
X133311359Y-82121825D01*
X133159295Y-81894246D01*
X132965754Y-81700705D01*
X132738175Y-81548641D01*
X132485302Y-81443898D01*
X132216854Y-81390500D01*
X131943146Y-81390500D01*
X131674698Y-81443898D01*
X131421825Y-81548641D01*
X131194246Y-81700705D01*
X131000705Y-81894246D01*
X130848641Y-82121825D01*
X130811793Y-82210785D01*
X130800537Y-82179596D01*
X130739534Y-82065468D01*
X130500208Y-81999397D01*
X129719605Y-82780000D01*
X130500208Y-83560603D01*
X130739534Y-83494532D01*
X130809912Y-83344674D01*
X130848641Y-83438175D01*
X131000705Y-83665754D01*
X131194246Y-83859295D01*
X131421825Y-84011359D01*
X131674698Y-84116102D01*
X131943146Y-84169500D01*
X132216854Y-84169500D01*
X132485302Y-84116102D01*
X132738175Y-84011359D01*
X132965754Y-83859295D01*
X133159295Y-83665754D01*
X133311359Y-83438175D01*
X133350000Y-83344887D01*
X133388641Y-83438175D01*
X133540705Y-83665754D01*
X133734246Y-83859295D01*
X133961825Y-84011359D01*
X134214698Y-84116102D01*
X134483146Y-84169500D01*
X134756854Y-84169500D01*
X135025302Y-84116102D01*
X135278175Y-84011359D01*
X135505754Y-83859295D01*
X135699295Y-83665754D01*
X135851359Y-83438175D01*
X135890000Y-83344887D01*
X135928641Y-83438175D01*
X136080705Y-83665754D01*
X136274246Y-83859295D01*
X136501825Y-84011359D01*
X136754698Y-84116102D01*
X137023146Y-84169500D01*
X137296854Y-84169500D01*
X137565302Y-84116102D01*
X137818175Y-84011359D01*
X138045754Y-83859295D01*
X138164841Y-83740208D01*
X142729397Y-83740208D01*
X142795468Y-83979534D01*
X143043215Y-84095883D01*
X143308900Y-84161664D01*
X143582314Y-84174349D01*
X143852948Y-84133449D01*
X144110404Y-84040537D01*
X144224532Y-83979534D01*
X144290603Y-83740208D01*
X143510000Y-82959605D01*
X142729397Y-83740208D01*
X138164841Y-83740208D01*
X138239295Y-83665754D01*
X138391359Y-83438175D01*
X138496102Y-83185302D01*
X138549500Y-82916854D01*
X138549500Y-82852314D01*
X142115651Y-82852314D01*
X142156551Y-83122948D01*
X142249463Y-83380404D01*
X142310466Y-83494532D01*
X142549792Y-83560603D01*
X143330395Y-82780000D01*
X142549792Y-81999397D01*
X142310466Y-82065468D01*
X142194117Y-82313215D01*
X142128336Y-82578900D01*
X142115651Y-82852314D01*
X138549500Y-82852314D01*
X138549500Y-82643146D01*
X138496102Y-82374698D01*
X138391359Y-82121825D01*
X138239295Y-81894246D01*
X138164841Y-81819792D01*
X142729397Y-81819792D01*
X143510000Y-82600395D01*
X144290603Y-81819792D01*
X144224532Y-81580466D01*
X143976785Y-81464117D01*
X143711100Y-81398336D01*
X143437686Y-81385651D01*
X143167052Y-81426551D01*
X142909596Y-81519463D01*
X142795468Y-81580466D01*
X142729397Y-81819792D01*
X138164841Y-81819792D01*
X138045754Y-81700705D01*
X137818175Y-81548641D01*
X137565302Y-81443898D01*
X137423628Y-81415717D01*
X137659833Y-81179512D01*
X143134470Y-81179512D01*
X143175488Y-81183552D01*
X143216506Y-81179512D01*
X143216507Y-81179512D01*
X143339177Y-81167430D01*
X143496575Y-81119684D01*
X143641634Y-81042148D01*
X143768779Y-80937803D01*
X143794934Y-80905933D01*
X144583277Y-80117591D01*
X144643146Y-80129500D01*
X144758633Y-80129500D01*
X146019632Y-81390500D01*
X145913146Y-81390500D01*
X145644698Y-81443898D01*
X145391825Y-81548641D01*
X145164246Y-81700705D01*
X144970705Y-81894246D01*
X144818641Y-82121825D01*
X144781793Y-82210785D01*
X144770537Y-82179596D01*
X144709534Y-82065468D01*
X144470208Y-81999397D01*
X143689605Y-82780000D01*
X144470208Y-83560603D01*
X144709534Y-83494532D01*
X144779912Y-83344674D01*
X144818641Y-83438175D01*
X144970705Y-83665754D01*
X145164246Y-83859295D01*
X145391825Y-84011359D01*
X145644698Y-84116102D01*
X145913146Y-84169500D01*
X146186854Y-84169500D01*
X146335192Y-84139994D01*
X146435239Y-84240041D01*
X146434246Y-84240705D01*
X146240705Y-84434246D01*
X146088641Y-84661825D01*
X146050000Y-84755113D01*
X146011359Y-84661825D01*
X145859295Y-84434246D01*
X145665754Y-84240705D01*
X145438175Y-84088641D01*
X145185302Y-83983898D01*
X144916854Y-83930500D01*
X144643146Y-83930500D01*
X144374698Y-83983898D01*
X144121825Y-84088641D01*
X143894246Y-84240705D01*
X143700705Y-84434246D01*
X143548641Y-84661825D01*
X143510000Y-84755113D01*
X143471359Y-84661825D01*
X143319295Y-84434246D01*
X143125754Y-84240705D01*
X142898175Y-84088641D01*
X142645302Y-83983898D01*
X142376854Y-83930500D01*
X142103146Y-83930500D01*
X141834698Y-83983898D01*
X141581825Y-84088641D01*
X141354246Y-84240705D01*
X141160705Y-84434246D01*
X141008641Y-84661825D01*
X140903898Y-84914698D01*
X140850500Y-85183146D01*
X140850500Y-85456854D01*
X140903898Y-85725302D01*
X141008641Y-85978175D01*
X141160705Y-86205754D01*
X141354246Y-86399295D01*
X141581825Y-86551359D01*
X141834698Y-86656102D01*
X142103146Y-86709500D01*
X142376854Y-86709500D01*
X142645302Y-86656102D01*
X142898175Y-86551359D01*
X143125754Y-86399295D01*
X143319295Y-86205754D01*
X143471359Y-85978175D01*
X143510000Y-85884887D01*
X143548641Y-85978175D01*
X143700705Y-86205754D01*
X143894246Y-86399295D01*
X144121825Y-86551359D01*
X144374698Y-86656102D01*
X144643146Y-86709500D01*
X144916854Y-86709500D01*
X145185302Y-86656102D01*
X145438175Y-86551359D01*
X145665754Y-86399295D01*
X145859295Y-86205754D01*
X146011359Y-85978175D01*
X146050000Y-85884887D01*
X146088641Y-85978175D01*
X146240705Y-86205754D01*
X146434246Y-86399295D01*
X146661825Y-86551359D01*
X146914698Y-86656102D01*
X147183146Y-86709500D01*
X147456854Y-86709500D01*
X147725302Y-86656102D01*
X147978175Y-86551359D01*
X148205754Y-86399295D01*
X148399295Y-86205754D01*
X148551359Y-85978175D01*
X148590000Y-85884887D01*
X148628641Y-85978175D01*
X148780705Y-86205754D01*
X148974246Y-86399295D01*
X149201825Y-86551359D01*
X149454698Y-86656102D01*
X149723146Y-86709500D01*
X149996854Y-86709500D01*
X150265302Y-86656102D01*
X150518175Y-86551359D01*
X150745754Y-86399295D01*
X150939295Y-86205754D01*
X151091359Y-85978175D01*
X151136468Y-85869272D01*
X152177704Y-86910509D01*
X152201498Y-86939502D01*
X152230491Y-86963296D01*
X152230495Y-86963300D01*
X152301184Y-87021312D01*
X152317223Y-87034475D01*
X152449252Y-87105047D01*
X152592513Y-87148504D01*
X152704166Y-87159501D01*
X152704175Y-87159501D01*
X152741498Y-87163177D01*
X152778821Y-87159501D01*
X165213677Y-87159501D01*
X165250999Y-87163177D01*
X165288321Y-87159501D01*
X165288332Y-87159501D01*
X165399985Y-87148504D01*
X165543246Y-87105047D01*
X165543897Y-87104699D01*
X181354906Y-87104699D01*
X181479314Y-87393392D01*
X181809397Y-87557999D01*
X182165251Y-87655048D01*
X182533201Y-87680808D01*
X182899106Y-87634290D01*
X183248906Y-87517282D01*
X183480686Y-87393392D01*
X183605094Y-87104699D01*
X182480000Y-85979605D01*
X181354906Y-87104699D01*
X165543897Y-87104699D01*
X165675275Y-87034475D01*
X165791000Y-86939502D01*
X165814803Y-86910498D01*
X166727302Y-85998000D01*
X166789439Y-85998000D01*
X166989398Y-85958226D01*
X167177756Y-85880205D01*
X167347274Y-85766937D01*
X167491437Y-85622774D01*
X167604705Y-85453256D01*
X167682726Y-85264898D01*
X167722500Y-85064939D01*
X167722500Y-84861061D01*
X167682726Y-84661102D01*
X167604705Y-84472744D01*
X167491437Y-84303226D01*
X167347274Y-84159063D01*
X167177756Y-84045795D01*
X166989398Y-83967774D01*
X166789439Y-83928000D01*
X166585561Y-83928000D01*
X166385602Y-83967774D01*
X166197244Y-84045795D01*
X166027726Y-84159063D01*
X165883563Y-84303226D01*
X165770295Y-84472744D01*
X165692274Y-84661102D01*
X165652500Y-84861061D01*
X165652500Y-84923198D01*
X165219500Y-85356199D01*
X165219500Y-85183146D01*
X165166102Y-84914698D01*
X165061359Y-84661825D01*
X164909295Y-84434246D01*
X164715754Y-84240705D01*
X164488175Y-84088641D01*
X164235302Y-83983898D01*
X163966854Y-83930500D01*
X163693146Y-83930500D01*
X163424698Y-83983898D01*
X163171825Y-84088641D01*
X162944246Y-84240705D01*
X162750705Y-84434246D01*
X162598641Y-84661825D01*
X162560000Y-84755113D01*
X162521359Y-84661825D01*
X162369295Y-84434246D01*
X162175754Y-84240705D01*
X161948175Y-84088641D01*
X161695302Y-83983898D01*
X161426854Y-83930500D01*
X161153146Y-83930500D01*
X160884698Y-83983898D01*
X160631825Y-84088641D01*
X160404246Y-84240705D01*
X160210705Y-84434246D01*
X160058641Y-84661825D01*
X160020000Y-84755113D01*
X159981359Y-84661825D01*
X159829295Y-84434246D01*
X159635754Y-84240705D01*
X159408175Y-84088641D01*
X159155302Y-83983898D01*
X158886854Y-83930500D01*
X158613146Y-83930500D01*
X158344698Y-83983898D01*
X158091825Y-84088641D01*
X157864246Y-84240705D01*
X157670705Y-84434246D01*
X157518641Y-84661825D01*
X157480000Y-84755113D01*
X157441359Y-84661825D01*
X157289295Y-84434246D01*
X157095754Y-84240705D01*
X156868175Y-84088641D01*
X156615302Y-83983898D01*
X156346854Y-83930500D01*
X156073146Y-83930500D01*
X155804698Y-83983898D01*
X155551825Y-84088641D01*
X155324246Y-84240705D01*
X155130705Y-84434246D01*
X154978641Y-84661825D01*
X154873898Y-84914698D01*
X154820500Y-85183146D01*
X154820500Y-85456854D01*
X154856831Y-85639501D01*
X153056302Y-85639501D01*
X151533300Y-84116500D01*
X151535302Y-84116102D01*
X151788175Y-84011359D01*
X152015754Y-83859295D01*
X152134841Y-83740208D01*
X156699397Y-83740208D01*
X156765468Y-83979534D01*
X157013215Y-84095883D01*
X157278900Y-84161664D01*
X157552314Y-84174349D01*
X157822948Y-84133449D01*
X158080404Y-84040537D01*
X158194532Y-83979534D01*
X158260603Y-83740208D01*
X157480000Y-82959605D01*
X156699397Y-83740208D01*
X152134841Y-83740208D01*
X152209295Y-83665754D01*
X152361359Y-83438175D01*
X152466102Y-83185302D01*
X152519500Y-82916854D01*
X152519500Y-82852314D01*
X156085651Y-82852314D01*
X156126551Y-83122948D01*
X156219463Y-83380404D01*
X156280466Y-83494532D01*
X156519792Y-83560603D01*
X157300395Y-82780000D01*
X156519792Y-81999397D01*
X156280466Y-82065468D01*
X156164117Y-82313215D01*
X156098336Y-82578900D01*
X156085651Y-82852314D01*
X152519500Y-82852314D01*
X152519500Y-82643146D01*
X152466102Y-82374698D01*
X152361359Y-82121825D01*
X152209295Y-81894246D01*
X152134841Y-81819792D01*
X156699397Y-81819792D01*
X157480000Y-82600395D01*
X158260603Y-81819792D01*
X158194532Y-81580466D01*
X157946785Y-81464117D01*
X157681100Y-81398336D01*
X157407686Y-81385651D01*
X157137052Y-81426551D01*
X156879596Y-81519463D01*
X156765468Y-81580466D01*
X156699397Y-81819792D01*
X152134841Y-81819792D01*
X152015754Y-81700705D01*
X151788175Y-81548641D01*
X151535302Y-81443898D01*
X151266854Y-81390500D01*
X150993146Y-81390500D01*
X150724698Y-81443898D01*
X150471825Y-81548641D01*
X150244246Y-81700705D01*
X150050705Y-81894246D01*
X149898641Y-82121825D01*
X149860000Y-82215113D01*
X149821359Y-82121825D01*
X149669295Y-81894246D01*
X149475754Y-81700705D01*
X149248175Y-81548641D01*
X148995302Y-81443898D01*
X148726854Y-81390500D01*
X148453146Y-81390500D01*
X148393277Y-81402409D01*
X148000869Y-81010001D01*
X157273981Y-81010001D01*
X157314999Y-81014041D01*
X157356017Y-81010001D01*
X157356018Y-81010001D01*
X157478688Y-80997919D01*
X157636086Y-80950173D01*
X157781145Y-80872637D01*
X157908290Y-80768292D01*
X157934445Y-80736423D01*
X158553277Y-80117591D01*
X158613146Y-80129500D01*
X158728633Y-80129500D01*
X159989632Y-81390500D01*
X159883146Y-81390500D01*
X159614698Y-81443898D01*
X159361825Y-81548641D01*
X159134246Y-81700705D01*
X158940705Y-81894246D01*
X158788641Y-82121825D01*
X158751793Y-82210785D01*
X158740537Y-82179596D01*
X158679534Y-82065468D01*
X158440208Y-81999397D01*
X157659605Y-82780000D01*
X158440208Y-83560603D01*
X158679534Y-83494532D01*
X158749912Y-83344674D01*
X158788641Y-83438175D01*
X158940705Y-83665754D01*
X159134246Y-83859295D01*
X159361825Y-84011359D01*
X159614698Y-84116102D01*
X159883146Y-84169500D01*
X160156854Y-84169500D01*
X160425302Y-84116102D01*
X160678175Y-84011359D01*
X160905754Y-83859295D01*
X161099295Y-83665754D01*
X161251359Y-83438175D01*
X161290000Y-83344887D01*
X161328641Y-83438175D01*
X161480705Y-83665754D01*
X161674246Y-83859295D01*
X161901825Y-84011359D01*
X162154698Y-84116102D01*
X162423146Y-84169500D01*
X162696854Y-84169500D01*
X162965302Y-84116102D01*
X163218175Y-84011359D01*
X163445754Y-83859295D01*
X163639295Y-83665754D01*
X163791359Y-83438175D01*
X163830000Y-83344887D01*
X163868641Y-83438175D01*
X164020705Y-83665754D01*
X164214246Y-83859295D01*
X164441825Y-84011359D01*
X164694698Y-84116102D01*
X164963146Y-84169500D01*
X165236854Y-84169500D01*
X165505302Y-84116102D01*
X165758175Y-84011359D01*
X165985754Y-83859295D01*
X166104841Y-83740208D01*
X170669397Y-83740208D01*
X170735468Y-83979534D01*
X170983215Y-84095883D01*
X171248900Y-84161664D01*
X171522314Y-84174349D01*
X171792948Y-84133449D01*
X172050404Y-84040537D01*
X172164532Y-83979534D01*
X172230603Y-83740208D01*
X171450000Y-82959605D01*
X170669397Y-83740208D01*
X166104841Y-83740208D01*
X166179295Y-83665754D01*
X166331359Y-83438175D01*
X166436102Y-83185302D01*
X166489500Y-82916854D01*
X166489500Y-82852314D01*
X170055651Y-82852314D01*
X170096551Y-83122948D01*
X170189463Y-83380404D01*
X170250466Y-83494532D01*
X170489792Y-83560603D01*
X171270395Y-82780000D01*
X170489792Y-81999397D01*
X170250466Y-82065468D01*
X170134117Y-82313215D01*
X170068336Y-82578900D01*
X170055651Y-82852314D01*
X166489500Y-82852314D01*
X166489500Y-82643146D01*
X166436102Y-82374698D01*
X166331359Y-82121825D01*
X166179295Y-81894246D01*
X166104841Y-81819792D01*
X170669397Y-81819792D01*
X171450000Y-82600395D01*
X172230603Y-81819792D01*
X172164532Y-81580466D01*
X171916785Y-81464117D01*
X171651100Y-81398336D01*
X171377686Y-81385651D01*
X171107052Y-81426551D01*
X170849596Y-81519463D01*
X170735468Y-81580466D01*
X170669397Y-81819792D01*
X166104841Y-81819792D01*
X165985754Y-81700705D01*
X165758175Y-81548641D01*
X165505302Y-81443898D01*
X165236854Y-81390500D01*
X164963146Y-81390500D01*
X164694698Y-81443898D01*
X164441825Y-81548641D01*
X164214246Y-81700705D01*
X164020705Y-81894246D01*
X163868641Y-82121825D01*
X163830000Y-82215113D01*
X163791359Y-82121825D01*
X163639295Y-81894246D01*
X163445754Y-81700705D01*
X163218175Y-81548641D01*
X162965302Y-81443898D01*
X162696854Y-81390500D01*
X162423146Y-81390500D01*
X162363277Y-81402409D01*
X162140380Y-81179512D01*
X171074470Y-81179512D01*
X171115488Y-81183552D01*
X171156506Y-81179512D01*
X171156507Y-81179512D01*
X171279177Y-81167430D01*
X171436575Y-81119684D01*
X171581634Y-81042148D01*
X171708779Y-80937803D01*
X171734934Y-80905933D01*
X172523277Y-80117591D01*
X172583146Y-80129500D01*
X172856854Y-80129500D01*
X172916724Y-80117591D01*
X174205220Y-81406088D01*
X174126854Y-81390500D01*
X173853146Y-81390500D01*
X173584698Y-81443898D01*
X173331825Y-81548641D01*
X173104246Y-81700705D01*
X172910705Y-81894246D01*
X172758641Y-82121825D01*
X172721793Y-82210785D01*
X172710537Y-82179596D01*
X172649534Y-82065468D01*
X172410208Y-81999397D01*
X171629605Y-82780000D01*
X172410208Y-83560603D01*
X172649534Y-83494532D01*
X172719912Y-83344674D01*
X172758641Y-83438175D01*
X172910705Y-83665754D01*
X173104246Y-83859295D01*
X173331825Y-84011359D01*
X173584698Y-84116102D01*
X173853146Y-84169500D01*
X174126854Y-84169500D01*
X174282525Y-84138535D01*
X174320223Y-84169473D01*
X174409463Y-84217174D01*
X174374246Y-84240705D01*
X174180705Y-84434246D01*
X174028641Y-84661825D01*
X173990000Y-84755113D01*
X173951359Y-84661825D01*
X173799295Y-84434246D01*
X173605754Y-84240705D01*
X173378175Y-84088641D01*
X173125302Y-83983898D01*
X172856854Y-83930500D01*
X172583146Y-83930500D01*
X172314698Y-83983898D01*
X172061825Y-84088641D01*
X171834246Y-84240705D01*
X171640705Y-84434246D01*
X171488641Y-84661825D01*
X171450000Y-84755113D01*
X171411359Y-84661825D01*
X171259295Y-84434246D01*
X171065754Y-84240705D01*
X170838175Y-84088641D01*
X170585302Y-83983898D01*
X170316854Y-83930500D01*
X170043146Y-83930500D01*
X169774698Y-83983898D01*
X169521825Y-84088641D01*
X169294246Y-84240705D01*
X169100705Y-84434246D01*
X168948641Y-84661825D01*
X168843898Y-84914698D01*
X168790500Y-85183146D01*
X168790500Y-85456854D01*
X168843898Y-85725302D01*
X168948641Y-85978175D01*
X169100705Y-86205754D01*
X169294246Y-86399295D01*
X169521825Y-86551359D01*
X169774698Y-86656102D01*
X170043146Y-86709500D01*
X170316854Y-86709500D01*
X170585302Y-86656102D01*
X170838175Y-86551359D01*
X171065754Y-86399295D01*
X171259295Y-86205754D01*
X171411359Y-85978175D01*
X171450000Y-85884887D01*
X171488641Y-85978175D01*
X171640705Y-86205754D01*
X171834246Y-86399295D01*
X172061825Y-86551359D01*
X172314698Y-86656102D01*
X172583146Y-86709500D01*
X172856854Y-86709500D01*
X173125302Y-86656102D01*
X173378175Y-86551359D01*
X173605754Y-86399295D01*
X173799295Y-86205754D01*
X173951359Y-85978175D01*
X173990000Y-85884887D01*
X174028641Y-85978175D01*
X174180705Y-86205754D01*
X174374246Y-86399295D01*
X174601825Y-86551359D01*
X174854698Y-86656102D01*
X175123146Y-86709500D01*
X175396854Y-86709500D01*
X175665302Y-86656102D01*
X175918175Y-86551359D01*
X176145754Y-86399295D01*
X176339295Y-86205754D01*
X176491359Y-85978175D01*
X176530000Y-85884887D01*
X176568641Y-85978175D01*
X176720705Y-86205754D01*
X176914246Y-86399295D01*
X177141825Y-86551359D01*
X177394698Y-86656102D01*
X177663146Y-86709500D01*
X177936854Y-86709500D01*
X178205302Y-86656102D01*
X178458175Y-86551359D01*
X178488902Y-86530828D01*
X178572246Y-86505546D01*
X178704276Y-86434974D01*
X178820001Y-86340001D01*
X178914974Y-86224276D01*
X178985546Y-86092246D01*
X179010828Y-86008902D01*
X179031359Y-85978175D01*
X179083124Y-85853201D01*
X180599192Y-85853201D01*
X180645710Y-86219106D01*
X180762718Y-86568906D01*
X180886608Y-86800686D01*
X181175301Y-86925094D01*
X182300395Y-85800000D01*
X182659605Y-85800000D01*
X183784699Y-86925094D01*
X184073392Y-86800686D01*
X184237999Y-86470603D01*
X184335048Y-86114749D01*
X184360808Y-85746799D01*
X184314290Y-85380894D01*
X184197282Y-85031094D01*
X184073392Y-84799314D01*
X183784699Y-84674906D01*
X182659605Y-85800000D01*
X182300395Y-85800000D01*
X181175301Y-84674906D01*
X180886608Y-84799314D01*
X180722001Y-85129397D01*
X180624952Y-85485251D01*
X180599192Y-85853201D01*
X179083124Y-85853201D01*
X179136102Y-85725302D01*
X179189500Y-85456854D01*
X179189500Y-85183146D01*
X179136102Y-84914698D01*
X179031359Y-84661825D01*
X178920091Y-84495301D01*
X181354906Y-84495301D01*
X182480000Y-85620395D01*
X183605094Y-84495301D01*
X183480686Y-84206608D01*
X183150603Y-84042001D01*
X182794749Y-83944952D01*
X182426799Y-83919192D01*
X182060894Y-83965710D01*
X181711094Y-84082718D01*
X181479314Y-84206608D01*
X181354906Y-84495301D01*
X178920091Y-84495301D01*
X178879295Y-84434246D01*
X178685754Y-84240705D01*
X178458175Y-84088641D01*
X178205302Y-83983898D01*
X178032866Y-83949598D01*
X178120504Y-83861959D01*
X178149502Y-83838162D01*
X178155637Y-83830686D01*
X178184246Y-83859295D01*
X178411825Y-84011359D01*
X178664698Y-84116102D01*
X178933146Y-84169500D01*
X179206854Y-84169500D01*
X179475302Y-84116102D01*
X179728175Y-84011359D01*
X179955754Y-83859295D01*
X180149295Y-83665754D01*
X180301359Y-83438175D01*
X180406102Y-83185302D01*
X180459500Y-82916854D01*
X180459500Y-82643146D01*
X180406102Y-82374698D01*
X180301359Y-82121825D01*
X180149295Y-81894246D01*
X179955754Y-81700705D01*
X179797106Y-81594699D01*
X182009906Y-81594699D01*
X182134314Y-81883392D01*
X182464397Y-82047999D01*
X182820251Y-82145048D01*
X183188201Y-82170808D01*
X183554106Y-82124290D01*
X183903906Y-82007282D01*
X184135686Y-81883392D01*
X184260094Y-81594699D01*
X183135000Y-80469605D01*
X182009906Y-81594699D01*
X179797106Y-81594699D01*
X179728175Y-81548641D01*
X179475302Y-81443898D01*
X179206854Y-81390500D01*
X178933146Y-81390500D01*
X178664698Y-81443898D01*
X178411825Y-81548641D01*
X178184246Y-81700705D01*
X178155637Y-81729314D01*
X178149502Y-81721838D01*
X178120504Y-81698040D01*
X177001964Y-80579501D01*
X178280839Y-80579501D01*
X178318161Y-80583177D01*
X178355483Y-80579501D01*
X178355494Y-80579501D01*
X178467147Y-80568504D01*
X178610408Y-80525047D01*
X178742437Y-80454475D01*
X178858162Y-80359502D01*
X178871539Y-80343201D01*
X181254192Y-80343201D01*
X181300710Y-80709106D01*
X181417718Y-81058906D01*
X181541608Y-81290686D01*
X181830301Y-81415094D01*
X182955395Y-80290000D01*
X183314605Y-80290000D01*
X184439699Y-81415094D01*
X184728392Y-81290686D01*
X184892999Y-80960603D01*
X184990048Y-80604749D01*
X185015808Y-80236799D01*
X184969290Y-79870894D01*
X184852282Y-79521094D01*
X184728392Y-79289314D01*
X184439699Y-79164906D01*
X183314605Y-80290000D01*
X182955395Y-80290000D01*
X181830301Y-79164906D01*
X181541608Y-79289314D01*
X181377001Y-79619397D01*
X181279952Y-79975251D01*
X181254192Y-80343201D01*
X178871539Y-80343201D01*
X178881965Y-80330498D01*
X180227162Y-78985301D01*
X182009906Y-78985301D01*
X183135000Y-80110395D01*
X184260094Y-78985301D01*
X184135686Y-78696608D01*
X183805603Y-78532001D01*
X183449749Y-78434952D01*
X183081799Y-78409192D01*
X182715894Y-78455710D01*
X182366094Y-78572718D01*
X182134314Y-78696608D01*
X182009906Y-78985301D01*
X180227162Y-78985301D01*
X181560525Y-77651939D01*
X181589523Y-77628141D01*
X181684496Y-77512416D01*
X181755068Y-77380387D01*
X181798525Y-77237126D01*
X181809522Y-77125473D01*
X181809522Y-77125465D01*
X181813198Y-77088140D01*
X181809522Y-77050815D01*
X181809522Y-68923801D01*
X181813198Y-68886478D01*
X181809522Y-68849156D01*
X181809522Y-68849145D01*
X181809520Y-68849125D01*
X181809520Y-68755343D01*
X181813196Y-68718020D01*
X181809520Y-68680697D01*
X181809520Y-68680687D01*
X181798523Y-68569034D01*
X181755066Y-68425773D01*
X181733420Y-68385276D01*
X181684494Y-68293743D01*
X181613319Y-68207017D01*
X181589521Y-68178019D01*
X181560524Y-68154222D01*
X172146500Y-58740199D01*
X172146500Y-55576901D01*
X172187601Y-55554932D01*
X172406108Y-55375608D01*
X172585432Y-55157101D01*
X172656500Y-55024142D01*
X172727568Y-55157101D01*
X172906892Y-55375608D01*
X173125399Y-55554932D01*
X173374692Y-55688182D01*
X173645191Y-55770236D01*
X173856008Y-55791000D01*
X173996992Y-55791000D01*
X174207809Y-55770236D01*
X174478308Y-55688182D01*
X174727601Y-55554932D01*
X174946108Y-55375608D01*
X175125432Y-55157101D01*
X175196500Y-55024142D01*
X175267568Y-55157101D01*
X175446892Y-55375608D01*
X175665399Y-55554932D01*
X175914692Y-55688182D01*
X176185191Y-55770236D01*
X176396008Y-55791000D01*
X176536992Y-55791000D01*
X176747809Y-55770236D01*
X177018308Y-55688182D01*
X177267601Y-55554932D01*
X177486108Y-55375608D01*
X177665432Y-55157101D01*
X177736500Y-55024142D01*
X177807568Y-55157101D01*
X177986892Y-55375608D01*
X178205399Y-55554932D01*
X178454692Y-55688182D01*
X178725191Y-55770236D01*
X178936008Y-55791000D01*
X179076992Y-55791000D01*
X179287809Y-55770236D01*
X179558308Y-55688182D01*
X179807601Y-55554932D01*
X180026108Y-55375608D01*
X180205432Y-55157101D01*
X180338682Y-54907808D01*
X180377490Y-54779872D01*
X187765000Y-54779872D01*
X187765000Y-55220128D01*
X187850890Y-55651925D01*
X188019369Y-56058669D01*
X188263962Y-56424729D01*
X188575271Y-56736038D01*
X188941331Y-56980631D01*
X189348075Y-57149110D01*
X189779872Y-57235000D01*
X190220128Y-57235000D01*
X190651925Y-57149110D01*
X191058669Y-56980631D01*
X191424729Y-56736038D01*
X191736038Y-56424729D01*
X191980631Y-56058669D01*
X192149110Y-55651925D01*
X192235000Y-55220128D01*
X192235000Y-54779872D01*
X192149110Y-54348075D01*
X191980631Y-53941331D01*
X191736038Y-53575271D01*
X191424729Y-53263962D01*
X191058669Y-53019369D01*
X190651925Y-52850890D01*
X190220128Y-52765000D01*
X189779872Y-52765000D01*
X189348075Y-52850890D01*
X188941331Y-53019369D01*
X188575271Y-53263962D01*
X188263962Y-53575271D01*
X188019369Y-53941331D01*
X187850890Y-54348075D01*
X187765000Y-54779872D01*
X180377490Y-54779872D01*
X180420736Y-54637309D01*
X180448443Y-54356000D01*
X180420736Y-54074691D01*
X180338682Y-53804192D01*
X180205432Y-53554899D01*
X180026108Y-53336392D01*
X179807601Y-53157068D01*
X179558308Y-53023818D01*
X179287809Y-52941764D01*
X179076992Y-52921000D01*
X178936008Y-52921000D01*
X178725191Y-52941764D01*
X178454692Y-53023818D01*
X178205399Y-53157068D01*
X177986892Y-53336392D01*
X177807568Y-53554899D01*
X177736500Y-53687858D01*
X177665432Y-53554899D01*
X177486108Y-53336392D01*
X177267601Y-53157068D01*
X177018308Y-53023818D01*
X176747809Y-52941764D01*
X176536992Y-52921000D01*
X176396008Y-52921000D01*
X176185191Y-52941764D01*
X175914692Y-53023818D01*
X175665399Y-53157068D01*
X175446892Y-53336392D01*
X175267568Y-53554899D01*
X175196500Y-53687858D01*
X175125432Y-53554899D01*
X174946108Y-53336392D01*
X174727601Y-53157068D01*
X174478308Y-53023818D01*
X174207809Y-52941764D01*
X173996992Y-52921000D01*
X173856008Y-52921000D01*
X173645191Y-52941764D01*
X173374692Y-53023818D01*
X173125399Y-53157068D01*
X172906892Y-53336392D01*
X172727568Y-53554899D01*
X172656500Y-53687858D01*
X172585432Y-53554899D01*
X172406108Y-53336392D01*
X172187601Y-53157068D01*
X171938308Y-53023818D01*
X171667809Y-52941764D01*
X171456992Y-52921000D01*
X171316008Y-52921000D01*
X171105191Y-52941764D01*
X170834692Y-53023818D01*
X170585399Y-53157068D01*
X170366892Y-53336392D01*
X170187568Y-53554899D01*
X170116500Y-53687858D01*
X170045432Y-53554899D01*
X169866108Y-53336392D01*
X169647601Y-53157068D01*
X169398308Y-53023818D01*
X169127809Y-52941764D01*
X168916992Y-52921000D01*
X168776008Y-52921000D01*
X168565191Y-52941764D01*
X168294692Y-53023818D01*
X168045399Y-53157068D01*
X167826892Y-53336392D01*
X167647568Y-53554899D01*
X167576500Y-53687858D01*
X167505432Y-53554899D01*
X167326108Y-53336392D01*
X167107601Y-53157068D01*
X166858308Y-53023818D01*
X166587809Y-52941764D01*
X166376992Y-52921000D01*
X166236008Y-52921000D01*
X166025191Y-52941764D01*
X165754692Y-53023818D01*
X165505399Y-53157068D01*
X165286892Y-53336392D01*
X165107568Y-53554899D01*
X165036500Y-53687858D01*
X164965432Y-53554899D01*
X164786108Y-53336392D01*
X164567601Y-53157068D01*
X164318308Y-53023818D01*
X164047809Y-52941764D01*
X163836992Y-52921000D01*
X163696008Y-52921000D01*
X163485191Y-52941764D01*
X163214692Y-53023818D01*
X162965399Y-53157068D01*
X162746892Y-53336392D01*
X162567568Y-53554899D01*
X162496500Y-53687858D01*
X162425432Y-53554899D01*
X162246108Y-53336392D01*
X162027601Y-53157068D01*
X161778308Y-53023818D01*
X161507809Y-52941764D01*
X161296992Y-52921000D01*
X161156008Y-52921000D01*
X160945191Y-52941764D01*
X160674692Y-53023818D01*
X160425399Y-53157068D01*
X160206892Y-53336392D01*
X160027568Y-53554899D01*
X159956500Y-53687858D01*
X159885432Y-53554899D01*
X159706108Y-53336392D01*
X159487601Y-53157068D01*
X159238308Y-53023818D01*
X158967809Y-52941764D01*
X158756992Y-52921000D01*
X158616008Y-52921000D01*
X158405191Y-52941764D01*
X158134692Y-53023818D01*
X157885399Y-53157068D01*
X157666892Y-53336392D01*
X157487568Y-53554899D01*
X157416500Y-53687858D01*
X157345432Y-53554899D01*
X157166108Y-53336392D01*
X156947601Y-53157068D01*
X156698308Y-53023818D01*
X156427809Y-52941764D01*
X156216992Y-52921000D01*
X156076008Y-52921000D01*
X155865191Y-52941764D01*
X155594692Y-53023818D01*
X155345399Y-53157068D01*
X155126892Y-53336392D01*
X154947568Y-53554899D01*
X154876500Y-53687858D01*
X154805432Y-53554899D01*
X154626108Y-53336392D01*
X154407601Y-53157068D01*
X154158308Y-53023818D01*
X153887809Y-52941764D01*
X153676992Y-52921000D01*
X153536008Y-52921000D01*
X153325191Y-52941764D01*
X153054692Y-53023818D01*
X152805399Y-53157068D01*
X152586892Y-53336392D01*
X152407568Y-53554899D01*
X152336500Y-53687858D01*
X152265432Y-53554899D01*
X152086108Y-53336392D01*
X151867601Y-53157068D01*
X151618308Y-53023818D01*
X151347809Y-52941764D01*
X151136992Y-52921000D01*
X150996008Y-52921000D01*
X150828833Y-52937466D01*
X150485944Y-52594577D01*
X150459790Y-52562708D01*
X150332645Y-52458363D01*
X150187586Y-52380827D01*
X150030188Y-52333081D01*
X149907518Y-52320999D01*
X149907517Y-52320999D01*
X149866499Y-52316959D01*
X149825481Y-52320999D01*
X144687519Y-52320999D01*
X144646501Y-52316959D01*
X144605483Y-52320999D01*
X144605482Y-52320999D01*
X144482812Y-52333081D01*
X144325414Y-52380827D01*
X144180355Y-52458363D01*
X144053210Y-52562708D01*
X144027064Y-52594567D01*
X143684166Y-52937465D01*
X143516992Y-52921000D01*
X143376008Y-52921000D01*
X143165191Y-52941764D01*
X142894692Y-53023818D01*
X142645399Y-53157068D01*
X142426892Y-53336392D01*
X142275388Y-53521000D01*
X136813016Y-53521000D01*
X136771998Y-53516960D01*
X136730980Y-53521000D01*
X136730979Y-53521000D01*
X136608309Y-53533082D01*
X136536388Y-53554899D01*
X136450911Y-53580828D01*
X136305852Y-53658364D01*
X136229497Y-53721027D01*
X136178707Y-53762709D01*
X136152561Y-53794568D01*
X134630079Y-55317052D01*
X134598209Y-55343207D01*
X134496617Y-55466999D01*
X134493864Y-55470353D01*
X134416328Y-55615412D01*
X134368582Y-55772810D01*
X134352460Y-55936498D01*
X134356500Y-55977517D01*
X134356501Y-57502630D01*
X122209133Y-69650000D01*
X110727356Y-69650000D01*
X110686338Y-69645960D01*
X110645320Y-69650000D01*
X110645319Y-69650000D01*
X110522649Y-69662082D01*
X110365251Y-69709828D01*
X110220192Y-69787364D01*
X110180821Y-69819675D01*
X110138388Y-69854499D01*
X110093047Y-69891709D01*
X110066901Y-69923568D01*
X104964078Y-75026393D01*
X104932208Y-75052548D01*
X104929213Y-75056198D01*
X104798175Y-74968641D01*
X104545302Y-74863898D01*
X104276854Y-74810500D01*
X104003146Y-74810500D01*
X103734698Y-74863898D01*
X103481825Y-74968641D01*
X103254246Y-75120705D01*
X103060705Y-75314246D01*
X102908641Y-75541825D01*
X102870000Y-75635113D01*
X102831359Y-75541825D01*
X102679295Y-75314246D01*
X102485754Y-75120705D01*
X102258175Y-74968641D01*
X102005302Y-74863898D01*
X101736854Y-74810500D01*
X101463146Y-74810500D01*
X101194698Y-74863898D01*
X100941825Y-74968641D01*
X100714246Y-75120705D01*
X100520705Y-75314246D01*
X100368641Y-75541825D01*
X100263898Y-75794698D01*
X100210500Y-76063146D01*
X100210500Y-76336854D01*
X100263898Y-76605302D01*
X100368641Y-76858175D01*
X100520705Y-77085754D01*
X100714246Y-77279295D01*
X100941825Y-77431359D01*
X101194698Y-77536102D01*
X101463146Y-77589500D01*
X101736854Y-77589500D01*
X102005302Y-77536102D01*
X102258175Y-77431359D01*
X102485754Y-77279295D01*
X102679295Y-77085754D01*
X102831359Y-76858175D01*
X102870000Y-76764887D01*
X102908641Y-76858175D01*
X103060705Y-77085754D01*
X103254246Y-77279295D01*
X103481825Y-77431359D01*
X103734698Y-77536102D01*
X104003146Y-77589500D01*
X104276854Y-77589500D01*
X104545302Y-77536102D01*
X104745815Y-77453047D01*
X104750327Y-77467923D01*
X104768418Y-77501768D01*
X104751825Y-77508641D01*
X104524246Y-77660705D01*
X104330705Y-77854246D01*
X104178641Y-78081825D01*
X104140000Y-78175113D01*
X104101359Y-78081825D01*
X103949295Y-77854246D01*
X103755754Y-77660705D01*
X103528175Y-77508641D01*
X103275302Y-77403898D01*
X103006854Y-77350500D01*
X102733146Y-77350500D01*
X102464698Y-77403898D01*
X102211825Y-77508641D01*
X101984246Y-77660705D01*
X101790705Y-77854246D01*
X101638641Y-78081825D01*
X101600000Y-78175113D01*
X101561359Y-78081825D01*
X101409295Y-77854246D01*
X101215754Y-77660705D01*
X100988175Y-77508641D01*
X100735302Y-77403898D01*
X100466854Y-77350500D01*
X100193146Y-77350500D01*
X99924698Y-77403898D01*
X99671825Y-77508641D01*
X99444246Y-77660705D01*
X99250705Y-77854246D01*
X99098641Y-78081825D01*
X98993898Y-78334698D01*
X98940500Y-78603146D01*
X87210500Y-78603146D01*
X87210500Y-77504699D01*
X95139906Y-77504699D01*
X95264314Y-77793392D01*
X95594397Y-77957999D01*
X95950251Y-78055048D01*
X96318201Y-78080808D01*
X96684106Y-78034290D01*
X97033906Y-77917282D01*
X97265686Y-77793392D01*
X97390094Y-77504699D01*
X96265000Y-76379605D01*
X95139906Y-77504699D01*
X87210500Y-77504699D01*
X87210500Y-76253201D01*
X94384192Y-76253201D01*
X94430710Y-76619106D01*
X94547718Y-76968906D01*
X94671608Y-77200686D01*
X94960301Y-77325094D01*
X96085395Y-76200000D01*
X96444605Y-76200000D01*
X97569699Y-77325094D01*
X97858392Y-77200686D01*
X98022999Y-76870603D01*
X98120048Y-76514749D01*
X98145808Y-76146799D01*
X98099290Y-75780894D01*
X97982282Y-75431094D01*
X97858392Y-75199314D01*
X97569699Y-75074906D01*
X96444605Y-76200000D01*
X96085395Y-76200000D01*
X94960301Y-75074906D01*
X94671608Y-75199314D01*
X94507001Y-75529397D01*
X94409952Y-75885251D01*
X94384192Y-76253201D01*
X87210500Y-76253201D01*
X87210500Y-74895301D01*
X95139906Y-74895301D01*
X96265000Y-76020395D01*
X97390094Y-74895301D01*
X97265686Y-74606608D01*
X96935603Y-74442001D01*
X96579749Y-74344952D01*
X96211799Y-74319192D01*
X95845894Y-74365710D01*
X95496094Y-74482718D01*
X95264314Y-74606608D01*
X95139906Y-74895301D01*
X87210500Y-74895301D01*
X87210500Y-54779872D01*
X87765000Y-54779872D01*
X87765000Y-55220128D01*
X87850890Y-55651925D01*
X88019369Y-56058669D01*
X88263962Y-56424729D01*
X88575271Y-56736038D01*
X88941331Y-56980631D01*
X89348075Y-57149110D01*
X89779872Y-57235000D01*
X90220128Y-57235000D01*
X90651925Y-57149110D01*
X91058669Y-56980631D01*
X91424729Y-56736038D01*
X91736038Y-56424729D01*
X91980631Y-56058669D01*
X92149110Y-55651925D01*
X92235000Y-55220128D01*
X92235000Y-54779872D01*
X92149110Y-54348075D01*
X91980631Y-53941331D01*
X91736038Y-53575271D01*
X91424729Y-53263962D01*
X91058669Y-53019369D01*
X90651925Y-52850890D01*
X90220128Y-52765000D01*
X89779872Y-52765000D01*
X89348075Y-52850890D01*
X88941331Y-53019369D01*
X88575271Y-53263962D01*
X88263962Y-53575271D01*
X88019369Y-53941331D01*
X87850890Y-54348075D01*
X87765000Y-54779872D01*
X87210500Y-54779872D01*
X87210500Y-50659981D01*
X192824501Y-50657018D01*
X192824500Y-102340000D01*
G36*
X125693200Y-83480499D02*
G01*
X124393079Y-83480499D01*
X124421359Y-83438175D01*
X124526102Y-83185302D01*
X124579500Y-82916854D01*
X124579500Y-82643146D01*
X124526102Y-82374698D01*
X124421359Y-82121825D01*
X124269295Y-81894246D01*
X124075754Y-81700705D01*
X123848175Y-81548641D01*
X123595302Y-81443898D01*
X123326854Y-81390500D01*
X123220369Y-81390500D01*
X123582870Y-81027999D01*
X128145699Y-81027999D01*
X125693200Y-83480499D01*
X125693200Y-83480499D01*
G37*
X125693200Y-83480499D02*
X124393079Y-83480499D01*
X124421359Y-83438175D01*
X124526102Y-83185302D01*
X124579500Y-82916854D01*
X124579500Y-82643146D01*
X124526102Y-82374698D01*
X124421359Y-82121825D01*
X124269295Y-81894246D01*
X124075754Y-81700705D01*
X123848175Y-81548641D01*
X123595302Y-81443898D01*
X123326854Y-81390500D01*
X123220369Y-81390500D01*
X123582870Y-81027999D01*
X128145699Y-81027999D01*
X125693200Y-83480499D01*
G36*
X129538305Y-73748799D02*
G01*
X129651573Y-73918317D01*
X129795736Y-74062480D01*
X129965254Y-74175748D01*
X130153612Y-74253769D01*
X130353571Y-74293543D01*
X130557449Y-74293543D01*
X130757408Y-74253769D01*
X130887665Y-74199814D01*
X131587759Y-74899909D01*
X131421825Y-74968641D01*
X131194246Y-75120705D01*
X131000705Y-75314246D01*
X130848641Y-75541825D01*
X130810000Y-75635113D01*
X130771359Y-75541825D01*
X130619295Y-75314246D01*
X130425754Y-75120705D01*
X130198175Y-74968641D01*
X129945302Y-74863898D01*
X129676854Y-74810500D01*
X129403146Y-74810500D01*
X129134698Y-74863898D01*
X128881825Y-74968641D01*
X128654246Y-75120705D01*
X128460705Y-75314246D01*
X128308641Y-75541825D01*
X128203898Y-75794698D01*
X128150500Y-76063146D01*
X128150500Y-76336854D01*
X128203898Y-76605302D01*
X128308641Y-76858175D01*
X128460705Y-77085754D01*
X128654246Y-77279295D01*
X128881825Y-77431359D01*
X129134698Y-77536102D01*
X129403146Y-77589500D01*
X129676854Y-77589500D01*
X129945302Y-77536102D01*
X130198175Y-77431359D01*
X130425754Y-77279295D01*
X130619295Y-77085754D01*
X130771359Y-76858175D01*
X130810000Y-76764887D01*
X130848641Y-76858175D01*
X131000705Y-77085754D01*
X131194246Y-77279295D01*
X131421825Y-77431359D01*
X131674698Y-77536102D01*
X131943146Y-77589500D01*
X132216854Y-77589500D01*
X132485302Y-77536102D01*
X132590000Y-77492735D01*
X132590000Y-77576678D01*
X132464246Y-77660705D01*
X132270705Y-77854246D01*
X132118641Y-78081825D01*
X132080000Y-78175113D01*
X132041359Y-78081825D01*
X131889295Y-77854246D01*
X131695754Y-77660705D01*
X131468175Y-77508641D01*
X131215302Y-77403898D01*
X130946854Y-77350500D01*
X130673146Y-77350500D01*
X130404698Y-77403898D01*
X130151825Y-77508641D01*
X129924246Y-77660705D01*
X129730705Y-77854246D01*
X129578641Y-78081825D01*
X129540000Y-78175113D01*
X129501359Y-78081825D01*
X129349295Y-77854246D01*
X129155754Y-77660705D01*
X128928175Y-77508641D01*
X128675302Y-77403898D01*
X128406854Y-77350500D01*
X128133146Y-77350500D01*
X127864698Y-77403898D01*
X127611825Y-77508641D01*
X127384246Y-77660705D01*
X127190705Y-77854246D01*
X127038641Y-78081825D01*
X126933898Y-78334698D01*
X126880500Y-78603146D01*
X126880500Y-78876854D01*
X126933898Y-79145302D01*
X127022000Y-79357999D01*
X123278019Y-79357999D01*
X123237001Y-79353959D01*
X123163360Y-79361212D01*
X123235883Y-79206785D01*
X123301664Y-78941100D01*
X123314349Y-78667686D01*
X123273449Y-78397052D01*
X123180537Y-78139596D01*
X123119534Y-78025468D01*
X122880208Y-77959397D01*
X122099605Y-78740000D01*
X122113748Y-78754143D01*
X121934143Y-78933748D01*
X121920000Y-78919605D01*
X121139397Y-79700208D01*
X121205468Y-79939534D01*
X121453215Y-80055883D01*
X121718900Y-80121664D01*
X121992314Y-80134349D01*
X122136586Y-80112546D01*
X120846724Y-81402409D01*
X120786854Y-81390500D01*
X120671369Y-81390500D01*
X119410368Y-80129500D01*
X119516854Y-80129500D01*
X119785302Y-80076102D01*
X120038175Y-79971359D01*
X120265754Y-79819295D01*
X120459295Y-79625754D01*
X120611359Y-79398175D01*
X120648207Y-79309215D01*
X120659463Y-79340404D01*
X120720466Y-79454532D01*
X120959792Y-79520603D01*
X121740395Y-78740000D01*
X120959792Y-77959397D01*
X120720466Y-78025468D01*
X120650088Y-78175326D01*
X120611359Y-78081825D01*
X120459295Y-77854246D01*
X120384841Y-77779792D01*
X121139397Y-77779792D01*
X121920000Y-78560395D01*
X122700603Y-77779792D01*
X122634532Y-77540466D01*
X122386785Y-77424117D01*
X122121100Y-77358336D01*
X121847686Y-77345651D01*
X121577052Y-77386551D01*
X121319596Y-77479463D01*
X121205468Y-77540466D01*
X121139397Y-77779792D01*
X120384841Y-77779792D01*
X120265754Y-77660705D01*
X120038175Y-77508641D01*
X119785302Y-77403898D01*
X119516854Y-77350500D01*
X119243146Y-77350500D01*
X118974698Y-77403898D01*
X118721825Y-77508641D01*
X118494246Y-77660705D01*
X118300705Y-77854246D01*
X118148641Y-78081825D01*
X118110000Y-78175113D01*
X118071359Y-78081825D01*
X117919295Y-77854246D01*
X117725754Y-77660705D01*
X117498175Y-77508641D01*
X117245302Y-77403898D01*
X116976854Y-77350500D01*
X116703146Y-77350500D01*
X116434698Y-77403898D01*
X116181825Y-77508641D01*
X115954246Y-77660705D01*
X115760705Y-77854246D01*
X115608641Y-78081825D01*
X115570000Y-78175113D01*
X115531359Y-78081825D01*
X115379295Y-77854246D01*
X115185754Y-77660705D01*
X114958175Y-77508641D01*
X114705302Y-77403898D01*
X114436854Y-77350500D01*
X114163146Y-77350500D01*
X113894698Y-77403898D01*
X113641825Y-77508641D01*
X113414246Y-77660705D01*
X113220705Y-77854246D01*
X113068641Y-78081825D01*
X112963898Y-78334698D01*
X112910500Y-78603146D01*
X112910500Y-78876854D01*
X112949848Y-79074669D01*
X109591349Y-79074669D01*
X109550330Y-79070629D01*
X109509312Y-79074669D01*
X109298594Y-79074669D01*
X109331664Y-78941100D01*
X109344349Y-78667686D01*
X109303449Y-78397052D01*
X109210537Y-78139596D01*
X109149534Y-78025468D01*
X108910208Y-77959397D01*
X108129605Y-78740000D01*
X108143748Y-78754143D01*
X107964143Y-78933748D01*
X107950000Y-78919605D01*
X107935858Y-78933748D01*
X107756253Y-78754143D01*
X107770395Y-78740000D01*
X107756253Y-78725858D01*
X107935858Y-78546253D01*
X107950000Y-78560395D01*
X108730603Y-77779792D01*
X108664532Y-77540466D01*
X108416785Y-77424117D01*
X108151100Y-77358336D01*
X107877686Y-77345651D01*
X107607052Y-77386551D01*
X107349596Y-77479463D01*
X107235468Y-77540466D01*
X107206159Y-77646629D01*
X107092606Y-77533076D01*
X107338175Y-77431359D01*
X107565754Y-77279295D01*
X107759295Y-77085754D01*
X107911359Y-76858175D01*
X107950000Y-76764887D01*
X107988641Y-76858175D01*
X108140705Y-77085754D01*
X108334246Y-77279295D01*
X108561825Y-77431359D01*
X108814698Y-77536102D01*
X109083146Y-77589500D01*
X109296238Y-77589500D01*
X109264500Y-77749061D01*
X109264500Y-77952939D01*
X109304274Y-78152898D01*
X109382295Y-78341256D01*
X109495563Y-78510774D01*
X109639726Y-78654937D01*
X109809244Y-78768205D01*
X109997602Y-78846226D01*
X110197561Y-78886000D01*
X110401439Y-78886000D01*
X110601398Y-78846226D01*
X110789756Y-78768205D01*
X110959274Y-78654937D01*
X111003211Y-78611000D01*
X111087678Y-78611000D01*
X111125000Y-78614676D01*
X111162322Y-78611000D01*
X111162333Y-78611000D01*
X111273986Y-78600003D01*
X111417247Y-78556546D01*
X111549276Y-78485974D01*
X111665001Y-78391001D01*
X111688804Y-78361997D01*
X114228384Y-75822418D01*
X114180500Y-76063146D01*
X114180500Y-76336854D01*
X114233898Y-76605302D01*
X114338641Y-76858175D01*
X114490705Y-77085754D01*
X114684246Y-77279295D01*
X114911825Y-77431359D01*
X115164698Y-77536102D01*
X115433146Y-77589500D01*
X115706854Y-77589500D01*
X115975302Y-77536102D01*
X116228175Y-77431359D01*
X116455754Y-77279295D01*
X116649295Y-77085754D01*
X116801359Y-76858175D01*
X116840000Y-76764887D01*
X116878641Y-76858175D01*
X117030705Y-77085754D01*
X117224246Y-77279295D01*
X117451825Y-77431359D01*
X117704698Y-77536102D01*
X117973146Y-77589500D01*
X118246854Y-77589500D01*
X118515302Y-77536102D01*
X118768175Y-77431359D01*
X118995754Y-77279295D01*
X119189295Y-77085754D01*
X119341359Y-76858175D01*
X119380000Y-76764887D01*
X119418641Y-76858175D01*
X119570705Y-77085754D01*
X119764246Y-77279295D01*
X119991825Y-77431359D01*
X120244698Y-77536102D01*
X120513146Y-77589500D01*
X120786854Y-77589500D01*
X121055302Y-77536102D01*
X121308175Y-77431359D01*
X121535754Y-77279295D01*
X121729295Y-77085754D01*
X121881359Y-76858175D01*
X121920000Y-76764887D01*
X121958641Y-76858175D01*
X122110705Y-77085754D01*
X122304246Y-77279295D01*
X122531825Y-77431359D01*
X122784698Y-77536102D01*
X123053146Y-77589500D01*
X123326854Y-77589500D01*
X123595302Y-77536102D01*
X123848175Y-77431359D01*
X124075754Y-77279295D01*
X124269295Y-77085754D01*
X124353321Y-76960000D01*
X125940182Y-76960000D01*
X125977504Y-76963676D01*
X126014826Y-76960000D01*
X126014837Y-76960000D01*
X126126490Y-76949003D01*
X126269751Y-76905546D01*
X126401780Y-76834974D01*
X126517505Y-76740001D01*
X126541308Y-76710997D01*
X129528113Y-73724193D01*
X129538305Y-73748799D01*
X129538305Y-73748799D01*
G37*
X129538305Y-73748799D02*
X129651573Y-73918317D01*
X129795736Y-74062480D01*
X129965254Y-74175748D01*
X130153612Y-74253769D01*
X130353571Y-74293543D01*
X130557449Y-74293543D01*
X130757408Y-74253769D01*
X130887665Y-74199814D01*
X131587759Y-74899909D01*
X131421825Y-74968641D01*
X131194246Y-75120705D01*
X131000705Y-75314246D01*
X130848641Y-75541825D01*
X130810000Y-75635113D01*
X130771359Y-75541825D01*
X130619295Y-75314246D01*
X130425754Y-75120705D01*
X130198175Y-74968641D01*
X129945302Y-74863898D01*
X129676854Y-74810500D01*
X129403146Y-74810500D01*
X129134698Y-74863898D01*
X128881825Y-74968641D01*
X128654246Y-75120705D01*
X128460705Y-75314246D01*
X128308641Y-75541825D01*
X128203898Y-75794698D01*
X128150500Y-76063146D01*
X128150500Y-76336854D01*
X128203898Y-76605302D01*
X128308641Y-76858175D01*
X128460705Y-77085754D01*
X128654246Y-77279295D01*
X128881825Y-77431359D01*
X129134698Y-77536102D01*
X129403146Y-77589500D01*
X129676854Y-77589500D01*
X129945302Y-77536102D01*
X130198175Y-77431359D01*
X130425754Y-77279295D01*
X130619295Y-77085754D01*
X130771359Y-76858175D01*
X130810000Y-76764887D01*
X130848641Y-76858175D01*
X131000705Y-77085754D01*
X131194246Y-77279295D01*
X131421825Y-77431359D01*
X131674698Y-77536102D01*
X131943146Y-77589500D01*
X132216854Y-77589500D01*
X132485302Y-77536102D01*
X132590000Y-77492735D01*
X132590000Y-77576678D01*
X132464246Y-77660705D01*
X132270705Y-77854246D01*
X132118641Y-78081825D01*
X132080000Y-78175113D01*
X132041359Y-78081825D01*
X131889295Y-77854246D01*
X131695754Y-77660705D01*
X131468175Y-77508641D01*
X131215302Y-77403898D01*
X130946854Y-77350500D01*
X130673146Y-77350500D01*
X130404698Y-77403898D01*
X130151825Y-77508641D01*
X129924246Y-77660705D01*
X129730705Y-77854246D01*
X129578641Y-78081825D01*
X129540000Y-78175113D01*
X129501359Y-78081825D01*
X129349295Y-77854246D01*
X129155754Y-77660705D01*
X128928175Y-77508641D01*
X128675302Y-77403898D01*
X128406854Y-77350500D01*
X128133146Y-77350500D01*
X127864698Y-77403898D01*
X127611825Y-77508641D01*
X127384246Y-77660705D01*
X127190705Y-77854246D01*
X127038641Y-78081825D01*
X126933898Y-78334698D01*
X126880500Y-78603146D01*
X126880500Y-78876854D01*
X126933898Y-79145302D01*
X127022000Y-79357999D01*
X123278019Y-79357999D01*
X123237001Y-79353959D01*
X123163360Y-79361212D01*
X123235883Y-79206785D01*
X123301664Y-78941100D01*
X123314349Y-78667686D01*
X123273449Y-78397052D01*
X123180537Y-78139596D01*
X123119534Y-78025468D01*
X122880208Y-77959397D01*
X122099605Y-78740000D01*
X122113748Y-78754143D01*
X121934143Y-78933748D01*
X121920000Y-78919605D01*
X121139397Y-79700208D01*
X121205468Y-79939534D01*
X121453215Y-80055883D01*
X121718900Y-80121664D01*
X121992314Y-80134349D01*
X122136586Y-80112546D01*
X120846724Y-81402409D01*
X120786854Y-81390500D01*
X120671369Y-81390500D01*
X119410368Y-80129500D01*
X119516854Y-80129500D01*
X119785302Y-80076102D01*
X120038175Y-79971359D01*
X120265754Y-79819295D01*
X120459295Y-79625754D01*
X120611359Y-79398175D01*
X120648207Y-79309215D01*
X120659463Y-79340404D01*
X120720466Y-79454532D01*
X120959792Y-79520603D01*
X121740395Y-78740000D01*
X120959792Y-77959397D01*
X120720466Y-78025468D01*
X120650088Y-78175326D01*
X120611359Y-78081825D01*
X120459295Y-77854246D01*
X120384841Y-77779792D01*
X121139397Y-77779792D01*
X121920000Y-78560395D01*
X122700603Y-77779792D01*
X122634532Y-77540466D01*
X122386785Y-77424117D01*
X122121100Y-77358336D01*
X121847686Y-77345651D01*
X121577052Y-77386551D01*
X121319596Y-77479463D01*
X121205468Y-77540466D01*
X121139397Y-77779792D01*
X120384841Y-77779792D01*
X120265754Y-77660705D01*
X120038175Y-77508641D01*
X119785302Y-77403898D01*
X119516854Y-77350500D01*
X119243146Y-77350500D01*
X118974698Y-77403898D01*
X118721825Y-77508641D01*
X118494246Y-77660705D01*
X118300705Y-77854246D01*
X118148641Y-78081825D01*
X118110000Y-78175113D01*
X118071359Y-78081825D01*
X117919295Y-77854246D01*
X117725754Y-77660705D01*
X117498175Y-77508641D01*
X117245302Y-77403898D01*
X116976854Y-77350500D01*
X116703146Y-77350500D01*
X116434698Y-77403898D01*
X116181825Y-77508641D01*
X115954246Y-77660705D01*
X115760705Y-77854246D01*
X115608641Y-78081825D01*
X115570000Y-78175113D01*
X115531359Y-78081825D01*
X115379295Y-77854246D01*
X115185754Y-77660705D01*
X114958175Y-77508641D01*
X114705302Y-77403898D01*
X114436854Y-77350500D01*
X114163146Y-77350500D01*
X113894698Y-77403898D01*
X113641825Y-77508641D01*
X113414246Y-77660705D01*
X113220705Y-77854246D01*
X113068641Y-78081825D01*
X112963898Y-78334698D01*
X112910500Y-78603146D01*
X112910500Y-78876854D01*
X112949848Y-79074669D01*
X109591349Y-79074669D01*
X109550330Y-79070629D01*
X109509312Y-79074669D01*
X109298594Y-79074669D01*
X109331664Y-78941100D01*
X109344349Y-78667686D01*
X109303449Y-78397052D01*
X109210537Y-78139596D01*
X109149534Y-78025468D01*
X108910208Y-77959397D01*
X108129605Y-78740000D01*
X108143748Y-78754143D01*
X107964143Y-78933748D01*
X107950000Y-78919605D01*
X107935858Y-78933748D01*
X107756253Y-78754143D01*
X107770395Y-78740000D01*
X107756253Y-78725858D01*
X107935858Y-78546253D01*
X107950000Y-78560395D01*
X108730603Y-77779792D01*
X108664532Y-77540466D01*
X108416785Y-77424117D01*
X108151100Y-77358336D01*
X107877686Y-77345651D01*
X107607052Y-77386551D01*
X107349596Y-77479463D01*
X107235468Y-77540466D01*
X107206159Y-77646629D01*
X107092606Y-77533076D01*
X107338175Y-77431359D01*
X107565754Y-77279295D01*
X107759295Y-77085754D01*
X107911359Y-76858175D01*
X107950000Y-76764887D01*
X107988641Y-76858175D01*
X108140705Y-77085754D01*
X108334246Y-77279295D01*
X108561825Y-77431359D01*
X108814698Y-77536102D01*
X109083146Y-77589500D01*
X109296238Y-77589500D01*
X109264500Y-77749061D01*
X109264500Y-77952939D01*
X109304274Y-78152898D01*
X109382295Y-78341256D01*
X109495563Y-78510774D01*
X109639726Y-78654937D01*
X109809244Y-78768205D01*
X109997602Y-78846226D01*
X110197561Y-78886000D01*
X110401439Y-78886000D01*
X110601398Y-78846226D01*
X110789756Y-78768205D01*
X110959274Y-78654937D01*
X111003211Y-78611000D01*
X111087678Y-78611000D01*
X111125000Y-78614676D01*
X111162322Y-78611000D01*
X111162333Y-78611000D01*
X111273986Y-78600003D01*
X111417247Y-78556546D01*
X111549276Y-78485974D01*
X111665001Y-78391001D01*
X111688804Y-78361997D01*
X114228384Y-75822418D01*
X114180500Y-76063146D01*
X114180500Y-76336854D01*
X114233898Y-76605302D01*
X114338641Y-76858175D01*
X114490705Y-77085754D01*
X114684246Y-77279295D01*
X114911825Y-77431359D01*
X115164698Y-77536102D01*
X115433146Y-77589500D01*
X115706854Y-77589500D01*
X115975302Y-77536102D01*
X116228175Y-77431359D01*
X116455754Y-77279295D01*
X116649295Y-77085754D01*
X116801359Y-76858175D01*
X116840000Y-76764887D01*
X116878641Y-76858175D01*
X117030705Y-77085754D01*
X117224246Y-77279295D01*
X117451825Y-77431359D01*
X117704698Y-77536102D01*
X117973146Y-77589500D01*
X118246854Y-77589500D01*
X118515302Y-77536102D01*
X118768175Y-77431359D01*
X118995754Y-77279295D01*
X119189295Y-77085754D01*
X119341359Y-76858175D01*
X119380000Y-76764887D01*
X119418641Y-76858175D01*
X119570705Y-77085754D01*
X119764246Y-77279295D01*
X119991825Y-77431359D01*
X120244698Y-77536102D01*
X120513146Y-77589500D01*
X120786854Y-77589500D01*
X121055302Y-77536102D01*
X121308175Y-77431359D01*
X121535754Y-77279295D01*
X121729295Y-77085754D01*
X121881359Y-76858175D01*
X121920000Y-76764887D01*
X121958641Y-76858175D01*
X122110705Y-77085754D01*
X122304246Y-77279295D01*
X122531825Y-77431359D01*
X122784698Y-77536102D01*
X123053146Y-77589500D01*
X123326854Y-77589500D01*
X123595302Y-77536102D01*
X123848175Y-77431359D01*
X124075754Y-77279295D01*
X124269295Y-77085754D01*
X124353321Y-76960000D01*
X125940182Y-76960000D01*
X125977504Y-76963676D01*
X126014826Y-76960000D01*
X126014837Y-76960000D01*
X126126490Y-76949003D01*
X126269751Y-76905546D01*
X126401780Y-76834974D01*
X126517505Y-76740001D01*
X126541308Y-76710997D01*
X129528113Y-73724193D01*
X129538305Y-73748799D01*
G36*
X140850500Y-78603146D02*
G01*
X140850500Y-78876854D01*
X140903898Y-79145302D01*
X141008641Y-79398175D01*
X141083034Y-79509512D01*
X137729247Y-79509512D01*
X138818261Y-78420499D01*
X140886831Y-78420499D01*
X140850500Y-78603146D01*
X140850500Y-78603146D01*
G37*
X140850500Y-78603146D02*
X140850500Y-78876854D01*
X140903898Y-79145302D01*
X141008641Y-79398175D01*
X141083034Y-79509512D01*
X137729247Y-79509512D01*
X138818261Y-78420499D01*
X140886831Y-78420499D01*
X140850500Y-78603146D01*
G36*
X179839511Y-75043034D02*
G01*
X179728175Y-74968641D01*
X179475302Y-74863898D01*
X179206854Y-74810500D01*
X178933146Y-74810500D01*
X178664698Y-74863898D01*
X178411825Y-74968641D01*
X178184246Y-75120705D01*
X177990705Y-75314246D01*
X177838641Y-75541825D01*
X177800000Y-75635113D01*
X177761359Y-75541825D01*
X177609295Y-75314246D01*
X177415754Y-75120705D01*
X177188175Y-74968641D01*
X176935302Y-74863898D01*
X176666854Y-74810500D01*
X176393146Y-74810500D01*
X176124698Y-74863898D01*
X175871825Y-74968641D01*
X175644246Y-75120705D01*
X175450705Y-75314246D01*
X175298641Y-75541825D01*
X175260000Y-75635113D01*
X175221359Y-75541825D01*
X175069295Y-75314246D01*
X174875754Y-75120705D01*
X174648175Y-74968641D01*
X174395302Y-74863898D01*
X174126854Y-74810500D01*
X173853146Y-74810500D01*
X173584698Y-74863898D01*
X173331825Y-74968641D01*
X173104246Y-75120705D01*
X172910705Y-75314246D01*
X172758641Y-75541825D01*
X172720000Y-75635113D01*
X172681359Y-75541825D01*
X172529295Y-75314246D01*
X172335754Y-75120705D01*
X172108175Y-74968641D01*
X171855302Y-74863898D01*
X171586854Y-74810500D01*
X171313146Y-74810500D01*
X171044698Y-74863898D01*
X170791825Y-74968641D01*
X170564246Y-75120705D01*
X170370705Y-75314246D01*
X170218641Y-75541825D01*
X170113898Y-75794698D01*
X170060500Y-76063146D01*
X170060500Y-76336854D01*
X170113898Y-76605302D01*
X170218641Y-76858175D01*
X170370705Y-77085754D01*
X170564246Y-77279295D01*
X170791825Y-77431359D01*
X171044698Y-77536102D01*
X171313146Y-77589500D01*
X171586854Y-77589500D01*
X171855302Y-77536102D01*
X172108175Y-77431359D01*
X172335754Y-77279295D01*
X172529295Y-77085754D01*
X172681359Y-76858175D01*
X172720000Y-76764887D01*
X172758641Y-76858175D01*
X172910705Y-77085754D01*
X173104246Y-77279295D01*
X173331825Y-77431359D01*
X173584698Y-77536102D01*
X173608256Y-77540788D01*
X173545525Y-77617225D01*
X173544250Y-77619609D01*
X173378175Y-77508641D01*
X173125302Y-77403898D01*
X172856854Y-77350500D01*
X172583146Y-77350500D01*
X172314698Y-77403898D01*
X172061825Y-77508641D01*
X171834246Y-77660705D01*
X171640705Y-77854246D01*
X171488641Y-78081825D01*
X171450000Y-78175113D01*
X171411359Y-78081825D01*
X171259295Y-77854246D01*
X171065754Y-77660705D01*
X170838175Y-77508641D01*
X170585302Y-77403898D01*
X170316854Y-77350500D01*
X170043146Y-77350500D01*
X169774698Y-77403898D01*
X169521825Y-77508641D01*
X169294246Y-77660705D01*
X169100705Y-77854246D01*
X168948641Y-78081825D01*
X168843898Y-78334698D01*
X168790500Y-78603146D01*
X168790500Y-78876854D01*
X168843898Y-79145302D01*
X168948641Y-79398175D01*
X169023034Y-79509512D01*
X165917791Y-79509512D01*
X171261304Y-74166000D01*
X174905178Y-74166000D01*
X174942500Y-74169676D01*
X174979822Y-74166000D01*
X174979833Y-74166000D01*
X175091486Y-74155003D01*
X175234747Y-74111546D01*
X175366776Y-74040974D01*
X175482501Y-73946001D01*
X175506304Y-73916997D01*
X177726801Y-71696501D01*
X179293679Y-71696501D01*
X179331001Y-71700177D01*
X179368323Y-71696501D01*
X179368334Y-71696501D01*
X179479987Y-71685504D01*
X179623248Y-71642047D01*
X179755277Y-71571475D01*
X179839512Y-71502345D01*
X179839511Y-75043034D01*
X179839511Y-75043034D01*
G37*
X179839511Y-75043034D02*
X179728175Y-74968641D01*
X179475302Y-74863898D01*
X179206854Y-74810500D01*
X178933146Y-74810500D01*
X178664698Y-74863898D01*
X178411825Y-74968641D01*
X178184246Y-75120705D01*
X177990705Y-75314246D01*
X177838641Y-75541825D01*
X177800000Y-75635113D01*
X177761359Y-75541825D01*
X177609295Y-75314246D01*
X177415754Y-75120705D01*
X177188175Y-74968641D01*
X176935302Y-74863898D01*
X176666854Y-74810500D01*
X176393146Y-74810500D01*
X176124698Y-74863898D01*
X175871825Y-74968641D01*
X175644246Y-75120705D01*
X175450705Y-75314246D01*
X175298641Y-75541825D01*
X175260000Y-75635113D01*
X175221359Y-75541825D01*
X175069295Y-75314246D01*
X174875754Y-75120705D01*
X174648175Y-74968641D01*
X174395302Y-74863898D01*
X174126854Y-74810500D01*
X173853146Y-74810500D01*
X173584698Y-74863898D01*
X173331825Y-74968641D01*
X173104246Y-75120705D01*
X172910705Y-75314246D01*
X172758641Y-75541825D01*
X172720000Y-75635113D01*
X172681359Y-75541825D01*
X172529295Y-75314246D01*
X172335754Y-75120705D01*
X172108175Y-74968641D01*
X171855302Y-74863898D01*
X171586854Y-74810500D01*
X171313146Y-74810500D01*
X171044698Y-74863898D01*
X170791825Y-74968641D01*
X170564246Y-75120705D01*
X170370705Y-75314246D01*
X170218641Y-75541825D01*
X170113898Y-75794698D01*
X170060500Y-76063146D01*
X170060500Y-76336854D01*
X170113898Y-76605302D01*
X170218641Y-76858175D01*
X170370705Y-77085754D01*
X170564246Y-77279295D01*
X170791825Y-77431359D01*
X171044698Y-77536102D01*
X171313146Y-77589500D01*
X171586854Y-77589500D01*
X171855302Y-77536102D01*
X172108175Y-77431359D01*
X172335754Y-77279295D01*
X172529295Y-77085754D01*
X172681359Y-76858175D01*
X172720000Y-76764887D01*
X172758641Y-76858175D01*
X172910705Y-77085754D01*
X173104246Y-77279295D01*
X173331825Y-77431359D01*
X173584698Y-77536102D01*
X173608256Y-77540788D01*
X173545525Y-77617225D01*
X173544250Y-77619609D01*
X173378175Y-77508641D01*
X173125302Y-77403898D01*
X172856854Y-77350500D01*
X172583146Y-77350500D01*
X172314698Y-77403898D01*
X172061825Y-77508641D01*
X171834246Y-77660705D01*
X171640705Y-77854246D01*
X171488641Y-78081825D01*
X171450000Y-78175113D01*
X171411359Y-78081825D01*
X171259295Y-77854246D01*
X171065754Y-77660705D01*
X170838175Y-77508641D01*
X170585302Y-77403898D01*
X170316854Y-77350500D01*
X170043146Y-77350500D01*
X169774698Y-77403898D01*
X169521825Y-77508641D01*
X169294246Y-77660705D01*
X169100705Y-77854246D01*
X168948641Y-78081825D01*
X168843898Y-78334698D01*
X168790500Y-78603146D01*
X168790500Y-78876854D01*
X168843898Y-79145302D01*
X168948641Y-79398175D01*
X169023034Y-79509512D01*
X165917791Y-79509512D01*
X171261304Y-74166000D01*
X174905178Y-74166000D01*
X174942500Y-74169676D01*
X174979822Y-74166000D01*
X174979833Y-74166000D01*
X175091486Y-74155003D01*
X175234747Y-74111546D01*
X175366776Y-74040974D01*
X175482501Y-73946001D01*
X175506304Y-73916997D01*
X177726801Y-71696501D01*
X179293679Y-71696501D01*
X179331001Y-71700177D01*
X179368323Y-71696501D01*
X179368334Y-71696501D01*
X179479987Y-71685504D01*
X179623248Y-71642047D01*
X179755277Y-71571475D01*
X179839512Y-71502345D01*
X179839511Y-75043034D01*
G36*
X151963196Y-78488997D02*
G01*
X151986999Y-78518001D01*
X152102724Y-78612974D01*
X152234753Y-78683546D01*
X152378014Y-78727003D01*
X152489667Y-78738000D01*
X152489676Y-78738000D01*
X152526999Y-78741676D01*
X152564322Y-78738000D01*
X154820500Y-78738000D01*
X154820500Y-78876854D01*
X154873898Y-79145302D01*
X154954545Y-79340001D01*
X151113321Y-79340001D01*
X151175883Y-79206785D01*
X151241664Y-78941100D01*
X151254349Y-78667686D01*
X151216992Y-78420499D01*
X151894698Y-78420499D01*
X151963196Y-78488997D01*
X151963196Y-78488997D01*
G37*
X151963196Y-78488997D02*
X151986999Y-78518001D01*
X152102724Y-78612974D01*
X152234753Y-78683546D01*
X152378014Y-78727003D01*
X152489667Y-78738000D01*
X152489676Y-78738000D01*
X152526999Y-78741676D01*
X152564322Y-78738000D01*
X154820500Y-78738000D01*
X154820500Y-78876854D01*
X154873898Y-79145302D01*
X154954545Y-79340001D01*
X151113321Y-79340001D01*
X151175883Y-79206785D01*
X151241664Y-78941100D01*
X151254349Y-78667686D01*
X151216992Y-78420499D01*
X151894698Y-78420499D01*
X151963196Y-78488997D01*
G36*
X135928641Y-76858175D02*
G01*
X136080705Y-77085754D01*
X136274246Y-77279295D01*
X136501825Y-77431359D01*
X136754698Y-77536102D01*
X137023146Y-77589500D01*
X137296854Y-77589500D01*
X137550013Y-77539143D01*
X137069280Y-78019876D01*
X136850208Y-77959397D01*
X136069605Y-78740000D01*
X136083748Y-78754143D01*
X135904143Y-78933748D01*
X135890000Y-78919605D01*
X135875858Y-78933748D01*
X135696253Y-78754143D01*
X135710395Y-78740000D01*
X134929792Y-77959397D01*
X134690466Y-78025468D01*
X134620088Y-78175326D01*
X134581359Y-78081825D01*
X134429295Y-77854246D01*
X134354841Y-77779792D01*
X135109397Y-77779792D01*
X135890000Y-78560395D01*
X136670603Y-77779792D01*
X136604532Y-77540466D01*
X136356785Y-77424117D01*
X136091100Y-77358336D01*
X135817686Y-77345651D01*
X135547052Y-77386551D01*
X135289596Y-77479463D01*
X135175468Y-77540466D01*
X135109397Y-77779792D01*
X134354841Y-77779792D01*
X134235754Y-77660705D01*
X134110000Y-77576679D01*
X134110000Y-77492735D01*
X134214698Y-77536102D01*
X134483146Y-77589500D01*
X134756854Y-77589500D01*
X135025302Y-77536102D01*
X135278175Y-77431359D01*
X135505754Y-77279295D01*
X135699295Y-77085754D01*
X135851359Y-76858175D01*
X135890000Y-76764887D01*
X135928641Y-76858175D01*
X135928641Y-76858175D01*
G37*
X135928641Y-76858175D02*
X136080705Y-77085754D01*
X136274246Y-77279295D01*
X136501825Y-77431359D01*
X136754698Y-77536102D01*
X137023146Y-77589500D01*
X137296854Y-77589500D01*
X137550013Y-77539143D01*
X137069280Y-78019876D01*
X136850208Y-77959397D01*
X136069605Y-78740000D01*
X136083748Y-78754143D01*
X135904143Y-78933748D01*
X135890000Y-78919605D01*
X135875858Y-78933748D01*
X135696253Y-78754143D01*
X135710395Y-78740000D01*
X134929792Y-77959397D01*
X134690466Y-78025468D01*
X134620088Y-78175326D01*
X134581359Y-78081825D01*
X134429295Y-77854246D01*
X134354841Y-77779792D01*
X135109397Y-77779792D01*
X135890000Y-78560395D01*
X136670603Y-77779792D01*
X136604532Y-77540466D01*
X136356785Y-77424117D01*
X136091100Y-77358336D01*
X135817686Y-77345651D01*
X135547052Y-77386551D01*
X135289596Y-77479463D01*
X135175468Y-77540466D01*
X135109397Y-77779792D01*
X134354841Y-77779792D01*
X134235754Y-77660705D01*
X134110000Y-77576679D01*
X134110000Y-77492735D01*
X134214698Y-77536102D01*
X134483146Y-77589500D01*
X134756854Y-77589500D01*
X135025302Y-77536102D01*
X135278175Y-77431359D01*
X135505754Y-77279295D01*
X135699295Y-77085754D01*
X135851359Y-76858175D01*
X135890000Y-76764887D01*
X135928641Y-76858175D01*
G36*
X177993748Y-78725858D02*
G01*
X177979605Y-78740000D01*
X177993748Y-78754143D01*
X177814143Y-78933748D01*
X177800000Y-78919605D01*
X177785858Y-78933748D01*
X177606253Y-78754143D01*
X177620395Y-78740000D01*
X177606253Y-78725858D01*
X177785858Y-78546253D01*
X177800000Y-78560395D01*
X177814143Y-78546253D01*
X177993748Y-78725858D01*
X177993748Y-78725858D01*
G37*
X177993748Y-78725858D02*
X177979605Y-78740000D01*
X177993748Y-78754143D01*
X177814143Y-78933748D01*
X177800000Y-78919605D01*
X177785858Y-78933748D01*
X177606253Y-78754143D01*
X177620395Y-78740000D01*
X177606253Y-78725858D01*
X177785858Y-78546253D01*
X177800000Y-78560395D01*
X177814143Y-78546253D01*
X177993748Y-78725858D01*
G36*
X150053748Y-78725858D02*
G01*
X150039605Y-78740000D01*
X150053748Y-78754143D01*
X149874143Y-78933748D01*
X149860000Y-78919605D01*
X149845858Y-78933748D01*
X149666253Y-78754143D01*
X149680395Y-78740000D01*
X149666253Y-78725858D01*
X149845858Y-78546253D01*
X149860000Y-78560395D01*
X149874143Y-78546253D01*
X150053748Y-78725858D01*
X150053748Y-78725858D01*
G37*
X150053748Y-78725858D02*
X150039605Y-78740000D01*
X150053748Y-78754143D01*
X149874143Y-78933748D01*
X149860000Y-78919605D01*
X149845858Y-78933748D01*
X149666253Y-78754143D01*
X149680395Y-78740000D01*
X149666253Y-78725858D01*
X149845858Y-78546253D01*
X149860000Y-78560395D01*
X149874143Y-78546253D01*
X150053748Y-78725858D01*
G36*
X166639314Y-75993392D02*
G01*
X166969397Y-76157999D01*
X167087494Y-76190207D01*
X165103151Y-78174550D01*
X165090537Y-78139596D01*
X165029534Y-78025468D01*
X164790208Y-77959397D01*
X164009605Y-78740000D01*
X164023748Y-78754143D01*
X163844143Y-78933748D01*
X163830000Y-78919605D01*
X163815858Y-78933748D01*
X163636253Y-78754143D01*
X163650395Y-78740000D01*
X162869792Y-77959397D01*
X162630466Y-78025468D01*
X162560088Y-78175326D01*
X162521359Y-78081825D01*
X162369295Y-77854246D01*
X162294841Y-77779792D01*
X163049397Y-77779792D01*
X163830000Y-78560395D01*
X164610603Y-77779792D01*
X164544532Y-77540466D01*
X164296785Y-77424117D01*
X164031100Y-77358336D01*
X163757686Y-77345651D01*
X163487052Y-77386551D01*
X163229596Y-77479463D01*
X163115468Y-77540466D01*
X163049397Y-77779792D01*
X162294841Y-77779792D01*
X162175754Y-77660705D01*
X161948175Y-77508641D01*
X161695302Y-77403898D01*
X161504737Y-77365992D01*
X161610504Y-77260225D01*
X161635040Y-77240089D01*
X161674246Y-77279295D01*
X161901825Y-77431359D01*
X162154698Y-77536102D01*
X162423146Y-77589500D01*
X162696854Y-77589500D01*
X162965302Y-77536102D01*
X163218175Y-77431359D01*
X163445754Y-77279295D01*
X163639295Y-77085754D01*
X163791359Y-76858175D01*
X163830000Y-76764887D01*
X163868641Y-76858175D01*
X164020705Y-77085754D01*
X164214246Y-77279295D01*
X164441825Y-77431359D01*
X164694698Y-77536102D01*
X164963146Y-77589500D01*
X165236854Y-77589500D01*
X165505302Y-77536102D01*
X165758175Y-77431359D01*
X165985754Y-77279295D01*
X166179295Y-77085754D01*
X166331359Y-76858175D01*
X166436102Y-76605302D01*
X166489500Y-76336854D01*
X166489500Y-76063146D01*
X166436102Y-75794698D01*
X166432824Y-75786784D01*
X166514907Y-75704701D01*
X166639314Y-75993392D01*
X166639314Y-75993392D01*
G37*
X166639314Y-75993392D02*
X166969397Y-76157999D01*
X167087494Y-76190207D01*
X165103151Y-78174550D01*
X165090537Y-78139596D01*
X165029534Y-78025468D01*
X164790208Y-77959397D01*
X164009605Y-78740000D01*
X164023748Y-78754143D01*
X163844143Y-78933748D01*
X163830000Y-78919605D01*
X163815858Y-78933748D01*
X163636253Y-78754143D01*
X163650395Y-78740000D01*
X162869792Y-77959397D01*
X162630466Y-78025468D01*
X162560088Y-78175326D01*
X162521359Y-78081825D01*
X162369295Y-77854246D01*
X162294841Y-77779792D01*
X163049397Y-77779792D01*
X163830000Y-78560395D01*
X164610603Y-77779792D01*
X164544532Y-77540466D01*
X164296785Y-77424117D01*
X164031100Y-77358336D01*
X163757686Y-77345651D01*
X163487052Y-77386551D01*
X163229596Y-77479463D01*
X163115468Y-77540466D01*
X163049397Y-77779792D01*
X162294841Y-77779792D01*
X162175754Y-77660705D01*
X161948175Y-77508641D01*
X161695302Y-77403898D01*
X161504737Y-77365992D01*
X161610504Y-77260225D01*
X161635040Y-77240089D01*
X161674246Y-77279295D01*
X161901825Y-77431359D01*
X162154698Y-77536102D01*
X162423146Y-77589500D01*
X162696854Y-77589500D01*
X162965302Y-77536102D01*
X163218175Y-77431359D01*
X163445754Y-77279295D01*
X163639295Y-77085754D01*
X163791359Y-76858175D01*
X163830000Y-76764887D01*
X163868641Y-76858175D01*
X164020705Y-77085754D01*
X164214246Y-77279295D01*
X164441825Y-77431359D01*
X164694698Y-77536102D01*
X164963146Y-77589500D01*
X165236854Y-77589500D01*
X165505302Y-77536102D01*
X165758175Y-77431359D01*
X165985754Y-77279295D01*
X166179295Y-77085754D01*
X166331359Y-76858175D01*
X166436102Y-76605302D01*
X166489500Y-76336854D01*
X166489500Y-76063146D01*
X166436102Y-75794698D01*
X166432824Y-75786784D01*
X166514907Y-75704701D01*
X166639314Y-75993392D01*
G36*
X156090500Y-76063146D02*
G01*
X156090500Y-76336854D01*
X156143898Y-76605302D01*
X156248641Y-76858175D01*
X156276921Y-76900499D01*
X155729161Y-76900499D01*
X155691838Y-76896823D01*
X155654515Y-76900499D01*
X155654506Y-76900499D01*
X155542853Y-76911496D01*
X155399592Y-76954953D01*
X155267563Y-77025525D01*
X155151838Y-77120498D01*
X155128035Y-77149502D01*
X155059537Y-77218000D01*
X152841801Y-77218000D01*
X152773303Y-77149502D01*
X152749500Y-77120498D01*
X152633775Y-77025525D01*
X152501746Y-76954953D01*
X152358485Y-76911496D01*
X152327753Y-76908469D01*
X152361359Y-76858175D01*
X152466102Y-76605302D01*
X152519500Y-76336854D01*
X152519500Y-76063146D01*
X152489994Y-75914808D01*
X152524303Y-75880499D01*
X156126831Y-75880499D01*
X156090500Y-76063146D01*
X156090500Y-76063146D01*
G37*
X156090500Y-76063146D02*
X156090500Y-76336854D01*
X156143898Y-76605302D01*
X156248641Y-76858175D01*
X156276921Y-76900499D01*
X155729161Y-76900499D01*
X155691838Y-76896823D01*
X155654515Y-76900499D01*
X155654506Y-76900499D01*
X155542853Y-76911496D01*
X155399592Y-76954953D01*
X155267563Y-77025525D01*
X155151838Y-77120498D01*
X155128035Y-77149502D01*
X155059537Y-77218000D01*
X152841801Y-77218000D01*
X152773303Y-77149502D01*
X152749500Y-77120498D01*
X152633775Y-77025525D01*
X152501746Y-76954953D01*
X152358485Y-76911496D01*
X152327753Y-76908469D01*
X152361359Y-76858175D01*
X152466102Y-76605302D01*
X152519500Y-76336854D01*
X152519500Y-76063146D01*
X152489994Y-75914808D01*
X152524303Y-75880499D01*
X156126831Y-75880499D01*
X156090500Y-76063146D01*
G36*
X151165481Y-74520515D02*
G01*
X151189279Y-74549513D01*
X151262370Y-74609497D01*
X151305004Y-74644486D01*
X151437033Y-74715058D01*
X151516143Y-74739055D01*
X151415192Y-74840006D01*
X151266854Y-74810500D01*
X150993146Y-74810500D01*
X150724698Y-74863898D01*
X150471825Y-74968641D01*
X150244246Y-75120705D01*
X150050705Y-75314246D01*
X149898641Y-75541825D01*
X149860000Y-75635113D01*
X149821359Y-75541825D01*
X149669295Y-75314246D01*
X149475754Y-75120705D01*
X149248175Y-74968641D01*
X148995302Y-74863898D01*
X148726854Y-74810500D01*
X148453146Y-74810500D01*
X148184698Y-74863898D01*
X147931825Y-74968641D01*
X147704246Y-75120705D01*
X147510705Y-75314246D01*
X147358641Y-75541825D01*
X147320000Y-75635113D01*
X147281359Y-75541825D01*
X147129295Y-75314246D01*
X146935754Y-75120705D01*
X146708175Y-74968641D01*
X146455302Y-74863898D01*
X146186854Y-74810500D01*
X145913146Y-74810500D01*
X145644698Y-74863898D01*
X145391825Y-74968641D01*
X145164246Y-75120705D01*
X144970705Y-75314246D01*
X144818641Y-75541825D01*
X144780000Y-75635113D01*
X144741359Y-75541825D01*
X144589295Y-75314246D01*
X144395754Y-75120705D01*
X144168175Y-74968641D01*
X143915302Y-74863898D01*
X143646854Y-74810500D01*
X143373146Y-74810500D01*
X143104698Y-74863898D01*
X142851825Y-74968641D01*
X142624246Y-75120705D01*
X142430705Y-75314246D01*
X142278641Y-75541825D01*
X142173898Y-75794698D01*
X142120500Y-76063146D01*
X142120500Y-76336854D01*
X142173898Y-76605302D01*
X142278641Y-76858175D01*
X142306921Y-76900499D01*
X138540781Y-76900499D01*
X138503458Y-76896823D01*
X138466136Y-76900499D01*
X138466126Y-76900499D01*
X138355820Y-76911363D01*
X138391359Y-76858175D01*
X138496102Y-76605302D01*
X138549500Y-76336854D01*
X138549500Y-76063146D01*
X138496102Y-75794698D01*
X138492824Y-75786784D01*
X138574907Y-75704701D01*
X138699314Y-75993392D01*
X139029397Y-76157999D01*
X139385251Y-76255048D01*
X139753201Y-76280808D01*
X140119106Y-76234290D01*
X140468906Y-76117282D01*
X140700686Y-75993392D01*
X140825094Y-75704699D01*
X139700000Y-74579605D01*
X139685858Y-74593748D01*
X139506253Y-74414143D01*
X139520395Y-74400000D01*
X139506253Y-74385858D01*
X139685858Y-74206253D01*
X139700000Y-74220395D01*
X139714143Y-74206253D01*
X139893748Y-74385858D01*
X139879605Y-74400000D01*
X141004699Y-75525094D01*
X141293392Y-75400686D01*
X141457999Y-75070603D01*
X141555048Y-74714749D01*
X141580808Y-74346799D01*
X141534290Y-73980894D01*
X141417282Y-73631094D01*
X141293392Y-73399314D01*
X141047924Y-73293533D01*
X149938500Y-73293533D01*
X151165481Y-74520515D01*
X151165481Y-74520515D01*
G37*
X151165481Y-74520515D02*
X151189279Y-74549513D01*
X151262370Y-74609497D01*
X151305004Y-74644486D01*
X151437033Y-74715058D01*
X151516143Y-74739055D01*
X151415192Y-74840006D01*
X151266854Y-74810500D01*
X150993146Y-74810500D01*
X150724698Y-74863898D01*
X150471825Y-74968641D01*
X150244246Y-75120705D01*
X150050705Y-75314246D01*
X149898641Y-75541825D01*
X149860000Y-75635113D01*
X149821359Y-75541825D01*
X149669295Y-75314246D01*
X149475754Y-75120705D01*
X149248175Y-74968641D01*
X148995302Y-74863898D01*
X148726854Y-74810500D01*
X148453146Y-74810500D01*
X148184698Y-74863898D01*
X147931825Y-74968641D01*
X147704246Y-75120705D01*
X147510705Y-75314246D01*
X147358641Y-75541825D01*
X147320000Y-75635113D01*
X147281359Y-75541825D01*
X147129295Y-75314246D01*
X146935754Y-75120705D01*
X146708175Y-74968641D01*
X146455302Y-74863898D01*
X146186854Y-74810500D01*
X145913146Y-74810500D01*
X145644698Y-74863898D01*
X145391825Y-74968641D01*
X145164246Y-75120705D01*
X144970705Y-75314246D01*
X144818641Y-75541825D01*
X144780000Y-75635113D01*
X144741359Y-75541825D01*
X144589295Y-75314246D01*
X144395754Y-75120705D01*
X144168175Y-74968641D01*
X143915302Y-74863898D01*
X143646854Y-74810500D01*
X143373146Y-74810500D01*
X143104698Y-74863898D01*
X142851825Y-74968641D01*
X142624246Y-75120705D01*
X142430705Y-75314246D01*
X142278641Y-75541825D01*
X142173898Y-75794698D01*
X142120500Y-76063146D01*
X142120500Y-76336854D01*
X142173898Y-76605302D01*
X142278641Y-76858175D01*
X142306921Y-76900499D01*
X138540781Y-76900499D01*
X138503458Y-76896823D01*
X138466136Y-76900499D01*
X138466126Y-76900499D01*
X138355820Y-76911363D01*
X138391359Y-76858175D01*
X138496102Y-76605302D01*
X138549500Y-76336854D01*
X138549500Y-76063146D01*
X138496102Y-75794698D01*
X138492824Y-75786784D01*
X138574907Y-75704701D01*
X138699314Y-75993392D01*
X139029397Y-76157999D01*
X139385251Y-76255048D01*
X139753201Y-76280808D01*
X140119106Y-76234290D01*
X140468906Y-76117282D01*
X140700686Y-75993392D01*
X140825094Y-75704699D01*
X139700000Y-74579605D01*
X139685858Y-74593748D01*
X139506253Y-74414143D01*
X139520395Y-74400000D01*
X139506253Y-74385858D01*
X139685858Y-74206253D01*
X139700000Y-74220395D01*
X139714143Y-74206253D01*
X139893748Y-74385858D01*
X139879605Y-74400000D01*
X141004699Y-75525094D01*
X141293392Y-75400686D01*
X141457999Y-75070603D01*
X141555048Y-74714749D01*
X141580808Y-74346799D01*
X141534290Y-73980894D01*
X141417282Y-73631094D01*
X141293392Y-73399314D01*
X141047924Y-73293533D01*
X149938500Y-73293533D01*
X151165481Y-74520515D01*
G36*
X113631062Y-74270136D02*
G01*
X113594290Y-73980894D01*
X113477282Y-73631094D01*
X113353392Y-73399314D01*
X113064699Y-73274906D01*
X111939605Y-74400000D01*
X111953748Y-74414143D01*
X111774143Y-74593748D01*
X111760000Y-74579605D01*
X111745858Y-74593748D01*
X111566253Y-74414143D01*
X111580395Y-74400000D01*
X110455301Y-73274906D01*
X110166608Y-73399314D01*
X110002001Y-73729397D01*
X109904952Y-74085251D01*
X109879192Y-74453201D01*
X109925710Y-74819106D01*
X110003810Y-75052588D01*
X109878175Y-74968641D01*
X109625302Y-74863898D01*
X109356854Y-74810500D01*
X109083146Y-74810500D01*
X108814698Y-74863898D01*
X108561825Y-74968641D01*
X108334246Y-75120705D01*
X108140705Y-75314246D01*
X107988641Y-75541825D01*
X107950000Y-75635113D01*
X107911359Y-75541825D01*
X107759295Y-75314246D01*
X107565754Y-75120705D01*
X107365384Y-74986822D01*
X109256905Y-73095301D01*
X110634906Y-73095301D01*
X111760000Y-74220395D01*
X112885094Y-73095301D01*
X112760686Y-72806608D01*
X112430603Y-72642001D01*
X112074749Y-72544952D01*
X111706799Y-72519192D01*
X111340894Y-72565710D01*
X110991094Y-72682718D01*
X110759314Y-72806608D01*
X110634906Y-73095301D01*
X109256905Y-73095301D01*
X111032207Y-71320000D01*
X116581197Y-71320000D01*
X113631062Y-74270136D01*
X113631062Y-74270136D01*
G37*
X113631062Y-74270136D02*
X113594290Y-73980894D01*
X113477282Y-73631094D01*
X113353392Y-73399314D01*
X113064699Y-73274906D01*
X111939605Y-74400000D01*
X111953748Y-74414143D01*
X111774143Y-74593748D01*
X111760000Y-74579605D01*
X111745858Y-74593748D01*
X111566253Y-74414143D01*
X111580395Y-74400000D01*
X110455301Y-73274906D01*
X110166608Y-73399314D01*
X110002001Y-73729397D01*
X109904952Y-74085251D01*
X109879192Y-74453201D01*
X109925710Y-74819106D01*
X110003810Y-75052588D01*
X109878175Y-74968641D01*
X109625302Y-74863898D01*
X109356854Y-74810500D01*
X109083146Y-74810500D01*
X108814698Y-74863898D01*
X108561825Y-74968641D01*
X108334246Y-75120705D01*
X108140705Y-75314246D01*
X107988641Y-75541825D01*
X107950000Y-75635113D01*
X107911359Y-75541825D01*
X107759295Y-75314246D01*
X107565754Y-75120705D01*
X107365384Y-74986822D01*
X109256905Y-73095301D01*
X110634906Y-73095301D01*
X111760000Y-74220395D01*
X112885094Y-73095301D01*
X112760686Y-72806608D01*
X112430603Y-72642001D01*
X112074749Y-72544952D01*
X111706799Y-72519192D01*
X111340894Y-72565710D01*
X110991094Y-72682718D01*
X110759314Y-72806608D01*
X110634906Y-73095301D01*
X109256905Y-73095301D01*
X111032207Y-71320000D01*
X116581197Y-71320000D01*
X113631062Y-74270136D01*
G36*
X120634586Y-72709500D02*
G01*
X120210711Y-72709500D01*
X120166774Y-72665563D01*
X119997256Y-72552295D01*
X119808898Y-72474274D01*
X119608939Y-72434500D01*
X119405061Y-72434500D01*
X119205102Y-72474274D01*
X119016744Y-72552295D01*
X118847226Y-72665563D01*
X118703063Y-72809726D01*
X118589795Y-72979244D01*
X118511774Y-73167602D01*
X118472000Y-73367561D01*
X118472000Y-73571439D01*
X118511774Y-73771398D01*
X118589795Y-73959756D01*
X118703063Y-74129274D01*
X118847226Y-74273437D01*
X119016744Y-74386705D01*
X119205102Y-74464726D01*
X119405061Y-74504500D01*
X119608939Y-74504500D01*
X119808898Y-74464726D01*
X119997256Y-74386705D01*
X120166774Y-74273437D01*
X120210711Y-74229500D01*
X120912065Y-74229500D01*
X120949387Y-74233176D01*
X120986709Y-74229500D01*
X120986720Y-74229500D01*
X121098373Y-74218503D01*
X121241634Y-74175046D01*
X121373663Y-74104474D01*
X121489388Y-74009501D01*
X121513191Y-73980497D01*
X123550189Y-71943500D01*
X127832198Y-71943500D01*
X127152025Y-72623673D01*
X127017744Y-72679295D01*
X126848226Y-72792563D01*
X126704063Y-72936726D01*
X126590795Y-73106244D01*
X126512774Y-73294602D01*
X126473000Y-73494561D01*
X126473000Y-73698439D01*
X126512774Y-73898398D01*
X126590795Y-74086756D01*
X126704063Y-74256274D01*
X126775246Y-74327457D01*
X125662703Y-75440000D01*
X124353321Y-75440000D01*
X124269295Y-75314246D01*
X124075754Y-75120705D01*
X123848175Y-74968641D01*
X123595302Y-74863898D01*
X123326854Y-74810500D01*
X123053146Y-74810500D01*
X122784698Y-74863898D01*
X122531825Y-74968641D01*
X122304246Y-75120705D01*
X122110705Y-75314246D01*
X121958641Y-75541825D01*
X121920000Y-75635113D01*
X121881359Y-75541825D01*
X121729295Y-75314246D01*
X121535754Y-75120705D01*
X121308175Y-74968641D01*
X121055302Y-74863898D01*
X120786854Y-74810500D01*
X120513146Y-74810500D01*
X120244698Y-74863898D01*
X119991825Y-74968641D01*
X119764246Y-75120705D01*
X119570705Y-75314246D01*
X119418641Y-75541825D01*
X119380000Y-75635113D01*
X119341359Y-75541825D01*
X119189295Y-75314246D01*
X118995754Y-75120705D01*
X118768175Y-74968641D01*
X118515302Y-74863898D01*
X118246854Y-74810500D01*
X117973146Y-74810500D01*
X117704698Y-74863898D01*
X117451825Y-74968641D01*
X117224246Y-75120705D01*
X117030705Y-75314246D01*
X116878641Y-75541825D01*
X116840000Y-75635113D01*
X116801359Y-75541825D01*
X116649295Y-75314246D01*
X116455754Y-75120705D01*
X116228175Y-74968641D01*
X115975302Y-74863898D01*
X115706854Y-74810500D01*
X115433146Y-74810500D01*
X115192418Y-74858384D01*
X118280792Y-71770011D01*
X121574074Y-71770011D01*
X120634586Y-72709500D01*
X120634586Y-72709500D01*
G37*
X120634586Y-72709500D02*
X120210711Y-72709500D01*
X120166774Y-72665563D01*
X119997256Y-72552295D01*
X119808898Y-72474274D01*
X119608939Y-72434500D01*
X119405061Y-72434500D01*
X119205102Y-72474274D01*
X119016744Y-72552295D01*
X118847226Y-72665563D01*
X118703063Y-72809726D01*
X118589795Y-72979244D01*
X118511774Y-73167602D01*
X118472000Y-73367561D01*
X118472000Y-73571439D01*
X118511774Y-73771398D01*
X118589795Y-73959756D01*
X118703063Y-74129274D01*
X118847226Y-74273437D01*
X119016744Y-74386705D01*
X119205102Y-74464726D01*
X119405061Y-74504500D01*
X119608939Y-74504500D01*
X119808898Y-74464726D01*
X119997256Y-74386705D01*
X120166774Y-74273437D01*
X120210711Y-74229500D01*
X120912065Y-74229500D01*
X120949387Y-74233176D01*
X120986709Y-74229500D01*
X120986720Y-74229500D01*
X121098373Y-74218503D01*
X121241634Y-74175046D01*
X121373663Y-74104474D01*
X121489388Y-74009501D01*
X121513191Y-73980497D01*
X123550189Y-71943500D01*
X127832198Y-71943500D01*
X127152025Y-72623673D01*
X127017744Y-72679295D01*
X126848226Y-72792563D01*
X126704063Y-72936726D01*
X126590795Y-73106244D01*
X126512774Y-73294602D01*
X126473000Y-73494561D01*
X126473000Y-73698439D01*
X126512774Y-73898398D01*
X126590795Y-74086756D01*
X126704063Y-74256274D01*
X126775246Y-74327457D01*
X125662703Y-75440000D01*
X124353321Y-75440000D01*
X124269295Y-75314246D01*
X124075754Y-75120705D01*
X123848175Y-74968641D01*
X123595302Y-74863898D01*
X123326854Y-74810500D01*
X123053146Y-74810500D01*
X122784698Y-74863898D01*
X122531825Y-74968641D01*
X122304246Y-75120705D01*
X122110705Y-75314246D01*
X121958641Y-75541825D01*
X121920000Y-75635113D01*
X121881359Y-75541825D01*
X121729295Y-75314246D01*
X121535754Y-75120705D01*
X121308175Y-74968641D01*
X121055302Y-74863898D01*
X120786854Y-74810500D01*
X120513146Y-74810500D01*
X120244698Y-74863898D01*
X119991825Y-74968641D01*
X119764246Y-75120705D01*
X119570705Y-75314246D01*
X119418641Y-75541825D01*
X119380000Y-75635113D01*
X119341359Y-75541825D01*
X119189295Y-75314246D01*
X118995754Y-75120705D01*
X118768175Y-74968641D01*
X118515302Y-74863898D01*
X118246854Y-74810500D01*
X117973146Y-74810500D01*
X117704698Y-74863898D01*
X117451825Y-74968641D01*
X117224246Y-75120705D01*
X117030705Y-75314246D01*
X116878641Y-75541825D01*
X116840000Y-75635113D01*
X116801359Y-75541825D01*
X116649295Y-75314246D01*
X116455754Y-75120705D01*
X116228175Y-74968641D01*
X115975302Y-74863898D01*
X115706854Y-74810500D01*
X115433146Y-74810500D01*
X115192418Y-74858384D01*
X118280792Y-71770011D01*
X121574074Y-71770011D01*
X120634586Y-72709500D01*
G36*
X138106608Y-73399314D02*
G01*
X137942001Y-73729397D01*
X137844952Y-74085251D01*
X137819192Y-74453201D01*
X137865710Y-74819106D01*
X137943810Y-75052588D01*
X137818175Y-74968641D01*
X137565302Y-74863898D01*
X137296854Y-74810500D01*
X137023146Y-74810500D01*
X136754698Y-74863898D01*
X136501825Y-74968641D01*
X136274246Y-75120705D01*
X136080705Y-75314246D01*
X135928641Y-75541825D01*
X135890000Y-75635113D01*
X135851359Y-75541825D01*
X135699295Y-75314246D01*
X135505754Y-75120705D01*
X135278175Y-74968641D01*
X135025302Y-74863898D01*
X134756854Y-74810500D01*
X134483146Y-74810500D01*
X134214698Y-74863898D01*
X133961825Y-74968641D01*
X133869371Y-75030417D01*
X133861003Y-75023549D01*
X132130986Y-73293533D01*
X138352076Y-73293533D01*
X138106608Y-73399314D01*
X138106608Y-73399314D01*
G37*
X138106608Y-73399314D02*
X137942001Y-73729397D01*
X137844952Y-74085251D01*
X137819192Y-74453201D01*
X137865710Y-74819106D01*
X137943810Y-75052588D01*
X137818175Y-74968641D01*
X137565302Y-74863898D01*
X137296854Y-74810500D01*
X137023146Y-74810500D01*
X136754698Y-74863898D01*
X136501825Y-74968641D01*
X136274246Y-75120705D01*
X136080705Y-75314246D01*
X135928641Y-75541825D01*
X135890000Y-75635113D01*
X135851359Y-75541825D01*
X135699295Y-75314246D01*
X135505754Y-75120705D01*
X135278175Y-74968641D01*
X135025302Y-74863898D01*
X134756854Y-74810500D01*
X134483146Y-74810500D01*
X134214698Y-74863898D01*
X133961825Y-74968641D01*
X133869371Y-75030417D01*
X133861003Y-75023549D01*
X132130986Y-73293533D01*
X138352076Y-73293533D01*
X138106608Y-73399314D01*
G36*
X167833748Y-74385858D02*
G01*
X167819605Y-74400000D01*
X167833748Y-74414143D01*
X167654143Y-74593748D01*
X167640000Y-74579605D01*
X167625858Y-74593748D01*
X167446253Y-74414143D01*
X167460395Y-74400000D01*
X167446253Y-74385858D01*
X167625858Y-74206253D01*
X167640000Y-74220395D01*
X167654143Y-74206253D01*
X167833748Y-74385858D01*
X167833748Y-74385858D01*
G37*
X167833748Y-74385858D02*
X167819605Y-74400000D01*
X167833748Y-74414143D01*
X167654143Y-74593748D01*
X167640000Y-74579605D01*
X167625858Y-74593748D01*
X167446253Y-74414143D01*
X167460395Y-74400000D01*
X167446253Y-74385858D01*
X167625858Y-74206253D01*
X167640000Y-74220395D01*
X167654143Y-74206253D01*
X167833748Y-74385858D01*
G36*
X162287000Y-72669061D02*
G01*
X162287000Y-72731198D01*
X160657700Y-74360499D01*
X156031037Y-74360499D01*
X157818546Y-72572991D01*
X162306109Y-72572990D01*
X162287000Y-72669061D01*
X162287000Y-72669061D01*
G37*
X162287000Y-72669061D02*
X162287000Y-72731198D01*
X160657700Y-74360499D01*
X156031037Y-74360499D01*
X157818546Y-72572991D01*
X162306109Y-72572990D01*
X162287000Y-72669061D01*
G36*
X134590251Y-61896422D02*
G01*
X134586574Y-61933754D01*
X134590251Y-61971087D01*
X134601248Y-62082740D01*
X134614430Y-62126196D01*
X134644704Y-62226000D01*
X134715276Y-62358030D01*
X134786451Y-62444756D01*
X134810250Y-62473755D01*
X134839248Y-62497553D01*
X135744198Y-63402504D01*
X135767997Y-63431503D01*
X135883722Y-63526476D01*
X136015751Y-63597048D01*
X136159012Y-63640505D01*
X136270665Y-63651502D01*
X136270674Y-63651502D01*
X136307997Y-63655178D01*
X136345320Y-63651502D01*
X141507201Y-63651502D01*
X146016698Y-68161000D01*
X145916008Y-68161000D01*
X145705191Y-68181764D01*
X145660595Y-68195292D01*
X142994304Y-65529003D01*
X142970501Y-65499999D01*
X142854776Y-65405026D01*
X142722747Y-65334454D01*
X142579486Y-65290997D01*
X142467833Y-65280000D01*
X142467822Y-65280000D01*
X142430500Y-65276324D01*
X142393178Y-65280000D01*
X138374095Y-65280000D01*
X138337206Y-65210986D01*
X138151634Y-64984866D01*
X137925514Y-64799294D01*
X137667534Y-64661401D01*
X137387611Y-64576487D01*
X137169450Y-64555000D01*
X137023550Y-64555000D01*
X136805389Y-64576487D01*
X136525466Y-64661401D01*
X136267486Y-64799294D01*
X136041366Y-64984866D01*
X135855794Y-65210986D01*
X135717901Y-65468966D01*
X135632987Y-65748889D01*
X135604315Y-66040000D01*
X135632987Y-66331111D01*
X135717901Y-66611034D01*
X135855794Y-66869014D01*
X136041366Y-67095134D01*
X136071187Y-67119607D01*
X136002320Y-67140498D01*
X135892006Y-67199463D01*
X135795315Y-67278815D01*
X135715963Y-67375506D01*
X135656998Y-67485820D01*
X135620688Y-67605518D01*
X135608428Y-67730000D01*
X135608428Y-69430000D01*
X135620688Y-69554482D01*
X135656998Y-69674180D01*
X135715963Y-69784494D01*
X135795315Y-69881185D01*
X135892006Y-69960537D01*
X135892874Y-69961001D01*
X124259866Y-69961001D01*
X128145000Y-66075868D01*
X128145001Y-67939788D01*
X128037563Y-68047226D01*
X127924295Y-68216744D01*
X127846274Y-68405102D01*
X127806500Y-68605061D01*
X127806500Y-68808939D01*
X127846274Y-69008898D01*
X127924295Y-69197256D01*
X128037563Y-69366774D01*
X128181726Y-69510937D01*
X128351244Y-69624205D01*
X128539602Y-69702226D01*
X128739561Y-69742000D01*
X128943439Y-69742000D01*
X129143398Y-69702226D01*
X129331756Y-69624205D01*
X129501274Y-69510937D01*
X129645437Y-69366774D01*
X129758705Y-69197256D01*
X129836726Y-69008898D01*
X129876500Y-68808939D01*
X129876500Y-68605061D01*
X129836726Y-68405102D01*
X129758705Y-68216744D01*
X129665000Y-68076504D01*
X129665000Y-65758799D01*
X134590250Y-60833550D01*
X134590251Y-61896422D01*
X134590251Y-61896422D01*
G37*
X134590251Y-61896422D02*
X134586574Y-61933754D01*
X134590251Y-61971087D01*
X134601248Y-62082740D01*
X134614430Y-62126196D01*
X134644704Y-62226000D01*
X134715276Y-62358030D01*
X134786451Y-62444756D01*
X134810250Y-62473755D01*
X134839248Y-62497553D01*
X135744198Y-63402504D01*
X135767997Y-63431503D01*
X135883722Y-63526476D01*
X136015751Y-63597048D01*
X136159012Y-63640505D01*
X136270665Y-63651502D01*
X136270674Y-63651502D01*
X136307997Y-63655178D01*
X136345320Y-63651502D01*
X141507201Y-63651502D01*
X146016698Y-68161000D01*
X145916008Y-68161000D01*
X145705191Y-68181764D01*
X145660595Y-68195292D01*
X142994304Y-65529003D01*
X142970501Y-65499999D01*
X142854776Y-65405026D01*
X142722747Y-65334454D01*
X142579486Y-65290997D01*
X142467833Y-65280000D01*
X142467822Y-65280000D01*
X142430500Y-65276324D01*
X142393178Y-65280000D01*
X138374095Y-65280000D01*
X138337206Y-65210986D01*
X138151634Y-64984866D01*
X137925514Y-64799294D01*
X137667534Y-64661401D01*
X137387611Y-64576487D01*
X137169450Y-64555000D01*
X137023550Y-64555000D01*
X136805389Y-64576487D01*
X136525466Y-64661401D01*
X136267486Y-64799294D01*
X136041366Y-64984866D01*
X135855794Y-65210986D01*
X135717901Y-65468966D01*
X135632987Y-65748889D01*
X135604315Y-66040000D01*
X135632987Y-66331111D01*
X135717901Y-66611034D01*
X135855794Y-66869014D01*
X136041366Y-67095134D01*
X136071187Y-67119607D01*
X136002320Y-67140498D01*
X135892006Y-67199463D01*
X135795315Y-67278815D01*
X135715963Y-67375506D01*
X135656998Y-67485820D01*
X135620688Y-67605518D01*
X135608428Y-67730000D01*
X135608428Y-69430000D01*
X135620688Y-69554482D01*
X135656998Y-69674180D01*
X135715963Y-69784494D01*
X135795315Y-69881185D01*
X135892006Y-69960537D01*
X135892874Y-69961001D01*
X124259866Y-69961001D01*
X128145000Y-66075868D01*
X128145001Y-67939788D01*
X128037563Y-68047226D01*
X127924295Y-68216744D01*
X127846274Y-68405102D01*
X127806500Y-68605061D01*
X127806500Y-68808939D01*
X127846274Y-69008898D01*
X127924295Y-69197256D01*
X128037563Y-69366774D01*
X128181726Y-69510937D01*
X128351244Y-69624205D01*
X128539602Y-69702226D01*
X128739561Y-69742000D01*
X128943439Y-69742000D01*
X129143398Y-69702226D01*
X129331756Y-69624205D01*
X129501274Y-69510937D01*
X129645437Y-69366774D01*
X129758705Y-69197256D01*
X129836726Y-69008898D01*
X129876500Y-68808939D01*
X129876500Y-68605061D01*
X129836726Y-68405102D01*
X129758705Y-68216744D01*
X129665000Y-68076504D01*
X129665000Y-65758799D01*
X134590250Y-60833550D01*
X134590251Y-61896422D01*
G36*
X151193500Y-69469000D02*
G01*
X151213500Y-69469000D01*
X151213500Y-69723000D01*
X151193500Y-69723000D01*
X151193500Y-69743000D01*
X150939500Y-69743000D01*
X150939500Y-69723000D01*
X150919500Y-69723000D01*
X150919500Y-69469000D01*
X150939500Y-69469000D01*
X150939500Y-69449000D01*
X151193500Y-69449000D01*
X151193500Y-69469000D01*
X151193500Y-69469000D01*
G37*
X151193500Y-69469000D02*
X151213500Y-69469000D01*
X151213500Y-69723000D01*
X151193500Y-69723000D01*
X151193500Y-69743000D01*
X150939500Y-69743000D01*
X150939500Y-69723000D01*
X150919500Y-69723000D01*
X150919500Y-69469000D01*
X150939500Y-69469000D01*
X150939500Y-69449000D01*
X151193500Y-69449000D01*
X151193500Y-69469000D01*
G36*
X143473626Y-68157928D02*
G01*
X142646500Y-68157928D01*
X142522018Y-68170188D01*
X142402320Y-68206498D01*
X142292006Y-68265463D01*
X142195315Y-68344815D01*
X142115963Y-68441506D01*
X142056998Y-68551820D01*
X142020688Y-68671518D01*
X142008428Y-68796000D01*
X142008428Y-68836000D01*
X138584572Y-68836000D01*
X138584572Y-67730000D01*
X138572312Y-67605518D01*
X138536002Y-67485820D01*
X138477037Y-67375506D01*
X138397685Y-67278815D01*
X138300994Y-67199463D01*
X138190680Y-67140498D01*
X138121813Y-67119607D01*
X138151634Y-67095134D01*
X138337206Y-66869014D01*
X138374095Y-66800000D01*
X142115699Y-66800000D01*
X143473626Y-68157928D01*
X143473626Y-68157928D01*
G37*
X143473626Y-68157928D02*
X142646500Y-68157928D01*
X142522018Y-68170188D01*
X142402320Y-68206498D01*
X142292006Y-68265463D01*
X142195315Y-68344815D01*
X142115963Y-68441506D01*
X142056998Y-68551820D01*
X142020688Y-68671518D01*
X142008428Y-68796000D01*
X142008428Y-68836000D01*
X138584572Y-68836000D01*
X138584572Y-67730000D01*
X138572312Y-67605518D01*
X138536002Y-67485820D01*
X138477037Y-67375506D01*
X138397685Y-67278815D01*
X138300994Y-67199463D01*
X138190680Y-67140498D01*
X138121813Y-67119607D01*
X138151634Y-67095134D01*
X138337206Y-66869014D01*
X138374095Y-66800000D01*
X142115699Y-66800000D01*
X143473626Y-68157928D01*
G36*
X162567568Y-55157101D02*
G01*
X162746892Y-55375608D01*
X162965399Y-55554932D01*
X163214692Y-55688182D01*
X163485191Y-55770236D01*
X163696008Y-55791000D01*
X163836992Y-55791000D01*
X164047809Y-55770236D01*
X164092406Y-55756708D01*
X164853700Y-56518002D01*
X164877499Y-56547001D01*
X164942671Y-56600486D01*
X164993224Y-56641974D01*
X165125253Y-56712546D01*
X165268514Y-56756003D01*
X165417500Y-56770677D01*
X165454833Y-56767000D01*
X165991699Y-56767000D01*
X173450030Y-64225332D01*
X173375774Y-64404602D01*
X173336000Y-64604561D01*
X173336000Y-64808439D01*
X173375774Y-65008398D01*
X173453795Y-65196756D01*
X173567063Y-65366274D01*
X173711226Y-65510437D01*
X173880744Y-65623705D01*
X174069102Y-65701726D01*
X174269061Y-65741500D01*
X174472939Y-65741500D01*
X174672898Y-65701726D01*
X174861256Y-65623705D01*
X175030774Y-65510437D01*
X175174937Y-65366274D01*
X175245118Y-65261241D01*
X178319797Y-68335921D01*
X178205399Y-68397068D01*
X178096633Y-68486330D01*
X177570304Y-67960001D01*
X177546502Y-67930998D01*
X177430777Y-67836025D01*
X177298748Y-67765453D01*
X177155487Y-67721996D01*
X177043834Y-67710999D01*
X177043823Y-67710999D01*
X177006501Y-67707323D01*
X176969179Y-67710999D01*
X174945678Y-67710999D01*
X175038042Y-67572766D01*
X175116063Y-67384408D01*
X175155837Y-67184449D01*
X175155837Y-66980571D01*
X175116063Y-66780612D01*
X175038042Y-66592254D01*
X174924774Y-66422736D01*
X174780611Y-66278573D01*
X174611093Y-66165305D01*
X174422735Y-66087284D01*
X174222776Y-66047510D01*
X174160639Y-66047510D01*
X172716141Y-64603012D01*
X172692338Y-64574009D01*
X172576613Y-64479036D01*
X172444584Y-64408464D01*
X172301323Y-64365007D01*
X172189670Y-64354010D01*
X172189659Y-64354010D01*
X172152337Y-64350334D01*
X172115015Y-64354010D01*
X147325211Y-64354010D01*
X147281274Y-64310073D01*
X147111756Y-64196805D01*
X146923398Y-64118784D01*
X146723439Y-64079010D01*
X146519561Y-64079010D01*
X146319602Y-64118784D01*
X146131244Y-64196805D01*
X145961726Y-64310073D01*
X145817563Y-64454236D01*
X145704295Y-64623754D01*
X145626274Y-64812112D01*
X145586500Y-65012071D01*
X145586500Y-65215949D01*
X145626274Y-65415908D01*
X145704295Y-65604266D01*
X145817563Y-65773784D01*
X145961726Y-65917947D01*
X146131244Y-66031215D01*
X146319602Y-66109236D01*
X146519561Y-66149010D01*
X146723439Y-66149010D01*
X146923398Y-66109236D01*
X147111756Y-66031215D01*
X147281274Y-65917947D01*
X147325211Y-65874010D01*
X166985188Y-65874010D01*
X166600197Y-66259002D01*
X156982831Y-66259002D01*
X156945498Y-66255325D01*
X156908165Y-66259002D01*
X156796512Y-66269999D01*
X156653251Y-66313456D01*
X156521222Y-66384028D01*
X156405497Y-66479001D01*
X156381699Y-66507999D01*
X155573879Y-67315820D01*
X155553437Y-67285226D01*
X155409274Y-67141063D01*
X155239756Y-67027795D01*
X155051398Y-66949774D01*
X154851439Y-66910000D01*
X154647561Y-66910000D01*
X154447602Y-66949774D01*
X154259244Y-67027795D01*
X154089726Y-67141063D01*
X154045789Y-67185000D01*
X153629821Y-67185000D01*
X153592498Y-67181324D01*
X153555175Y-67185000D01*
X153555165Y-67185000D01*
X153466111Y-67193771D01*
X153498500Y-67030939D01*
X153498500Y-66827061D01*
X153458726Y-66627102D01*
X153380705Y-66438744D01*
X153267437Y-66269226D01*
X153123274Y-66125063D01*
X152953756Y-66011795D01*
X152765398Y-65933774D01*
X152565439Y-65894000D01*
X152361561Y-65894000D01*
X152161602Y-65933774D01*
X151973244Y-66011795D01*
X151803726Y-66125063D01*
X151748776Y-66180013D01*
X151605568Y-66223454D01*
X151473539Y-66294026D01*
X151357814Y-66388999D01*
X151334016Y-66417997D01*
X150001107Y-67750907D01*
X149905800Y-67721996D01*
X149794147Y-67710999D01*
X149794136Y-67710999D01*
X149756814Y-67707323D01*
X149719492Y-67710999D01*
X149103823Y-67710999D01*
X149066501Y-67707323D01*
X149029179Y-67710999D01*
X149029168Y-67710999D01*
X148917515Y-67721996D01*
X148774254Y-67765453D01*
X148642225Y-67836025D01*
X148526500Y-67930998D01*
X148431527Y-68046723D01*
X148365689Y-68169896D01*
X148245191Y-68181764D01*
X148200594Y-68195292D01*
X142385806Y-62380505D01*
X142362003Y-62351501D01*
X142246278Y-62256528D01*
X142114249Y-62185956D01*
X141970988Y-62142499D01*
X141859335Y-62131502D01*
X141859324Y-62131502D01*
X141822002Y-62127826D01*
X141784680Y-62131502D01*
X138459615Y-62131502D01*
X138475099Y-62102534D01*
X138560013Y-61822611D01*
X138588685Y-61531500D01*
X138560013Y-61240389D01*
X138537297Y-61165505D01*
X138941003Y-60761799D01*
X138970001Y-60738001D01*
X139064974Y-60622276D01*
X139135546Y-60490247D01*
X139179003Y-60346986D01*
X139190000Y-60235333D01*
X139190000Y-60235325D01*
X139193676Y-60198000D01*
X139190000Y-60160675D01*
X139190000Y-59560301D01*
X139633802Y-59116500D01*
X163380289Y-59116500D01*
X163424226Y-59160437D01*
X163593744Y-59273705D01*
X163782102Y-59351726D01*
X163982061Y-59391500D01*
X164185939Y-59391500D01*
X164385898Y-59351726D01*
X164574256Y-59273705D01*
X164743774Y-59160437D01*
X164887937Y-59016274D01*
X165001205Y-58846756D01*
X165079226Y-58658398D01*
X165119000Y-58458439D01*
X165119000Y-58254561D01*
X165079226Y-58054602D01*
X165001205Y-57866244D01*
X164887937Y-57696726D01*
X164743774Y-57552563D01*
X164574256Y-57439295D01*
X164385898Y-57361274D01*
X164185939Y-57321500D01*
X163982061Y-57321500D01*
X163782102Y-57361274D01*
X163593744Y-57439295D01*
X163424226Y-57552563D01*
X163380289Y-57596500D01*
X161817000Y-57596500D01*
X161817000Y-57492561D01*
X161777226Y-57292602D01*
X161699205Y-57104244D01*
X161585937Y-56934726D01*
X161441774Y-56790563D01*
X161272256Y-56677295D01*
X161083898Y-56599274D01*
X160883939Y-56559500D01*
X160680061Y-56559500D01*
X160480102Y-56599274D01*
X160291744Y-56677295D01*
X160122226Y-56790563D01*
X159978063Y-56934726D01*
X159896697Y-57056499D01*
X147027802Y-57056499D01*
X148237504Y-55846798D01*
X148266502Y-55823000D01*
X148304972Y-55776124D01*
X148456008Y-55791000D01*
X148596992Y-55791000D01*
X148807809Y-55770236D01*
X149078308Y-55688182D01*
X149327601Y-55554932D01*
X149546108Y-55375608D01*
X149725432Y-55157101D01*
X149796500Y-55024142D01*
X149867568Y-55157101D01*
X150046892Y-55375608D01*
X150265399Y-55554932D01*
X150514692Y-55688182D01*
X150785191Y-55770236D01*
X150996008Y-55791000D01*
X151136992Y-55791000D01*
X151347809Y-55770236D01*
X151618308Y-55688182D01*
X151867601Y-55554932D01*
X152086108Y-55375608D01*
X152265432Y-55157101D01*
X152336500Y-55024142D01*
X152407568Y-55157101D01*
X152586892Y-55375608D01*
X152805399Y-55554932D01*
X153054692Y-55688182D01*
X153325191Y-55770236D01*
X153536008Y-55791000D01*
X153676992Y-55791000D01*
X153887809Y-55770236D01*
X154158308Y-55688182D01*
X154407601Y-55554932D01*
X154626108Y-55375608D01*
X154805432Y-55157101D01*
X154876500Y-55024142D01*
X154947568Y-55157101D01*
X155126892Y-55375608D01*
X155345399Y-55554932D01*
X155594692Y-55688182D01*
X155865191Y-55770236D01*
X156076008Y-55791000D01*
X156216992Y-55791000D01*
X156427809Y-55770236D01*
X156698308Y-55688182D01*
X156947601Y-55554932D01*
X157166108Y-55375608D01*
X157345432Y-55157101D01*
X157416500Y-55024142D01*
X157487568Y-55157101D01*
X157666892Y-55375608D01*
X157885399Y-55554932D01*
X158134692Y-55688182D01*
X158405191Y-55770236D01*
X158616008Y-55791000D01*
X158756992Y-55791000D01*
X158967809Y-55770236D01*
X159238308Y-55688182D01*
X159487601Y-55554932D01*
X159706108Y-55375608D01*
X159885432Y-55157101D01*
X159956500Y-55024142D01*
X160027568Y-55157101D01*
X160206892Y-55375608D01*
X160425399Y-55554932D01*
X160674692Y-55688182D01*
X160945191Y-55770236D01*
X161156008Y-55791000D01*
X161296992Y-55791000D01*
X161507809Y-55770236D01*
X161778308Y-55688182D01*
X162027601Y-55554932D01*
X162246108Y-55375608D01*
X162425432Y-55157101D01*
X162496500Y-55024142D01*
X162567568Y-55157101D01*
X162567568Y-55157101D01*
G37*
X162567568Y-55157101D02*
X162746892Y-55375608D01*
X162965399Y-55554932D01*
X163214692Y-55688182D01*
X163485191Y-55770236D01*
X163696008Y-55791000D01*
X163836992Y-55791000D01*
X164047809Y-55770236D01*
X164092406Y-55756708D01*
X164853700Y-56518002D01*
X164877499Y-56547001D01*
X164942671Y-56600486D01*
X164993224Y-56641974D01*
X165125253Y-56712546D01*
X165268514Y-56756003D01*
X165417500Y-56770677D01*
X165454833Y-56767000D01*
X165991699Y-56767000D01*
X173450030Y-64225332D01*
X173375774Y-64404602D01*
X173336000Y-64604561D01*
X173336000Y-64808439D01*
X173375774Y-65008398D01*
X173453795Y-65196756D01*
X173567063Y-65366274D01*
X173711226Y-65510437D01*
X173880744Y-65623705D01*
X174069102Y-65701726D01*
X174269061Y-65741500D01*
X174472939Y-65741500D01*
X174672898Y-65701726D01*
X174861256Y-65623705D01*
X175030774Y-65510437D01*
X175174937Y-65366274D01*
X175245118Y-65261241D01*
X178319797Y-68335921D01*
X178205399Y-68397068D01*
X178096633Y-68486330D01*
X177570304Y-67960001D01*
X177546502Y-67930998D01*
X177430777Y-67836025D01*
X177298748Y-67765453D01*
X177155487Y-67721996D01*
X177043834Y-67710999D01*
X177043823Y-67710999D01*
X177006501Y-67707323D01*
X176969179Y-67710999D01*
X174945678Y-67710999D01*
X175038042Y-67572766D01*
X175116063Y-67384408D01*
X175155837Y-67184449D01*
X175155837Y-66980571D01*
X175116063Y-66780612D01*
X175038042Y-66592254D01*
X174924774Y-66422736D01*
X174780611Y-66278573D01*
X174611093Y-66165305D01*
X174422735Y-66087284D01*
X174222776Y-66047510D01*
X174160639Y-66047510D01*
X172716141Y-64603012D01*
X172692338Y-64574009D01*
X172576613Y-64479036D01*
X172444584Y-64408464D01*
X172301323Y-64365007D01*
X172189670Y-64354010D01*
X172189659Y-64354010D01*
X172152337Y-64350334D01*
X172115015Y-64354010D01*
X147325211Y-64354010D01*
X147281274Y-64310073D01*
X147111756Y-64196805D01*
X146923398Y-64118784D01*
X146723439Y-64079010D01*
X146519561Y-64079010D01*
X146319602Y-64118784D01*
X146131244Y-64196805D01*
X145961726Y-64310073D01*
X145817563Y-64454236D01*
X145704295Y-64623754D01*
X145626274Y-64812112D01*
X145586500Y-65012071D01*
X145586500Y-65215949D01*
X145626274Y-65415908D01*
X145704295Y-65604266D01*
X145817563Y-65773784D01*
X145961726Y-65917947D01*
X146131244Y-66031215D01*
X146319602Y-66109236D01*
X146519561Y-66149010D01*
X146723439Y-66149010D01*
X146923398Y-66109236D01*
X147111756Y-66031215D01*
X147281274Y-65917947D01*
X147325211Y-65874010D01*
X166985188Y-65874010D01*
X166600197Y-66259002D01*
X156982831Y-66259002D01*
X156945498Y-66255325D01*
X156908165Y-66259002D01*
X156796512Y-66269999D01*
X156653251Y-66313456D01*
X156521222Y-66384028D01*
X156405497Y-66479001D01*
X156381699Y-66507999D01*
X155573879Y-67315820D01*
X155553437Y-67285226D01*
X155409274Y-67141063D01*
X155239756Y-67027795D01*
X155051398Y-66949774D01*
X154851439Y-66910000D01*
X154647561Y-66910000D01*
X154447602Y-66949774D01*
X154259244Y-67027795D01*
X154089726Y-67141063D01*
X154045789Y-67185000D01*
X153629821Y-67185000D01*
X153592498Y-67181324D01*
X153555175Y-67185000D01*
X153555165Y-67185000D01*
X153466111Y-67193771D01*
X153498500Y-67030939D01*
X153498500Y-66827061D01*
X153458726Y-66627102D01*
X153380705Y-66438744D01*
X153267437Y-66269226D01*
X153123274Y-66125063D01*
X152953756Y-66011795D01*
X152765398Y-65933774D01*
X152565439Y-65894000D01*
X152361561Y-65894000D01*
X152161602Y-65933774D01*
X151973244Y-66011795D01*
X151803726Y-66125063D01*
X151748776Y-66180013D01*
X151605568Y-66223454D01*
X151473539Y-66294026D01*
X151357814Y-66388999D01*
X151334016Y-66417997D01*
X150001107Y-67750907D01*
X149905800Y-67721996D01*
X149794147Y-67710999D01*
X149794136Y-67710999D01*
X149756814Y-67707323D01*
X149719492Y-67710999D01*
X149103823Y-67710999D01*
X149066501Y-67707323D01*
X149029179Y-67710999D01*
X149029168Y-67710999D01*
X148917515Y-67721996D01*
X148774254Y-67765453D01*
X148642225Y-67836025D01*
X148526500Y-67930998D01*
X148431527Y-68046723D01*
X148365689Y-68169896D01*
X148245191Y-68181764D01*
X148200594Y-68195292D01*
X142385806Y-62380505D01*
X142362003Y-62351501D01*
X142246278Y-62256528D01*
X142114249Y-62185956D01*
X141970988Y-62142499D01*
X141859335Y-62131502D01*
X141859324Y-62131502D01*
X141822002Y-62127826D01*
X141784680Y-62131502D01*
X138459615Y-62131502D01*
X138475099Y-62102534D01*
X138560013Y-61822611D01*
X138588685Y-61531500D01*
X138560013Y-61240389D01*
X138537297Y-61165505D01*
X138941003Y-60761799D01*
X138970001Y-60738001D01*
X139064974Y-60622276D01*
X139135546Y-60490247D01*
X139179003Y-60346986D01*
X139190000Y-60235333D01*
X139190000Y-60235325D01*
X139193676Y-60198000D01*
X139190000Y-60160675D01*
X139190000Y-59560301D01*
X139633802Y-59116500D01*
X163380289Y-59116500D01*
X163424226Y-59160437D01*
X163593744Y-59273705D01*
X163782102Y-59351726D01*
X163982061Y-59391500D01*
X164185939Y-59391500D01*
X164385898Y-59351726D01*
X164574256Y-59273705D01*
X164743774Y-59160437D01*
X164887937Y-59016274D01*
X165001205Y-58846756D01*
X165079226Y-58658398D01*
X165119000Y-58458439D01*
X165119000Y-58254561D01*
X165079226Y-58054602D01*
X165001205Y-57866244D01*
X164887937Y-57696726D01*
X164743774Y-57552563D01*
X164574256Y-57439295D01*
X164385898Y-57361274D01*
X164185939Y-57321500D01*
X163982061Y-57321500D01*
X163782102Y-57361274D01*
X163593744Y-57439295D01*
X163424226Y-57552563D01*
X163380289Y-57596500D01*
X161817000Y-57596500D01*
X161817000Y-57492561D01*
X161777226Y-57292602D01*
X161699205Y-57104244D01*
X161585937Y-56934726D01*
X161441774Y-56790563D01*
X161272256Y-56677295D01*
X161083898Y-56599274D01*
X160883939Y-56559500D01*
X160680061Y-56559500D01*
X160480102Y-56599274D01*
X160291744Y-56677295D01*
X160122226Y-56790563D01*
X159978063Y-56934726D01*
X159896697Y-57056499D01*
X147027802Y-57056499D01*
X148237504Y-55846798D01*
X148266502Y-55823000D01*
X148304972Y-55776124D01*
X148456008Y-55791000D01*
X148596992Y-55791000D01*
X148807809Y-55770236D01*
X149078308Y-55688182D01*
X149327601Y-55554932D01*
X149546108Y-55375608D01*
X149725432Y-55157101D01*
X149796500Y-55024142D01*
X149867568Y-55157101D01*
X150046892Y-55375608D01*
X150265399Y-55554932D01*
X150514692Y-55688182D01*
X150785191Y-55770236D01*
X150996008Y-55791000D01*
X151136992Y-55791000D01*
X151347809Y-55770236D01*
X151618308Y-55688182D01*
X151867601Y-55554932D01*
X152086108Y-55375608D01*
X152265432Y-55157101D01*
X152336500Y-55024142D01*
X152407568Y-55157101D01*
X152586892Y-55375608D01*
X152805399Y-55554932D01*
X153054692Y-55688182D01*
X153325191Y-55770236D01*
X153536008Y-55791000D01*
X153676992Y-55791000D01*
X153887809Y-55770236D01*
X154158308Y-55688182D01*
X154407601Y-55554932D01*
X154626108Y-55375608D01*
X154805432Y-55157101D01*
X154876500Y-55024142D01*
X154947568Y-55157101D01*
X155126892Y-55375608D01*
X155345399Y-55554932D01*
X155594692Y-55688182D01*
X155865191Y-55770236D01*
X156076008Y-55791000D01*
X156216992Y-55791000D01*
X156427809Y-55770236D01*
X156698308Y-55688182D01*
X156947601Y-55554932D01*
X157166108Y-55375608D01*
X157345432Y-55157101D01*
X157416500Y-55024142D01*
X157487568Y-55157101D01*
X157666892Y-55375608D01*
X157885399Y-55554932D01*
X158134692Y-55688182D01*
X158405191Y-55770236D01*
X158616008Y-55791000D01*
X158756992Y-55791000D01*
X158967809Y-55770236D01*
X159238308Y-55688182D01*
X159487601Y-55554932D01*
X159706108Y-55375608D01*
X159885432Y-55157101D01*
X159956500Y-55024142D01*
X160027568Y-55157101D01*
X160206892Y-55375608D01*
X160425399Y-55554932D01*
X160674692Y-55688182D01*
X160945191Y-55770236D01*
X161156008Y-55791000D01*
X161296992Y-55791000D01*
X161507809Y-55770236D01*
X161778308Y-55688182D01*
X162027601Y-55554932D01*
X162246108Y-55375608D01*
X162425432Y-55157101D01*
X162496500Y-55024142D01*
X162567568Y-55157101D01*
G36*
X173085837Y-67122312D02*
G01*
X173085837Y-67184449D01*
X173125611Y-67384408D01*
X173203632Y-67572766D01*
X173295996Y-67710999D01*
X170883822Y-67710999D01*
X170846499Y-67707323D01*
X170809176Y-67710999D01*
X170809166Y-67710999D01*
X170697513Y-67721996D01*
X170554252Y-67765453D01*
X170422222Y-67836025D01*
X170340537Y-67903063D01*
X170306498Y-67930998D01*
X170282699Y-67959997D01*
X169756367Y-68486330D01*
X169647601Y-68397068D01*
X169398308Y-68263818D01*
X169127809Y-68181764D01*
X168916992Y-68161000D01*
X168776008Y-68161000D01*
X168565191Y-68181764D01*
X168294692Y-68263818D01*
X168045399Y-68397068D01*
X167936633Y-68486330D01*
X167410304Y-67960001D01*
X167386502Y-67930998D01*
X167270777Y-67836025D01*
X167138748Y-67765453D01*
X167105572Y-67755389D01*
X167207245Y-67724548D01*
X167339274Y-67653976D01*
X167454999Y-67559003D01*
X167478802Y-67530000D01*
X168060802Y-66948000D01*
X168122939Y-66948000D01*
X168322898Y-66908226D01*
X168511256Y-66830205D01*
X168680774Y-66716937D01*
X168824937Y-66572774D01*
X168938205Y-66403256D01*
X169016226Y-66214898D01*
X169056000Y-66014939D01*
X169056000Y-65874010D01*
X171837536Y-65874010D01*
X173085837Y-67122312D01*
X173085837Y-67122312D01*
G37*
X173085837Y-67122312D02*
X173085837Y-67184449D01*
X173125611Y-67384408D01*
X173203632Y-67572766D01*
X173295996Y-67710999D01*
X170883822Y-67710999D01*
X170846499Y-67707323D01*
X170809176Y-67710999D01*
X170809166Y-67710999D01*
X170697513Y-67721996D01*
X170554252Y-67765453D01*
X170422222Y-67836025D01*
X170340537Y-67903063D01*
X170306498Y-67930998D01*
X170282699Y-67959997D01*
X169756367Y-68486330D01*
X169647601Y-68397068D01*
X169398308Y-68263818D01*
X169127809Y-68181764D01*
X168916992Y-68161000D01*
X168776008Y-68161000D01*
X168565191Y-68181764D01*
X168294692Y-68263818D01*
X168045399Y-68397068D01*
X167936633Y-68486330D01*
X167410304Y-67960001D01*
X167386502Y-67930998D01*
X167270777Y-67836025D01*
X167138748Y-67765453D01*
X167105572Y-67755389D01*
X167207245Y-67724548D01*
X167339274Y-67653976D01*
X167454999Y-67559003D01*
X167478802Y-67530000D01*
X168060802Y-66948000D01*
X168122939Y-66948000D01*
X168322898Y-66908226D01*
X168511256Y-66830205D01*
X168680774Y-66716937D01*
X168824937Y-66572774D01*
X168938205Y-66403256D01*
X169016226Y-66214898D01*
X169056000Y-66014939D01*
X169056000Y-65874010D01*
X171837536Y-65874010D01*
X173085837Y-67122312D01*
G36*
X146113500Y-54229000D02*
G01*
X146133500Y-54229000D01*
X146133500Y-54483000D01*
X146113500Y-54483000D01*
X146113500Y-55625915D01*
X146239538Y-55695161D01*
X145544699Y-56390000D01*
X139189301Y-56390000D01*
X139017407Y-56218106D01*
X139011724Y-56207474D01*
X138916751Y-56091749D01*
X138887748Y-56067947D01*
X138760304Y-55940503D01*
X138736501Y-55911499D01*
X138620776Y-55816526D01*
X138584572Y-55797174D01*
X138584572Y-55601500D01*
X138572312Y-55477018D01*
X138536002Y-55357320D01*
X138477037Y-55247006D01*
X138431074Y-55191000D01*
X142275388Y-55191000D01*
X142426892Y-55375608D01*
X142645399Y-55554932D01*
X142894692Y-55688182D01*
X143165191Y-55770236D01*
X143376008Y-55791000D01*
X143516992Y-55791000D01*
X143727809Y-55770236D01*
X143998308Y-55688182D01*
X144247601Y-55554932D01*
X144466108Y-55375608D01*
X144645432Y-55157101D01*
X144719079Y-55019318D01*
X144834115Y-55211131D01*
X145023086Y-55419519D01*
X145249080Y-55587037D01*
X145503413Y-55707246D01*
X145637461Y-55747904D01*
X145859500Y-55625915D01*
X145859500Y-54483000D01*
X145839500Y-54483000D01*
X145839500Y-54229000D01*
X145859500Y-54229000D01*
X145859500Y-54209000D01*
X146113500Y-54209000D01*
X146113500Y-54229000D01*
X146113500Y-54229000D01*
G37*
X146113500Y-54229000D02*
X146133500Y-54229000D01*
X146133500Y-54483000D01*
X146113500Y-54483000D01*
X146113500Y-55625915D01*
X146239538Y-55695161D01*
X145544699Y-56390000D01*
X139189301Y-56390000D01*
X139017407Y-56218106D01*
X139011724Y-56207474D01*
X138916751Y-56091749D01*
X138887748Y-56067947D01*
X138760304Y-55940503D01*
X138736501Y-55911499D01*
X138620776Y-55816526D01*
X138584572Y-55797174D01*
X138584572Y-55601500D01*
X138572312Y-55477018D01*
X138536002Y-55357320D01*
X138477037Y-55247006D01*
X138431074Y-55191000D01*
X142275388Y-55191000D01*
X142426892Y-55375608D01*
X142645399Y-55554932D01*
X142894692Y-55688182D01*
X143165191Y-55770236D01*
X143376008Y-55791000D01*
X143516992Y-55791000D01*
X143727809Y-55770236D01*
X143998308Y-55688182D01*
X144247601Y-55554932D01*
X144466108Y-55375608D01*
X144645432Y-55157101D01*
X144719079Y-55019318D01*
X144834115Y-55211131D01*
X145023086Y-55419519D01*
X145249080Y-55587037D01*
X145503413Y-55707246D01*
X145637461Y-55747904D01*
X145859500Y-55625915D01*
X145859500Y-54483000D01*
X145839500Y-54483000D01*
X145839500Y-54229000D01*
X145859500Y-54229000D01*
X145859500Y-54209000D01*
X146113500Y-54209000D01*
X146113500Y-54229000D01*
M02*
