G04 #@! TF.GenerationSoftware,KiCad,Pcbnew,(5.1.4)-1*
G04 #@! TF.CreationDate,2023-02-10T17:26:26+00:00*
G04 #@! TF.ProjectId,PIR InterfaceBoard,50495220-496e-4746-9572-66616365426f,rev?*
G04 #@! TF.SameCoordinates,Original*
G04 #@! TF.FileFunction,Soldermask,Bot*
G04 #@! TF.FilePolarity,Negative*
%FSLAX46Y46*%
G04 Gerber Fmt 4.6, Leading zero omitted, Abs format (unit mm)*
G04 Created by KiCad (PCBNEW (5.1.4)-1) date 2023-02-10 17:26:26*
%MOMM*%
%LPD*%
G04 APERTURE LIST*
%ADD10C,0.100000*%
G04 APERTURE END LIST*
D10*
G36*
X190375256Y-96391298D02*
G01*
X190481579Y-96412447D01*
X190782042Y-96536903D01*
X191052451Y-96717585D01*
X191282415Y-96947549D01*
X191463097Y-97217958D01*
X191587553Y-97518421D01*
X191651000Y-97837391D01*
X191651000Y-98162609D01*
X191587553Y-98481579D01*
X191463097Y-98782042D01*
X191282415Y-99052451D01*
X191052451Y-99282415D01*
X190782042Y-99463097D01*
X190481579Y-99587553D01*
X190375256Y-99608702D01*
X190162611Y-99651000D01*
X189837389Y-99651000D01*
X189624744Y-99608702D01*
X189518421Y-99587553D01*
X189217958Y-99463097D01*
X188947549Y-99282415D01*
X188717585Y-99052451D01*
X188536903Y-98782042D01*
X188412447Y-98481579D01*
X188349000Y-98162609D01*
X188349000Y-97837391D01*
X188412447Y-97518421D01*
X188536903Y-97217958D01*
X188717585Y-96947549D01*
X188947549Y-96717585D01*
X189217958Y-96536903D01*
X189518421Y-96412447D01*
X189624744Y-96391298D01*
X189837389Y-96349000D01*
X190162611Y-96349000D01*
X190375256Y-96391298D01*
X190375256Y-96391298D01*
G37*
G36*
X90375256Y-96391298D02*
G01*
X90481579Y-96412447D01*
X90782042Y-96536903D01*
X91052451Y-96717585D01*
X91282415Y-96947549D01*
X91463097Y-97217958D01*
X91587553Y-97518421D01*
X91651000Y-97837391D01*
X91651000Y-98162609D01*
X91587553Y-98481579D01*
X91463097Y-98782042D01*
X91282415Y-99052451D01*
X91052451Y-99282415D01*
X90782042Y-99463097D01*
X90481579Y-99587553D01*
X90375256Y-99608702D01*
X90162611Y-99651000D01*
X89837389Y-99651000D01*
X89624744Y-99608702D01*
X89518421Y-99587553D01*
X89217958Y-99463097D01*
X88947549Y-99282415D01*
X88717585Y-99052451D01*
X88536903Y-98782042D01*
X88412447Y-98481579D01*
X88349000Y-98162609D01*
X88349000Y-97837391D01*
X88412447Y-97518421D01*
X88536903Y-97217958D01*
X88717585Y-96947549D01*
X88947549Y-96717585D01*
X89217958Y-96536903D01*
X89518421Y-96412447D01*
X89624744Y-96391298D01*
X89837389Y-96349000D01*
X90162611Y-96349000D01*
X90375256Y-96391298D01*
X90375256Y-96391298D01*
G37*
G36*
X183344885Y-94968005D02*
G01*
X183510842Y-95001016D01*
X183745334Y-95098146D01*
X183956371Y-95239156D01*
X184135844Y-95418629D01*
X184276854Y-95629666D01*
X184373984Y-95864158D01*
X184373984Y-95864160D01*
X184423500Y-96113093D01*
X184423500Y-96366907D01*
X184406995Y-96449885D01*
X184373984Y-96615842D01*
X184276854Y-96850334D01*
X184135844Y-97061371D01*
X183956371Y-97240844D01*
X183745334Y-97381854D01*
X183510842Y-97478984D01*
X183344885Y-97511995D01*
X183261907Y-97528500D01*
X183008093Y-97528500D01*
X182925115Y-97511995D01*
X182759158Y-97478984D01*
X182524666Y-97381854D01*
X182313629Y-97240844D01*
X182134156Y-97061371D01*
X181993146Y-96850334D01*
X181896016Y-96615842D01*
X181863005Y-96449885D01*
X181846500Y-96366907D01*
X181846500Y-96113093D01*
X181896016Y-95864160D01*
X181896016Y-95864158D01*
X181993146Y-95629666D01*
X182134156Y-95418629D01*
X182313629Y-95239156D01*
X182524666Y-95098146D01*
X182759158Y-95001016D01*
X182925115Y-94968005D01*
X183008093Y-94951500D01*
X183261907Y-94951500D01*
X183344885Y-94968005D01*
X183344885Y-94968005D01*
G37*
G36*
X96474885Y-94968005D02*
G01*
X96640842Y-95001016D01*
X96875334Y-95098146D01*
X97086371Y-95239156D01*
X97265844Y-95418629D01*
X97406854Y-95629666D01*
X97503984Y-95864158D01*
X97503984Y-95864160D01*
X97553500Y-96113093D01*
X97553500Y-96366907D01*
X97536995Y-96449885D01*
X97503984Y-96615842D01*
X97406854Y-96850334D01*
X97265844Y-97061371D01*
X97086371Y-97240844D01*
X96875334Y-97381854D01*
X96640842Y-97478984D01*
X96474885Y-97511995D01*
X96391907Y-97528500D01*
X96138093Y-97528500D01*
X96055115Y-97511995D01*
X95889158Y-97478984D01*
X95654666Y-97381854D01*
X95443629Y-97240844D01*
X95264156Y-97061371D01*
X95123146Y-96850334D01*
X95026016Y-96615842D01*
X94993005Y-96449885D01*
X94976500Y-96366907D01*
X94976500Y-96113093D01*
X95026016Y-95864160D01*
X95026016Y-95864158D01*
X95123146Y-95629666D01*
X95264156Y-95418629D01*
X95443629Y-95239156D01*
X95654666Y-95098146D01*
X95889158Y-95001016D01*
X96055115Y-94968005D01*
X96138093Y-94951500D01*
X96391907Y-94951500D01*
X96474885Y-94968005D01*
X96474885Y-94968005D01*
G37*
G36*
X99556162Y-90034368D02*
G01*
X99865724Y-90162593D01*
X99865725Y-90162594D01*
X100144324Y-90348747D01*
X100381253Y-90585676D01*
X100505637Y-90771830D01*
X100567407Y-90864276D01*
X100695632Y-91173838D01*
X100761000Y-91502465D01*
X100761000Y-91837535D01*
X100695632Y-92166162D01*
X100567407Y-92475724D01*
X100567406Y-92475725D01*
X100381253Y-92754324D01*
X100144324Y-92991253D01*
X99958170Y-93115637D01*
X99865724Y-93177407D01*
X99556162Y-93305632D01*
X99227535Y-93371000D01*
X98892465Y-93371000D01*
X98563838Y-93305632D01*
X98254276Y-93177407D01*
X98161830Y-93115637D01*
X97975676Y-92991253D01*
X97738747Y-92754324D01*
X97552594Y-92475725D01*
X97552593Y-92475724D01*
X97424368Y-92166162D01*
X97359000Y-91837535D01*
X97359000Y-91502465D01*
X97424368Y-91173838D01*
X97552593Y-90864276D01*
X97614363Y-90771830D01*
X97738747Y-90585676D01*
X97975676Y-90348747D01*
X98254275Y-90162594D01*
X98254276Y-90162593D01*
X98563838Y-90034368D01*
X98892465Y-89969000D01*
X99227535Y-89969000D01*
X99556162Y-90034368D01*
X99556162Y-90034368D01*
G37*
G36*
X180836162Y-90034368D02*
G01*
X181145724Y-90162593D01*
X181145725Y-90162594D01*
X181424324Y-90348747D01*
X181661253Y-90585676D01*
X181785637Y-90771830D01*
X181847407Y-90864276D01*
X181975632Y-91173838D01*
X182041000Y-91502465D01*
X182041000Y-91837535D01*
X181975632Y-92166162D01*
X181847407Y-92475724D01*
X181847406Y-92475725D01*
X181661253Y-92754324D01*
X181424324Y-92991253D01*
X181238170Y-93115637D01*
X181145724Y-93177407D01*
X180836162Y-93305632D01*
X180507535Y-93371000D01*
X180172465Y-93371000D01*
X179843838Y-93305632D01*
X179534276Y-93177407D01*
X179441830Y-93115637D01*
X179255676Y-92991253D01*
X179018747Y-92754324D01*
X178832594Y-92475725D01*
X178832593Y-92475724D01*
X178704368Y-92166162D01*
X178639000Y-91837535D01*
X178639000Y-91502465D01*
X178704368Y-91173838D01*
X178832593Y-90864276D01*
X178894363Y-90771830D01*
X179018747Y-90585676D01*
X179255676Y-90348747D01*
X179534275Y-90162594D01*
X179534276Y-90162593D01*
X179843838Y-90034368D01*
X180172465Y-89969000D01*
X180507535Y-89969000D01*
X180836162Y-90034368D01*
X180836162Y-90034368D01*
G37*
G36*
X182689885Y-84528005D02*
G01*
X182855842Y-84561016D01*
X183090334Y-84658146D01*
X183301371Y-84799156D01*
X183480844Y-84978629D01*
X183621854Y-85189666D01*
X183718984Y-85424158D01*
X183768500Y-85673094D01*
X183768500Y-85926906D01*
X183718984Y-86175842D01*
X183621854Y-86410334D01*
X183480844Y-86621371D01*
X183301371Y-86800844D01*
X183090334Y-86941854D01*
X182855842Y-87038984D01*
X182689885Y-87071995D01*
X182606907Y-87088500D01*
X182353093Y-87088500D01*
X182270115Y-87071995D01*
X182104158Y-87038984D01*
X181869666Y-86941854D01*
X181658629Y-86800844D01*
X181479156Y-86621371D01*
X181338146Y-86410334D01*
X181241016Y-86175842D01*
X181191500Y-85926906D01*
X181191500Y-85673094D01*
X181241016Y-85424158D01*
X181338146Y-85189666D01*
X181479156Y-84978629D01*
X181658629Y-84799156D01*
X181869666Y-84658146D01*
X182104158Y-84561016D01*
X182270115Y-84528005D01*
X182353093Y-84511500D01*
X182606907Y-84511500D01*
X182689885Y-84528005D01*
X182689885Y-84528005D01*
G37*
G36*
X136124956Y-84545455D02*
G01*
X136222683Y-84585936D01*
X136271548Y-84606176D01*
X136403473Y-84694325D01*
X136515675Y-84806527D01*
X136603824Y-84938452D01*
X136603824Y-84938453D01*
X136664545Y-85085044D01*
X136695500Y-85240665D01*
X136695500Y-85399335D01*
X136664545Y-85554956D01*
X136624064Y-85652683D01*
X136603824Y-85701548D01*
X136515675Y-85833473D01*
X136403473Y-85945675D01*
X136271548Y-86033824D01*
X136222683Y-86054064D01*
X136124956Y-86094545D01*
X135969335Y-86125500D01*
X135810665Y-86125500D01*
X135655044Y-86094545D01*
X135557317Y-86054064D01*
X135508452Y-86033824D01*
X135376527Y-85945675D01*
X135264325Y-85833473D01*
X135176176Y-85701548D01*
X135155936Y-85652683D01*
X135115455Y-85554956D01*
X135084500Y-85399335D01*
X135084500Y-85240665D01*
X135115455Y-85085044D01*
X135176176Y-84938453D01*
X135176176Y-84938452D01*
X135264325Y-84806527D01*
X135376527Y-84694325D01*
X135508452Y-84606176D01*
X135557317Y-84585936D01*
X135655044Y-84545455D01*
X135810665Y-84514500D01*
X135969335Y-84514500D01*
X136124956Y-84545455D01*
X136124956Y-84545455D01*
G37*
G36*
X128504956Y-84545455D02*
G01*
X128602683Y-84585936D01*
X128651548Y-84606176D01*
X128783473Y-84694325D01*
X128895675Y-84806527D01*
X128983824Y-84938452D01*
X128983824Y-84938453D01*
X129044545Y-85085044D01*
X129075500Y-85240665D01*
X129075500Y-85399335D01*
X129044545Y-85554956D01*
X129004064Y-85652683D01*
X128983824Y-85701548D01*
X128895675Y-85833473D01*
X128783473Y-85945675D01*
X128651548Y-86033824D01*
X128602683Y-86054064D01*
X128504956Y-86094545D01*
X128349335Y-86125500D01*
X128190665Y-86125500D01*
X128035044Y-86094545D01*
X127937317Y-86054064D01*
X127888452Y-86033824D01*
X127756527Y-85945675D01*
X127644325Y-85833473D01*
X127556176Y-85701548D01*
X127535936Y-85652683D01*
X127495455Y-85554956D01*
X127464500Y-85399335D01*
X127464500Y-85240665D01*
X127495455Y-85085044D01*
X127556176Y-84938453D01*
X127556176Y-84938452D01*
X127644325Y-84806527D01*
X127756527Y-84694325D01*
X127888452Y-84606176D01*
X127937317Y-84585936D01*
X128035044Y-84545455D01*
X128190665Y-84514500D01*
X128349335Y-84514500D01*
X128504956Y-84545455D01*
X128504956Y-84545455D01*
G37*
G36*
X133584956Y-84545455D02*
G01*
X133682683Y-84585936D01*
X133731548Y-84606176D01*
X133863473Y-84694325D01*
X133975675Y-84806527D01*
X134063824Y-84938452D01*
X134063824Y-84938453D01*
X134124545Y-85085044D01*
X134155500Y-85240665D01*
X134155500Y-85399335D01*
X134124545Y-85554956D01*
X134084064Y-85652683D01*
X134063824Y-85701548D01*
X133975675Y-85833473D01*
X133863473Y-85945675D01*
X133731548Y-86033824D01*
X133682683Y-86054064D01*
X133584956Y-86094545D01*
X133429335Y-86125500D01*
X133270665Y-86125500D01*
X133115044Y-86094545D01*
X133017317Y-86054064D01*
X132968452Y-86033824D01*
X132836527Y-85945675D01*
X132724325Y-85833473D01*
X132636176Y-85701548D01*
X132615936Y-85652683D01*
X132575455Y-85554956D01*
X132544500Y-85399335D01*
X132544500Y-85240665D01*
X132575455Y-85085044D01*
X132636176Y-84938453D01*
X132636176Y-84938452D01*
X132724325Y-84806527D01*
X132836527Y-84694325D01*
X132968452Y-84606176D01*
X133017317Y-84585936D01*
X133115044Y-84545455D01*
X133270665Y-84514500D01*
X133429335Y-84514500D01*
X133584956Y-84545455D01*
X133584956Y-84545455D01*
G37*
G36*
X131044956Y-84545455D02*
G01*
X131142683Y-84585936D01*
X131191548Y-84606176D01*
X131323473Y-84694325D01*
X131435675Y-84806527D01*
X131523824Y-84938452D01*
X131523824Y-84938453D01*
X131584545Y-85085044D01*
X131615500Y-85240665D01*
X131615500Y-85399335D01*
X131584545Y-85554956D01*
X131544064Y-85652683D01*
X131523824Y-85701548D01*
X131435675Y-85833473D01*
X131323473Y-85945675D01*
X131191548Y-86033824D01*
X131142683Y-86054064D01*
X131044956Y-86094545D01*
X130889335Y-86125500D01*
X130730665Y-86125500D01*
X130575044Y-86094545D01*
X130477317Y-86054064D01*
X130428452Y-86033824D01*
X130296527Y-85945675D01*
X130184325Y-85833473D01*
X130096176Y-85701548D01*
X130075936Y-85652683D01*
X130035455Y-85554956D01*
X130004500Y-85399335D01*
X130004500Y-85240665D01*
X130035455Y-85085044D01*
X130096176Y-84938453D01*
X130096176Y-84938452D01*
X130184325Y-84806527D01*
X130296527Y-84694325D01*
X130428452Y-84606176D01*
X130477317Y-84585936D01*
X130575044Y-84545455D01*
X130730665Y-84514500D01*
X130889335Y-84514500D01*
X131044956Y-84545455D01*
X131044956Y-84545455D01*
G37*
G36*
X122154956Y-84545455D02*
G01*
X122252683Y-84585936D01*
X122301548Y-84606176D01*
X122433473Y-84694325D01*
X122545675Y-84806527D01*
X122633824Y-84938452D01*
X122633824Y-84938453D01*
X122694545Y-85085044D01*
X122725500Y-85240665D01*
X122725500Y-85399335D01*
X122694545Y-85554956D01*
X122654064Y-85652683D01*
X122633824Y-85701548D01*
X122545675Y-85833473D01*
X122433473Y-85945675D01*
X122301548Y-86033824D01*
X122252683Y-86054064D01*
X122154956Y-86094545D01*
X121999335Y-86125500D01*
X121840665Y-86125500D01*
X121685044Y-86094545D01*
X121587317Y-86054064D01*
X121538452Y-86033824D01*
X121406527Y-85945675D01*
X121294325Y-85833473D01*
X121206176Y-85701548D01*
X121185936Y-85652683D01*
X121145455Y-85554956D01*
X121114500Y-85399335D01*
X121114500Y-85240665D01*
X121145455Y-85085044D01*
X121206176Y-84938453D01*
X121206176Y-84938452D01*
X121294325Y-84806527D01*
X121406527Y-84694325D01*
X121538452Y-84606176D01*
X121587317Y-84585936D01*
X121685044Y-84545455D01*
X121840665Y-84514500D01*
X121999335Y-84514500D01*
X122154956Y-84545455D01*
X122154956Y-84545455D01*
G37*
G36*
X119614956Y-84545455D02*
G01*
X119712683Y-84585936D01*
X119761548Y-84606176D01*
X119893473Y-84694325D01*
X120005675Y-84806527D01*
X120093824Y-84938452D01*
X120093824Y-84938453D01*
X120154545Y-85085044D01*
X120185500Y-85240665D01*
X120185500Y-85399335D01*
X120154545Y-85554956D01*
X120114064Y-85652683D01*
X120093824Y-85701548D01*
X120005675Y-85833473D01*
X119893473Y-85945675D01*
X119761548Y-86033824D01*
X119712683Y-86054064D01*
X119614956Y-86094545D01*
X119459335Y-86125500D01*
X119300665Y-86125500D01*
X119145044Y-86094545D01*
X119047317Y-86054064D01*
X118998452Y-86033824D01*
X118866527Y-85945675D01*
X118754325Y-85833473D01*
X118666176Y-85701548D01*
X118645936Y-85652683D01*
X118605455Y-85554956D01*
X118574500Y-85399335D01*
X118574500Y-85240665D01*
X118605455Y-85085044D01*
X118666176Y-84938453D01*
X118666176Y-84938452D01*
X118754325Y-84806527D01*
X118866527Y-84694325D01*
X118998452Y-84606176D01*
X119047317Y-84585936D01*
X119145044Y-84545455D01*
X119300665Y-84514500D01*
X119459335Y-84514500D01*
X119614956Y-84545455D01*
X119614956Y-84545455D01*
G37*
G36*
X117074956Y-84545455D02*
G01*
X117172683Y-84585936D01*
X117221548Y-84606176D01*
X117353473Y-84694325D01*
X117465675Y-84806527D01*
X117553824Y-84938452D01*
X117553824Y-84938453D01*
X117614545Y-85085044D01*
X117645500Y-85240665D01*
X117645500Y-85399335D01*
X117614545Y-85554956D01*
X117574064Y-85652683D01*
X117553824Y-85701548D01*
X117465675Y-85833473D01*
X117353473Y-85945675D01*
X117221548Y-86033824D01*
X117172683Y-86054064D01*
X117074956Y-86094545D01*
X116919335Y-86125500D01*
X116760665Y-86125500D01*
X116605044Y-86094545D01*
X116507317Y-86054064D01*
X116458452Y-86033824D01*
X116326527Y-85945675D01*
X116214325Y-85833473D01*
X116126176Y-85701548D01*
X116105936Y-85652683D01*
X116065455Y-85554956D01*
X116034500Y-85399335D01*
X116034500Y-85240665D01*
X116065455Y-85085044D01*
X116126176Y-84938453D01*
X116126176Y-84938452D01*
X116214325Y-84806527D01*
X116326527Y-84694325D01*
X116458452Y-84606176D01*
X116507317Y-84585936D01*
X116605044Y-84545455D01*
X116760665Y-84514500D01*
X116919335Y-84514500D01*
X117074956Y-84545455D01*
X117074956Y-84545455D01*
G37*
G36*
X114534956Y-84545455D02*
G01*
X114632683Y-84585936D01*
X114681548Y-84606176D01*
X114813473Y-84694325D01*
X114925675Y-84806527D01*
X115013824Y-84938452D01*
X115013824Y-84938453D01*
X115074545Y-85085044D01*
X115105500Y-85240665D01*
X115105500Y-85399335D01*
X115074545Y-85554956D01*
X115034064Y-85652683D01*
X115013824Y-85701548D01*
X114925675Y-85833473D01*
X114813473Y-85945675D01*
X114681548Y-86033824D01*
X114632683Y-86054064D01*
X114534956Y-86094545D01*
X114379335Y-86125500D01*
X114220665Y-86125500D01*
X114065044Y-86094545D01*
X113967317Y-86054064D01*
X113918452Y-86033824D01*
X113786527Y-85945675D01*
X113674325Y-85833473D01*
X113586176Y-85701548D01*
X113565936Y-85652683D01*
X113525455Y-85554956D01*
X113494500Y-85399335D01*
X113494500Y-85240665D01*
X113525455Y-85085044D01*
X113586176Y-84938453D01*
X113586176Y-84938452D01*
X113674325Y-84806527D01*
X113786527Y-84694325D01*
X113918452Y-84606176D01*
X113967317Y-84585936D01*
X114065044Y-84545455D01*
X114220665Y-84514500D01*
X114379335Y-84514500D01*
X114534956Y-84545455D01*
X114534956Y-84545455D01*
G37*
G36*
X108184956Y-84545455D02*
G01*
X108282683Y-84585936D01*
X108331548Y-84606176D01*
X108463473Y-84694325D01*
X108575675Y-84806527D01*
X108663824Y-84938452D01*
X108663824Y-84938453D01*
X108724545Y-85085044D01*
X108755500Y-85240665D01*
X108755500Y-85399335D01*
X108724545Y-85554956D01*
X108684064Y-85652683D01*
X108663824Y-85701548D01*
X108575675Y-85833473D01*
X108463473Y-85945675D01*
X108331548Y-86033824D01*
X108282683Y-86054064D01*
X108184956Y-86094545D01*
X108029335Y-86125500D01*
X107870665Y-86125500D01*
X107715044Y-86094545D01*
X107617317Y-86054064D01*
X107568452Y-86033824D01*
X107436527Y-85945675D01*
X107324325Y-85833473D01*
X107236176Y-85701548D01*
X107215936Y-85652683D01*
X107175455Y-85554956D01*
X107144500Y-85399335D01*
X107144500Y-85240665D01*
X107175455Y-85085044D01*
X107236176Y-84938453D01*
X107236176Y-84938452D01*
X107324325Y-84806527D01*
X107436527Y-84694325D01*
X107568452Y-84606176D01*
X107617317Y-84585936D01*
X107715044Y-84545455D01*
X107870665Y-84514500D01*
X108029335Y-84514500D01*
X108184956Y-84545455D01*
X108184956Y-84545455D01*
G37*
G36*
X105644956Y-84545455D02*
G01*
X105742683Y-84585936D01*
X105791548Y-84606176D01*
X105923473Y-84694325D01*
X106035675Y-84806527D01*
X106123824Y-84938452D01*
X106123824Y-84938453D01*
X106184545Y-85085044D01*
X106215500Y-85240665D01*
X106215500Y-85399335D01*
X106184545Y-85554956D01*
X106144064Y-85652683D01*
X106123824Y-85701548D01*
X106035675Y-85833473D01*
X105923473Y-85945675D01*
X105791548Y-86033824D01*
X105742683Y-86054064D01*
X105644956Y-86094545D01*
X105489335Y-86125500D01*
X105330665Y-86125500D01*
X105175044Y-86094545D01*
X105077317Y-86054064D01*
X105028452Y-86033824D01*
X104896527Y-85945675D01*
X104784325Y-85833473D01*
X104696176Y-85701548D01*
X104675936Y-85652683D01*
X104635455Y-85554956D01*
X104604500Y-85399335D01*
X104604500Y-85240665D01*
X104635455Y-85085044D01*
X104696176Y-84938453D01*
X104696176Y-84938452D01*
X104784325Y-84806527D01*
X104896527Y-84694325D01*
X105028452Y-84606176D01*
X105077317Y-84585936D01*
X105175044Y-84545455D01*
X105330665Y-84514500D01*
X105489335Y-84514500D01*
X105644956Y-84545455D01*
X105644956Y-84545455D01*
G37*
G36*
X103104956Y-84545455D02*
G01*
X103202683Y-84585936D01*
X103251548Y-84606176D01*
X103383473Y-84694325D01*
X103495675Y-84806527D01*
X103583824Y-84938452D01*
X103583824Y-84938453D01*
X103644545Y-85085044D01*
X103675500Y-85240665D01*
X103675500Y-85399335D01*
X103644545Y-85554956D01*
X103604064Y-85652683D01*
X103583824Y-85701548D01*
X103495675Y-85833473D01*
X103383473Y-85945675D01*
X103251548Y-86033824D01*
X103202683Y-86054064D01*
X103104956Y-86094545D01*
X102949335Y-86125500D01*
X102790665Y-86125500D01*
X102635044Y-86094545D01*
X102537317Y-86054064D01*
X102488452Y-86033824D01*
X102356527Y-85945675D01*
X102244325Y-85833473D01*
X102156176Y-85701548D01*
X102135936Y-85652683D01*
X102095455Y-85554956D01*
X102064500Y-85399335D01*
X102064500Y-85240665D01*
X102095455Y-85085044D01*
X102156176Y-84938453D01*
X102156176Y-84938452D01*
X102244325Y-84806527D01*
X102356527Y-84694325D01*
X102488452Y-84606176D01*
X102537317Y-84585936D01*
X102635044Y-84545455D01*
X102790665Y-84514500D01*
X102949335Y-84514500D01*
X103104956Y-84545455D01*
X103104956Y-84545455D01*
G37*
G36*
X100564956Y-84545455D02*
G01*
X100662683Y-84585936D01*
X100711548Y-84606176D01*
X100843473Y-84694325D01*
X100955675Y-84806527D01*
X101043824Y-84938452D01*
X101043824Y-84938453D01*
X101104545Y-85085044D01*
X101135500Y-85240665D01*
X101135500Y-85399335D01*
X101104545Y-85554956D01*
X101064064Y-85652683D01*
X101043824Y-85701548D01*
X100955675Y-85833473D01*
X100843473Y-85945675D01*
X100711548Y-86033824D01*
X100662683Y-86054064D01*
X100564956Y-86094545D01*
X100409335Y-86125500D01*
X100250665Y-86125500D01*
X100095044Y-86094545D01*
X99997317Y-86054064D01*
X99948452Y-86033824D01*
X99816527Y-85945675D01*
X99704325Y-85833473D01*
X99616176Y-85701548D01*
X99595936Y-85652683D01*
X99555455Y-85554956D01*
X99524500Y-85399335D01*
X99524500Y-85240665D01*
X99555455Y-85085044D01*
X99616176Y-84938453D01*
X99616176Y-84938452D01*
X99704325Y-84806527D01*
X99816527Y-84694325D01*
X99948452Y-84606176D01*
X99997317Y-84585936D01*
X100095044Y-84545455D01*
X100250665Y-84514500D01*
X100409335Y-84514500D01*
X100564956Y-84545455D01*
X100564956Y-84545455D01*
G37*
G36*
X175494956Y-84545455D02*
G01*
X175592683Y-84585936D01*
X175641548Y-84606176D01*
X175773473Y-84694325D01*
X175885675Y-84806527D01*
X175973824Y-84938452D01*
X175973824Y-84938453D01*
X176034545Y-85085044D01*
X176065500Y-85240665D01*
X176065500Y-85399335D01*
X176034545Y-85554956D01*
X175994064Y-85652683D01*
X175973824Y-85701548D01*
X175885675Y-85833473D01*
X175773473Y-85945675D01*
X175641548Y-86033824D01*
X175592683Y-86054064D01*
X175494956Y-86094545D01*
X175339335Y-86125500D01*
X175180665Y-86125500D01*
X175025044Y-86094545D01*
X174927317Y-86054064D01*
X174878452Y-86033824D01*
X174746527Y-85945675D01*
X174634325Y-85833473D01*
X174546176Y-85701548D01*
X174525936Y-85652683D01*
X174485455Y-85554956D01*
X174454500Y-85399335D01*
X174454500Y-85240665D01*
X174485455Y-85085044D01*
X174546176Y-84938453D01*
X174546176Y-84938452D01*
X174634325Y-84806527D01*
X174746527Y-84694325D01*
X174878452Y-84606176D01*
X174927317Y-84585936D01*
X175025044Y-84545455D01*
X175180665Y-84514500D01*
X175339335Y-84514500D01*
X175494956Y-84545455D01*
X175494956Y-84545455D01*
G37*
G36*
X172954956Y-84545455D02*
G01*
X173052683Y-84585936D01*
X173101548Y-84606176D01*
X173233473Y-84694325D01*
X173345675Y-84806527D01*
X173433824Y-84938452D01*
X173433824Y-84938453D01*
X173494545Y-85085044D01*
X173525500Y-85240665D01*
X173525500Y-85399335D01*
X173494545Y-85554956D01*
X173454064Y-85652683D01*
X173433824Y-85701548D01*
X173345675Y-85833473D01*
X173233473Y-85945675D01*
X173101548Y-86033824D01*
X173052683Y-86054064D01*
X172954956Y-86094545D01*
X172799335Y-86125500D01*
X172640665Y-86125500D01*
X172485044Y-86094545D01*
X172387317Y-86054064D01*
X172338452Y-86033824D01*
X172206527Y-85945675D01*
X172094325Y-85833473D01*
X172006176Y-85701548D01*
X171985936Y-85652683D01*
X171945455Y-85554956D01*
X171914500Y-85399335D01*
X171914500Y-85240665D01*
X171945455Y-85085044D01*
X172006176Y-84938453D01*
X172006176Y-84938452D01*
X172094325Y-84806527D01*
X172206527Y-84694325D01*
X172338452Y-84606176D01*
X172387317Y-84585936D01*
X172485044Y-84545455D01*
X172640665Y-84514500D01*
X172799335Y-84514500D01*
X172954956Y-84545455D01*
X172954956Y-84545455D01*
G37*
G36*
X142474956Y-84545455D02*
G01*
X142572683Y-84585936D01*
X142621548Y-84606176D01*
X142753473Y-84694325D01*
X142865675Y-84806527D01*
X142953824Y-84938452D01*
X142953824Y-84938453D01*
X143014545Y-85085044D01*
X143045500Y-85240665D01*
X143045500Y-85399335D01*
X143014545Y-85554956D01*
X142974064Y-85652683D01*
X142953824Y-85701548D01*
X142865675Y-85833473D01*
X142753473Y-85945675D01*
X142621548Y-86033824D01*
X142572683Y-86054064D01*
X142474956Y-86094545D01*
X142319335Y-86125500D01*
X142160665Y-86125500D01*
X142005044Y-86094545D01*
X141907317Y-86054064D01*
X141858452Y-86033824D01*
X141726527Y-85945675D01*
X141614325Y-85833473D01*
X141526176Y-85701548D01*
X141505936Y-85652683D01*
X141465455Y-85554956D01*
X141434500Y-85399335D01*
X141434500Y-85240665D01*
X141465455Y-85085044D01*
X141526176Y-84938453D01*
X141526176Y-84938452D01*
X141614325Y-84806527D01*
X141726527Y-84694325D01*
X141858452Y-84606176D01*
X141907317Y-84585936D01*
X142005044Y-84545455D01*
X142160665Y-84514500D01*
X142319335Y-84514500D01*
X142474956Y-84545455D01*
X142474956Y-84545455D01*
G37*
G36*
X164064956Y-84545455D02*
G01*
X164162683Y-84585936D01*
X164211548Y-84606176D01*
X164343473Y-84694325D01*
X164455675Y-84806527D01*
X164543824Y-84938452D01*
X164543824Y-84938453D01*
X164604545Y-85085044D01*
X164635500Y-85240665D01*
X164635500Y-85399335D01*
X164604545Y-85554956D01*
X164564064Y-85652683D01*
X164543824Y-85701548D01*
X164455675Y-85833473D01*
X164343473Y-85945675D01*
X164211548Y-86033824D01*
X164162683Y-86054064D01*
X164064956Y-86094545D01*
X163909335Y-86125500D01*
X163750665Y-86125500D01*
X163595044Y-86094545D01*
X163497317Y-86054064D01*
X163448452Y-86033824D01*
X163316527Y-85945675D01*
X163204325Y-85833473D01*
X163116176Y-85701548D01*
X163095936Y-85652683D01*
X163055455Y-85554956D01*
X163024500Y-85399335D01*
X163024500Y-85240665D01*
X163055455Y-85085044D01*
X163116176Y-84938453D01*
X163116176Y-84938452D01*
X163204325Y-84806527D01*
X163316527Y-84694325D01*
X163448452Y-84606176D01*
X163497317Y-84585936D01*
X163595044Y-84545455D01*
X163750665Y-84514500D01*
X163909335Y-84514500D01*
X164064956Y-84545455D01*
X164064956Y-84545455D01*
G37*
G36*
X161524956Y-84545455D02*
G01*
X161622683Y-84585936D01*
X161671548Y-84606176D01*
X161803473Y-84694325D01*
X161915675Y-84806527D01*
X162003824Y-84938452D01*
X162003824Y-84938453D01*
X162064545Y-85085044D01*
X162095500Y-85240665D01*
X162095500Y-85399335D01*
X162064545Y-85554956D01*
X162024064Y-85652683D01*
X162003824Y-85701548D01*
X161915675Y-85833473D01*
X161803473Y-85945675D01*
X161671548Y-86033824D01*
X161622683Y-86054064D01*
X161524956Y-86094545D01*
X161369335Y-86125500D01*
X161210665Y-86125500D01*
X161055044Y-86094545D01*
X160957317Y-86054064D01*
X160908452Y-86033824D01*
X160776527Y-85945675D01*
X160664325Y-85833473D01*
X160576176Y-85701548D01*
X160555936Y-85652683D01*
X160515455Y-85554956D01*
X160484500Y-85399335D01*
X160484500Y-85240665D01*
X160515455Y-85085044D01*
X160576176Y-84938453D01*
X160576176Y-84938452D01*
X160664325Y-84806527D01*
X160776527Y-84694325D01*
X160908452Y-84606176D01*
X160957317Y-84585936D01*
X161055044Y-84545455D01*
X161210665Y-84514500D01*
X161369335Y-84514500D01*
X161524956Y-84545455D01*
X161524956Y-84545455D01*
G37*
G36*
X158984956Y-84545455D02*
G01*
X159082683Y-84585936D01*
X159131548Y-84606176D01*
X159263473Y-84694325D01*
X159375675Y-84806527D01*
X159463824Y-84938452D01*
X159463824Y-84938453D01*
X159524545Y-85085044D01*
X159555500Y-85240665D01*
X159555500Y-85399335D01*
X159524545Y-85554956D01*
X159484064Y-85652683D01*
X159463824Y-85701548D01*
X159375675Y-85833473D01*
X159263473Y-85945675D01*
X159131548Y-86033824D01*
X159082683Y-86054064D01*
X158984956Y-86094545D01*
X158829335Y-86125500D01*
X158670665Y-86125500D01*
X158515044Y-86094545D01*
X158417317Y-86054064D01*
X158368452Y-86033824D01*
X158236527Y-85945675D01*
X158124325Y-85833473D01*
X158036176Y-85701548D01*
X158015936Y-85652683D01*
X157975455Y-85554956D01*
X157944500Y-85399335D01*
X157944500Y-85240665D01*
X157975455Y-85085044D01*
X158036176Y-84938453D01*
X158036176Y-84938452D01*
X158124325Y-84806527D01*
X158236527Y-84694325D01*
X158368452Y-84606176D01*
X158417317Y-84585936D01*
X158515044Y-84545455D01*
X158670665Y-84514500D01*
X158829335Y-84514500D01*
X158984956Y-84545455D01*
X158984956Y-84545455D01*
G37*
G36*
X156444956Y-84545455D02*
G01*
X156542683Y-84585936D01*
X156591548Y-84606176D01*
X156723473Y-84694325D01*
X156835675Y-84806527D01*
X156923824Y-84938452D01*
X156923824Y-84938453D01*
X156984545Y-85085044D01*
X157015500Y-85240665D01*
X157015500Y-85399335D01*
X156984545Y-85554956D01*
X156944064Y-85652683D01*
X156923824Y-85701548D01*
X156835675Y-85833473D01*
X156723473Y-85945675D01*
X156591548Y-86033824D01*
X156542683Y-86054064D01*
X156444956Y-86094545D01*
X156289335Y-86125500D01*
X156130665Y-86125500D01*
X155975044Y-86094545D01*
X155877317Y-86054064D01*
X155828452Y-86033824D01*
X155696527Y-85945675D01*
X155584325Y-85833473D01*
X155496176Y-85701548D01*
X155475936Y-85652683D01*
X155435455Y-85554956D01*
X155404500Y-85399335D01*
X155404500Y-85240665D01*
X155435455Y-85085044D01*
X155496176Y-84938453D01*
X155496176Y-84938452D01*
X155584325Y-84806527D01*
X155696527Y-84694325D01*
X155828452Y-84606176D01*
X155877317Y-84585936D01*
X155975044Y-84545455D01*
X156130665Y-84514500D01*
X156289335Y-84514500D01*
X156444956Y-84545455D01*
X156444956Y-84545455D01*
G37*
G36*
X150094956Y-84545455D02*
G01*
X150192683Y-84585936D01*
X150241548Y-84606176D01*
X150373473Y-84694325D01*
X150485675Y-84806527D01*
X150573824Y-84938452D01*
X150573824Y-84938453D01*
X150634545Y-85085044D01*
X150665500Y-85240665D01*
X150665500Y-85399335D01*
X150634545Y-85554956D01*
X150594064Y-85652683D01*
X150573824Y-85701548D01*
X150485675Y-85833473D01*
X150373473Y-85945675D01*
X150241548Y-86033824D01*
X150192683Y-86054064D01*
X150094956Y-86094545D01*
X149939335Y-86125500D01*
X149780665Y-86125500D01*
X149625044Y-86094545D01*
X149527317Y-86054064D01*
X149478452Y-86033824D01*
X149346527Y-85945675D01*
X149234325Y-85833473D01*
X149146176Y-85701548D01*
X149125936Y-85652683D01*
X149085455Y-85554956D01*
X149054500Y-85399335D01*
X149054500Y-85240665D01*
X149085455Y-85085044D01*
X149146176Y-84938453D01*
X149146176Y-84938452D01*
X149234325Y-84806527D01*
X149346527Y-84694325D01*
X149478452Y-84606176D01*
X149527317Y-84585936D01*
X149625044Y-84545455D01*
X149780665Y-84514500D01*
X149939335Y-84514500D01*
X150094956Y-84545455D01*
X150094956Y-84545455D01*
G37*
G36*
X147554956Y-84545455D02*
G01*
X147652683Y-84585936D01*
X147701548Y-84606176D01*
X147833473Y-84694325D01*
X147945675Y-84806527D01*
X148033824Y-84938452D01*
X148033824Y-84938453D01*
X148094545Y-85085044D01*
X148125500Y-85240665D01*
X148125500Y-85399335D01*
X148094545Y-85554956D01*
X148054064Y-85652683D01*
X148033824Y-85701548D01*
X147945675Y-85833473D01*
X147833473Y-85945675D01*
X147701548Y-86033824D01*
X147652683Y-86054064D01*
X147554956Y-86094545D01*
X147399335Y-86125500D01*
X147240665Y-86125500D01*
X147085044Y-86094545D01*
X146987317Y-86054064D01*
X146938452Y-86033824D01*
X146806527Y-85945675D01*
X146694325Y-85833473D01*
X146606176Y-85701548D01*
X146585936Y-85652683D01*
X146545455Y-85554956D01*
X146514500Y-85399335D01*
X146514500Y-85240665D01*
X146545455Y-85085044D01*
X146606176Y-84938453D01*
X146606176Y-84938452D01*
X146694325Y-84806527D01*
X146806527Y-84694325D01*
X146938452Y-84606176D01*
X146987317Y-84585936D01*
X147085044Y-84545455D01*
X147240665Y-84514500D01*
X147399335Y-84514500D01*
X147554956Y-84545455D01*
X147554956Y-84545455D01*
G37*
G36*
X145014956Y-84545455D02*
G01*
X145112683Y-84585936D01*
X145161548Y-84606176D01*
X145293473Y-84694325D01*
X145405675Y-84806527D01*
X145493824Y-84938452D01*
X145493824Y-84938453D01*
X145554545Y-85085044D01*
X145585500Y-85240665D01*
X145585500Y-85399335D01*
X145554545Y-85554956D01*
X145514064Y-85652683D01*
X145493824Y-85701548D01*
X145405675Y-85833473D01*
X145293473Y-85945675D01*
X145161548Y-86033824D01*
X145112683Y-86054064D01*
X145014956Y-86094545D01*
X144859335Y-86125500D01*
X144700665Y-86125500D01*
X144545044Y-86094545D01*
X144447317Y-86054064D01*
X144398452Y-86033824D01*
X144266527Y-85945675D01*
X144154325Y-85833473D01*
X144066176Y-85701548D01*
X144045936Y-85652683D01*
X144005455Y-85554956D01*
X143974500Y-85399335D01*
X143974500Y-85240665D01*
X144005455Y-85085044D01*
X144066176Y-84938453D01*
X144066176Y-84938452D01*
X144154325Y-84806527D01*
X144266527Y-84694325D01*
X144398452Y-84606176D01*
X144447317Y-84585936D01*
X144545044Y-84545455D01*
X144700665Y-84514500D01*
X144859335Y-84514500D01*
X145014956Y-84545455D01*
X145014956Y-84545455D01*
G37*
G36*
X170414956Y-84545455D02*
G01*
X170512683Y-84585936D01*
X170561548Y-84606176D01*
X170693473Y-84694325D01*
X170805675Y-84806527D01*
X170893824Y-84938452D01*
X170893824Y-84938453D01*
X170954545Y-85085044D01*
X170985500Y-85240665D01*
X170985500Y-85399335D01*
X170954545Y-85554956D01*
X170914064Y-85652683D01*
X170893824Y-85701548D01*
X170805675Y-85833473D01*
X170693473Y-85945675D01*
X170561548Y-86033824D01*
X170512683Y-86054064D01*
X170414956Y-86094545D01*
X170259335Y-86125500D01*
X170100665Y-86125500D01*
X169945044Y-86094545D01*
X169847317Y-86054064D01*
X169798452Y-86033824D01*
X169666527Y-85945675D01*
X169554325Y-85833473D01*
X169466176Y-85701548D01*
X169445936Y-85652683D01*
X169405455Y-85554956D01*
X169374500Y-85399335D01*
X169374500Y-85240665D01*
X169405455Y-85085044D01*
X169466176Y-84938453D01*
X169466176Y-84938452D01*
X169554325Y-84806527D01*
X169666527Y-84694325D01*
X169798452Y-84606176D01*
X169847317Y-84585936D01*
X169945044Y-84545455D01*
X170100665Y-84514500D01*
X170259335Y-84514500D01*
X170414956Y-84545455D01*
X170414956Y-84545455D01*
G37*
G36*
X178034956Y-84545455D02*
G01*
X178132683Y-84585936D01*
X178181548Y-84606176D01*
X178313473Y-84694325D01*
X178425675Y-84806527D01*
X178513824Y-84938452D01*
X178513824Y-84938453D01*
X178574545Y-85085044D01*
X178605500Y-85240665D01*
X178605500Y-85399335D01*
X178574545Y-85554956D01*
X178534064Y-85652683D01*
X178513824Y-85701548D01*
X178425675Y-85833473D01*
X178313473Y-85945675D01*
X178181548Y-86033824D01*
X178132683Y-86054064D01*
X178034956Y-86094545D01*
X177879335Y-86125500D01*
X177720665Y-86125500D01*
X177565044Y-86094545D01*
X177467317Y-86054064D01*
X177418452Y-86033824D01*
X177286527Y-85945675D01*
X177174325Y-85833473D01*
X177086176Y-85701548D01*
X177065936Y-85652683D01*
X177025455Y-85554956D01*
X176994500Y-85399335D01*
X176994500Y-85240665D01*
X177025455Y-85085044D01*
X177086176Y-84938453D01*
X177086176Y-84938452D01*
X177174325Y-84806527D01*
X177286527Y-84694325D01*
X177418452Y-84606176D01*
X177467317Y-84585936D01*
X177565044Y-84545455D01*
X177720665Y-84514500D01*
X177879335Y-84514500D01*
X178034956Y-84545455D01*
X178034956Y-84545455D01*
G37*
G36*
X97139885Y-81258005D02*
G01*
X97305842Y-81291016D01*
X97540334Y-81388146D01*
X97751371Y-81529156D01*
X97930844Y-81708629D01*
X98071854Y-81919666D01*
X98168984Y-82154158D01*
X98218500Y-82403094D01*
X98218500Y-82656906D01*
X98168984Y-82905842D01*
X98071854Y-83140334D01*
X97930844Y-83351371D01*
X97751371Y-83530844D01*
X97540334Y-83671854D01*
X97305842Y-83768984D01*
X97139885Y-83801995D01*
X97056907Y-83818500D01*
X96803093Y-83818500D01*
X96720115Y-83801995D01*
X96554158Y-83768984D01*
X96319666Y-83671854D01*
X96108629Y-83530844D01*
X95929156Y-83351371D01*
X95788146Y-83140334D01*
X95691016Y-82905842D01*
X95641500Y-82656906D01*
X95641500Y-82403094D01*
X95691016Y-82154158D01*
X95788146Y-81919666D01*
X95929156Y-81708629D01*
X96108629Y-81529156D01*
X96319666Y-81388146D01*
X96554158Y-81291016D01*
X96720115Y-81258005D01*
X96803093Y-81241500D01*
X97056907Y-81241500D01*
X97139885Y-81258005D01*
X97139885Y-81258005D01*
G37*
G36*
X143744956Y-82005455D02*
G01*
X143842683Y-82045936D01*
X143891548Y-82066176D01*
X144023473Y-82154325D01*
X144135675Y-82266527D01*
X144223824Y-82398452D01*
X144244064Y-82447317D01*
X144284545Y-82545044D01*
X144315500Y-82700665D01*
X144315500Y-82859335D01*
X144284545Y-83014956D01*
X144244064Y-83112683D01*
X144223824Y-83161548D01*
X144135675Y-83293473D01*
X144023473Y-83405675D01*
X143891548Y-83493824D01*
X143842683Y-83514064D01*
X143744956Y-83554545D01*
X143589335Y-83585500D01*
X143430665Y-83585500D01*
X143275044Y-83554545D01*
X143177317Y-83514064D01*
X143128452Y-83493824D01*
X142996527Y-83405675D01*
X142884325Y-83293473D01*
X142796176Y-83161548D01*
X142775936Y-83112683D01*
X142735455Y-83014956D01*
X142704500Y-82859335D01*
X142704500Y-82700665D01*
X142735455Y-82545044D01*
X142775936Y-82447317D01*
X142796176Y-82398452D01*
X142884325Y-82266527D01*
X142996527Y-82154325D01*
X143128452Y-82066176D01*
X143177317Y-82045936D01*
X143275044Y-82005455D01*
X143430665Y-81974500D01*
X143589335Y-81974500D01*
X143744956Y-82005455D01*
X143744956Y-82005455D01*
G37*
G36*
X165334956Y-82005455D02*
G01*
X165432683Y-82045936D01*
X165481548Y-82066176D01*
X165613473Y-82154325D01*
X165725675Y-82266527D01*
X165813824Y-82398452D01*
X165834064Y-82447317D01*
X165874545Y-82545044D01*
X165905500Y-82700665D01*
X165905500Y-82859335D01*
X165874545Y-83014956D01*
X165834064Y-83112683D01*
X165813824Y-83161548D01*
X165725675Y-83293473D01*
X165613473Y-83405675D01*
X165481548Y-83493824D01*
X165432683Y-83514064D01*
X165334956Y-83554545D01*
X165179335Y-83585500D01*
X165020665Y-83585500D01*
X164865044Y-83554545D01*
X164767317Y-83514064D01*
X164718452Y-83493824D01*
X164586527Y-83405675D01*
X164474325Y-83293473D01*
X164386176Y-83161548D01*
X164365936Y-83112683D01*
X164325455Y-83014956D01*
X164294500Y-82859335D01*
X164294500Y-82700665D01*
X164325455Y-82545044D01*
X164365936Y-82447317D01*
X164386176Y-82398452D01*
X164474325Y-82266527D01*
X164586527Y-82154325D01*
X164718452Y-82066176D01*
X164767317Y-82045936D01*
X164865044Y-82005455D01*
X165020665Y-81974500D01*
X165179335Y-81974500D01*
X165334956Y-82005455D01*
X165334956Y-82005455D01*
G37*
G36*
X162794956Y-82005455D02*
G01*
X162892683Y-82045936D01*
X162941548Y-82066176D01*
X163073473Y-82154325D01*
X163185675Y-82266527D01*
X163273824Y-82398452D01*
X163294064Y-82447317D01*
X163334545Y-82545044D01*
X163365500Y-82700665D01*
X163365500Y-82859335D01*
X163334545Y-83014956D01*
X163294064Y-83112683D01*
X163273824Y-83161548D01*
X163185675Y-83293473D01*
X163073473Y-83405675D01*
X162941548Y-83493824D01*
X162892683Y-83514064D01*
X162794956Y-83554545D01*
X162639335Y-83585500D01*
X162480665Y-83585500D01*
X162325044Y-83554545D01*
X162227317Y-83514064D01*
X162178452Y-83493824D01*
X162046527Y-83405675D01*
X161934325Y-83293473D01*
X161846176Y-83161548D01*
X161825936Y-83112683D01*
X161785455Y-83014956D01*
X161754500Y-82859335D01*
X161754500Y-82700665D01*
X161785455Y-82545044D01*
X161825936Y-82447317D01*
X161846176Y-82398452D01*
X161934325Y-82266527D01*
X162046527Y-82154325D01*
X162178452Y-82066176D01*
X162227317Y-82045936D01*
X162325044Y-82005455D01*
X162480665Y-81974500D01*
X162639335Y-81974500D01*
X162794956Y-82005455D01*
X162794956Y-82005455D01*
G37*
G36*
X160254956Y-82005455D02*
G01*
X160352683Y-82045936D01*
X160401548Y-82066176D01*
X160533473Y-82154325D01*
X160645675Y-82266527D01*
X160733824Y-82398452D01*
X160754064Y-82447317D01*
X160794545Y-82545044D01*
X160825500Y-82700665D01*
X160825500Y-82859335D01*
X160794545Y-83014956D01*
X160754064Y-83112683D01*
X160733824Y-83161548D01*
X160645675Y-83293473D01*
X160533473Y-83405675D01*
X160401548Y-83493824D01*
X160352683Y-83514064D01*
X160254956Y-83554545D01*
X160099335Y-83585500D01*
X159940665Y-83585500D01*
X159785044Y-83554545D01*
X159687317Y-83514064D01*
X159638452Y-83493824D01*
X159506527Y-83405675D01*
X159394325Y-83293473D01*
X159306176Y-83161548D01*
X159285936Y-83112683D01*
X159245455Y-83014956D01*
X159214500Y-82859335D01*
X159214500Y-82700665D01*
X159245455Y-82545044D01*
X159285936Y-82447317D01*
X159306176Y-82398452D01*
X159394325Y-82266527D01*
X159506527Y-82154325D01*
X159638452Y-82066176D01*
X159687317Y-82045936D01*
X159785044Y-82005455D01*
X159940665Y-81974500D01*
X160099335Y-81974500D01*
X160254956Y-82005455D01*
X160254956Y-82005455D01*
G37*
G36*
X174224956Y-82005455D02*
G01*
X174322683Y-82045936D01*
X174371548Y-82066176D01*
X174503473Y-82154325D01*
X174615675Y-82266527D01*
X174703824Y-82398452D01*
X174724064Y-82447317D01*
X174764545Y-82545044D01*
X174795500Y-82700665D01*
X174795500Y-82859335D01*
X174764545Y-83014956D01*
X174724064Y-83112683D01*
X174703824Y-83161548D01*
X174615675Y-83293473D01*
X174503473Y-83405675D01*
X174371548Y-83493824D01*
X174322683Y-83514064D01*
X174224956Y-83554545D01*
X174069335Y-83585500D01*
X173910665Y-83585500D01*
X173755044Y-83554545D01*
X173657317Y-83514064D01*
X173608452Y-83493824D01*
X173476527Y-83405675D01*
X173364325Y-83293473D01*
X173276176Y-83161548D01*
X173255936Y-83112683D01*
X173215455Y-83014956D01*
X173184500Y-82859335D01*
X173184500Y-82700665D01*
X173215455Y-82545044D01*
X173255936Y-82447317D01*
X173276176Y-82398452D01*
X173364325Y-82266527D01*
X173476527Y-82154325D01*
X173608452Y-82066176D01*
X173657317Y-82045936D01*
X173755044Y-82005455D01*
X173910665Y-81974500D01*
X174069335Y-81974500D01*
X174224956Y-82005455D01*
X174224956Y-82005455D01*
G37*
G36*
X157714956Y-82005455D02*
G01*
X157812683Y-82045936D01*
X157861548Y-82066176D01*
X157993473Y-82154325D01*
X158105675Y-82266527D01*
X158193824Y-82398452D01*
X158214064Y-82447317D01*
X158254545Y-82545044D01*
X158285500Y-82700665D01*
X158285500Y-82859335D01*
X158254545Y-83014956D01*
X158214064Y-83112683D01*
X158193824Y-83161548D01*
X158105675Y-83293473D01*
X157993473Y-83405675D01*
X157861548Y-83493824D01*
X157812683Y-83514064D01*
X157714956Y-83554545D01*
X157559335Y-83585500D01*
X157400665Y-83585500D01*
X157245044Y-83554545D01*
X157147317Y-83514064D01*
X157098452Y-83493824D01*
X156966527Y-83405675D01*
X156854325Y-83293473D01*
X156766176Y-83161548D01*
X156745936Y-83112683D01*
X156705455Y-83014956D01*
X156674500Y-82859335D01*
X156674500Y-82700665D01*
X156705455Y-82545044D01*
X156745936Y-82447317D01*
X156766176Y-82398452D01*
X156854325Y-82266527D01*
X156966527Y-82154325D01*
X157098452Y-82066176D01*
X157147317Y-82045936D01*
X157245044Y-82005455D01*
X157400665Y-81974500D01*
X157559335Y-81974500D01*
X157714956Y-82005455D01*
X157714956Y-82005455D01*
G37*
G36*
X171684956Y-82005455D02*
G01*
X171782683Y-82045936D01*
X171831548Y-82066176D01*
X171963473Y-82154325D01*
X172075675Y-82266527D01*
X172163824Y-82398452D01*
X172184064Y-82447317D01*
X172224545Y-82545044D01*
X172255500Y-82700665D01*
X172255500Y-82859335D01*
X172224545Y-83014956D01*
X172184064Y-83112683D01*
X172163824Y-83161548D01*
X172075675Y-83293473D01*
X171963473Y-83405675D01*
X171831548Y-83493824D01*
X171782683Y-83514064D01*
X171684956Y-83554545D01*
X171529335Y-83585500D01*
X171370665Y-83585500D01*
X171215044Y-83554545D01*
X171117317Y-83514064D01*
X171068452Y-83493824D01*
X170936527Y-83405675D01*
X170824325Y-83293473D01*
X170736176Y-83161548D01*
X170715936Y-83112683D01*
X170675455Y-83014956D01*
X170644500Y-82859335D01*
X170644500Y-82700665D01*
X170675455Y-82545044D01*
X170715936Y-82447317D01*
X170736176Y-82398452D01*
X170824325Y-82266527D01*
X170936527Y-82154325D01*
X171068452Y-82066176D01*
X171117317Y-82045936D01*
X171215044Y-82005455D01*
X171370665Y-81974500D01*
X171529335Y-81974500D01*
X171684956Y-82005455D01*
X171684956Y-82005455D01*
G37*
G36*
X176764956Y-82005455D02*
G01*
X176862683Y-82045936D01*
X176911548Y-82066176D01*
X177043473Y-82154325D01*
X177155675Y-82266527D01*
X177243824Y-82398452D01*
X177264064Y-82447317D01*
X177304545Y-82545044D01*
X177335500Y-82700665D01*
X177335500Y-82859335D01*
X177304545Y-83014956D01*
X177264064Y-83112683D01*
X177243824Y-83161548D01*
X177155675Y-83293473D01*
X177043473Y-83405675D01*
X176911548Y-83493824D01*
X176862683Y-83514064D01*
X176764956Y-83554545D01*
X176609335Y-83585500D01*
X176450665Y-83585500D01*
X176295044Y-83554545D01*
X176197317Y-83514064D01*
X176148452Y-83493824D01*
X176016527Y-83405675D01*
X175904325Y-83293473D01*
X175816176Y-83161548D01*
X175795936Y-83112683D01*
X175755455Y-83014956D01*
X175724500Y-82859335D01*
X175724500Y-82700665D01*
X175755455Y-82545044D01*
X175795936Y-82447317D01*
X175816176Y-82398452D01*
X175904325Y-82266527D01*
X176016527Y-82154325D01*
X176148452Y-82066176D01*
X176197317Y-82045936D01*
X176295044Y-82005455D01*
X176450665Y-81974500D01*
X176609335Y-81974500D01*
X176764956Y-82005455D01*
X176764956Y-82005455D01*
G37*
G36*
X148824956Y-82005455D02*
G01*
X148922683Y-82045936D01*
X148971548Y-82066176D01*
X149103473Y-82154325D01*
X149215675Y-82266527D01*
X149303824Y-82398452D01*
X149324064Y-82447317D01*
X149364545Y-82545044D01*
X149395500Y-82700665D01*
X149395500Y-82859335D01*
X149364545Y-83014956D01*
X149324064Y-83112683D01*
X149303824Y-83161548D01*
X149215675Y-83293473D01*
X149103473Y-83405675D01*
X148971548Y-83493824D01*
X148922683Y-83514064D01*
X148824956Y-83554545D01*
X148669335Y-83585500D01*
X148510665Y-83585500D01*
X148355044Y-83554545D01*
X148257317Y-83514064D01*
X148208452Y-83493824D01*
X148076527Y-83405675D01*
X147964325Y-83293473D01*
X147876176Y-83161548D01*
X147855936Y-83112683D01*
X147815455Y-83014956D01*
X147784500Y-82859335D01*
X147784500Y-82700665D01*
X147815455Y-82545044D01*
X147855936Y-82447317D01*
X147876176Y-82398452D01*
X147964325Y-82266527D01*
X148076527Y-82154325D01*
X148208452Y-82066176D01*
X148257317Y-82045936D01*
X148355044Y-82005455D01*
X148510665Y-81974500D01*
X148669335Y-81974500D01*
X148824956Y-82005455D01*
X148824956Y-82005455D01*
G37*
G36*
X179304956Y-82005455D02*
G01*
X179402683Y-82045936D01*
X179451548Y-82066176D01*
X179583473Y-82154325D01*
X179695675Y-82266527D01*
X179783824Y-82398452D01*
X179804064Y-82447317D01*
X179844545Y-82545044D01*
X179875500Y-82700665D01*
X179875500Y-82859335D01*
X179844545Y-83014956D01*
X179804064Y-83112683D01*
X179783824Y-83161548D01*
X179695675Y-83293473D01*
X179583473Y-83405675D01*
X179451548Y-83493824D01*
X179402683Y-83514064D01*
X179304956Y-83554545D01*
X179149335Y-83585500D01*
X178990665Y-83585500D01*
X178835044Y-83554545D01*
X178737317Y-83514064D01*
X178688452Y-83493824D01*
X178556527Y-83405675D01*
X178444325Y-83293473D01*
X178356176Y-83161548D01*
X178335936Y-83112683D01*
X178295455Y-83014956D01*
X178264500Y-82859335D01*
X178264500Y-82700665D01*
X178295455Y-82545044D01*
X178335936Y-82447317D01*
X178356176Y-82398452D01*
X178444325Y-82266527D01*
X178556527Y-82154325D01*
X178688452Y-82066176D01*
X178737317Y-82045936D01*
X178835044Y-82005455D01*
X178990665Y-81974500D01*
X179149335Y-81974500D01*
X179304956Y-82005455D01*
X179304956Y-82005455D01*
G37*
G36*
X151364956Y-82005455D02*
G01*
X151462683Y-82045936D01*
X151511548Y-82066176D01*
X151643473Y-82154325D01*
X151755675Y-82266527D01*
X151843824Y-82398452D01*
X151864064Y-82447317D01*
X151904545Y-82545044D01*
X151935500Y-82700665D01*
X151935500Y-82859335D01*
X151904545Y-83014956D01*
X151864064Y-83112683D01*
X151843824Y-83161548D01*
X151755675Y-83293473D01*
X151643473Y-83405675D01*
X151511548Y-83493824D01*
X151462683Y-83514064D01*
X151364956Y-83554545D01*
X151209335Y-83585500D01*
X151050665Y-83585500D01*
X150895044Y-83554545D01*
X150797317Y-83514064D01*
X150748452Y-83493824D01*
X150616527Y-83405675D01*
X150504325Y-83293473D01*
X150416176Y-83161548D01*
X150395936Y-83112683D01*
X150355455Y-83014956D01*
X150324500Y-82859335D01*
X150324500Y-82700665D01*
X150355455Y-82545044D01*
X150395936Y-82447317D01*
X150416176Y-82398452D01*
X150504325Y-82266527D01*
X150616527Y-82154325D01*
X150748452Y-82066176D01*
X150797317Y-82045936D01*
X150895044Y-82005455D01*
X151050665Y-81974500D01*
X151209335Y-81974500D01*
X151364956Y-82005455D01*
X151364956Y-82005455D01*
G37*
G36*
X101834956Y-82005455D02*
G01*
X101932683Y-82045936D01*
X101981548Y-82066176D01*
X102113473Y-82154325D01*
X102225675Y-82266527D01*
X102313824Y-82398452D01*
X102334064Y-82447317D01*
X102374545Y-82545044D01*
X102405500Y-82700665D01*
X102405500Y-82859335D01*
X102374545Y-83014956D01*
X102334064Y-83112683D01*
X102313824Y-83161548D01*
X102225675Y-83293473D01*
X102113473Y-83405675D01*
X101981548Y-83493824D01*
X101932683Y-83514064D01*
X101834956Y-83554545D01*
X101679335Y-83585500D01*
X101520665Y-83585500D01*
X101365044Y-83554545D01*
X101267317Y-83514064D01*
X101218452Y-83493824D01*
X101086527Y-83405675D01*
X100974325Y-83293473D01*
X100886176Y-83161548D01*
X100865936Y-83112683D01*
X100825455Y-83014956D01*
X100794500Y-82859335D01*
X100794500Y-82700665D01*
X100825455Y-82545044D01*
X100865936Y-82447317D01*
X100886176Y-82398452D01*
X100974325Y-82266527D01*
X101086527Y-82154325D01*
X101218452Y-82066176D01*
X101267317Y-82045936D01*
X101365044Y-82005455D01*
X101520665Y-81974500D01*
X101679335Y-81974500D01*
X101834956Y-82005455D01*
X101834956Y-82005455D01*
G37*
G36*
X123424956Y-82005455D02*
G01*
X123522683Y-82045936D01*
X123571548Y-82066176D01*
X123703473Y-82154325D01*
X123815675Y-82266527D01*
X123903824Y-82398452D01*
X123924064Y-82447317D01*
X123964545Y-82545044D01*
X123995500Y-82700665D01*
X123995500Y-82859335D01*
X123964545Y-83014956D01*
X123924064Y-83112683D01*
X123903824Y-83161548D01*
X123815675Y-83293473D01*
X123703473Y-83405675D01*
X123571548Y-83493824D01*
X123522683Y-83514064D01*
X123424956Y-83554545D01*
X123269335Y-83585500D01*
X123110665Y-83585500D01*
X122955044Y-83554545D01*
X122857317Y-83514064D01*
X122808452Y-83493824D01*
X122676527Y-83405675D01*
X122564325Y-83293473D01*
X122476176Y-83161548D01*
X122455936Y-83112683D01*
X122415455Y-83014956D01*
X122384500Y-82859335D01*
X122384500Y-82700665D01*
X122415455Y-82545044D01*
X122455936Y-82447317D01*
X122476176Y-82398452D01*
X122564325Y-82266527D01*
X122676527Y-82154325D01*
X122808452Y-82066176D01*
X122857317Y-82045936D01*
X122955044Y-82005455D01*
X123110665Y-81974500D01*
X123269335Y-81974500D01*
X123424956Y-82005455D01*
X123424956Y-82005455D01*
G37*
G36*
X115804956Y-82005455D02*
G01*
X115902683Y-82045936D01*
X115951548Y-82066176D01*
X116083473Y-82154325D01*
X116195675Y-82266527D01*
X116283824Y-82398452D01*
X116304064Y-82447317D01*
X116344545Y-82545044D01*
X116375500Y-82700665D01*
X116375500Y-82859335D01*
X116344545Y-83014956D01*
X116304064Y-83112683D01*
X116283824Y-83161548D01*
X116195675Y-83293473D01*
X116083473Y-83405675D01*
X115951548Y-83493824D01*
X115902683Y-83514064D01*
X115804956Y-83554545D01*
X115649335Y-83585500D01*
X115490665Y-83585500D01*
X115335044Y-83554545D01*
X115237317Y-83514064D01*
X115188452Y-83493824D01*
X115056527Y-83405675D01*
X114944325Y-83293473D01*
X114856176Y-83161548D01*
X114835936Y-83112683D01*
X114795455Y-83014956D01*
X114764500Y-82859335D01*
X114764500Y-82700665D01*
X114795455Y-82545044D01*
X114835936Y-82447317D01*
X114856176Y-82398452D01*
X114944325Y-82266527D01*
X115056527Y-82154325D01*
X115188452Y-82066176D01*
X115237317Y-82045936D01*
X115335044Y-82005455D01*
X115490665Y-81974500D01*
X115649335Y-81974500D01*
X115804956Y-82005455D01*
X115804956Y-82005455D01*
G37*
G36*
X129774956Y-82005455D02*
G01*
X129872683Y-82045936D01*
X129921548Y-82066176D01*
X130053473Y-82154325D01*
X130165675Y-82266527D01*
X130253824Y-82398452D01*
X130274064Y-82447317D01*
X130314545Y-82545044D01*
X130345500Y-82700665D01*
X130345500Y-82859335D01*
X130314545Y-83014956D01*
X130274064Y-83112683D01*
X130253824Y-83161548D01*
X130165675Y-83293473D01*
X130053473Y-83405675D01*
X129921548Y-83493824D01*
X129872683Y-83514064D01*
X129774956Y-83554545D01*
X129619335Y-83585500D01*
X129460665Y-83585500D01*
X129305044Y-83554545D01*
X129207317Y-83514064D01*
X129158452Y-83493824D01*
X129026527Y-83405675D01*
X128914325Y-83293473D01*
X128826176Y-83161548D01*
X128805936Y-83112683D01*
X128765455Y-83014956D01*
X128734500Y-82859335D01*
X128734500Y-82700665D01*
X128765455Y-82545044D01*
X128805936Y-82447317D01*
X128826176Y-82398452D01*
X128914325Y-82266527D01*
X129026527Y-82154325D01*
X129158452Y-82066176D01*
X129207317Y-82045936D01*
X129305044Y-82005455D01*
X129460665Y-81974500D01*
X129619335Y-81974500D01*
X129774956Y-82005455D01*
X129774956Y-82005455D01*
G37*
G36*
X118344956Y-82005455D02*
G01*
X118442683Y-82045936D01*
X118491548Y-82066176D01*
X118623473Y-82154325D01*
X118735675Y-82266527D01*
X118823824Y-82398452D01*
X118844064Y-82447317D01*
X118884545Y-82545044D01*
X118915500Y-82700665D01*
X118915500Y-82859335D01*
X118884545Y-83014956D01*
X118844064Y-83112683D01*
X118823824Y-83161548D01*
X118735675Y-83293473D01*
X118623473Y-83405675D01*
X118491548Y-83493824D01*
X118442683Y-83514064D01*
X118344956Y-83554545D01*
X118189335Y-83585500D01*
X118030665Y-83585500D01*
X117875044Y-83554545D01*
X117777317Y-83514064D01*
X117728452Y-83493824D01*
X117596527Y-83405675D01*
X117484325Y-83293473D01*
X117396176Y-83161548D01*
X117375936Y-83112683D01*
X117335455Y-83014956D01*
X117304500Y-82859335D01*
X117304500Y-82700665D01*
X117335455Y-82545044D01*
X117375936Y-82447317D01*
X117396176Y-82398452D01*
X117484325Y-82266527D01*
X117596527Y-82154325D01*
X117728452Y-82066176D01*
X117777317Y-82045936D01*
X117875044Y-82005455D01*
X118030665Y-81974500D01*
X118189335Y-81974500D01*
X118344956Y-82005455D01*
X118344956Y-82005455D01*
G37*
G36*
X104374956Y-82005455D02*
G01*
X104472683Y-82045936D01*
X104521548Y-82066176D01*
X104653473Y-82154325D01*
X104765675Y-82266527D01*
X104853824Y-82398452D01*
X104874064Y-82447317D01*
X104914545Y-82545044D01*
X104945500Y-82700665D01*
X104945500Y-82859335D01*
X104914545Y-83014956D01*
X104874064Y-83112683D01*
X104853824Y-83161548D01*
X104765675Y-83293473D01*
X104653473Y-83405675D01*
X104521548Y-83493824D01*
X104472683Y-83514064D01*
X104374956Y-83554545D01*
X104219335Y-83585500D01*
X104060665Y-83585500D01*
X103905044Y-83554545D01*
X103807317Y-83514064D01*
X103758452Y-83493824D01*
X103626527Y-83405675D01*
X103514325Y-83293473D01*
X103426176Y-83161548D01*
X103405936Y-83112683D01*
X103365455Y-83014956D01*
X103334500Y-82859335D01*
X103334500Y-82700665D01*
X103365455Y-82545044D01*
X103405936Y-82447317D01*
X103426176Y-82398452D01*
X103514325Y-82266527D01*
X103626527Y-82154325D01*
X103758452Y-82066176D01*
X103807317Y-82045936D01*
X103905044Y-82005455D01*
X104060665Y-81974500D01*
X104219335Y-81974500D01*
X104374956Y-82005455D01*
X104374956Y-82005455D01*
G37*
G36*
X134854956Y-82005455D02*
G01*
X134952683Y-82045936D01*
X135001548Y-82066176D01*
X135133473Y-82154325D01*
X135245675Y-82266527D01*
X135333824Y-82398452D01*
X135354064Y-82447317D01*
X135394545Y-82545044D01*
X135425500Y-82700665D01*
X135425500Y-82859335D01*
X135394545Y-83014956D01*
X135354064Y-83112683D01*
X135333824Y-83161548D01*
X135245675Y-83293473D01*
X135133473Y-83405675D01*
X135001548Y-83493824D01*
X134952683Y-83514064D01*
X134854956Y-83554545D01*
X134699335Y-83585500D01*
X134540665Y-83585500D01*
X134385044Y-83554545D01*
X134287317Y-83514064D01*
X134238452Y-83493824D01*
X134106527Y-83405675D01*
X133994325Y-83293473D01*
X133906176Y-83161548D01*
X133885936Y-83112683D01*
X133845455Y-83014956D01*
X133814500Y-82859335D01*
X133814500Y-82700665D01*
X133845455Y-82545044D01*
X133885936Y-82447317D01*
X133906176Y-82398452D01*
X133994325Y-82266527D01*
X134106527Y-82154325D01*
X134238452Y-82066176D01*
X134287317Y-82045936D01*
X134385044Y-82005455D01*
X134540665Y-81974500D01*
X134699335Y-81974500D01*
X134854956Y-82005455D01*
X134854956Y-82005455D01*
G37*
G36*
X109454956Y-82005455D02*
G01*
X109552683Y-82045936D01*
X109601548Y-82066176D01*
X109733473Y-82154325D01*
X109845675Y-82266527D01*
X109933824Y-82398452D01*
X109954064Y-82447317D01*
X109994545Y-82545044D01*
X110025500Y-82700665D01*
X110025500Y-82859335D01*
X109994545Y-83014956D01*
X109954064Y-83112683D01*
X109933824Y-83161548D01*
X109845675Y-83293473D01*
X109733473Y-83405675D01*
X109601548Y-83493824D01*
X109552683Y-83514064D01*
X109454956Y-83554545D01*
X109299335Y-83585500D01*
X109140665Y-83585500D01*
X108985044Y-83554545D01*
X108887317Y-83514064D01*
X108838452Y-83493824D01*
X108706527Y-83405675D01*
X108594325Y-83293473D01*
X108506176Y-83161548D01*
X108485936Y-83112683D01*
X108445455Y-83014956D01*
X108414500Y-82859335D01*
X108414500Y-82700665D01*
X108445455Y-82545044D01*
X108485936Y-82447317D01*
X108506176Y-82398452D01*
X108594325Y-82266527D01*
X108706527Y-82154325D01*
X108838452Y-82066176D01*
X108887317Y-82045936D01*
X108985044Y-82005455D01*
X109140665Y-81974500D01*
X109299335Y-81974500D01*
X109454956Y-82005455D01*
X109454956Y-82005455D01*
G37*
G36*
X137394956Y-82005455D02*
G01*
X137492683Y-82045936D01*
X137541548Y-82066176D01*
X137673473Y-82154325D01*
X137785675Y-82266527D01*
X137873824Y-82398452D01*
X137894064Y-82447317D01*
X137934545Y-82545044D01*
X137965500Y-82700665D01*
X137965500Y-82859335D01*
X137934545Y-83014956D01*
X137894064Y-83112683D01*
X137873824Y-83161548D01*
X137785675Y-83293473D01*
X137673473Y-83405675D01*
X137541548Y-83493824D01*
X137492683Y-83514064D01*
X137394956Y-83554545D01*
X137239335Y-83585500D01*
X137080665Y-83585500D01*
X136925044Y-83554545D01*
X136827317Y-83514064D01*
X136778452Y-83493824D01*
X136646527Y-83405675D01*
X136534325Y-83293473D01*
X136446176Y-83161548D01*
X136425936Y-83112683D01*
X136385455Y-83014956D01*
X136354500Y-82859335D01*
X136354500Y-82700665D01*
X136385455Y-82545044D01*
X136425936Y-82447317D01*
X136446176Y-82398452D01*
X136534325Y-82266527D01*
X136646527Y-82154325D01*
X136778452Y-82066176D01*
X136827317Y-82045936D01*
X136925044Y-82005455D01*
X137080665Y-81974500D01*
X137239335Y-81974500D01*
X137394956Y-82005455D01*
X137394956Y-82005455D01*
G37*
G36*
X106914956Y-82005455D02*
G01*
X107012683Y-82045936D01*
X107061548Y-82066176D01*
X107193473Y-82154325D01*
X107305675Y-82266527D01*
X107393824Y-82398452D01*
X107414064Y-82447317D01*
X107454545Y-82545044D01*
X107485500Y-82700665D01*
X107485500Y-82859335D01*
X107454545Y-83014956D01*
X107414064Y-83112683D01*
X107393824Y-83161548D01*
X107305675Y-83293473D01*
X107193473Y-83405675D01*
X107061548Y-83493824D01*
X107012683Y-83514064D01*
X106914956Y-83554545D01*
X106759335Y-83585500D01*
X106600665Y-83585500D01*
X106445044Y-83554545D01*
X106347317Y-83514064D01*
X106298452Y-83493824D01*
X106166527Y-83405675D01*
X106054325Y-83293473D01*
X105966176Y-83161548D01*
X105945936Y-83112683D01*
X105905455Y-83014956D01*
X105874500Y-82859335D01*
X105874500Y-82700665D01*
X105905455Y-82545044D01*
X105945936Y-82447317D01*
X105966176Y-82398452D01*
X106054325Y-82266527D01*
X106166527Y-82154325D01*
X106298452Y-82066176D01*
X106347317Y-82045936D01*
X106445044Y-82005455D01*
X106600665Y-81974500D01*
X106759335Y-81974500D01*
X106914956Y-82005455D01*
X106914956Y-82005455D01*
G37*
G36*
X132314956Y-82005455D02*
G01*
X132412683Y-82045936D01*
X132461548Y-82066176D01*
X132593473Y-82154325D01*
X132705675Y-82266527D01*
X132793824Y-82398452D01*
X132814064Y-82447317D01*
X132854545Y-82545044D01*
X132885500Y-82700665D01*
X132885500Y-82859335D01*
X132854545Y-83014956D01*
X132814064Y-83112683D01*
X132793824Y-83161548D01*
X132705675Y-83293473D01*
X132593473Y-83405675D01*
X132461548Y-83493824D01*
X132412683Y-83514064D01*
X132314956Y-83554545D01*
X132159335Y-83585500D01*
X132000665Y-83585500D01*
X131845044Y-83554545D01*
X131747317Y-83514064D01*
X131698452Y-83493824D01*
X131566527Y-83405675D01*
X131454325Y-83293473D01*
X131366176Y-83161548D01*
X131345936Y-83112683D01*
X131305455Y-83014956D01*
X131274500Y-82859335D01*
X131274500Y-82700665D01*
X131305455Y-82545044D01*
X131345936Y-82447317D01*
X131366176Y-82398452D01*
X131454325Y-82266527D01*
X131566527Y-82154325D01*
X131698452Y-82066176D01*
X131747317Y-82045936D01*
X131845044Y-82005455D01*
X132000665Y-81974500D01*
X132159335Y-81974500D01*
X132314956Y-82005455D01*
X132314956Y-82005455D01*
G37*
G36*
X146284956Y-82005455D02*
G01*
X146382683Y-82045936D01*
X146431548Y-82066176D01*
X146563473Y-82154325D01*
X146675675Y-82266527D01*
X146763824Y-82398452D01*
X146784064Y-82447317D01*
X146824545Y-82545044D01*
X146855500Y-82700665D01*
X146855500Y-82859335D01*
X146824545Y-83014956D01*
X146784064Y-83112683D01*
X146763824Y-83161548D01*
X146675675Y-83293473D01*
X146563473Y-83405675D01*
X146431548Y-83493824D01*
X146382683Y-83514064D01*
X146284956Y-83554545D01*
X146129335Y-83585500D01*
X145970665Y-83585500D01*
X145815044Y-83554545D01*
X145717317Y-83514064D01*
X145668452Y-83493824D01*
X145536527Y-83405675D01*
X145424325Y-83293473D01*
X145336176Y-83161548D01*
X145315936Y-83112683D01*
X145275455Y-83014956D01*
X145244500Y-82859335D01*
X145244500Y-82700665D01*
X145275455Y-82545044D01*
X145315936Y-82447317D01*
X145336176Y-82398452D01*
X145424325Y-82266527D01*
X145536527Y-82154325D01*
X145668452Y-82066176D01*
X145717317Y-82045936D01*
X145815044Y-82005455D01*
X145970665Y-81974500D01*
X146129335Y-81974500D01*
X146284956Y-82005455D01*
X146284956Y-82005455D01*
G37*
G36*
X120884956Y-82005455D02*
G01*
X120982683Y-82045936D01*
X121031548Y-82066176D01*
X121163473Y-82154325D01*
X121275675Y-82266527D01*
X121363824Y-82398452D01*
X121384064Y-82447317D01*
X121424545Y-82545044D01*
X121455500Y-82700665D01*
X121455500Y-82859335D01*
X121424545Y-83014956D01*
X121384064Y-83112683D01*
X121363824Y-83161548D01*
X121275675Y-83293473D01*
X121163473Y-83405675D01*
X121031548Y-83493824D01*
X120982683Y-83514064D01*
X120884956Y-83554545D01*
X120729335Y-83585500D01*
X120570665Y-83585500D01*
X120415044Y-83554545D01*
X120317317Y-83514064D01*
X120268452Y-83493824D01*
X120136527Y-83405675D01*
X120024325Y-83293473D01*
X119936176Y-83161548D01*
X119915936Y-83112683D01*
X119875455Y-83014956D01*
X119844500Y-82859335D01*
X119844500Y-82700665D01*
X119875455Y-82545044D01*
X119915936Y-82447317D01*
X119936176Y-82398452D01*
X120024325Y-82266527D01*
X120136527Y-82154325D01*
X120268452Y-82066176D01*
X120317317Y-82045936D01*
X120415044Y-82005455D01*
X120570665Y-81974500D01*
X120729335Y-81974500D01*
X120884956Y-82005455D01*
X120884956Y-82005455D01*
G37*
G36*
X183344885Y-79018005D02*
G01*
X183510842Y-79051016D01*
X183745334Y-79148146D01*
X183956371Y-79289156D01*
X184135844Y-79468629D01*
X184276854Y-79679666D01*
X184373984Y-79914158D01*
X184423500Y-80163094D01*
X184423500Y-80416906D01*
X184373984Y-80665842D01*
X184276854Y-80900334D01*
X184135844Y-81111371D01*
X183956371Y-81290844D01*
X183745334Y-81431854D01*
X183510842Y-81528984D01*
X183344885Y-81561995D01*
X183261907Y-81578500D01*
X183008093Y-81578500D01*
X182925115Y-81561995D01*
X182759158Y-81528984D01*
X182524666Y-81431854D01*
X182313629Y-81290844D01*
X182134156Y-81111371D01*
X181993146Y-80900334D01*
X181896016Y-80665842D01*
X181846500Y-80416906D01*
X181846500Y-80163094D01*
X181896016Y-79914158D01*
X181993146Y-79679666D01*
X182134156Y-79468629D01*
X182313629Y-79289156D01*
X182524666Y-79148146D01*
X182759158Y-79051016D01*
X182925115Y-79018005D01*
X183008093Y-79001500D01*
X183261907Y-79001500D01*
X183344885Y-79018005D01*
X183344885Y-79018005D01*
G37*
G36*
X178034956Y-77965455D02*
G01*
X178132683Y-78005936D01*
X178181548Y-78026176D01*
X178313473Y-78114325D01*
X178425675Y-78226527D01*
X178513824Y-78358452D01*
X178513824Y-78358453D01*
X178574545Y-78505044D01*
X178605500Y-78660665D01*
X178605500Y-78819335D01*
X178574545Y-78974956D01*
X178543039Y-79051016D01*
X178513824Y-79121548D01*
X178425675Y-79253473D01*
X178313473Y-79365675D01*
X178181548Y-79453824D01*
X178145805Y-79468629D01*
X178034956Y-79514545D01*
X177879335Y-79545500D01*
X177720665Y-79545500D01*
X177565044Y-79514545D01*
X177454195Y-79468629D01*
X177418452Y-79453824D01*
X177286527Y-79365675D01*
X177174325Y-79253473D01*
X177086176Y-79121548D01*
X177056961Y-79051016D01*
X177025455Y-78974956D01*
X176994500Y-78819335D01*
X176994500Y-78660665D01*
X177025455Y-78505044D01*
X177086176Y-78358453D01*
X177086176Y-78358452D01*
X177174325Y-78226527D01*
X177286527Y-78114325D01*
X177418452Y-78026176D01*
X177467317Y-78005936D01*
X177565044Y-77965455D01*
X177720665Y-77934500D01*
X177879335Y-77934500D01*
X178034956Y-77965455D01*
X178034956Y-77965455D01*
G37*
G36*
X175494956Y-77965455D02*
G01*
X175592683Y-78005936D01*
X175641548Y-78026176D01*
X175773473Y-78114325D01*
X175885675Y-78226527D01*
X175973824Y-78358452D01*
X175973824Y-78358453D01*
X176034545Y-78505044D01*
X176065500Y-78660665D01*
X176065500Y-78819335D01*
X176034545Y-78974956D01*
X176003039Y-79051016D01*
X175973824Y-79121548D01*
X175885675Y-79253473D01*
X175773473Y-79365675D01*
X175641548Y-79453824D01*
X175605805Y-79468629D01*
X175494956Y-79514545D01*
X175339335Y-79545500D01*
X175180665Y-79545500D01*
X175025044Y-79514545D01*
X174914195Y-79468629D01*
X174878452Y-79453824D01*
X174746527Y-79365675D01*
X174634325Y-79253473D01*
X174546176Y-79121548D01*
X174516961Y-79051016D01*
X174485455Y-78974956D01*
X174454500Y-78819335D01*
X174454500Y-78660665D01*
X174485455Y-78505044D01*
X174546176Y-78358453D01*
X174546176Y-78358452D01*
X174634325Y-78226527D01*
X174746527Y-78114325D01*
X174878452Y-78026176D01*
X174927317Y-78005936D01*
X175025044Y-77965455D01*
X175180665Y-77934500D01*
X175339335Y-77934500D01*
X175494956Y-77965455D01*
X175494956Y-77965455D01*
G37*
G36*
X172954956Y-77965455D02*
G01*
X173052683Y-78005936D01*
X173101548Y-78026176D01*
X173233473Y-78114325D01*
X173345675Y-78226527D01*
X173433824Y-78358452D01*
X173433824Y-78358453D01*
X173494545Y-78505044D01*
X173525500Y-78660665D01*
X173525500Y-78819335D01*
X173494545Y-78974956D01*
X173463039Y-79051016D01*
X173433824Y-79121548D01*
X173345675Y-79253473D01*
X173233473Y-79365675D01*
X173101548Y-79453824D01*
X173065805Y-79468629D01*
X172954956Y-79514545D01*
X172799335Y-79545500D01*
X172640665Y-79545500D01*
X172485044Y-79514545D01*
X172374195Y-79468629D01*
X172338452Y-79453824D01*
X172206527Y-79365675D01*
X172094325Y-79253473D01*
X172006176Y-79121548D01*
X171976961Y-79051016D01*
X171945455Y-78974956D01*
X171914500Y-78819335D01*
X171914500Y-78660665D01*
X171945455Y-78505044D01*
X172006176Y-78358453D01*
X172006176Y-78358452D01*
X172094325Y-78226527D01*
X172206527Y-78114325D01*
X172338452Y-78026176D01*
X172387317Y-78005936D01*
X172485044Y-77965455D01*
X172640665Y-77934500D01*
X172799335Y-77934500D01*
X172954956Y-77965455D01*
X172954956Y-77965455D01*
G37*
G36*
X170414956Y-77965455D02*
G01*
X170512683Y-78005936D01*
X170561548Y-78026176D01*
X170693473Y-78114325D01*
X170805675Y-78226527D01*
X170893824Y-78358452D01*
X170893824Y-78358453D01*
X170954545Y-78505044D01*
X170985500Y-78660665D01*
X170985500Y-78819335D01*
X170954545Y-78974956D01*
X170923039Y-79051016D01*
X170893824Y-79121548D01*
X170805675Y-79253473D01*
X170693473Y-79365675D01*
X170561548Y-79453824D01*
X170525805Y-79468629D01*
X170414956Y-79514545D01*
X170259335Y-79545500D01*
X170100665Y-79545500D01*
X169945044Y-79514545D01*
X169834195Y-79468629D01*
X169798452Y-79453824D01*
X169666527Y-79365675D01*
X169554325Y-79253473D01*
X169466176Y-79121548D01*
X169436961Y-79051016D01*
X169405455Y-78974956D01*
X169374500Y-78819335D01*
X169374500Y-78660665D01*
X169405455Y-78505044D01*
X169466176Y-78358453D01*
X169466176Y-78358452D01*
X169554325Y-78226527D01*
X169666527Y-78114325D01*
X169798452Y-78026176D01*
X169847317Y-78005936D01*
X169945044Y-77965455D01*
X170100665Y-77934500D01*
X170259335Y-77934500D01*
X170414956Y-77965455D01*
X170414956Y-77965455D01*
G37*
G36*
X164064956Y-77965455D02*
G01*
X164162683Y-78005936D01*
X164211548Y-78026176D01*
X164343473Y-78114325D01*
X164455675Y-78226527D01*
X164543824Y-78358452D01*
X164543824Y-78358453D01*
X164604545Y-78505044D01*
X164635500Y-78660665D01*
X164635500Y-78819335D01*
X164604545Y-78974956D01*
X164573039Y-79051016D01*
X164543824Y-79121548D01*
X164455675Y-79253473D01*
X164343473Y-79365675D01*
X164211548Y-79453824D01*
X164175805Y-79468629D01*
X164064956Y-79514545D01*
X163909335Y-79545500D01*
X163750665Y-79545500D01*
X163595044Y-79514545D01*
X163484195Y-79468629D01*
X163448452Y-79453824D01*
X163316527Y-79365675D01*
X163204325Y-79253473D01*
X163116176Y-79121548D01*
X163086961Y-79051016D01*
X163055455Y-78974956D01*
X163024500Y-78819335D01*
X163024500Y-78660665D01*
X163055455Y-78505044D01*
X163116176Y-78358453D01*
X163116176Y-78358452D01*
X163204325Y-78226527D01*
X163316527Y-78114325D01*
X163448452Y-78026176D01*
X163497317Y-78005936D01*
X163595044Y-77965455D01*
X163750665Y-77934500D01*
X163909335Y-77934500D01*
X164064956Y-77965455D01*
X164064956Y-77965455D01*
G37*
G36*
X150094956Y-77965455D02*
G01*
X150192683Y-78005936D01*
X150241548Y-78026176D01*
X150373473Y-78114325D01*
X150485675Y-78226527D01*
X150573824Y-78358452D01*
X150573824Y-78358453D01*
X150634545Y-78505044D01*
X150665500Y-78660665D01*
X150665500Y-78819335D01*
X150634545Y-78974956D01*
X150603039Y-79051016D01*
X150573824Y-79121548D01*
X150485675Y-79253473D01*
X150373473Y-79365675D01*
X150241548Y-79453824D01*
X150205805Y-79468629D01*
X150094956Y-79514545D01*
X149939335Y-79545500D01*
X149780665Y-79545500D01*
X149625044Y-79514545D01*
X149514195Y-79468629D01*
X149478452Y-79453824D01*
X149346527Y-79365675D01*
X149234325Y-79253473D01*
X149146176Y-79121548D01*
X149116961Y-79051016D01*
X149085455Y-78974956D01*
X149054500Y-78819335D01*
X149054500Y-78660665D01*
X149085455Y-78505044D01*
X149146176Y-78358453D01*
X149146176Y-78358452D01*
X149234325Y-78226527D01*
X149346527Y-78114325D01*
X149478452Y-78026176D01*
X149527317Y-78005936D01*
X149625044Y-77965455D01*
X149780665Y-77934500D01*
X149939335Y-77934500D01*
X150094956Y-77965455D01*
X150094956Y-77965455D01*
G37*
G36*
X142474956Y-77965455D02*
G01*
X142572683Y-78005936D01*
X142621548Y-78026176D01*
X142753473Y-78114325D01*
X142865675Y-78226527D01*
X142953824Y-78358452D01*
X142953824Y-78358453D01*
X143014545Y-78505044D01*
X143045500Y-78660665D01*
X143045500Y-78819335D01*
X143014545Y-78974956D01*
X142983039Y-79051016D01*
X142953824Y-79121548D01*
X142865675Y-79253473D01*
X142753473Y-79365675D01*
X142621548Y-79453824D01*
X142585805Y-79468629D01*
X142474956Y-79514545D01*
X142319335Y-79545500D01*
X142160665Y-79545500D01*
X142005044Y-79514545D01*
X141894195Y-79468629D01*
X141858452Y-79453824D01*
X141726527Y-79365675D01*
X141614325Y-79253473D01*
X141526176Y-79121548D01*
X141496961Y-79051016D01*
X141465455Y-78974956D01*
X141434500Y-78819335D01*
X141434500Y-78660665D01*
X141465455Y-78505044D01*
X141526176Y-78358453D01*
X141526176Y-78358452D01*
X141614325Y-78226527D01*
X141726527Y-78114325D01*
X141858452Y-78026176D01*
X141907317Y-78005936D01*
X142005044Y-77965455D01*
X142160665Y-77934500D01*
X142319335Y-77934500D01*
X142474956Y-77965455D01*
X142474956Y-77965455D01*
G37*
G36*
X145014956Y-77965455D02*
G01*
X145112683Y-78005936D01*
X145161548Y-78026176D01*
X145293473Y-78114325D01*
X145405675Y-78226527D01*
X145493824Y-78358452D01*
X145493824Y-78358453D01*
X145554545Y-78505044D01*
X145585500Y-78660665D01*
X145585500Y-78819335D01*
X145554545Y-78974956D01*
X145523039Y-79051016D01*
X145493824Y-79121548D01*
X145405675Y-79253473D01*
X145293473Y-79365675D01*
X145161548Y-79453824D01*
X145125805Y-79468629D01*
X145014956Y-79514545D01*
X144859335Y-79545500D01*
X144700665Y-79545500D01*
X144545044Y-79514545D01*
X144434195Y-79468629D01*
X144398452Y-79453824D01*
X144266527Y-79365675D01*
X144154325Y-79253473D01*
X144066176Y-79121548D01*
X144036961Y-79051016D01*
X144005455Y-78974956D01*
X143974500Y-78819335D01*
X143974500Y-78660665D01*
X144005455Y-78505044D01*
X144066176Y-78358453D01*
X144066176Y-78358452D01*
X144154325Y-78226527D01*
X144266527Y-78114325D01*
X144398452Y-78026176D01*
X144447317Y-78005936D01*
X144545044Y-77965455D01*
X144700665Y-77934500D01*
X144859335Y-77934500D01*
X145014956Y-77965455D01*
X145014956Y-77965455D01*
G37*
G36*
X147554956Y-77965455D02*
G01*
X147652683Y-78005936D01*
X147701548Y-78026176D01*
X147833473Y-78114325D01*
X147945675Y-78226527D01*
X148033824Y-78358452D01*
X148033824Y-78358453D01*
X148094545Y-78505044D01*
X148125500Y-78660665D01*
X148125500Y-78819335D01*
X148094545Y-78974956D01*
X148063039Y-79051016D01*
X148033824Y-79121548D01*
X147945675Y-79253473D01*
X147833473Y-79365675D01*
X147701548Y-79453824D01*
X147665805Y-79468629D01*
X147554956Y-79514545D01*
X147399335Y-79545500D01*
X147240665Y-79545500D01*
X147085044Y-79514545D01*
X146974195Y-79468629D01*
X146938452Y-79453824D01*
X146806527Y-79365675D01*
X146694325Y-79253473D01*
X146606176Y-79121548D01*
X146576961Y-79051016D01*
X146545455Y-78974956D01*
X146514500Y-78819335D01*
X146514500Y-78660665D01*
X146545455Y-78505044D01*
X146606176Y-78358453D01*
X146606176Y-78358452D01*
X146694325Y-78226527D01*
X146806527Y-78114325D01*
X146938452Y-78026176D01*
X146987317Y-78005936D01*
X147085044Y-77965455D01*
X147240665Y-77934500D01*
X147399335Y-77934500D01*
X147554956Y-77965455D01*
X147554956Y-77965455D01*
G37*
G36*
X156444956Y-77965455D02*
G01*
X156542683Y-78005936D01*
X156591548Y-78026176D01*
X156723473Y-78114325D01*
X156835675Y-78226527D01*
X156923824Y-78358452D01*
X156923824Y-78358453D01*
X156984545Y-78505044D01*
X157015500Y-78660665D01*
X157015500Y-78819335D01*
X156984545Y-78974956D01*
X156953039Y-79051016D01*
X156923824Y-79121548D01*
X156835675Y-79253473D01*
X156723473Y-79365675D01*
X156591548Y-79453824D01*
X156555805Y-79468629D01*
X156444956Y-79514545D01*
X156289335Y-79545500D01*
X156130665Y-79545500D01*
X155975044Y-79514545D01*
X155864195Y-79468629D01*
X155828452Y-79453824D01*
X155696527Y-79365675D01*
X155584325Y-79253473D01*
X155496176Y-79121548D01*
X155466961Y-79051016D01*
X155435455Y-78974956D01*
X155404500Y-78819335D01*
X155404500Y-78660665D01*
X155435455Y-78505044D01*
X155496176Y-78358453D01*
X155496176Y-78358452D01*
X155584325Y-78226527D01*
X155696527Y-78114325D01*
X155828452Y-78026176D01*
X155877317Y-78005936D01*
X155975044Y-77965455D01*
X156130665Y-77934500D01*
X156289335Y-77934500D01*
X156444956Y-77965455D01*
X156444956Y-77965455D01*
G37*
G36*
X161524956Y-77965455D02*
G01*
X161622683Y-78005936D01*
X161671548Y-78026176D01*
X161803473Y-78114325D01*
X161915675Y-78226527D01*
X162003824Y-78358452D01*
X162003824Y-78358453D01*
X162064545Y-78505044D01*
X162095500Y-78660665D01*
X162095500Y-78819335D01*
X162064545Y-78974956D01*
X162033039Y-79051016D01*
X162003824Y-79121548D01*
X161915675Y-79253473D01*
X161803473Y-79365675D01*
X161671548Y-79453824D01*
X161635805Y-79468629D01*
X161524956Y-79514545D01*
X161369335Y-79545500D01*
X161210665Y-79545500D01*
X161055044Y-79514545D01*
X160944195Y-79468629D01*
X160908452Y-79453824D01*
X160776527Y-79365675D01*
X160664325Y-79253473D01*
X160576176Y-79121548D01*
X160546961Y-79051016D01*
X160515455Y-78974956D01*
X160484500Y-78819335D01*
X160484500Y-78660665D01*
X160515455Y-78505044D01*
X160576176Y-78358453D01*
X160576176Y-78358452D01*
X160664325Y-78226527D01*
X160776527Y-78114325D01*
X160908452Y-78026176D01*
X160957317Y-78005936D01*
X161055044Y-77965455D01*
X161210665Y-77934500D01*
X161369335Y-77934500D01*
X161524956Y-77965455D01*
X161524956Y-77965455D01*
G37*
G36*
X158984956Y-77965455D02*
G01*
X159082683Y-78005936D01*
X159131548Y-78026176D01*
X159263473Y-78114325D01*
X159375675Y-78226527D01*
X159463824Y-78358452D01*
X159463824Y-78358453D01*
X159524545Y-78505044D01*
X159555500Y-78660665D01*
X159555500Y-78819335D01*
X159524545Y-78974956D01*
X159493039Y-79051016D01*
X159463824Y-79121548D01*
X159375675Y-79253473D01*
X159263473Y-79365675D01*
X159131548Y-79453824D01*
X159095805Y-79468629D01*
X158984956Y-79514545D01*
X158829335Y-79545500D01*
X158670665Y-79545500D01*
X158515044Y-79514545D01*
X158404195Y-79468629D01*
X158368452Y-79453824D01*
X158236527Y-79365675D01*
X158124325Y-79253473D01*
X158036176Y-79121548D01*
X158006961Y-79051016D01*
X157975455Y-78974956D01*
X157944500Y-78819335D01*
X157944500Y-78660665D01*
X157975455Y-78505044D01*
X158036176Y-78358453D01*
X158036176Y-78358452D01*
X158124325Y-78226527D01*
X158236527Y-78114325D01*
X158368452Y-78026176D01*
X158417317Y-78005936D01*
X158515044Y-77965455D01*
X158670665Y-77934500D01*
X158829335Y-77934500D01*
X158984956Y-77965455D01*
X158984956Y-77965455D01*
G37*
G36*
X117074956Y-77965455D02*
G01*
X117172683Y-78005936D01*
X117221548Y-78026176D01*
X117353473Y-78114325D01*
X117465675Y-78226527D01*
X117553824Y-78358452D01*
X117553824Y-78358453D01*
X117614545Y-78505044D01*
X117645500Y-78660665D01*
X117645500Y-78819335D01*
X117614545Y-78974956D01*
X117583039Y-79051016D01*
X117553824Y-79121548D01*
X117465675Y-79253473D01*
X117353473Y-79365675D01*
X117221548Y-79453824D01*
X117185805Y-79468629D01*
X117074956Y-79514545D01*
X116919335Y-79545500D01*
X116760665Y-79545500D01*
X116605044Y-79514545D01*
X116494195Y-79468629D01*
X116458452Y-79453824D01*
X116326527Y-79365675D01*
X116214325Y-79253473D01*
X116126176Y-79121548D01*
X116096961Y-79051016D01*
X116065455Y-78974956D01*
X116034500Y-78819335D01*
X116034500Y-78660665D01*
X116065455Y-78505044D01*
X116126176Y-78358453D01*
X116126176Y-78358452D01*
X116214325Y-78226527D01*
X116326527Y-78114325D01*
X116458452Y-78026176D01*
X116507317Y-78005936D01*
X116605044Y-77965455D01*
X116760665Y-77934500D01*
X116919335Y-77934500D01*
X117074956Y-77965455D01*
X117074956Y-77965455D01*
G37*
G36*
X119614956Y-77965455D02*
G01*
X119712683Y-78005936D01*
X119761548Y-78026176D01*
X119893473Y-78114325D01*
X120005675Y-78226527D01*
X120093824Y-78358452D01*
X120093824Y-78358453D01*
X120154545Y-78505044D01*
X120185500Y-78660665D01*
X120185500Y-78819335D01*
X120154545Y-78974956D01*
X120123039Y-79051016D01*
X120093824Y-79121548D01*
X120005675Y-79253473D01*
X119893473Y-79365675D01*
X119761548Y-79453824D01*
X119725805Y-79468629D01*
X119614956Y-79514545D01*
X119459335Y-79545500D01*
X119300665Y-79545500D01*
X119145044Y-79514545D01*
X119034195Y-79468629D01*
X118998452Y-79453824D01*
X118866527Y-79365675D01*
X118754325Y-79253473D01*
X118666176Y-79121548D01*
X118636961Y-79051016D01*
X118605455Y-78974956D01*
X118574500Y-78819335D01*
X118574500Y-78660665D01*
X118605455Y-78505044D01*
X118666176Y-78358453D01*
X118666176Y-78358452D01*
X118754325Y-78226527D01*
X118866527Y-78114325D01*
X118998452Y-78026176D01*
X119047317Y-78005936D01*
X119145044Y-77965455D01*
X119300665Y-77934500D01*
X119459335Y-77934500D01*
X119614956Y-77965455D01*
X119614956Y-77965455D01*
G37*
G36*
X114534956Y-77965455D02*
G01*
X114632683Y-78005936D01*
X114681548Y-78026176D01*
X114813473Y-78114325D01*
X114925675Y-78226527D01*
X115013824Y-78358452D01*
X115013824Y-78358453D01*
X115074545Y-78505044D01*
X115105500Y-78660665D01*
X115105500Y-78819335D01*
X115074545Y-78974956D01*
X115043039Y-79051016D01*
X115013824Y-79121548D01*
X114925675Y-79253473D01*
X114813473Y-79365675D01*
X114681548Y-79453824D01*
X114645805Y-79468629D01*
X114534956Y-79514545D01*
X114379335Y-79545500D01*
X114220665Y-79545500D01*
X114065044Y-79514545D01*
X113954195Y-79468629D01*
X113918452Y-79453824D01*
X113786527Y-79365675D01*
X113674325Y-79253473D01*
X113586176Y-79121548D01*
X113556961Y-79051016D01*
X113525455Y-78974956D01*
X113494500Y-78819335D01*
X113494500Y-78660665D01*
X113525455Y-78505044D01*
X113586176Y-78358453D01*
X113586176Y-78358452D01*
X113674325Y-78226527D01*
X113786527Y-78114325D01*
X113918452Y-78026176D01*
X113967317Y-78005936D01*
X114065044Y-77965455D01*
X114220665Y-77934500D01*
X114379335Y-77934500D01*
X114534956Y-77965455D01*
X114534956Y-77965455D01*
G37*
G36*
X128504956Y-77965455D02*
G01*
X128602683Y-78005936D01*
X128651548Y-78026176D01*
X128783473Y-78114325D01*
X128895675Y-78226527D01*
X128983824Y-78358452D01*
X128983824Y-78358453D01*
X129044545Y-78505044D01*
X129075500Y-78660665D01*
X129075500Y-78819335D01*
X129044545Y-78974956D01*
X129013039Y-79051016D01*
X128983824Y-79121548D01*
X128895675Y-79253473D01*
X128783473Y-79365675D01*
X128651548Y-79453824D01*
X128615805Y-79468629D01*
X128504956Y-79514545D01*
X128349335Y-79545500D01*
X128190665Y-79545500D01*
X128035044Y-79514545D01*
X127924195Y-79468629D01*
X127888452Y-79453824D01*
X127756527Y-79365675D01*
X127644325Y-79253473D01*
X127556176Y-79121548D01*
X127526961Y-79051016D01*
X127495455Y-78974956D01*
X127464500Y-78819335D01*
X127464500Y-78660665D01*
X127495455Y-78505044D01*
X127556176Y-78358453D01*
X127556176Y-78358452D01*
X127644325Y-78226527D01*
X127756527Y-78114325D01*
X127888452Y-78026176D01*
X127937317Y-78005936D01*
X128035044Y-77965455D01*
X128190665Y-77934500D01*
X128349335Y-77934500D01*
X128504956Y-77965455D01*
X128504956Y-77965455D01*
G37*
G36*
X131044956Y-77965455D02*
G01*
X131142683Y-78005936D01*
X131191548Y-78026176D01*
X131323473Y-78114325D01*
X131435675Y-78226527D01*
X131523824Y-78358452D01*
X131523824Y-78358453D01*
X131584545Y-78505044D01*
X131615500Y-78660665D01*
X131615500Y-78819335D01*
X131584545Y-78974956D01*
X131553039Y-79051016D01*
X131523824Y-79121548D01*
X131435675Y-79253473D01*
X131323473Y-79365675D01*
X131191548Y-79453824D01*
X131155805Y-79468629D01*
X131044956Y-79514545D01*
X130889335Y-79545500D01*
X130730665Y-79545500D01*
X130575044Y-79514545D01*
X130464195Y-79468629D01*
X130428452Y-79453824D01*
X130296527Y-79365675D01*
X130184325Y-79253473D01*
X130096176Y-79121548D01*
X130066961Y-79051016D01*
X130035455Y-78974956D01*
X130004500Y-78819335D01*
X130004500Y-78660665D01*
X130035455Y-78505044D01*
X130096176Y-78358453D01*
X130096176Y-78358452D01*
X130184325Y-78226527D01*
X130296527Y-78114325D01*
X130428452Y-78026176D01*
X130477317Y-78005936D01*
X130575044Y-77965455D01*
X130730665Y-77934500D01*
X130889335Y-77934500D01*
X131044956Y-77965455D01*
X131044956Y-77965455D01*
G37*
G36*
X133584956Y-77965455D02*
G01*
X133682683Y-78005936D01*
X133731548Y-78026176D01*
X133863473Y-78114325D01*
X133975675Y-78226527D01*
X134063824Y-78358452D01*
X134063824Y-78358453D01*
X134124545Y-78505044D01*
X134155500Y-78660665D01*
X134155500Y-78819335D01*
X134124545Y-78974956D01*
X134093039Y-79051016D01*
X134063824Y-79121548D01*
X133975675Y-79253473D01*
X133863473Y-79365675D01*
X133731548Y-79453824D01*
X133695805Y-79468629D01*
X133584956Y-79514545D01*
X133429335Y-79545500D01*
X133270665Y-79545500D01*
X133115044Y-79514545D01*
X133004195Y-79468629D01*
X132968452Y-79453824D01*
X132836527Y-79365675D01*
X132724325Y-79253473D01*
X132636176Y-79121548D01*
X132606961Y-79051016D01*
X132575455Y-78974956D01*
X132544500Y-78819335D01*
X132544500Y-78660665D01*
X132575455Y-78505044D01*
X132636176Y-78358453D01*
X132636176Y-78358452D01*
X132724325Y-78226527D01*
X132836527Y-78114325D01*
X132968452Y-78026176D01*
X133017317Y-78005936D01*
X133115044Y-77965455D01*
X133270665Y-77934500D01*
X133429335Y-77934500D01*
X133584956Y-77965455D01*
X133584956Y-77965455D01*
G37*
G36*
X136124956Y-77965455D02*
G01*
X136222683Y-78005936D01*
X136271548Y-78026176D01*
X136403473Y-78114325D01*
X136515675Y-78226527D01*
X136603824Y-78358452D01*
X136603824Y-78358453D01*
X136664545Y-78505044D01*
X136695500Y-78660665D01*
X136695500Y-78819335D01*
X136664545Y-78974956D01*
X136633039Y-79051016D01*
X136603824Y-79121548D01*
X136515675Y-79253473D01*
X136403473Y-79365675D01*
X136271548Y-79453824D01*
X136235805Y-79468629D01*
X136124956Y-79514545D01*
X135969335Y-79545500D01*
X135810665Y-79545500D01*
X135655044Y-79514545D01*
X135544195Y-79468629D01*
X135508452Y-79453824D01*
X135376527Y-79365675D01*
X135264325Y-79253473D01*
X135176176Y-79121548D01*
X135146961Y-79051016D01*
X135115455Y-78974956D01*
X135084500Y-78819335D01*
X135084500Y-78660665D01*
X135115455Y-78505044D01*
X135176176Y-78358453D01*
X135176176Y-78358452D01*
X135264325Y-78226527D01*
X135376527Y-78114325D01*
X135508452Y-78026176D01*
X135557317Y-78005936D01*
X135655044Y-77965455D01*
X135810665Y-77934500D01*
X135969335Y-77934500D01*
X136124956Y-77965455D01*
X136124956Y-77965455D01*
G37*
G36*
X100564956Y-77965455D02*
G01*
X100662683Y-78005936D01*
X100711548Y-78026176D01*
X100843473Y-78114325D01*
X100955675Y-78226527D01*
X101043824Y-78358452D01*
X101043824Y-78358453D01*
X101104545Y-78505044D01*
X101135500Y-78660665D01*
X101135500Y-78819335D01*
X101104545Y-78974956D01*
X101073039Y-79051016D01*
X101043824Y-79121548D01*
X100955675Y-79253473D01*
X100843473Y-79365675D01*
X100711548Y-79453824D01*
X100675805Y-79468629D01*
X100564956Y-79514545D01*
X100409335Y-79545500D01*
X100250665Y-79545500D01*
X100095044Y-79514545D01*
X99984195Y-79468629D01*
X99948452Y-79453824D01*
X99816527Y-79365675D01*
X99704325Y-79253473D01*
X99616176Y-79121548D01*
X99586961Y-79051016D01*
X99555455Y-78974956D01*
X99524500Y-78819335D01*
X99524500Y-78660665D01*
X99555455Y-78505044D01*
X99616176Y-78358453D01*
X99616176Y-78358452D01*
X99704325Y-78226527D01*
X99816527Y-78114325D01*
X99948452Y-78026176D01*
X99997317Y-78005936D01*
X100095044Y-77965455D01*
X100250665Y-77934500D01*
X100409335Y-77934500D01*
X100564956Y-77965455D01*
X100564956Y-77965455D01*
G37*
G36*
X103104956Y-77965455D02*
G01*
X103202683Y-78005936D01*
X103251548Y-78026176D01*
X103383473Y-78114325D01*
X103495675Y-78226527D01*
X103583824Y-78358452D01*
X103583824Y-78358453D01*
X103644545Y-78505044D01*
X103675500Y-78660665D01*
X103675500Y-78819335D01*
X103644545Y-78974956D01*
X103613039Y-79051016D01*
X103583824Y-79121548D01*
X103495675Y-79253473D01*
X103383473Y-79365675D01*
X103251548Y-79453824D01*
X103215805Y-79468629D01*
X103104956Y-79514545D01*
X102949335Y-79545500D01*
X102790665Y-79545500D01*
X102635044Y-79514545D01*
X102524195Y-79468629D01*
X102488452Y-79453824D01*
X102356527Y-79365675D01*
X102244325Y-79253473D01*
X102156176Y-79121548D01*
X102126961Y-79051016D01*
X102095455Y-78974956D01*
X102064500Y-78819335D01*
X102064500Y-78660665D01*
X102095455Y-78505044D01*
X102156176Y-78358453D01*
X102156176Y-78358452D01*
X102244325Y-78226527D01*
X102356527Y-78114325D01*
X102488452Y-78026176D01*
X102537317Y-78005936D01*
X102635044Y-77965455D01*
X102790665Y-77934500D01*
X102949335Y-77934500D01*
X103104956Y-77965455D01*
X103104956Y-77965455D01*
G37*
G36*
X105644956Y-77965455D02*
G01*
X105742683Y-78005936D01*
X105791548Y-78026176D01*
X105923473Y-78114325D01*
X106035675Y-78226527D01*
X106123824Y-78358452D01*
X106123824Y-78358453D01*
X106184545Y-78505044D01*
X106215500Y-78660665D01*
X106215500Y-78819335D01*
X106184545Y-78974956D01*
X106153039Y-79051016D01*
X106123824Y-79121548D01*
X106035675Y-79253473D01*
X105923473Y-79365675D01*
X105791548Y-79453824D01*
X105755805Y-79468629D01*
X105644956Y-79514545D01*
X105489335Y-79545500D01*
X105330665Y-79545500D01*
X105175044Y-79514545D01*
X105064195Y-79468629D01*
X105028452Y-79453824D01*
X104896527Y-79365675D01*
X104784325Y-79253473D01*
X104696176Y-79121548D01*
X104666961Y-79051016D01*
X104635455Y-78974956D01*
X104604500Y-78819335D01*
X104604500Y-78660665D01*
X104635455Y-78505044D01*
X104696176Y-78358453D01*
X104696176Y-78358452D01*
X104784325Y-78226527D01*
X104896527Y-78114325D01*
X105028452Y-78026176D01*
X105077317Y-78005936D01*
X105175044Y-77965455D01*
X105330665Y-77934500D01*
X105489335Y-77934500D01*
X105644956Y-77965455D01*
X105644956Y-77965455D01*
G37*
G36*
X122154956Y-77965455D02*
G01*
X122252683Y-78005936D01*
X122301548Y-78026176D01*
X122433473Y-78114325D01*
X122545675Y-78226527D01*
X122633824Y-78358452D01*
X122633824Y-78358453D01*
X122694545Y-78505044D01*
X122725500Y-78660665D01*
X122725500Y-78819335D01*
X122694545Y-78974956D01*
X122663039Y-79051016D01*
X122633824Y-79121548D01*
X122545675Y-79253473D01*
X122433473Y-79365675D01*
X122301548Y-79453824D01*
X122265805Y-79468629D01*
X122154956Y-79514545D01*
X121999335Y-79545500D01*
X121840665Y-79545500D01*
X121685044Y-79514545D01*
X121574195Y-79468629D01*
X121538452Y-79453824D01*
X121406527Y-79365675D01*
X121294325Y-79253473D01*
X121206176Y-79121548D01*
X121176961Y-79051016D01*
X121145455Y-78974956D01*
X121114500Y-78819335D01*
X121114500Y-78660665D01*
X121145455Y-78505044D01*
X121206176Y-78358453D01*
X121206176Y-78358452D01*
X121294325Y-78226527D01*
X121406527Y-78114325D01*
X121538452Y-78026176D01*
X121587317Y-78005936D01*
X121685044Y-77965455D01*
X121840665Y-77934500D01*
X121999335Y-77934500D01*
X122154956Y-77965455D01*
X122154956Y-77965455D01*
G37*
G36*
X108184956Y-77965455D02*
G01*
X108282683Y-78005936D01*
X108331548Y-78026176D01*
X108463473Y-78114325D01*
X108575675Y-78226527D01*
X108663824Y-78358452D01*
X108663824Y-78358453D01*
X108724545Y-78505044D01*
X108755500Y-78660665D01*
X108755500Y-78819335D01*
X108724545Y-78974956D01*
X108693039Y-79051016D01*
X108663824Y-79121548D01*
X108575675Y-79253473D01*
X108463473Y-79365675D01*
X108331548Y-79453824D01*
X108295805Y-79468629D01*
X108184956Y-79514545D01*
X108029335Y-79545500D01*
X107870665Y-79545500D01*
X107715044Y-79514545D01*
X107604195Y-79468629D01*
X107568452Y-79453824D01*
X107436527Y-79365675D01*
X107324325Y-79253473D01*
X107236176Y-79121548D01*
X107206961Y-79051016D01*
X107175455Y-78974956D01*
X107144500Y-78819335D01*
X107144500Y-78660665D01*
X107175455Y-78505044D01*
X107236176Y-78358453D01*
X107236176Y-78358452D01*
X107324325Y-78226527D01*
X107436527Y-78114325D01*
X107568452Y-78026176D01*
X107617317Y-78005936D01*
X107715044Y-77965455D01*
X107870665Y-77934500D01*
X108029335Y-77934500D01*
X108184956Y-77965455D01*
X108184956Y-77965455D01*
G37*
G36*
X96474885Y-74928005D02*
G01*
X96640842Y-74961016D01*
X96875334Y-75058146D01*
X97086371Y-75199156D01*
X97265844Y-75378629D01*
X97406854Y-75589666D01*
X97503984Y-75824158D01*
X97553500Y-76073094D01*
X97553500Y-76326906D01*
X97503984Y-76575842D01*
X97406854Y-76810334D01*
X97265844Y-77021371D01*
X97086371Y-77200844D01*
X96875334Y-77341854D01*
X96640842Y-77438984D01*
X96474885Y-77471995D01*
X96391907Y-77488500D01*
X96138093Y-77488500D01*
X96055115Y-77471995D01*
X95889158Y-77438984D01*
X95654666Y-77341854D01*
X95443629Y-77200844D01*
X95264156Y-77021371D01*
X95123146Y-76810334D01*
X95026016Y-76575842D01*
X94976500Y-76326906D01*
X94976500Y-76073094D01*
X95026016Y-75824158D01*
X95123146Y-75589666D01*
X95264156Y-75378629D01*
X95443629Y-75199156D01*
X95654666Y-75058146D01*
X95889158Y-74961016D01*
X96055115Y-74928005D01*
X96138093Y-74911500D01*
X96391907Y-74911500D01*
X96474885Y-74928005D01*
X96474885Y-74928005D01*
G37*
G36*
X146284956Y-75425455D02*
G01*
X146382683Y-75465936D01*
X146431548Y-75486176D01*
X146563473Y-75574325D01*
X146675675Y-75686527D01*
X146763824Y-75818452D01*
X146763824Y-75818453D01*
X146824545Y-75965044D01*
X146855500Y-76120665D01*
X146855500Y-76279335D01*
X146824545Y-76434956D01*
X146784064Y-76532683D01*
X146763824Y-76581548D01*
X146675675Y-76713473D01*
X146563473Y-76825675D01*
X146431548Y-76913824D01*
X146382683Y-76934064D01*
X146284956Y-76974545D01*
X146129335Y-77005500D01*
X145970665Y-77005500D01*
X145815044Y-76974545D01*
X145717317Y-76934064D01*
X145668452Y-76913824D01*
X145536527Y-76825675D01*
X145424325Y-76713473D01*
X145336176Y-76581548D01*
X145315936Y-76532683D01*
X145275455Y-76434956D01*
X145244500Y-76279335D01*
X145244500Y-76120665D01*
X145275455Y-75965044D01*
X145336176Y-75818453D01*
X145336176Y-75818452D01*
X145424325Y-75686527D01*
X145536527Y-75574325D01*
X145668452Y-75486176D01*
X145717317Y-75465936D01*
X145815044Y-75425455D01*
X145970665Y-75394500D01*
X146129335Y-75394500D01*
X146284956Y-75425455D01*
X146284956Y-75425455D01*
G37*
G36*
X109454956Y-75425455D02*
G01*
X109552683Y-75465936D01*
X109601548Y-75486176D01*
X109733473Y-75574325D01*
X109845675Y-75686527D01*
X109933824Y-75818452D01*
X109933824Y-75818453D01*
X109994545Y-75965044D01*
X110025500Y-76120665D01*
X110025500Y-76279335D01*
X109994545Y-76434956D01*
X109954064Y-76532683D01*
X109933824Y-76581548D01*
X109845675Y-76713473D01*
X109733473Y-76825675D01*
X109601548Y-76913824D01*
X109552683Y-76934064D01*
X109454956Y-76974545D01*
X109299335Y-77005500D01*
X109140665Y-77005500D01*
X108985044Y-76974545D01*
X108887317Y-76934064D01*
X108838452Y-76913824D01*
X108706527Y-76825675D01*
X108594325Y-76713473D01*
X108506176Y-76581548D01*
X108485936Y-76532683D01*
X108445455Y-76434956D01*
X108414500Y-76279335D01*
X108414500Y-76120665D01*
X108445455Y-75965044D01*
X108506176Y-75818453D01*
X108506176Y-75818452D01*
X108594325Y-75686527D01*
X108706527Y-75574325D01*
X108838452Y-75486176D01*
X108887317Y-75465936D01*
X108985044Y-75425455D01*
X109140665Y-75394500D01*
X109299335Y-75394500D01*
X109454956Y-75425455D01*
X109454956Y-75425455D01*
G37*
G36*
X106914956Y-75425455D02*
G01*
X107012683Y-75465936D01*
X107061548Y-75486176D01*
X107193473Y-75574325D01*
X107305675Y-75686527D01*
X107393824Y-75818452D01*
X107393824Y-75818453D01*
X107454545Y-75965044D01*
X107485500Y-76120665D01*
X107485500Y-76279335D01*
X107454545Y-76434956D01*
X107414064Y-76532683D01*
X107393824Y-76581548D01*
X107305675Y-76713473D01*
X107193473Y-76825675D01*
X107061548Y-76913824D01*
X107012683Y-76934064D01*
X106914956Y-76974545D01*
X106759335Y-77005500D01*
X106600665Y-77005500D01*
X106445044Y-76974545D01*
X106347317Y-76934064D01*
X106298452Y-76913824D01*
X106166527Y-76825675D01*
X106054325Y-76713473D01*
X105966176Y-76581548D01*
X105945936Y-76532683D01*
X105905455Y-76434956D01*
X105874500Y-76279335D01*
X105874500Y-76120665D01*
X105905455Y-75965044D01*
X105966176Y-75818453D01*
X105966176Y-75818452D01*
X106054325Y-75686527D01*
X106166527Y-75574325D01*
X106298452Y-75486176D01*
X106347317Y-75465936D01*
X106445044Y-75425455D01*
X106600665Y-75394500D01*
X106759335Y-75394500D01*
X106914956Y-75425455D01*
X106914956Y-75425455D01*
G37*
G36*
X104374956Y-75425455D02*
G01*
X104472683Y-75465936D01*
X104521548Y-75486176D01*
X104653473Y-75574325D01*
X104765675Y-75686527D01*
X104853824Y-75818452D01*
X104853824Y-75818453D01*
X104914545Y-75965044D01*
X104945500Y-76120665D01*
X104945500Y-76279335D01*
X104914545Y-76434956D01*
X104874064Y-76532683D01*
X104853824Y-76581548D01*
X104765675Y-76713473D01*
X104653473Y-76825675D01*
X104521548Y-76913824D01*
X104472683Y-76934064D01*
X104374956Y-76974545D01*
X104219335Y-77005500D01*
X104060665Y-77005500D01*
X103905044Y-76974545D01*
X103807317Y-76934064D01*
X103758452Y-76913824D01*
X103626527Y-76825675D01*
X103514325Y-76713473D01*
X103426176Y-76581548D01*
X103405936Y-76532683D01*
X103365455Y-76434956D01*
X103334500Y-76279335D01*
X103334500Y-76120665D01*
X103365455Y-75965044D01*
X103426176Y-75818453D01*
X103426176Y-75818452D01*
X103514325Y-75686527D01*
X103626527Y-75574325D01*
X103758452Y-75486176D01*
X103807317Y-75465936D01*
X103905044Y-75425455D01*
X104060665Y-75394500D01*
X104219335Y-75394500D01*
X104374956Y-75425455D01*
X104374956Y-75425455D01*
G37*
G36*
X101834956Y-75425455D02*
G01*
X101932683Y-75465936D01*
X101981548Y-75486176D01*
X102113473Y-75574325D01*
X102225675Y-75686527D01*
X102313824Y-75818452D01*
X102313824Y-75818453D01*
X102374545Y-75965044D01*
X102405500Y-76120665D01*
X102405500Y-76279335D01*
X102374545Y-76434956D01*
X102334064Y-76532683D01*
X102313824Y-76581548D01*
X102225675Y-76713473D01*
X102113473Y-76825675D01*
X101981548Y-76913824D01*
X101932683Y-76934064D01*
X101834956Y-76974545D01*
X101679335Y-77005500D01*
X101520665Y-77005500D01*
X101365044Y-76974545D01*
X101267317Y-76934064D01*
X101218452Y-76913824D01*
X101086527Y-76825675D01*
X100974325Y-76713473D01*
X100886176Y-76581548D01*
X100865936Y-76532683D01*
X100825455Y-76434956D01*
X100794500Y-76279335D01*
X100794500Y-76120665D01*
X100825455Y-75965044D01*
X100886176Y-75818453D01*
X100886176Y-75818452D01*
X100974325Y-75686527D01*
X101086527Y-75574325D01*
X101218452Y-75486176D01*
X101267317Y-75465936D01*
X101365044Y-75425455D01*
X101520665Y-75394500D01*
X101679335Y-75394500D01*
X101834956Y-75425455D01*
X101834956Y-75425455D01*
G37*
G36*
X115804956Y-75425455D02*
G01*
X115902683Y-75465936D01*
X115951548Y-75486176D01*
X116083473Y-75574325D01*
X116195675Y-75686527D01*
X116283824Y-75818452D01*
X116283824Y-75818453D01*
X116344545Y-75965044D01*
X116375500Y-76120665D01*
X116375500Y-76279335D01*
X116344545Y-76434956D01*
X116304064Y-76532683D01*
X116283824Y-76581548D01*
X116195675Y-76713473D01*
X116083473Y-76825675D01*
X115951548Y-76913824D01*
X115902683Y-76934064D01*
X115804956Y-76974545D01*
X115649335Y-77005500D01*
X115490665Y-77005500D01*
X115335044Y-76974545D01*
X115237317Y-76934064D01*
X115188452Y-76913824D01*
X115056527Y-76825675D01*
X114944325Y-76713473D01*
X114856176Y-76581548D01*
X114835936Y-76532683D01*
X114795455Y-76434956D01*
X114764500Y-76279335D01*
X114764500Y-76120665D01*
X114795455Y-75965044D01*
X114856176Y-75818453D01*
X114856176Y-75818452D01*
X114944325Y-75686527D01*
X115056527Y-75574325D01*
X115188452Y-75486176D01*
X115237317Y-75465936D01*
X115335044Y-75425455D01*
X115490665Y-75394500D01*
X115649335Y-75394500D01*
X115804956Y-75425455D01*
X115804956Y-75425455D01*
G37*
G36*
X137394956Y-75425455D02*
G01*
X137492683Y-75465936D01*
X137541548Y-75486176D01*
X137673473Y-75574325D01*
X137785675Y-75686527D01*
X137873824Y-75818452D01*
X137873824Y-75818453D01*
X137934545Y-75965044D01*
X137965500Y-76120665D01*
X137965500Y-76279335D01*
X137934545Y-76434956D01*
X137894064Y-76532683D01*
X137873824Y-76581548D01*
X137785675Y-76713473D01*
X137673473Y-76825675D01*
X137541548Y-76913824D01*
X137492683Y-76934064D01*
X137394956Y-76974545D01*
X137239335Y-77005500D01*
X137080665Y-77005500D01*
X136925044Y-76974545D01*
X136827317Y-76934064D01*
X136778452Y-76913824D01*
X136646527Y-76825675D01*
X136534325Y-76713473D01*
X136446176Y-76581548D01*
X136425936Y-76532683D01*
X136385455Y-76434956D01*
X136354500Y-76279335D01*
X136354500Y-76120665D01*
X136385455Y-75965044D01*
X136446176Y-75818453D01*
X136446176Y-75818452D01*
X136534325Y-75686527D01*
X136646527Y-75574325D01*
X136778452Y-75486176D01*
X136827317Y-75465936D01*
X136925044Y-75425455D01*
X137080665Y-75394500D01*
X137239335Y-75394500D01*
X137394956Y-75425455D01*
X137394956Y-75425455D01*
G37*
G36*
X134854956Y-75425455D02*
G01*
X134952683Y-75465936D01*
X135001548Y-75486176D01*
X135133473Y-75574325D01*
X135245675Y-75686527D01*
X135333824Y-75818452D01*
X135333824Y-75818453D01*
X135394545Y-75965044D01*
X135425500Y-76120665D01*
X135425500Y-76279335D01*
X135394545Y-76434956D01*
X135354064Y-76532683D01*
X135333824Y-76581548D01*
X135245675Y-76713473D01*
X135133473Y-76825675D01*
X135001548Y-76913824D01*
X134952683Y-76934064D01*
X134854956Y-76974545D01*
X134699335Y-77005500D01*
X134540665Y-77005500D01*
X134385044Y-76974545D01*
X134287317Y-76934064D01*
X134238452Y-76913824D01*
X134106527Y-76825675D01*
X133994325Y-76713473D01*
X133906176Y-76581548D01*
X133885936Y-76532683D01*
X133845455Y-76434956D01*
X133814500Y-76279335D01*
X133814500Y-76120665D01*
X133845455Y-75965044D01*
X133906176Y-75818453D01*
X133906176Y-75818452D01*
X133994325Y-75686527D01*
X134106527Y-75574325D01*
X134238452Y-75486176D01*
X134287317Y-75465936D01*
X134385044Y-75425455D01*
X134540665Y-75394500D01*
X134699335Y-75394500D01*
X134854956Y-75425455D01*
X134854956Y-75425455D01*
G37*
G36*
X132314956Y-75425455D02*
G01*
X132412683Y-75465936D01*
X132461548Y-75486176D01*
X132593473Y-75574325D01*
X132705675Y-75686527D01*
X132793824Y-75818452D01*
X132793824Y-75818453D01*
X132854545Y-75965044D01*
X132885500Y-76120665D01*
X132885500Y-76279335D01*
X132854545Y-76434956D01*
X132814064Y-76532683D01*
X132793824Y-76581548D01*
X132705675Y-76713473D01*
X132593473Y-76825675D01*
X132461548Y-76913824D01*
X132412683Y-76934064D01*
X132314956Y-76974545D01*
X132159335Y-77005500D01*
X132000665Y-77005500D01*
X131845044Y-76974545D01*
X131747317Y-76934064D01*
X131698452Y-76913824D01*
X131566527Y-76825675D01*
X131454325Y-76713473D01*
X131366176Y-76581548D01*
X131345936Y-76532683D01*
X131305455Y-76434956D01*
X131274500Y-76279335D01*
X131274500Y-76120665D01*
X131305455Y-75965044D01*
X131366176Y-75818453D01*
X131366176Y-75818452D01*
X131454325Y-75686527D01*
X131566527Y-75574325D01*
X131698452Y-75486176D01*
X131747317Y-75465936D01*
X131845044Y-75425455D01*
X132000665Y-75394500D01*
X132159335Y-75394500D01*
X132314956Y-75425455D01*
X132314956Y-75425455D01*
G37*
G36*
X129774956Y-75425455D02*
G01*
X129872683Y-75465936D01*
X129921548Y-75486176D01*
X130053473Y-75574325D01*
X130165675Y-75686527D01*
X130253824Y-75818452D01*
X130253824Y-75818453D01*
X130314545Y-75965044D01*
X130345500Y-76120665D01*
X130345500Y-76279335D01*
X130314545Y-76434956D01*
X130274064Y-76532683D01*
X130253824Y-76581548D01*
X130165675Y-76713473D01*
X130053473Y-76825675D01*
X129921548Y-76913824D01*
X129872683Y-76934064D01*
X129774956Y-76974545D01*
X129619335Y-77005500D01*
X129460665Y-77005500D01*
X129305044Y-76974545D01*
X129207317Y-76934064D01*
X129158452Y-76913824D01*
X129026527Y-76825675D01*
X128914325Y-76713473D01*
X128826176Y-76581548D01*
X128805936Y-76532683D01*
X128765455Y-76434956D01*
X128734500Y-76279335D01*
X128734500Y-76120665D01*
X128765455Y-75965044D01*
X128826176Y-75818453D01*
X128826176Y-75818452D01*
X128914325Y-75686527D01*
X129026527Y-75574325D01*
X129158452Y-75486176D01*
X129207317Y-75465936D01*
X129305044Y-75425455D01*
X129460665Y-75394500D01*
X129619335Y-75394500D01*
X129774956Y-75425455D01*
X129774956Y-75425455D01*
G37*
G36*
X143744956Y-75425455D02*
G01*
X143842683Y-75465936D01*
X143891548Y-75486176D01*
X144023473Y-75574325D01*
X144135675Y-75686527D01*
X144223824Y-75818452D01*
X144223824Y-75818453D01*
X144284545Y-75965044D01*
X144315500Y-76120665D01*
X144315500Y-76279335D01*
X144284545Y-76434956D01*
X144244064Y-76532683D01*
X144223824Y-76581548D01*
X144135675Y-76713473D01*
X144023473Y-76825675D01*
X143891548Y-76913824D01*
X143842683Y-76934064D01*
X143744956Y-76974545D01*
X143589335Y-77005500D01*
X143430665Y-77005500D01*
X143275044Y-76974545D01*
X143177317Y-76934064D01*
X143128452Y-76913824D01*
X142996527Y-76825675D01*
X142884325Y-76713473D01*
X142796176Y-76581548D01*
X142775936Y-76532683D01*
X142735455Y-76434956D01*
X142704500Y-76279335D01*
X142704500Y-76120665D01*
X142735455Y-75965044D01*
X142796176Y-75818453D01*
X142796176Y-75818452D01*
X142884325Y-75686527D01*
X142996527Y-75574325D01*
X143128452Y-75486176D01*
X143177317Y-75465936D01*
X143275044Y-75425455D01*
X143430665Y-75394500D01*
X143589335Y-75394500D01*
X143744956Y-75425455D01*
X143744956Y-75425455D01*
G37*
G36*
X179304956Y-75425455D02*
G01*
X179402683Y-75465936D01*
X179451548Y-75486176D01*
X179583473Y-75574325D01*
X179695675Y-75686527D01*
X179783824Y-75818452D01*
X179783824Y-75818453D01*
X179844545Y-75965044D01*
X179875500Y-76120665D01*
X179875500Y-76279335D01*
X179844545Y-76434956D01*
X179804064Y-76532683D01*
X179783824Y-76581548D01*
X179695675Y-76713473D01*
X179583473Y-76825675D01*
X179451548Y-76913824D01*
X179402683Y-76934064D01*
X179304956Y-76974545D01*
X179149335Y-77005500D01*
X178990665Y-77005500D01*
X178835044Y-76974545D01*
X178737317Y-76934064D01*
X178688452Y-76913824D01*
X178556527Y-76825675D01*
X178444325Y-76713473D01*
X178356176Y-76581548D01*
X178335936Y-76532683D01*
X178295455Y-76434956D01*
X178264500Y-76279335D01*
X178264500Y-76120665D01*
X178295455Y-75965044D01*
X178356176Y-75818453D01*
X178356176Y-75818452D01*
X178444325Y-75686527D01*
X178556527Y-75574325D01*
X178688452Y-75486176D01*
X178737317Y-75465936D01*
X178835044Y-75425455D01*
X178990665Y-75394500D01*
X179149335Y-75394500D01*
X179304956Y-75425455D01*
X179304956Y-75425455D01*
G37*
G36*
X174224956Y-75425455D02*
G01*
X174322683Y-75465936D01*
X174371548Y-75486176D01*
X174503473Y-75574325D01*
X174615675Y-75686527D01*
X174703824Y-75818452D01*
X174703824Y-75818453D01*
X174764545Y-75965044D01*
X174795500Y-76120665D01*
X174795500Y-76279335D01*
X174764545Y-76434956D01*
X174724064Y-76532683D01*
X174703824Y-76581548D01*
X174615675Y-76713473D01*
X174503473Y-76825675D01*
X174371548Y-76913824D01*
X174322683Y-76934064D01*
X174224956Y-76974545D01*
X174069335Y-77005500D01*
X173910665Y-77005500D01*
X173755044Y-76974545D01*
X173657317Y-76934064D01*
X173608452Y-76913824D01*
X173476527Y-76825675D01*
X173364325Y-76713473D01*
X173276176Y-76581548D01*
X173255936Y-76532683D01*
X173215455Y-76434956D01*
X173184500Y-76279335D01*
X173184500Y-76120665D01*
X173215455Y-75965044D01*
X173276176Y-75818453D01*
X173276176Y-75818452D01*
X173364325Y-75686527D01*
X173476527Y-75574325D01*
X173608452Y-75486176D01*
X173657317Y-75465936D01*
X173755044Y-75425455D01*
X173910665Y-75394500D01*
X174069335Y-75394500D01*
X174224956Y-75425455D01*
X174224956Y-75425455D01*
G37*
G36*
X171684956Y-75425455D02*
G01*
X171782683Y-75465936D01*
X171831548Y-75486176D01*
X171963473Y-75574325D01*
X172075675Y-75686527D01*
X172163824Y-75818452D01*
X172163824Y-75818453D01*
X172224545Y-75965044D01*
X172255500Y-76120665D01*
X172255500Y-76279335D01*
X172224545Y-76434956D01*
X172184064Y-76532683D01*
X172163824Y-76581548D01*
X172075675Y-76713473D01*
X171963473Y-76825675D01*
X171831548Y-76913824D01*
X171782683Y-76934064D01*
X171684956Y-76974545D01*
X171529335Y-77005500D01*
X171370665Y-77005500D01*
X171215044Y-76974545D01*
X171117317Y-76934064D01*
X171068452Y-76913824D01*
X170936527Y-76825675D01*
X170824325Y-76713473D01*
X170736176Y-76581548D01*
X170715936Y-76532683D01*
X170675455Y-76434956D01*
X170644500Y-76279335D01*
X170644500Y-76120665D01*
X170675455Y-75965044D01*
X170736176Y-75818453D01*
X170736176Y-75818452D01*
X170824325Y-75686527D01*
X170936527Y-75574325D01*
X171068452Y-75486176D01*
X171117317Y-75465936D01*
X171215044Y-75425455D01*
X171370665Y-75394500D01*
X171529335Y-75394500D01*
X171684956Y-75425455D01*
X171684956Y-75425455D01*
G37*
G36*
X162794956Y-75425455D02*
G01*
X162892683Y-75465936D01*
X162941548Y-75486176D01*
X163073473Y-75574325D01*
X163185675Y-75686527D01*
X163273824Y-75818452D01*
X163273824Y-75818453D01*
X163334545Y-75965044D01*
X163365500Y-76120665D01*
X163365500Y-76279335D01*
X163334545Y-76434956D01*
X163294064Y-76532683D01*
X163273824Y-76581548D01*
X163185675Y-76713473D01*
X163073473Y-76825675D01*
X162941548Y-76913824D01*
X162892683Y-76934064D01*
X162794956Y-76974545D01*
X162639335Y-77005500D01*
X162480665Y-77005500D01*
X162325044Y-76974545D01*
X162227317Y-76934064D01*
X162178452Y-76913824D01*
X162046527Y-76825675D01*
X161934325Y-76713473D01*
X161846176Y-76581548D01*
X161825936Y-76532683D01*
X161785455Y-76434956D01*
X161754500Y-76279335D01*
X161754500Y-76120665D01*
X161785455Y-75965044D01*
X161846176Y-75818453D01*
X161846176Y-75818452D01*
X161934325Y-75686527D01*
X162046527Y-75574325D01*
X162178452Y-75486176D01*
X162227317Y-75465936D01*
X162325044Y-75425455D01*
X162480665Y-75394500D01*
X162639335Y-75394500D01*
X162794956Y-75425455D01*
X162794956Y-75425455D01*
G37*
G36*
X165334956Y-75425455D02*
G01*
X165432683Y-75465936D01*
X165481548Y-75486176D01*
X165613473Y-75574325D01*
X165725675Y-75686527D01*
X165813824Y-75818452D01*
X165813824Y-75818453D01*
X165874545Y-75965044D01*
X165905500Y-76120665D01*
X165905500Y-76279335D01*
X165874545Y-76434956D01*
X165834064Y-76532683D01*
X165813824Y-76581548D01*
X165725675Y-76713473D01*
X165613473Y-76825675D01*
X165481548Y-76913824D01*
X165432683Y-76934064D01*
X165334956Y-76974545D01*
X165179335Y-77005500D01*
X165020665Y-77005500D01*
X164865044Y-76974545D01*
X164767317Y-76934064D01*
X164718452Y-76913824D01*
X164586527Y-76825675D01*
X164474325Y-76713473D01*
X164386176Y-76581548D01*
X164365936Y-76532683D01*
X164325455Y-76434956D01*
X164294500Y-76279335D01*
X164294500Y-76120665D01*
X164325455Y-75965044D01*
X164386176Y-75818453D01*
X164386176Y-75818452D01*
X164474325Y-75686527D01*
X164586527Y-75574325D01*
X164718452Y-75486176D01*
X164767317Y-75465936D01*
X164865044Y-75425455D01*
X165020665Y-75394500D01*
X165179335Y-75394500D01*
X165334956Y-75425455D01*
X165334956Y-75425455D01*
G37*
G36*
X160254956Y-75425455D02*
G01*
X160352683Y-75465936D01*
X160401548Y-75486176D01*
X160533473Y-75574325D01*
X160645675Y-75686527D01*
X160733824Y-75818452D01*
X160733824Y-75818453D01*
X160794545Y-75965044D01*
X160825500Y-76120665D01*
X160825500Y-76279335D01*
X160794545Y-76434956D01*
X160754064Y-76532683D01*
X160733824Y-76581548D01*
X160645675Y-76713473D01*
X160533473Y-76825675D01*
X160401548Y-76913824D01*
X160352683Y-76934064D01*
X160254956Y-76974545D01*
X160099335Y-77005500D01*
X159940665Y-77005500D01*
X159785044Y-76974545D01*
X159687317Y-76934064D01*
X159638452Y-76913824D01*
X159506527Y-76825675D01*
X159394325Y-76713473D01*
X159306176Y-76581548D01*
X159285936Y-76532683D01*
X159245455Y-76434956D01*
X159214500Y-76279335D01*
X159214500Y-76120665D01*
X159245455Y-75965044D01*
X159306176Y-75818453D01*
X159306176Y-75818452D01*
X159394325Y-75686527D01*
X159506527Y-75574325D01*
X159638452Y-75486176D01*
X159687317Y-75465936D01*
X159785044Y-75425455D01*
X159940665Y-75394500D01*
X160099335Y-75394500D01*
X160254956Y-75425455D01*
X160254956Y-75425455D01*
G37*
G36*
X157714956Y-75425455D02*
G01*
X157812683Y-75465936D01*
X157861548Y-75486176D01*
X157993473Y-75574325D01*
X158105675Y-75686527D01*
X158193824Y-75818452D01*
X158193824Y-75818453D01*
X158254545Y-75965044D01*
X158285500Y-76120665D01*
X158285500Y-76279335D01*
X158254545Y-76434956D01*
X158214064Y-76532683D01*
X158193824Y-76581548D01*
X158105675Y-76713473D01*
X157993473Y-76825675D01*
X157861548Y-76913824D01*
X157812683Y-76934064D01*
X157714956Y-76974545D01*
X157559335Y-77005500D01*
X157400665Y-77005500D01*
X157245044Y-76974545D01*
X157147317Y-76934064D01*
X157098452Y-76913824D01*
X156966527Y-76825675D01*
X156854325Y-76713473D01*
X156766176Y-76581548D01*
X156745936Y-76532683D01*
X156705455Y-76434956D01*
X156674500Y-76279335D01*
X156674500Y-76120665D01*
X156705455Y-75965044D01*
X156766176Y-75818453D01*
X156766176Y-75818452D01*
X156854325Y-75686527D01*
X156966527Y-75574325D01*
X157098452Y-75486176D01*
X157147317Y-75465936D01*
X157245044Y-75425455D01*
X157400665Y-75394500D01*
X157559335Y-75394500D01*
X157714956Y-75425455D01*
X157714956Y-75425455D01*
G37*
G36*
X123424956Y-75425455D02*
G01*
X123522683Y-75465936D01*
X123571548Y-75486176D01*
X123703473Y-75574325D01*
X123815675Y-75686527D01*
X123903824Y-75818452D01*
X123903824Y-75818453D01*
X123964545Y-75965044D01*
X123995500Y-76120665D01*
X123995500Y-76279335D01*
X123964545Y-76434956D01*
X123924064Y-76532683D01*
X123903824Y-76581548D01*
X123815675Y-76713473D01*
X123703473Y-76825675D01*
X123571548Y-76913824D01*
X123522683Y-76934064D01*
X123424956Y-76974545D01*
X123269335Y-77005500D01*
X123110665Y-77005500D01*
X122955044Y-76974545D01*
X122857317Y-76934064D01*
X122808452Y-76913824D01*
X122676527Y-76825675D01*
X122564325Y-76713473D01*
X122476176Y-76581548D01*
X122455936Y-76532683D01*
X122415455Y-76434956D01*
X122384500Y-76279335D01*
X122384500Y-76120665D01*
X122415455Y-75965044D01*
X122476176Y-75818453D01*
X122476176Y-75818452D01*
X122564325Y-75686527D01*
X122676527Y-75574325D01*
X122808452Y-75486176D01*
X122857317Y-75465936D01*
X122955044Y-75425455D01*
X123110665Y-75394500D01*
X123269335Y-75394500D01*
X123424956Y-75425455D01*
X123424956Y-75425455D01*
G37*
G36*
X120884956Y-75425455D02*
G01*
X120982683Y-75465936D01*
X121031548Y-75486176D01*
X121163473Y-75574325D01*
X121275675Y-75686527D01*
X121363824Y-75818452D01*
X121363824Y-75818453D01*
X121424545Y-75965044D01*
X121455500Y-76120665D01*
X121455500Y-76279335D01*
X121424545Y-76434956D01*
X121384064Y-76532683D01*
X121363824Y-76581548D01*
X121275675Y-76713473D01*
X121163473Y-76825675D01*
X121031548Y-76913824D01*
X120982683Y-76934064D01*
X120884956Y-76974545D01*
X120729335Y-77005500D01*
X120570665Y-77005500D01*
X120415044Y-76974545D01*
X120317317Y-76934064D01*
X120268452Y-76913824D01*
X120136527Y-76825675D01*
X120024325Y-76713473D01*
X119936176Y-76581548D01*
X119915936Y-76532683D01*
X119875455Y-76434956D01*
X119844500Y-76279335D01*
X119844500Y-76120665D01*
X119875455Y-75965044D01*
X119936176Y-75818453D01*
X119936176Y-75818452D01*
X120024325Y-75686527D01*
X120136527Y-75574325D01*
X120268452Y-75486176D01*
X120317317Y-75465936D01*
X120415044Y-75425455D01*
X120570665Y-75394500D01*
X120729335Y-75394500D01*
X120884956Y-75425455D01*
X120884956Y-75425455D01*
G37*
G36*
X148824956Y-75425455D02*
G01*
X148922683Y-75465936D01*
X148971548Y-75486176D01*
X149103473Y-75574325D01*
X149215675Y-75686527D01*
X149303824Y-75818452D01*
X149303824Y-75818453D01*
X149364545Y-75965044D01*
X149395500Y-76120665D01*
X149395500Y-76279335D01*
X149364545Y-76434956D01*
X149324064Y-76532683D01*
X149303824Y-76581548D01*
X149215675Y-76713473D01*
X149103473Y-76825675D01*
X148971548Y-76913824D01*
X148922683Y-76934064D01*
X148824956Y-76974545D01*
X148669335Y-77005500D01*
X148510665Y-77005500D01*
X148355044Y-76974545D01*
X148257317Y-76934064D01*
X148208452Y-76913824D01*
X148076527Y-76825675D01*
X147964325Y-76713473D01*
X147876176Y-76581548D01*
X147855936Y-76532683D01*
X147815455Y-76434956D01*
X147784500Y-76279335D01*
X147784500Y-76120665D01*
X147815455Y-75965044D01*
X147876176Y-75818453D01*
X147876176Y-75818452D01*
X147964325Y-75686527D01*
X148076527Y-75574325D01*
X148208452Y-75486176D01*
X148257317Y-75465936D01*
X148355044Y-75425455D01*
X148510665Y-75394500D01*
X148669335Y-75394500D01*
X148824956Y-75425455D01*
X148824956Y-75425455D01*
G37*
G36*
X151364956Y-75425455D02*
G01*
X151462683Y-75465936D01*
X151511548Y-75486176D01*
X151643473Y-75574325D01*
X151755675Y-75686527D01*
X151843824Y-75818452D01*
X151843824Y-75818453D01*
X151904545Y-75965044D01*
X151935500Y-76120665D01*
X151935500Y-76279335D01*
X151904545Y-76434956D01*
X151864064Y-76532683D01*
X151843824Y-76581548D01*
X151755675Y-76713473D01*
X151643473Y-76825675D01*
X151511548Y-76913824D01*
X151462683Y-76934064D01*
X151364956Y-76974545D01*
X151209335Y-77005500D01*
X151050665Y-77005500D01*
X150895044Y-76974545D01*
X150797317Y-76934064D01*
X150748452Y-76913824D01*
X150616527Y-76825675D01*
X150504325Y-76713473D01*
X150416176Y-76581548D01*
X150395936Y-76532683D01*
X150355455Y-76434956D01*
X150324500Y-76279335D01*
X150324500Y-76120665D01*
X150355455Y-75965044D01*
X150416176Y-75818453D01*
X150416176Y-75818452D01*
X150504325Y-75686527D01*
X150616527Y-75574325D01*
X150748452Y-75486176D01*
X150797317Y-75465936D01*
X150895044Y-75425455D01*
X151050665Y-75394500D01*
X151209335Y-75394500D01*
X151364956Y-75425455D01*
X151364956Y-75425455D01*
G37*
G36*
X118344956Y-75425455D02*
G01*
X118442683Y-75465936D01*
X118491548Y-75486176D01*
X118623473Y-75574325D01*
X118735675Y-75686527D01*
X118823824Y-75818452D01*
X118823824Y-75818453D01*
X118884545Y-75965044D01*
X118915500Y-76120665D01*
X118915500Y-76279335D01*
X118884545Y-76434956D01*
X118844064Y-76532683D01*
X118823824Y-76581548D01*
X118735675Y-76713473D01*
X118623473Y-76825675D01*
X118491548Y-76913824D01*
X118442683Y-76934064D01*
X118344956Y-76974545D01*
X118189335Y-77005500D01*
X118030665Y-77005500D01*
X117875044Y-76974545D01*
X117777317Y-76934064D01*
X117728452Y-76913824D01*
X117596527Y-76825675D01*
X117484325Y-76713473D01*
X117396176Y-76581548D01*
X117375936Y-76532683D01*
X117335455Y-76434956D01*
X117304500Y-76279335D01*
X117304500Y-76120665D01*
X117335455Y-75965044D01*
X117396176Y-75818453D01*
X117396176Y-75818452D01*
X117484325Y-75686527D01*
X117596527Y-75574325D01*
X117728452Y-75486176D01*
X117777317Y-75465936D01*
X117875044Y-75425455D01*
X118030665Y-75394500D01*
X118189335Y-75394500D01*
X118344956Y-75425455D01*
X118344956Y-75425455D01*
G37*
G36*
X176764956Y-75425455D02*
G01*
X176862683Y-75465936D01*
X176911548Y-75486176D01*
X177043473Y-75574325D01*
X177155675Y-75686527D01*
X177243824Y-75818452D01*
X177243824Y-75818453D01*
X177304545Y-75965044D01*
X177335500Y-76120665D01*
X177335500Y-76279335D01*
X177304545Y-76434956D01*
X177264064Y-76532683D01*
X177243824Y-76581548D01*
X177155675Y-76713473D01*
X177043473Y-76825675D01*
X176911548Y-76913824D01*
X176862683Y-76934064D01*
X176764956Y-76974545D01*
X176609335Y-77005500D01*
X176450665Y-77005500D01*
X176295044Y-76974545D01*
X176197317Y-76934064D01*
X176148452Y-76913824D01*
X176016527Y-76825675D01*
X175904325Y-76713473D01*
X175816176Y-76581548D01*
X175795936Y-76532683D01*
X175755455Y-76434956D01*
X175724500Y-76279335D01*
X175724500Y-76120665D01*
X175755455Y-75965044D01*
X175816176Y-75818453D01*
X175816176Y-75818452D01*
X175904325Y-75686527D01*
X176016527Y-75574325D01*
X176148452Y-75486176D01*
X176197317Y-75465936D01*
X176295044Y-75425455D01*
X176450665Y-75394500D01*
X176609335Y-75394500D01*
X176764956Y-75425455D01*
X176764956Y-75425455D01*
G37*
G36*
X139909885Y-73128005D02*
G01*
X140075842Y-73161016D01*
X140310334Y-73258146D01*
X140521371Y-73399156D01*
X140700844Y-73578629D01*
X140841854Y-73789666D01*
X140938984Y-74024158D01*
X140988500Y-74273094D01*
X140988500Y-74526906D01*
X140938984Y-74775842D01*
X140841854Y-75010334D01*
X140700844Y-75221371D01*
X140521371Y-75400844D01*
X140310334Y-75541854D01*
X140075842Y-75638984D01*
X139909885Y-75671995D01*
X139826907Y-75688500D01*
X139573093Y-75688500D01*
X139490115Y-75671995D01*
X139324158Y-75638984D01*
X139089666Y-75541854D01*
X138878629Y-75400844D01*
X138699156Y-75221371D01*
X138558146Y-75010334D01*
X138461016Y-74775842D01*
X138411500Y-74526906D01*
X138411500Y-74273094D01*
X138461016Y-74024158D01*
X138558146Y-73789666D01*
X138699156Y-73578629D01*
X138878629Y-73399156D01*
X139089666Y-73258146D01*
X139324158Y-73161016D01*
X139490115Y-73128005D01*
X139573093Y-73111500D01*
X139826907Y-73111500D01*
X139909885Y-73128005D01*
X139909885Y-73128005D01*
G37*
G36*
X111969885Y-73128005D02*
G01*
X112135842Y-73161016D01*
X112370334Y-73258146D01*
X112581371Y-73399156D01*
X112760844Y-73578629D01*
X112901854Y-73789666D01*
X112998984Y-74024158D01*
X113048500Y-74273094D01*
X113048500Y-74526906D01*
X112998984Y-74775842D01*
X112901854Y-75010334D01*
X112760844Y-75221371D01*
X112581371Y-75400844D01*
X112370334Y-75541854D01*
X112135842Y-75638984D01*
X111969885Y-75671995D01*
X111886907Y-75688500D01*
X111633093Y-75688500D01*
X111550115Y-75671995D01*
X111384158Y-75638984D01*
X111149666Y-75541854D01*
X110938629Y-75400844D01*
X110759156Y-75221371D01*
X110618146Y-75010334D01*
X110521016Y-74775842D01*
X110471500Y-74526906D01*
X110471500Y-74273094D01*
X110521016Y-74024158D01*
X110618146Y-73789666D01*
X110759156Y-73578629D01*
X110938629Y-73399156D01*
X111149666Y-73258146D01*
X111384158Y-73161016D01*
X111550115Y-73128005D01*
X111633093Y-73111500D01*
X111886907Y-73111500D01*
X111969885Y-73128005D01*
X111969885Y-73128005D01*
G37*
G36*
X167849885Y-73128005D02*
G01*
X168015842Y-73161016D01*
X168250334Y-73258146D01*
X168461371Y-73399156D01*
X168640844Y-73578629D01*
X168781854Y-73789666D01*
X168878984Y-74024158D01*
X168928500Y-74273094D01*
X168928500Y-74526906D01*
X168878984Y-74775842D01*
X168781854Y-75010334D01*
X168640844Y-75221371D01*
X168461371Y-75400844D01*
X168250334Y-75541854D01*
X168015842Y-75638984D01*
X167849885Y-75671995D01*
X167766907Y-75688500D01*
X167513093Y-75688500D01*
X167430115Y-75671995D01*
X167264158Y-75638984D01*
X167029666Y-75541854D01*
X166818629Y-75400844D01*
X166639156Y-75221371D01*
X166498146Y-75010334D01*
X166401016Y-74775842D01*
X166351500Y-74526906D01*
X166351500Y-74273094D01*
X166401016Y-74024158D01*
X166498146Y-73789666D01*
X166639156Y-73578629D01*
X166818629Y-73399156D01*
X167029666Y-73258146D01*
X167264158Y-73161016D01*
X167430115Y-73128005D01*
X167513093Y-73111500D01*
X167766907Y-73111500D01*
X167849885Y-73128005D01*
X167849885Y-73128005D01*
G37*
G36*
X161393323Y-68757313D02*
G01*
X161553742Y-68805976D01*
X161686406Y-68876886D01*
X161701578Y-68884996D01*
X161831159Y-68991341D01*
X161937504Y-69120922D01*
X161937505Y-69120924D01*
X162016524Y-69268758D01*
X162065187Y-69429177D01*
X162081617Y-69596000D01*
X162065187Y-69762823D01*
X162016524Y-69923242D01*
X161945614Y-70055906D01*
X161937504Y-70071078D01*
X161831159Y-70200659D01*
X161701578Y-70307004D01*
X161701576Y-70307005D01*
X161553742Y-70386024D01*
X161393323Y-70434687D01*
X161268304Y-70447000D01*
X161184696Y-70447000D01*
X161059677Y-70434687D01*
X160899258Y-70386024D01*
X160751424Y-70307005D01*
X160751422Y-70307004D01*
X160621841Y-70200659D01*
X160515496Y-70071078D01*
X160507386Y-70055906D01*
X160436476Y-69923242D01*
X160387813Y-69762823D01*
X160371383Y-69596000D01*
X160387813Y-69429177D01*
X160436476Y-69268758D01*
X160515495Y-69120924D01*
X160515496Y-69120922D01*
X160621841Y-68991341D01*
X160751422Y-68884996D01*
X160766594Y-68876886D01*
X160899258Y-68805976D01*
X161059677Y-68757313D01*
X161184696Y-68745000D01*
X161268304Y-68745000D01*
X161393323Y-68757313D01*
X161393323Y-68757313D01*
G37*
G36*
X163933323Y-68757313D02*
G01*
X164093742Y-68805976D01*
X164226406Y-68876886D01*
X164241578Y-68884996D01*
X164371159Y-68991341D01*
X164477504Y-69120922D01*
X164477505Y-69120924D01*
X164556524Y-69268758D01*
X164605187Y-69429177D01*
X164621617Y-69596000D01*
X164605187Y-69762823D01*
X164556524Y-69923242D01*
X164485614Y-70055906D01*
X164477504Y-70071078D01*
X164371159Y-70200659D01*
X164241578Y-70307004D01*
X164241576Y-70307005D01*
X164093742Y-70386024D01*
X163933323Y-70434687D01*
X163808304Y-70447000D01*
X163724696Y-70447000D01*
X163599677Y-70434687D01*
X163439258Y-70386024D01*
X163291424Y-70307005D01*
X163291422Y-70307004D01*
X163161841Y-70200659D01*
X163055496Y-70071078D01*
X163047386Y-70055906D01*
X162976476Y-69923242D01*
X162927813Y-69762823D01*
X162911383Y-69596000D01*
X162927813Y-69429177D01*
X162976476Y-69268758D01*
X163055495Y-69120924D01*
X163055496Y-69120922D01*
X163161841Y-68991341D01*
X163291422Y-68884996D01*
X163306594Y-68876886D01*
X163439258Y-68805976D01*
X163599677Y-68757313D01*
X163724696Y-68745000D01*
X163808304Y-68745000D01*
X163933323Y-68757313D01*
X163933323Y-68757313D01*
G37*
G36*
X169013323Y-68757313D02*
G01*
X169173742Y-68805976D01*
X169306406Y-68876886D01*
X169321578Y-68884996D01*
X169451159Y-68991341D01*
X169557504Y-69120922D01*
X169557505Y-69120924D01*
X169636524Y-69268758D01*
X169685187Y-69429177D01*
X169701617Y-69596000D01*
X169685187Y-69762823D01*
X169636524Y-69923242D01*
X169565614Y-70055906D01*
X169557504Y-70071078D01*
X169451159Y-70200659D01*
X169321578Y-70307004D01*
X169321576Y-70307005D01*
X169173742Y-70386024D01*
X169013323Y-70434687D01*
X168888304Y-70447000D01*
X168804696Y-70447000D01*
X168679677Y-70434687D01*
X168519258Y-70386024D01*
X168371424Y-70307005D01*
X168371422Y-70307004D01*
X168241841Y-70200659D01*
X168135496Y-70071078D01*
X168127386Y-70055906D01*
X168056476Y-69923242D01*
X168007813Y-69762823D01*
X167991383Y-69596000D01*
X168007813Y-69429177D01*
X168056476Y-69268758D01*
X168135495Y-69120924D01*
X168135496Y-69120922D01*
X168241841Y-68991341D01*
X168371422Y-68884996D01*
X168386594Y-68876886D01*
X168519258Y-68805976D01*
X168679677Y-68757313D01*
X168804696Y-68745000D01*
X168888304Y-68745000D01*
X169013323Y-68757313D01*
X169013323Y-68757313D01*
G37*
G36*
X171553323Y-68757313D02*
G01*
X171713742Y-68805976D01*
X171846406Y-68876886D01*
X171861578Y-68884996D01*
X171991159Y-68991341D01*
X172097504Y-69120922D01*
X172097505Y-69120924D01*
X172176524Y-69268758D01*
X172225187Y-69429177D01*
X172241617Y-69596000D01*
X172225187Y-69762823D01*
X172176524Y-69923242D01*
X172105614Y-70055906D01*
X172097504Y-70071078D01*
X171991159Y-70200659D01*
X171861578Y-70307004D01*
X171861576Y-70307005D01*
X171713742Y-70386024D01*
X171553323Y-70434687D01*
X171428304Y-70447000D01*
X171344696Y-70447000D01*
X171219677Y-70434687D01*
X171059258Y-70386024D01*
X170911424Y-70307005D01*
X170911422Y-70307004D01*
X170781841Y-70200659D01*
X170675496Y-70071078D01*
X170667386Y-70055906D01*
X170596476Y-69923242D01*
X170547813Y-69762823D01*
X170531383Y-69596000D01*
X170547813Y-69429177D01*
X170596476Y-69268758D01*
X170675495Y-69120924D01*
X170675496Y-69120922D01*
X170781841Y-68991341D01*
X170911422Y-68884996D01*
X170926594Y-68876886D01*
X171059258Y-68805976D01*
X171219677Y-68757313D01*
X171344696Y-68745000D01*
X171428304Y-68745000D01*
X171553323Y-68757313D01*
X171553323Y-68757313D01*
G37*
G36*
X174093323Y-68757313D02*
G01*
X174253742Y-68805976D01*
X174386406Y-68876886D01*
X174401578Y-68884996D01*
X174531159Y-68991341D01*
X174637504Y-69120922D01*
X174637505Y-69120924D01*
X174716524Y-69268758D01*
X174765187Y-69429177D01*
X174781617Y-69596000D01*
X174765187Y-69762823D01*
X174716524Y-69923242D01*
X174645614Y-70055906D01*
X174637504Y-70071078D01*
X174531159Y-70200659D01*
X174401578Y-70307004D01*
X174401576Y-70307005D01*
X174253742Y-70386024D01*
X174093323Y-70434687D01*
X173968304Y-70447000D01*
X173884696Y-70447000D01*
X173759677Y-70434687D01*
X173599258Y-70386024D01*
X173451424Y-70307005D01*
X173451422Y-70307004D01*
X173321841Y-70200659D01*
X173215496Y-70071078D01*
X173207386Y-70055906D01*
X173136476Y-69923242D01*
X173087813Y-69762823D01*
X173071383Y-69596000D01*
X173087813Y-69429177D01*
X173136476Y-69268758D01*
X173215495Y-69120924D01*
X173215496Y-69120922D01*
X173321841Y-68991341D01*
X173451422Y-68884996D01*
X173466594Y-68876886D01*
X173599258Y-68805976D01*
X173759677Y-68757313D01*
X173884696Y-68745000D01*
X173968304Y-68745000D01*
X174093323Y-68757313D01*
X174093323Y-68757313D01*
G37*
G36*
X176633323Y-68757313D02*
G01*
X176793742Y-68805976D01*
X176926406Y-68876886D01*
X176941578Y-68884996D01*
X177071159Y-68991341D01*
X177177504Y-69120922D01*
X177177505Y-69120924D01*
X177256524Y-69268758D01*
X177305187Y-69429177D01*
X177321617Y-69596000D01*
X177305187Y-69762823D01*
X177256524Y-69923242D01*
X177185614Y-70055906D01*
X177177504Y-70071078D01*
X177071159Y-70200659D01*
X176941578Y-70307004D01*
X176941576Y-70307005D01*
X176793742Y-70386024D01*
X176633323Y-70434687D01*
X176508304Y-70447000D01*
X176424696Y-70447000D01*
X176299677Y-70434687D01*
X176139258Y-70386024D01*
X175991424Y-70307005D01*
X175991422Y-70307004D01*
X175861841Y-70200659D01*
X175755496Y-70071078D01*
X175747386Y-70055906D01*
X175676476Y-69923242D01*
X175627813Y-69762823D01*
X175611383Y-69596000D01*
X175627813Y-69429177D01*
X175676476Y-69268758D01*
X175755495Y-69120924D01*
X175755496Y-69120922D01*
X175861841Y-68991341D01*
X175991422Y-68884996D01*
X176006594Y-68876886D01*
X176139258Y-68805976D01*
X176299677Y-68757313D01*
X176424696Y-68745000D01*
X176508304Y-68745000D01*
X176633323Y-68757313D01*
X176633323Y-68757313D01*
G37*
G36*
X179173323Y-68757313D02*
G01*
X179333742Y-68805976D01*
X179466406Y-68876886D01*
X179481578Y-68884996D01*
X179611159Y-68991341D01*
X179717504Y-69120922D01*
X179717505Y-69120924D01*
X179796524Y-69268758D01*
X179845187Y-69429177D01*
X179861617Y-69596000D01*
X179845187Y-69762823D01*
X179796524Y-69923242D01*
X179725614Y-70055906D01*
X179717504Y-70071078D01*
X179611159Y-70200659D01*
X179481578Y-70307004D01*
X179481576Y-70307005D01*
X179333742Y-70386024D01*
X179173323Y-70434687D01*
X179048304Y-70447000D01*
X178964696Y-70447000D01*
X178839677Y-70434687D01*
X178679258Y-70386024D01*
X178531424Y-70307005D01*
X178531422Y-70307004D01*
X178401841Y-70200659D01*
X178295496Y-70071078D01*
X178287386Y-70055906D01*
X178216476Y-69923242D01*
X178167813Y-69762823D01*
X178151383Y-69596000D01*
X178167813Y-69429177D01*
X178216476Y-69268758D01*
X178295495Y-69120924D01*
X178295496Y-69120922D01*
X178401841Y-68991341D01*
X178531422Y-68884996D01*
X178546594Y-68876886D01*
X178679258Y-68805976D01*
X178839677Y-68757313D01*
X178964696Y-68745000D01*
X179048304Y-68745000D01*
X179173323Y-68757313D01*
X179173323Y-68757313D01*
G37*
G36*
X166473323Y-68757313D02*
G01*
X166633742Y-68805976D01*
X166766406Y-68876886D01*
X166781578Y-68884996D01*
X166911159Y-68991341D01*
X167017504Y-69120922D01*
X167017505Y-69120924D01*
X167096524Y-69268758D01*
X167145187Y-69429177D01*
X167161617Y-69596000D01*
X167145187Y-69762823D01*
X167096524Y-69923242D01*
X167025614Y-70055906D01*
X167017504Y-70071078D01*
X166911159Y-70200659D01*
X166781578Y-70307004D01*
X166781576Y-70307005D01*
X166633742Y-70386024D01*
X166473323Y-70434687D01*
X166348304Y-70447000D01*
X166264696Y-70447000D01*
X166139677Y-70434687D01*
X165979258Y-70386024D01*
X165831424Y-70307005D01*
X165831422Y-70307004D01*
X165701841Y-70200659D01*
X165595496Y-70071078D01*
X165587386Y-70055906D01*
X165516476Y-69923242D01*
X165467813Y-69762823D01*
X165451383Y-69596000D01*
X165467813Y-69429177D01*
X165516476Y-69268758D01*
X165595495Y-69120924D01*
X165595496Y-69120922D01*
X165701841Y-68991341D01*
X165831422Y-68884996D01*
X165846594Y-68876886D01*
X165979258Y-68805976D01*
X166139677Y-68757313D01*
X166264696Y-68745000D01*
X166348304Y-68745000D01*
X166473323Y-68757313D01*
X166473323Y-68757313D01*
G37*
G36*
X156313323Y-68757313D02*
G01*
X156473742Y-68805976D01*
X156606406Y-68876886D01*
X156621578Y-68884996D01*
X156751159Y-68991341D01*
X156857504Y-69120922D01*
X156857505Y-69120924D01*
X156936524Y-69268758D01*
X156985187Y-69429177D01*
X157001617Y-69596000D01*
X156985187Y-69762823D01*
X156936524Y-69923242D01*
X156865614Y-70055906D01*
X156857504Y-70071078D01*
X156751159Y-70200659D01*
X156621578Y-70307004D01*
X156621576Y-70307005D01*
X156473742Y-70386024D01*
X156313323Y-70434687D01*
X156188304Y-70447000D01*
X156104696Y-70447000D01*
X155979677Y-70434687D01*
X155819258Y-70386024D01*
X155671424Y-70307005D01*
X155671422Y-70307004D01*
X155541841Y-70200659D01*
X155435496Y-70071078D01*
X155427386Y-70055906D01*
X155356476Y-69923242D01*
X155307813Y-69762823D01*
X155291383Y-69596000D01*
X155307813Y-69429177D01*
X155356476Y-69268758D01*
X155435495Y-69120924D01*
X155435496Y-69120922D01*
X155541841Y-68991341D01*
X155671422Y-68884996D01*
X155686594Y-68876886D01*
X155819258Y-68805976D01*
X155979677Y-68757313D01*
X156104696Y-68745000D01*
X156188304Y-68745000D01*
X156313323Y-68757313D01*
X156313323Y-68757313D01*
G37*
G36*
X158853323Y-68757313D02*
G01*
X159013742Y-68805976D01*
X159146406Y-68876886D01*
X159161578Y-68884996D01*
X159291159Y-68991341D01*
X159397504Y-69120922D01*
X159397505Y-69120924D01*
X159476524Y-69268758D01*
X159525187Y-69429177D01*
X159541617Y-69596000D01*
X159525187Y-69762823D01*
X159476524Y-69923242D01*
X159405614Y-70055906D01*
X159397504Y-70071078D01*
X159291159Y-70200659D01*
X159161578Y-70307004D01*
X159161576Y-70307005D01*
X159013742Y-70386024D01*
X158853323Y-70434687D01*
X158728304Y-70447000D01*
X158644696Y-70447000D01*
X158519677Y-70434687D01*
X158359258Y-70386024D01*
X158211424Y-70307005D01*
X158211422Y-70307004D01*
X158081841Y-70200659D01*
X157975496Y-70071078D01*
X157967386Y-70055906D01*
X157896476Y-69923242D01*
X157847813Y-69762823D01*
X157831383Y-69596000D01*
X157847813Y-69429177D01*
X157896476Y-69268758D01*
X157975495Y-69120924D01*
X157975496Y-69120922D01*
X158081841Y-68991341D01*
X158211422Y-68884996D01*
X158226594Y-68876886D01*
X158359258Y-68805976D01*
X158519677Y-68757313D01*
X158644696Y-68745000D01*
X158728304Y-68745000D01*
X158853323Y-68757313D01*
X158853323Y-68757313D01*
G37*
G36*
X144297500Y-70447000D02*
G01*
X142595500Y-70447000D01*
X142595500Y-68745000D01*
X144297500Y-68745000D01*
X144297500Y-70447000D01*
X144297500Y-70447000D01*
G37*
G36*
X146153323Y-68757313D02*
G01*
X146313742Y-68805976D01*
X146446406Y-68876886D01*
X146461578Y-68884996D01*
X146591159Y-68991341D01*
X146697504Y-69120922D01*
X146697505Y-69120924D01*
X146776524Y-69268758D01*
X146825187Y-69429177D01*
X146841617Y-69596000D01*
X146825187Y-69762823D01*
X146776524Y-69923242D01*
X146705614Y-70055906D01*
X146697504Y-70071078D01*
X146591159Y-70200659D01*
X146461578Y-70307004D01*
X146461576Y-70307005D01*
X146313742Y-70386024D01*
X146153323Y-70434687D01*
X146028304Y-70447000D01*
X145944696Y-70447000D01*
X145819677Y-70434687D01*
X145659258Y-70386024D01*
X145511424Y-70307005D01*
X145511422Y-70307004D01*
X145381841Y-70200659D01*
X145275496Y-70071078D01*
X145267386Y-70055906D01*
X145196476Y-69923242D01*
X145147813Y-69762823D01*
X145131383Y-69596000D01*
X145147813Y-69429177D01*
X145196476Y-69268758D01*
X145275495Y-69120924D01*
X145275496Y-69120922D01*
X145381841Y-68991341D01*
X145511422Y-68884996D01*
X145526594Y-68876886D01*
X145659258Y-68805976D01*
X145819677Y-68757313D01*
X145944696Y-68745000D01*
X146028304Y-68745000D01*
X146153323Y-68757313D01*
X146153323Y-68757313D01*
G37*
G36*
X148693323Y-68757313D02*
G01*
X148853742Y-68805976D01*
X148986406Y-68876886D01*
X149001578Y-68884996D01*
X149131159Y-68991341D01*
X149237504Y-69120922D01*
X149237505Y-69120924D01*
X149316524Y-69268758D01*
X149365187Y-69429177D01*
X149381617Y-69596000D01*
X149365187Y-69762823D01*
X149316524Y-69923242D01*
X149245614Y-70055906D01*
X149237504Y-70071078D01*
X149131159Y-70200659D01*
X149001578Y-70307004D01*
X149001576Y-70307005D01*
X148853742Y-70386024D01*
X148693323Y-70434687D01*
X148568304Y-70447000D01*
X148484696Y-70447000D01*
X148359677Y-70434687D01*
X148199258Y-70386024D01*
X148051424Y-70307005D01*
X148051422Y-70307004D01*
X147921841Y-70200659D01*
X147815496Y-70071078D01*
X147807386Y-70055906D01*
X147736476Y-69923242D01*
X147687813Y-69762823D01*
X147671383Y-69596000D01*
X147687813Y-69429177D01*
X147736476Y-69268758D01*
X147815495Y-69120924D01*
X147815496Y-69120922D01*
X147921841Y-68991341D01*
X148051422Y-68884996D01*
X148066594Y-68876886D01*
X148199258Y-68805976D01*
X148359677Y-68757313D01*
X148484696Y-68745000D01*
X148568304Y-68745000D01*
X148693323Y-68757313D01*
X148693323Y-68757313D01*
G37*
G36*
X151233323Y-68757313D02*
G01*
X151393742Y-68805976D01*
X151526406Y-68876886D01*
X151541578Y-68884996D01*
X151671159Y-68991341D01*
X151777504Y-69120922D01*
X151777505Y-69120924D01*
X151856524Y-69268758D01*
X151905187Y-69429177D01*
X151921617Y-69596000D01*
X151905187Y-69762823D01*
X151856524Y-69923242D01*
X151785614Y-70055906D01*
X151777504Y-70071078D01*
X151671159Y-70200659D01*
X151541578Y-70307004D01*
X151541576Y-70307005D01*
X151393742Y-70386024D01*
X151233323Y-70434687D01*
X151108304Y-70447000D01*
X151024696Y-70447000D01*
X150899677Y-70434687D01*
X150739258Y-70386024D01*
X150591424Y-70307005D01*
X150591422Y-70307004D01*
X150461841Y-70200659D01*
X150355496Y-70071078D01*
X150347386Y-70055906D01*
X150276476Y-69923242D01*
X150227813Y-69762823D01*
X150211383Y-69596000D01*
X150227813Y-69429177D01*
X150276476Y-69268758D01*
X150355495Y-69120924D01*
X150355496Y-69120922D01*
X150461841Y-68991341D01*
X150591422Y-68884996D01*
X150606594Y-68876886D01*
X150739258Y-68805976D01*
X150899677Y-68757313D01*
X151024696Y-68745000D01*
X151108304Y-68745000D01*
X151233323Y-68757313D01*
X151233323Y-68757313D01*
G37*
G36*
X153773323Y-68757313D02*
G01*
X153933742Y-68805976D01*
X154066406Y-68876886D01*
X154081578Y-68884996D01*
X154211159Y-68991341D01*
X154317504Y-69120922D01*
X154317505Y-69120924D01*
X154396524Y-69268758D01*
X154445187Y-69429177D01*
X154461617Y-69596000D01*
X154445187Y-69762823D01*
X154396524Y-69923242D01*
X154325614Y-70055906D01*
X154317504Y-70071078D01*
X154211159Y-70200659D01*
X154081578Y-70307004D01*
X154081576Y-70307005D01*
X153933742Y-70386024D01*
X153773323Y-70434687D01*
X153648304Y-70447000D01*
X153564696Y-70447000D01*
X153439677Y-70434687D01*
X153279258Y-70386024D01*
X153131424Y-70307005D01*
X153131422Y-70307004D01*
X153001841Y-70200659D01*
X152895496Y-70071078D01*
X152887386Y-70055906D01*
X152816476Y-69923242D01*
X152767813Y-69762823D01*
X152751383Y-69596000D01*
X152767813Y-69429177D01*
X152816476Y-69268758D01*
X152895495Y-69120924D01*
X152895496Y-69120922D01*
X153001841Y-68991341D01*
X153131422Y-68884996D01*
X153146594Y-68876886D01*
X153279258Y-68805976D01*
X153439677Y-68757313D01*
X153564696Y-68745000D01*
X153648304Y-68745000D01*
X153773323Y-68757313D01*
X153773323Y-68757313D01*
G37*
G36*
X137997500Y-69481000D02*
G01*
X136195500Y-69481000D01*
X136195500Y-67679000D01*
X137997500Y-67679000D01*
X137997500Y-69481000D01*
X137997500Y-69481000D01*
G37*
G36*
X137206942Y-65145518D02*
G01*
X137273127Y-65152037D01*
X137442966Y-65203557D01*
X137599491Y-65287222D01*
X137635229Y-65316552D01*
X137736686Y-65399814D01*
X137819948Y-65501271D01*
X137849278Y-65537009D01*
X137932943Y-65693534D01*
X137984463Y-65863373D01*
X138001859Y-66040000D01*
X137984463Y-66216627D01*
X137932943Y-66386466D01*
X137849278Y-66542991D01*
X137819948Y-66578729D01*
X137736686Y-66680186D01*
X137635229Y-66763448D01*
X137599491Y-66792778D01*
X137442966Y-66876443D01*
X137273127Y-66927963D01*
X137206942Y-66934482D01*
X137140760Y-66941000D01*
X137052240Y-66941000D01*
X136986058Y-66934482D01*
X136919873Y-66927963D01*
X136750034Y-66876443D01*
X136593509Y-66792778D01*
X136557771Y-66763448D01*
X136456314Y-66680186D01*
X136373052Y-66578729D01*
X136343722Y-66542991D01*
X136260057Y-66386466D01*
X136208537Y-66216627D01*
X136191141Y-66040000D01*
X136208537Y-65863373D01*
X136260057Y-65693534D01*
X136343722Y-65537009D01*
X136373052Y-65501271D01*
X136456314Y-65399814D01*
X136557771Y-65316552D01*
X136593509Y-65287222D01*
X136750034Y-65203557D01*
X136919873Y-65152037D01*
X136986058Y-65145518D01*
X137052240Y-65139000D01*
X137140760Y-65139000D01*
X137206942Y-65145518D01*
X137206942Y-65145518D01*
G37*
G36*
X163520699Y-60443454D02*
G01*
X163532950Y-60444056D01*
X163551369Y-60444056D01*
X163573649Y-60446250D01*
X163657733Y-60462976D01*
X163679160Y-60469476D01*
X163758358Y-60502280D01*
X163763803Y-60505191D01*
X163763809Y-60505193D01*
X163772669Y-60509929D01*
X163772673Y-60509932D01*
X163778114Y-60512840D01*
X163849399Y-60560471D01*
X163866704Y-60574672D01*
X163927328Y-60635296D01*
X163941529Y-60652601D01*
X163989160Y-60723886D01*
X163992068Y-60729327D01*
X163992071Y-60729331D01*
X163996807Y-60738191D01*
X163996809Y-60738197D01*
X163999720Y-60743642D01*
X164032524Y-60822840D01*
X164039024Y-60844267D01*
X164055750Y-60928351D01*
X164057944Y-60950631D01*
X164057944Y-60969050D01*
X164058546Y-60981301D01*
X164060352Y-60999639D01*
X164060352Y-61537360D01*
X164058763Y-61553499D01*
X164054355Y-61568028D01*
X164048894Y-61581211D01*
X164044112Y-61605245D01*
X164044111Y-61629749D01*
X164048891Y-61653782D01*
X164058268Y-61676421D01*
X164059500Y-61678265D01*
X164059500Y-62909550D01*
X164053025Y-62921664D01*
X164045912Y-62945113D01*
X164043510Y-62969499D01*
X164045912Y-62993885D01*
X164053025Y-63017334D01*
X164055348Y-63022246D01*
X164058763Y-63033501D01*
X164060352Y-63049640D01*
X164060352Y-63587362D01*
X164058546Y-63605699D01*
X164057944Y-63617950D01*
X164057944Y-63636369D01*
X164055750Y-63658649D01*
X164039024Y-63742733D01*
X164032524Y-63764160D01*
X163999720Y-63843358D01*
X163996809Y-63848803D01*
X163996807Y-63848809D01*
X163992071Y-63857669D01*
X163992068Y-63857673D01*
X163989160Y-63863114D01*
X163941529Y-63934399D01*
X163927328Y-63951704D01*
X163866704Y-64012328D01*
X163849399Y-64026529D01*
X163778114Y-64074160D01*
X163772673Y-64077068D01*
X163772669Y-64077071D01*
X163763809Y-64081807D01*
X163763803Y-64081809D01*
X163758358Y-64084720D01*
X163679160Y-64117524D01*
X163657733Y-64124024D01*
X163573649Y-64140750D01*
X163551369Y-64142944D01*
X163532950Y-64142944D01*
X163520699Y-64143546D01*
X163502362Y-64145352D01*
X163014638Y-64145352D01*
X162996301Y-64143546D01*
X162984050Y-64142944D01*
X162965631Y-64142944D01*
X162943351Y-64140750D01*
X162859267Y-64124024D01*
X162837840Y-64117524D01*
X162758642Y-64084720D01*
X162753197Y-64081809D01*
X162753191Y-64081807D01*
X162744331Y-64077071D01*
X162744327Y-64077068D01*
X162738886Y-64074160D01*
X162667601Y-64026529D01*
X162650296Y-64012328D01*
X162589672Y-63951704D01*
X162575471Y-63934399D01*
X162527840Y-63863114D01*
X162524932Y-63857673D01*
X162524929Y-63857669D01*
X162520193Y-63848809D01*
X162520191Y-63848803D01*
X162517280Y-63843358D01*
X162484476Y-63764160D01*
X162477976Y-63742733D01*
X162461250Y-63658649D01*
X162459056Y-63636369D01*
X162459056Y-63617950D01*
X162458454Y-63605699D01*
X162456648Y-63587362D01*
X162456648Y-63049640D01*
X162458237Y-63033501D01*
X162462645Y-63018972D01*
X162468106Y-63005789D01*
X162472888Y-62981755D01*
X162472889Y-62957251D01*
X162468109Y-62933218D01*
X162458732Y-62910579D01*
X162457500Y-62908735D01*
X162457500Y-61677450D01*
X162463975Y-61665336D01*
X162471088Y-61641887D01*
X162473490Y-61617501D01*
X162471088Y-61593115D01*
X162463975Y-61569666D01*
X162461652Y-61564754D01*
X162458237Y-61553499D01*
X162456648Y-61537360D01*
X162456648Y-60999639D01*
X162458454Y-60981301D01*
X162459056Y-60969050D01*
X162459056Y-60950631D01*
X162461250Y-60928351D01*
X162477976Y-60844267D01*
X162484476Y-60822840D01*
X162517280Y-60743642D01*
X162520191Y-60738197D01*
X162520193Y-60738191D01*
X162524929Y-60729331D01*
X162524932Y-60729327D01*
X162527840Y-60723886D01*
X162575471Y-60652601D01*
X162589672Y-60635296D01*
X162650296Y-60574672D01*
X162667601Y-60560471D01*
X162738886Y-60512840D01*
X162744327Y-60509932D01*
X162744331Y-60509929D01*
X162753191Y-60505193D01*
X162753197Y-60505191D01*
X162758642Y-60502280D01*
X162837840Y-60469476D01*
X162859267Y-60462976D01*
X162943351Y-60446250D01*
X162965631Y-60444056D01*
X162984050Y-60444056D01*
X162996301Y-60443454D01*
X163014639Y-60441648D01*
X163502361Y-60441648D01*
X163520699Y-60443454D01*
X163520699Y-60443454D01*
G37*
G36*
X159710699Y-60443454D02*
G01*
X159722950Y-60444056D01*
X159741369Y-60444056D01*
X159763649Y-60446250D01*
X159847733Y-60462976D01*
X159869160Y-60469476D01*
X159948358Y-60502280D01*
X159953803Y-60505191D01*
X159953809Y-60505193D01*
X159962669Y-60509929D01*
X159962673Y-60509932D01*
X159968114Y-60512840D01*
X160039399Y-60560471D01*
X160056704Y-60574672D01*
X160117328Y-60635296D01*
X160131529Y-60652601D01*
X160179160Y-60723886D01*
X160182068Y-60729327D01*
X160182071Y-60729331D01*
X160186807Y-60738191D01*
X160186809Y-60738197D01*
X160189720Y-60743642D01*
X160222524Y-60822840D01*
X160229024Y-60844267D01*
X160245750Y-60928351D01*
X160247944Y-60950631D01*
X160247944Y-60969050D01*
X160248546Y-60981301D01*
X160250352Y-60999639D01*
X160250352Y-61537360D01*
X160248763Y-61553499D01*
X160244355Y-61568028D01*
X160238894Y-61581211D01*
X160234112Y-61605245D01*
X160234111Y-61629749D01*
X160238891Y-61653782D01*
X160248268Y-61676421D01*
X160249500Y-61678265D01*
X160249500Y-62909550D01*
X160243025Y-62921664D01*
X160235912Y-62945113D01*
X160233510Y-62969499D01*
X160235912Y-62993885D01*
X160243025Y-63017334D01*
X160245348Y-63022246D01*
X160248763Y-63033501D01*
X160250352Y-63049640D01*
X160250352Y-63587362D01*
X160248546Y-63605699D01*
X160247944Y-63617950D01*
X160247944Y-63636369D01*
X160245750Y-63658649D01*
X160229024Y-63742733D01*
X160222524Y-63764160D01*
X160189720Y-63843358D01*
X160186809Y-63848803D01*
X160186807Y-63848809D01*
X160182071Y-63857669D01*
X160182068Y-63857673D01*
X160179160Y-63863114D01*
X160131529Y-63934399D01*
X160117328Y-63951704D01*
X160056704Y-64012328D01*
X160039399Y-64026529D01*
X159968114Y-64074160D01*
X159962673Y-64077068D01*
X159962669Y-64077071D01*
X159953809Y-64081807D01*
X159953803Y-64081809D01*
X159948358Y-64084720D01*
X159869160Y-64117524D01*
X159847733Y-64124024D01*
X159763649Y-64140750D01*
X159741369Y-64142944D01*
X159722950Y-64142944D01*
X159710699Y-64143546D01*
X159692362Y-64145352D01*
X159204638Y-64145352D01*
X159186301Y-64143546D01*
X159174050Y-64142944D01*
X159155631Y-64142944D01*
X159133351Y-64140750D01*
X159049267Y-64124024D01*
X159027840Y-64117524D01*
X158948642Y-64084720D01*
X158943197Y-64081809D01*
X158943191Y-64081807D01*
X158934331Y-64077071D01*
X158934327Y-64077068D01*
X158928886Y-64074160D01*
X158857601Y-64026529D01*
X158840296Y-64012328D01*
X158779672Y-63951704D01*
X158765471Y-63934399D01*
X158717840Y-63863114D01*
X158714932Y-63857673D01*
X158714929Y-63857669D01*
X158710193Y-63848809D01*
X158710191Y-63848803D01*
X158707280Y-63843358D01*
X158674476Y-63764160D01*
X158667976Y-63742733D01*
X158651250Y-63658649D01*
X158649056Y-63636369D01*
X158649056Y-63617950D01*
X158648454Y-63605699D01*
X158646648Y-63587362D01*
X158646648Y-63049640D01*
X158648237Y-63033501D01*
X158652645Y-63018972D01*
X158658106Y-63005789D01*
X158662888Y-62981755D01*
X158662889Y-62957251D01*
X158658109Y-62933218D01*
X158648732Y-62910579D01*
X158647500Y-62908735D01*
X158647500Y-61677450D01*
X158653975Y-61665336D01*
X158661088Y-61641887D01*
X158663490Y-61617501D01*
X158661088Y-61593115D01*
X158653975Y-61569666D01*
X158651652Y-61564754D01*
X158648237Y-61553499D01*
X158646648Y-61537360D01*
X158646648Y-60999639D01*
X158648454Y-60981301D01*
X158649056Y-60969050D01*
X158649056Y-60950631D01*
X158651250Y-60928351D01*
X158667976Y-60844267D01*
X158674476Y-60822840D01*
X158707280Y-60743642D01*
X158710191Y-60738197D01*
X158710193Y-60738191D01*
X158714929Y-60729331D01*
X158714932Y-60729327D01*
X158717840Y-60723886D01*
X158765471Y-60652601D01*
X158779672Y-60635296D01*
X158840296Y-60574672D01*
X158857601Y-60560471D01*
X158928886Y-60512840D01*
X158934327Y-60509932D01*
X158934331Y-60509929D01*
X158943191Y-60505193D01*
X158943197Y-60505191D01*
X158948642Y-60502280D01*
X159027840Y-60469476D01*
X159049267Y-60462976D01*
X159133351Y-60446250D01*
X159155631Y-60444056D01*
X159174050Y-60444056D01*
X159186301Y-60443454D01*
X159204639Y-60441648D01*
X159692361Y-60441648D01*
X159710699Y-60443454D01*
X159710699Y-60443454D01*
G37*
G36*
X155583199Y-60443454D02*
G01*
X155595450Y-60444056D01*
X155613869Y-60444056D01*
X155636149Y-60446250D01*
X155720233Y-60462976D01*
X155741660Y-60469476D01*
X155820858Y-60502280D01*
X155826303Y-60505191D01*
X155826309Y-60505193D01*
X155835169Y-60509929D01*
X155835173Y-60509932D01*
X155840614Y-60512840D01*
X155911899Y-60560471D01*
X155929204Y-60574672D01*
X155989828Y-60635296D01*
X156004029Y-60652601D01*
X156051660Y-60723886D01*
X156054568Y-60729327D01*
X156054571Y-60729331D01*
X156059307Y-60738191D01*
X156059309Y-60738197D01*
X156062220Y-60743642D01*
X156095024Y-60822840D01*
X156101524Y-60844267D01*
X156118250Y-60928351D01*
X156120444Y-60950631D01*
X156120444Y-60969050D01*
X156121046Y-60981301D01*
X156122852Y-60999639D01*
X156122852Y-61537360D01*
X156121263Y-61553499D01*
X156116855Y-61568028D01*
X156111394Y-61581211D01*
X156106612Y-61605245D01*
X156106611Y-61629749D01*
X156111391Y-61653782D01*
X156120768Y-61676421D01*
X156122000Y-61678265D01*
X156122000Y-62909550D01*
X156115525Y-62921664D01*
X156108412Y-62945113D01*
X156106010Y-62969499D01*
X156108412Y-62993885D01*
X156115525Y-63017334D01*
X156117848Y-63022246D01*
X156121263Y-63033501D01*
X156122852Y-63049640D01*
X156122852Y-63587362D01*
X156121046Y-63605699D01*
X156120444Y-63617950D01*
X156120444Y-63636369D01*
X156118250Y-63658649D01*
X156101524Y-63742733D01*
X156095024Y-63764160D01*
X156062220Y-63843358D01*
X156059309Y-63848803D01*
X156059307Y-63848809D01*
X156054571Y-63857669D01*
X156054568Y-63857673D01*
X156051660Y-63863114D01*
X156004029Y-63934399D01*
X155989828Y-63951704D01*
X155929204Y-64012328D01*
X155911899Y-64026529D01*
X155840614Y-64074160D01*
X155835173Y-64077068D01*
X155835169Y-64077071D01*
X155826309Y-64081807D01*
X155826303Y-64081809D01*
X155820858Y-64084720D01*
X155741660Y-64117524D01*
X155720233Y-64124024D01*
X155636149Y-64140750D01*
X155613869Y-64142944D01*
X155595450Y-64142944D01*
X155583199Y-64143546D01*
X155564862Y-64145352D01*
X155077138Y-64145352D01*
X155058801Y-64143546D01*
X155046550Y-64142944D01*
X155028131Y-64142944D01*
X155005851Y-64140750D01*
X154921767Y-64124024D01*
X154900340Y-64117524D01*
X154821142Y-64084720D01*
X154815697Y-64081809D01*
X154815691Y-64081807D01*
X154806831Y-64077071D01*
X154806827Y-64077068D01*
X154801386Y-64074160D01*
X154730101Y-64026529D01*
X154712796Y-64012328D01*
X154652172Y-63951704D01*
X154637971Y-63934399D01*
X154590340Y-63863114D01*
X154587432Y-63857673D01*
X154587429Y-63857669D01*
X154582693Y-63848809D01*
X154582691Y-63848803D01*
X154579780Y-63843358D01*
X154546976Y-63764160D01*
X154540476Y-63742733D01*
X154523750Y-63658649D01*
X154521556Y-63636369D01*
X154521556Y-63617950D01*
X154520954Y-63605699D01*
X154519148Y-63587362D01*
X154519148Y-63049640D01*
X154520737Y-63033501D01*
X154525145Y-63018972D01*
X154530606Y-63005789D01*
X154535388Y-62981755D01*
X154535389Y-62957251D01*
X154530609Y-62933218D01*
X154521232Y-62910579D01*
X154520000Y-62908735D01*
X154520000Y-61677450D01*
X154526475Y-61665336D01*
X154533588Y-61641887D01*
X154535990Y-61617501D01*
X154533588Y-61593115D01*
X154526475Y-61569666D01*
X154524152Y-61564754D01*
X154520737Y-61553499D01*
X154519148Y-61537360D01*
X154519148Y-60999639D01*
X154520954Y-60981301D01*
X154521556Y-60969050D01*
X154521556Y-60950631D01*
X154523750Y-60928351D01*
X154540476Y-60844267D01*
X154546976Y-60822840D01*
X154579780Y-60743642D01*
X154582691Y-60738197D01*
X154582693Y-60738191D01*
X154587429Y-60729331D01*
X154587432Y-60729327D01*
X154590340Y-60723886D01*
X154637971Y-60652601D01*
X154652172Y-60635296D01*
X154712796Y-60574672D01*
X154730101Y-60560471D01*
X154801386Y-60512840D01*
X154806827Y-60509932D01*
X154806831Y-60509929D01*
X154815691Y-60505193D01*
X154815697Y-60505191D01*
X154821142Y-60502280D01*
X154900340Y-60469476D01*
X154921767Y-60462976D01*
X155005851Y-60446250D01*
X155028131Y-60444056D01*
X155046550Y-60444056D01*
X155058801Y-60443454D01*
X155077139Y-60441648D01*
X155564861Y-60441648D01*
X155583199Y-60443454D01*
X155583199Y-60443454D01*
G37*
G36*
X150757199Y-60443454D02*
G01*
X150769450Y-60444056D01*
X150787869Y-60444056D01*
X150810149Y-60446250D01*
X150894233Y-60462976D01*
X150915660Y-60469476D01*
X150994858Y-60502280D01*
X151000303Y-60505191D01*
X151000309Y-60505193D01*
X151009169Y-60509929D01*
X151009173Y-60509932D01*
X151014614Y-60512840D01*
X151085899Y-60560471D01*
X151103204Y-60574672D01*
X151163828Y-60635296D01*
X151178029Y-60652601D01*
X151225660Y-60723886D01*
X151228568Y-60729327D01*
X151228571Y-60729331D01*
X151233307Y-60738191D01*
X151233309Y-60738197D01*
X151236220Y-60743642D01*
X151269024Y-60822840D01*
X151275524Y-60844267D01*
X151292250Y-60928351D01*
X151294444Y-60950631D01*
X151294444Y-60969050D01*
X151295046Y-60981301D01*
X151296852Y-60999639D01*
X151296852Y-61537360D01*
X151295263Y-61553499D01*
X151290855Y-61568028D01*
X151285394Y-61581211D01*
X151280612Y-61605245D01*
X151280611Y-61629749D01*
X151285391Y-61653782D01*
X151294768Y-61676421D01*
X151296000Y-61678265D01*
X151296000Y-62909550D01*
X151289525Y-62921664D01*
X151282412Y-62945113D01*
X151280010Y-62969499D01*
X151282412Y-62993885D01*
X151289525Y-63017334D01*
X151291848Y-63022246D01*
X151295263Y-63033501D01*
X151296852Y-63049640D01*
X151296852Y-63587362D01*
X151295046Y-63605699D01*
X151294444Y-63617950D01*
X151294444Y-63636369D01*
X151292250Y-63658649D01*
X151275524Y-63742733D01*
X151269024Y-63764160D01*
X151236220Y-63843358D01*
X151233309Y-63848803D01*
X151233307Y-63848809D01*
X151228571Y-63857669D01*
X151228568Y-63857673D01*
X151225660Y-63863114D01*
X151178029Y-63934399D01*
X151163828Y-63951704D01*
X151103204Y-64012328D01*
X151085899Y-64026529D01*
X151014614Y-64074160D01*
X151009173Y-64077068D01*
X151009169Y-64077071D01*
X151000309Y-64081807D01*
X151000303Y-64081809D01*
X150994858Y-64084720D01*
X150915660Y-64117524D01*
X150894233Y-64124024D01*
X150810149Y-64140750D01*
X150787869Y-64142944D01*
X150769450Y-64142944D01*
X150757199Y-64143546D01*
X150738862Y-64145352D01*
X150251138Y-64145352D01*
X150232801Y-64143546D01*
X150220550Y-64142944D01*
X150202131Y-64142944D01*
X150179851Y-64140750D01*
X150095767Y-64124024D01*
X150074340Y-64117524D01*
X149995142Y-64084720D01*
X149989697Y-64081809D01*
X149989691Y-64081807D01*
X149980831Y-64077071D01*
X149980827Y-64077068D01*
X149975386Y-64074160D01*
X149904101Y-64026529D01*
X149886796Y-64012328D01*
X149826172Y-63951704D01*
X149811971Y-63934399D01*
X149764340Y-63863114D01*
X149761432Y-63857673D01*
X149761429Y-63857669D01*
X149756693Y-63848809D01*
X149756691Y-63848803D01*
X149753780Y-63843358D01*
X149720976Y-63764160D01*
X149714476Y-63742733D01*
X149697750Y-63658649D01*
X149695556Y-63636369D01*
X149695556Y-63617950D01*
X149694954Y-63605699D01*
X149693148Y-63587362D01*
X149693148Y-63049640D01*
X149694737Y-63033501D01*
X149699145Y-63018972D01*
X149704606Y-63005789D01*
X149709388Y-62981755D01*
X149709389Y-62957251D01*
X149704609Y-62933218D01*
X149695232Y-62910579D01*
X149694000Y-62908735D01*
X149694000Y-61677450D01*
X149700475Y-61665336D01*
X149707588Y-61641887D01*
X149709990Y-61617501D01*
X149707588Y-61593115D01*
X149700475Y-61569666D01*
X149698152Y-61564754D01*
X149694737Y-61553499D01*
X149693148Y-61537360D01*
X149693148Y-60999639D01*
X149694954Y-60981301D01*
X149695556Y-60969050D01*
X149695556Y-60950631D01*
X149697750Y-60928351D01*
X149714476Y-60844267D01*
X149720976Y-60822840D01*
X149753780Y-60743642D01*
X149756691Y-60738197D01*
X149756693Y-60738191D01*
X149761429Y-60729331D01*
X149761432Y-60729327D01*
X149764340Y-60723886D01*
X149811971Y-60652601D01*
X149826172Y-60635296D01*
X149886796Y-60574672D01*
X149904101Y-60560471D01*
X149975386Y-60512840D01*
X149980827Y-60509932D01*
X149980831Y-60509929D01*
X149989691Y-60505193D01*
X149989697Y-60505191D01*
X149995142Y-60502280D01*
X150074340Y-60469476D01*
X150095767Y-60462976D01*
X150179851Y-60446250D01*
X150202131Y-60444056D01*
X150220550Y-60444056D01*
X150232801Y-60443454D01*
X150251139Y-60441648D01*
X150738861Y-60441648D01*
X150757199Y-60443454D01*
X150757199Y-60443454D01*
G37*
G36*
X137206942Y-60637018D02*
G01*
X137273127Y-60643537D01*
X137442966Y-60695057D01*
X137599491Y-60778722D01*
X137635229Y-60808052D01*
X137736686Y-60891314D01*
X137819948Y-60992771D01*
X137849278Y-61028509D01*
X137932943Y-61185034D01*
X137984463Y-61354873D01*
X138001859Y-61531500D01*
X137984463Y-61708127D01*
X137932943Y-61877966D01*
X137849278Y-62034491D01*
X137819948Y-62070229D01*
X137736686Y-62171686D01*
X137635229Y-62254948D01*
X137599491Y-62284278D01*
X137442966Y-62367943D01*
X137273127Y-62419463D01*
X137206943Y-62425981D01*
X137140760Y-62432500D01*
X137052240Y-62432500D01*
X136986057Y-62425981D01*
X136919873Y-62419463D01*
X136750034Y-62367943D01*
X136593509Y-62284278D01*
X136557771Y-62254948D01*
X136456314Y-62171686D01*
X136373052Y-62070229D01*
X136343722Y-62034491D01*
X136260057Y-61877966D01*
X136208537Y-61708127D01*
X136191141Y-61531500D01*
X136208537Y-61354873D01*
X136260057Y-61185034D01*
X136343722Y-61028509D01*
X136373052Y-60992771D01*
X136456314Y-60891314D01*
X136557771Y-60808052D01*
X136593509Y-60778722D01*
X136750034Y-60695057D01*
X136919873Y-60643537D01*
X136986058Y-60637018D01*
X137052240Y-60630500D01*
X137140760Y-60630500D01*
X137206942Y-60637018D01*
X137206942Y-60637018D01*
G37*
G36*
X137206943Y-58097019D02*
G01*
X137273127Y-58103537D01*
X137442966Y-58155057D01*
X137599491Y-58238722D01*
X137635229Y-58268052D01*
X137736686Y-58351314D01*
X137819948Y-58452771D01*
X137849278Y-58488509D01*
X137932943Y-58645034D01*
X137984463Y-58814873D01*
X138001859Y-58991500D01*
X137984463Y-59168127D01*
X137932943Y-59337966D01*
X137849278Y-59494491D01*
X137819948Y-59530229D01*
X137736686Y-59631686D01*
X137635229Y-59714948D01*
X137599491Y-59744278D01*
X137442966Y-59827943D01*
X137273127Y-59879463D01*
X137206942Y-59885982D01*
X137140760Y-59892500D01*
X137052240Y-59892500D01*
X136986058Y-59885982D01*
X136919873Y-59879463D01*
X136750034Y-59827943D01*
X136593509Y-59744278D01*
X136557771Y-59714948D01*
X136456314Y-59631686D01*
X136373052Y-59530229D01*
X136343722Y-59494491D01*
X136260057Y-59337966D01*
X136208537Y-59168127D01*
X136191141Y-58991500D01*
X136208537Y-58814873D01*
X136260057Y-58645034D01*
X136343722Y-58488509D01*
X136373052Y-58452771D01*
X136456314Y-58351314D01*
X136557771Y-58268052D01*
X136593509Y-58238722D01*
X136750034Y-58155057D01*
X136919873Y-58103537D01*
X136986057Y-58097019D01*
X137052240Y-58090500D01*
X137140760Y-58090500D01*
X137206943Y-58097019D01*
X137206943Y-58097019D01*
G37*
G36*
X137997500Y-57352500D02*
G01*
X136195500Y-57352500D01*
X136195500Y-55550500D01*
X137997500Y-55550500D01*
X137997500Y-57352500D01*
X137997500Y-57352500D01*
G37*
G36*
X90375256Y-53391298D02*
G01*
X90481579Y-53412447D01*
X90782042Y-53536903D01*
X91052451Y-53717585D01*
X91282415Y-53947549D01*
X91463097Y-54217958D01*
X91587553Y-54518421D01*
X91588429Y-54522825D01*
X91651000Y-54837389D01*
X91651000Y-55162611D01*
X91642170Y-55207000D01*
X91587553Y-55481579D01*
X91463097Y-55782042D01*
X91282415Y-56052451D01*
X91052451Y-56282415D01*
X90782042Y-56463097D01*
X90481579Y-56587553D01*
X90375256Y-56608702D01*
X90162611Y-56651000D01*
X89837389Y-56651000D01*
X89624744Y-56608702D01*
X89518421Y-56587553D01*
X89217958Y-56463097D01*
X88947549Y-56282415D01*
X88717585Y-56052451D01*
X88536903Y-55782042D01*
X88412447Y-55481579D01*
X88357830Y-55207000D01*
X88349000Y-55162611D01*
X88349000Y-54837389D01*
X88411571Y-54522825D01*
X88412447Y-54518421D01*
X88536903Y-54217958D01*
X88717585Y-53947549D01*
X88947549Y-53717585D01*
X89217958Y-53536903D01*
X89518421Y-53412447D01*
X89624744Y-53391298D01*
X89837389Y-53349000D01*
X90162611Y-53349000D01*
X90375256Y-53391298D01*
X90375256Y-53391298D01*
G37*
G36*
X190375256Y-53391298D02*
G01*
X190481579Y-53412447D01*
X190782042Y-53536903D01*
X191052451Y-53717585D01*
X191282415Y-53947549D01*
X191463097Y-54217958D01*
X191587553Y-54518421D01*
X191588429Y-54522825D01*
X191651000Y-54837389D01*
X191651000Y-55162611D01*
X191642170Y-55207000D01*
X191587553Y-55481579D01*
X191463097Y-55782042D01*
X191282415Y-56052451D01*
X191052451Y-56282415D01*
X190782042Y-56463097D01*
X190481579Y-56587553D01*
X190375256Y-56608702D01*
X190162611Y-56651000D01*
X189837389Y-56651000D01*
X189624744Y-56608702D01*
X189518421Y-56587553D01*
X189217958Y-56463097D01*
X188947549Y-56282415D01*
X188717585Y-56052451D01*
X188536903Y-55782042D01*
X188412447Y-55481579D01*
X188357830Y-55207000D01*
X188349000Y-55162611D01*
X188349000Y-54837389D01*
X188411571Y-54522825D01*
X188412447Y-54518421D01*
X188536903Y-54217958D01*
X188717585Y-53947549D01*
X188947549Y-53717585D01*
X189217958Y-53536903D01*
X189518421Y-53412447D01*
X189624744Y-53391298D01*
X189837389Y-53349000D01*
X190162611Y-53349000D01*
X190375256Y-53391298D01*
X190375256Y-53391298D01*
G37*
G36*
X151233323Y-53517313D02*
G01*
X151393742Y-53565976D01*
X151526406Y-53636886D01*
X151541578Y-53644996D01*
X151671159Y-53751341D01*
X151777504Y-53880922D01*
X151777505Y-53880924D01*
X151856524Y-54028758D01*
X151905187Y-54189177D01*
X151921617Y-54356000D01*
X151905187Y-54522823D01*
X151856524Y-54683242D01*
X151785614Y-54815906D01*
X151777504Y-54831078D01*
X151671159Y-54960659D01*
X151541578Y-55067004D01*
X151541576Y-55067005D01*
X151393742Y-55146024D01*
X151233323Y-55194687D01*
X151108304Y-55207000D01*
X151024696Y-55207000D01*
X150899677Y-55194687D01*
X150739258Y-55146024D01*
X150591424Y-55067005D01*
X150591422Y-55067004D01*
X150461841Y-54960659D01*
X150355496Y-54831078D01*
X150347386Y-54815906D01*
X150276476Y-54683242D01*
X150227813Y-54522823D01*
X150211383Y-54356000D01*
X150227813Y-54189177D01*
X150276476Y-54028758D01*
X150355495Y-53880924D01*
X150355496Y-53880922D01*
X150461841Y-53751341D01*
X150591422Y-53644996D01*
X150606594Y-53636886D01*
X150739258Y-53565976D01*
X150899677Y-53517313D01*
X151024696Y-53505000D01*
X151108304Y-53505000D01*
X151233323Y-53517313D01*
X151233323Y-53517313D01*
G37*
G36*
X148693323Y-53517313D02*
G01*
X148853742Y-53565976D01*
X148986406Y-53636886D01*
X149001578Y-53644996D01*
X149131159Y-53751341D01*
X149237504Y-53880922D01*
X149237505Y-53880924D01*
X149316524Y-54028758D01*
X149365187Y-54189177D01*
X149381617Y-54356000D01*
X149365187Y-54522823D01*
X149316524Y-54683242D01*
X149245614Y-54815906D01*
X149237504Y-54831078D01*
X149131159Y-54960659D01*
X149001578Y-55067004D01*
X149001576Y-55067005D01*
X148853742Y-55146024D01*
X148693323Y-55194687D01*
X148568304Y-55207000D01*
X148484696Y-55207000D01*
X148359677Y-55194687D01*
X148199258Y-55146024D01*
X148051424Y-55067005D01*
X148051422Y-55067004D01*
X147921841Y-54960659D01*
X147815496Y-54831078D01*
X147807386Y-54815906D01*
X147736476Y-54683242D01*
X147687813Y-54522823D01*
X147671383Y-54356000D01*
X147687813Y-54189177D01*
X147736476Y-54028758D01*
X147815495Y-53880924D01*
X147815496Y-53880922D01*
X147921841Y-53751341D01*
X148051422Y-53644996D01*
X148066594Y-53636886D01*
X148199258Y-53565976D01*
X148359677Y-53517313D01*
X148484696Y-53505000D01*
X148568304Y-53505000D01*
X148693323Y-53517313D01*
X148693323Y-53517313D01*
G37*
G36*
X174093323Y-53517313D02*
G01*
X174253742Y-53565976D01*
X174386406Y-53636886D01*
X174401578Y-53644996D01*
X174531159Y-53751341D01*
X174637504Y-53880922D01*
X174637505Y-53880924D01*
X174716524Y-54028758D01*
X174765187Y-54189177D01*
X174781617Y-54356000D01*
X174765187Y-54522823D01*
X174716524Y-54683242D01*
X174645614Y-54815906D01*
X174637504Y-54831078D01*
X174531159Y-54960659D01*
X174401578Y-55067004D01*
X174401576Y-55067005D01*
X174253742Y-55146024D01*
X174093323Y-55194687D01*
X173968304Y-55207000D01*
X173884696Y-55207000D01*
X173759677Y-55194687D01*
X173599258Y-55146024D01*
X173451424Y-55067005D01*
X173451422Y-55067004D01*
X173321841Y-54960659D01*
X173215496Y-54831078D01*
X173207386Y-54815906D01*
X173136476Y-54683242D01*
X173087813Y-54522823D01*
X173071383Y-54356000D01*
X173087813Y-54189177D01*
X173136476Y-54028758D01*
X173215495Y-53880924D01*
X173215496Y-53880922D01*
X173321841Y-53751341D01*
X173451422Y-53644996D01*
X173466594Y-53636886D01*
X173599258Y-53565976D01*
X173759677Y-53517313D01*
X173884696Y-53505000D01*
X173968304Y-53505000D01*
X174093323Y-53517313D01*
X174093323Y-53517313D01*
G37*
G36*
X163933323Y-53517313D02*
G01*
X164093742Y-53565976D01*
X164226406Y-53636886D01*
X164241578Y-53644996D01*
X164371159Y-53751341D01*
X164477504Y-53880922D01*
X164477505Y-53880924D01*
X164556524Y-54028758D01*
X164605187Y-54189177D01*
X164621617Y-54356000D01*
X164605187Y-54522823D01*
X164556524Y-54683242D01*
X164485614Y-54815906D01*
X164477504Y-54831078D01*
X164371159Y-54960659D01*
X164241578Y-55067004D01*
X164241576Y-55067005D01*
X164093742Y-55146024D01*
X163933323Y-55194687D01*
X163808304Y-55207000D01*
X163724696Y-55207000D01*
X163599677Y-55194687D01*
X163439258Y-55146024D01*
X163291424Y-55067005D01*
X163291422Y-55067004D01*
X163161841Y-54960659D01*
X163055496Y-54831078D01*
X163047386Y-54815906D01*
X162976476Y-54683242D01*
X162927813Y-54522823D01*
X162911383Y-54356000D01*
X162927813Y-54189177D01*
X162976476Y-54028758D01*
X163055495Y-53880924D01*
X163055496Y-53880922D01*
X163161841Y-53751341D01*
X163291422Y-53644996D01*
X163306594Y-53636886D01*
X163439258Y-53565976D01*
X163599677Y-53517313D01*
X163724696Y-53505000D01*
X163808304Y-53505000D01*
X163933323Y-53517313D01*
X163933323Y-53517313D01*
G37*
G36*
X176633323Y-53517313D02*
G01*
X176793742Y-53565976D01*
X176926406Y-53636886D01*
X176941578Y-53644996D01*
X177071159Y-53751341D01*
X177177504Y-53880922D01*
X177177505Y-53880924D01*
X177256524Y-54028758D01*
X177305187Y-54189177D01*
X177321617Y-54356000D01*
X177305187Y-54522823D01*
X177256524Y-54683242D01*
X177185614Y-54815906D01*
X177177504Y-54831078D01*
X177071159Y-54960659D01*
X176941578Y-55067004D01*
X176941576Y-55067005D01*
X176793742Y-55146024D01*
X176633323Y-55194687D01*
X176508304Y-55207000D01*
X176424696Y-55207000D01*
X176299677Y-55194687D01*
X176139258Y-55146024D01*
X175991424Y-55067005D01*
X175991422Y-55067004D01*
X175861841Y-54960659D01*
X175755496Y-54831078D01*
X175747386Y-54815906D01*
X175676476Y-54683242D01*
X175627813Y-54522823D01*
X175611383Y-54356000D01*
X175627813Y-54189177D01*
X175676476Y-54028758D01*
X175755495Y-53880924D01*
X175755496Y-53880922D01*
X175861841Y-53751341D01*
X175991422Y-53644996D01*
X176006594Y-53636886D01*
X176139258Y-53565976D01*
X176299677Y-53517313D01*
X176424696Y-53505000D01*
X176508304Y-53505000D01*
X176633323Y-53517313D01*
X176633323Y-53517313D01*
G37*
G36*
X146153323Y-53517313D02*
G01*
X146313742Y-53565976D01*
X146446406Y-53636886D01*
X146461578Y-53644996D01*
X146591159Y-53751341D01*
X146697504Y-53880922D01*
X146697505Y-53880924D01*
X146776524Y-54028758D01*
X146825187Y-54189177D01*
X146841617Y-54356000D01*
X146825187Y-54522823D01*
X146776524Y-54683242D01*
X146705614Y-54815906D01*
X146697504Y-54831078D01*
X146591159Y-54960659D01*
X146461578Y-55067004D01*
X146461576Y-55067005D01*
X146313742Y-55146024D01*
X146153323Y-55194687D01*
X146028304Y-55207000D01*
X145944696Y-55207000D01*
X145819677Y-55194687D01*
X145659258Y-55146024D01*
X145511424Y-55067005D01*
X145511422Y-55067004D01*
X145381841Y-54960659D01*
X145275496Y-54831078D01*
X145267386Y-54815906D01*
X145196476Y-54683242D01*
X145147813Y-54522823D01*
X145131383Y-54356000D01*
X145147813Y-54189177D01*
X145196476Y-54028758D01*
X145275495Y-53880924D01*
X145275496Y-53880922D01*
X145381841Y-53751341D01*
X145511422Y-53644996D01*
X145526594Y-53636886D01*
X145659258Y-53565976D01*
X145819677Y-53517313D01*
X145944696Y-53505000D01*
X146028304Y-53505000D01*
X146153323Y-53517313D01*
X146153323Y-53517313D01*
G37*
G36*
X143613323Y-53517313D02*
G01*
X143773742Y-53565976D01*
X143906406Y-53636886D01*
X143921578Y-53644996D01*
X144051159Y-53751341D01*
X144157504Y-53880922D01*
X144157505Y-53880924D01*
X144236524Y-54028758D01*
X144285187Y-54189177D01*
X144301617Y-54356000D01*
X144285187Y-54522823D01*
X144236524Y-54683242D01*
X144165614Y-54815906D01*
X144157504Y-54831078D01*
X144051159Y-54960659D01*
X143921578Y-55067004D01*
X143921576Y-55067005D01*
X143773742Y-55146024D01*
X143613323Y-55194687D01*
X143488304Y-55207000D01*
X143404696Y-55207000D01*
X143279677Y-55194687D01*
X143119258Y-55146024D01*
X142971424Y-55067005D01*
X142971422Y-55067004D01*
X142841841Y-54960659D01*
X142735496Y-54831078D01*
X142727386Y-54815906D01*
X142656476Y-54683242D01*
X142607813Y-54522823D01*
X142591383Y-54356000D01*
X142607813Y-54189177D01*
X142656476Y-54028758D01*
X142735495Y-53880924D01*
X142735496Y-53880922D01*
X142841841Y-53751341D01*
X142971422Y-53644996D01*
X142986594Y-53636886D01*
X143119258Y-53565976D01*
X143279677Y-53517313D01*
X143404696Y-53505000D01*
X143488304Y-53505000D01*
X143613323Y-53517313D01*
X143613323Y-53517313D01*
G37*
G36*
X166473323Y-53517313D02*
G01*
X166633742Y-53565976D01*
X166766406Y-53636886D01*
X166781578Y-53644996D01*
X166911159Y-53751341D01*
X167017504Y-53880922D01*
X167017505Y-53880924D01*
X167096524Y-54028758D01*
X167145187Y-54189177D01*
X167161617Y-54356000D01*
X167145187Y-54522823D01*
X167096524Y-54683242D01*
X167025614Y-54815906D01*
X167017504Y-54831078D01*
X166911159Y-54960659D01*
X166781578Y-55067004D01*
X166781576Y-55067005D01*
X166633742Y-55146024D01*
X166473323Y-55194687D01*
X166348304Y-55207000D01*
X166264696Y-55207000D01*
X166139677Y-55194687D01*
X165979258Y-55146024D01*
X165831424Y-55067005D01*
X165831422Y-55067004D01*
X165701841Y-54960659D01*
X165595496Y-54831078D01*
X165587386Y-54815906D01*
X165516476Y-54683242D01*
X165467813Y-54522823D01*
X165451383Y-54356000D01*
X165467813Y-54189177D01*
X165516476Y-54028758D01*
X165595495Y-53880924D01*
X165595496Y-53880922D01*
X165701841Y-53751341D01*
X165831422Y-53644996D01*
X165846594Y-53636886D01*
X165979258Y-53565976D01*
X166139677Y-53517313D01*
X166264696Y-53505000D01*
X166348304Y-53505000D01*
X166473323Y-53517313D01*
X166473323Y-53517313D01*
G37*
G36*
X179173323Y-53517313D02*
G01*
X179333742Y-53565976D01*
X179466406Y-53636886D01*
X179481578Y-53644996D01*
X179611159Y-53751341D01*
X179717504Y-53880922D01*
X179717505Y-53880924D01*
X179796524Y-54028758D01*
X179845187Y-54189177D01*
X179861617Y-54356000D01*
X179845187Y-54522823D01*
X179796524Y-54683242D01*
X179725614Y-54815906D01*
X179717504Y-54831078D01*
X179611159Y-54960659D01*
X179481578Y-55067004D01*
X179481576Y-55067005D01*
X179333742Y-55146024D01*
X179173323Y-55194687D01*
X179048304Y-55207000D01*
X178964696Y-55207000D01*
X178839677Y-55194687D01*
X178679258Y-55146024D01*
X178531424Y-55067005D01*
X178531422Y-55067004D01*
X178401841Y-54960659D01*
X178295496Y-54831078D01*
X178287386Y-54815906D01*
X178216476Y-54683242D01*
X178167813Y-54522823D01*
X178151383Y-54356000D01*
X178167813Y-54189177D01*
X178216476Y-54028758D01*
X178295495Y-53880924D01*
X178295496Y-53880922D01*
X178401841Y-53751341D01*
X178531422Y-53644996D01*
X178546594Y-53636886D01*
X178679258Y-53565976D01*
X178839677Y-53517313D01*
X178964696Y-53505000D01*
X179048304Y-53505000D01*
X179173323Y-53517313D01*
X179173323Y-53517313D01*
G37*
G36*
X171553323Y-53517313D02*
G01*
X171713742Y-53565976D01*
X171846406Y-53636886D01*
X171861578Y-53644996D01*
X171991159Y-53751341D01*
X172097504Y-53880922D01*
X172097505Y-53880924D01*
X172176524Y-54028758D01*
X172225187Y-54189177D01*
X172241617Y-54356000D01*
X172225187Y-54522823D01*
X172176524Y-54683242D01*
X172105614Y-54815906D01*
X172097504Y-54831078D01*
X171991159Y-54960659D01*
X171861578Y-55067004D01*
X171861576Y-55067005D01*
X171713742Y-55146024D01*
X171553323Y-55194687D01*
X171428304Y-55207000D01*
X171344696Y-55207000D01*
X171219677Y-55194687D01*
X171059258Y-55146024D01*
X170911424Y-55067005D01*
X170911422Y-55067004D01*
X170781841Y-54960659D01*
X170675496Y-54831078D01*
X170667386Y-54815906D01*
X170596476Y-54683242D01*
X170547813Y-54522823D01*
X170531383Y-54356000D01*
X170547813Y-54189177D01*
X170596476Y-54028758D01*
X170675495Y-53880924D01*
X170675496Y-53880922D01*
X170781841Y-53751341D01*
X170911422Y-53644996D01*
X170926594Y-53636886D01*
X171059258Y-53565976D01*
X171219677Y-53517313D01*
X171344696Y-53505000D01*
X171428304Y-53505000D01*
X171553323Y-53517313D01*
X171553323Y-53517313D01*
G37*
G36*
X153773323Y-53517313D02*
G01*
X153933742Y-53565976D01*
X154066406Y-53636886D01*
X154081578Y-53644996D01*
X154211159Y-53751341D01*
X154317504Y-53880922D01*
X154317505Y-53880924D01*
X154396524Y-54028758D01*
X154445187Y-54189177D01*
X154461617Y-54356000D01*
X154445187Y-54522823D01*
X154396524Y-54683242D01*
X154325614Y-54815906D01*
X154317504Y-54831078D01*
X154211159Y-54960659D01*
X154081578Y-55067004D01*
X154081576Y-55067005D01*
X153933742Y-55146024D01*
X153773323Y-55194687D01*
X153648304Y-55207000D01*
X153564696Y-55207000D01*
X153439677Y-55194687D01*
X153279258Y-55146024D01*
X153131424Y-55067005D01*
X153131422Y-55067004D01*
X153001841Y-54960659D01*
X152895496Y-54831078D01*
X152887386Y-54815906D01*
X152816476Y-54683242D01*
X152767813Y-54522823D01*
X152751383Y-54356000D01*
X152767813Y-54189177D01*
X152816476Y-54028758D01*
X152895495Y-53880924D01*
X152895496Y-53880922D01*
X153001841Y-53751341D01*
X153131422Y-53644996D01*
X153146594Y-53636886D01*
X153279258Y-53565976D01*
X153439677Y-53517313D01*
X153564696Y-53505000D01*
X153648304Y-53505000D01*
X153773323Y-53517313D01*
X153773323Y-53517313D01*
G37*
G36*
X169013323Y-53517313D02*
G01*
X169173742Y-53565976D01*
X169306406Y-53636886D01*
X169321578Y-53644996D01*
X169451159Y-53751341D01*
X169557504Y-53880922D01*
X169557505Y-53880924D01*
X169636524Y-54028758D01*
X169685187Y-54189177D01*
X169701617Y-54356000D01*
X169685187Y-54522823D01*
X169636524Y-54683242D01*
X169565614Y-54815906D01*
X169557504Y-54831078D01*
X169451159Y-54960659D01*
X169321578Y-55067004D01*
X169321576Y-55067005D01*
X169173742Y-55146024D01*
X169013323Y-55194687D01*
X168888304Y-55207000D01*
X168804696Y-55207000D01*
X168679677Y-55194687D01*
X168519258Y-55146024D01*
X168371424Y-55067005D01*
X168371422Y-55067004D01*
X168241841Y-54960659D01*
X168135496Y-54831078D01*
X168127386Y-54815906D01*
X168056476Y-54683242D01*
X168007813Y-54522823D01*
X167991383Y-54356000D01*
X168007813Y-54189177D01*
X168056476Y-54028758D01*
X168135495Y-53880924D01*
X168135496Y-53880922D01*
X168241841Y-53751341D01*
X168371422Y-53644996D01*
X168386594Y-53636886D01*
X168519258Y-53565976D01*
X168679677Y-53517313D01*
X168804696Y-53505000D01*
X168888304Y-53505000D01*
X169013323Y-53517313D01*
X169013323Y-53517313D01*
G37*
G36*
X156313323Y-53517313D02*
G01*
X156473742Y-53565976D01*
X156606406Y-53636886D01*
X156621578Y-53644996D01*
X156751159Y-53751341D01*
X156857504Y-53880922D01*
X156857505Y-53880924D01*
X156936524Y-54028758D01*
X156985187Y-54189177D01*
X157001617Y-54356000D01*
X156985187Y-54522823D01*
X156936524Y-54683242D01*
X156865614Y-54815906D01*
X156857504Y-54831078D01*
X156751159Y-54960659D01*
X156621578Y-55067004D01*
X156621576Y-55067005D01*
X156473742Y-55146024D01*
X156313323Y-55194687D01*
X156188304Y-55207000D01*
X156104696Y-55207000D01*
X155979677Y-55194687D01*
X155819258Y-55146024D01*
X155671424Y-55067005D01*
X155671422Y-55067004D01*
X155541841Y-54960659D01*
X155435496Y-54831078D01*
X155427386Y-54815906D01*
X155356476Y-54683242D01*
X155307813Y-54522823D01*
X155291383Y-54356000D01*
X155307813Y-54189177D01*
X155356476Y-54028758D01*
X155435495Y-53880924D01*
X155435496Y-53880922D01*
X155541841Y-53751341D01*
X155671422Y-53644996D01*
X155686594Y-53636886D01*
X155819258Y-53565976D01*
X155979677Y-53517313D01*
X156104696Y-53505000D01*
X156188304Y-53505000D01*
X156313323Y-53517313D01*
X156313323Y-53517313D01*
G37*
G36*
X158853323Y-53517313D02*
G01*
X159013742Y-53565976D01*
X159146406Y-53636886D01*
X159161578Y-53644996D01*
X159291159Y-53751341D01*
X159397504Y-53880922D01*
X159397505Y-53880924D01*
X159476524Y-54028758D01*
X159525187Y-54189177D01*
X159541617Y-54356000D01*
X159525187Y-54522823D01*
X159476524Y-54683242D01*
X159405614Y-54815906D01*
X159397504Y-54831078D01*
X159291159Y-54960659D01*
X159161578Y-55067004D01*
X159161576Y-55067005D01*
X159013742Y-55146024D01*
X158853323Y-55194687D01*
X158728304Y-55207000D01*
X158644696Y-55207000D01*
X158519677Y-55194687D01*
X158359258Y-55146024D01*
X158211424Y-55067005D01*
X158211422Y-55067004D01*
X158081841Y-54960659D01*
X157975496Y-54831078D01*
X157967386Y-54815906D01*
X157896476Y-54683242D01*
X157847813Y-54522823D01*
X157831383Y-54356000D01*
X157847813Y-54189177D01*
X157896476Y-54028758D01*
X157975495Y-53880924D01*
X157975496Y-53880922D01*
X158081841Y-53751341D01*
X158211422Y-53644996D01*
X158226594Y-53636886D01*
X158359258Y-53565976D01*
X158519677Y-53517313D01*
X158644696Y-53505000D01*
X158728304Y-53505000D01*
X158853323Y-53517313D01*
X158853323Y-53517313D01*
G37*
G36*
X161393323Y-53517313D02*
G01*
X161553742Y-53565976D01*
X161686406Y-53636886D01*
X161701578Y-53644996D01*
X161831159Y-53751341D01*
X161937504Y-53880922D01*
X161937505Y-53880924D01*
X162016524Y-54028758D01*
X162065187Y-54189177D01*
X162081617Y-54356000D01*
X162065187Y-54522823D01*
X162016524Y-54683242D01*
X161945614Y-54815906D01*
X161937504Y-54831078D01*
X161831159Y-54960659D01*
X161701578Y-55067004D01*
X161701576Y-55067005D01*
X161553742Y-55146024D01*
X161393323Y-55194687D01*
X161268304Y-55207000D01*
X161184696Y-55207000D01*
X161059677Y-55194687D01*
X160899258Y-55146024D01*
X160751424Y-55067005D01*
X160751422Y-55067004D01*
X160621841Y-54960659D01*
X160515496Y-54831078D01*
X160507386Y-54815906D01*
X160436476Y-54683242D01*
X160387813Y-54522823D01*
X160371383Y-54356000D01*
X160387813Y-54189177D01*
X160436476Y-54028758D01*
X160515495Y-53880924D01*
X160515496Y-53880922D01*
X160621841Y-53751341D01*
X160751422Y-53644996D01*
X160766594Y-53636886D01*
X160899258Y-53565976D01*
X161059677Y-53517313D01*
X161184696Y-53505000D01*
X161268304Y-53505000D01*
X161393323Y-53517313D01*
X161393323Y-53517313D01*
G37*
M02*
