M48
; DRILL file {KiCad (5.1.9)-1} date 05/21/21 15:12:27
; FORMAT={-:-/ absolute / inch / decimal}
; #@! TF.CreationDate,2021-05-21T15:12:27+01:00
; #@! TF.GenerationSoftware,Kicad,Pcbnew,(5.1.9)-1
; #@! TF.FileFunction,Plated,1,2,PTH
FMAT,2
INCH
T1C0.0157
T2C0.0197
T3C0.0409
%
G90
G05
T1
X0.0675Y-1.295
X0.0775Y-0.84
X0.0925Y-1.6375
X0.195Y-1.48
X0.2625Y-0.385
X0.275Y-1.0975
X0.2825Y-0.805
X0.3787Y-0.61
X0.535Y-0.4425
X0.535Y-0.575
X0.565Y-1.1825
X0.57Y-0.5125
X0.7375Y-0.5125
X0.74Y-1.08
X0.775Y-1.34
X0.7894Y-0.7985
X0.8175Y-0.385
X0.8175Y-0.51
X0.8431Y-0.5875
X0.8825Y-0.9575
X0.9875Y-1.6075
X0.9975Y-0.51
X1.0525Y-0.6825
X1.0575Y-0.075
T2
X0.077Y-0.4818
X0.077Y-0.531
X0.2311Y-1.5725
X0.2311Y-1.6217
X0.255Y-0.4818
X0.255Y-0.531
X0.814Y-0.1133
X0.814Y-0.1625
X0.9496Y-1.2923
X0.9496Y-1.3415
X0.9825Y-0.1131
X0.9825Y-0.1624
X0.9825Y-0.2116
X0.9825Y-0.2608
X0.9825Y-0.31
T3
X0.407Y-0.836
X0.407Y-0.936
X0.694Y-0.836
X0.694Y-0.936
T0
M30
