%TF.GenerationSoftware,KiCad,Pcbnew,(5.1.9)-1*%
%TF.CreationDate,2021-05-21T15:12:25+01:00*%
%TF.ProjectId,NosepokeV1.0,4e6f7365-706f-46b6-9556-312e302e6b69,rev?*%
%TF.SameCoordinates,Original*%
%TF.FileFunction,Soldermask,Bot*%
%TF.FilePolarity,Negative*%
%FSLAX46Y46*%
G04 Gerber Fmt 4.6, Leading zero omitted, Abs format (unit mm)*
G04 Created by KiCad (PCBNEW (5.1.9)-1) date 2021-05-21 15:12:25*
%MOMM*%
%LPD*%
G01*
G04 APERTURE LIST*
%ADD10C,2.000000*%
%ADD11O,1.300000X0.800000*%
%ADD12C,1.550000*%
%ADD13C,3.200000*%
G04 APERTURE END LIST*
D10*
%TO.C,REF\u002A\u002A*%
X14000000Y-27500000D03*
%TD*%
%TO.C,REF\u002A\u002A*%
X14000000Y-17500000D03*
%TD*%
D11*
%TO.C,J8*%
X24955500Y-2874000D03*
X24955500Y-4124000D03*
X24955500Y-5374000D03*
X24955500Y-6624000D03*
G36*
G01*
X25405500Y-8274000D02*
X24505500Y-8274000D01*
G75*
G02*
X24305500Y-8074000I0J200000D01*
G01*
X24305500Y-7674000D01*
G75*
G02*
X24505500Y-7474000I200000J0D01*
G01*
X25405500Y-7474000D01*
G75*
G02*
X25605500Y-7674000I0J-200000D01*
G01*
X25605500Y-8074000D01*
G75*
G02*
X25405500Y-8274000I-200000J0D01*
G01*
G37*
%TD*%
D12*
%TO.C,J2*%
X17627600Y-21234400D03*
X17627600Y-23774400D03*
%TD*%
D13*
%TO.C,Mount1*%
X14000000Y-6250000D03*
%TD*%
%TO.C,Mount2*%
X14000000Y-38750000D03*
%TD*%
%TO.C,J7*%
G36*
G01*
X6927000Y-13887720D02*
X6027000Y-13887720D01*
G75*
G02*
X5827000Y-13687720I0J200000D01*
G01*
X5827000Y-13287720D01*
G75*
G02*
X6027000Y-13087720I200000J0D01*
G01*
X6927000Y-13087720D01*
G75*
G02*
X7127000Y-13287720I0J-200000D01*
G01*
X7127000Y-13687720D01*
G75*
G02*
X6927000Y-13887720I-200000J0D01*
G01*
G37*
D11*
X6477000Y-12237720D03*
%TD*%
%TO.C,J6*%
X20675600Y-2877500D03*
G36*
G01*
X21125600Y-4527500D02*
X20225600Y-4527500D01*
G75*
G02*
X20025600Y-4327500I0J200000D01*
G01*
X20025600Y-3927500D01*
G75*
G02*
X20225600Y-3727500I200000J0D01*
G01*
X21125600Y-3727500D01*
G75*
G02*
X21325600Y-3927500I0J-200000D01*
G01*
X21325600Y-4327500D01*
G75*
G02*
X21125600Y-4527500I-200000J0D01*
G01*
G37*
%TD*%
%TO.C,J5*%
G36*
G01*
X2405800Y-13887720D02*
X1505800Y-13887720D01*
G75*
G02*
X1305800Y-13687720I0J200000D01*
G01*
X1305800Y-13287720D01*
G75*
G02*
X1505800Y-13087720I200000J0D01*
G01*
X2405800Y-13087720D01*
G75*
G02*
X2605800Y-13287720I0J-200000D01*
G01*
X2605800Y-13687720D01*
G75*
G02*
X2405800Y-13887720I-200000J0D01*
G01*
G37*
X1955800Y-12237720D03*
%TD*%
%TO.C,J4*%
X5869940Y-39941500D03*
G36*
G01*
X6319940Y-41591500D02*
X5419940Y-41591500D01*
G75*
G02*
X5219940Y-41391500I0J200000D01*
G01*
X5219940Y-40991500D01*
G75*
G02*
X5419940Y-40791500I200000J0D01*
G01*
X6319940Y-40791500D01*
G75*
G02*
X6519940Y-40991500I0J-200000D01*
G01*
X6519940Y-41391500D01*
G75*
G02*
X6319940Y-41591500I-200000J0D01*
G01*
G37*
%TD*%
%TO.C,J3*%
X24119840Y-32824100D03*
G36*
G01*
X24569840Y-34474100D02*
X23669840Y-34474100D01*
G75*
G02*
X23469840Y-34274100I0J200000D01*
G01*
X23469840Y-33874100D01*
G75*
G02*
X23669840Y-33674100I200000J0D01*
G01*
X24569840Y-33674100D01*
G75*
G02*
X24769840Y-33874100I0J-200000D01*
G01*
X24769840Y-34274100D01*
G75*
G02*
X24569840Y-34474100I-200000J0D01*
G01*
G37*
%TD*%
D12*
%TO.C,J1*%
X10337800Y-21234400D03*
X10337800Y-23774400D03*
%TD*%
M02*
