%TF.GenerationSoftware,KiCad,Pcbnew,(5.1.9)-1*%
%TF.CreationDate,2021-05-21T15:12:25+01:00*%
%TF.ProjectId,NosepokeV1.0,4e6f7365-706f-46b6-9556-312e302e6b69,rev?*%
%TF.SameCoordinates,Original*%
%TF.FileFunction,Legend,Top*%
%TF.FilePolarity,Positive*%
%FSLAX46Y46*%
G04 Gerber Fmt 4.6, Leading zero omitted, Abs format (unit mm)*
G04 Created by KiCad (PCBNEW (5.1.9)-1) date 2021-05-21 15:12:25*
%MOMM*%
%LPD*%
G01*
G04 APERTURE LIST*
%ADD10C,0.150000*%
%ADD11C,0.120000*%
%ADD12C,0.100000*%
%ADD13C,0.200000*%
%ADD14C,0.152400*%
%ADD15C,0.254000*%
%ADD16R,0.650000X1.060000*%
%ADD17R,0.800000X0.900000*%
%ADD18R,2.000000X1.100000*%
%ADD19C,2.000000*%
%ADD20O,1.300000X0.800000*%
%ADD21C,1.550000*%
%ADD22C,3.200000*%
%ADD23R,0.508000X1.016000*%
G04 APERTURE END LIST*
D10*
X19748452Y-20693071D02*
X18986547Y-20693071D01*
X19748452Y-24249071D02*
X18986547Y-24249071D01*
X19367500Y-23868119D02*
X19367500Y-24630023D01*
X8064547Y-24074428D02*
X8826452Y-24074428D01*
X8064547Y-20518428D02*
X8826452Y-20518428D01*
X8445500Y-20899380D02*
X8445500Y-20137476D01*
D11*
%TO.C,R6*%
X21763758Y-17286500D02*
X21289242Y-17286500D01*
X21763758Y-16241500D02*
X21289242Y-16241500D01*
%TO.C,U2*%
X7261500Y-35380500D02*
X7261500Y-33580500D01*
X4041500Y-33580500D02*
X4041500Y-36030500D01*
%TO.C,Q1*%
X4374000Y-3118580D02*
X4374000Y-4578580D01*
X1214000Y-3118580D02*
X1214000Y-5278580D01*
X1214000Y-3118580D02*
X2144000Y-3118580D01*
X4374000Y-3118580D02*
X3444000Y-3118580D01*
%TO.C,Q2*%
X8361800Y-3118580D02*
X8361800Y-4578580D01*
X5201800Y-3118580D02*
X5201800Y-5278580D01*
X5201800Y-3118580D02*
X6131800Y-3118580D01*
X8361800Y-3118580D02*
X7431800Y-3118580D01*
%TO.C,D2*%
X10400000Y-10300000D02*
X16500000Y-10300000D01*
X10400000Y-11400000D02*
X10400000Y-10300000D01*
X16500000Y-15700000D02*
X11500000Y-15700000D01*
%TO.C,D1*%
X16500000Y-34700000D02*
X11500000Y-34700000D01*
X10400000Y-30400000D02*
X10400000Y-29300000D01*
X10400000Y-29300000D02*
X16500000Y-29300000D01*
%TO.C,R5*%
X23160758Y-13095500D02*
X22686242Y-13095500D01*
X23160758Y-12050500D02*
X22686242Y-12050500D01*
%TO.C,R4*%
X23160758Y-11444500D02*
X22686242Y-11444500D01*
X23160758Y-10399500D02*
X22686242Y-10399500D01*
%TO.C,R1*%
X1763500Y-35035758D02*
X1763500Y-34561242D01*
X2808500Y-35035758D02*
X2808500Y-34561242D01*
%TO.C,R3*%
X2556742Y-7245880D02*
X3031258Y-7245880D01*
X2556742Y-6200880D02*
X3031258Y-6200880D01*
%TO.C,R2*%
X6544542Y-7245880D02*
X7019058Y-7245880D01*
X6544542Y-6200880D02*
X7019058Y-6200880D01*
%TO.C,R7*%
X5637762Y-9067060D02*
X6112278Y-9067060D01*
X5637762Y-8022060D02*
X6112278Y-8022060D01*
%TO.C,R8*%
X2335000Y-30907758D02*
X2335000Y-30433242D01*
X3380000Y-30907758D02*
X3380000Y-30433242D01*
D12*
%TO.C,J2*%
X18622600Y-19709400D02*
X27882600Y-19709400D01*
X27882600Y-19709400D02*
X27882600Y-25299400D01*
X27882600Y-25299400D02*
X18622600Y-25299400D01*
D13*
X17677600Y-24924400D02*
G75*
G03*
X17677600Y-24924400I-50000J0D01*
G01*
D11*
%TO.C,C2*%
X4265200Y-30811080D02*
X4265200Y-30529920D01*
X5285200Y-30811080D02*
X5285200Y-30529920D01*
D14*
%TO.C,U1*%
X11421900Y-20925200D02*
X11421900Y-24074800D01*
X16578100Y-24074800D02*
X16578100Y-20925200D01*
X15976600Y-19946600D02*
G75*
G03*
X15976600Y-19946600I-101600J0D01*
G01*
D13*
%TO.C,J1*%
X10387800Y-20084400D02*
G75*
G03*
X10387800Y-20084400I-50000J0D01*
G01*
D12*
X82800Y-19709400D02*
X9342800Y-19709400D01*
X82800Y-25299400D02*
X82800Y-19709400D01*
X9342800Y-25299400D02*
X82800Y-25299400D01*
D11*
%TO.C,C1*%
X23750660Y-28941300D02*
X24031820Y-28941300D01*
X23750660Y-29961300D02*
X24031820Y-29961300D01*
%TO.C,C3*%
X6398800Y-30861880D02*
X6398800Y-30580720D01*
X7418800Y-30861880D02*
X7418800Y-30580720D01*
%TO.C,R6*%
D10*
X21359833Y-18646380D02*
X21026500Y-18170190D01*
X20788404Y-18646380D02*
X20788404Y-17646380D01*
X21169357Y-17646380D01*
X21264595Y-17694000D01*
X21312214Y-17741619D01*
X21359833Y-17836857D01*
X21359833Y-17979714D01*
X21312214Y-18074952D01*
X21264595Y-18122571D01*
X21169357Y-18170190D01*
X20788404Y-18170190D01*
X22216976Y-17646380D02*
X22026500Y-17646380D01*
X21931261Y-17694000D01*
X21883642Y-17741619D01*
X21788404Y-17884476D01*
X21740785Y-18074952D01*
X21740785Y-18455904D01*
X21788404Y-18551142D01*
X21836023Y-18598761D01*
X21931261Y-18646380D01*
X22121738Y-18646380D01*
X22216976Y-18598761D01*
X22264595Y-18551142D01*
X22312214Y-18455904D01*
X22312214Y-18217809D01*
X22264595Y-18122571D01*
X22216976Y-18074952D01*
X22121738Y-18027333D01*
X21931261Y-18027333D01*
X21836023Y-18074952D01*
X21788404Y-18122571D01*
X21740785Y-18217809D01*
%TO.C,U2*%
X5842095Y-36676080D02*
X5842095Y-37485604D01*
X5889714Y-37580842D01*
X5937333Y-37628461D01*
X6032571Y-37676080D01*
X6223047Y-37676080D01*
X6318285Y-37628461D01*
X6365904Y-37580842D01*
X6413523Y-37485604D01*
X6413523Y-36676080D01*
X6842095Y-36771319D02*
X6889714Y-36723700D01*
X6984952Y-36676080D01*
X7223047Y-36676080D01*
X7318285Y-36723700D01*
X7365904Y-36771319D01*
X7413523Y-36866557D01*
X7413523Y-36961795D01*
X7365904Y-37104652D01*
X6794476Y-37676080D01*
X7413523Y-37676080D01*
%TO.C,Q1*%
X2876561Y-1881119D02*
X2781323Y-1833500D01*
X2686085Y-1738261D01*
X2543228Y-1595404D01*
X2447990Y-1547785D01*
X2352752Y-1547785D01*
X2400371Y-1785880D02*
X2305133Y-1738261D01*
X2209895Y-1643023D01*
X2162276Y-1452547D01*
X2162276Y-1119214D01*
X2209895Y-928738D01*
X2305133Y-833500D01*
X2400371Y-785880D01*
X2590847Y-785880D01*
X2686085Y-833500D01*
X2781323Y-928738D01*
X2828942Y-1119214D01*
X2828942Y-1452547D01*
X2781323Y-1643023D01*
X2686085Y-1738261D01*
X2590847Y-1785880D01*
X2400371Y-1785880D01*
X3781323Y-1785880D02*
X3209895Y-1785880D01*
X3495609Y-1785880D02*
X3495609Y-785880D01*
X3400371Y-928738D01*
X3305133Y-1023976D01*
X3209895Y-1071595D01*
%TO.C,Q2*%
X7473961Y-1931919D02*
X7378723Y-1884300D01*
X7283485Y-1789061D01*
X7140628Y-1646204D01*
X7045390Y-1598585D01*
X6950152Y-1598585D01*
X6997771Y-1836680D02*
X6902533Y-1789061D01*
X6807295Y-1693823D01*
X6759676Y-1503347D01*
X6759676Y-1170014D01*
X6807295Y-979538D01*
X6902533Y-884300D01*
X6997771Y-836680D01*
X7188247Y-836680D01*
X7283485Y-884300D01*
X7378723Y-979538D01*
X7426342Y-1170014D01*
X7426342Y-1503347D01*
X7378723Y-1693823D01*
X7283485Y-1789061D01*
X7188247Y-1836680D01*
X6997771Y-1836680D01*
X7807295Y-931919D02*
X7854914Y-884300D01*
X7950152Y-836680D01*
X8188247Y-836680D01*
X8283485Y-884300D01*
X8331104Y-931919D01*
X8378723Y-1027157D01*
X8378723Y-1122395D01*
X8331104Y-1265252D01*
X7759676Y-1836680D01*
X8378723Y-1836680D01*
%TO.C,D2*%
X13206504Y-9761480D02*
X13206504Y-8761480D01*
X13444600Y-8761480D01*
X13587457Y-8809100D01*
X13682695Y-8904338D01*
X13730314Y-8999576D01*
X13777933Y-9190052D01*
X13777933Y-9332909D01*
X13730314Y-9523385D01*
X13682695Y-9618623D01*
X13587457Y-9713861D01*
X13444600Y-9761480D01*
X13206504Y-9761480D01*
X14158885Y-8856719D02*
X14206504Y-8809100D01*
X14301742Y-8761480D01*
X14539838Y-8761480D01*
X14635076Y-8809100D01*
X14682695Y-8856719D01*
X14730314Y-8951957D01*
X14730314Y-9047195D01*
X14682695Y-9190052D01*
X14111266Y-9761480D01*
X14730314Y-9761480D01*
%TO.C,D1*%
X13308104Y-36050480D02*
X13308104Y-35050480D01*
X13546200Y-35050480D01*
X13689057Y-35098100D01*
X13784295Y-35193338D01*
X13831914Y-35288576D01*
X13879533Y-35479052D01*
X13879533Y-35621909D01*
X13831914Y-35812385D01*
X13784295Y-35907623D01*
X13689057Y-36002861D01*
X13546200Y-36050480D01*
X13308104Y-36050480D01*
X14831914Y-36050480D02*
X14260485Y-36050480D01*
X14546200Y-36050480D02*
X14546200Y-35050480D01*
X14450961Y-35193338D01*
X14355723Y-35288576D01*
X14260485Y-35336195D01*
%TO.C,R5*%
X22756833Y-14455380D02*
X22423500Y-13979190D01*
X22185404Y-14455380D02*
X22185404Y-13455380D01*
X22566357Y-13455380D01*
X22661595Y-13503000D01*
X22709214Y-13550619D01*
X22756833Y-13645857D01*
X22756833Y-13788714D01*
X22709214Y-13883952D01*
X22661595Y-13931571D01*
X22566357Y-13979190D01*
X22185404Y-13979190D01*
X23661595Y-13455380D02*
X23185404Y-13455380D01*
X23137785Y-13931571D01*
X23185404Y-13883952D01*
X23280642Y-13836333D01*
X23518738Y-13836333D01*
X23613976Y-13883952D01*
X23661595Y-13931571D01*
X23709214Y-14026809D01*
X23709214Y-14264904D01*
X23661595Y-14360142D01*
X23613976Y-14407761D01*
X23518738Y-14455380D01*
X23280642Y-14455380D01*
X23185404Y-14407761D01*
X23137785Y-14360142D01*
%TO.C,R4*%
X22667933Y-9736080D02*
X22334600Y-9259890D01*
X22096504Y-9736080D02*
X22096504Y-8736080D01*
X22477457Y-8736080D01*
X22572695Y-8783700D01*
X22620314Y-8831319D01*
X22667933Y-8926557D01*
X22667933Y-9069414D01*
X22620314Y-9164652D01*
X22572695Y-9212271D01*
X22477457Y-9259890D01*
X22096504Y-9259890D01*
X23525076Y-9069414D02*
X23525076Y-9736080D01*
X23286980Y-8688461D02*
X23048885Y-9402747D01*
X23667933Y-9402747D01*
%TO.C,R1*%
X1442980Y-34977366D02*
X966790Y-35310700D01*
X1442980Y-35548795D02*
X442980Y-35548795D01*
X442980Y-35167842D01*
X490600Y-35072604D01*
X538219Y-35024985D01*
X633457Y-34977366D01*
X776314Y-34977366D01*
X871552Y-35024985D01*
X919171Y-35072604D01*
X966790Y-35167842D01*
X966790Y-35548795D01*
X1442980Y-34024985D02*
X1442980Y-34596414D01*
X1442980Y-34310700D02*
X442980Y-34310700D01*
X585838Y-34405938D01*
X681076Y-34501176D01*
X728695Y-34596414D01*
%TO.C,R3*%
X2182833Y-8961380D02*
X1849500Y-8485190D01*
X1611404Y-8961380D02*
X1611404Y-7961380D01*
X1992357Y-7961380D01*
X2087595Y-8009000D01*
X2135214Y-8056619D01*
X2182833Y-8151857D01*
X2182833Y-8294714D01*
X2135214Y-8389952D01*
X2087595Y-8437571D01*
X1992357Y-8485190D01*
X1611404Y-8485190D01*
X2516166Y-7961380D02*
X3135214Y-7961380D01*
X2801880Y-8342333D01*
X2944738Y-8342333D01*
X3039976Y-8389952D01*
X3087595Y-8437571D01*
X3135214Y-8532809D01*
X3135214Y-8770904D01*
X3087595Y-8866142D01*
X3039976Y-8913761D01*
X2944738Y-8961380D01*
X2659023Y-8961380D01*
X2563785Y-8913761D01*
X2516166Y-8866142D01*
%TO.C,R2*%
X9218633Y-7183380D02*
X8885300Y-6707190D01*
X8647204Y-7183380D02*
X8647204Y-6183380D01*
X9028157Y-6183380D01*
X9123395Y-6231000D01*
X9171014Y-6278619D01*
X9218633Y-6373857D01*
X9218633Y-6516714D01*
X9171014Y-6611952D01*
X9123395Y-6659571D01*
X9028157Y-6707190D01*
X8647204Y-6707190D01*
X9599585Y-6278619D02*
X9647204Y-6231000D01*
X9742442Y-6183380D01*
X9980538Y-6183380D01*
X10075776Y-6231000D01*
X10123395Y-6278619D01*
X10171014Y-6373857D01*
X10171014Y-6469095D01*
X10123395Y-6611952D01*
X9551966Y-7183380D01*
X10171014Y-7183380D01*
%TO.C,R7*%
X8418533Y-9024880D02*
X8085200Y-8548690D01*
X7847104Y-9024880D02*
X7847104Y-8024880D01*
X8228057Y-8024880D01*
X8323295Y-8072500D01*
X8370914Y-8120119D01*
X8418533Y-8215357D01*
X8418533Y-8358214D01*
X8370914Y-8453452D01*
X8323295Y-8501071D01*
X8228057Y-8548690D01*
X7847104Y-8548690D01*
X8751866Y-8024880D02*
X9418533Y-8024880D01*
X8989961Y-9024880D01*
%TO.C,R8*%
X1773180Y-31091166D02*
X1296990Y-31424500D01*
X1773180Y-31662595D02*
X773180Y-31662595D01*
X773180Y-31281642D01*
X820800Y-31186404D01*
X868419Y-31138785D01*
X963657Y-31091166D01*
X1106514Y-31091166D01*
X1201752Y-31138785D01*
X1249371Y-31186404D01*
X1296990Y-31281642D01*
X1296990Y-31662595D01*
X1201752Y-30519738D02*
X1154133Y-30614976D01*
X1106514Y-30662595D01*
X1011276Y-30710214D01*
X963657Y-30710214D01*
X868419Y-30662595D01*
X820800Y-30614976D01*
X773180Y-30519738D01*
X773180Y-30329261D01*
X820800Y-30234023D01*
X868419Y-30186404D01*
X963657Y-30138785D01*
X1011276Y-30138785D01*
X1106514Y-30186404D01*
X1154133Y-30234023D01*
X1201752Y-30329261D01*
X1201752Y-30519738D01*
X1249371Y-30614976D01*
X1296990Y-30662595D01*
X1392228Y-30710214D01*
X1582704Y-30710214D01*
X1677942Y-30662595D01*
X1725561Y-30614976D01*
X1773180Y-30519738D01*
X1773180Y-30329261D01*
X1725561Y-30234023D01*
X1677942Y-30186404D01*
X1582704Y-30138785D01*
X1392228Y-30138785D01*
X1296990Y-30186404D01*
X1249371Y-30234023D01*
X1201752Y-30329261D01*
%TO.C,J2*%
D15*
X23046266Y-21796223D02*
X23046266Y-22703366D01*
X22985790Y-22884795D01*
X22864838Y-23005747D01*
X22683409Y-23066223D01*
X22562457Y-23066223D01*
X23590552Y-21917176D02*
X23651028Y-21856700D01*
X23771980Y-21796223D01*
X24074361Y-21796223D01*
X24195314Y-21856700D01*
X24255790Y-21917176D01*
X24316266Y-22038128D01*
X24316266Y-22159080D01*
X24255790Y-22340509D01*
X23530076Y-23066223D01*
X24316266Y-23066223D01*
%TO.C,C2*%
D10*
X4494233Y-28637202D02*
X4446614Y-28684821D01*
X4303757Y-28732440D01*
X4208519Y-28732440D01*
X4065661Y-28684821D01*
X3970423Y-28589583D01*
X3922804Y-28494345D01*
X3875185Y-28303869D01*
X3875185Y-28161012D01*
X3922804Y-27970536D01*
X3970423Y-27875298D01*
X4065661Y-27780060D01*
X4208519Y-27732440D01*
X4303757Y-27732440D01*
X4446614Y-27780060D01*
X4494233Y-27827679D01*
X4875185Y-27827679D02*
X4922804Y-27780060D01*
X5018042Y-27732440D01*
X5256138Y-27732440D01*
X5351376Y-27780060D01*
X5398995Y-27827679D01*
X5446614Y-27922917D01*
X5446614Y-28018155D01*
X5398995Y-28161012D01*
X4827566Y-28732440D01*
X5446614Y-28732440D01*
%TO.C,U1*%
X13411295Y-22020280D02*
X13411295Y-22829804D01*
X13458914Y-22925042D01*
X13506533Y-22972661D01*
X13601771Y-23020280D01*
X13792247Y-23020280D01*
X13887485Y-22972661D01*
X13935104Y-22925042D01*
X13982723Y-22829804D01*
X13982723Y-22020280D01*
X14982723Y-23020280D02*
X14411295Y-23020280D01*
X14697009Y-23020280D02*
X14697009Y-22020280D01*
X14601771Y-22163138D01*
X14506533Y-22258376D01*
X14411295Y-22305995D01*
X8103338Y-25131780D02*
X8436671Y-26131780D01*
X8770004Y-25131780D01*
X9579528Y-26131780D02*
X9103338Y-26131780D01*
X9103338Y-25131780D01*
X10341433Y-25131780D02*
X10150957Y-25131780D01*
X10055719Y-25179400D01*
X10008100Y-25227019D01*
X9912861Y-25369876D01*
X9865242Y-25560352D01*
X9865242Y-25941304D01*
X9912861Y-26036542D01*
X9960480Y-26084161D01*
X10055719Y-26131780D01*
X10246195Y-26131780D01*
X10341433Y-26084161D01*
X10389052Y-26036542D01*
X10436671Y-25941304D01*
X10436671Y-25703209D01*
X10389052Y-25607971D01*
X10341433Y-25560352D01*
X10246195Y-25512733D01*
X10055719Y-25512733D01*
X9960480Y-25560352D01*
X9912861Y-25607971D01*
X9865242Y-25703209D01*
X11389052Y-26131780D02*
X10817623Y-26131780D01*
X11103338Y-26131780D02*
X11103338Y-25131780D01*
X11008100Y-25274638D01*
X10912861Y-25369876D01*
X10817623Y-25417495D01*
X11960480Y-25560352D02*
X11865242Y-25512733D01*
X11817623Y-25465114D01*
X11770004Y-25369876D01*
X11770004Y-25322257D01*
X11817623Y-25227019D01*
X11865242Y-25179400D01*
X11960480Y-25131780D01*
X12150957Y-25131780D01*
X12246195Y-25179400D01*
X12293814Y-25227019D01*
X12341433Y-25322257D01*
X12341433Y-25369876D01*
X12293814Y-25465114D01*
X12246195Y-25512733D01*
X12150957Y-25560352D01*
X11960480Y-25560352D01*
X11865242Y-25607971D01*
X11817623Y-25655590D01*
X11770004Y-25750828D01*
X11770004Y-25941304D01*
X11817623Y-26036542D01*
X11865242Y-26084161D01*
X11960480Y-26131780D01*
X12150957Y-26131780D01*
X12246195Y-26084161D01*
X12293814Y-26036542D01*
X12341433Y-25941304D01*
X12341433Y-25750828D01*
X12293814Y-25655590D01*
X12246195Y-25607971D01*
X12150957Y-25560352D01*
X12960480Y-25131780D02*
X13055719Y-25131780D01*
X13150957Y-25179400D01*
X13198576Y-25227019D01*
X13246195Y-25322257D01*
X13293814Y-25512733D01*
X13293814Y-25750828D01*
X13246195Y-25941304D01*
X13198576Y-26036542D01*
X13150957Y-26084161D01*
X13055719Y-26131780D01*
X12960480Y-26131780D01*
X12865242Y-26084161D01*
X12817623Y-26036542D01*
X12770004Y-25941304D01*
X12722385Y-25750828D01*
X12722385Y-25512733D01*
X12770004Y-25322257D01*
X12817623Y-25227019D01*
X12865242Y-25179400D01*
X12960480Y-25131780D01*
X13627147Y-25131780D02*
X14293814Y-26131780D01*
X14293814Y-25131780D02*
X13627147Y-26131780D01*
X14531909Y-25131780D02*
X14865242Y-26131780D01*
X15198576Y-25131780D01*
X15722385Y-25131780D02*
X15817623Y-25131780D01*
X15912861Y-25179400D01*
X15960480Y-25227019D01*
X16008100Y-25322257D01*
X16055719Y-25512733D01*
X16055719Y-25750828D01*
X16008100Y-25941304D01*
X15960480Y-26036542D01*
X15912861Y-26084161D01*
X15817623Y-26131780D01*
X15722385Y-26131780D01*
X15627147Y-26084161D01*
X15579528Y-26036542D01*
X15531909Y-25941304D01*
X15484290Y-25750828D01*
X15484290Y-25512733D01*
X15531909Y-25322257D01*
X15579528Y-25227019D01*
X15627147Y-25179400D01*
X15722385Y-25131780D01*
X16484290Y-26131780D02*
X16484290Y-25131780D01*
X17055719Y-26131780D01*
X17055719Y-25131780D01*
X18103338Y-26131780D02*
X17770004Y-25655590D01*
X17531909Y-26131780D02*
X17531909Y-25131780D01*
X17912861Y-25131780D01*
X18008100Y-25179400D01*
X18055719Y-25227019D01*
X18103338Y-25322257D01*
X18103338Y-25465114D01*
X18055719Y-25560352D01*
X18008100Y-25607971D01*
X17912861Y-25655590D01*
X17531909Y-25655590D01*
X18293814Y-26227019D02*
X19055719Y-26227019D01*
X19817623Y-26131780D02*
X19246195Y-26131780D01*
X19531909Y-26131780D02*
X19531909Y-25131780D01*
X19436671Y-25274638D01*
X19341433Y-25369876D01*
X19246195Y-25417495D01*
%TO.C,J1*%
D15*
X4631266Y-21796223D02*
X4631266Y-22703366D01*
X4570790Y-22884795D01*
X4449838Y-23005747D01*
X4268409Y-23066223D01*
X4147457Y-23066223D01*
X5901266Y-23066223D02*
X5175552Y-23066223D01*
X5538409Y-23066223D02*
X5538409Y-21796223D01*
X5417457Y-21977652D01*
X5296504Y-22098604D01*
X5175552Y-22159080D01*
%TO.C,C1*%
D10*
X23683933Y-28106642D02*
X23636314Y-28154261D01*
X23493457Y-28201880D01*
X23398219Y-28201880D01*
X23255361Y-28154261D01*
X23160123Y-28059023D01*
X23112504Y-27963785D01*
X23064885Y-27773309D01*
X23064885Y-27630452D01*
X23112504Y-27439976D01*
X23160123Y-27344738D01*
X23255361Y-27249500D01*
X23398219Y-27201880D01*
X23493457Y-27201880D01*
X23636314Y-27249500D01*
X23683933Y-27297119D01*
X24636314Y-28201880D02*
X24064885Y-28201880D01*
X24350600Y-28201880D02*
X24350600Y-27201880D01*
X24255361Y-27344738D01*
X24160123Y-27439976D01*
X24064885Y-27487595D01*
%TO.C,C3*%
X6792933Y-28665442D02*
X6745314Y-28713061D01*
X6602457Y-28760680D01*
X6507219Y-28760680D01*
X6364361Y-28713061D01*
X6269123Y-28617823D01*
X6221504Y-28522585D01*
X6173885Y-28332109D01*
X6173885Y-28189252D01*
X6221504Y-27998776D01*
X6269123Y-27903538D01*
X6364361Y-27808300D01*
X6507219Y-27760680D01*
X6602457Y-27760680D01*
X6745314Y-27808300D01*
X6792933Y-27855919D01*
X7126266Y-27760680D02*
X7745314Y-27760680D01*
X7411980Y-28141633D01*
X7554838Y-28141633D01*
X7650076Y-28189252D01*
X7697695Y-28236871D01*
X7745314Y-28332109D01*
X7745314Y-28570204D01*
X7697695Y-28665442D01*
X7650076Y-28713061D01*
X7554838Y-28760680D01*
X7269123Y-28760680D01*
X7173885Y-28713061D01*
X7126266Y-28665442D01*
%TD*%
%LPC*%
%TO.C,R6*%
G36*
G01*
X21101500Y-16489000D02*
X21101500Y-17039000D01*
G75*
G02*
X20901500Y-17239000I-200000J0D01*
G01*
X20501500Y-17239000D01*
G75*
G02*
X20301500Y-17039000I0J200000D01*
G01*
X20301500Y-16489000D01*
G75*
G02*
X20501500Y-16289000I200000J0D01*
G01*
X20901500Y-16289000D01*
G75*
G02*
X21101500Y-16489000I0J-200000D01*
G01*
G37*
G36*
G01*
X22751500Y-16489000D02*
X22751500Y-17039000D01*
G75*
G02*
X22551500Y-17239000I-200000J0D01*
G01*
X22151500Y-17239000D01*
G75*
G02*
X21951500Y-17039000I0J200000D01*
G01*
X21951500Y-16489000D01*
G75*
G02*
X22151500Y-16289000I200000J0D01*
G01*
X22551500Y-16289000D01*
G75*
G02*
X22751500Y-16489000I0J-200000D01*
G01*
G37*
%TD*%
D16*
%TO.C,U2*%
X4701500Y-33380500D03*
X6601500Y-33380500D03*
X6601500Y-35580500D03*
X5651500Y-35580500D03*
X4701500Y-35580500D03*
%TD*%
D17*
%TO.C,Q1*%
X1844000Y-4878580D03*
X3744000Y-4878580D03*
X2794000Y-2878580D03*
%TD*%
%TO.C,Q2*%
X5831800Y-4878580D03*
X7731800Y-4878580D03*
X6781800Y-2878580D03*
%TD*%
D18*
%TO.C,D2*%
X16400000Y-11300000D03*
X16400000Y-13000000D03*
X16400000Y-14700000D03*
X11600000Y-14700000D03*
X11600000Y-13000000D03*
X11600000Y-11300000D03*
%TD*%
%TO.C,D1*%
X16400000Y-30300000D03*
X16400000Y-32000000D03*
X16400000Y-33700000D03*
X11600000Y-33700000D03*
X11600000Y-32000000D03*
X11600000Y-30300000D03*
%TD*%
D19*
%TO.C,REF\u002A\u002A*%
X14000000Y-27500000D03*
%TD*%
%TO.C,REF\u002A\u002A*%
X14000000Y-17500000D03*
%TD*%
D20*
%TO.C,J8*%
X24955500Y-2874000D03*
X24955500Y-4124000D03*
X24955500Y-5374000D03*
X24955500Y-6624000D03*
G36*
G01*
X25405500Y-8274000D02*
X24505500Y-8274000D01*
G75*
G02*
X24305500Y-8074000I0J200000D01*
G01*
X24305500Y-7674000D01*
G75*
G02*
X24505500Y-7474000I200000J0D01*
G01*
X25405500Y-7474000D01*
G75*
G02*
X25605500Y-7674000I0J-200000D01*
G01*
X25605500Y-8074000D01*
G75*
G02*
X25405500Y-8274000I-200000J0D01*
G01*
G37*
%TD*%
%TO.C,R5*%
G36*
G01*
X22498500Y-12298000D02*
X22498500Y-12848000D01*
G75*
G02*
X22298500Y-13048000I-200000J0D01*
G01*
X21898500Y-13048000D01*
G75*
G02*
X21698500Y-12848000I0J200000D01*
G01*
X21698500Y-12298000D01*
G75*
G02*
X21898500Y-12098000I200000J0D01*
G01*
X22298500Y-12098000D01*
G75*
G02*
X22498500Y-12298000I0J-200000D01*
G01*
G37*
G36*
G01*
X24148500Y-12298000D02*
X24148500Y-12848000D01*
G75*
G02*
X23948500Y-13048000I-200000J0D01*
G01*
X23548500Y-13048000D01*
G75*
G02*
X23348500Y-12848000I0J200000D01*
G01*
X23348500Y-12298000D01*
G75*
G02*
X23548500Y-12098000I200000J0D01*
G01*
X23948500Y-12098000D01*
G75*
G02*
X24148500Y-12298000I0J-200000D01*
G01*
G37*
%TD*%
%TO.C,R4*%
G36*
G01*
X22498500Y-10647000D02*
X22498500Y-11197000D01*
G75*
G02*
X22298500Y-11397000I-200000J0D01*
G01*
X21898500Y-11397000D01*
G75*
G02*
X21698500Y-11197000I0J200000D01*
G01*
X21698500Y-10647000D01*
G75*
G02*
X21898500Y-10447000I200000J0D01*
G01*
X22298500Y-10447000D01*
G75*
G02*
X22498500Y-10647000I0J-200000D01*
G01*
G37*
G36*
G01*
X24148500Y-10647000D02*
X24148500Y-11197000D01*
G75*
G02*
X23948500Y-11397000I-200000J0D01*
G01*
X23548500Y-11397000D01*
G75*
G02*
X23348500Y-11197000I0J200000D01*
G01*
X23348500Y-10647000D01*
G75*
G02*
X23548500Y-10447000I200000J0D01*
G01*
X23948500Y-10447000D01*
G75*
G02*
X24148500Y-10647000I0J-200000D01*
G01*
G37*
%TD*%
%TO.C,R1*%
G36*
G01*
X2561000Y-34373500D02*
X2011000Y-34373500D01*
G75*
G02*
X1811000Y-34173500I0J200000D01*
G01*
X1811000Y-33773500D01*
G75*
G02*
X2011000Y-33573500I200000J0D01*
G01*
X2561000Y-33573500D01*
G75*
G02*
X2761000Y-33773500I0J-200000D01*
G01*
X2761000Y-34173500D01*
G75*
G02*
X2561000Y-34373500I-200000J0D01*
G01*
G37*
G36*
G01*
X2561000Y-36023500D02*
X2011000Y-36023500D01*
G75*
G02*
X1811000Y-35823500I0J200000D01*
G01*
X1811000Y-35423500D01*
G75*
G02*
X2011000Y-35223500I200000J0D01*
G01*
X2561000Y-35223500D01*
G75*
G02*
X2761000Y-35423500I0J-200000D01*
G01*
X2761000Y-35823500D01*
G75*
G02*
X2561000Y-36023500I-200000J0D01*
G01*
G37*
%TD*%
%TO.C,R3*%
G36*
G01*
X1569000Y-6998380D02*
X1569000Y-6448380D01*
G75*
G02*
X1769000Y-6248380I200000J0D01*
G01*
X2169000Y-6248380D01*
G75*
G02*
X2369000Y-6448380I0J-200000D01*
G01*
X2369000Y-6998380D01*
G75*
G02*
X2169000Y-7198380I-200000J0D01*
G01*
X1769000Y-7198380D01*
G75*
G02*
X1569000Y-6998380I0J200000D01*
G01*
G37*
G36*
G01*
X3219000Y-6998380D02*
X3219000Y-6448380D01*
G75*
G02*
X3419000Y-6248380I200000J0D01*
G01*
X3819000Y-6248380D01*
G75*
G02*
X4019000Y-6448380I0J-200000D01*
G01*
X4019000Y-6998380D01*
G75*
G02*
X3819000Y-7198380I-200000J0D01*
G01*
X3419000Y-7198380D01*
G75*
G02*
X3219000Y-6998380I0J200000D01*
G01*
G37*
%TD*%
%TO.C,R2*%
G36*
G01*
X5556800Y-6998380D02*
X5556800Y-6448380D01*
G75*
G02*
X5756800Y-6248380I200000J0D01*
G01*
X6156800Y-6248380D01*
G75*
G02*
X6356800Y-6448380I0J-200000D01*
G01*
X6356800Y-6998380D01*
G75*
G02*
X6156800Y-7198380I-200000J0D01*
G01*
X5756800Y-7198380D01*
G75*
G02*
X5556800Y-6998380I0J200000D01*
G01*
G37*
G36*
G01*
X7206800Y-6998380D02*
X7206800Y-6448380D01*
G75*
G02*
X7406800Y-6248380I200000J0D01*
G01*
X7806800Y-6248380D01*
G75*
G02*
X8006800Y-6448380I0J-200000D01*
G01*
X8006800Y-6998380D01*
G75*
G02*
X7806800Y-7198380I-200000J0D01*
G01*
X7406800Y-7198380D01*
G75*
G02*
X7206800Y-6998380I0J200000D01*
G01*
G37*
%TD*%
%TO.C,R7*%
G36*
G01*
X4650020Y-8819560D02*
X4650020Y-8269560D01*
G75*
G02*
X4850020Y-8069560I200000J0D01*
G01*
X5250020Y-8069560D01*
G75*
G02*
X5450020Y-8269560I0J-200000D01*
G01*
X5450020Y-8819560D01*
G75*
G02*
X5250020Y-9019560I-200000J0D01*
G01*
X4850020Y-9019560D01*
G75*
G02*
X4650020Y-8819560I0J200000D01*
G01*
G37*
G36*
G01*
X6300020Y-8819560D02*
X6300020Y-8269560D01*
G75*
G02*
X6500020Y-8069560I200000J0D01*
G01*
X6900020Y-8069560D01*
G75*
G02*
X7100020Y-8269560I0J-200000D01*
G01*
X7100020Y-8819560D01*
G75*
G02*
X6900020Y-9019560I-200000J0D01*
G01*
X6500020Y-9019560D01*
G75*
G02*
X6300020Y-8819560I0J200000D01*
G01*
G37*
%TD*%
%TO.C,R8*%
G36*
G01*
X3132500Y-30245500D02*
X2582500Y-30245500D01*
G75*
G02*
X2382500Y-30045500I0J200000D01*
G01*
X2382500Y-29645500D01*
G75*
G02*
X2582500Y-29445500I200000J0D01*
G01*
X3132500Y-29445500D01*
G75*
G02*
X3332500Y-29645500I0J-200000D01*
G01*
X3332500Y-30045500D01*
G75*
G02*
X3132500Y-30245500I-200000J0D01*
G01*
G37*
G36*
G01*
X3132500Y-31895500D02*
X2582500Y-31895500D01*
G75*
G02*
X2382500Y-31695500I0J200000D01*
G01*
X2382500Y-31295500D01*
G75*
G02*
X2582500Y-31095500I200000J0D01*
G01*
X3132500Y-31095500D01*
G75*
G02*
X3332500Y-31295500I0J-200000D01*
G01*
X3332500Y-31695500D01*
G75*
G02*
X3132500Y-31895500I-200000J0D01*
G01*
G37*
%TD*%
D21*
%TO.C,J2*%
X17627600Y-21234400D03*
X17627600Y-23774400D03*
%TD*%
%TO.C,C2*%
G36*
G01*
X5025200Y-30345500D02*
X4525200Y-30345500D01*
G75*
G02*
X4300200Y-30120500I0J225000D01*
G01*
X4300200Y-29670500D01*
G75*
G02*
X4525200Y-29445500I225000J0D01*
G01*
X5025200Y-29445500D01*
G75*
G02*
X5250200Y-29670500I0J-225000D01*
G01*
X5250200Y-30120500D01*
G75*
G02*
X5025200Y-30345500I-225000J0D01*
G01*
G37*
G36*
G01*
X5025200Y-31895500D02*
X4525200Y-31895500D01*
G75*
G02*
X4300200Y-31670500I0J225000D01*
G01*
X4300200Y-31220500D01*
G75*
G02*
X4525200Y-30995500I225000J0D01*
G01*
X5025200Y-30995500D01*
G75*
G02*
X5250200Y-31220500I0J-225000D01*
G01*
X5250200Y-31670500D01*
G75*
G02*
X5025200Y-31895500I-225000J0D01*
G01*
G37*
%TD*%
D22*
%TO.C,Mount1*%
X14000000Y-6250000D03*
%TD*%
%TO.C,Mount2*%
X14000000Y-38750000D03*
%TD*%
%TO.C,J7*%
G36*
G01*
X6927000Y-13887720D02*
X6027000Y-13887720D01*
G75*
G02*
X5827000Y-13687720I0J200000D01*
G01*
X5827000Y-13287720D01*
G75*
G02*
X6027000Y-13087720I200000J0D01*
G01*
X6927000Y-13087720D01*
G75*
G02*
X7127000Y-13287720I0J-200000D01*
G01*
X7127000Y-13687720D01*
G75*
G02*
X6927000Y-13887720I-200000J0D01*
G01*
G37*
D20*
X6477000Y-12237720D03*
%TD*%
%TO.C,J6*%
X20675600Y-2877500D03*
G36*
G01*
X21125600Y-4527500D02*
X20225600Y-4527500D01*
G75*
G02*
X20025600Y-4327500I0J200000D01*
G01*
X20025600Y-3927500D01*
G75*
G02*
X20225600Y-3727500I200000J0D01*
G01*
X21125600Y-3727500D01*
G75*
G02*
X21325600Y-3927500I0J-200000D01*
G01*
X21325600Y-4327500D01*
G75*
G02*
X21125600Y-4527500I-200000J0D01*
G01*
G37*
%TD*%
%TO.C,J5*%
G36*
G01*
X2405800Y-13887720D02*
X1505800Y-13887720D01*
G75*
G02*
X1305800Y-13687720I0J200000D01*
G01*
X1305800Y-13287720D01*
G75*
G02*
X1505800Y-13087720I200000J0D01*
G01*
X2405800Y-13087720D01*
G75*
G02*
X2605800Y-13287720I0J-200000D01*
G01*
X2605800Y-13687720D01*
G75*
G02*
X2405800Y-13887720I-200000J0D01*
G01*
G37*
X1955800Y-12237720D03*
%TD*%
%TO.C,J4*%
X5869940Y-39941500D03*
G36*
G01*
X6319940Y-41591500D02*
X5419940Y-41591500D01*
G75*
G02*
X5219940Y-41391500I0J200000D01*
G01*
X5219940Y-40991500D01*
G75*
G02*
X5419940Y-40791500I200000J0D01*
G01*
X6319940Y-40791500D01*
G75*
G02*
X6519940Y-40991500I0J-200000D01*
G01*
X6519940Y-41391500D01*
G75*
G02*
X6319940Y-41591500I-200000J0D01*
G01*
G37*
%TD*%
%TO.C,J3*%
X24119840Y-32824100D03*
G36*
G01*
X24569840Y-34474100D02*
X23669840Y-34474100D01*
G75*
G02*
X23469840Y-34274100I0J200000D01*
G01*
X23469840Y-33874100D01*
G75*
G02*
X23669840Y-33674100I200000J0D01*
G01*
X24569840Y-33674100D01*
G75*
G02*
X24769840Y-33874100I0J-200000D01*
G01*
X24769840Y-34274100D01*
G75*
G02*
X24569840Y-34474100I-200000J0D01*
G01*
G37*
%TD*%
D23*
%TO.C,U1*%
X15875000Y-21255400D03*
X15124999Y-21255400D03*
X14375001Y-21255400D03*
X13624999Y-21255400D03*
X12875001Y-21255400D03*
X12125000Y-21255400D03*
X12125000Y-23744600D03*
X12875001Y-23744600D03*
X13624999Y-23744600D03*
X14375001Y-23744600D03*
X15124999Y-23744600D03*
X15875000Y-23744600D03*
%TD*%
D21*
%TO.C,J1*%
X10337800Y-21234400D03*
X10337800Y-23774400D03*
%TD*%
%TO.C,C1*%
G36*
G01*
X24216240Y-29701300D02*
X24216240Y-29201300D01*
G75*
G02*
X24441240Y-28976300I225000J0D01*
G01*
X24891240Y-28976300D01*
G75*
G02*
X25116240Y-29201300I0J-225000D01*
G01*
X25116240Y-29701300D01*
G75*
G02*
X24891240Y-29926300I-225000J0D01*
G01*
X24441240Y-29926300D01*
G75*
G02*
X24216240Y-29701300I0J225000D01*
G01*
G37*
G36*
G01*
X22666240Y-29701300D02*
X22666240Y-29201300D01*
G75*
G02*
X22891240Y-28976300I225000J0D01*
G01*
X23341240Y-28976300D01*
G75*
G02*
X23566240Y-29201300I0J-225000D01*
G01*
X23566240Y-29701300D01*
G75*
G02*
X23341240Y-29926300I-225000J0D01*
G01*
X22891240Y-29926300D01*
G75*
G02*
X22666240Y-29701300I0J225000D01*
G01*
G37*
%TD*%
%TO.C,C3*%
G36*
G01*
X7158800Y-30396300D02*
X6658800Y-30396300D01*
G75*
G02*
X6433800Y-30171300I0J225000D01*
G01*
X6433800Y-29721300D01*
G75*
G02*
X6658800Y-29496300I225000J0D01*
G01*
X7158800Y-29496300D01*
G75*
G02*
X7383800Y-29721300I0J-225000D01*
G01*
X7383800Y-30171300D01*
G75*
G02*
X7158800Y-30396300I-225000J0D01*
G01*
G37*
G36*
G01*
X7158800Y-31946300D02*
X6658800Y-31946300D01*
G75*
G02*
X6433800Y-31721300I0J225000D01*
G01*
X6433800Y-31271300D01*
G75*
G02*
X6658800Y-31046300I225000J0D01*
G01*
X7158800Y-31046300D01*
G75*
G02*
X7383800Y-31271300I0J-225000D01*
G01*
X7383800Y-31721300D01*
G75*
G02*
X7158800Y-31946300I-225000J0D01*
G01*
G37*
%TD*%
M02*
