%TF.GenerationSoftware,KiCad,Pcbnew,(5.1.9)-1*%
%TF.CreationDate,2021-05-21T15:12:25+01:00*%
%TF.ProjectId,NosepokeV1.0,4e6f7365-706f-46b6-9556-312e302e6b69,rev?*%
%TF.SameCoordinates,Original*%
%TF.FileFunction,Paste,Top*%
%TF.FilePolarity,Positive*%
%FSLAX46Y46*%
G04 Gerber Fmt 4.6, Leading zero omitted, Abs format (unit mm)*
G04 Created by KiCad (PCBNEW (5.1.9)-1) date 2021-05-21 15:12:25*
%MOMM*%
%LPD*%
G01*
G04 APERTURE LIST*
%ADD10R,0.650000X1.060000*%
%ADD11R,0.800000X0.900000*%
%ADD12R,0.508000X1.016000*%
G04 APERTURE END LIST*
%TO.C,R6*%
G36*
G01*
X21101500Y-16489000D02*
X21101500Y-17039000D01*
G75*
G02*
X20901500Y-17239000I-200000J0D01*
G01*
X20501500Y-17239000D01*
G75*
G02*
X20301500Y-17039000I0J200000D01*
G01*
X20301500Y-16489000D01*
G75*
G02*
X20501500Y-16289000I200000J0D01*
G01*
X20901500Y-16289000D01*
G75*
G02*
X21101500Y-16489000I0J-200000D01*
G01*
G37*
G36*
G01*
X22751500Y-16489000D02*
X22751500Y-17039000D01*
G75*
G02*
X22551500Y-17239000I-200000J0D01*
G01*
X22151500Y-17239000D01*
G75*
G02*
X21951500Y-17039000I0J200000D01*
G01*
X21951500Y-16489000D01*
G75*
G02*
X22151500Y-16289000I200000J0D01*
G01*
X22551500Y-16289000D01*
G75*
G02*
X22751500Y-16489000I0J-200000D01*
G01*
G37*
%TD*%
D10*
%TO.C,U2*%
X4701500Y-33380500D03*
X6601500Y-33380500D03*
X6601500Y-35580500D03*
X5651500Y-35580500D03*
X4701500Y-35580500D03*
%TD*%
D11*
%TO.C,Q1*%
X1844000Y-4878580D03*
X3744000Y-4878580D03*
X2794000Y-2878580D03*
%TD*%
%TO.C,Q2*%
X5831800Y-4878580D03*
X7731800Y-4878580D03*
X6781800Y-2878580D03*
%TD*%
%TO.C,R5*%
G36*
G01*
X22498500Y-12298000D02*
X22498500Y-12848000D01*
G75*
G02*
X22298500Y-13048000I-200000J0D01*
G01*
X21898500Y-13048000D01*
G75*
G02*
X21698500Y-12848000I0J200000D01*
G01*
X21698500Y-12298000D01*
G75*
G02*
X21898500Y-12098000I200000J0D01*
G01*
X22298500Y-12098000D01*
G75*
G02*
X22498500Y-12298000I0J-200000D01*
G01*
G37*
G36*
G01*
X24148500Y-12298000D02*
X24148500Y-12848000D01*
G75*
G02*
X23948500Y-13048000I-200000J0D01*
G01*
X23548500Y-13048000D01*
G75*
G02*
X23348500Y-12848000I0J200000D01*
G01*
X23348500Y-12298000D01*
G75*
G02*
X23548500Y-12098000I200000J0D01*
G01*
X23948500Y-12098000D01*
G75*
G02*
X24148500Y-12298000I0J-200000D01*
G01*
G37*
%TD*%
%TO.C,R4*%
G36*
G01*
X22498500Y-10647000D02*
X22498500Y-11197000D01*
G75*
G02*
X22298500Y-11397000I-200000J0D01*
G01*
X21898500Y-11397000D01*
G75*
G02*
X21698500Y-11197000I0J200000D01*
G01*
X21698500Y-10647000D01*
G75*
G02*
X21898500Y-10447000I200000J0D01*
G01*
X22298500Y-10447000D01*
G75*
G02*
X22498500Y-10647000I0J-200000D01*
G01*
G37*
G36*
G01*
X24148500Y-10647000D02*
X24148500Y-11197000D01*
G75*
G02*
X23948500Y-11397000I-200000J0D01*
G01*
X23548500Y-11397000D01*
G75*
G02*
X23348500Y-11197000I0J200000D01*
G01*
X23348500Y-10647000D01*
G75*
G02*
X23548500Y-10447000I200000J0D01*
G01*
X23948500Y-10447000D01*
G75*
G02*
X24148500Y-10647000I0J-200000D01*
G01*
G37*
%TD*%
%TO.C,R1*%
G36*
G01*
X2561000Y-34373500D02*
X2011000Y-34373500D01*
G75*
G02*
X1811000Y-34173500I0J200000D01*
G01*
X1811000Y-33773500D01*
G75*
G02*
X2011000Y-33573500I200000J0D01*
G01*
X2561000Y-33573500D01*
G75*
G02*
X2761000Y-33773500I0J-200000D01*
G01*
X2761000Y-34173500D01*
G75*
G02*
X2561000Y-34373500I-200000J0D01*
G01*
G37*
G36*
G01*
X2561000Y-36023500D02*
X2011000Y-36023500D01*
G75*
G02*
X1811000Y-35823500I0J200000D01*
G01*
X1811000Y-35423500D01*
G75*
G02*
X2011000Y-35223500I200000J0D01*
G01*
X2561000Y-35223500D01*
G75*
G02*
X2761000Y-35423500I0J-200000D01*
G01*
X2761000Y-35823500D01*
G75*
G02*
X2561000Y-36023500I-200000J0D01*
G01*
G37*
%TD*%
%TO.C,R3*%
G36*
G01*
X1569000Y-6998380D02*
X1569000Y-6448380D01*
G75*
G02*
X1769000Y-6248380I200000J0D01*
G01*
X2169000Y-6248380D01*
G75*
G02*
X2369000Y-6448380I0J-200000D01*
G01*
X2369000Y-6998380D01*
G75*
G02*
X2169000Y-7198380I-200000J0D01*
G01*
X1769000Y-7198380D01*
G75*
G02*
X1569000Y-6998380I0J200000D01*
G01*
G37*
G36*
G01*
X3219000Y-6998380D02*
X3219000Y-6448380D01*
G75*
G02*
X3419000Y-6248380I200000J0D01*
G01*
X3819000Y-6248380D01*
G75*
G02*
X4019000Y-6448380I0J-200000D01*
G01*
X4019000Y-6998380D01*
G75*
G02*
X3819000Y-7198380I-200000J0D01*
G01*
X3419000Y-7198380D01*
G75*
G02*
X3219000Y-6998380I0J200000D01*
G01*
G37*
%TD*%
%TO.C,R2*%
G36*
G01*
X5556800Y-6998380D02*
X5556800Y-6448380D01*
G75*
G02*
X5756800Y-6248380I200000J0D01*
G01*
X6156800Y-6248380D01*
G75*
G02*
X6356800Y-6448380I0J-200000D01*
G01*
X6356800Y-6998380D01*
G75*
G02*
X6156800Y-7198380I-200000J0D01*
G01*
X5756800Y-7198380D01*
G75*
G02*
X5556800Y-6998380I0J200000D01*
G01*
G37*
G36*
G01*
X7206800Y-6998380D02*
X7206800Y-6448380D01*
G75*
G02*
X7406800Y-6248380I200000J0D01*
G01*
X7806800Y-6248380D01*
G75*
G02*
X8006800Y-6448380I0J-200000D01*
G01*
X8006800Y-6998380D01*
G75*
G02*
X7806800Y-7198380I-200000J0D01*
G01*
X7406800Y-7198380D01*
G75*
G02*
X7206800Y-6998380I0J200000D01*
G01*
G37*
%TD*%
%TO.C,R7*%
G36*
G01*
X4650020Y-8819560D02*
X4650020Y-8269560D01*
G75*
G02*
X4850020Y-8069560I200000J0D01*
G01*
X5250020Y-8069560D01*
G75*
G02*
X5450020Y-8269560I0J-200000D01*
G01*
X5450020Y-8819560D01*
G75*
G02*
X5250020Y-9019560I-200000J0D01*
G01*
X4850020Y-9019560D01*
G75*
G02*
X4650020Y-8819560I0J200000D01*
G01*
G37*
G36*
G01*
X6300020Y-8819560D02*
X6300020Y-8269560D01*
G75*
G02*
X6500020Y-8069560I200000J0D01*
G01*
X6900020Y-8069560D01*
G75*
G02*
X7100020Y-8269560I0J-200000D01*
G01*
X7100020Y-8819560D01*
G75*
G02*
X6900020Y-9019560I-200000J0D01*
G01*
X6500020Y-9019560D01*
G75*
G02*
X6300020Y-8819560I0J200000D01*
G01*
G37*
%TD*%
%TO.C,R8*%
G36*
G01*
X3132500Y-30245500D02*
X2582500Y-30245500D01*
G75*
G02*
X2382500Y-30045500I0J200000D01*
G01*
X2382500Y-29645500D01*
G75*
G02*
X2582500Y-29445500I200000J0D01*
G01*
X3132500Y-29445500D01*
G75*
G02*
X3332500Y-29645500I0J-200000D01*
G01*
X3332500Y-30045500D01*
G75*
G02*
X3132500Y-30245500I-200000J0D01*
G01*
G37*
G36*
G01*
X3132500Y-31895500D02*
X2582500Y-31895500D01*
G75*
G02*
X2382500Y-31695500I0J200000D01*
G01*
X2382500Y-31295500D01*
G75*
G02*
X2582500Y-31095500I200000J0D01*
G01*
X3132500Y-31095500D01*
G75*
G02*
X3332500Y-31295500I0J-200000D01*
G01*
X3332500Y-31695500D01*
G75*
G02*
X3132500Y-31895500I-200000J0D01*
G01*
G37*
%TD*%
%TO.C,C2*%
G36*
G01*
X5025200Y-30345500D02*
X4525200Y-30345500D01*
G75*
G02*
X4300200Y-30120500I0J225000D01*
G01*
X4300200Y-29670500D01*
G75*
G02*
X4525200Y-29445500I225000J0D01*
G01*
X5025200Y-29445500D01*
G75*
G02*
X5250200Y-29670500I0J-225000D01*
G01*
X5250200Y-30120500D01*
G75*
G02*
X5025200Y-30345500I-225000J0D01*
G01*
G37*
G36*
G01*
X5025200Y-31895500D02*
X4525200Y-31895500D01*
G75*
G02*
X4300200Y-31670500I0J225000D01*
G01*
X4300200Y-31220500D01*
G75*
G02*
X4525200Y-30995500I225000J0D01*
G01*
X5025200Y-30995500D01*
G75*
G02*
X5250200Y-31220500I0J-225000D01*
G01*
X5250200Y-31670500D01*
G75*
G02*
X5025200Y-31895500I-225000J0D01*
G01*
G37*
%TD*%
D12*
%TO.C,U1*%
X15875000Y-21255400D03*
X15124999Y-21255400D03*
X14375001Y-21255400D03*
X13624999Y-21255400D03*
X12875001Y-21255400D03*
X12125000Y-21255400D03*
X12125000Y-23744600D03*
X12875001Y-23744600D03*
X13624999Y-23744600D03*
X14375001Y-23744600D03*
X15124999Y-23744600D03*
X15875000Y-23744600D03*
%TD*%
%TO.C,C1*%
G36*
G01*
X24216240Y-29701300D02*
X24216240Y-29201300D01*
G75*
G02*
X24441240Y-28976300I225000J0D01*
G01*
X24891240Y-28976300D01*
G75*
G02*
X25116240Y-29201300I0J-225000D01*
G01*
X25116240Y-29701300D01*
G75*
G02*
X24891240Y-29926300I-225000J0D01*
G01*
X24441240Y-29926300D01*
G75*
G02*
X24216240Y-29701300I0J225000D01*
G01*
G37*
G36*
G01*
X22666240Y-29701300D02*
X22666240Y-29201300D01*
G75*
G02*
X22891240Y-28976300I225000J0D01*
G01*
X23341240Y-28976300D01*
G75*
G02*
X23566240Y-29201300I0J-225000D01*
G01*
X23566240Y-29701300D01*
G75*
G02*
X23341240Y-29926300I-225000J0D01*
G01*
X22891240Y-29926300D01*
G75*
G02*
X22666240Y-29701300I0J225000D01*
G01*
G37*
%TD*%
%TO.C,C3*%
G36*
G01*
X7158800Y-30396300D02*
X6658800Y-30396300D01*
G75*
G02*
X6433800Y-30171300I0J225000D01*
G01*
X6433800Y-29721300D01*
G75*
G02*
X6658800Y-29496300I225000J0D01*
G01*
X7158800Y-29496300D01*
G75*
G02*
X7383800Y-29721300I0J-225000D01*
G01*
X7383800Y-30171300D01*
G75*
G02*
X7158800Y-30396300I-225000J0D01*
G01*
G37*
G36*
G01*
X7158800Y-31946300D02*
X6658800Y-31946300D01*
G75*
G02*
X6433800Y-31721300I0J225000D01*
G01*
X6433800Y-31271300D01*
G75*
G02*
X6658800Y-31046300I225000J0D01*
G01*
X7158800Y-31046300D01*
G75*
G02*
X7383800Y-31271300I0J-225000D01*
G01*
X7383800Y-31721300D01*
G75*
G02*
X7158800Y-31946300I-225000J0D01*
G01*
G37*
%TD*%
M02*
