%TF.GenerationSoftware,KiCad,Pcbnew,(5.1.9)-1*%
%TF.CreationDate,2021-05-21T15:12:25+01:00*%
%TF.ProjectId,NosepokeV1.0,4e6f7365-706f-46b6-9556-312e302e6b69,rev?*%
%TF.SameCoordinates,Original*%
%TF.FileFunction,Copper,L2,Bot*%
%TF.FilePolarity,Positive*%
%FSLAX46Y46*%
G04 Gerber Fmt 4.6, Leading zero omitted, Abs format (unit mm)*
G04 Created by KiCad (PCBNEW (5.1.9)-1) date 2021-05-21 15:12:25*
%MOMM*%
%LPD*%
G01*
G04 APERTURE LIST*
%TA.AperFunction,ComponentPad*%
%ADD10O,1.300000X0.800000*%
%TD*%
%TA.AperFunction,ComponentPad*%
%ADD11C,1.550000*%
%TD*%
%TA.AperFunction,ViaPad*%
%ADD12C,0.800000*%
%TD*%
%TA.AperFunction,Conductor*%
%ADD13C,0.500000*%
%TD*%
%TA.AperFunction,Conductor*%
%ADD14C,0.250000*%
%TD*%
%TA.AperFunction,Conductor*%
%ADD15C,0.200000*%
%TD*%
%TA.AperFunction,Conductor*%
%ADD16C,0.254000*%
%TD*%
%TA.AperFunction,Conductor*%
%ADD17C,0.100000*%
%TD*%
G04 APERTURE END LIST*
D10*
%TO.P,J8,5*%
%TO.N,GND*%
X24955500Y-2874000D03*
%TO.P,J8,4*%
%TO.N,+5V*%
X24955500Y-4124000D03*
%TO.P,J8,3*%
%TO.N,GPIO1*%
X24955500Y-5374000D03*
%TO.P,J8,2*%
%TO.N,GPIO0*%
X24955500Y-6624000D03*
%TO.P,J8,1*%
%TO.N,Sig_A*%
%TA.AperFunction,ComponentPad*%
G36*
G01*
X25405500Y-8274000D02*
X24505500Y-8274000D01*
G75*
G02*
X24305500Y-8074000I0J200000D01*
G01*
X24305500Y-7674000D01*
G75*
G02*
X24505500Y-7474000I200000J0D01*
G01*
X25405500Y-7474000D01*
G75*
G02*
X25605500Y-7674000I0J-200000D01*
G01*
X25605500Y-8074000D01*
G75*
G02*
X25405500Y-8274000I-200000J0D01*
G01*
G37*
%TD.AperFunction*%
%TD*%
D11*
%TO.P,J2,2*%
%TO.N,GND*%
X17627600Y-21234400D03*
%TO.P,J2,1*%
%TO.N,Sig_A*%
X17627600Y-23774400D03*
%TD*%
%TO.P,J7,1*%
%TO.N,SCL*%
%TA.AperFunction,ComponentPad*%
G36*
G01*
X6927000Y-13887720D02*
X6027000Y-13887720D01*
G75*
G02*
X5827000Y-13687720I0J200000D01*
G01*
X5827000Y-13287720D01*
G75*
G02*
X6027000Y-13087720I200000J0D01*
G01*
X6927000Y-13087720D01*
G75*
G02*
X7127000Y-13287720I0J-200000D01*
G01*
X7127000Y-13687720D01*
G75*
G02*
X6927000Y-13887720I-200000J0D01*
G01*
G37*
%TD.AperFunction*%
D10*
%TO.P,J7,2*%
%TO.N,SDA*%
X6477000Y-12237720D03*
%TD*%
%TO.P,J6,2*%
%TO.N,CO*%
X20675600Y-2877500D03*
%TO.P,J6,1*%
%TO.N,DO*%
%TA.AperFunction,ComponentPad*%
G36*
G01*
X21125600Y-4527500D02*
X20225600Y-4527500D01*
G75*
G02*
X20025600Y-4327500I0J200000D01*
G01*
X20025600Y-3927500D01*
G75*
G02*
X20225600Y-3727500I200000J0D01*
G01*
X21125600Y-3727500D01*
G75*
G02*
X21325600Y-3927500I0J-200000D01*
G01*
X21325600Y-4327500D01*
G75*
G02*
X21125600Y-4527500I-200000J0D01*
G01*
G37*
%TD.AperFunction*%
%TD*%
%TO.P,J5,1*%
%TO.N,SCL*%
%TA.AperFunction,ComponentPad*%
G36*
G01*
X2405800Y-13887720D02*
X1505800Y-13887720D01*
G75*
G02*
X1305800Y-13687720I0J200000D01*
G01*
X1305800Y-13287720D01*
G75*
G02*
X1505800Y-13087720I200000J0D01*
G01*
X2405800Y-13087720D01*
G75*
G02*
X2605800Y-13287720I0J-200000D01*
G01*
X2605800Y-13687720D01*
G75*
G02*
X2405800Y-13887720I-200000J0D01*
G01*
G37*
%TD.AperFunction*%
%TO.P,J5,2*%
%TO.N,SDA*%
X1955800Y-12237720D03*
%TD*%
%TO.P,J4,2*%
%TO.N,CI*%
X5869940Y-39941500D03*
%TO.P,J4,1*%
%TO.N,DI*%
%TA.AperFunction,ComponentPad*%
G36*
G01*
X6319940Y-41591500D02*
X5419940Y-41591500D01*
G75*
G02*
X5219940Y-41391500I0J200000D01*
G01*
X5219940Y-40991500D01*
G75*
G02*
X5419940Y-40791500I200000J0D01*
G01*
X6319940Y-40791500D01*
G75*
G02*
X6519940Y-40991500I0J-200000D01*
G01*
X6519940Y-41391500D01*
G75*
G02*
X6319940Y-41591500I-200000J0D01*
G01*
G37*
%TD.AperFunction*%
%TD*%
%TO.P,J3,2*%
%TO.N,GND*%
X24119840Y-32824100D03*
%TO.P,J3,1*%
%TO.N,+5V*%
%TA.AperFunction,ComponentPad*%
G36*
G01*
X24569840Y-34474100D02*
X23669840Y-34474100D01*
G75*
G02*
X23469840Y-34274100I0J200000D01*
G01*
X23469840Y-33874100D01*
G75*
G02*
X23669840Y-33674100I200000J0D01*
G01*
X24569840Y-33674100D01*
G75*
G02*
X24769840Y-33874100I0J-200000D01*
G01*
X24769840Y-34274100D01*
G75*
G02*
X24569840Y-34474100I-200000J0D01*
G01*
G37*
%TD.AperFunction*%
%TD*%
D11*
%TO.P,J1,1*%
%TO.N,Net-(J1-Pad1)*%
X10337800Y-21234400D03*
%TO.P,J1,2*%
%TO.N,GND*%
X10337800Y-23774400D03*
%TD*%
D12*
%TO.N,GND*%
X19685000Y-34036000D03*
X4953000Y-37592000D03*
X6985000Y-27876500D03*
X26860500Y-1905000D03*
X26733500Y-17335500D03*
X13589000Y-14605000D03*
X1968500Y-21336000D03*
X7175500Y-20447000D03*
X2349500Y-41592500D03*
X25082500Y-40830500D03*
X22415500Y-24320500D03*
X25336500Y-12954000D03*
X18732500Y-13017500D03*
%TO.N,Net-(D1-Pad6)*%
X14351000Y-30035500D03*
X13589000Y-11239500D03*
%TO.N,Net-(D1-Pad5)*%
X18796000Y-27432000D03*
X14478000Y-13017500D03*
%TO.N,Sig_A*%
X21414510Y-14922500D03*
%TO.N,Net-(J1-Pad1)*%
X1714500Y-32893000D03*
%TO.N,Net-(R4-Pad2)*%
X20764500Y-9779000D03*
X6667500Y-9779000D03*
X9617967Y-15493213D03*
%TO.N,Net-(R5-Pad2)*%
X20764500Y-12954000D03*
X20051490Y-20280977D03*
%TD*%
D13*
%TO.N,GND*%
X12877800Y-21234400D02*
X10337800Y-23774400D01*
X17627600Y-21234400D02*
X12877800Y-21234400D01*
X20896900Y-32824100D02*
X24119840Y-32824100D01*
X19685000Y-34036000D02*
X20896900Y-32824100D01*
X10160000Y-36258500D02*
X10337800Y-36436300D01*
X17284700Y-36436300D02*
X19685000Y-34036000D01*
X10337800Y-36436300D02*
X17284700Y-36436300D01*
X6108700Y-36436300D02*
X4953000Y-37592000D01*
X10337800Y-36436300D02*
X6108700Y-36436300D01*
D14*
X9182100Y-27876500D02*
X10337800Y-29032200D01*
X6985000Y-27876500D02*
X9182100Y-27876500D01*
D13*
X10337800Y-29032200D02*
X10337800Y-36436300D01*
X10337800Y-23774400D02*
X10337800Y-29032200D01*
D14*
X26860500Y-1905000D02*
X26733500Y-1905000D01*
X26733500Y-30210440D02*
X24119840Y-32824100D01*
X26733500Y-1905000D02*
X26733500Y-17335500D01*
X26733500Y-17335500D02*
X26733500Y-30210440D01*
X13589000Y-15238998D02*
X13589000Y-14605000D01*
X17627600Y-21234400D02*
X17627600Y-19277598D01*
D15*
X13589000Y-14605000D02*
X17526000Y-18542000D01*
X17526000Y-21132800D02*
X17627600Y-21234400D01*
X17526000Y-18542000D02*
X17526000Y-21132800D01*
D14*
%TO.N,Net-(D1-Pad6)*%
X18652601Y-18154105D02*
X18652601Y-25733899D01*
X13589000Y-11239500D02*
X13589000Y-13090504D01*
X13589000Y-13090504D02*
X18652601Y-18154105D01*
X18652601Y-25733899D02*
X14351000Y-30035500D01*
%TO.N,Net-(D1-Pad5)*%
X18796000Y-27432000D02*
X19195999Y-27032001D01*
X19195999Y-27032001D02*
X19195999Y-18687999D01*
X19195999Y-18687999D02*
X19195999Y-17671999D01*
X14541500Y-13017500D02*
X14478000Y-13017500D01*
X19195999Y-17671999D02*
X14541500Y-13017500D01*
D15*
%TO.N,Sig_A*%
X24955500Y-7874000D02*
X24955500Y-11381510D01*
X24955500Y-11381510D02*
X21414510Y-14922500D01*
%TO.N,SDA*%
X6477000Y-12237720D02*
X1955800Y-12237720D01*
%TO.N,SCL*%
X6477000Y-13487720D02*
X1955800Y-13487720D01*
D13*
%TO.N,Net-(J1-Pad1)*%
X1714500Y-32893000D02*
X1714500Y-29857700D01*
X1714500Y-29857700D02*
X10337800Y-21234400D01*
D14*
%TO.N,Net-(R4-Pad2)*%
X6667500Y-9779000D02*
X20764500Y-9779000D01*
X6667500Y-9779000D02*
X9617967Y-12729467D01*
X9617967Y-12729467D02*
X9617967Y-15493213D01*
%TO.N,Net-(R5-Pad2)*%
X20764500Y-19567967D02*
X20051490Y-20280977D01*
X20764500Y-12954000D02*
X20764500Y-19567967D01*
%TD*%
D16*
%TO.N,GND*%
X27340001Y-44340000D02*
X660000Y-44340000D01*
X660000Y-39941500D01*
X4579933Y-39941500D01*
X4599916Y-40144395D01*
X4659099Y-40339493D01*
X4744681Y-40499606D01*
X4723109Y-40525892D01*
X4645662Y-40670784D01*
X4597971Y-40828000D01*
X4581868Y-40991500D01*
X4581868Y-41391500D01*
X4597971Y-41555000D01*
X4645662Y-41712216D01*
X4723109Y-41857108D01*
X4827334Y-41984106D01*
X4954332Y-42088331D01*
X5099224Y-42165778D01*
X5256440Y-42213469D01*
X5419940Y-42229572D01*
X6319940Y-42229572D01*
X6483440Y-42213469D01*
X6640656Y-42165778D01*
X6785548Y-42088331D01*
X6912546Y-41984106D01*
X7016771Y-41857108D01*
X7094218Y-41712216D01*
X7141909Y-41555000D01*
X7158012Y-41391500D01*
X7158012Y-40991500D01*
X7141909Y-40828000D01*
X7094218Y-40670784D01*
X7016771Y-40525892D01*
X6995199Y-40499606D01*
X7080781Y-40339493D01*
X7139964Y-40144395D01*
X7159947Y-39941500D01*
X7139964Y-39738605D01*
X7080781Y-39543507D01*
X6984674Y-39363703D01*
X6855336Y-39206104D01*
X6697737Y-39076766D01*
X6517933Y-38980659D01*
X6322835Y-38921476D01*
X6170778Y-38906500D01*
X5569102Y-38906500D01*
X5417045Y-38921476D01*
X5221947Y-38980659D01*
X5042143Y-39076766D01*
X4884544Y-39206104D01*
X4755206Y-39363703D01*
X4659099Y-39543507D01*
X4599916Y-39738605D01*
X4579933Y-39941500D01*
X660000Y-39941500D01*
X660000Y-38529872D01*
X11765000Y-38529872D01*
X11765000Y-38970128D01*
X11850890Y-39401925D01*
X12019369Y-39808669D01*
X12263962Y-40174729D01*
X12575271Y-40486038D01*
X12941331Y-40730631D01*
X13348075Y-40899110D01*
X13779872Y-40985000D01*
X14220128Y-40985000D01*
X14651925Y-40899110D01*
X15058669Y-40730631D01*
X15424729Y-40486038D01*
X15736038Y-40174729D01*
X15980631Y-39808669D01*
X16149110Y-39401925D01*
X16235000Y-38970128D01*
X16235000Y-38529872D01*
X16149110Y-38098075D01*
X15980631Y-37691331D01*
X15736038Y-37325271D01*
X15424729Y-37013962D01*
X15058669Y-36769369D01*
X14651925Y-36600890D01*
X14220128Y-36515000D01*
X13779872Y-36515000D01*
X13348075Y-36600890D01*
X12941331Y-36769369D01*
X12575271Y-37013962D01*
X12263962Y-37325271D01*
X12019369Y-37691331D01*
X11850890Y-38098075D01*
X11765000Y-38529872D01*
X660000Y-38529872D01*
X660000Y-32791061D01*
X679500Y-32791061D01*
X679500Y-32994939D01*
X719274Y-33194898D01*
X797295Y-33383256D01*
X910563Y-33552774D01*
X1054726Y-33696937D01*
X1224244Y-33810205D01*
X1412602Y-33888226D01*
X1612561Y-33928000D01*
X1816439Y-33928000D01*
X2016398Y-33888226D01*
X2050500Y-33874100D01*
X22831768Y-33874100D01*
X22831768Y-34274100D01*
X22847871Y-34437600D01*
X22895562Y-34594816D01*
X22973009Y-34739708D01*
X23077234Y-34866706D01*
X23204232Y-34970931D01*
X23349124Y-35048378D01*
X23506340Y-35096069D01*
X23669840Y-35112172D01*
X24569840Y-35112172D01*
X24733340Y-35096069D01*
X24890556Y-35048378D01*
X25035448Y-34970931D01*
X25162446Y-34866706D01*
X25266671Y-34739708D01*
X25344118Y-34594816D01*
X25391809Y-34437600D01*
X25407912Y-34274100D01*
X25407912Y-33874100D01*
X25391809Y-33710600D01*
X25344118Y-33553384D01*
X25266671Y-33408492D01*
X25251589Y-33390115D01*
X25265095Y-33372260D01*
X25354834Y-33187072D01*
X25364506Y-33110223D01*
X25236838Y-32951100D01*
X24246840Y-32951100D01*
X24246840Y-32971100D01*
X23992840Y-32971100D01*
X23992840Y-32951100D01*
X23002842Y-32951100D01*
X22875174Y-33110223D01*
X22884846Y-33187072D01*
X22974585Y-33372260D01*
X22988091Y-33390115D01*
X22973009Y-33408492D01*
X22895562Y-33553384D01*
X22847871Y-33710600D01*
X22831768Y-33874100D01*
X2050500Y-33874100D01*
X2204756Y-33810205D01*
X2374274Y-33696937D01*
X2518437Y-33552774D01*
X2631705Y-33383256D01*
X2709726Y-33194898D01*
X2749500Y-32994939D01*
X2749500Y-32791061D01*
X2709726Y-32591102D01*
X2687721Y-32537977D01*
X22875174Y-32537977D01*
X23002842Y-32697100D01*
X23992840Y-32697100D01*
X23992840Y-31940338D01*
X24246840Y-31940338D01*
X24246840Y-32697100D01*
X25236838Y-32697100D01*
X25364506Y-32537977D01*
X25354834Y-32461128D01*
X25265095Y-32275940D01*
X25140952Y-32111817D01*
X24987176Y-31975067D01*
X24809676Y-31870945D01*
X24615273Y-31803452D01*
X24411439Y-31775182D01*
X24246840Y-31940338D01*
X23992840Y-31940338D01*
X23828241Y-31775182D01*
X23624407Y-31803452D01*
X23430004Y-31870945D01*
X23252504Y-31975067D01*
X23098728Y-32111817D01*
X22974585Y-32275940D01*
X22884846Y-32461128D01*
X22875174Y-32537977D01*
X2687721Y-32537977D01*
X2631705Y-32402744D01*
X2599500Y-32354546D01*
X2599500Y-30224278D01*
X8074529Y-24749249D01*
X9542556Y-24749249D01*
X9611110Y-24990668D01*
X9862356Y-25109068D01*
X10131871Y-25176178D01*
X10409302Y-25189418D01*
X10683984Y-25148279D01*
X10945362Y-25054343D01*
X11064490Y-24990668D01*
X11133044Y-24749249D01*
X10337800Y-23954005D01*
X9542556Y-24749249D01*
X8074529Y-24749249D01*
X8929959Y-23893820D01*
X8963921Y-24120584D01*
X9057857Y-24381962D01*
X9121532Y-24501090D01*
X9362951Y-24569644D01*
X10158195Y-23774400D01*
X10517405Y-23774400D01*
X11312649Y-24569644D01*
X11554068Y-24501090D01*
X11672468Y-24249844D01*
X11739578Y-23980329D01*
X11752818Y-23702898D01*
X11711679Y-23428216D01*
X11617743Y-23166838D01*
X11554068Y-23047710D01*
X11312649Y-22979156D01*
X10517405Y-23774400D01*
X10158195Y-23774400D01*
X10144053Y-23760258D01*
X10323658Y-23580653D01*
X10337800Y-23594795D01*
X11133044Y-22799551D01*
X11064490Y-22558132D01*
X10953176Y-22505675D01*
X11005685Y-22483925D01*
X11236622Y-22329618D01*
X11433018Y-22133222D01*
X11587325Y-21902285D01*
X11693614Y-21645682D01*
X11747800Y-21373273D01*
X11747800Y-21305902D01*
X16212582Y-21305902D01*
X16253721Y-21580584D01*
X16347657Y-21841962D01*
X16411332Y-21961090D01*
X16652751Y-22029644D01*
X17447995Y-21234400D01*
X16652751Y-20439156D01*
X16411332Y-20507710D01*
X16292932Y-20758956D01*
X16225822Y-21028471D01*
X16212582Y-21305902D01*
X11747800Y-21305902D01*
X11747800Y-21095527D01*
X11693614Y-20823118D01*
X11587325Y-20566515D01*
X11433018Y-20335578D01*
X11236622Y-20139182D01*
X11005685Y-19984875D01*
X10749082Y-19878586D01*
X10476673Y-19824400D01*
X10198927Y-19824400D01*
X9926518Y-19878586D01*
X9669915Y-19984875D01*
X9438978Y-20139182D01*
X9242582Y-20335578D01*
X9088275Y-20566515D01*
X8981986Y-20823118D01*
X8927800Y-21095527D01*
X8927800Y-21373273D01*
X8931043Y-21389578D01*
X1119452Y-29201170D01*
X1085684Y-29228883D01*
X1057971Y-29262651D01*
X1057968Y-29262654D01*
X975090Y-29363641D01*
X892912Y-29517387D01*
X842305Y-29684210D01*
X825219Y-29857700D01*
X829501Y-29901179D01*
X829500Y-32354545D01*
X797295Y-32402744D01*
X719274Y-32591102D01*
X679500Y-32791061D01*
X660000Y-32791061D01*
X660000Y-17338967D01*
X12365000Y-17338967D01*
X12365000Y-17661033D01*
X12427832Y-17976912D01*
X12551082Y-18274463D01*
X12730013Y-18542252D01*
X12957748Y-18769987D01*
X13225537Y-18948918D01*
X13523088Y-19072168D01*
X13838967Y-19135000D01*
X14161033Y-19135000D01*
X14476912Y-19072168D01*
X14774463Y-18948918D01*
X15042252Y-18769987D01*
X15269987Y-18542252D01*
X15448918Y-18274463D01*
X15572168Y-17976912D01*
X15635000Y-17661033D01*
X15635000Y-17338967D01*
X15572168Y-17023088D01*
X15448918Y-16725537D01*
X15269987Y-16457748D01*
X15042252Y-16230013D01*
X14774463Y-16051082D01*
X14476912Y-15927832D01*
X14161033Y-15865000D01*
X13838967Y-15865000D01*
X13523088Y-15927832D01*
X13225537Y-16051082D01*
X12957748Y-16230013D01*
X12730013Y-16457748D01*
X12551082Y-16725537D01*
X12427832Y-17023088D01*
X12365000Y-17338967D01*
X660000Y-17338967D01*
X660000Y-12237720D01*
X665793Y-12237720D01*
X685776Y-12440615D01*
X744959Y-12635713D01*
X830541Y-12795826D01*
X808969Y-12822112D01*
X731522Y-12967004D01*
X683831Y-13124220D01*
X667728Y-13287720D01*
X667728Y-13687720D01*
X683831Y-13851220D01*
X731522Y-14008436D01*
X808969Y-14153328D01*
X913194Y-14280326D01*
X1040192Y-14384551D01*
X1185084Y-14461998D01*
X1342300Y-14509689D01*
X1505800Y-14525792D01*
X2405800Y-14525792D01*
X2569300Y-14509689D01*
X2726516Y-14461998D01*
X2871408Y-14384551D01*
X2998406Y-14280326D01*
X3045682Y-14222720D01*
X5387118Y-14222720D01*
X5434394Y-14280326D01*
X5561392Y-14384551D01*
X5706284Y-14461998D01*
X5863500Y-14509689D01*
X6027000Y-14525792D01*
X6927000Y-14525792D01*
X7090500Y-14509689D01*
X7247716Y-14461998D01*
X7392608Y-14384551D01*
X7519606Y-14280326D01*
X7623831Y-14153328D01*
X7701278Y-14008436D01*
X7748969Y-13851220D01*
X7765072Y-13687720D01*
X7765072Y-13287720D01*
X7748969Y-13124220D01*
X7701278Y-12967004D01*
X7623831Y-12822112D01*
X7602259Y-12795826D01*
X7687841Y-12635713D01*
X7747024Y-12440615D01*
X7767007Y-12237720D01*
X7747024Y-12034825D01*
X7702827Y-11889129D01*
X8857967Y-13044270D01*
X8857968Y-14789501D01*
X8814030Y-14833439D01*
X8700762Y-15002957D01*
X8622741Y-15191315D01*
X8582967Y-15391274D01*
X8582967Y-15595152D01*
X8622741Y-15795111D01*
X8700762Y-15983469D01*
X8814030Y-16152987D01*
X8958193Y-16297150D01*
X9127711Y-16410418D01*
X9316069Y-16488439D01*
X9516028Y-16528213D01*
X9719906Y-16528213D01*
X9919865Y-16488439D01*
X10108223Y-16410418D01*
X10277741Y-16297150D01*
X10421904Y-16152987D01*
X10535172Y-15983469D01*
X10613193Y-15795111D01*
X10652967Y-15595152D01*
X10652967Y-15391274D01*
X10613193Y-15191315D01*
X10535172Y-15002957D01*
X10421904Y-14833439D01*
X10377967Y-14789502D01*
X10377967Y-12766789D01*
X10381643Y-12729466D01*
X10377967Y-12692143D01*
X10377967Y-12692134D01*
X10366970Y-12580481D01*
X10323513Y-12437220D01*
X10252941Y-12305191D01*
X10213802Y-12257500D01*
X10181766Y-12218463D01*
X10181762Y-12218459D01*
X10157968Y-12189466D01*
X10128976Y-12165673D01*
X8502302Y-10539000D01*
X12825789Y-10539000D01*
X12785063Y-10579726D01*
X12671795Y-10749244D01*
X12593774Y-10937602D01*
X12554000Y-11137561D01*
X12554000Y-11341439D01*
X12593774Y-11541398D01*
X12671795Y-11729756D01*
X12785063Y-11899274D01*
X12829000Y-11943211D01*
X12829001Y-13053172D01*
X12825324Y-13090504D01*
X12829001Y-13127837D01*
X12831553Y-13153742D01*
X12839998Y-13239489D01*
X12883454Y-13382750D01*
X12954026Y-13514780D01*
X12989087Y-13557501D01*
X13049000Y-13630505D01*
X13077998Y-13654303D01*
X17892601Y-18468907D01*
X17892601Y-19847331D01*
X17833529Y-19832622D01*
X17556098Y-19819382D01*
X17281416Y-19860521D01*
X17020038Y-19954457D01*
X16900910Y-20018132D01*
X16832356Y-20259551D01*
X17627600Y-21054795D01*
X17641743Y-21040653D01*
X17821348Y-21220258D01*
X17807205Y-21234400D01*
X17821348Y-21248543D01*
X17641743Y-21428148D01*
X17627600Y-21414005D01*
X16832356Y-22209249D01*
X16900910Y-22450668D01*
X17012224Y-22503125D01*
X16959715Y-22524875D01*
X16728778Y-22679182D01*
X16532382Y-22875578D01*
X16378075Y-23106515D01*
X16271786Y-23363118D01*
X16217600Y-23635527D01*
X16217600Y-23913273D01*
X16271786Y-24185682D01*
X16378075Y-24442285D01*
X16532382Y-24673222D01*
X16728778Y-24869618D01*
X16959715Y-25023925D01*
X17216318Y-25130214D01*
X17488727Y-25184400D01*
X17766473Y-25184400D01*
X17892602Y-25159311D01*
X17892602Y-25419095D01*
X15631110Y-27680588D01*
X15635000Y-27661033D01*
X15635000Y-27338967D01*
X15572168Y-27023088D01*
X15448918Y-26725537D01*
X15269987Y-26457748D01*
X15042252Y-26230013D01*
X14774463Y-26051082D01*
X14476912Y-25927832D01*
X14161033Y-25865000D01*
X13838967Y-25865000D01*
X13523088Y-25927832D01*
X13225537Y-26051082D01*
X12957748Y-26230013D01*
X12730013Y-26457748D01*
X12551082Y-26725537D01*
X12427832Y-27023088D01*
X12365000Y-27338967D01*
X12365000Y-27661033D01*
X12427832Y-27976912D01*
X12551082Y-28274463D01*
X12730013Y-28542252D01*
X12957748Y-28769987D01*
X13225537Y-28948918D01*
X13523088Y-29072168D01*
X13836483Y-29134506D01*
X13691226Y-29231563D01*
X13547063Y-29375726D01*
X13433795Y-29545244D01*
X13355774Y-29733602D01*
X13316000Y-29933561D01*
X13316000Y-30137439D01*
X13355774Y-30337398D01*
X13433795Y-30525756D01*
X13547063Y-30695274D01*
X13691226Y-30839437D01*
X13860744Y-30952705D01*
X14049102Y-31030726D01*
X14249061Y-31070500D01*
X14452939Y-31070500D01*
X14652898Y-31030726D01*
X14841256Y-30952705D01*
X15010774Y-30839437D01*
X15154937Y-30695274D01*
X15268205Y-30525756D01*
X15346226Y-30337398D01*
X15386000Y-30137439D01*
X15386000Y-30075301D01*
X17788601Y-27672701D01*
X17800774Y-27733898D01*
X17878795Y-27922256D01*
X17992063Y-28091774D01*
X18136226Y-28235937D01*
X18305744Y-28349205D01*
X18494102Y-28427226D01*
X18694061Y-28467000D01*
X18897939Y-28467000D01*
X19097898Y-28427226D01*
X19286256Y-28349205D01*
X19455774Y-28235937D01*
X19599937Y-28091774D01*
X19713205Y-27922256D01*
X19791226Y-27733898D01*
X19831000Y-27533939D01*
X19831000Y-27456226D01*
X19901545Y-27324248D01*
X19945002Y-27180987D01*
X19955999Y-27069334D01*
X19955999Y-27069324D01*
X19959675Y-27032002D01*
X19955999Y-26994679D01*
X19955999Y-21315977D01*
X20153429Y-21315977D01*
X20353388Y-21276203D01*
X20541746Y-21198182D01*
X20711264Y-21084914D01*
X20855427Y-20940751D01*
X20968695Y-20771233D01*
X21046716Y-20582875D01*
X21086490Y-20382916D01*
X21086490Y-20320779D01*
X21275508Y-20131762D01*
X21304501Y-20107968D01*
X21328295Y-20078975D01*
X21328299Y-20078971D01*
X21399473Y-19992244D01*
X21419671Y-19954457D01*
X21470046Y-19860214D01*
X21513503Y-19716953D01*
X21524500Y-19605300D01*
X21524500Y-19605291D01*
X21528176Y-19567968D01*
X21524500Y-19530645D01*
X21524500Y-15955899D01*
X21716408Y-15917726D01*
X21904766Y-15839705D01*
X22074284Y-15726437D01*
X22218447Y-15582274D01*
X22331715Y-15412756D01*
X22409736Y-15224398D01*
X22449510Y-15024439D01*
X22449510Y-14926946D01*
X25449693Y-11926764D01*
X25477738Y-11903748D01*
X25569587Y-11791830D01*
X25637837Y-11664143D01*
X25679865Y-11525595D01*
X25690500Y-11417615D01*
X25694056Y-11381511D01*
X25690500Y-11345406D01*
X25690500Y-8859112D01*
X25726216Y-8848278D01*
X25871108Y-8770831D01*
X25998106Y-8666606D01*
X26102331Y-8539608D01*
X26179778Y-8394716D01*
X26227469Y-8237500D01*
X26243572Y-8074000D01*
X26243572Y-7674000D01*
X26227469Y-7510500D01*
X26179778Y-7353284D01*
X26102331Y-7208392D01*
X26080759Y-7182106D01*
X26166341Y-7021993D01*
X26225524Y-6826895D01*
X26245507Y-6624000D01*
X26225524Y-6421105D01*
X26166341Y-6226007D01*
X26070234Y-6046203D01*
X26031496Y-5999000D01*
X26070234Y-5951797D01*
X26166341Y-5771993D01*
X26225524Y-5576895D01*
X26245507Y-5374000D01*
X26225524Y-5171105D01*
X26166341Y-4976007D01*
X26070234Y-4796203D01*
X26031496Y-4749000D01*
X26070234Y-4701797D01*
X26166341Y-4521993D01*
X26225524Y-4326895D01*
X26245507Y-4124000D01*
X26225524Y-3921105D01*
X26166341Y-3726007D01*
X26070234Y-3546203D01*
X26037291Y-3506062D01*
X26100755Y-3422160D01*
X26190494Y-3236972D01*
X26200166Y-3160123D01*
X26072498Y-3001000D01*
X25082500Y-3001000D01*
X25082500Y-3021000D01*
X24828500Y-3021000D01*
X24828500Y-3001000D01*
X23838502Y-3001000D01*
X23710834Y-3160123D01*
X23720506Y-3236972D01*
X23810245Y-3422160D01*
X23873709Y-3506062D01*
X23840766Y-3546203D01*
X23744659Y-3726007D01*
X23685476Y-3921105D01*
X23665493Y-4124000D01*
X23685476Y-4326895D01*
X23744659Y-4521993D01*
X23840766Y-4701797D01*
X23879504Y-4749000D01*
X23840766Y-4796203D01*
X23744659Y-4976007D01*
X23685476Y-5171105D01*
X23665493Y-5374000D01*
X23685476Y-5576895D01*
X23744659Y-5771993D01*
X23840766Y-5951797D01*
X23879504Y-5999000D01*
X23840766Y-6046203D01*
X23744659Y-6226007D01*
X23685476Y-6421105D01*
X23665493Y-6624000D01*
X23685476Y-6826895D01*
X23744659Y-7021993D01*
X23830241Y-7182106D01*
X23808669Y-7208392D01*
X23731222Y-7353284D01*
X23683531Y-7510500D01*
X23667428Y-7674000D01*
X23667428Y-8074000D01*
X23683531Y-8237500D01*
X23731222Y-8394716D01*
X23808669Y-8539608D01*
X23912894Y-8666606D01*
X24039892Y-8770831D01*
X24184784Y-8848278D01*
X24220500Y-8859112D01*
X24220501Y-11077062D01*
X21524500Y-13773064D01*
X21524500Y-13657711D01*
X21568437Y-13613774D01*
X21681705Y-13444256D01*
X21759726Y-13255898D01*
X21799500Y-13055939D01*
X21799500Y-12852061D01*
X21759726Y-12652102D01*
X21681705Y-12463744D01*
X21568437Y-12294226D01*
X21424274Y-12150063D01*
X21254756Y-12036795D01*
X21066398Y-11958774D01*
X20866439Y-11919000D01*
X20662561Y-11919000D01*
X20462602Y-11958774D01*
X20274244Y-12036795D01*
X20104726Y-12150063D01*
X19960563Y-12294226D01*
X19847295Y-12463744D01*
X19769274Y-12652102D01*
X19729500Y-12852061D01*
X19729500Y-13055939D01*
X19769274Y-13255898D01*
X19847295Y-13444256D01*
X19960563Y-13613774D01*
X20004500Y-13657711D01*
X20004501Y-19245977D01*
X19955999Y-19245977D01*
X19955999Y-17709332D01*
X19959676Y-17671999D01*
X19945002Y-17523013D01*
X19901545Y-17379752D01*
X19830973Y-17247723D01*
X19759798Y-17160996D01*
X19736000Y-17131998D01*
X19707002Y-17108200D01*
X15512662Y-12913861D01*
X15473226Y-12715602D01*
X15395205Y-12527244D01*
X15281937Y-12357726D01*
X15137774Y-12213563D01*
X14968256Y-12100295D01*
X14779898Y-12022274D01*
X14579939Y-11982500D01*
X14376061Y-11982500D01*
X14349000Y-11987883D01*
X14349000Y-11943211D01*
X14392937Y-11899274D01*
X14506205Y-11729756D01*
X14584226Y-11541398D01*
X14624000Y-11341439D01*
X14624000Y-11137561D01*
X14584226Y-10937602D01*
X14506205Y-10749244D01*
X14392937Y-10579726D01*
X14352211Y-10539000D01*
X20060789Y-10539000D01*
X20104726Y-10582937D01*
X20274244Y-10696205D01*
X20462602Y-10774226D01*
X20662561Y-10814000D01*
X20866439Y-10814000D01*
X21066398Y-10774226D01*
X21254756Y-10696205D01*
X21424274Y-10582937D01*
X21568437Y-10438774D01*
X21681705Y-10269256D01*
X21759726Y-10080898D01*
X21799500Y-9880939D01*
X21799500Y-9677061D01*
X21759726Y-9477102D01*
X21681705Y-9288744D01*
X21568437Y-9119226D01*
X21424274Y-8975063D01*
X21254756Y-8861795D01*
X21066398Y-8783774D01*
X20866439Y-8744000D01*
X20662561Y-8744000D01*
X20462602Y-8783774D01*
X20274244Y-8861795D01*
X20104726Y-8975063D01*
X20060789Y-9019000D01*
X7371211Y-9019000D01*
X7327274Y-8975063D01*
X7157756Y-8861795D01*
X6969398Y-8783774D01*
X6769439Y-8744000D01*
X6565561Y-8744000D01*
X6365602Y-8783774D01*
X6177244Y-8861795D01*
X6007726Y-8975063D01*
X5863563Y-9119226D01*
X5750295Y-9288744D01*
X5672274Y-9477102D01*
X5632500Y-9677061D01*
X5632500Y-9880939D01*
X5672274Y-10080898D01*
X5750295Y-10269256D01*
X5863563Y-10438774D01*
X6007726Y-10582937D01*
X6177244Y-10696205D01*
X6365602Y-10774226D01*
X6565561Y-10814000D01*
X6627699Y-10814000D01*
X7075591Y-11261893D01*
X6929895Y-11217696D01*
X6777838Y-11202720D01*
X6176162Y-11202720D01*
X6024105Y-11217696D01*
X5829007Y-11276879D01*
X5649203Y-11372986D01*
X5491604Y-11502324D01*
X5491279Y-11502720D01*
X2941521Y-11502720D01*
X2941196Y-11502324D01*
X2783597Y-11372986D01*
X2603793Y-11276879D01*
X2408695Y-11217696D01*
X2256638Y-11202720D01*
X1654962Y-11202720D01*
X1502905Y-11217696D01*
X1307807Y-11276879D01*
X1128003Y-11372986D01*
X970404Y-11502324D01*
X841066Y-11659923D01*
X744959Y-11839727D01*
X685776Y-12034825D01*
X665793Y-12237720D01*
X660000Y-12237720D01*
X660000Y-6029872D01*
X11765000Y-6029872D01*
X11765000Y-6470128D01*
X11850890Y-6901925D01*
X12019369Y-7308669D01*
X12263962Y-7674729D01*
X12575271Y-7986038D01*
X12941331Y-8230631D01*
X13348075Y-8399110D01*
X13779872Y-8485000D01*
X14220128Y-8485000D01*
X14651925Y-8399110D01*
X15058669Y-8230631D01*
X15424729Y-7986038D01*
X15736038Y-7674729D01*
X15980631Y-7308669D01*
X16149110Y-6901925D01*
X16235000Y-6470128D01*
X16235000Y-6029872D01*
X16149110Y-5598075D01*
X15980631Y-5191331D01*
X15736038Y-4825271D01*
X15424729Y-4513962D01*
X15058669Y-4269369D01*
X14651925Y-4100890D01*
X14220128Y-4015000D01*
X13779872Y-4015000D01*
X13348075Y-4100890D01*
X12941331Y-4269369D01*
X12575271Y-4513962D01*
X12263962Y-4825271D01*
X12019369Y-5191331D01*
X11850890Y-5598075D01*
X11765000Y-6029872D01*
X660000Y-6029872D01*
X660000Y-2877500D01*
X19385593Y-2877500D01*
X19405576Y-3080395D01*
X19464759Y-3275493D01*
X19550341Y-3435606D01*
X19528769Y-3461892D01*
X19451322Y-3606784D01*
X19403631Y-3764000D01*
X19387528Y-3927500D01*
X19387528Y-4327500D01*
X19403631Y-4491000D01*
X19451322Y-4648216D01*
X19528769Y-4793108D01*
X19632994Y-4920106D01*
X19759992Y-5024331D01*
X19904884Y-5101778D01*
X20062100Y-5149469D01*
X20225600Y-5165572D01*
X21125600Y-5165572D01*
X21289100Y-5149469D01*
X21446316Y-5101778D01*
X21591208Y-5024331D01*
X21718206Y-4920106D01*
X21822431Y-4793108D01*
X21899878Y-4648216D01*
X21947569Y-4491000D01*
X21963672Y-4327500D01*
X21963672Y-3927500D01*
X21947569Y-3764000D01*
X21899878Y-3606784D01*
X21822431Y-3461892D01*
X21800859Y-3435606D01*
X21886441Y-3275493D01*
X21945624Y-3080395D01*
X21965607Y-2877500D01*
X21945624Y-2674605D01*
X21919316Y-2587877D01*
X23710834Y-2587877D01*
X23838502Y-2747000D01*
X24828500Y-2747000D01*
X24828500Y-1990238D01*
X25082500Y-1990238D01*
X25082500Y-2747000D01*
X26072498Y-2747000D01*
X26200166Y-2587877D01*
X26190494Y-2511028D01*
X26100755Y-2325840D01*
X25976612Y-2161717D01*
X25822836Y-2024967D01*
X25645336Y-1920845D01*
X25450933Y-1853352D01*
X25247099Y-1825082D01*
X25082500Y-1990238D01*
X24828500Y-1990238D01*
X24663901Y-1825082D01*
X24460067Y-1853352D01*
X24265664Y-1920845D01*
X24088164Y-2024967D01*
X23934388Y-2161717D01*
X23810245Y-2325840D01*
X23720506Y-2511028D01*
X23710834Y-2587877D01*
X21919316Y-2587877D01*
X21886441Y-2479507D01*
X21790334Y-2299703D01*
X21660996Y-2142104D01*
X21503397Y-2012766D01*
X21323593Y-1916659D01*
X21128495Y-1857476D01*
X20976438Y-1842500D01*
X20374762Y-1842500D01*
X20222705Y-1857476D01*
X20027607Y-1916659D01*
X19847803Y-2012766D01*
X19690204Y-2142104D01*
X19560866Y-2299703D01*
X19464759Y-2479507D01*
X19405576Y-2674605D01*
X19385593Y-2877500D01*
X660000Y-2877500D01*
X660000Y-660000D01*
X27340000Y-660000D01*
X27340001Y-44340000D01*
%TA.AperFunction,Conductor*%
D17*
G36*
X27340001Y-44340000D02*
G01*
X660000Y-44340000D01*
X660000Y-39941500D01*
X4579933Y-39941500D01*
X4599916Y-40144395D01*
X4659099Y-40339493D01*
X4744681Y-40499606D01*
X4723109Y-40525892D01*
X4645662Y-40670784D01*
X4597971Y-40828000D01*
X4581868Y-40991500D01*
X4581868Y-41391500D01*
X4597971Y-41555000D01*
X4645662Y-41712216D01*
X4723109Y-41857108D01*
X4827334Y-41984106D01*
X4954332Y-42088331D01*
X5099224Y-42165778D01*
X5256440Y-42213469D01*
X5419940Y-42229572D01*
X6319940Y-42229572D01*
X6483440Y-42213469D01*
X6640656Y-42165778D01*
X6785548Y-42088331D01*
X6912546Y-41984106D01*
X7016771Y-41857108D01*
X7094218Y-41712216D01*
X7141909Y-41555000D01*
X7158012Y-41391500D01*
X7158012Y-40991500D01*
X7141909Y-40828000D01*
X7094218Y-40670784D01*
X7016771Y-40525892D01*
X6995199Y-40499606D01*
X7080781Y-40339493D01*
X7139964Y-40144395D01*
X7159947Y-39941500D01*
X7139964Y-39738605D01*
X7080781Y-39543507D01*
X6984674Y-39363703D01*
X6855336Y-39206104D01*
X6697737Y-39076766D01*
X6517933Y-38980659D01*
X6322835Y-38921476D01*
X6170778Y-38906500D01*
X5569102Y-38906500D01*
X5417045Y-38921476D01*
X5221947Y-38980659D01*
X5042143Y-39076766D01*
X4884544Y-39206104D01*
X4755206Y-39363703D01*
X4659099Y-39543507D01*
X4599916Y-39738605D01*
X4579933Y-39941500D01*
X660000Y-39941500D01*
X660000Y-38529872D01*
X11765000Y-38529872D01*
X11765000Y-38970128D01*
X11850890Y-39401925D01*
X12019369Y-39808669D01*
X12263962Y-40174729D01*
X12575271Y-40486038D01*
X12941331Y-40730631D01*
X13348075Y-40899110D01*
X13779872Y-40985000D01*
X14220128Y-40985000D01*
X14651925Y-40899110D01*
X15058669Y-40730631D01*
X15424729Y-40486038D01*
X15736038Y-40174729D01*
X15980631Y-39808669D01*
X16149110Y-39401925D01*
X16235000Y-38970128D01*
X16235000Y-38529872D01*
X16149110Y-38098075D01*
X15980631Y-37691331D01*
X15736038Y-37325271D01*
X15424729Y-37013962D01*
X15058669Y-36769369D01*
X14651925Y-36600890D01*
X14220128Y-36515000D01*
X13779872Y-36515000D01*
X13348075Y-36600890D01*
X12941331Y-36769369D01*
X12575271Y-37013962D01*
X12263962Y-37325271D01*
X12019369Y-37691331D01*
X11850890Y-38098075D01*
X11765000Y-38529872D01*
X660000Y-38529872D01*
X660000Y-32791061D01*
X679500Y-32791061D01*
X679500Y-32994939D01*
X719274Y-33194898D01*
X797295Y-33383256D01*
X910563Y-33552774D01*
X1054726Y-33696937D01*
X1224244Y-33810205D01*
X1412602Y-33888226D01*
X1612561Y-33928000D01*
X1816439Y-33928000D01*
X2016398Y-33888226D01*
X2050500Y-33874100D01*
X22831768Y-33874100D01*
X22831768Y-34274100D01*
X22847871Y-34437600D01*
X22895562Y-34594816D01*
X22973009Y-34739708D01*
X23077234Y-34866706D01*
X23204232Y-34970931D01*
X23349124Y-35048378D01*
X23506340Y-35096069D01*
X23669840Y-35112172D01*
X24569840Y-35112172D01*
X24733340Y-35096069D01*
X24890556Y-35048378D01*
X25035448Y-34970931D01*
X25162446Y-34866706D01*
X25266671Y-34739708D01*
X25344118Y-34594816D01*
X25391809Y-34437600D01*
X25407912Y-34274100D01*
X25407912Y-33874100D01*
X25391809Y-33710600D01*
X25344118Y-33553384D01*
X25266671Y-33408492D01*
X25251589Y-33390115D01*
X25265095Y-33372260D01*
X25354834Y-33187072D01*
X25364506Y-33110223D01*
X25236838Y-32951100D01*
X24246840Y-32951100D01*
X24246840Y-32971100D01*
X23992840Y-32971100D01*
X23992840Y-32951100D01*
X23002842Y-32951100D01*
X22875174Y-33110223D01*
X22884846Y-33187072D01*
X22974585Y-33372260D01*
X22988091Y-33390115D01*
X22973009Y-33408492D01*
X22895562Y-33553384D01*
X22847871Y-33710600D01*
X22831768Y-33874100D01*
X2050500Y-33874100D01*
X2204756Y-33810205D01*
X2374274Y-33696937D01*
X2518437Y-33552774D01*
X2631705Y-33383256D01*
X2709726Y-33194898D01*
X2749500Y-32994939D01*
X2749500Y-32791061D01*
X2709726Y-32591102D01*
X2687721Y-32537977D01*
X22875174Y-32537977D01*
X23002842Y-32697100D01*
X23992840Y-32697100D01*
X23992840Y-31940338D01*
X24246840Y-31940338D01*
X24246840Y-32697100D01*
X25236838Y-32697100D01*
X25364506Y-32537977D01*
X25354834Y-32461128D01*
X25265095Y-32275940D01*
X25140952Y-32111817D01*
X24987176Y-31975067D01*
X24809676Y-31870945D01*
X24615273Y-31803452D01*
X24411439Y-31775182D01*
X24246840Y-31940338D01*
X23992840Y-31940338D01*
X23828241Y-31775182D01*
X23624407Y-31803452D01*
X23430004Y-31870945D01*
X23252504Y-31975067D01*
X23098728Y-32111817D01*
X22974585Y-32275940D01*
X22884846Y-32461128D01*
X22875174Y-32537977D01*
X2687721Y-32537977D01*
X2631705Y-32402744D01*
X2599500Y-32354546D01*
X2599500Y-30224278D01*
X8074529Y-24749249D01*
X9542556Y-24749249D01*
X9611110Y-24990668D01*
X9862356Y-25109068D01*
X10131871Y-25176178D01*
X10409302Y-25189418D01*
X10683984Y-25148279D01*
X10945362Y-25054343D01*
X11064490Y-24990668D01*
X11133044Y-24749249D01*
X10337800Y-23954005D01*
X9542556Y-24749249D01*
X8074529Y-24749249D01*
X8929959Y-23893820D01*
X8963921Y-24120584D01*
X9057857Y-24381962D01*
X9121532Y-24501090D01*
X9362951Y-24569644D01*
X10158195Y-23774400D01*
X10517405Y-23774400D01*
X11312649Y-24569644D01*
X11554068Y-24501090D01*
X11672468Y-24249844D01*
X11739578Y-23980329D01*
X11752818Y-23702898D01*
X11711679Y-23428216D01*
X11617743Y-23166838D01*
X11554068Y-23047710D01*
X11312649Y-22979156D01*
X10517405Y-23774400D01*
X10158195Y-23774400D01*
X10144053Y-23760258D01*
X10323658Y-23580653D01*
X10337800Y-23594795D01*
X11133044Y-22799551D01*
X11064490Y-22558132D01*
X10953176Y-22505675D01*
X11005685Y-22483925D01*
X11236622Y-22329618D01*
X11433018Y-22133222D01*
X11587325Y-21902285D01*
X11693614Y-21645682D01*
X11747800Y-21373273D01*
X11747800Y-21305902D01*
X16212582Y-21305902D01*
X16253721Y-21580584D01*
X16347657Y-21841962D01*
X16411332Y-21961090D01*
X16652751Y-22029644D01*
X17447995Y-21234400D01*
X16652751Y-20439156D01*
X16411332Y-20507710D01*
X16292932Y-20758956D01*
X16225822Y-21028471D01*
X16212582Y-21305902D01*
X11747800Y-21305902D01*
X11747800Y-21095527D01*
X11693614Y-20823118D01*
X11587325Y-20566515D01*
X11433018Y-20335578D01*
X11236622Y-20139182D01*
X11005685Y-19984875D01*
X10749082Y-19878586D01*
X10476673Y-19824400D01*
X10198927Y-19824400D01*
X9926518Y-19878586D01*
X9669915Y-19984875D01*
X9438978Y-20139182D01*
X9242582Y-20335578D01*
X9088275Y-20566515D01*
X8981986Y-20823118D01*
X8927800Y-21095527D01*
X8927800Y-21373273D01*
X8931043Y-21389578D01*
X1119452Y-29201170D01*
X1085684Y-29228883D01*
X1057971Y-29262651D01*
X1057968Y-29262654D01*
X975090Y-29363641D01*
X892912Y-29517387D01*
X842305Y-29684210D01*
X825219Y-29857700D01*
X829501Y-29901179D01*
X829500Y-32354545D01*
X797295Y-32402744D01*
X719274Y-32591102D01*
X679500Y-32791061D01*
X660000Y-32791061D01*
X660000Y-17338967D01*
X12365000Y-17338967D01*
X12365000Y-17661033D01*
X12427832Y-17976912D01*
X12551082Y-18274463D01*
X12730013Y-18542252D01*
X12957748Y-18769987D01*
X13225537Y-18948918D01*
X13523088Y-19072168D01*
X13838967Y-19135000D01*
X14161033Y-19135000D01*
X14476912Y-19072168D01*
X14774463Y-18948918D01*
X15042252Y-18769987D01*
X15269987Y-18542252D01*
X15448918Y-18274463D01*
X15572168Y-17976912D01*
X15635000Y-17661033D01*
X15635000Y-17338967D01*
X15572168Y-17023088D01*
X15448918Y-16725537D01*
X15269987Y-16457748D01*
X15042252Y-16230013D01*
X14774463Y-16051082D01*
X14476912Y-15927832D01*
X14161033Y-15865000D01*
X13838967Y-15865000D01*
X13523088Y-15927832D01*
X13225537Y-16051082D01*
X12957748Y-16230013D01*
X12730013Y-16457748D01*
X12551082Y-16725537D01*
X12427832Y-17023088D01*
X12365000Y-17338967D01*
X660000Y-17338967D01*
X660000Y-12237720D01*
X665793Y-12237720D01*
X685776Y-12440615D01*
X744959Y-12635713D01*
X830541Y-12795826D01*
X808969Y-12822112D01*
X731522Y-12967004D01*
X683831Y-13124220D01*
X667728Y-13287720D01*
X667728Y-13687720D01*
X683831Y-13851220D01*
X731522Y-14008436D01*
X808969Y-14153328D01*
X913194Y-14280326D01*
X1040192Y-14384551D01*
X1185084Y-14461998D01*
X1342300Y-14509689D01*
X1505800Y-14525792D01*
X2405800Y-14525792D01*
X2569300Y-14509689D01*
X2726516Y-14461998D01*
X2871408Y-14384551D01*
X2998406Y-14280326D01*
X3045682Y-14222720D01*
X5387118Y-14222720D01*
X5434394Y-14280326D01*
X5561392Y-14384551D01*
X5706284Y-14461998D01*
X5863500Y-14509689D01*
X6027000Y-14525792D01*
X6927000Y-14525792D01*
X7090500Y-14509689D01*
X7247716Y-14461998D01*
X7392608Y-14384551D01*
X7519606Y-14280326D01*
X7623831Y-14153328D01*
X7701278Y-14008436D01*
X7748969Y-13851220D01*
X7765072Y-13687720D01*
X7765072Y-13287720D01*
X7748969Y-13124220D01*
X7701278Y-12967004D01*
X7623831Y-12822112D01*
X7602259Y-12795826D01*
X7687841Y-12635713D01*
X7747024Y-12440615D01*
X7767007Y-12237720D01*
X7747024Y-12034825D01*
X7702827Y-11889129D01*
X8857967Y-13044270D01*
X8857968Y-14789501D01*
X8814030Y-14833439D01*
X8700762Y-15002957D01*
X8622741Y-15191315D01*
X8582967Y-15391274D01*
X8582967Y-15595152D01*
X8622741Y-15795111D01*
X8700762Y-15983469D01*
X8814030Y-16152987D01*
X8958193Y-16297150D01*
X9127711Y-16410418D01*
X9316069Y-16488439D01*
X9516028Y-16528213D01*
X9719906Y-16528213D01*
X9919865Y-16488439D01*
X10108223Y-16410418D01*
X10277741Y-16297150D01*
X10421904Y-16152987D01*
X10535172Y-15983469D01*
X10613193Y-15795111D01*
X10652967Y-15595152D01*
X10652967Y-15391274D01*
X10613193Y-15191315D01*
X10535172Y-15002957D01*
X10421904Y-14833439D01*
X10377967Y-14789502D01*
X10377967Y-12766789D01*
X10381643Y-12729466D01*
X10377967Y-12692143D01*
X10377967Y-12692134D01*
X10366970Y-12580481D01*
X10323513Y-12437220D01*
X10252941Y-12305191D01*
X10213802Y-12257500D01*
X10181766Y-12218463D01*
X10181762Y-12218459D01*
X10157968Y-12189466D01*
X10128976Y-12165673D01*
X8502302Y-10539000D01*
X12825789Y-10539000D01*
X12785063Y-10579726D01*
X12671795Y-10749244D01*
X12593774Y-10937602D01*
X12554000Y-11137561D01*
X12554000Y-11341439D01*
X12593774Y-11541398D01*
X12671795Y-11729756D01*
X12785063Y-11899274D01*
X12829000Y-11943211D01*
X12829001Y-13053172D01*
X12825324Y-13090504D01*
X12829001Y-13127837D01*
X12831553Y-13153742D01*
X12839998Y-13239489D01*
X12883454Y-13382750D01*
X12954026Y-13514780D01*
X12989087Y-13557501D01*
X13049000Y-13630505D01*
X13077998Y-13654303D01*
X17892601Y-18468907D01*
X17892601Y-19847331D01*
X17833529Y-19832622D01*
X17556098Y-19819382D01*
X17281416Y-19860521D01*
X17020038Y-19954457D01*
X16900910Y-20018132D01*
X16832356Y-20259551D01*
X17627600Y-21054795D01*
X17641743Y-21040653D01*
X17821348Y-21220258D01*
X17807205Y-21234400D01*
X17821348Y-21248543D01*
X17641743Y-21428148D01*
X17627600Y-21414005D01*
X16832356Y-22209249D01*
X16900910Y-22450668D01*
X17012224Y-22503125D01*
X16959715Y-22524875D01*
X16728778Y-22679182D01*
X16532382Y-22875578D01*
X16378075Y-23106515D01*
X16271786Y-23363118D01*
X16217600Y-23635527D01*
X16217600Y-23913273D01*
X16271786Y-24185682D01*
X16378075Y-24442285D01*
X16532382Y-24673222D01*
X16728778Y-24869618D01*
X16959715Y-25023925D01*
X17216318Y-25130214D01*
X17488727Y-25184400D01*
X17766473Y-25184400D01*
X17892602Y-25159311D01*
X17892602Y-25419095D01*
X15631110Y-27680588D01*
X15635000Y-27661033D01*
X15635000Y-27338967D01*
X15572168Y-27023088D01*
X15448918Y-26725537D01*
X15269987Y-26457748D01*
X15042252Y-26230013D01*
X14774463Y-26051082D01*
X14476912Y-25927832D01*
X14161033Y-25865000D01*
X13838967Y-25865000D01*
X13523088Y-25927832D01*
X13225537Y-26051082D01*
X12957748Y-26230013D01*
X12730013Y-26457748D01*
X12551082Y-26725537D01*
X12427832Y-27023088D01*
X12365000Y-27338967D01*
X12365000Y-27661033D01*
X12427832Y-27976912D01*
X12551082Y-28274463D01*
X12730013Y-28542252D01*
X12957748Y-28769987D01*
X13225537Y-28948918D01*
X13523088Y-29072168D01*
X13836483Y-29134506D01*
X13691226Y-29231563D01*
X13547063Y-29375726D01*
X13433795Y-29545244D01*
X13355774Y-29733602D01*
X13316000Y-29933561D01*
X13316000Y-30137439D01*
X13355774Y-30337398D01*
X13433795Y-30525756D01*
X13547063Y-30695274D01*
X13691226Y-30839437D01*
X13860744Y-30952705D01*
X14049102Y-31030726D01*
X14249061Y-31070500D01*
X14452939Y-31070500D01*
X14652898Y-31030726D01*
X14841256Y-30952705D01*
X15010774Y-30839437D01*
X15154937Y-30695274D01*
X15268205Y-30525756D01*
X15346226Y-30337398D01*
X15386000Y-30137439D01*
X15386000Y-30075301D01*
X17788601Y-27672701D01*
X17800774Y-27733898D01*
X17878795Y-27922256D01*
X17992063Y-28091774D01*
X18136226Y-28235937D01*
X18305744Y-28349205D01*
X18494102Y-28427226D01*
X18694061Y-28467000D01*
X18897939Y-28467000D01*
X19097898Y-28427226D01*
X19286256Y-28349205D01*
X19455774Y-28235937D01*
X19599937Y-28091774D01*
X19713205Y-27922256D01*
X19791226Y-27733898D01*
X19831000Y-27533939D01*
X19831000Y-27456226D01*
X19901545Y-27324248D01*
X19945002Y-27180987D01*
X19955999Y-27069334D01*
X19955999Y-27069324D01*
X19959675Y-27032002D01*
X19955999Y-26994679D01*
X19955999Y-21315977D01*
X20153429Y-21315977D01*
X20353388Y-21276203D01*
X20541746Y-21198182D01*
X20711264Y-21084914D01*
X20855427Y-20940751D01*
X20968695Y-20771233D01*
X21046716Y-20582875D01*
X21086490Y-20382916D01*
X21086490Y-20320779D01*
X21275508Y-20131762D01*
X21304501Y-20107968D01*
X21328295Y-20078975D01*
X21328299Y-20078971D01*
X21399473Y-19992244D01*
X21419671Y-19954457D01*
X21470046Y-19860214D01*
X21513503Y-19716953D01*
X21524500Y-19605300D01*
X21524500Y-19605291D01*
X21528176Y-19567968D01*
X21524500Y-19530645D01*
X21524500Y-15955899D01*
X21716408Y-15917726D01*
X21904766Y-15839705D01*
X22074284Y-15726437D01*
X22218447Y-15582274D01*
X22331715Y-15412756D01*
X22409736Y-15224398D01*
X22449510Y-15024439D01*
X22449510Y-14926946D01*
X25449693Y-11926764D01*
X25477738Y-11903748D01*
X25569587Y-11791830D01*
X25637837Y-11664143D01*
X25679865Y-11525595D01*
X25690500Y-11417615D01*
X25694056Y-11381511D01*
X25690500Y-11345406D01*
X25690500Y-8859112D01*
X25726216Y-8848278D01*
X25871108Y-8770831D01*
X25998106Y-8666606D01*
X26102331Y-8539608D01*
X26179778Y-8394716D01*
X26227469Y-8237500D01*
X26243572Y-8074000D01*
X26243572Y-7674000D01*
X26227469Y-7510500D01*
X26179778Y-7353284D01*
X26102331Y-7208392D01*
X26080759Y-7182106D01*
X26166341Y-7021993D01*
X26225524Y-6826895D01*
X26245507Y-6624000D01*
X26225524Y-6421105D01*
X26166341Y-6226007D01*
X26070234Y-6046203D01*
X26031496Y-5999000D01*
X26070234Y-5951797D01*
X26166341Y-5771993D01*
X26225524Y-5576895D01*
X26245507Y-5374000D01*
X26225524Y-5171105D01*
X26166341Y-4976007D01*
X26070234Y-4796203D01*
X26031496Y-4749000D01*
X26070234Y-4701797D01*
X26166341Y-4521993D01*
X26225524Y-4326895D01*
X26245507Y-4124000D01*
X26225524Y-3921105D01*
X26166341Y-3726007D01*
X26070234Y-3546203D01*
X26037291Y-3506062D01*
X26100755Y-3422160D01*
X26190494Y-3236972D01*
X26200166Y-3160123D01*
X26072498Y-3001000D01*
X25082500Y-3001000D01*
X25082500Y-3021000D01*
X24828500Y-3021000D01*
X24828500Y-3001000D01*
X23838502Y-3001000D01*
X23710834Y-3160123D01*
X23720506Y-3236972D01*
X23810245Y-3422160D01*
X23873709Y-3506062D01*
X23840766Y-3546203D01*
X23744659Y-3726007D01*
X23685476Y-3921105D01*
X23665493Y-4124000D01*
X23685476Y-4326895D01*
X23744659Y-4521993D01*
X23840766Y-4701797D01*
X23879504Y-4749000D01*
X23840766Y-4796203D01*
X23744659Y-4976007D01*
X23685476Y-5171105D01*
X23665493Y-5374000D01*
X23685476Y-5576895D01*
X23744659Y-5771993D01*
X23840766Y-5951797D01*
X23879504Y-5999000D01*
X23840766Y-6046203D01*
X23744659Y-6226007D01*
X23685476Y-6421105D01*
X23665493Y-6624000D01*
X23685476Y-6826895D01*
X23744659Y-7021993D01*
X23830241Y-7182106D01*
X23808669Y-7208392D01*
X23731222Y-7353284D01*
X23683531Y-7510500D01*
X23667428Y-7674000D01*
X23667428Y-8074000D01*
X23683531Y-8237500D01*
X23731222Y-8394716D01*
X23808669Y-8539608D01*
X23912894Y-8666606D01*
X24039892Y-8770831D01*
X24184784Y-8848278D01*
X24220500Y-8859112D01*
X24220501Y-11077062D01*
X21524500Y-13773064D01*
X21524500Y-13657711D01*
X21568437Y-13613774D01*
X21681705Y-13444256D01*
X21759726Y-13255898D01*
X21799500Y-13055939D01*
X21799500Y-12852061D01*
X21759726Y-12652102D01*
X21681705Y-12463744D01*
X21568437Y-12294226D01*
X21424274Y-12150063D01*
X21254756Y-12036795D01*
X21066398Y-11958774D01*
X20866439Y-11919000D01*
X20662561Y-11919000D01*
X20462602Y-11958774D01*
X20274244Y-12036795D01*
X20104726Y-12150063D01*
X19960563Y-12294226D01*
X19847295Y-12463744D01*
X19769274Y-12652102D01*
X19729500Y-12852061D01*
X19729500Y-13055939D01*
X19769274Y-13255898D01*
X19847295Y-13444256D01*
X19960563Y-13613774D01*
X20004500Y-13657711D01*
X20004501Y-19245977D01*
X19955999Y-19245977D01*
X19955999Y-17709332D01*
X19959676Y-17671999D01*
X19945002Y-17523013D01*
X19901545Y-17379752D01*
X19830973Y-17247723D01*
X19759798Y-17160996D01*
X19736000Y-17131998D01*
X19707002Y-17108200D01*
X15512662Y-12913861D01*
X15473226Y-12715602D01*
X15395205Y-12527244D01*
X15281937Y-12357726D01*
X15137774Y-12213563D01*
X14968256Y-12100295D01*
X14779898Y-12022274D01*
X14579939Y-11982500D01*
X14376061Y-11982500D01*
X14349000Y-11987883D01*
X14349000Y-11943211D01*
X14392937Y-11899274D01*
X14506205Y-11729756D01*
X14584226Y-11541398D01*
X14624000Y-11341439D01*
X14624000Y-11137561D01*
X14584226Y-10937602D01*
X14506205Y-10749244D01*
X14392937Y-10579726D01*
X14352211Y-10539000D01*
X20060789Y-10539000D01*
X20104726Y-10582937D01*
X20274244Y-10696205D01*
X20462602Y-10774226D01*
X20662561Y-10814000D01*
X20866439Y-10814000D01*
X21066398Y-10774226D01*
X21254756Y-10696205D01*
X21424274Y-10582937D01*
X21568437Y-10438774D01*
X21681705Y-10269256D01*
X21759726Y-10080898D01*
X21799500Y-9880939D01*
X21799500Y-9677061D01*
X21759726Y-9477102D01*
X21681705Y-9288744D01*
X21568437Y-9119226D01*
X21424274Y-8975063D01*
X21254756Y-8861795D01*
X21066398Y-8783774D01*
X20866439Y-8744000D01*
X20662561Y-8744000D01*
X20462602Y-8783774D01*
X20274244Y-8861795D01*
X20104726Y-8975063D01*
X20060789Y-9019000D01*
X7371211Y-9019000D01*
X7327274Y-8975063D01*
X7157756Y-8861795D01*
X6969398Y-8783774D01*
X6769439Y-8744000D01*
X6565561Y-8744000D01*
X6365602Y-8783774D01*
X6177244Y-8861795D01*
X6007726Y-8975063D01*
X5863563Y-9119226D01*
X5750295Y-9288744D01*
X5672274Y-9477102D01*
X5632500Y-9677061D01*
X5632500Y-9880939D01*
X5672274Y-10080898D01*
X5750295Y-10269256D01*
X5863563Y-10438774D01*
X6007726Y-10582937D01*
X6177244Y-10696205D01*
X6365602Y-10774226D01*
X6565561Y-10814000D01*
X6627699Y-10814000D01*
X7075591Y-11261893D01*
X6929895Y-11217696D01*
X6777838Y-11202720D01*
X6176162Y-11202720D01*
X6024105Y-11217696D01*
X5829007Y-11276879D01*
X5649203Y-11372986D01*
X5491604Y-11502324D01*
X5491279Y-11502720D01*
X2941521Y-11502720D01*
X2941196Y-11502324D01*
X2783597Y-11372986D01*
X2603793Y-11276879D01*
X2408695Y-11217696D01*
X2256638Y-11202720D01*
X1654962Y-11202720D01*
X1502905Y-11217696D01*
X1307807Y-11276879D01*
X1128003Y-11372986D01*
X970404Y-11502324D01*
X841066Y-11659923D01*
X744959Y-11839727D01*
X685776Y-12034825D01*
X665793Y-12237720D01*
X660000Y-12237720D01*
X660000Y-6029872D01*
X11765000Y-6029872D01*
X11765000Y-6470128D01*
X11850890Y-6901925D01*
X12019369Y-7308669D01*
X12263962Y-7674729D01*
X12575271Y-7986038D01*
X12941331Y-8230631D01*
X13348075Y-8399110D01*
X13779872Y-8485000D01*
X14220128Y-8485000D01*
X14651925Y-8399110D01*
X15058669Y-8230631D01*
X15424729Y-7986038D01*
X15736038Y-7674729D01*
X15980631Y-7308669D01*
X16149110Y-6901925D01*
X16235000Y-6470128D01*
X16235000Y-6029872D01*
X16149110Y-5598075D01*
X15980631Y-5191331D01*
X15736038Y-4825271D01*
X15424729Y-4513962D01*
X15058669Y-4269369D01*
X14651925Y-4100890D01*
X14220128Y-4015000D01*
X13779872Y-4015000D01*
X13348075Y-4100890D01*
X12941331Y-4269369D01*
X12575271Y-4513962D01*
X12263962Y-4825271D01*
X12019369Y-5191331D01*
X11850890Y-5598075D01*
X11765000Y-6029872D01*
X660000Y-6029872D01*
X660000Y-2877500D01*
X19385593Y-2877500D01*
X19405576Y-3080395D01*
X19464759Y-3275493D01*
X19550341Y-3435606D01*
X19528769Y-3461892D01*
X19451322Y-3606784D01*
X19403631Y-3764000D01*
X19387528Y-3927500D01*
X19387528Y-4327500D01*
X19403631Y-4491000D01*
X19451322Y-4648216D01*
X19528769Y-4793108D01*
X19632994Y-4920106D01*
X19759992Y-5024331D01*
X19904884Y-5101778D01*
X20062100Y-5149469D01*
X20225600Y-5165572D01*
X21125600Y-5165572D01*
X21289100Y-5149469D01*
X21446316Y-5101778D01*
X21591208Y-5024331D01*
X21718206Y-4920106D01*
X21822431Y-4793108D01*
X21899878Y-4648216D01*
X21947569Y-4491000D01*
X21963672Y-4327500D01*
X21963672Y-3927500D01*
X21947569Y-3764000D01*
X21899878Y-3606784D01*
X21822431Y-3461892D01*
X21800859Y-3435606D01*
X21886441Y-3275493D01*
X21945624Y-3080395D01*
X21965607Y-2877500D01*
X21945624Y-2674605D01*
X21919316Y-2587877D01*
X23710834Y-2587877D01*
X23838502Y-2747000D01*
X24828500Y-2747000D01*
X24828500Y-1990238D01*
X25082500Y-1990238D01*
X25082500Y-2747000D01*
X26072498Y-2747000D01*
X26200166Y-2587877D01*
X26190494Y-2511028D01*
X26100755Y-2325840D01*
X25976612Y-2161717D01*
X25822836Y-2024967D01*
X25645336Y-1920845D01*
X25450933Y-1853352D01*
X25247099Y-1825082D01*
X25082500Y-1990238D01*
X24828500Y-1990238D01*
X24663901Y-1825082D01*
X24460067Y-1853352D01*
X24265664Y-1920845D01*
X24088164Y-2024967D01*
X23934388Y-2161717D01*
X23810245Y-2325840D01*
X23720506Y-2511028D01*
X23710834Y-2587877D01*
X21919316Y-2587877D01*
X21886441Y-2479507D01*
X21790334Y-2299703D01*
X21660996Y-2142104D01*
X21503397Y-2012766D01*
X21323593Y-1916659D01*
X21128495Y-1857476D01*
X20976438Y-1842500D01*
X20374762Y-1842500D01*
X20222705Y-1857476D01*
X20027607Y-1916659D01*
X19847803Y-2012766D01*
X19690204Y-2142104D01*
X19560866Y-2299703D01*
X19464759Y-2479507D01*
X19405576Y-2674605D01*
X19385593Y-2877500D01*
X660000Y-2877500D01*
X660000Y-660000D01*
X27340000Y-660000D01*
X27340001Y-44340000D01*
G37*
%TD.AperFunction*%
%TD*%
M02*
