%TF.GenerationSoftware,KiCad,Pcbnew,(5.1.9)-1*%
%TF.CreationDate,2021-05-21T15:12:25+01:00*%
%TF.ProjectId,NosepokeV1.0,4e6f7365-706f-46b6-9556-312e302e6b69,rev?*%
%TF.SameCoordinates,Original*%
%TF.FileFunction,Copper,L1,Top*%
%TF.FilePolarity,Positive*%
%FSLAX46Y46*%
G04 Gerber Fmt 4.6, Leading zero omitted, Abs format (unit mm)*
G04 Created by KiCad (PCBNEW (5.1.9)-1) date 2021-05-21 15:12:25*
%MOMM*%
%LPD*%
G01*
G04 APERTURE LIST*
%TA.AperFunction,SMDPad,CuDef*%
%ADD10R,0.650000X1.060000*%
%TD*%
%TA.AperFunction,SMDPad,CuDef*%
%ADD11R,0.800000X0.900000*%
%TD*%
%TA.AperFunction,SMDPad,CuDef*%
%ADD12R,2.000000X1.100000*%
%TD*%
%TA.AperFunction,ComponentPad*%
%ADD13O,1.300000X0.800000*%
%TD*%
%TA.AperFunction,ComponentPad*%
%ADD14C,1.550000*%
%TD*%
%TA.AperFunction,SMDPad,CuDef*%
%ADD15R,0.508000X1.016000*%
%TD*%
%TA.AperFunction,ViaPad*%
%ADD16C,0.800000*%
%TD*%
%TA.AperFunction,Conductor*%
%ADD17C,0.250000*%
%TD*%
%TA.AperFunction,Conductor*%
%ADD18C,0.125000*%
%TD*%
%TA.AperFunction,Conductor*%
%ADD19C,0.500000*%
%TD*%
%TA.AperFunction,Conductor*%
%ADD20C,0.200000*%
%TD*%
%TA.AperFunction,Conductor*%
%ADD21C,0.254000*%
%TD*%
%TA.AperFunction,Conductor*%
%ADD22C,0.100000*%
%TD*%
G04 APERTURE END LIST*
%TO.P,R6,2*%
%TO.N,Sig_A*%
%TA.AperFunction,SMDPad,CuDef*%
G36*
G01*
X21101500Y-16489000D02*
X21101500Y-17039000D01*
G75*
G02*
X20901500Y-17239000I-200000J0D01*
G01*
X20501500Y-17239000D01*
G75*
G02*
X20301500Y-17039000I0J200000D01*
G01*
X20301500Y-16489000D01*
G75*
G02*
X20501500Y-16289000I200000J0D01*
G01*
X20901500Y-16289000D01*
G75*
G02*
X21101500Y-16489000I0J-200000D01*
G01*
G37*
%TD.AperFunction*%
%TO.P,R6,1*%
%TO.N,+5V*%
%TA.AperFunction,SMDPad,CuDef*%
G36*
G01*
X22751500Y-16489000D02*
X22751500Y-17039000D01*
G75*
G02*
X22551500Y-17239000I-200000J0D01*
G01*
X22151500Y-17239000D01*
G75*
G02*
X21951500Y-17039000I0J200000D01*
G01*
X21951500Y-16489000D01*
G75*
G02*
X22151500Y-16289000I200000J0D01*
G01*
X22551500Y-16289000D01*
G75*
G02*
X22751500Y-16489000I0J-200000D01*
G01*
G37*
%TD.AperFunction*%
%TD*%
D10*
%TO.P,U2,5*%
%TO.N,+2V8*%
X4701500Y-33380500D03*
%TO.P,U2,4*%
%TO.N,Net-(U2-Pad4)*%
X6601500Y-33380500D03*
%TO.P,U2,3*%
%TO.N,+5V*%
X6601500Y-35580500D03*
%TO.P,U2,2*%
%TO.N,GND*%
X5651500Y-35580500D03*
%TO.P,U2,1*%
%TO.N,+5V*%
X4701500Y-35580500D03*
%TD*%
D11*
%TO.P,Q1,1*%
%TO.N,+2V8*%
X1844000Y-4878580D03*
%TO.P,Q1,2*%
%TO.N,SCL_LV*%
X3744000Y-4878580D03*
%TO.P,Q1,3*%
%TO.N,SCL*%
X2794000Y-2878580D03*
%TD*%
%TO.P,Q2,1*%
%TO.N,+2V8*%
X5831800Y-4878580D03*
%TO.P,Q2,2*%
%TO.N,SDA_LV*%
X7731800Y-4878580D03*
%TO.P,Q2,3*%
%TO.N,SDA*%
X6781800Y-2878580D03*
%TD*%
D12*
%TO.P,D2,6*%
%TO.N,DO*%
X16400000Y-11300000D03*
%TO.P,D2,5*%
%TO.N,CO*%
X16400000Y-13000000D03*
%TO.P,D2,4*%
%TO.N,+5V*%
X16400000Y-14700000D03*
%TO.P,D2,3*%
%TO.N,GND*%
X11600000Y-14700000D03*
%TO.P,D2,2*%
%TO.N,Net-(D1-Pad5)*%
X11600000Y-13000000D03*
%TO.P,D2,1*%
%TO.N,Net-(D1-Pad6)*%
X11600000Y-11300000D03*
%TD*%
%TO.P,D1,6*%
%TO.N,Net-(D1-Pad6)*%
X16400000Y-30300000D03*
%TO.P,D1,5*%
%TO.N,Net-(D1-Pad5)*%
X16400000Y-32000000D03*
%TO.P,D1,4*%
%TO.N,+5V*%
X16400000Y-33700000D03*
%TO.P,D1,3*%
%TO.N,GND*%
X11600000Y-33700000D03*
%TO.P,D1,2*%
%TO.N,CI*%
X11600000Y-32000000D03*
%TO.P,D1,1*%
%TO.N,DI*%
X11600000Y-30300000D03*
%TD*%
D13*
%TO.P,J8,5*%
%TO.N,GND*%
X24955500Y-2874000D03*
%TO.P,J8,4*%
%TO.N,+5V*%
X24955500Y-4124000D03*
%TO.P,J8,3*%
%TO.N,GPIO1*%
X24955500Y-5374000D03*
%TO.P,J8,2*%
%TO.N,GPIO0*%
X24955500Y-6624000D03*
%TO.P,J8,1*%
%TO.N,Sig_A*%
%TA.AperFunction,ComponentPad*%
G36*
G01*
X25405500Y-8274000D02*
X24505500Y-8274000D01*
G75*
G02*
X24305500Y-8074000I0J200000D01*
G01*
X24305500Y-7674000D01*
G75*
G02*
X24505500Y-7474000I200000J0D01*
G01*
X25405500Y-7474000D01*
G75*
G02*
X25605500Y-7674000I0J-200000D01*
G01*
X25605500Y-8074000D01*
G75*
G02*
X25405500Y-8274000I-200000J0D01*
G01*
G37*
%TD.AperFunction*%
%TD*%
%TO.P,R5,2*%
%TO.N,Net-(R5-Pad2)*%
%TA.AperFunction,SMDPad,CuDef*%
G36*
G01*
X22498500Y-12298000D02*
X22498500Y-12848000D01*
G75*
G02*
X22298500Y-13048000I-200000J0D01*
G01*
X21898500Y-13048000D01*
G75*
G02*
X21698500Y-12848000I0J200000D01*
G01*
X21698500Y-12298000D01*
G75*
G02*
X21898500Y-12098000I200000J0D01*
G01*
X22298500Y-12098000D01*
G75*
G02*
X22498500Y-12298000I0J-200000D01*
G01*
G37*
%TD.AperFunction*%
%TO.P,R5,1*%
%TO.N,GPIO1*%
%TA.AperFunction,SMDPad,CuDef*%
G36*
G01*
X24148500Y-12298000D02*
X24148500Y-12848000D01*
G75*
G02*
X23948500Y-13048000I-200000J0D01*
G01*
X23548500Y-13048000D01*
G75*
G02*
X23348500Y-12848000I0J200000D01*
G01*
X23348500Y-12298000D01*
G75*
G02*
X23548500Y-12098000I200000J0D01*
G01*
X23948500Y-12098000D01*
G75*
G02*
X24148500Y-12298000I0J-200000D01*
G01*
G37*
%TD.AperFunction*%
%TD*%
%TO.P,R4,2*%
%TO.N,Net-(R4-Pad2)*%
%TA.AperFunction,SMDPad,CuDef*%
G36*
G01*
X22498500Y-10647000D02*
X22498500Y-11197000D01*
G75*
G02*
X22298500Y-11397000I-200000J0D01*
G01*
X21898500Y-11397000D01*
G75*
G02*
X21698500Y-11197000I0J200000D01*
G01*
X21698500Y-10647000D01*
G75*
G02*
X21898500Y-10447000I200000J0D01*
G01*
X22298500Y-10447000D01*
G75*
G02*
X22498500Y-10647000I0J-200000D01*
G01*
G37*
%TD.AperFunction*%
%TO.P,R4,1*%
%TO.N,GPIO0*%
%TA.AperFunction,SMDPad,CuDef*%
G36*
G01*
X24148500Y-10647000D02*
X24148500Y-11197000D01*
G75*
G02*
X23948500Y-11397000I-200000J0D01*
G01*
X23548500Y-11397000D01*
G75*
G02*
X23348500Y-11197000I0J200000D01*
G01*
X23348500Y-10647000D01*
G75*
G02*
X23548500Y-10447000I200000J0D01*
G01*
X23948500Y-10447000D01*
G75*
G02*
X24148500Y-10647000I0J-200000D01*
G01*
G37*
%TD.AperFunction*%
%TD*%
%TO.P,R1,2*%
%TO.N,Net-(J1-Pad1)*%
%TA.AperFunction,SMDPad,CuDef*%
G36*
G01*
X2561000Y-34373500D02*
X2011000Y-34373500D01*
G75*
G02*
X1811000Y-34173500I0J200000D01*
G01*
X1811000Y-33773500D01*
G75*
G02*
X2011000Y-33573500I200000J0D01*
G01*
X2561000Y-33573500D01*
G75*
G02*
X2761000Y-33773500I0J-200000D01*
G01*
X2761000Y-34173500D01*
G75*
G02*
X2561000Y-34373500I-200000J0D01*
G01*
G37*
%TD.AperFunction*%
%TO.P,R1,1*%
%TO.N,+5V*%
%TA.AperFunction,SMDPad,CuDef*%
G36*
G01*
X2561000Y-36023500D02*
X2011000Y-36023500D01*
G75*
G02*
X1811000Y-35823500I0J200000D01*
G01*
X1811000Y-35423500D01*
G75*
G02*
X2011000Y-35223500I200000J0D01*
G01*
X2561000Y-35223500D01*
G75*
G02*
X2761000Y-35423500I0J-200000D01*
G01*
X2761000Y-35823500D01*
G75*
G02*
X2561000Y-36023500I-200000J0D01*
G01*
G37*
%TD.AperFunction*%
%TD*%
%TO.P,R3,1*%
%TO.N,+2V8*%
%TA.AperFunction,SMDPad,CuDef*%
G36*
G01*
X1569000Y-6998380D02*
X1569000Y-6448380D01*
G75*
G02*
X1769000Y-6248380I200000J0D01*
G01*
X2169000Y-6248380D01*
G75*
G02*
X2369000Y-6448380I0J-200000D01*
G01*
X2369000Y-6998380D01*
G75*
G02*
X2169000Y-7198380I-200000J0D01*
G01*
X1769000Y-7198380D01*
G75*
G02*
X1569000Y-6998380I0J200000D01*
G01*
G37*
%TD.AperFunction*%
%TO.P,R3,2*%
%TO.N,SCL_LV*%
%TA.AperFunction,SMDPad,CuDef*%
G36*
G01*
X3219000Y-6998380D02*
X3219000Y-6448380D01*
G75*
G02*
X3419000Y-6248380I200000J0D01*
G01*
X3819000Y-6248380D01*
G75*
G02*
X4019000Y-6448380I0J-200000D01*
G01*
X4019000Y-6998380D01*
G75*
G02*
X3819000Y-7198380I-200000J0D01*
G01*
X3419000Y-7198380D01*
G75*
G02*
X3219000Y-6998380I0J200000D01*
G01*
G37*
%TD.AperFunction*%
%TD*%
%TO.P,R2,1*%
%TO.N,+2V8*%
%TA.AperFunction,SMDPad,CuDef*%
G36*
G01*
X5556800Y-6998380D02*
X5556800Y-6448380D01*
G75*
G02*
X5756800Y-6248380I200000J0D01*
G01*
X6156800Y-6248380D01*
G75*
G02*
X6356800Y-6448380I0J-200000D01*
G01*
X6356800Y-6998380D01*
G75*
G02*
X6156800Y-7198380I-200000J0D01*
G01*
X5756800Y-7198380D01*
G75*
G02*
X5556800Y-6998380I0J200000D01*
G01*
G37*
%TD.AperFunction*%
%TO.P,R2,2*%
%TO.N,SDA_LV*%
%TA.AperFunction,SMDPad,CuDef*%
G36*
G01*
X7206800Y-6998380D02*
X7206800Y-6448380D01*
G75*
G02*
X7406800Y-6248380I200000J0D01*
G01*
X7806800Y-6248380D01*
G75*
G02*
X8006800Y-6448380I0J-200000D01*
G01*
X8006800Y-6998380D01*
G75*
G02*
X7806800Y-7198380I-200000J0D01*
G01*
X7406800Y-7198380D01*
G75*
G02*
X7206800Y-6998380I0J200000D01*
G01*
G37*
%TD.AperFunction*%
%TD*%
%TO.P,R7,1*%
%TO.N,+2V8*%
%TA.AperFunction,SMDPad,CuDef*%
G36*
G01*
X4650020Y-8819560D02*
X4650020Y-8269560D01*
G75*
G02*
X4850020Y-8069560I200000J0D01*
G01*
X5250020Y-8069560D01*
G75*
G02*
X5450020Y-8269560I0J-200000D01*
G01*
X5450020Y-8819560D01*
G75*
G02*
X5250020Y-9019560I-200000J0D01*
G01*
X4850020Y-9019560D01*
G75*
G02*
X4650020Y-8819560I0J200000D01*
G01*
G37*
%TD.AperFunction*%
%TO.P,R7,2*%
%TO.N,Net-(R4-Pad2)*%
%TA.AperFunction,SMDPad,CuDef*%
G36*
G01*
X6300020Y-8819560D02*
X6300020Y-8269560D01*
G75*
G02*
X6500020Y-8069560I200000J0D01*
G01*
X6900020Y-8069560D01*
G75*
G02*
X7100020Y-8269560I0J-200000D01*
G01*
X7100020Y-8819560D01*
G75*
G02*
X6900020Y-9019560I-200000J0D01*
G01*
X6500020Y-9019560D01*
G75*
G02*
X6300020Y-8819560I0J200000D01*
G01*
G37*
%TD.AperFunction*%
%TD*%
%TO.P,R8,2*%
%TO.N,Net-(R5-Pad2)*%
%TA.AperFunction,SMDPad,CuDef*%
G36*
G01*
X3132500Y-30245500D02*
X2582500Y-30245500D01*
G75*
G02*
X2382500Y-30045500I0J200000D01*
G01*
X2382500Y-29645500D01*
G75*
G02*
X2582500Y-29445500I200000J0D01*
G01*
X3132500Y-29445500D01*
G75*
G02*
X3332500Y-29645500I0J-200000D01*
G01*
X3332500Y-30045500D01*
G75*
G02*
X3132500Y-30245500I-200000J0D01*
G01*
G37*
%TD.AperFunction*%
%TO.P,R8,1*%
%TO.N,+2V8*%
%TA.AperFunction,SMDPad,CuDef*%
G36*
G01*
X3132500Y-31895500D02*
X2582500Y-31895500D01*
G75*
G02*
X2382500Y-31695500I0J200000D01*
G01*
X2382500Y-31295500D01*
G75*
G02*
X2582500Y-31095500I200000J0D01*
G01*
X3132500Y-31095500D01*
G75*
G02*
X3332500Y-31295500I0J-200000D01*
G01*
X3332500Y-31695500D01*
G75*
G02*
X3132500Y-31895500I-200000J0D01*
G01*
G37*
%TD.AperFunction*%
%TD*%
D14*
%TO.P,J2,2*%
%TO.N,GND*%
X17627600Y-21234400D03*
%TO.P,J2,1*%
%TO.N,Sig_A*%
X17627600Y-23774400D03*
%TD*%
%TO.P,C2,2*%
%TO.N,GND*%
%TA.AperFunction,SMDPad,CuDef*%
G36*
G01*
X5025200Y-30345500D02*
X4525200Y-30345500D01*
G75*
G02*
X4300200Y-30120500I0J225000D01*
G01*
X4300200Y-29670500D01*
G75*
G02*
X4525200Y-29445500I225000J0D01*
G01*
X5025200Y-29445500D01*
G75*
G02*
X5250200Y-29670500I0J-225000D01*
G01*
X5250200Y-30120500D01*
G75*
G02*
X5025200Y-30345500I-225000J0D01*
G01*
G37*
%TD.AperFunction*%
%TO.P,C2,1*%
%TO.N,+2V8*%
%TA.AperFunction,SMDPad,CuDef*%
G36*
G01*
X5025200Y-31895500D02*
X4525200Y-31895500D01*
G75*
G02*
X4300200Y-31670500I0J225000D01*
G01*
X4300200Y-31220500D01*
G75*
G02*
X4525200Y-30995500I225000J0D01*
G01*
X5025200Y-30995500D01*
G75*
G02*
X5250200Y-31220500I0J-225000D01*
G01*
X5250200Y-31670500D01*
G75*
G02*
X5025200Y-31895500I-225000J0D01*
G01*
G37*
%TD.AperFunction*%
%TD*%
%TO.P,J7,1*%
%TO.N,SCL*%
%TA.AperFunction,ComponentPad*%
G36*
G01*
X6927000Y-13887720D02*
X6027000Y-13887720D01*
G75*
G02*
X5827000Y-13687720I0J200000D01*
G01*
X5827000Y-13287720D01*
G75*
G02*
X6027000Y-13087720I200000J0D01*
G01*
X6927000Y-13087720D01*
G75*
G02*
X7127000Y-13287720I0J-200000D01*
G01*
X7127000Y-13687720D01*
G75*
G02*
X6927000Y-13887720I-200000J0D01*
G01*
G37*
%TD.AperFunction*%
D13*
%TO.P,J7,2*%
%TO.N,SDA*%
X6477000Y-12237720D03*
%TD*%
%TO.P,J6,2*%
%TO.N,CO*%
X20675600Y-2877500D03*
%TO.P,J6,1*%
%TO.N,DO*%
%TA.AperFunction,ComponentPad*%
G36*
G01*
X21125600Y-4527500D02*
X20225600Y-4527500D01*
G75*
G02*
X20025600Y-4327500I0J200000D01*
G01*
X20025600Y-3927500D01*
G75*
G02*
X20225600Y-3727500I200000J0D01*
G01*
X21125600Y-3727500D01*
G75*
G02*
X21325600Y-3927500I0J-200000D01*
G01*
X21325600Y-4327500D01*
G75*
G02*
X21125600Y-4527500I-200000J0D01*
G01*
G37*
%TD.AperFunction*%
%TD*%
%TO.P,J5,1*%
%TO.N,SCL*%
%TA.AperFunction,ComponentPad*%
G36*
G01*
X2405800Y-13887720D02*
X1505800Y-13887720D01*
G75*
G02*
X1305800Y-13687720I0J200000D01*
G01*
X1305800Y-13287720D01*
G75*
G02*
X1505800Y-13087720I200000J0D01*
G01*
X2405800Y-13087720D01*
G75*
G02*
X2605800Y-13287720I0J-200000D01*
G01*
X2605800Y-13687720D01*
G75*
G02*
X2405800Y-13887720I-200000J0D01*
G01*
G37*
%TD.AperFunction*%
%TO.P,J5,2*%
%TO.N,SDA*%
X1955800Y-12237720D03*
%TD*%
%TO.P,J4,2*%
%TO.N,CI*%
X5869940Y-39941500D03*
%TO.P,J4,1*%
%TO.N,DI*%
%TA.AperFunction,ComponentPad*%
G36*
G01*
X6319940Y-41591500D02*
X5419940Y-41591500D01*
G75*
G02*
X5219940Y-41391500I0J200000D01*
G01*
X5219940Y-40991500D01*
G75*
G02*
X5419940Y-40791500I200000J0D01*
G01*
X6319940Y-40791500D01*
G75*
G02*
X6519940Y-40991500I0J-200000D01*
G01*
X6519940Y-41391500D01*
G75*
G02*
X6319940Y-41591500I-200000J0D01*
G01*
G37*
%TD.AperFunction*%
%TD*%
%TO.P,J3,2*%
%TO.N,GND*%
X24119840Y-32824100D03*
%TO.P,J3,1*%
%TO.N,+5V*%
%TA.AperFunction,ComponentPad*%
G36*
G01*
X24569840Y-34474100D02*
X23669840Y-34474100D01*
G75*
G02*
X23469840Y-34274100I0J200000D01*
G01*
X23469840Y-33874100D01*
G75*
G02*
X23669840Y-33674100I200000J0D01*
G01*
X24569840Y-33674100D01*
G75*
G02*
X24769840Y-33874100I0J-200000D01*
G01*
X24769840Y-34274100D01*
G75*
G02*
X24569840Y-34474100I-200000J0D01*
G01*
G37*
%TD.AperFunction*%
%TD*%
D15*
%TO.P,U1,1*%
%TO.N,Net-(R5-Pad2)*%
X15875000Y-21255400D03*
%TO.P,U1,2*%
%TO.N,Net-(U1-Pad2)*%
X15124999Y-21255400D03*
%TO.P,U1,3*%
%TO.N,Net-(U1-Pad3)*%
X14375001Y-21255400D03*
%TO.P,U1,4*%
%TO.N,Net-(R4-Pad2)*%
X13624999Y-21255400D03*
%TO.P,U1,5*%
%TO.N,SCL_LV*%
X12875001Y-21255400D03*
%TO.P,U1,6*%
%TO.N,SDA_LV*%
X12125000Y-21255400D03*
%TO.P,U1,7*%
%TO.N,Net-(U1-Pad7)*%
X12125000Y-23744600D03*
%TO.P,U1,8*%
%TO.N,+2V8*%
X12875001Y-23744600D03*
%TO.P,U1,9*%
%TO.N,GND*%
X13624999Y-23744600D03*
%TO.P,U1,10*%
%TO.N,+2V8*%
X14375001Y-23744600D03*
%TO.P,U1,11*%
%TO.N,Net-(U1-Pad11)*%
X15124999Y-23744600D03*
%TO.P,U1,12*%
%TO.N,GND*%
X15875000Y-23744600D03*
%TD*%
D14*
%TO.P,J1,1*%
%TO.N,Net-(J1-Pad1)*%
X10337800Y-21234400D03*
%TO.P,J1,2*%
%TO.N,GND*%
X10337800Y-23774400D03*
%TD*%
%TO.P,C1,2*%
%TO.N,GND*%
%TA.AperFunction,SMDPad,CuDef*%
G36*
G01*
X24216240Y-29701300D02*
X24216240Y-29201300D01*
G75*
G02*
X24441240Y-28976300I225000J0D01*
G01*
X24891240Y-28976300D01*
G75*
G02*
X25116240Y-29201300I0J-225000D01*
G01*
X25116240Y-29701300D01*
G75*
G02*
X24891240Y-29926300I-225000J0D01*
G01*
X24441240Y-29926300D01*
G75*
G02*
X24216240Y-29701300I0J225000D01*
G01*
G37*
%TD.AperFunction*%
%TO.P,C1,1*%
%TO.N,+5V*%
%TA.AperFunction,SMDPad,CuDef*%
G36*
G01*
X22666240Y-29701300D02*
X22666240Y-29201300D01*
G75*
G02*
X22891240Y-28976300I225000J0D01*
G01*
X23341240Y-28976300D01*
G75*
G02*
X23566240Y-29201300I0J-225000D01*
G01*
X23566240Y-29701300D01*
G75*
G02*
X23341240Y-29926300I-225000J0D01*
G01*
X22891240Y-29926300D01*
G75*
G02*
X22666240Y-29701300I0J225000D01*
G01*
G37*
%TD.AperFunction*%
%TD*%
%TO.P,C3,2*%
%TO.N,GND*%
%TA.AperFunction,SMDPad,CuDef*%
G36*
G01*
X7158800Y-30396300D02*
X6658800Y-30396300D01*
G75*
G02*
X6433800Y-30171300I0J225000D01*
G01*
X6433800Y-29721300D01*
G75*
G02*
X6658800Y-29496300I225000J0D01*
G01*
X7158800Y-29496300D01*
G75*
G02*
X7383800Y-29721300I0J-225000D01*
G01*
X7383800Y-30171300D01*
G75*
G02*
X7158800Y-30396300I-225000J0D01*
G01*
G37*
%TD.AperFunction*%
%TO.P,C3,1*%
%TO.N,+2V8*%
%TA.AperFunction,SMDPad,CuDef*%
G36*
G01*
X7158800Y-31946300D02*
X6658800Y-31946300D01*
G75*
G02*
X6433800Y-31721300I0J225000D01*
G01*
X6433800Y-31271300D01*
G75*
G02*
X6658800Y-31046300I225000J0D01*
G01*
X7158800Y-31046300D01*
G75*
G02*
X7383800Y-31271300I0J-225000D01*
G01*
X7383800Y-31721300D01*
G75*
G02*
X7158800Y-31946300I-225000J0D01*
G01*
G37*
%TD.AperFunction*%
%TD*%
D16*
%TO.N,GND*%
X19685000Y-34036000D03*
X4953000Y-37592000D03*
X6985000Y-27876500D03*
X26860500Y-1905000D03*
X26733500Y-17335500D03*
X13589000Y-14605000D03*
X1968500Y-21336000D03*
X7175500Y-20447000D03*
X2349500Y-41592500D03*
X25082500Y-40830500D03*
X22415500Y-24320500D03*
X25336500Y-12954000D03*
X18732500Y-13017500D03*
%TO.N,Net-(D1-Pad6)*%
X14351000Y-30035500D03*
X13589000Y-11239500D03*
%TO.N,Net-(D1-Pad5)*%
X18796000Y-27432000D03*
X14478000Y-13017500D03*
%TO.N,Sig_A*%
X21414510Y-14922500D03*
%TO.N,Net-(J1-Pad1)*%
X1714500Y-32893000D03*
%TO.N,Net-(R4-Pad2)*%
X20764500Y-9779000D03*
X6667500Y-9779000D03*
X9617967Y-15493213D03*
%TO.N,Net-(R5-Pad2)*%
X20764500Y-12954000D03*
X20051490Y-20280977D03*
%TD*%
D17*
%TO.N,GND*%
X24203640Y-32740300D02*
X24119840Y-32824100D01*
X17627600Y-21444399D02*
X17627600Y-21234400D01*
X13576998Y-24003000D02*
X13651999Y-23927999D01*
D18*
X10071100Y-23507700D02*
X10337800Y-23774400D01*
X17591422Y-21234400D02*
X17627600Y-21234400D01*
X11261901Y-24698501D02*
X10337800Y-23774400D01*
X24140160Y-32803780D02*
X24119840Y-32824100D01*
X5666700Y-35603540D02*
X5666700Y-36258540D01*
D19*
X24119840Y-32824100D02*
X23680100Y-32824100D01*
D17*
X10337800Y-23774400D02*
X11499401Y-24936001D01*
D18*
X13576998Y-24904500D02*
X13608499Y-24936001D01*
D19*
X11524401Y-24961001D02*
X11499401Y-24936001D01*
D17*
X24450040Y-29667500D02*
X24666240Y-29451300D01*
D18*
X24963120Y-29154420D02*
X24666240Y-29451300D01*
X24666240Y-29451300D02*
X24666240Y-29248400D01*
D19*
X24666240Y-32277700D02*
X24119840Y-32824100D01*
X24666240Y-29451300D02*
X24666240Y-32277700D01*
D17*
X5674360Y-29187140D02*
X6985000Y-27876500D01*
X5674360Y-29949140D02*
X5674360Y-29187140D01*
X6896100Y-29949140D02*
X5674360Y-29949140D01*
X5674360Y-29949140D02*
X4775500Y-29949140D01*
X25891500Y-2874000D02*
X26860500Y-1905000D01*
X24955500Y-2874000D02*
X25891500Y-2874000D01*
D19*
X11524401Y-24961001D02*
X10337800Y-23774400D01*
X4775500Y-29949140D02*
X4711700Y-29885340D01*
X5801360Y-29060140D02*
X6985000Y-27876500D01*
X5801360Y-29949140D02*
X5801360Y-29060140D01*
X6896100Y-29949140D02*
X5801360Y-29949140D01*
X5801360Y-29949140D02*
X4775500Y-29949140D01*
D18*
X11600000Y-15000000D02*
X12050000Y-15000000D01*
D17*
X13494000Y-14700000D02*
X13589000Y-14605000D01*
X11600000Y-14700000D02*
X13494000Y-14700000D01*
D19*
X11600000Y-33700000D02*
X11600000Y-33952000D01*
X11600000Y-33952000D02*
X13017500Y-35369500D01*
X18351500Y-35369500D02*
X19685000Y-34036000D01*
X13017500Y-35369500D02*
X18351500Y-35369500D01*
X12091910Y-25528510D02*
X11524401Y-24961001D01*
D17*
X11499401Y-24936001D02*
X11966910Y-25403510D01*
D19*
X13295954Y-25707510D02*
X15308388Y-25707510D01*
X15308388Y-25707510D02*
X15875000Y-25140898D01*
X15875000Y-25140898D02*
X15875000Y-23744600D01*
X5666700Y-36878300D02*
X4953000Y-37592000D01*
X5666700Y-35603540D02*
X5666700Y-36878300D01*
X12270910Y-25707510D02*
X10337800Y-23774400D01*
X13295954Y-25707510D02*
X12270910Y-25707510D01*
X13116954Y-25528510D02*
X13295954Y-25707510D01*
X13624999Y-25020465D02*
X13116954Y-25528510D01*
X13624999Y-23744600D02*
X13624999Y-25020465D01*
D17*
%TO.N,+2V8*%
X6832300Y-31435340D02*
X6896100Y-31499140D01*
X4711700Y-31435340D02*
X6832300Y-31435340D01*
D18*
X14327000Y-23370000D02*
X14327000Y-24003000D01*
X14211700Y-23254700D02*
X14327000Y-23370000D01*
X5831800Y-6030879D02*
X5956800Y-6155879D01*
X5831800Y-4878580D02*
X5831800Y-6598380D01*
X6896100Y-31499140D02*
X5267122Y-31499140D01*
X8450592Y-22806390D02*
X8456101Y-22811899D01*
X4771640Y-8266180D02*
X5050020Y-8544560D01*
X8456101Y-22811899D02*
X8407241Y-22811899D01*
D19*
X5956800Y-6723380D02*
X5956800Y-4559800D01*
X1844000Y-6218379D02*
X1969000Y-6343379D01*
X1844000Y-4853180D02*
X1844000Y-6572980D01*
D17*
X4711700Y-31435340D02*
X4284680Y-31435340D01*
D18*
X8407241Y-22811899D02*
X8307070Y-22912070D01*
D17*
X8407241Y-22811899D02*
X8407241Y-22834759D01*
D20*
X2906260Y-31544260D02*
X2857500Y-31495500D01*
X4175760Y-31544260D02*
X2906260Y-31544260D01*
D17*
X4284680Y-31435340D02*
X4175760Y-31544260D01*
D19*
X1932490Y-30570490D02*
X1932490Y-29300990D01*
X2857500Y-31495500D02*
X1932490Y-30570490D01*
X1932490Y-29300990D02*
X4889500Y-26343980D01*
X4889500Y-8705080D02*
X5050020Y-8544560D01*
X4889500Y-26343980D02*
X4889500Y-8705080D01*
X5050020Y-7630160D02*
X5956800Y-6723380D01*
X5050020Y-8544560D02*
X5050020Y-7630160D01*
X3790180Y-8544560D02*
X1969000Y-6723380D01*
X5050020Y-8544560D02*
X3790180Y-8544560D01*
X4889500Y-26329640D02*
X8592820Y-22626320D01*
X4889500Y-26343980D02*
X4889500Y-26329640D01*
D17*
X8592820Y-22626320D02*
X8307070Y-22912070D01*
X8676640Y-22542500D02*
X8592820Y-22626320D01*
D19*
X8676640Y-22542500D02*
X10881902Y-22542500D01*
X6892460Y-31495500D02*
X6896100Y-31499140D01*
X2857500Y-31495500D02*
X6892460Y-31495500D01*
X4716700Y-31440340D02*
X4711700Y-31435340D01*
X4716700Y-33403540D02*
X4716700Y-31440340D01*
X10881902Y-22542500D02*
X12509500Y-22542500D01*
X12509500Y-22542500D02*
X14097000Y-22542500D01*
X14375001Y-22820501D02*
X14375001Y-23744600D01*
X14097000Y-22542500D02*
X14375001Y-22820501D01*
X12680901Y-22542500D02*
X12509500Y-22542500D01*
X12875001Y-22736600D02*
X12680901Y-22542500D01*
X12875001Y-23744600D02*
X12875001Y-22736600D01*
D18*
%TO.N,+5V*%
X23116240Y-29451300D02*
X23116240Y-28981380D01*
X23116240Y-29078220D02*
X23116240Y-29451300D01*
X23116240Y-29451300D02*
X22788880Y-29451300D01*
D17*
X23794640Y-34399300D02*
X24119840Y-34074100D01*
X4716700Y-35113538D02*
X4716700Y-35603540D01*
X4716700Y-35603540D02*
X4141700Y-35603540D01*
D19*
X24482560Y-24171219D02*
X24507560Y-24146219D01*
X6616700Y-34573540D02*
X6616700Y-35603540D01*
X6566699Y-34523539D02*
X6616700Y-34573540D01*
X4766701Y-34523539D02*
X6566699Y-34523539D01*
X4716700Y-34573540D02*
X4766701Y-34523539D01*
X4716700Y-35603540D02*
X4716700Y-34573540D01*
D17*
X24504120Y-23876000D02*
X24507560Y-23879440D01*
D19*
X24507560Y-24146219D02*
X24507560Y-23879440D01*
D17*
X24454120Y-16764000D02*
X24482560Y-16792440D01*
X24482560Y-16792440D02*
X24482560Y-24094940D01*
D19*
X24955500Y-4124000D02*
X25841000Y-4124000D01*
X25841000Y-4124000D02*
X26797000Y-5080000D01*
X26797000Y-13589000D02*
X24482560Y-15903440D01*
X26797000Y-5080000D02*
X26797000Y-13589000D01*
X24482560Y-26380940D02*
X24482560Y-24094940D01*
X20810860Y-30052640D02*
X24482560Y-26380940D01*
X20810860Y-31469560D02*
X20810860Y-30052640D01*
X22514900Y-30052640D02*
X23116240Y-29451300D01*
X20810860Y-30052640D02*
X22514900Y-30052640D01*
X24119840Y-34074100D02*
X25044400Y-34074100D01*
X25044400Y-34074100D02*
X26543000Y-32575500D01*
X26543000Y-28441380D02*
X24482560Y-26380940D01*
X26543000Y-32575500D02*
X26543000Y-28441380D01*
X4716700Y-35859800D02*
X4699000Y-35877500D01*
X4716700Y-35603540D02*
X4716700Y-35859800D01*
X4716700Y-35603540D02*
X4716700Y-36177300D01*
X4716700Y-36177300D02*
X3683000Y-37211000D01*
X3683000Y-37211000D02*
X3683000Y-42354500D01*
X3683000Y-42354500D02*
X4508500Y-43180000D01*
X4508500Y-43180000D02*
X17589500Y-43180000D01*
X24119840Y-36649660D02*
X24119840Y-34074100D01*
X17589500Y-43180000D02*
X24119840Y-36649660D01*
X2305960Y-35603540D02*
X2286000Y-35623500D01*
X4716700Y-35603540D02*
X2305960Y-35603540D01*
X18580420Y-33700000D02*
X20425210Y-31855210D01*
X16400000Y-33700000D02*
X18580420Y-33700000D01*
X20425210Y-31855210D02*
X20810860Y-31469560D01*
X20260850Y-32019570D02*
X20425210Y-31855210D01*
D17*
X16355800Y-14781000D02*
X16687800Y-15113000D01*
X16835002Y-15000000D02*
X16400000Y-15000000D01*
D19*
X24320500Y-16764000D02*
X24482560Y-16926060D01*
X22026450Y-13885750D02*
X23231340Y-15090640D01*
X19664250Y-13885750D02*
X22026450Y-13885750D01*
X18850000Y-14700000D02*
X19664250Y-13885750D01*
X16400000Y-14700000D02*
X18850000Y-14700000D01*
X24482560Y-16443460D02*
X24482560Y-16341860D01*
X24482560Y-16926060D02*
X24482560Y-16443460D01*
X24482560Y-16443460D02*
X24482560Y-15903440D01*
X24447770Y-15868650D02*
X24482560Y-15903440D01*
X24009350Y-15868650D02*
X24447770Y-15868650D01*
X24009350Y-15868650D02*
X23231340Y-15090640D01*
X24257000Y-16344900D02*
X23837900Y-16764000D01*
X24257000Y-16116300D02*
X24257000Y-16344900D01*
X23837900Y-16764000D02*
X24320500Y-16764000D01*
X22351500Y-16764000D02*
X23837900Y-16764000D01*
X24482560Y-16341860D02*
X24257000Y-16116300D01*
X24257000Y-16116300D02*
X24009350Y-15868650D01*
X23914100Y-16764000D02*
X24482560Y-17332460D01*
X23837900Y-16764000D02*
X23914100Y-16764000D01*
X24482560Y-17332460D02*
X24482560Y-16926060D01*
X24482560Y-24094940D02*
X24482560Y-17332460D01*
X24009350Y-16452850D02*
X24320500Y-16764000D01*
X24009350Y-15868650D02*
X24009350Y-16452850D01*
D18*
%TO.N,Net-(D1-Pad6)*%
X16400000Y-30000000D02*
X15950000Y-30000000D01*
X16400000Y-30000000D02*
X15275000Y-30000000D01*
X15275000Y-30000000D02*
X15212499Y-29937499D01*
D17*
X16364500Y-30035500D02*
X16400000Y-30000000D01*
X14351000Y-30035500D02*
X16364500Y-30035500D01*
X13528500Y-11300000D02*
X13589000Y-11239500D01*
X11600000Y-11300000D02*
X13528500Y-11300000D01*
D19*
%TO.N,Net-(D1-Pad5)*%
X16400000Y-31700000D02*
X16719570Y-32019570D01*
D17*
X18542000Y-27432000D02*
X18796000Y-27432000D01*
X11692000Y-13208000D02*
X11600000Y-13300000D01*
X11617500Y-13017500D02*
X11600000Y-13000000D01*
X14478000Y-13017500D02*
X11617500Y-13017500D01*
X17650000Y-32000000D02*
X16400000Y-32000000D01*
X18796000Y-30854000D02*
X17650000Y-32000000D01*
X18796000Y-27432000D02*
X18796000Y-30854000D01*
%TO.N,CI*%
X5869940Y-39116000D02*
X8890000Y-36095940D01*
X5869940Y-39941500D02*
X5869940Y-39116000D01*
D20*
X11228236Y-32000000D02*
X11414118Y-32185882D01*
X9973500Y-32000000D02*
X11228236Y-32000000D01*
D17*
X11600000Y-32000000D02*
X9973500Y-32000000D01*
X8890000Y-33083500D02*
X9973500Y-32000000D01*
X8890000Y-33083500D02*
X8890000Y-36095940D01*
D18*
%TO.N,DI*%
X5869940Y-41022364D02*
X5869940Y-41191500D01*
D17*
X4969930Y-40291490D02*
X4969930Y-39289570D01*
X5869940Y-41191500D02*
X4969930Y-40291490D01*
X4969930Y-39289570D02*
X8191500Y-36068000D01*
X8191500Y-36068000D02*
X8191500Y-31623000D01*
X9514500Y-30300000D02*
X11600000Y-30300000D01*
X8191500Y-31623000D02*
X9514500Y-30300000D01*
%TO.N,DO*%
X17148000Y-11300000D02*
X19431000Y-9017000D01*
X16400000Y-11300000D02*
X17148000Y-11300000D01*
D18*
X21068180Y-4497540D02*
X20680680Y-4110040D01*
D17*
X20680680Y-4153220D02*
X20680680Y-4211320D01*
X20675600Y-4813300D02*
X19431000Y-6057900D01*
X20675600Y-4127500D02*
X20675600Y-4813300D01*
X19431000Y-9017000D02*
X19431000Y-6057900D01*
%TO.N,CO*%
X16400000Y-13300000D02*
X16608500Y-13300000D01*
X16400000Y-13000000D02*
X16718000Y-13000000D01*
X19875500Y-10414000D02*
X17289500Y-13000000D01*
X19875500Y-6438900D02*
X19875500Y-10414000D01*
X19926300Y-6438900D02*
X19875500Y-6438900D01*
X21685250Y-4679950D02*
X19926300Y-6438900D01*
X17289500Y-13000000D02*
X16400000Y-13000000D01*
X21685250Y-3054350D02*
X21685250Y-4679950D01*
X21508400Y-2877500D02*
X21685250Y-3054350D01*
X21055690Y-2877500D02*
X21508400Y-2877500D01*
D20*
%TO.N,GPIO1*%
X23748500Y-12573000D02*
X23901400Y-12573000D01*
X23901400Y-12573000D02*
X24980900Y-11493500D01*
X24980900Y-11493500D02*
X24980900Y-9359900D01*
X24980900Y-9359900D02*
X26047700Y-8293100D01*
X26047700Y-8293100D02*
X26047700Y-5943600D01*
X25478100Y-5374000D02*
X24955500Y-5374000D01*
X26047700Y-5943600D02*
X25478100Y-5374000D01*
%TO.N,GPIO0*%
X23748500Y-10922000D02*
X23748500Y-7040634D01*
X23748500Y-7040634D02*
X24165134Y-6624000D01*
X24165134Y-6624000D02*
X24955500Y-6624000D01*
D17*
%TO.N,Sig_A*%
X20512400Y-16662400D02*
X20614000Y-16764000D01*
X20779502Y-16929502D02*
X20614000Y-16764000D01*
X20701500Y-15635510D02*
X21414510Y-14922500D01*
X20701500Y-16764000D02*
X20701500Y-15635510D01*
X20701500Y-16764000D02*
X20701500Y-20700500D01*
X20701500Y-20700500D02*
X17627600Y-23774400D01*
%TO.N,SDA*%
X1955800Y-12237720D02*
X1557860Y-12237720D01*
X1955800Y-12237720D02*
X1955800Y-12179300D01*
D20*
X4148580Y-2878580D02*
X6781800Y-2878580D01*
X3473579Y-3553581D02*
X4148580Y-2878580D01*
X1780419Y-3553581D02*
X3473579Y-3553581D01*
X1143999Y-4190001D02*
X1780419Y-3553581D01*
X1143999Y-11938999D02*
X1143999Y-4190001D01*
X1442720Y-12237720D02*
X1143999Y-11938999D01*
X1955800Y-12237720D02*
X1442720Y-12237720D01*
%TO.N,SCL*%
X1955800Y-13487720D02*
X818988Y-12350908D01*
X818988Y-12350908D02*
X818988Y-4055378D01*
X818988Y-4055378D02*
X1995786Y-2878580D01*
X1995786Y-2878580D02*
X2794000Y-2878580D01*
D18*
%TO.N,SDA_LV*%
X7606800Y-5649878D02*
X7606800Y-6723380D01*
D17*
X7606800Y-6723380D02*
X7606800Y-5003580D01*
X12125000Y-19580900D02*
X7606800Y-15062700D01*
X7606800Y-15062700D02*
X7606800Y-6723380D01*
X12125000Y-21255400D02*
X12125000Y-19764700D01*
X12125000Y-19764700D02*
X12125000Y-19580900D01*
X12125000Y-20196500D02*
X12125000Y-19764700D01*
%TO.N,SCL_LV*%
X3642400Y-6093379D02*
X3517400Y-6218379D01*
X3619000Y-6697980D02*
X3619000Y-4978180D01*
D18*
X12827000Y-21164299D02*
X12827000Y-21513800D01*
D17*
X3498188Y-6093379D02*
X3619000Y-6093379D01*
X12827000Y-21513800D02*
X12827000Y-21116952D01*
X12875001Y-21255400D02*
X12875001Y-20232379D01*
X4637790Y-3984790D02*
X3744000Y-4878580D01*
X8381801Y-4228579D02*
X8138012Y-3984790D01*
X8138012Y-3984790D02*
X4637790Y-3984790D01*
X12875001Y-20177501D02*
X12875001Y-19669501D01*
X12875001Y-19669501D02*
X8381801Y-15176301D01*
X8381801Y-14731801D02*
X8381801Y-4228579D01*
X8381801Y-15176301D02*
X8381801Y-14731801D01*
D19*
%TO.N,Net-(J1-Pad1)*%
X2286000Y-33464500D02*
X1714500Y-32893000D01*
X2286000Y-33973500D02*
X2286000Y-33464500D01*
D17*
%TO.N,Net-(R4-Pad2)*%
X6700020Y-9746480D02*
X6667500Y-9779000D01*
X22098500Y-10922000D02*
X21907750Y-10731250D01*
X21907500Y-10922000D02*
X20764500Y-9779000D01*
X22098500Y-10922000D02*
X21907500Y-10922000D01*
X6700020Y-8544560D02*
X6700020Y-9746480D01*
X13624999Y-19500245D02*
X9617967Y-15493213D01*
X13624999Y-21255400D02*
X13624999Y-19500245D01*
D18*
%TO.N,Net-(R5-Pad2)*%
X15826999Y-21164299D02*
X15826999Y-21513800D01*
X15826999Y-21513800D02*
X15826999Y-21013161D01*
D17*
X21717500Y-12954000D02*
X22098500Y-12573000D01*
X20764500Y-12954000D02*
X21717500Y-12954000D01*
X15875000Y-21561801D02*
X16602599Y-22289400D01*
X15875000Y-21255400D02*
X15875000Y-21561801D01*
X16632598Y-22259401D02*
X16602599Y-22289400D01*
X18119601Y-22259401D02*
X16632598Y-22259401D01*
X18652601Y-21726401D02*
X18119601Y-22259401D01*
X2857500Y-29845500D02*
X6495479Y-26207521D01*
X6495479Y-26207521D02*
X15515499Y-26207521D01*
X15515499Y-26207521D02*
X16602599Y-25120421D01*
X16602599Y-25120421D02*
X16602599Y-22289400D01*
X18126599Y-22259401D02*
X20051490Y-20334510D01*
X20051490Y-20334510D02*
X20051490Y-20280977D01*
%TD*%
D21*
%TO.N,GND*%
X3133650Y-9139609D02*
X3161363Y-9173377D01*
X3195131Y-9201090D01*
X3195133Y-9201092D01*
X3212325Y-9215201D01*
X3296121Y-9283971D01*
X3449867Y-9366149D01*
X3616690Y-9416755D01*
X3746703Y-9429560D01*
X3746713Y-9429560D01*
X3790179Y-9433841D01*
X3833645Y-9429560D01*
X4004501Y-9429560D01*
X4004500Y-25977401D01*
X1337441Y-28644461D01*
X1303674Y-28672173D01*
X1275961Y-28705941D01*
X1275958Y-28705944D01*
X1193080Y-28806931D01*
X1110902Y-28960677D01*
X1060295Y-29127500D01*
X1043209Y-29300990D01*
X1047491Y-29344468D01*
X1047490Y-30527020D01*
X1043209Y-30570490D01*
X1047490Y-30613959D01*
X1047490Y-30613966D01*
X1053173Y-30671664D01*
X1060295Y-30743980D01*
X1063969Y-30756090D01*
X1110901Y-30910802D01*
X1193079Y-31064548D01*
X1303673Y-31199307D01*
X1337446Y-31227024D01*
X1744428Y-31634006D01*
X1744428Y-31695500D01*
X1760433Y-31858000D01*
X1612561Y-31858000D01*
X1412602Y-31897774D01*
X1224244Y-31975795D01*
X1054726Y-32089063D01*
X910563Y-32233226D01*
X797295Y-32402744D01*
X719274Y-32591102D01*
X679500Y-32791061D01*
X679500Y-32994939D01*
X719274Y-33194898D01*
X797295Y-33383256D01*
X910563Y-33552774D01*
X1054726Y-33696937D01*
X1172928Y-33775917D01*
X1172928Y-34173500D01*
X1189031Y-34337000D01*
X1236722Y-34494216D01*
X1314169Y-34639108D01*
X1418394Y-34766106D01*
X1457866Y-34798500D01*
X1418394Y-34830894D01*
X1314169Y-34957892D01*
X1236722Y-35102784D01*
X1189031Y-35260000D01*
X1172928Y-35423500D01*
X1172928Y-35823500D01*
X1189031Y-35987000D01*
X1236722Y-36144216D01*
X1314169Y-36289108D01*
X1418394Y-36416106D01*
X1545392Y-36520331D01*
X1690284Y-36597778D01*
X1847500Y-36645469D01*
X2011000Y-36661572D01*
X2561000Y-36661572D01*
X2724500Y-36645469D01*
X2881716Y-36597778D01*
X3026608Y-36520331D01*
X3065345Y-36488540D01*
X3153882Y-36488540D01*
X3087956Y-36554466D01*
X3054183Y-36582183D01*
X2943589Y-36716942D01*
X2861411Y-36870688D01*
X2847450Y-36916711D01*
X2817949Y-37013962D01*
X2810805Y-37037511D01*
X2798000Y-37167524D01*
X2798000Y-37167531D01*
X2793719Y-37211000D01*
X2798000Y-37254469D01*
X2798001Y-42311021D01*
X2793719Y-42354500D01*
X2810805Y-42527990D01*
X2861412Y-42694813D01*
X2943590Y-42848559D01*
X3026468Y-42949546D01*
X3026471Y-42949549D01*
X3054184Y-42983317D01*
X3087951Y-43011029D01*
X3851970Y-43775049D01*
X3879683Y-43808817D01*
X3913451Y-43836530D01*
X3913453Y-43836532D01*
X3984952Y-43895210D01*
X4014441Y-43919411D01*
X4168187Y-44001589D01*
X4335010Y-44052195D01*
X4465023Y-44065000D01*
X4465033Y-44065000D01*
X4508499Y-44069281D01*
X4551965Y-44065000D01*
X17546031Y-44065000D01*
X17589500Y-44069281D01*
X17632969Y-44065000D01*
X17632977Y-44065000D01*
X17762990Y-44052195D01*
X17929813Y-44001589D01*
X18083559Y-43919411D01*
X18218317Y-43808817D01*
X18246034Y-43775044D01*
X24714891Y-37306188D01*
X24748657Y-37278477D01*
X24804035Y-37211000D01*
X24859250Y-37143720D01*
X24859251Y-37143719D01*
X24941429Y-36989973D01*
X24992035Y-36823150D01*
X25004840Y-36693137D01*
X25004840Y-36693127D01*
X25009121Y-36649661D01*
X25004840Y-36606195D01*
X25004840Y-34987291D01*
X25035448Y-34970931D01*
X25044681Y-34963353D01*
X25087869Y-34959100D01*
X25087877Y-34959100D01*
X25217890Y-34946295D01*
X25384713Y-34895689D01*
X25538459Y-34813511D01*
X25673217Y-34702917D01*
X25700934Y-34669144D01*
X27138050Y-33232029D01*
X27171817Y-33204317D01*
X27216395Y-33150000D01*
X27270970Y-33083500D01*
X27282411Y-33069559D01*
X27340001Y-32961815D01*
X27340001Y-44340000D01*
X660000Y-44340000D01*
X660000Y-13231366D01*
X672088Y-13243454D01*
X667728Y-13287720D01*
X667728Y-13687720D01*
X683831Y-13851220D01*
X731522Y-14008436D01*
X808969Y-14153328D01*
X913194Y-14280326D01*
X1040192Y-14384551D01*
X1185084Y-14461998D01*
X1342300Y-14509689D01*
X1505800Y-14525792D01*
X2405800Y-14525792D01*
X2569300Y-14509689D01*
X2726516Y-14461998D01*
X2871408Y-14384551D01*
X2998406Y-14280326D01*
X3102631Y-14153328D01*
X3180078Y-14008436D01*
X3227769Y-13851220D01*
X3243872Y-13687720D01*
X3243872Y-13287720D01*
X3227769Y-13124220D01*
X3180078Y-12967004D01*
X3102631Y-12822112D01*
X3081059Y-12795826D01*
X3166641Y-12635713D01*
X3225824Y-12440615D01*
X3245807Y-12237720D01*
X3225824Y-12034825D01*
X3166641Y-11839727D01*
X3070534Y-11659923D01*
X2941196Y-11502324D01*
X2783597Y-11372986D01*
X2603793Y-11276879D01*
X2408695Y-11217696D01*
X2256638Y-11202720D01*
X1878999Y-11202720D01*
X1878999Y-7884957D01*
X3133650Y-9139609D01*
%TA.AperFunction,Conductor*%
D22*
G36*
X3133650Y-9139609D02*
G01*
X3161363Y-9173377D01*
X3195131Y-9201090D01*
X3195133Y-9201092D01*
X3212325Y-9215201D01*
X3296121Y-9283971D01*
X3449867Y-9366149D01*
X3616690Y-9416755D01*
X3746703Y-9429560D01*
X3746713Y-9429560D01*
X3790179Y-9433841D01*
X3833645Y-9429560D01*
X4004501Y-9429560D01*
X4004500Y-25977401D01*
X1337441Y-28644461D01*
X1303674Y-28672173D01*
X1275961Y-28705941D01*
X1275958Y-28705944D01*
X1193080Y-28806931D01*
X1110902Y-28960677D01*
X1060295Y-29127500D01*
X1043209Y-29300990D01*
X1047491Y-29344468D01*
X1047490Y-30527020D01*
X1043209Y-30570490D01*
X1047490Y-30613959D01*
X1047490Y-30613966D01*
X1053173Y-30671664D01*
X1060295Y-30743980D01*
X1063969Y-30756090D01*
X1110901Y-30910802D01*
X1193079Y-31064548D01*
X1303673Y-31199307D01*
X1337446Y-31227024D01*
X1744428Y-31634006D01*
X1744428Y-31695500D01*
X1760433Y-31858000D01*
X1612561Y-31858000D01*
X1412602Y-31897774D01*
X1224244Y-31975795D01*
X1054726Y-32089063D01*
X910563Y-32233226D01*
X797295Y-32402744D01*
X719274Y-32591102D01*
X679500Y-32791061D01*
X679500Y-32994939D01*
X719274Y-33194898D01*
X797295Y-33383256D01*
X910563Y-33552774D01*
X1054726Y-33696937D01*
X1172928Y-33775917D01*
X1172928Y-34173500D01*
X1189031Y-34337000D01*
X1236722Y-34494216D01*
X1314169Y-34639108D01*
X1418394Y-34766106D01*
X1457866Y-34798500D01*
X1418394Y-34830894D01*
X1314169Y-34957892D01*
X1236722Y-35102784D01*
X1189031Y-35260000D01*
X1172928Y-35423500D01*
X1172928Y-35823500D01*
X1189031Y-35987000D01*
X1236722Y-36144216D01*
X1314169Y-36289108D01*
X1418394Y-36416106D01*
X1545392Y-36520331D01*
X1690284Y-36597778D01*
X1847500Y-36645469D01*
X2011000Y-36661572D01*
X2561000Y-36661572D01*
X2724500Y-36645469D01*
X2881716Y-36597778D01*
X3026608Y-36520331D01*
X3065345Y-36488540D01*
X3153882Y-36488540D01*
X3087956Y-36554466D01*
X3054183Y-36582183D01*
X2943589Y-36716942D01*
X2861411Y-36870688D01*
X2847450Y-36916711D01*
X2817949Y-37013962D01*
X2810805Y-37037511D01*
X2798000Y-37167524D01*
X2798000Y-37167531D01*
X2793719Y-37211000D01*
X2798000Y-37254469D01*
X2798001Y-42311021D01*
X2793719Y-42354500D01*
X2810805Y-42527990D01*
X2861412Y-42694813D01*
X2943590Y-42848559D01*
X3026468Y-42949546D01*
X3026471Y-42949549D01*
X3054184Y-42983317D01*
X3087951Y-43011029D01*
X3851970Y-43775049D01*
X3879683Y-43808817D01*
X3913451Y-43836530D01*
X3913453Y-43836532D01*
X3984952Y-43895210D01*
X4014441Y-43919411D01*
X4168187Y-44001589D01*
X4335010Y-44052195D01*
X4465023Y-44065000D01*
X4465033Y-44065000D01*
X4508499Y-44069281D01*
X4551965Y-44065000D01*
X17546031Y-44065000D01*
X17589500Y-44069281D01*
X17632969Y-44065000D01*
X17632977Y-44065000D01*
X17762990Y-44052195D01*
X17929813Y-44001589D01*
X18083559Y-43919411D01*
X18218317Y-43808817D01*
X18246034Y-43775044D01*
X24714891Y-37306188D01*
X24748657Y-37278477D01*
X24804035Y-37211000D01*
X24859250Y-37143720D01*
X24859251Y-37143719D01*
X24941429Y-36989973D01*
X24992035Y-36823150D01*
X25004840Y-36693137D01*
X25004840Y-36693127D01*
X25009121Y-36649661D01*
X25004840Y-36606195D01*
X25004840Y-34987291D01*
X25035448Y-34970931D01*
X25044681Y-34963353D01*
X25087869Y-34959100D01*
X25087877Y-34959100D01*
X25217890Y-34946295D01*
X25384713Y-34895689D01*
X25538459Y-34813511D01*
X25673217Y-34702917D01*
X25700934Y-34669144D01*
X27138050Y-33232029D01*
X27171817Y-33204317D01*
X27216395Y-33150000D01*
X27270970Y-33083500D01*
X27282411Y-33069559D01*
X27340001Y-32961815D01*
X27340001Y-44340000D01*
X660000Y-44340000D01*
X660000Y-13231366D01*
X672088Y-13243454D01*
X667728Y-13287720D01*
X667728Y-13687720D01*
X683831Y-13851220D01*
X731522Y-14008436D01*
X808969Y-14153328D01*
X913194Y-14280326D01*
X1040192Y-14384551D01*
X1185084Y-14461998D01*
X1342300Y-14509689D01*
X1505800Y-14525792D01*
X2405800Y-14525792D01*
X2569300Y-14509689D01*
X2726516Y-14461998D01*
X2871408Y-14384551D01*
X2998406Y-14280326D01*
X3102631Y-14153328D01*
X3180078Y-14008436D01*
X3227769Y-13851220D01*
X3243872Y-13687720D01*
X3243872Y-13287720D01*
X3227769Y-13124220D01*
X3180078Y-12967004D01*
X3102631Y-12822112D01*
X3081059Y-12795826D01*
X3166641Y-12635713D01*
X3225824Y-12440615D01*
X3245807Y-12237720D01*
X3225824Y-12034825D01*
X3166641Y-11839727D01*
X3070534Y-11659923D01*
X2941196Y-11502324D01*
X2783597Y-11372986D01*
X2603793Y-11276879D01*
X2408695Y-11217696D01*
X2256638Y-11202720D01*
X1878999Y-11202720D01*
X1878999Y-7884957D01*
X3133650Y-9139609D01*
G37*
%TD.AperFunction*%
D21*
X12427832Y-27023088D02*
X12365000Y-27338967D01*
X12365000Y-27661033D01*
X12427832Y-27976912D01*
X12551082Y-28274463D01*
X12730013Y-28542252D01*
X12957748Y-28769987D01*
X13225537Y-28948918D01*
X13523088Y-29072168D01*
X13836483Y-29134506D01*
X13691226Y-29231563D01*
X13547063Y-29375726D01*
X13433795Y-29545244D01*
X13355774Y-29733602D01*
X13316000Y-29933561D01*
X13316000Y-30137439D01*
X13355774Y-30337398D01*
X13433795Y-30525756D01*
X13547063Y-30695274D01*
X13691226Y-30839437D01*
X13860744Y-30952705D01*
X14049102Y-31030726D01*
X14249061Y-31070500D01*
X14452939Y-31070500D01*
X14652898Y-31030726D01*
X14775806Y-30979816D01*
X14810498Y-31094180D01*
X14840335Y-31150000D01*
X14810498Y-31205820D01*
X14774188Y-31325518D01*
X14761928Y-31450000D01*
X14761928Y-32550000D01*
X14774188Y-32674482D01*
X14810498Y-32794180D01*
X14840335Y-32850000D01*
X14810498Y-32905820D01*
X14774188Y-33025518D01*
X14761928Y-33150000D01*
X14761928Y-34250000D01*
X14774188Y-34374482D01*
X14810498Y-34494180D01*
X14869463Y-34604494D01*
X14948815Y-34701185D01*
X15045506Y-34780537D01*
X15155820Y-34839502D01*
X15275518Y-34875812D01*
X15400000Y-34888072D01*
X17400000Y-34888072D01*
X17524482Y-34875812D01*
X17644180Y-34839502D01*
X17754494Y-34780537D01*
X17851185Y-34701185D01*
X17930537Y-34604494D01*
X17940957Y-34585000D01*
X18536951Y-34585000D01*
X18580420Y-34589281D01*
X18623889Y-34585000D01*
X18623897Y-34585000D01*
X18753910Y-34572195D01*
X18920733Y-34521589D01*
X19074479Y-34439411D01*
X19209237Y-34328817D01*
X19236954Y-34295044D01*
X20994021Y-32537977D01*
X22875174Y-32537977D01*
X23002842Y-32697100D01*
X23992840Y-32697100D01*
X23992840Y-31940338D01*
X23828241Y-31775182D01*
X23624407Y-31803452D01*
X23430004Y-31870945D01*
X23252504Y-31975067D01*
X23098728Y-32111817D01*
X22974585Y-32275940D01*
X22884846Y-32461128D01*
X22875174Y-32537977D01*
X20994021Y-32537977D01*
X21081742Y-32450257D01*
X21081747Y-32450251D01*
X21405905Y-32126093D01*
X21439677Y-32098377D01*
X21550271Y-31963619D01*
X21632449Y-31809873D01*
X21683055Y-31643050D01*
X21695860Y-31513037D01*
X21695860Y-31513027D01*
X21700141Y-31469561D01*
X21695860Y-31426095D01*
X21695860Y-30937640D01*
X22471431Y-30937640D01*
X22514900Y-30941921D01*
X22558369Y-30937640D01*
X22558377Y-30937640D01*
X22688390Y-30924835D01*
X22855213Y-30874229D01*
X23008959Y-30792051D01*
X23143717Y-30681457D01*
X23171434Y-30647684D01*
X23254746Y-30564372D01*
X23341240Y-30564372D01*
X23509617Y-30547788D01*
X23671523Y-30498675D01*
X23817591Y-30420600D01*
X23861746Y-30456837D01*
X23972060Y-30515802D01*
X24091758Y-30552112D01*
X24216240Y-30564372D01*
X24380490Y-30561300D01*
X24539240Y-30402550D01*
X24539240Y-29578300D01*
X24519240Y-29578300D01*
X24519240Y-29324300D01*
X24539240Y-29324300D01*
X24539240Y-28500050D01*
X24380490Y-28341300D01*
X24216240Y-28338228D01*
X24091758Y-28350488D01*
X23972060Y-28386798D01*
X23861746Y-28445763D01*
X23817591Y-28482000D01*
X23697349Y-28417729D01*
X24482560Y-27632519D01*
X25196138Y-28346097D01*
X25116240Y-28338228D01*
X24951990Y-28341300D01*
X24793240Y-28500050D01*
X24793240Y-29324300D01*
X24813240Y-29324300D01*
X24813240Y-29578300D01*
X24793240Y-29578300D01*
X24793240Y-30402550D01*
X24951990Y-30561300D01*
X25116240Y-30564372D01*
X25240722Y-30552112D01*
X25360420Y-30515802D01*
X25470734Y-30456837D01*
X25567425Y-30377485D01*
X25646777Y-30280794D01*
X25658001Y-30259797D01*
X25658000Y-32208921D01*
X25360531Y-32506391D01*
X25354834Y-32461128D01*
X25265095Y-32275940D01*
X25140952Y-32111817D01*
X24987176Y-31975067D01*
X24809676Y-31870945D01*
X24615273Y-31803452D01*
X24411439Y-31775182D01*
X24246840Y-31940338D01*
X24246840Y-32697100D01*
X24266840Y-32697100D01*
X24266840Y-32951100D01*
X24246840Y-32951100D01*
X24246840Y-32971100D01*
X23992840Y-32971100D01*
X23992840Y-32951100D01*
X23002842Y-32951100D01*
X22875174Y-33110223D01*
X22884846Y-33187072D01*
X22974585Y-33372260D01*
X22988091Y-33390115D01*
X22973009Y-33408492D01*
X22895562Y-33553384D01*
X22847871Y-33710600D01*
X22831768Y-33874100D01*
X22831768Y-34274100D01*
X22847871Y-34437600D01*
X22895562Y-34594816D01*
X22973009Y-34739708D01*
X23077234Y-34866706D01*
X23204232Y-34970931D01*
X23234841Y-34987292D01*
X23234840Y-36283081D01*
X17222922Y-42295000D01*
X4875079Y-42295000D01*
X4568000Y-41987922D01*
X4568000Y-40964361D01*
X4583058Y-40979419D01*
X4581868Y-40991500D01*
X4581868Y-41391500D01*
X4597971Y-41555000D01*
X4645662Y-41712216D01*
X4723109Y-41857108D01*
X4827334Y-41984106D01*
X4954332Y-42088331D01*
X5099224Y-42165778D01*
X5256440Y-42213469D01*
X5419940Y-42229572D01*
X6319940Y-42229572D01*
X6483440Y-42213469D01*
X6640656Y-42165778D01*
X6785548Y-42088331D01*
X6912546Y-41984106D01*
X7016771Y-41857108D01*
X7094218Y-41712216D01*
X7141909Y-41555000D01*
X7158012Y-41391500D01*
X7158012Y-40991500D01*
X7141909Y-40828000D01*
X7094218Y-40670784D01*
X7016771Y-40525892D01*
X6995199Y-40499606D01*
X7080781Y-40339493D01*
X7139964Y-40144395D01*
X7159947Y-39941500D01*
X7139964Y-39738605D01*
X7080781Y-39543507D01*
X6984674Y-39363703D01*
X6855336Y-39206104D01*
X6854952Y-39205789D01*
X7530869Y-38529872D01*
X11765000Y-38529872D01*
X11765000Y-38970128D01*
X11850890Y-39401925D01*
X12019369Y-39808669D01*
X12263962Y-40174729D01*
X12575271Y-40486038D01*
X12941331Y-40730631D01*
X13348075Y-40899110D01*
X13779872Y-40985000D01*
X14220128Y-40985000D01*
X14651925Y-40899110D01*
X15058669Y-40730631D01*
X15424729Y-40486038D01*
X15736038Y-40174729D01*
X15980631Y-39808669D01*
X16149110Y-39401925D01*
X16235000Y-38970128D01*
X16235000Y-38529872D01*
X16149110Y-38098075D01*
X15980631Y-37691331D01*
X15736038Y-37325271D01*
X15424729Y-37013962D01*
X15058669Y-36769369D01*
X14651925Y-36600890D01*
X14220128Y-36515000D01*
X13779872Y-36515000D01*
X13348075Y-36600890D01*
X12941331Y-36769369D01*
X12575271Y-37013962D01*
X12263962Y-37325271D01*
X12019369Y-37691331D01*
X11850890Y-38098075D01*
X11765000Y-38529872D01*
X7530869Y-38529872D01*
X9401003Y-36659739D01*
X9430001Y-36635941D01*
X9524974Y-36520216D01*
X9595546Y-36388187D01*
X9639003Y-36244926D01*
X9650000Y-36133273D01*
X9650000Y-36133263D01*
X9653676Y-36095940D01*
X9650000Y-36058617D01*
X9650000Y-34250000D01*
X9961928Y-34250000D01*
X9974188Y-34374482D01*
X10010498Y-34494180D01*
X10069463Y-34604494D01*
X10148815Y-34701185D01*
X10245506Y-34780537D01*
X10355820Y-34839502D01*
X10475518Y-34875812D01*
X10600000Y-34888072D01*
X11314250Y-34885000D01*
X11473000Y-34726250D01*
X11473000Y-33827000D01*
X11727000Y-33827000D01*
X11727000Y-34726250D01*
X11885750Y-34885000D01*
X12600000Y-34888072D01*
X12724482Y-34875812D01*
X12844180Y-34839502D01*
X12954494Y-34780537D01*
X13051185Y-34701185D01*
X13130537Y-34604494D01*
X13189502Y-34494180D01*
X13225812Y-34374482D01*
X13238072Y-34250000D01*
X13235000Y-33985750D01*
X13076250Y-33827000D01*
X11727000Y-33827000D01*
X11473000Y-33827000D01*
X10123750Y-33827000D01*
X9965000Y-33985750D01*
X9961928Y-34250000D01*
X9650000Y-34250000D01*
X9650000Y-33398301D01*
X9968879Y-33079423D01*
X9961928Y-33150000D01*
X9965000Y-33414250D01*
X10123750Y-33573000D01*
X11473000Y-33573000D01*
X11473000Y-33553000D01*
X11727000Y-33553000D01*
X11727000Y-33573000D01*
X13076250Y-33573000D01*
X13235000Y-33414250D01*
X13238072Y-33150000D01*
X13225812Y-33025518D01*
X13189502Y-32905820D01*
X13159665Y-32850000D01*
X13189502Y-32794180D01*
X13225812Y-32674482D01*
X13238072Y-32550000D01*
X13238072Y-31450000D01*
X13225812Y-31325518D01*
X13189502Y-31205820D01*
X13159665Y-31150000D01*
X13189502Y-31094180D01*
X13225812Y-30974482D01*
X13238072Y-30850000D01*
X13238072Y-29750000D01*
X13225812Y-29625518D01*
X13189502Y-29505820D01*
X13130537Y-29395506D01*
X13051185Y-29298815D01*
X12954494Y-29219463D01*
X12844180Y-29160498D01*
X12724482Y-29124188D01*
X12600000Y-29111928D01*
X10600000Y-29111928D01*
X10475518Y-29124188D01*
X10355820Y-29160498D01*
X10245506Y-29219463D01*
X10148815Y-29298815D01*
X10069463Y-29395506D01*
X10010498Y-29505820D01*
X10000130Y-29540000D01*
X9551833Y-29540000D01*
X9514500Y-29536323D01*
X9477167Y-29540000D01*
X9365514Y-29550997D01*
X9222253Y-29594454D01*
X9090224Y-29665026D01*
X8974499Y-29759999D01*
X8950701Y-29788997D01*
X7901316Y-30838383D01*
X7878100Y-30794949D01*
X7914337Y-30750794D01*
X7973302Y-30640480D01*
X8009612Y-30520782D01*
X8021872Y-30396300D01*
X8018800Y-30232050D01*
X7860050Y-30073300D01*
X7035800Y-30073300D01*
X7035800Y-30093300D01*
X6781800Y-30093300D01*
X6781800Y-30073300D01*
X5957550Y-30073300D01*
X5867400Y-30163450D01*
X5726450Y-30022500D01*
X4902200Y-30022500D01*
X4902200Y-30042500D01*
X4648200Y-30042500D01*
X4648200Y-30022500D01*
X4628200Y-30022500D01*
X4628200Y-29768500D01*
X4648200Y-29768500D01*
X4648200Y-29748500D01*
X4902200Y-29748500D01*
X4902200Y-29768500D01*
X5726450Y-29768500D01*
X5816600Y-29678350D01*
X5957550Y-29819300D01*
X6781800Y-29819300D01*
X6781800Y-29020050D01*
X7035800Y-29020050D01*
X7035800Y-29819300D01*
X7860050Y-29819300D01*
X8018800Y-29660550D01*
X8021872Y-29496300D01*
X8009612Y-29371818D01*
X7973302Y-29252120D01*
X7914337Y-29141806D01*
X7834985Y-29045115D01*
X7738294Y-28965763D01*
X7627980Y-28906798D01*
X7508282Y-28870488D01*
X7383800Y-28858228D01*
X7194550Y-28861300D01*
X7035800Y-29020050D01*
X6781800Y-29020050D01*
X6623050Y-28861300D01*
X6433800Y-28858228D01*
X6309318Y-28870488D01*
X6189620Y-28906798D01*
X6079306Y-28965763D01*
X5982615Y-29045115D01*
X5903263Y-29141806D01*
X5851197Y-29239213D01*
X5839702Y-29201320D01*
X5780737Y-29091006D01*
X5701385Y-28994315D01*
X5604694Y-28914963D01*
X5494380Y-28855998D01*
X5374682Y-28819688D01*
X5250200Y-28807428D01*
X5060950Y-28810500D01*
X4902202Y-28969248D01*
X4902202Y-28875599D01*
X6810281Y-26967521D01*
X12450849Y-26967521D01*
X12427832Y-27023088D01*
%TA.AperFunction,Conductor*%
D22*
G36*
X12427832Y-27023088D02*
G01*
X12365000Y-27338967D01*
X12365000Y-27661033D01*
X12427832Y-27976912D01*
X12551082Y-28274463D01*
X12730013Y-28542252D01*
X12957748Y-28769987D01*
X13225537Y-28948918D01*
X13523088Y-29072168D01*
X13836483Y-29134506D01*
X13691226Y-29231563D01*
X13547063Y-29375726D01*
X13433795Y-29545244D01*
X13355774Y-29733602D01*
X13316000Y-29933561D01*
X13316000Y-30137439D01*
X13355774Y-30337398D01*
X13433795Y-30525756D01*
X13547063Y-30695274D01*
X13691226Y-30839437D01*
X13860744Y-30952705D01*
X14049102Y-31030726D01*
X14249061Y-31070500D01*
X14452939Y-31070500D01*
X14652898Y-31030726D01*
X14775806Y-30979816D01*
X14810498Y-31094180D01*
X14840335Y-31150000D01*
X14810498Y-31205820D01*
X14774188Y-31325518D01*
X14761928Y-31450000D01*
X14761928Y-32550000D01*
X14774188Y-32674482D01*
X14810498Y-32794180D01*
X14840335Y-32850000D01*
X14810498Y-32905820D01*
X14774188Y-33025518D01*
X14761928Y-33150000D01*
X14761928Y-34250000D01*
X14774188Y-34374482D01*
X14810498Y-34494180D01*
X14869463Y-34604494D01*
X14948815Y-34701185D01*
X15045506Y-34780537D01*
X15155820Y-34839502D01*
X15275518Y-34875812D01*
X15400000Y-34888072D01*
X17400000Y-34888072D01*
X17524482Y-34875812D01*
X17644180Y-34839502D01*
X17754494Y-34780537D01*
X17851185Y-34701185D01*
X17930537Y-34604494D01*
X17940957Y-34585000D01*
X18536951Y-34585000D01*
X18580420Y-34589281D01*
X18623889Y-34585000D01*
X18623897Y-34585000D01*
X18753910Y-34572195D01*
X18920733Y-34521589D01*
X19074479Y-34439411D01*
X19209237Y-34328817D01*
X19236954Y-34295044D01*
X20994021Y-32537977D01*
X22875174Y-32537977D01*
X23002842Y-32697100D01*
X23992840Y-32697100D01*
X23992840Y-31940338D01*
X23828241Y-31775182D01*
X23624407Y-31803452D01*
X23430004Y-31870945D01*
X23252504Y-31975067D01*
X23098728Y-32111817D01*
X22974585Y-32275940D01*
X22884846Y-32461128D01*
X22875174Y-32537977D01*
X20994021Y-32537977D01*
X21081742Y-32450257D01*
X21081747Y-32450251D01*
X21405905Y-32126093D01*
X21439677Y-32098377D01*
X21550271Y-31963619D01*
X21632449Y-31809873D01*
X21683055Y-31643050D01*
X21695860Y-31513037D01*
X21695860Y-31513027D01*
X21700141Y-31469561D01*
X21695860Y-31426095D01*
X21695860Y-30937640D01*
X22471431Y-30937640D01*
X22514900Y-30941921D01*
X22558369Y-30937640D01*
X22558377Y-30937640D01*
X22688390Y-30924835D01*
X22855213Y-30874229D01*
X23008959Y-30792051D01*
X23143717Y-30681457D01*
X23171434Y-30647684D01*
X23254746Y-30564372D01*
X23341240Y-30564372D01*
X23509617Y-30547788D01*
X23671523Y-30498675D01*
X23817591Y-30420600D01*
X23861746Y-30456837D01*
X23972060Y-30515802D01*
X24091758Y-30552112D01*
X24216240Y-30564372D01*
X24380490Y-30561300D01*
X24539240Y-30402550D01*
X24539240Y-29578300D01*
X24519240Y-29578300D01*
X24519240Y-29324300D01*
X24539240Y-29324300D01*
X24539240Y-28500050D01*
X24380490Y-28341300D01*
X24216240Y-28338228D01*
X24091758Y-28350488D01*
X23972060Y-28386798D01*
X23861746Y-28445763D01*
X23817591Y-28482000D01*
X23697349Y-28417729D01*
X24482560Y-27632519D01*
X25196138Y-28346097D01*
X25116240Y-28338228D01*
X24951990Y-28341300D01*
X24793240Y-28500050D01*
X24793240Y-29324300D01*
X24813240Y-29324300D01*
X24813240Y-29578300D01*
X24793240Y-29578300D01*
X24793240Y-30402550D01*
X24951990Y-30561300D01*
X25116240Y-30564372D01*
X25240722Y-30552112D01*
X25360420Y-30515802D01*
X25470734Y-30456837D01*
X25567425Y-30377485D01*
X25646777Y-30280794D01*
X25658001Y-30259797D01*
X25658000Y-32208921D01*
X25360531Y-32506391D01*
X25354834Y-32461128D01*
X25265095Y-32275940D01*
X25140952Y-32111817D01*
X24987176Y-31975067D01*
X24809676Y-31870945D01*
X24615273Y-31803452D01*
X24411439Y-31775182D01*
X24246840Y-31940338D01*
X24246840Y-32697100D01*
X24266840Y-32697100D01*
X24266840Y-32951100D01*
X24246840Y-32951100D01*
X24246840Y-32971100D01*
X23992840Y-32971100D01*
X23992840Y-32951100D01*
X23002842Y-32951100D01*
X22875174Y-33110223D01*
X22884846Y-33187072D01*
X22974585Y-33372260D01*
X22988091Y-33390115D01*
X22973009Y-33408492D01*
X22895562Y-33553384D01*
X22847871Y-33710600D01*
X22831768Y-33874100D01*
X22831768Y-34274100D01*
X22847871Y-34437600D01*
X22895562Y-34594816D01*
X22973009Y-34739708D01*
X23077234Y-34866706D01*
X23204232Y-34970931D01*
X23234841Y-34987292D01*
X23234840Y-36283081D01*
X17222922Y-42295000D01*
X4875079Y-42295000D01*
X4568000Y-41987922D01*
X4568000Y-40964361D01*
X4583058Y-40979419D01*
X4581868Y-40991500D01*
X4581868Y-41391500D01*
X4597971Y-41555000D01*
X4645662Y-41712216D01*
X4723109Y-41857108D01*
X4827334Y-41984106D01*
X4954332Y-42088331D01*
X5099224Y-42165778D01*
X5256440Y-42213469D01*
X5419940Y-42229572D01*
X6319940Y-42229572D01*
X6483440Y-42213469D01*
X6640656Y-42165778D01*
X6785548Y-42088331D01*
X6912546Y-41984106D01*
X7016771Y-41857108D01*
X7094218Y-41712216D01*
X7141909Y-41555000D01*
X7158012Y-41391500D01*
X7158012Y-40991500D01*
X7141909Y-40828000D01*
X7094218Y-40670784D01*
X7016771Y-40525892D01*
X6995199Y-40499606D01*
X7080781Y-40339493D01*
X7139964Y-40144395D01*
X7159947Y-39941500D01*
X7139964Y-39738605D01*
X7080781Y-39543507D01*
X6984674Y-39363703D01*
X6855336Y-39206104D01*
X6854952Y-39205789D01*
X7530869Y-38529872D01*
X11765000Y-38529872D01*
X11765000Y-38970128D01*
X11850890Y-39401925D01*
X12019369Y-39808669D01*
X12263962Y-40174729D01*
X12575271Y-40486038D01*
X12941331Y-40730631D01*
X13348075Y-40899110D01*
X13779872Y-40985000D01*
X14220128Y-40985000D01*
X14651925Y-40899110D01*
X15058669Y-40730631D01*
X15424729Y-40486038D01*
X15736038Y-40174729D01*
X15980631Y-39808669D01*
X16149110Y-39401925D01*
X16235000Y-38970128D01*
X16235000Y-38529872D01*
X16149110Y-38098075D01*
X15980631Y-37691331D01*
X15736038Y-37325271D01*
X15424729Y-37013962D01*
X15058669Y-36769369D01*
X14651925Y-36600890D01*
X14220128Y-36515000D01*
X13779872Y-36515000D01*
X13348075Y-36600890D01*
X12941331Y-36769369D01*
X12575271Y-37013962D01*
X12263962Y-37325271D01*
X12019369Y-37691331D01*
X11850890Y-38098075D01*
X11765000Y-38529872D01*
X7530869Y-38529872D01*
X9401003Y-36659739D01*
X9430001Y-36635941D01*
X9524974Y-36520216D01*
X9595546Y-36388187D01*
X9639003Y-36244926D01*
X9650000Y-36133273D01*
X9650000Y-36133263D01*
X9653676Y-36095940D01*
X9650000Y-36058617D01*
X9650000Y-34250000D01*
X9961928Y-34250000D01*
X9974188Y-34374482D01*
X10010498Y-34494180D01*
X10069463Y-34604494D01*
X10148815Y-34701185D01*
X10245506Y-34780537D01*
X10355820Y-34839502D01*
X10475518Y-34875812D01*
X10600000Y-34888072D01*
X11314250Y-34885000D01*
X11473000Y-34726250D01*
X11473000Y-33827000D01*
X11727000Y-33827000D01*
X11727000Y-34726250D01*
X11885750Y-34885000D01*
X12600000Y-34888072D01*
X12724482Y-34875812D01*
X12844180Y-34839502D01*
X12954494Y-34780537D01*
X13051185Y-34701185D01*
X13130537Y-34604494D01*
X13189502Y-34494180D01*
X13225812Y-34374482D01*
X13238072Y-34250000D01*
X13235000Y-33985750D01*
X13076250Y-33827000D01*
X11727000Y-33827000D01*
X11473000Y-33827000D01*
X10123750Y-33827000D01*
X9965000Y-33985750D01*
X9961928Y-34250000D01*
X9650000Y-34250000D01*
X9650000Y-33398301D01*
X9968879Y-33079423D01*
X9961928Y-33150000D01*
X9965000Y-33414250D01*
X10123750Y-33573000D01*
X11473000Y-33573000D01*
X11473000Y-33553000D01*
X11727000Y-33553000D01*
X11727000Y-33573000D01*
X13076250Y-33573000D01*
X13235000Y-33414250D01*
X13238072Y-33150000D01*
X13225812Y-33025518D01*
X13189502Y-32905820D01*
X13159665Y-32850000D01*
X13189502Y-32794180D01*
X13225812Y-32674482D01*
X13238072Y-32550000D01*
X13238072Y-31450000D01*
X13225812Y-31325518D01*
X13189502Y-31205820D01*
X13159665Y-31150000D01*
X13189502Y-31094180D01*
X13225812Y-30974482D01*
X13238072Y-30850000D01*
X13238072Y-29750000D01*
X13225812Y-29625518D01*
X13189502Y-29505820D01*
X13130537Y-29395506D01*
X13051185Y-29298815D01*
X12954494Y-29219463D01*
X12844180Y-29160498D01*
X12724482Y-29124188D01*
X12600000Y-29111928D01*
X10600000Y-29111928D01*
X10475518Y-29124188D01*
X10355820Y-29160498D01*
X10245506Y-29219463D01*
X10148815Y-29298815D01*
X10069463Y-29395506D01*
X10010498Y-29505820D01*
X10000130Y-29540000D01*
X9551833Y-29540000D01*
X9514500Y-29536323D01*
X9477167Y-29540000D01*
X9365514Y-29550997D01*
X9222253Y-29594454D01*
X9090224Y-29665026D01*
X8974499Y-29759999D01*
X8950701Y-29788997D01*
X7901316Y-30838383D01*
X7878100Y-30794949D01*
X7914337Y-30750794D01*
X7973302Y-30640480D01*
X8009612Y-30520782D01*
X8021872Y-30396300D01*
X8018800Y-30232050D01*
X7860050Y-30073300D01*
X7035800Y-30073300D01*
X7035800Y-30093300D01*
X6781800Y-30093300D01*
X6781800Y-30073300D01*
X5957550Y-30073300D01*
X5867400Y-30163450D01*
X5726450Y-30022500D01*
X4902200Y-30022500D01*
X4902200Y-30042500D01*
X4648200Y-30042500D01*
X4648200Y-30022500D01*
X4628200Y-30022500D01*
X4628200Y-29768500D01*
X4648200Y-29768500D01*
X4648200Y-29748500D01*
X4902200Y-29748500D01*
X4902200Y-29768500D01*
X5726450Y-29768500D01*
X5816600Y-29678350D01*
X5957550Y-29819300D01*
X6781800Y-29819300D01*
X6781800Y-29020050D01*
X7035800Y-29020050D01*
X7035800Y-29819300D01*
X7860050Y-29819300D01*
X8018800Y-29660550D01*
X8021872Y-29496300D01*
X8009612Y-29371818D01*
X7973302Y-29252120D01*
X7914337Y-29141806D01*
X7834985Y-29045115D01*
X7738294Y-28965763D01*
X7627980Y-28906798D01*
X7508282Y-28870488D01*
X7383800Y-28858228D01*
X7194550Y-28861300D01*
X7035800Y-29020050D01*
X6781800Y-29020050D01*
X6623050Y-28861300D01*
X6433800Y-28858228D01*
X6309318Y-28870488D01*
X6189620Y-28906798D01*
X6079306Y-28965763D01*
X5982615Y-29045115D01*
X5903263Y-29141806D01*
X5851197Y-29239213D01*
X5839702Y-29201320D01*
X5780737Y-29091006D01*
X5701385Y-28994315D01*
X5604694Y-28914963D01*
X5494380Y-28855998D01*
X5374682Y-28819688D01*
X5250200Y-28807428D01*
X5060950Y-28810500D01*
X4902202Y-28969248D01*
X4902202Y-28875599D01*
X6810281Y-26967521D01*
X12450849Y-26967521D01*
X12427832Y-27023088D01*
G37*
%TD.AperFunction*%
D21*
X5686998Y-36354680D02*
X5745963Y-36464994D01*
X5778500Y-36504641D01*
X5778500Y-36586750D01*
X5937250Y-36745500D01*
X5976500Y-36748572D01*
X6100982Y-36736312D01*
X6126500Y-36728571D01*
X6152018Y-36736312D01*
X6276500Y-36748572D01*
X6436126Y-36748572D01*
X4568000Y-38616699D01*
X4568000Y-37577578D01*
X5311749Y-36833830D01*
X5345517Y-36806117D01*
X5392744Y-36748572D01*
X5456111Y-36671359D01*
X5474736Y-36636514D01*
X5524500Y-36586750D01*
X5524500Y-36543412D01*
X5538289Y-36517614D01*
X5552618Y-36470379D01*
X5557037Y-36464994D01*
X5616002Y-36354680D01*
X5651500Y-36237659D01*
X5686998Y-36354680D01*
%TA.AperFunction,Conductor*%
D22*
G36*
X5686998Y-36354680D02*
G01*
X5745963Y-36464994D01*
X5778500Y-36504641D01*
X5778500Y-36586750D01*
X5937250Y-36745500D01*
X5976500Y-36748572D01*
X6100982Y-36736312D01*
X6126500Y-36728571D01*
X6152018Y-36736312D01*
X6276500Y-36748572D01*
X6436126Y-36748572D01*
X4568000Y-38616699D01*
X4568000Y-37577578D01*
X5311749Y-36833830D01*
X5345517Y-36806117D01*
X5392744Y-36748572D01*
X5456111Y-36671359D01*
X5474736Y-36636514D01*
X5524500Y-36586750D01*
X5524500Y-36543412D01*
X5538289Y-36517614D01*
X5552618Y-36470379D01*
X5557037Y-36464994D01*
X5616002Y-36354680D01*
X5651500Y-36237659D01*
X5686998Y-36354680D01*
G37*
%TD.AperFunction*%
D21*
X21558894Y-17631606D02*
X21685892Y-17735831D01*
X21830784Y-17813278D01*
X21988000Y-17860969D01*
X22151500Y-17877072D01*
X22551500Y-17877072D01*
X22715000Y-17860969D01*
X22872216Y-17813278D01*
X23017108Y-17735831D01*
X23122911Y-17649000D01*
X23547522Y-17649000D01*
X23597561Y-17699039D01*
X23597560Y-24127750D01*
X23593279Y-24171219D01*
X23597561Y-24214697D01*
X23597560Y-26014361D01*
X20215816Y-29396106D01*
X20182043Y-29423823D01*
X20071449Y-29558581D01*
X19989271Y-29712327D01*
X19938665Y-29879150D01*
X19921578Y-30052640D01*
X19925861Y-30096126D01*
X19925860Y-31102982D01*
X19830169Y-31198673D01*
X19830163Y-31198678D01*
X18213842Y-32815000D01*
X17978373Y-32815000D01*
X17989502Y-32794180D01*
X18025812Y-32674482D01*
X18027226Y-32660123D01*
X18074276Y-32634974D01*
X18190001Y-32540001D01*
X18213804Y-32510998D01*
X19307003Y-31417799D01*
X19336001Y-31394001D01*
X19430974Y-31278276D01*
X19501546Y-31146247D01*
X19545003Y-31002986D01*
X19556000Y-30891333D01*
X19556000Y-30891325D01*
X19559676Y-30854000D01*
X19556000Y-30816675D01*
X19556000Y-28135711D01*
X19599937Y-28091774D01*
X19713205Y-27922256D01*
X19791226Y-27733898D01*
X19831000Y-27533939D01*
X19831000Y-27330061D01*
X19791226Y-27130102D01*
X19713205Y-26941744D01*
X19599937Y-26772226D01*
X19455774Y-26628063D01*
X19286256Y-26514795D01*
X19097898Y-26436774D01*
X18897939Y-26397000D01*
X18694061Y-26397000D01*
X18494102Y-26436774D01*
X18305744Y-26514795D01*
X18136226Y-26628063D01*
X17992063Y-26772226D01*
X17878795Y-26941744D01*
X17800774Y-27130102D01*
X17761000Y-27330061D01*
X17761000Y-27533939D01*
X17800774Y-27733898D01*
X17878795Y-27922256D01*
X17992063Y-28091774D01*
X18036000Y-28135711D01*
X18036001Y-29728969D01*
X18025812Y-29625518D01*
X17989502Y-29505820D01*
X17930537Y-29395506D01*
X17851185Y-29298815D01*
X17754494Y-29219463D01*
X17644180Y-29160498D01*
X17524482Y-29124188D01*
X17400000Y-29111928D01*
X15400000Y-29111928D01*
X15275518Y-29124188D01*
X15155820Y-29160498D01*
X15045506Y-29219463D01*
X15019784Y-29240573D01*
X15010774Y-29231563D01*
X14841256Y-29118295D01*
X14652898Y-29040274D01*
X14586024Y-29026972D01*
X14774463Y-28948918D01*
X15042252Y-28769987D01*
X15269987Y-28542252D01*
X15448918Y-28274463D01*
X15572168Y-27976912D01*
X15635000Y-27661033D01*
X15635000Y-27338967D01*
X15572168Y-27023088D01*
X15549295Y-26967868D01*
X15552821Y-26967521D01*
X15552832Y-26967521D01*
X15664485Y-26956524D01*
X15807746Y-26913067D01*
X15939775Y-26842495D01*
X16055500Y-26747522D01*
X16079303Y-26718519D01*
X17113603Y-25684219D01*
X17142600Y-25660422D01*
X17237573Y-25544697D01*
X17308145Y-25412668D01*
X17351602Y-25269407D01*
X17362449Y-25159281D01*
X17488727Y-25184400D01*
X17766473Y-25184400D01*
X18038882Y-25130214D01*
X18295485Y-25023925D01*
X18526422Y-24869618D01*
X18722818Y-24673222D01*
X18877125Y-24442285D01*
X18983414Y-24185682D01*
X19037600Y-23913273D01*
X19037600Y-23635527D01*
X19005027Y-23471774D01*
X21212503Y-21264299D01*
X21241501Y-21240501D01*
X21285901Y-21186400D01*
X21336474Y-21124777D01*
X21407046Y-20992747D01*
X21422689Y-20941178D01*
X21450503Y-20849486D01*
X21461500Y-20737833D01*
X21461500Y-20737824D01*
X21465176Y-20700501D01*
X21461500Y-20663178D01*
X21461500Y-17658365D01*
X21494106Y-17631606D01*
X21526500Y-17592134D01*
X21558894Y-17631606D01*
%TA.AperFunction,Conductor*%
D22*
G36*
X21558894Y-17631606D02*
G01*
X21685892Y-17735831D01*
X21830784Y-17813278D01*
X21988000Y-17860969D01*
X22151500Y-17877072D01*
X22551500Y-17877072D01*
X22715000Y-17860969D01*
X22872216Y-17813278D01*
X23017108Y-17735831D01*
X23122911Y-17649000D01*
X23547522Y-17649000D01*
X23597561Y-17699039D01*
X23597560Y-24127750D01*
X23593279Y-24171219D01*
X23597561Y-24214697D01*
X23597560Y-26014361D01*
X20215816Y-29396106D01*
X20182043Y-29423823D01*
X20071449Y-29558581D01*
X19989271Y-29712327D01*
X19938665Y-29879150D01*
X19921578Y-30052640D01*
X19925861Y-30096126D01*
X19925860Y-31102982D01*
X19830169Y-31198673D01*
X19830163Y-31198678D01*
X18213842Y-32815000D01*
X17978373Y-32815000D01*
X17989502Y-32794180D01*
X18025812Y-32674482D01*
X18027226Y-32660123D01*
X18074276Y-32634974D01*
X18190001Y-32540001D01*
X18213804Y-32510998D01*
X19307003Y-31417799D01*
X19336001Y-31394001D01*
X19430974Y-31278276D01*
X19501546Y-31146247D01*
X19545003Y-31002986D01*
X19556000Y-30891333D01*
X19556000Y-30891325D01*
X19559676Y-30854000D01*
X19556000Y-30816675D01*
X19556000Y-28135711D01*
X19599937Y-28091774D01*
X19713205Y-27922256D01*
X19791226Y-27733898D01*
X19831000Y-27533939D01*
X19831000Y-27330061D01*
X19791226Y-27130102D01*
X19713205Y-26941744D01*
X19599937Y-26772226D01*
X19455774Y-26628063D01*
X19286256Y-26514795D01*
X19097898Y-26436774D01*
X18897939Y-26397000D01*
X18694061Y-26397000D01*
X18494102Y-26436774D01*
X18305744Y-26514795D01*
X18136226Y-26628063D01*
X17992063Y-26772226D01*
X17878795Y-26941744D01*
X17800774Y-27130102D01*
X17761000Y-27330061D01*
X17761000Y-27533939D01*
X17800774Y-27733898D01*
X17878795Y-27922256D01*
X17992063Y-28091774D01*
X18036000Y-28135711D01*
X18036001Y-29728969D01*
X18025812Y-29625518D01*
X17989502Y-29505820D01*
X17930537Y-29395506D01*
X17851185Y-29298815D01*
X17754494Y-29219463D01*
X17644180Y-29160498D01*
X17524482Y-29124188D01*
X17400000Y-29111928D01*
X15400000Y-29111928D01*
X15275518Y-29124188D01*
X15155820Y-29160498D01*
X15045506Y-29219463D01*
X15019784Y-29240573D01*
X15010774Y-29231563D01*
X14841256Y-29118295D01*
X14652898Y-29040274D01*
X14586024Y-29026972D01*
X14774463Y-28948918D01*
X15042252Y-28769987D01*
X15269987Y-28542252D01*
X15448918Y-28274463D01*
X15572168Y-27976912D01*
X15635000Y-27661033D01*
X15635000Y-27338967D01*
X15572168Y-27023088D01*
X15549295Y-26967868D01*
X15552821Y-26967521D01*
X15552832Y-26967521D01*
X15664485Y-26956524D01*
X15807746Y-26913067D01*
X15939775Y-26842495D01*
X16055500Y-26747522D01*
X16079303Y-26718519D01*
X17113603Y-25684219D01*
X17142600Y-25660422D01*
X17237573Y-25544697D01*
X17308145Y-25412668D01*
X17351602Y-25269407D01*
X17362449Y-25159281D01*
X17488727Y-25184400D01*
X17766473Y-25184400D01*
X18038882Y-25130214D01*
X18295485Y-25023925D01*
X18526422Y-24869618D01*
X18722818Y-24673222D01*
X18877125Y-24442285D01*
X18983414Y-24185682D01*
X19037600Y-23913273D01*
X19037600Y-23635527D01*
X19005027Y-23471774D01*
X21212503Y-21264299D01*
X21241501Y-21240501D01*
X21285901Y-21186400D01*
X21336474Y-21124777D01*
X21407046Y-20992747D01*
X21422689Y-20941178D01*
X21450503Y-20849486D01*
X21461500Y-20737833D01*
X21461500Y-20737824D01*
X21465176Y-20700501D01*
X21461500Y-20663178D01*
X21461500Y-17658365D01*
X21494106Y-17631606D01*
X21526500Y-17592134D01*
X21558894Y-17631606D01*
G37*
%TD.AperFunction*%
D21*
X27340001Y-28055065D02*
X27282411Y-27947321D01*
X27171817Y-27812563D01*
X27138049Y-27784850D01*
X25367560Y-26014362D01*
X25367560Y-24359910D01*
X25379755Y-24319709D01*
X25392560Y-24189696D01*
X25392560Y-24189686D01*
X25396841Y-24146220D01*
X25392560Y-24102754D01*
X25392560Y-23835964D01*
X25379755Y-23705951D01*
X25367560Y-23665750D01*
X25367560Y-17375929D01*
X25371841Y-17332460D01*
X25367560Y-17288991D01*
X25367560Y-16969525D01*
X25371841Y-16926059D01*
X25367560Y-16882593D01*
X25367560Y-16385326D01*
X25371841Y-16341859D01*
X25367560Y-16298393D01*
X25367560Y-16270018D01*
X27340000Y-14297579D01*
X27340001Y-28055065D01*
%TA.AperFunction,Conductor*%
D22*
G36*
X27340001Y-28055065D02*
G01*
X27282411Y-27947321D01*
X27171817Y-27812563D01*
X27138049Y-27784850D01*
X25367560Y-26014362D01*
X25367560Y-24359910D01*
X25379755Y-24319709D01*
X25392560Y-24189696D01*
X25392560Y-24189686D01*
X25396841Y-24146220D01*
X25392560Y-24102754D01*
X25392560Y-23835964D01*
X25379755Y-23705951D01*
X25367560Y-23665750D01*
X25367560Y-17375929D01*
X25371841Y-17332460D01*
X25367560Y-17288991D01*
X25367560Y-16969525D01*
X25371841Y-16926059D01*
X25367560Y-16882593D01*
X25367560Y-16385326D01*
X25371841Y-16341859D01*
X25367560Y-16298393D01*
X25367560Y-16270018D01*
X27340000Y-14297579D01*
X27340001Y-28055065D01*
G37*
%TD.AperFunction*%
D21*
X8936022Y-23568471D02*
X8922782Y-23845902D01*
X8963921Y-24120584D01*
X9057857Y-24381962D01*
X9121532Y-24501090D01*
X9362951Y-24569644D01*
X10158195Y-23774400D01*
X10144053Y-23760258D01*
X10323658Y-23580653D01*
X10337800Y-23594795D01*
X10351943Y-23580653D01*
X10531548Y-23760258D01*
X10517405Y-23774400D01*
X11312649Y-24569644D01*
X11319418Y-24567722D01*
X11340463Y-24607094D01*
X11419815Y-24703785D01*
X11516506Y-24783137D01*
X11626820Y-24842102D01*
X11746518Y-24878412D01*
X11871000Y-24890672D01*
X12379000Y-24890672D01*
X12500001Y-24878755D01*
X12621001Y-24890672D01*
X13129001Y-24890672D01*
X13253483Y-24878412D01*
X13254423Y-24878127D01*
X13339249Y-24887600D01*
X13398028Y-24828821D01*
X13483495Y-24783137D01*
X13580186Y-24703785D01*
X13625001Y-24649178D01*
X13669816Y-24703785D01*
X13766507Y-24783137D01*
X13851965Y-24828816D01*
X13910749Y-24887600D01*
X13995578Y-24878127D01*
X13996519Y-24878412D01*
X14121001Y-24890672D01*
X14629001Y-24890672D01*
X14750000Y-24878755D01*
X14870999Y-24890672D01*
X15378999Y-24890672D01*
X15503481Y-24878412D01*
X15504421Y-24878127D01*
X15589250Y-24887600D01*
X15648033Y-24828817D01*
X15733493Y-24783137D01*
X15747998Y-24771233D01*
X15747998Y-24887600D01*
X15760618Y-24887600D01*
X15200698Y-25447521D01*
X7023197Y-25447521D01*
X7721469Y-24749249D01*
X9542556Y-24749249D01*
X9611110Y-24990668D01*
X9862356Y-25109068D01*
X10131871Y-25176178D01*
X10409302Y-25189418D01*
X10683984Y-25148279D01*
X10945362Y-25054343D01*
X11064490Y-24990668D01*
X11133044Y-24749249D01*
X10337800Y-23954005D01*
X9542556Y-24749249D01*
X7721469Y-24749249D01*
X8947220Y-23523499D01*
X8936022Y-23568471D01*
%TA.AperFunction,Conductor*%
D22*
G36*
X8936022Y-23568471D02*
G01*
X8922782Y-23845902D01*
X8963921Y-24120584D01*
X9057857Y-24381962D01*
X9121532Y-24501090D01*
X9362951Y-24569644D01*
X10158195Y-23774400D01*
X10144053Y-23760258D01*
X10323658Y-23580653D01*
X10337800Y-23594795D01*
X10351943Y-23580653D01*
X10531548Y-23760258D01*
X10517405Y-23774400D01*
X11312649Y-24569644D01*
X11319418Y-24567722D01*
X11340463Y-24607094D01*
X11419815Y-24703785D01*
X11516506Y-24783137D01*
X11626820Y-24842102D01*
X11746518Y-24878412D01*
X11871000Y-24890672D01*
X12379000Y-24890672D01*
X12500001Y-24878755D01*
X12621001Y-24890672D01*
X13129001Y-24890672D01*
X13253483Y-24878412D01*
X13254423Y-24878127D01*
X13339249Y-24887600D01*
X13398028Y-24828821D01*
X13483495Y-24783137D01*
X13580186Y-24703785D01*
X13625001Y-24649178D01*
X13669816Y-24703785D01*
X13766507Y-24783137D01*
X13851965Y-24828816D01*
X13910749Y-24887600D01*
X13995578Y-24878127D01*
X13996519Y-24878412D01*
X14121001Y-24890672D01*
X14629001Y-24890672D01*
X14750000Y-24878755D01*
X14870999Y-24890672D01*
X15378999Y-24890672D01*
X15503481Y-24878412D01*
X15504421Y-24878127D01*
X15589250Y-24887600D01*
X15648033Y-24828817D01*
X15733493Y-24783137D01*
X15747998Y-24771233D01*
X15747998Y-24887600D01*
X15760618Y-24887600D01*
X15200698Y-25447521D01*
X7023197Y-25447521D01*
X7721469Y-24749249D01*
X9542556Y-24749249D01*
X9611110Y-24990668D01*
X9862356Y-25109068D01*
X10131871Y-25176178D01*
X10409302Y-25189418D01*
X10683984Y-25148279D01*
X10945362Y-25054343D01*
X11064490Y-24990668D01*
X11133044Y-24749249D01*
X10337800Y-23954005D01*
X9542556Y-24749249D01*
X7721469Y-24749249D01*
X8947220Y-23523499D01*
X8936022Y-23568471D01*
G37*
%TD.AperFunction*%
D21*
X5863500Y-14509689D02*
X6027000Y-14525792D01*
X6846800Y-14525792D01*
X6846800Y-15025378D01*
X6843124Y-15062700D01*
X6846800Y-15100022D01*
X6846800Y-15100032D01*
X6857797Y-15211685D01*
X6882983Y-15294712D01*
X6901254Y-15354946D01*
X6971826Y-15486976D01*
X7005771Y-15528338D01*
X7066799Y-15602701D01*
X7095803Y-15626504D01*
X11365000Y-19895702D01*
X11365000Y-20233832D01*
X11365001Y-20233839D01*
X11365001Y-20267561D01*
X11236622Y-20139182D01*
X11005685Y-19984875D01*
X10749082Y-19878586D01*
X10476673Y-19824400D01*
X10198927Y-19824400D01*
X9926518Y-19878586D01*
X9669915Y-19984875D01*
X9438978Y-20139182D01*
X9242582Y-20335578D01*
X9088275Y-20566515D01*
X8981986Y-20823118D01*
X8927800Y-21095527D01*
X8927800Y-21373273D01*
X8981986Y-21645682D01*
X8986881Y-21657500D01*
X8633163Y-21657500D01*
X8503150Y-21670305D01*
X8336327Y-21720911D01*
X8182581Y-21803089D01*
X8047823Y-21913683D01*
X8010041Y-21959719D01*
X7997773Y-21969788D01*
X5774500Y-24193062D01*
X5774500Y-14482691D01*
X5863500Y-14509689D01*
%TA.AperFunction,Conductor*%
D22*
G36*
X5863500Y-14509689D02*
G01*
X6027000Y-14525792D01*
X6846800Y-14525792D01*
X6846800Y-15025378D01*
X6843124Y-15062700D01*
X6846800Y-15100022D01*
X6846800Y-15100032D01*
X6857797Y-15211685D01*
X6882983Y-15294712D01*
X6901254Y-15354946D01*
X6971826Y-15486976D01*
X7005771Y-15528338D01*
X7066799Y-15602701D01*
X7095803Y-15626504D01*
X11365000Y-19895702D01*
X11365000Y-20233832D01*
X11365001Y-20233839D01*
X11365001Y-20267561D01*
X11236622Y-20139182D01*
X11005685Y-19984875D01*
X10749082Y-19878586D01*
X10476673Y-19824400D01*
X10198927Y-19824400D01*
X9926518Y-19878586D01*
X9669915Y-19984875D01*
X9438978Y-20139182D01*
X9242582Y-20335578D01*
X9088275Y-20566515D01*
X8981986Y-20823118D01*
X8927800Y-21095527D01*
X8927800Y-21373273D01*
X8981986Y-21645682D01*
X8986881Y-21657500D01*
X8633163Y-21657500D01*
X8503150Y-21670305D01*
X8336327Y-21720911D01*
X8182581Y-21803089D01*
X8047823Y-21913683D01*
X8010041Y-21959719D01*
X7997773Y-21969788D01*
X5774500Y-24193062D01*
X5774500Y-14482691D01*
X5863500Y-14509689D01*
G37*
%TD.AperFunction*%
D21*
X13818226Y-13821437D02*
X13987744Y-13934705D01*
X14176102Y-14012726D01*
X14376061Y-14052500D01*
X14579939Y-14052500D01*
X14777951Y-14013113D01*
X14774188Y-14025518D01*
X14761928Y-14150000D01*
X14761928Y-15250000D01*
X14774188Y-15374482D01*
X14810498Y-15494180D01*
X14869463Y-15604494D01*
X14948815Y-15701185D01*
X15045506Y-15780537D01*
X15155820Y-15839502D01*
X15275518Y-15875812D01*
X15400000Y-15888072D01*
X17400000Y-15888072D01*
X17524482Y-15875812D01*
X17644180Y-15839502D01*
X17754494Y-15780537D01*
X17851185Y-15701185D01*
X17930537Y-15604494D01*
X17940957Y-15585000D01*
X18806531Y-15585000D01*
X18850000Y-15589281D01*
X18893469Y-15585000D01*
X18893477Y-15585000D01*
X19023490Y-15572195D01*
X19190313Y-15521589D01*
X19344059Y-15439411D01*
X19478817Y-15328817D01*
X19506534Y-15295044D01*
X20030829Y-14770750D01*
X20389418Y-14770750D01*
X20379510Y-14820561D01*
X20379510Y-14882698D01*
X20190497Y-15071711D01*
X20161500Y-15095509D01*
X20137702Y-15124507D01*
X20137701Y-15124508D01*
X20066526Y-15211234D01*
X19995954Y-15343264D01*
X19974875Y-15412756D01*
X19952498Y-15486524D01*
X19942799Y-15585000D01*
X19937824Y-15635510D01*
X19941501Y-15672842D01*
X19941501Y-15869634D01*
X19908894Y-15896394D01*
X19804669Y-16023392D01*
X19727222Y-16168284D01*
X19679531Y-16325500D01*
X19663428Y-16489000D01*
X19663428Y-17039000D01*
X19679531Y-17202500D01*
X19727222Y-17359716D01*
X19804669Y-17504608D01*
X19908894Y-17631606D01*
X19941500Y-17658365D01*
X19941501Y-19247578D01*
X19749592Y-19285751D01*
X19561234Y-19363772D01*
X19391716Y-19477040D01*
X19247553Y-19621203D01*
X19134285Y-19790721D01*
X19056264Y-19979079D01*
X19016490Y-20179038D01*
X19016490Y-20294708D01*
X18812419Y-20498780D01*
X18602449Y-20439156D01*
X17807205Y-21234400D01*
X17821348Y-21248543D01*
X17641743Y-21428148D01*
X17627600Y-21414005D01*
X17613458Y-21428148D01*
X17433853Y-21248543D01*
X17447995Y-21234400D01*
X16719237Y-20505642D01*
X16718502Y-20503220D01*
X16659537Y-20392906D01*
X16580185Y-20296215D01*
X16535510Y-20259551D01*
X16832356Y-20259551D01*
X17627600Y-21054795D01*
X18422844Y-20259551D01*
X18354290Y-20018132D01*
X18103044Y-19899732D01*
X17833529Y-19832622D01*
X17556098Y-19819382D01*
X17281416Y-19860521D01*
X17020038Y-19954457D01*
X16900910Y-20018132D01*
X16832356Y-20259551D01*
X16535510Y-20259551D01*
X16483494Y-20216863D01*
X16373180Y-20157898D01*
X16253482Y-20121588D01*
X16129000Y-20109328D01*
X15621000Y-20109328D01*
X15500000Y-20121245D01*
X15378999Y-20109328D01*
X14870999Y-20109328D01*
X14750000Y-20121245D01*
X14629001Y-20109328D01*
X14384999Y-20109328D01*
X14384999Y-19537567D01*
X14388675Y-19500245D01*
X14384999Y-19462922D01*
X14384999Y-19462912D01*
X14374002Y-19351259D01*
X14330545Y-19207998D01*
X14288707Y-19129726D01*
X14278986Y-19111538D01*
X14476912Y-19072168D01*
X14774463Y-18948918D01*
X15042252Y-18769987D01*
X15269987Y-18542252D01*
X15448918Y-18274463D01*
X15572168Y-17976912D01*
X15635000Y-17661033D01*
X15635000Y-17338967D01*
X15572168Y-17023088D01*
X15448918Y-16725537D01*
X15269987Y-16457748D01*
X15042252Y-16230013D01*
X14774463Y-16051082D01*
X14476912Y-15927832D01*
X14161033Y-15865000D01*
X13838967Y-15865000D01*
X13523088Y-15927832D01*
X13225537Y-16051082D01*
X12957748Y-16230013D01*
X12730013Y-16457748D01*
X12551082Y-16725537D01*
X12427832Y-17023088D01*
X12393789Y-17194234D01*
X11085539Y-15885984D01*
X11314250Y-15885000D01*
X11473000Y-15726250D01*
X11473000Y-14827000D01*
X11727000Y-14827000D01*
X11727000Y-15726250D01*
X11885750Y-15885000D01*
X12600000Y-15888072D01*
X12724482Y-15875812D01*
X12844180Y-15839502D01*
X12954494Y-15780537D01*
X13051185Y-15701185D01*
X13130537Y-15604494D01*
X13189502Y-15494180D01*
X13225812Y-15374482D01*
X13238072Y-15250000D01*
X13235000Y-14985750D01*
X13076250Y-14827000D01*
X11727000Y-14827000D01*
X11473000Y-14827000D01*
X11453000Y-14827000D01*
X11453000Y-14573000D01*
X11473000Y-14573000D01*
X11473000Y-14553000D01*
X11727000Y-14553000D01*
X11727000Y-14573000D01*
X13076250Y-14573000D01*
X13235000Y-14414250D01*
X13238072Y-14150000D01*
X13225812Y-14025518D01*
X13189502Y-13905820D01*
X13159665Y-13850000D01*
X13189502Y-13794180D01*
X13194562Y-13777500D01*
X13774289Y-13777500D01*
X13818226Y-13821437D01*
%TA.AperFunction,Conductor*%
D22*
G36*
X13818226Y-13821437D02*
G01*
X13987744Y-13934705D01*
X14176102Y-14012726D01*
X14376061Y-14052500D01*
X14579939Y-14052500D01*
X14777951Y-14013113D01*
X14774188Y-14025518D01*
X14761928Y-14150000D01*
X14761928Y-15250000D01*
X14774188Y-15374482D01*
X14810498Y-15494180D01*
X14869463Y-15604494D01*
X14948815Y-15701185D01*
X15045506Y-15780537D01*
X15155820Y-15839502D01*
X15275518Y-15875812D01*
X15400000Y-15888072D01*
X17400000Y-15888072D01*
X17524482Y-15875812D01*
X17644180Y-15839502D01*
X17754494Y-15780537D01*
X17851185Y-15701185D01*
X17930537Y-15604494D01*
X17940957Y-15585000D01*
X18806531Y-15585000D01*
X18850000Y-15589281D01*
X18893469Y-15585000D01*
X18893477Y-15585000D01*
X19023490Y-15572195D01*
X19190313Y-15521589D01*
X19344059Y-15439411D01*
X19478817Y-15328817D01*
X19506534Y-15295044D01*
X20030829Y-14770750D01*
X20389418Y-14770750D01*
X20379510Y-14820561D01*
X20379510Y-14882698D01*
X20190497Y-15071711D01*
X20161500Y-15095509D01*
X20137702Y-15124507D01*
X20137701Y-15124508D01*
X20066526Y-15211234D01*
X19995954Y-15343264D01*
X19974875Y-15412756D01*
X19952498Y-15486524D01*
X19942799Y-15585000D01*
X19937824Y-15635510D01*
X19941501Y-15672842D01*
X19941501Y-15869634D01*
X19908894Y-15896394D01*
X19804669Y-16023392D01*
X19727222Y-16168284D01*
X19679531Y-16325500D01*
X19663428Y-16489000D01*
X19663428Y-17039000D01*
X19679531Y-17202500D01*
X19727222Y-17359716D01*
X19804669Y-17504608D01*
X19908894Y-17631606D01*
X19941500Y-17658365D01*
X19941501Y-19247578D01*
X19749592Y-19285751D01*
X19561234Y-19363772D01*
X19391716Y-19477040D01*
X19247553Y-19621203D01*
X19134285Y-19790721D01*
X19056264Y-19979079D01*
X19016490Y-20179038D01*
X19016490Y-20294708D01*
X18812419Y-20498780D01*
X18602449Y-20439156D01*
X17807205Y-21234400D01*
X17821348Y-21248543D01*
X17641743Y-21428148D01*
X17627600Y-21414005D01*
X17613458Y-21428148D01*
X17433853Y-21248543D01*
X17447995Y-21234400D01*
X16719237Y-20505642D01*
X16718502Y-20503220D01*
X16659537Y-20392906D01*
X16580185Y-20296215D01*
X16535510Y-20259551D01*
X16832356Y-20259551D01*
X17627600Y-21054795D01*
X18422844Y-20259551D01*
X18354290Y-20018132D01*
X18103044Y-19899732D01*
X17833529Y-19832622D01*
X17556098Y-19819382D01*
X17281416Y-19860521D01*
X17020038Y-19954457D01*
X16900910Y-20018132D01*
X16832356Y-20259551D01*
X16535510Y-20259551D01*
X16483494Y-20216863D01*
X16373180Y-20157898D01*
X16253482Y-20121588D01*
X16129000Y-20109328D01*
X15621000Y-20109328D01*
X15500000Y-20121245D01*
X15378999Y-20109328D01*
X14870999Y-20109328D01*
X14750000Y-20121245D01*
X14629001Y-20109328D01*
X14384999Y-20109328D01*
X14384999Y-19537567D01*
X14388675Y-19500245D01*
X14384999Y-19462922D01*
X14384999Y-19462912D01*
X14374002Y-19351259D01*
X14330545Y-19207998D01*
X14288707Y-19129726D01*
X14278986Y-19111538D01*
X14476912Y-19072168D01*
X14774463Y-18948918D01*
X15042252Y-18769987D01*
X15269987Y-18542252D01*
X15448918Y-18274463D01*
X15572168Y-17976912D01*
X15635000Y-17661033D01*
X15635000Y-17338967D01*
X15572168Y-17023088D01*
X15448918Y-16725537D01*
X15269987Y-16457748D01*
X15042252Y-16230013D01*
X14774463Y-16051082D01*
X14476912Y-15927832D01*
X14161033Y-15865000D01*
X13838967Y-15865000D01*
X13523088Y-15927832D01*
X13225537Y-16051082D01*
X12957748Y-16230013D01*
X12730013Y-16457748D01*
X12551082Y-16725537D01*
X12427832Y-17023088D01*
X12393789Y-17194234D01*
X11085539Y-15885984D01*
X11314250Y-15885000D01*
X11473000Y-15726250D01*
X11473000Y-14827000D01*
X11727000Y-14827000D01*
X11727000Y-15726250D01*
X11885750Y-15885000D01*
X12600000Y-15888072D01*
X12724482Y-15875812D01*
X12844180Y-15839502D01*
X12954494Y-15780537D01*
X13051185Y-15701185D01*
X13130537Y-15604494D01*
X13189502Y-15494180D01*
X13225812Y-15374482D01*
X13238072Y-15250000D01*
X13235000Y-14985750D01*
X13076250Y-14827000D01*
X11727000Y-14827000D01*
X11473000Y-14827000D01*
X11453000Y-14827000D01*
X11453000Y-14573000D01*
X11473000Y-14573000D01*
X11473000Y-14553000D01*
X11727000Y-14553000D01*
X11727000Y-14573000D01*
X13076250Y-14573000D01*
X13235000Y-14414250D01*
X13238072Y-14150000D01*
X13225812Y-14025518D01*
X13189502Y-13905820D01*
X13159665Y-13850000D01*
X13189502Y-13794180D01*
X13194562Y-13777500D01*
X13774289Y-13777500D01*
X13818226Y-13821437D01*
G37*
%TD.AperFunction*%
D21*
X25912001Y-13222420D02*
X24263350Y-14871072D01*
X23887876Y-14495598D01*
X23887872Y-14495593D01*
X22859128Y-13466850D01*
X22891106Y-13440606D01*
X22923500Y-13401134D01*
X22955894Y-13440606D01*
X23082892Y-13544831D01*
X23227784Y-13622278D01*
X23385000Y-13669969D01*
X23548500Y-13686072D01*
X23948500Y-13686072D01*
X24112000Y-13669969D01*
X24269216Y-13622278D01*
X24414108Y-13544831D01*
X24541106Y-13440606D01*
X24645331Y-13313608D01*
X24722778Y-13168716D01*
X24770469Y-13011500D01*
X24786572Y-12848000D01*
X24786572Y-12727274D01*
X25475097Y-12038750D01*
X25503137Y-12015738D01*
X25526150Y-11987697D01*
X25526153Y-11987694D01*
X25594987Y-11903820D01*
X25663237Y-11776134D01*
X25705265Y-11637585D01*
X25719456Y-11493500D01*
X25715900Y-11457395D01*
X25715900Y-9664346D01*
X25912001Y-9468246D01*
X25912001Y-13222420D01*
%TA.AperFunction,Conductor*%
D22*
G36*
X25912001Y-13222420D02*
G01*
X24263350Y-14871072D01*
X23887876Y-14495598D01*
X23887872Y-14495593D01*
X22859128Y-13466850D01*
X22891106Y-13440606D01*
X22923500Y-13401134D01*
X22955894Y-13440606D01*
X23082892Y-13544831D01*
X23227784Y-13622278D01*
X23385000Y-13669969D01*
X23548500Y-13686072D01*
X23948500Y-13686072D01*
X24112000Y-13669969D01*
X24269216Y-13622278D01*
X24414108Y-13544831D01*
X24541106Y-13440606D01*
X24645331Y-13313608D01*
X24722778Y-13168716D01*
X24770469Y-13011500D01*
X24786572Y-12848000D01*
X24786572Y-12727274D01*
X25475097Y-12038750D01*
X25503137Y-12015738D01*
X25526150Y-11987697D01*
X25526153Y-11987694D01*
X25594987Y-11903820D01*
X25663237Y-11776134D01*
X25705265Y-11637585D01*
X25719456Y-11493500D01*
X25715900Y-11457395D01*
X25715900Y-9664346D01*
X25912001Y-9468246D01*
X25912001Y-13222420D01*
G37*
%TD.AperFunction*%
D21*
X27340000Y-4371421D02*
X26497534Y-3528956D01*
X26469817Y-3495183D01*
X26335059Y-3384589D01*
X26181313Y-3302411D01*
X26161671Y-3296452D01*
X26190494Y-3236972D01*
X26200166Y-3160123D01*
X26072498Y-3001000D01*
X25082500Y-3001000D01*
X25082500Y-3021000D01*
X24828500Y-3021000D01*
X24828500Y-3001000D01*
X23838502Y-3001000D01*
X23710834Y-3160123D01*
X23720506Y-3236972D01*
X23810245Y-3422160D01*
X23873709Y-3506062D01*
X23840766Y-3546203D01*
X23744659Y-3726007D01*
X23685476Y-3921105D01*
X23665493Y-4124000D01*
X23685476Y-4326895D01*
X23744659Y-4521993D01*
X23840766Y-4701797D01*
X23879504Y-4749000D01*
X23840766Y-4796203D01*
X23744659Y-4976007D01*
X23685476Y-5171105D01*
X23665493Y-5374000D01*
X23685476Y-5576895D01*
X23744659Y-5771993D01*
X23840766Y-5951797D01*
X23847710Y-5960259D01*
X23754814Y-6009913D01*
X23642896Y-6101762D01*
X23619875Y-6129813D01*
X23254308Y-6495380D01*
X23226263Y-6518396D01*
X23134414Y-6630314D01*
X23111433Y-6673309D01*
X23066164Y-6758001D01*
X23024135Y-6896549D01*
X23009944Y-7040634D01*
X23013501Y-7076749D01*
X23013500Y-10007118D01*
X22955894Y-10054394D01*
X22923500Y-10093866D01*
X22891106Y-10054394D01*
X22764108Y-9950169D01*
X22619216Y-9872722D01*
X22462000Y-9825031D01*
X22298500Y-9808928D01*
X21898500Y-9808928D01*
X21871854Y-9811552D01*
X21799500Y-9739199D01*
X21799500Y-9677061D01*
X21759726Y-9477102D01*
X21681705Y-9288744D01*
X21568437Y-9119226D01*
X21424274Y-8975063D01*
X21254756Y-8861795D01*
X21066398Y-8783774D01*
X20866439Y-8744000D01*
X20662561Y-8744000D01*
X20635500Y-8749383D01*
X20635500Y-6804501D01*
X22196253Y-5243749D01*
X22225251Y-5219951D01*
X22287563Y-5144024D01*
X22320224Y-5104227D01*
X22390796Y-4972197D01*
X22393379Y-4963681D01*
X22434253Y-4828936D01*
X22445250Y-4717283D01*
X22445250Y-4717273D01*
X22448926Y-4679950D01*
X22445250Y-4642627D01*
X22445250Y-3091675D01*
X22448926Y-3054350D01*
X22445250Y-3017025D01*
X22445250Y-3017017D01*
X22434253Y-2905364D01*
X22390796Y-2762103D01*
X22320224Y-2630074D01*
X22285594Y-2587877D01*
X23710834Y-2587877D01*
X23838502Y-2747000D01*
X24828500Y-2747000D01*
X24828500Y-1990238D01*
X25082500Y-1990238D01*
X25082500Y-2747000D01*
X26072498Y-2747000D01*
X26200166Y-2587877D01*
X26190494Y-2511028D01*
X26100755Y-2325840D01*
X25976612Y-2161717D01*
X25822836Y-2024967D01*
X25645336Y-1920845D01*
X25450933Y-1853352D01*
X25247099Y-1825082D01*
X25082500Y-1990238D01*
X24828500Y-1990238D01*
X24663901Y-1825082D01*
X24460067Y-1853352D01*
X24265664Y-1920845D01*
X24088164Y-2024967D01*
X23934388Y-2161717D01*
X23810245Y-2325840D01*
X23720506Y-2511028D01*
X23710834Y-2587877D01*
X22285594Y-2587877D01*
X22225251Y-2514349D01*
X22196248Y-2490547D01*
X22072204Y-2366503D01*
X22048401Y-2337499D01*
X21932676Y-2242526D01*
X21800647Y-2171954D01*
X21657386Y-2128497D01*
X21642647Y-2127045D01*
X21503397Y-2012766D01*
X21323593Y-1916659D01*
X21128495Y-1857476D01*
X20976438Y-1842500D01*
X20374762Y-1842500D01*
X20222705Y-1857476D01*
X20027607Y-1916659D01*
X19847803Y-2012766D01*
X19690204Y-2142104D01*
X19560866Y-2299703D01*
X19464759Y-2479507D01*
X19405576Y-2674605D01*
X19385593Y-2877500D01*
X19405576Y-3080395D01*
X19464759Y-3275493D01*
X19550341Y-3435606D01*
X19528769Y-3461892D01*
X19451322Y-3606784D01*
X19403631Y-3764000D01*
X19387528Y-3927500D01*
X19387528Y-4327500D01*
X19403631Y-4491000D01*
X19451322Y-4648216D01*
X19528769Y-4793108D01*
X19570338Y-4843760D01*
X18919998Y-5494101D01*
X18891000Y-5517899D01*
X18867202Y-5546897D01*
X18867201Y-5546898D01*
X18796026Y-5633624D01*
X18725454Y-5765654D01*
X18697103Y-5859117D01*
X18681998Y-5908914D01*
X18678772Y-5941664D01*
X18667324Y-6057900D01*
X18671001Y-6095232D01*
X18671000Y-8702198D01*
X17261271Y-10111928D01*
X15400000Y-10111928D01*
X15275518Y-10124188D01*
X15155820Y-10160498D01*
X15045506Y-10219463D01*
X14948815Y-10298815D01*
X14869463Y-10395506D01*
X14810498Y-10505820D01*
X14774188Y-10625518D01*
X14761928Y-10750000D01*
X14761928Y-11850000D01*
X14774188Y-11974482D01*
X14789948Y-12026437D01*
X14779898Y-12022274D01*
X14579939Y-11982500D01*
X14376061Y-11982500D01*
X14293236Y-11998975D01*
X14392937Y-11899274D01*
X14506205Y-11729756D01*
X14584226Y-11541398D01*
X14624000Y-11341439D01*
X14624000Y-11137561D01*
X14584226Y-10937602D01*
X14506205Y-10749244D01*
X14392937Y-10579726D01*
X14248774Y-10435563D01*
X14079256Y-10322295D01*
X13890898Y-10244274D01*
X13690939Y-10204500D01*
X13487061Y-10204500D01*
X13287102Y-10244274D01*
X13098744Y-10322295D01*
X13080473Y-10334503D01*
X13051185Y-10298815D01*
X12954494Y-10219463D01*
X12844180Y-10160498D01*
X12724482Y-10124188D01*
X12600000Y-10111928D01*
X10600000Y-10111928D01*
X10475518Y-10124188D01*
X10355820Y-10160498D01*
X10245506Y-10219463D01*
X10148815Y-10298815D01*
X10069463Y-10395506D01*
X10010498Y-10505820D01*
X9974188Y-10625518D01*
X9961928Y-10750000D01*
X9961928Y-11850000D01*
X9974188Y-11974482D01*
X10010498Y-12094180D01*
X10040335Y-12150000D01*
X10010498Y-12205820D01*
X9974188Y-12325518D01*
X9961928Y-12450000D01*
X9961928Y-13550000D01*
X9974188Y-13674482D01*
X10010498Y-13794180D01*
X10040335Y-13850000D01*
X10010498Y-13905820D01*
X9974188Y-14025518D01*
X9961928Y-14150000D01*
X9965000Y-14414250D01*
X10123748Y-14572998D01*
X10100956Y-14572998D01*
X9919865Y-14497987D01*
X9719906Y-14458213D01*
X9516028Y-14458213D01*
X9316069Y-14497987D01*
X9141801Y-14570172D01*
X9141801Y-6029872D01*
X11765000Y-6029872D01*
X11765000Y-6470128D01*
X11850890Y-6901925D01*
X12019369Y-7308669D01*
X12263962Y-7674729D01*
X12575271Y-7986038D01*
X12941331Y-8230631D01*
X13348075Y-8399110D01*
X13779872Y-8485000D01*
X14220128Y-8485000D01*
X14651925Y-8399110D01*
X15058669Y-8230631D01*
X15424729Y-7986038D01*
X15736038Y-7674729D01*
X15980631Y-7308669D01*
X16149110Y-6901925D01*
X16235000Y-6470128D01*
X16235000Y-6029872D01*
X16149110Y-5598075D01*
X15980631Y-5191331D01*
X15736038Y-4825271D01*
X15424729Y-4513962D01*
X15058669Y-4269369D01*
X14651925Y-4100890D01*
X14220128Y-4015000D01*
X13779872Y-4015000D01*
X13348075Y-4100890D01*
X12941331Y-4269369D01*
X12575271Y-4513962D01*
X12263962Y-4825271D01*
X12019369Y-5191331D01*
X11850890Y-5598075D01*
X11765000Y-6029872D01*
X9141801Y-6029872D01*
X9141801Y-4265904D01*
X9145477Y-4228579D01*
X9141801Y-4191254D01*
X9141801Y-4191246D01*
X9130804Y-4079593D01*
X9087347Y-3936332D01*
X9016775Y-3804303D01*
X8921802Y-3688578D01*
X8892798Y-3664775D01*
X8701816Y-3473793D01*
X8678013Y-3444789D01*
X8562288Y-3349816D01*
X8430259Y-3279244D01*
X8286998Y-3235787D01*
X8175345Y-3224790D01*
X8175334Y-3224790D01*
X8138012Y-3221114D01*
X8100690Y-3224790D01*
X7819872Y-3224790D01*
X7819872Y-2428580D01*
X7807612Y-2304098D01*
X7771302Y-2184400D01*
X7712337Y-2074086D01*
X7632985Y-1977395D01*
X7536294Y-1898043D01*
X7425980Y-1839078D01*
X7306282Y-1802768D01*
X7181800Y-1790508D01*
X6381800Y-1790508D01*
X6257318Y-1802768D01*
X6137620Y-1839078D01*
X6027306Y-1898043D01*
X5930615Y-1977395D01*
X5851263Y-2074086D01*
X5814117Y-2143580D01*
X4184685Y-2143580D01*
X4148580Y-2140024D01*
X4004495Y-2154215D01*
X3865946Y-2196243D01*
X3798096Y-2232510D01*
X3783502Y-2184400D01*
X3724537Y-2074086D01*
X3645185Y-1977395D01*
X3548494Y-1898043D01*
X3438180Y-1839078D01*
X3318482Y-1802768D01*
X3194000Y-1790508D01*
X2394000Y-1790508D01*
X2269518Y-1802768D01*
X2149820Y-1839078D01*
X2039506Y-1898043D01*
X1942815Y-1977395D01*
X1863463Y-2074086D01*
X1814620Y-2165463D01*
X1713152Y-2196243D01*
X1626563Y-2242526D01*
X1585466Y-2264493D01*
X1473548Y-2356342D01*
X1450532Y-2384387D01*
X660000Y-3174920D01*
X660000Y-660000D01*
X27340000Y-660000D01*
X27340000Y-4371421D01*
%TA.AperFunction,Conductor*%
D22*
G36*
X27340000Y-4371421D02*
G01*
X26497534Y-3528956D01*
X26469817Y-3495183D01*
X26335059Y-3384589D01*
X26181313Y-3302411D01*
X26161671Y-3296452D01*
X26190494Y-3236972D01*
X26200166Y-3160123D01*
X26072498Y-3001000D01*
X25082500Y-3001000D01*
X25082500Y-3021000D01*
X24828500Y-3021000D01*
X24828500Y-3001000D01*
X23838502Y-3001000D01*
X23710834Y-3160123D01*
X23720506Y-3236972D01*
X23810245Y-3422160D01*
X23873709Y-3506062D01*
X23840766Y-3546203D01*
X23744659Y-3726007D01*
X23685476Y-3921105D01*
X23665493Y-4124000D01*
X23685476Y-4326895D01*
X23744659Y-4521993D01*
X23840766Y-4701797D01*
X23879504Y-4749000D01*
X23840766Y-4796203D01*
X23744659Y-4976007D01*
X23685476Y-5171105D01*
X23665493Y-5374000D01*
X23685476Y-5576895D01*
X23744659Y-5771993D01*
X23840766Y-5951797D01*
X23847710Y-5960259D01*
X23754814Y-6009913D01*
X23642896Y-6101762D01*
X23619875Y-6129813D01*
X23254308Y-6495380D01*
X23226263Y-6518396D01*
X23134414Y-6630314D01*
X23111433Y-6673309D01*
X23066164Y-6758001D01*
X23024135Y-6896549D01*
X23009944Y-7040634D01*
X23013501Y-7076749D01*
X23013500Y-10007118D01*
X22955894Y-10054394D01*
X22923500Y-10093866D01*
X22891106Y-10054394D01*
X22764108Y-9950169D01*
X22619216Y-9872722D01*
X22462000Y-9825031D01*
X22298500Y-9808928D01*
X21898500Y-9808928D01*
X21871854Y-9811552D01*
X21799500Y-9739199D01*
X21799500Y-9677061D01*
X21759726Y-9477102D01*
X21681705Y-9288744D01*
X21568437Y-9119226D01*
X21424274Y-8975063D01*
X21254756Y-8861795D01*
X21066398Y-8783774D01*
X20866439Y-8744000D01*
X20662561Y-8744000D01*
X20635500Y-8749383D01*
X20635500Y-6804501D01*
X22196253Y-5243749D01*
X22225251Y-5219951D01*
X22287563Y-5144024D01*
X22320224Y-5104227D01*
X22390796Y-4972197D01*
X22393379Y-4963681D01*
X22434253Y-4828936D01*
X22445250Y-4717283D01*
X22445250Y-4717273D01*
X22448926Y-4679950D01*
X22445250Y-4642627D01*
X22445250Y-3091675D01*
X22448926Y-3054350D01*
X22445250Y-3017025D01*
X22445250Y-3017017D01*
X22434253Y-2905364D01*
X22390796Y-2762103D01*
X22320224Y-2630074D01*
X22285594Y-2587877D01*
X23710834Y-2587877D01*
X23838502Y-2747000D01*
X24828500Y-2747000D01*
X24828500Y-1990238D01*
X25082500Y-1990238D01*
X25082500Y-2747000D01*
X26072498Y-2747000D01*
X26200166Y-2587877D01*
X26190494Y-2511028D01*
X26100755Y-2325840D01*
X25976612Y-2161717D01*
X25822836Y-2024967D01*
X25645336Y-1920845D01*
X25450933Y-1853352D01*
X25247099Y-1825082D01*
X25082500Y-1990238D01*
X24828500Y-1990238D01*
X24663901Y-1825082D01*
X24460067Y-1853352D01*
X24265664Y-1920845D01*
X24088164Y-2024967D01*
X23934388Y-2161717D01*
X23810245Y-2325840D01*
X23720506Y-2511028D01*
X23710834Y-2587877D01*
X22285594Y-2587877D01*
X22225251Y-2514349D01*
X22196248Y-2490547D01*
X22072204Y-2366503D01*
X22048401Y-2337499D01*
X21932676Y-2242526D01*
X21800647Y-2171954D01*
X21657386Y-2128497D01*
X21642647Y-2127045D01*
X21503397Y-2012766D01*
X21323593Y-1916659D01*
X21128495Y-1857476D01*
X20976438Y-1842500D01*
X20374762Y-1842500D01*
X20222705Y-1857476D01*
X20027607Y-1916659D01*
X19847803Y-2012766D01*
X19690204Y-2142104D01*
X19560866Y-2299703D01*
X19464759Y-2479507D01*
X19405576Y-2674605D01*
X19385593Y-2877500D01*
X19405576Y-3080395D01*
X19464759Y-3275493D01*
X19550341Y-3435606D01*
X19528769Y-3461892D01*
X19451322Y-3606784D01*
X19403631Y-3764000D01*
X19387528Y-3927500D01*
X19387528Y-4327500D01*
X19403631Y-4491000D01*
X19451322Y-4648216D01*
X19528769Y-4793108D01*
X19570338Y-4843760D01*
X18919998Y-5494101D01*
X18891000Y-5517899D01*
X18867202Y-5546897D01*
X18867201Y-5546898D01*
X18796026Y-5633624D01*
X18725454Y-5765654D01*
X18697103Y-5859117D01*
X18681998Y-5908914D01*
X18678772Y-5941664D01*
X18667324Y-6057900D01*
X18671001Y-6095232D01*
X18671000Y-8702198D01*
X17261271Y-10111928D01*
X15400000Y-10111928D01*
X15275518Y-10124188D01*
X15155820Y-10160498D01*
X15045506Y-10219463D01*
X14948815Y-10298815D01*
X14869463Y-10395506D01*
X14810498Y-10505820D01*
X14774188Y-10625518D01*
X14761928Y-10750000D01*
X14761928Y-11850000D01*
X14774188Y-11974482D01*
X14789948Y-12026437D01*
X14779898Y-12022274D01*
X14579939Y-11982500D01*
X14376061Y-11982500D01*
X14293236Y-11998975D01*
X14392937Y-11899274D01*
X14506205Y-11729756D01*
X14584226Y-11541398D01*
X14624000Y-11341439D01*
X14624000Y-11137561D01*
X14584226Y-10937602D01*
X14506205Y-10749244D01*
X14392937Y-10579726D01*
X14248774Y-10435563D01*
X14079256Y-10322295D01*
X13890898Y-10244274D01*
X13690939Y-10204500D01*
X13487061Y-10204500D01*
X13287102Y-10244274D01*
X13098744Y-10322295D01*
X13080473Y-10334503D01*
X13051185Y-10298815D01*
X12954494Y-10219463D01*
X12844180Y-10160498D01*
X12724482Y-10124188D01*
X12600000Y-10111928D01*
X10600000Y-10111928D01*
X10475518Y-10124188D01*
X10355820Y-10160498D01*
X10245506Y-10219463D01*
X10148815Y-10298815D01*
X10069463Y-10395506D01*
X10010498Y-10505820D01*
X9974188Y-10625518D01*
X9961928Y-10750000D01*
X9961928Y-11850000D01*
X9974188Y-11974482D01*
X10010498Y-12094180D01*
X10040335Y-12150000D01*
X10010498Y-12205820D01*
X9974188Y-12325518D01*
X9961928Y-12450000D01*
X9961928Y-13550000D01*
X9974188Y-13674482D01*
X10010498Y-13794180D01*
X10040335Y-13850000D01*
X10010498Y-13905820D01*
X9974188Y-14025518D01*
X9961928Y-14150000D01*
X9965000Y-14414250D01*
X10123748Y-14572998D01*
X10100956Y-14572998D01*
X9919865Y-14497987D01*
X9719906Y-14458213D01*
X9516028Y-14458213D01*
X9316069Y-14497987D01*
X9141801Y-14570172D01*
X9141801Y-6029872D01*
X11765000Y-6029872D01*
X11765000Y-6470128D01*
X11850890Y-6901925D01*
X12019369Y-7308669D01*
X12263962Y-7674729D01*
X12575271Y-7986038D01*
X12941331Y-8230631D01*
X13348075Y-8399110D01*
X13779872Y-8485000D01*
X14220128Y-8485000D01*
X14651925Y-8399110D01*
X15058669Y-8230631D01*
X15424729Y-7986038D01*
X15736038Y-7674729D01*
X15980631Y-7308669D01*
X16149110Y-6901925D01*
X16235000Y-6470128D01*
X16235000Y-6029872D01*
X16149110Y-5598075D01*
X15980631Y-5191331D01*
X15736038Y-4825271D01*
X15424729Y-4513962D01*
X15058669Y-4269369D01*
X14651925Y-4100890D01*
X14220128Y-4015000D01*
X13779872Y-4015000D01*
X13348075Y-4100890D01*
X12941331Y-4269369D01*
X12575271Y-4513962D01*
X12263962Y-4825271D01*
X12019369Y-5191331D01*
X11850890Y-5598075D01*
X11765000Y-6029872D01*
X9141801Y-6029872D01*
X9141801Y-4265904D01*
X9145477Y-4228579D01*
X9141801Y-4191254D01*
X9141801Y-4191246D01*
X9130804Y-4079593D01*
X9087347Y-3936332D01*
X9016775Y-3804303D01*
X8921802Y-3688578D01*
X8892798Y-3664775D01*
X8701816Y-3473793D01*
X8678013Y-3444789D01*
X8562288Y-3349816D01*
X8430259Y-3279244D01*
X8286998Y-3235787D01*
X8175345Y-3224790D01*
X8175334Y-3224790D01*
X8138012Y-3221114D01*
X8100690Y-3224790D01*
X7819872Y-3224790D01*
X7819872Y-2428580D01*
X7807612Y-2304098D01*
X7771302Y-2184400D01*
X7712337Y-2074086D01*
X7632985Y-1977395D01*
X7536294Y-1898043D01*
X7425980Y-1839078D01*
X7306282Y-1802768D01*
X7181800Y-1790508D01*
X6381800Y-1790508D01*
X6257318Y-1802768D01*
X6137620Y-1839078D01*
X6027306Y-1898043D01*
X5930615Y-1977395D01*
X5851263Y-2074086D01*
X5814117Y-2143580D01*
X4184685Y-2143580D01*
X4148580Y-2140024D01*
X4004495Y-2154215D01*
X3865946Y-2196243D01*
X3798096Y-2232510D01*
X3783502Y-2184400D01*
X3724537Y-2074086D01*
X3645185Y-1977395D01*
X3548494Y-1898043D01*
X3438180Y-1839078D01*
X3318482Y-1802768D01*
X3194000Y-1790508D01*
X2394000Y-1790508D01*
X2269518Y-1802768D01*
X2149820Y-1839078D01*
X2039506Y-1898043D01*
X1942815Y-1977395D01*
X1863463Y-2074086D01*
X1814620Y-2165463D01*
X1713152Y-2196243D01*
X1626563Y-2242526D01*
X1585466Y-2264493D01*
X1473548Y-2356342D01*
X1450532Y-2384387D01*
X660000Y-3174920D01*
X660000Y-660000D01*
X27340000Y-660000D01*
X27340000Y-4371421D01*
G37*
%TD.AperFunction*%
D21*
X20662561Y-10814000D02*
X20724699Y-10814000D01*
X21060428Y-11149730D01*
X21060428Y-11197000D01*
X21076531Y-11360500D01*
X21124222Y-11517716D01*
X21201669Y-11662608D01*
X21271338Y-11747500D01*
X21201669Y-11832392D01*
X21124222Y-11977284D01*
X21122756Y-11982118D01*
X21066398Y-11958774D01*
X20866439Y-11919000D01*
X20662561Y-11919000D01*
X20462602Y-11958774D01*
X20274244Y-12036795D01*
X20104726Y-12150063D01*
X19960563Y-12294226D01*
X19847295Y-12463744D01*
X19769274Y-12652102D01*
X19729500Y-12852061D01*
X19729500Y-13000750D01*
X19707715Y-13000750D01*
X19664249Y-12996469D01*
X19620783Y-13000750D01*
X19620773Y-13000750D01*
X19490760Y-13013555D01*
X19323937Y-13064161D01*
X19170191Y-13146339D01*
X19145642Y-13166486D01*
X19069203Y-13229218D01*
X19069201Y-13229220D01*
X19035433Y-13256933D01*
X19007720Y-13290701D01*
X18483422Y-13815000D01*
X17978373Y-13815000D01*
X17989502Y-13794180D01*
X18025812Y-13674482D01*
X18038072Y-13550000D01*
X18038072Y-13326229D01*
X20386503Y-10977799D01*
X20415501Y-10954001D01*
X20510474Y-10838276D01*
X20536819Y-10788989D01*
X20662561Y-10814000D01*
%TA.AperFunction,Conductor*%
D22*
G36*
X20662561Y-10814000D02*
G01*
X20724699Y-10814000D01*
X21060428Y-11149730D01*
X21060428Y-11197000D01*
X21076531Y-11360500D01*
X21124222Y-11517716D01*
X21201669Y-11662608D01*
X21271338Y-11747500D01*
X21201669Y-11832392D01*
X21124222Y-11977284D01*
X21122756Y-11982118D01*
X21066398Y-11958774D01*
X20866439Y-11919000D01*
X20662561Y-11919000D01*
X20462602Y-11958774D01*
X20274244Y-12036795D01*
X20104726Y-12150063D01*
X19960563Y-12294226D01*
X19847295Y-12463744D01*
X19769274Y-12652102D01*
X19729500Y-12852061D01*
X19729500Y-13000750D01*
X19707715Y-13000750D01*
X19664249Y-12996469D01*
X19620783Y-13000750D01*
X19620773Y-13000750D01*
X19490760Y-13013555D01*
X19323937Y-13064161D01*
X19170191Y-13146339D01*
X19145642Y-13166486D01*
X19069203Y-13229218D01*
X19069201Y-13229220D01*
X19035433Y-13256933D01*
X19007720Y-13290701D01*
X18483422Y-13815000D01*
X17978373Y-13815000D01*
X17989502Y-13794180D01*
X18025812Y-13674482D01*
X18038072Y-13550000D01*
X18038072Y-13326229D01*
X20386503Y-10977799D01*
X20415501Y-10954001D01*
X20510474Y-10838276D01*
X20536819Y-10788989D01*
X20662561Y-10814000D01*
G37*
%TD.AperFunction*%
%TD*%
M02*
