%TF.GenerationSoftware,KiCad,Pcbnew,(5.1.9)-1*%
%TF.CreationDate,2021-05-21T14:20:41+01:00*%
%TF.ProjectId,BreakoutV1.0_,42726561-6b6f-4757-9456-312e305f2e6b,rev?*%
%TF.SameCoordinates,Original*%
%TF.FileFunction,Soldermask,Bot*%
%TF.FilePolarity,Negative*%
%FSLAX46Y46*%
G04 Gerber Fmt 4.6, Leading zero omitted, Abs format (unit mm)*
G04 Created by KiCad (PCBNEW (5.1.9)-1) date 2021-05-21 14:20:41*
%MOMM*%
%LPD*%
G01*
G04 APERTURE LIST*
%ADD10C,2.355000*%
%ADD11C,1.446000*%
%ADD12O,0.800000X1.300000*%
%ADD13O,1.500000X2.300000*%
%ADD14R,1.500000X2.300000*%
%ADD15O,2.000000X1.700000*%
%ADD16O,1.300000X0.800000*%
%ADD17C,3.500120*%
%ADD18C,3.200000*%
%ADD19C,1.310000*%
%ADD20C,0.100000*%
%ADD21R,1.000000X1.500000*%
%ADD22R,1.500000X1.000000*%
%ADD23C,4.957000*%
%ADD24C,0.900000*%
%ADD25R,0.900000X0.900000*%
%ADD26C,1.998980*%
G04 APERTURE END LIST*
D10*
%TO.C,J29*%
X70562660Y-31589980D03*
X71322660Y-37179980D03*
X70562660Y-47589980D03*
X115512660Y-47589980D03*
X114752660Y-33879980D03*
X115512660Y-27529980D03*
D11*
X111452660Y-30069980D03*
X110182660Y-27529980D03*
X108912660Y-30069980D03*
X107642660Y-27529980D03*
X106372660Y-30069980D03*
X105102660Y-27529980D03*
X103832660Y-30069980D03*
X102562660Y-27529980D03*
X97482660Y-30069980D03*
X96212660Y-27529980D03*
X94942660Y-30069980D03*
X93672660Y-27529980D03*
X92402660Y-30069980D03*
X91132660Y-27529980D03*
X89862660Y-30069980D03*
X88592660Y-27529980D03*
X83512660Y-30069980D03*
X82242660Y-27529980D03*
X80972660Y-30069980D03*
X79702660Y-27529980D03*
X78432660Y-30069980D03*
X77162660Y-27529980D03*
X75892660Y-30069980D03*
X74622660Y-27529980D03*
X102562660Y-34129980D03*
X103832660Y-36669980D03*
X105102660Y-34129980D03*
X106372660Y-36669980D03*
X107642660Y-34129980D03*
X108912660Y-36669980D03*
X110182660Y-34129980D03*
X111452660Y-36669980D03*
X88592660Y-34129980D03*
X89862660Y-36669980D03*
X91132660Y-34129980D03*
X92402660Y-36669980D03*
X93672660Y-34129980D03*
X94942660Y-36669980D03*
X96212660Y-34129980D03*
X97482660Y-36669980D03*
X74622660Y-34129980D03*
X75892660Y-36669980D03*
X77162660Y-34129980D03*
X78432660Y-36669980D03*
X79702660Y-34129980D03*
X80972660Y-36669980D03*
X82242660Y-34129980D03*
X83512660Y-36669980D03*
%TD*%
D12*
%TO.C,J5*%
X183560400Y-52082700D03*
G36*
G01*
X185210400Y-51632700D02*
X185210400Y-52532700D01*
G75*
G02*
X185010400Y-52732700I-200000J0D01*
G01*
X184610400Y-52732700D01*
G75*
G02*
X184410400Y-52532700I0J200000D01*
G01*
X184410400Y-51632700D01*
G75*
G02*
X184610400Y-51432700I200000J0D01*
G01*
X185010400Y-51432700D01*
G75*
G02*
X185210400Y-51632700I0J-200000D01*
G01*
G37*
%TD*%
D13*
%TO.C,U2*%
X150855680Y-19781520D03*
X148315680Y-19781520D03*
D14*
X145775680Y-19781520D03*
%TD*%
D15*
%TO.C,J24*%
X171145200Y-22464400D03*
G36*
G01*
X170395200Y-19114400D02*
X171895200Y-19114400D01*
G75*
G02*
X172145200Y-19364400I0J-250000D01*
G01*
X172145200Y-20564400D01*
G75*
G02*
X171895200Y-20814400I-250000J0D01*
G01*
X170395200Y-20814400D01*
G75*
G02*
X170145200Y-20564400I0J250000D01*
G01*
X170145200Y-19364400D01*
G75*
G02*
X170395200Y-19114400I250000J0D01*
G01*
G37*
%TD*%
D16*
%TO.C,J20*%
X77406500Y-18689000D03*
G36*
G01*
X77856500Y-20339000D02*
X76956500Y-20339000D01*
G75*
G02*
X76756500Y-20139000I0J200000D01*
G01*
X76756500Y-19739000D01*
G75*
G02*
X76956500Y-19539000I200000J0D01*
G01*
X77856500Y-19539000D01*
G75*
G02*
X78056500Y-19739000I0J-200000D01*
G01*
X78056500Y-20139000D01*
G75*
G02*
X77856500Y-20339000I-200000J0D01*
G01*
G37*
%TD*%
%TO.C,J16*%
X98132900Y-18689000D03*
G36*
G01*
X98582900Y-20339000D02*
X97682900Y-20339000D01*
G75*
G02*
X97482900Y-20139000I0J200000D01*
G01*
X97482900Y-19739000D01*
G75*
G02*
X97682900Y-19539000I200000J0D01*
G01*
X98582900Y-19539000D01*
G75*
G02*
X98782900Y-19739000I0J-200000D01*
G01*
X98782900Y-20139000D01*
G75*
G02*
X98582900Y-20339000I-200000J0D01*
G01*
G37*
%TD*%
%TO.C,J15*%
X103314500Y-18689000D03*
G36*
G01*
X103764500Y-20339000D02*
X102864500Y-20339000D01*
G75*
G02*
X102664500Y-20139000I0J200000D01*
G01*
X102664500Y-19739000D01*
G75*
G02*
X102864500Y-19539000I200000J0D01*
G01*
X103764500Y-19539000D01*
G75*
G02*
X103964500Y-19739000I0J-200000D01*
G01*
X103964500Y-20139000D01*
G75*
G02*
X103764500Y-20339000I-200000J0D01*
G01*
G37*
%TD*%
D17*
%TO.C,H1*%
X149860000Y-39624000D03*
%TD*%
D18*
%TO.C,J31/32*%
X120170020Y-49017160D03*
X120167480Y-19845260D03*
X65587960Y-49024780D03*
X65585420Y-19835100D03*
D19*
X119537480Y-36972240D03*
X119537480Y-29352240D03*
X119537480Y-39512240D03*
X119537480Y-34432240D03*
X119537480Y-31892240D03*
X65477480Y-43922240D03*
X65477480Y-41382240D03*
X65477480Y-38842240D03*
X65477480Y-36302240D03*
X65477480Y-33762240D03*
X65477480Y-31222240D03*
%TD*%
D20*
%TO.C,JP10*%
G36*
X58234800Y-27520200D02*
G01*
X58784800Y-27520200D01*
X58784800Y-27520802D01*
X58809334Y-27520802D01*
X58858165Y-27525612D01*
X58906290Y-27535184D01*
X58953245Y-27549428D01*
X58998578Y-27568205D01*
X59041851Y-27591336D01*
X59082650Y-27618596D01*
X59120579Y-27649724D01*
X59155276Y-27684421D01*
X59186404Y-27722350D01*
X59213664Y-27763149D01*
X59236795Y-27806422D01*
X59255572Y-27851755D01*
X59269816Y-27898710D01*
X59279388Y-27946835D01*
X59284198Y-27995666D01*
X59284198Y-28020200D01*
X59284800Y-28020200D01*
X59284800Y-28520200D01*
X59284198Y-28520200D01*
X59284198Y-28544734D01*
X59279388Y-28593565D01*
X59269816Y-28641690D01*
X59255572Y-28688645D01*
X59236795Y-28733978D01*
X59213664Y-28777251D01*
X59186404Y-28818050D01*
X59155276Y-28855979D01*
X59120579Y-28890676D01*
X59082650Y-28921804D01*
X59041851Y-28949064D01*
X58998578Y-28972195D01*
X58953245Y-28990972D01*
X58906290Y-29005216D01*
X58858165Y-29014788D01*
X58809334Y-29019598D01*
X58784800Y-29019598D01*
X58784800Y-29020200D01*
X58234800Y-29020200D01*
X58234800Y-27520200D01*
G37*
D21*
X57484800Y-28270200D03*
D20*
G36*
X56184800Y-29019598D02*
G01*
X56160266Y-29019598D01*
X56111435Y-29014788D01*
X56063310Y-29005216D01*
X56016355Y-28990972D01*
X55971022Y-28972195D01*
X55927749Y-28949064D01*
X55886950Y-28921804D01*
X55849021Y-28890676D01*
X55814324Y-28855979D01*
X55783196Y-28818050D01*
X55755936Y-28777251D01*
X55732805Y-28733978D01*
X55714028Y-28688645D01*
X55699784Y-28641690D01*
X55690212Y-28593565D01*
X55685402Y-28544734D01*
X55685402Y-28520200D01*
X55684800Y-28520200D01*
X55684800Y-28020200D01*
X55685402Y-28020200D01*
X55685402Y-27995666D01*
X55690212Y-27946835D01*
X55699784Y-27898710D01*
X55714028Y-27851755D01*
X55732805Y-27806422D01*
X55755936Y-27763149D01*
X55783196Y-27722350D01*
X55814324Y-27684421D01*
X55849021Y-27649724D01*
X55886950Y-27618596D01*
X55927749Y-27591336D01*
X55971022Y-27568205D01*
X56016355Y-27549428D01*
X56063310Y-27535184D01*
X56111435Y-27525612D01*
X56160266Y-27520802D01*
X56184800Y-27520802D01*
X56184800Y-27520200D01*
X56734800Y-27520200D01*
X56734800Y-29020200D01*
X56184800Y-29020200D01*
X56184800Y-29019598D01*
G37*
%TD*%
%TO.C,JP11*%
G36*
X58433400Y-30568200D02*
G01*
X58983400Y-30568200D01*
X58983400Y-30568802D01*
X59007934Y-30568802D01*
X59056765Y-30573612D01*
X59104890Y-30583184D01*
X59151845Y-30597428D01*
X59197178Y-30616205D01*
X59240451Y-30639336D01*
X59281250Y-30666596D01*
X59319179Y-30697724D01*
X59353876Y-30732421D01*
X59385004Y-30770350D01*
X59412264Y-30811149D01*
X59435395Y-30854422D01*
X59454172Y-30899755D01*
X59468416Y-30946710D01*
X59477988Y-30994835D01*
X59482798Y-31043666D01*
X59482798Y-31068200D01*
X59483400Y-31068200D01*
X59483400Y-31568200D01*
X59482798Y-31568200D01*
X59482798Y-31592734D01*
X59477988Y-31641565D01*
X59468416Y-31689690D01*
X59454172Y-31736645D01*
X59435395Y-31781978D01*
X59412264Y-31825251D01*
X59385004Y-31866050D01*
X59353876Y-31903979D01*
X59319179Y-31938676D01*
X59281250Y-31969804D01*
X59240451Y-31997064D01*
X59197178Y-32020195D01*
X59151845Y-32038972D01*
X59104890Y-32053216D01*
X59056765Y-32062788D01*
X59007934Y-32067598D01*
X58983400Y-32067598D01*
X58983400Y-32068200D01*
X58433400Y-32068200D01*
X58433400Y-30568200D01*
G37*
D21*
X57683400Y-31318200D03*
D20*
G36*
X56383400Y-32067598D02*
G01*
X56358866Y-32067598D01*
X56310035Y-32062788D01*
X56261910Y-32053216D01*
X56214955Y-32038972D01*
X56169622Y-32020195D01*
X56126349Y-31997064D01*
X56085550Y-31969804D01*
X56047621Y-31938676D01*
X56012924Y-31903979D01*
X55981796Y-31866050D01*
X55954536Y-31825251D01*
X55931405Y-31781978D01*
X55912628Y-31736645D01*
X55898384Y-31689690D01*
X55888812Y-31641565D01*
X55884002Y-31592734D01*
X55884002Y-31568200D01*
X55883400Y-31568200D01*
X55883400Y-31068200D01*
X55884002Y-31068200D01*
X55884002Y-31043666D01*
X55888812Y-30994835D01*
X55898384Y-30946710D01*
X55912628Y-30899755D01*
X55931405Y-30854422D01*
X55954536Y-30811149D01*
X55981796Y-30770350D01*
X56012924Y-30732421D01*
X56047621Y-30697724D01*
X56085550Y-30666596D01*
X56126349Y-30639336D01*
X56169622Y-30616205D01*
X56214955Y-30597428D01*
X56261910Y-30583184D01*
X56310035Y-30573612D01*
X56358866Y-30568802D01*
X56383400Y-30568802D01*
X56383400Y-30568200D01*
X56933400Y-30568200D01*
X56933400Y-32068200D01*
X56383400Y-32068200D01*
X56383400Y-32067598D01*
G37*
%TD*%
%TO.C,J27*%
G36*
G01*
X51473800Y-32405266D02*
X49973800Y-32405266D01*
G75*
G02*
X49723800Y-32155266I0J250000D01*
G01*
X49723800Y-30955266D01*
G75*
G02*
X49973800Y-30705266I250000J0D01*
G01*
X51473800Y-30705266D01*
G75*
G02*
X51723800Y-30955266I0J-250000D01*
G01*
X51723800Y-32155266D01*
G75*
G02*
X51473800Y-32405266I-250000J0D01*
G01*
G37*
D15*
X50723800Y-29055266D03*
%TD*%
%TO.C,J26*%
G36*
G01*
X51473800Y-42091132D02*
X49973800Y-42091132D01*
G75*
G02*
X49723800Y-41841132I0J250000D01*
G01*
X49723800Y-40641132D01*
G75*
G02*
X49973800Y-40391132I250000J0D01*
G01*
X51473800Y-40391132D01*
G75*
G02*
X51723800Y-40641132I0J-250000D01*
G01*
X51723800Y-41841132D01*
G75*
G02*
X51473800Y-42091132I-250000J0D01*
G01*
G37*
X50723800Y-38741132D03*
%TD*%
D12*
%TO.C,J4*%
X152094240Y-34757360D03*
X153344240Y-34757360D03*
X154594240Y-34757360D03*
G36*
G01*
X156244240Y-34307360D02*
X156244240Y-35207360D01*
G75*
G02*
X156044240Y-35407360I-200000J0D01*
G01*
X155644240Y-35407360D01*
G75*
G02*
X155444240Y-35207360I0J200000D01*
G01*
X155444240Y-34307360D01*
G75*
G02*
X155644240Y-34107360I200000J0D01*
G01*
X156044240Y-34107360D01*
G75*
G02*
X156244240Y-34307360I0J-200000D01*
G01*
G37*
%TD*%
D13*
%TO.C,U1*%
X164825680Y-19928840D03*
X162285680Y-19928840D03*
D14*
X159745680Y-19928840D03*
%TD*%
D20*
%TO.C,JP1*%
G36*
X167099680Y-31442800D02*
G01*
X167099680Y-31942800D01*
X167099078Y-31942800D01*
X167099078Y-31967334D01*
X167094268Y-32016165D01*
X167084696Y-32064290D01*
X167070452Y-32111245D01*
X167051675Y-32156578D01*
X167028544Y-32199851D01*
X167001284Y-32240650D01*
X166970156Y-32278579D01*
X166935459Y-32313276D01*
X166897530Y-32344404D01*
X166856731Y-32371664D01*
X166813458Y-32394795D01*
X166768125Y-32413572D01*
X166721170Y-32427816D01*
X166673045Y-32437388D01*
X166624214Y-32442198D01*
X166599680Y-32442198D01*
X166599680Y-32442800D01*
X166099680Y-32442800D01*
X166099680Y-32442198D01*
X166075146Y-32442198D01*
X166026315Y-32437388D01*
X165978190Y-32427816D01*
X165931235Y-32413572D01*
X165885902Y-32394795D01*
X165842629Y-32371664D01*
X165801830Y-32344404D01*
X165763901Y-32313276D01*
X165729204Y-32278579D01*
X165698076Y-32240650D01*
X165670816Y-32199851D01*
X165647685Y-32156578D01*
X165628908Y-32111245D01*
X165614664Y-32064290D01*
X165605092Y-32016165D01*
X165600282Y-31967334D01*
X165600282Y-31942800D01*
X165599680Y-31942800D01*
X165599680Y-31442800D01*
X167099680Y-31442800D01*
G37*
G36*
X165600282Y-30642800D02*
G01*
X165600282Y-30618266D01*
X165605092Y-30569435D01*
X165614664Y-30521310D01*
X165628908Y-30474355D01*
X165647685Y-30429022D01*
X165670816Y-30385749D01*
X165698076Y-30344950D01*
X165729204Y-30307021D01*
X165763901Y-30272324D01*
X165801830Y-30241196D01*
X165842629Y-30213936D01*
X165885902Y-30190805D01*
X165931235Y-30172028D01*
X165978190Y-30157784D01*
X166026315Y-30148212D01*
X166075146Y-30143402D01*
X166099680Y-30143402D01*
X166099680Y-30142800D01*
X166599680Y-30142800D01*
X166599680Y-30143402D01*
X166624214Y-30143402D01*
X166673045Y-30148212D01*
X166721170Y-30157784D01*
X166768125Y-30172028D01*
X166813458Y-30190805D01*
X166856731Y-30213936D01*
X166897530Y-30241196D01*
X166935459Y-30272324D01*
X166970156Y-30307021D01*
X167001284Y-30344950D01*
X167028544Y-30385749D01*
X167051675Y-30429022D01*
X167070452Y-30474355D01*
X167084696Y-30521310D01*
X167094268Y-30569435D01*
X167099078Y-30618266D01*
X167099078Y-30642800D01*
X167099680Y-30642800D01*
X167099680Y-31142800D01*
X165599680Y-31142800D01*
X165599680Y-30642800D01*
X165600282Y-30642800D01*
G37*
%TD*%
%TO.C,JP2*%
G36*
X164412360Y-31483440D02*
G01*
X164412360Y-31983440D01*
X164411758Y-31983440D01*
X164411758Y-32007974D01*
X164406948Y-32056805D01*
X164397376Y-32104930D01*
X164383132Y-32151885D01*
X164364355Y-32197218D01*
X164341224Y-32240491D01*
X164313964Y-32281290D01*
X164282836Y-32319219D01*
X164248139Y-32353916D01*
X164210210Y-32385044D01*
X164169411Y-32412304D01*
X164126138Y-32435435D01*
X164080805Y-32454212D01*
X164033850Y-32468456D01*
X163985725Y-32478028D01*
X163936894Y-32482838D01*
X163912360Y-32482838D01*
X163912360Y-32483440D01*
X163412360Y-32483440D01*
X163412360Y-32482838D01*
X163387826Y-32482838D01*
X163338995Y-32478028D01*
X163290870Y-32468456D01*
X163243915Y-32454212D01*
X163198582Y-32435435D01*
X163155309Y-32412304D01*
X163114510Y-32385044D01*
X163076581Y-32353916D01*
X163041884Y-32319219D01*
X163010756Y-32281290D01*
X162983496Y-32240491D01*
X162960365Y-32197218D01*
X162941588Y-32151885D01*
X162927344Y-32104930D01*
X162917772Y-32056805D01*
X162912962Y-32007974D01*
X162912962Y-31983440D01*
X162912360Y-31983440D01*
X162912360Y-31483440D01*
X164412360Y-31483440D01*
G37*
G36*
X162912962Y-30683440D02*
G01*
X162912962Y-30658906D01*
X162917772Y-30610075D01*
X162927344Y-30561950D01*
X162941588Y-30514995D01*
X162960365Y-30469662D01*
X162983496Y-30426389D01*
X163010756Y-30385590D01*
X163041884Y-30347661D01*
X163076581Y-30312964D01*
X163114510Y-30281836D01*
X163155309Y-30254576D01*
X163198582Y-30231445D01*
X163243915Y-30212668D01*
X163290870Y-30198424D01*
X163338995Y-30188852D01*
X163387826Y-30184042D01*
X163412360Y-30184042D01*
X163412360Y-30183440D01*
X163912360Y-30183440D01*
X163912360Y-30184042D01*
X163936894Y-30184042D01*
X163985725Y-30188852D01*
X164033850Y-30198424D01*
X164080805Y-30212668D01*
X164126138Y-30231445D01*
X164169411Y-30254576D01*
X164210210Y-30281836D01*
X164248139Y-30312964D01*
X164282836Y-30347661D01*
X164313964Y-30385590D01*
X164341224Y-30426389D01*
X164364355Y-30469662D01*
X164383132Y-30514995D01*
X164397376Y-30561950D01*
X164406948Y-30610075D01*
X164411758Y-30658906D01*
X164411758Y-30683440D01*
X164412360Y-30683440D01*
X164412360Y-31183440D01*
X162912360Y-31183440D01*
X162912360Y-30683440D01*
X162912962Y-30683440D01*
G37*
%TD*%
%TO.C,JP5*%
G36*
X162714240Y-50498360D02*
G01*
X162714240Y-49948360D01*
X162714842Y-49948360D01*
X162714842Y-49923826D01*
X162719652Y-49874995D01*
X162729224Y-49826870D01*
X162743468Y-49779915D01*
X162762245Y-49734582D01*
X162785376Y-49691309D01*
X162812636Y-49650510D01*
X162843764Y-49612581D01*
X162878461Y-49577884D01*
X162916390Y-49546756D01*
X162957189Y-49519496D01*
X163000462Y-49496365D01*
X163045795Y-49477588D01*
X163092750Y-49463344D01*
X163140875Y-49453772D01*
X163189706Y-49448962D01*
X163214240Y-49448962D01*
X163214240Y-49448360D01*
X163714240Y-49448360D01*
X163714240Y-49448962D01*
X163738774Y-49448962D01*
X163787605Y-49453772D01*
X163835730Y-49463344D01*
X163882685Y-49477588D01*
X163928018Y-49496365D01*
X163971291Y-49519496D01*
X164012090Y-49546756D01*
X164050019Y-49577884D01*
X164084716Y-49612581D01*
X164115844Y-49650510D01*
X164143104Y-49691309D01*
X164166235Y-49734582D01*
X164185012Y-49779915D01*
X164199256Y-49826870D01*
X164208828Y-49874995D01*
X164213638Y-49923826D01*
X164213638Y-49948360D01*
X164214240Y-49948360D01*
X164214240Y-50498360D01*
X162714240Y-50498360D01*
G37*
D22*
X163464240Y-51248360D03*
D20*
G36*
X164213638Y-52548360D02*
G01*
X164213638Y-52572894D01*
X164208828Y-52621725D01*
X164199256Y-52669850D01*
X164185012Y-52716805D01*
X164166235Y-52762138D01*
X164143104Y-52805411D01*
X164115844Y-52846210D01*
X164084716Y-52884139D01*
X164050019Y-52918836D01*
X164012090Y-52949964D01*
X163971291Y-52977224D01*
X163928018Y-53000355D01*
X163882685Y-53019132D01*
X163835730Y-53033376D01*
X163787605Y-53042948D01*
X163738774Y-53047758D01*
X163714240Y-53047758D01*
X163714240Y-53048360D01*
X163214240Y-53048360D01*
X163214240Y-53047758D01*
X163189706Y-53047758D01*
X163140875Y-53042948D01*
X163092750Y-53033376D01*
X163045795Y-53019132D01*
X163000462Y-53000355D01*
X162957189Y-52977224D01*
X162916390Y-52949964D01*
X162878461Y-52918836D01*
X162843764Y-52884139D01*
X162812636Y-52846210D01*
X162785376Y-52805411D01*
X162762245Y-52762138D01*
X162743468Y-52716805D01*
X162729224Y-52669850D01*
X162719652Y-52621725D01*
X162714842Y-52572894D01*
X162714842Y-52548360D01*
X162714240Y-52548360D01*
X162714240Y-51998360D01*
X164214240Y-51998360D01*
X164214240Y-52548360D01*
X164213638Y-52548360D01*
G37*
%TD*%
%TO.C,JP3*%
G36*
X168353040Y-50522920D02*
G01*
X168353040Y-49972920D01*
X168353642Y-49972920D01*
X168353642Y-49948386D01*
X168358452Y-49899555D01*
X168368024Y-49851430D01*
X168382268Y-49804475D01*
X168401045Y-49759142D01*
X168424176Y-49715869D01*
X168451436Y-49675070D01*
X168482564Y-49637141D01*
X168517261Y-49602444D01*
X168555190Y-49571316D01*
X168595989Y-49544056D01*
X168639262Y-49520925D01*
X168684595Y-49502148D01*
X168731550Y-49487904D01*
X168779675Y-49478332D01*
X168828506Y-49473522D01*
X168853040Y-49473522D01*
X168853040Y-49472920D01*
X169353040Y-49472920D01*
X169353040Y-49473522D01*
X169377574Y-49473522D01*
X169426405Y-49478332D01*
X169474530Y-49487904D01*
X169521485Y-49502148D01*
X169566818Y-49520925D01*
X169610091Y-49544056D01*
X169650890Y-49571316D01*
X169688819Y-49602444D01*
X169723516Y-49637141D01*
X169754644Y-49675070D01*
X169781904Y-49715869D01*
X169805035Y-49759142D01*
X169823812Y-49804475D01*
X169838056Y-49851430D01*
X169847628Y-49899555D01*
X169852438Y-49948386D01*
X169852438Y-49972920D01*
X169853040Y-49972920D01*
X169853040Y-50522920D01*
X168353040Y-50522920D01*
G37*
D22*
X169103040Y-51272920D03*
D20*
G36*
X169852438Y-52572920D02*
G01*
X169852438Y-52597454D01*
X169847628Y-52646285D01*
X169838056Y-52694410D01*
X169823812Y-52741365D01*
X169805035Y-52786698D01*
X169781904Y-52829971D01*
X169754644Y-52870770D01*
X169723516Y-52908699D01*
X169688819Y-52943396D01*
X169650890Y-52974524D01*
X169610091Y-53001784D01*
X169566818Y-53024915D01*
X169521485Y-53043692D01*
X169474530Y-53057936D01*
X169426405Y-53067508D01*
X169377574Y-53072318D01*
X169353040Y-53072318D01*
X169353040Y-53072920D01*
X168853040Y-53072920D01*
X168853040Y-53072318D01*
X168828506Y-53072318D01*
X168779675Y-53067508D01*
X168731550Y-53057936D01*
X168684595Y-53043692D01*
X168639262Y-53024915D01*
X168595989Y-53001784D01*
X168555190Y-52974524D01*
X168517261Y-52943396D01*
X168482564Y-52908699D01*
X168451436Y-52870770D01*
X168424176Y-52829971D01*
X168401045Y-52786698D01*
X168382268Y-52741365D01*
X168368024Y-52694410D01*
X168358452Y-52646285D01*
X168353642Y-52597454D01*
X168353642Y-52572920D01*
X168353040Y-52572920D01*
X168353040Y-52022920D01*
X169853040Y-52022920D01*
X169853040Y-52572920D01*
X169852438Y-52572920D01*
G37*
%TD*%
%TO.C,JP4*%
G36*
X165533640Y-50522920D02*
G01*
X165533640Y-49972920D01*
X165534242Y-49972920D01*
X165534242Y-49948386D01*
X165539052Y-49899555D01*
X165548624Y-49851430D01*
X165562868Y-49804475D01*
X165581645Y-49759142D01*
X165604776Y-49715869D01*
X165632036Y-49675070D01*
X165663164Y-49637141D01*
X165697861Y-49602444D01*
X165735790Y-49571316D01*
X165776589Y-49544056D01*
X165819862Y-49520925D01*
X165865195Y-49502148D01*
X165912150Y-49487904D01*
X165960275Y-49478332D01*
X166009106Y-49473522D01*
X166033640Y-49473522D01*
X166033640Y-49472920D01*
X166533640Y-49472920D01*
X166533640Y-49473522D01*
X166558174Y-49473522D01*
X166607005Y-49478332D01*
X166655130Y-49487904D01*
X166702085Y-49502148D01*
X166747418Y-49520925D01*
X166790691Y-49544056D01*
X166831490Y-49571316D01*
X166869419Y-49602444D01*
X166904116Y-49637141D01*
X166935244Y-49675070D01*
X166962504Y-49715869D01*
X166985635Y-49759142D01*
X167004412Y-49804475D01*
X167018656Y-49851430D01*
X167028228Y-49899555D01*
X167033038Y-49948386D01*
X167033038Y-49972920D01*
X167033640Y-49972920D01*
X167033640Y-50522920D01*
X165533640Y-50522920D01*
G37*
D22*
X166283640Y-51272920D03*
D20*
G36*
X167033038Y-52572920D02*
G01*
X167033038Y-52597454D01*
X167028228Y-52646285D01*
X167018656Y-52694410D01*
X167004412Y-52741365D01*
X166985635Y-52786698D01*
X166962504Y-52829971D01*
X166935244Y-52870770D01*
X166904116Y-52908699D01*
X166869419Y-52943396D01*
X166831490Y-52974524D01*
X166790691Y-53001784D01*
X166747418Y-53024915D01*
X166702085Y-53043692D01*
X166655130Y-53057936D01*
X166607005Y-53067508D01*
X166558174Y-53072318D01*
X166533640Y-53072318D01*
X166533640Y-53072920D01*
X166033640Y-53072920D01*
X166033640Y-53072318D01*
X166009106Y-53072318D01*
X165960275Y-53067508D01*
X165912150Y-53057936D01*
X165865195Y-53043692D01*
X165819862Y-53024915D01*
X165776589Y-53001784D01*
X165735790Y-52974524D01*
X165697861Y-52943396D01*
X165663164Y-52908699D01*
X165632036Y-52870770D01*
X165604776Y-52829971D01*
X165581645Y-52786698D01*
X165562868Y-52741365D01*
X165548624Y-52694410D01*
X165539052Y-52646285D01*
X165534242Y-52597454D01*
X165534242Y-52572920D01*
X165533640Y-52572920D01*
X165533640Y-52022920D01*
X167033640Y-52022920D01*
X167033640Y-52572920D01*
X167033038Y-52572920D01*
G37*
%TD*%
%TO.C,JP7*%
G36*
X157288800Y-50498360D02*
G01*
X157288800Y-49948360D01*
X157289402Y-49948360D01*
X157289402Y-49923826D01*
X157294212Y-49874995D01*
X157303784Y-49826870D01*
X157318028Y-49779915D01*
X157336805Y-49734582D01*
X157359936Y-49691309D01*
X157387196Y-49650510D01*
X157418324Y-49612581D01*
X157453021Y-49577884D01*
X157490950Y-49546756D01*
X157531749Y-49519496D01*
X157575022Y-49496365D01*
X157620355Y-49477588D01*
X157667310Y-49463344D01*
X157715435Y-49453772D01*
X157764266Y-49448962D01*
X157788800Y-49448962D01*
X157788800Y-49448360D01*
X158288800Y-49448360D01*
X158288800Y-49448962D01*
X158313334Y-49448962D01*
X158362165Y-49453772D01*
X158410290Y-49463344D01*
X158457245Y-49477588D01*
X158502578Y-49496365D01*
X158545851Y-49519496D01*
X158586650Y-49546756D01*
X158624579Y-49577884D01*
X158659276Y-49612581D01*
X158690404Y-49650510D01*
X158717664Y-49691309D01*
X158740795Y-49734582D01*
X158759572Y-49779915D01*
X158773816Y-49826870D01*
X158783388Y-49874995D01*
X158788198Y-49923826D01*
X158788198Y-49948360D01*
X158788800Y-49948360D01*
X158788800Y-50498360D01*
X157288800Y-50498360D01*
G37*
D22*
X158038800Y-51248360D03*
D20*
G36*
X158788198Y-52548360D02*
G01*
X158788198Y-52572894D01*
X158783388Y-52621725D01*
X158773816Y-52669850D01*
X158759572Y-52716805D01*
X158740795Y-52762138D01*
X158717664Y-52805411D01*
X158690404Y-52846210D01*
X158659276Y-52884139D01*
X158624579Y-52918836D01*
X158586650Y-52949964D01*
X158545851Y-52977224D01*
X158502578Y-53000355D01*
X158457245Y-53019132D01*
X158410290Y-53033376D01*
X158362165Y-53042948D01*
X158313334Y-53047758D01*
X158288800Y-53047758D01*
X158288800Y-53048360D01*
X157788800Y-53048360D01*
X157788800Y-53047758D01*
X157764266Y-53047758D01*
X157715435Y-53042948D01*
X157667310Y-53033376D01*
X157620355Y-53019132D01*
X157575022Y-53000355D01*
X157531749Y-52977224D01*
X157490950Y-52949964D01*
X157453021Y-52918836D01*
X157418324Y-52884139D01*
X157387196Y-52846210D01*
X157359936Y-52805411D01*
X157336805Y-52762138D01*
X157318028Y-52716805D01*
X157303784Y-52669850D01*
X157294212Y-52621725D01*
X157289402Y-52572894D01*
X157289402Y-52548360D01*
X157288800Y-52548360D01*
X157288800Y-51998360D01*
X158788800Y-51998360D01*
X158788800Y-52548360D01*
X158788198Y-52548360D01*
G37*
%TD*%
%TO.C,JP8*%
G36*
X153906080Y-50254600D02*
G01*
X153406080Y-50254600D01*
X153406080Y-50253998D01*
X153381546Y-50253998D01*
X153332715Y-50249188D01*
X153284590Y-50239616D01*
X153237635Y-50225372D01*
X153192302Y-50206595D01*
X153149029Y-50183464D01*
X153108230Y-50156204D01*
X153070301Y-50125076D01*
X153035604Y-50090379D01*
X153004476Y-50052450D01*
X152977216Y-50011651D01*
X152954085Y-49968378D01*
X152935308Y-49923045D01*
X152921064Y-49876090D01*
X152911492Y-49827965D01*
X152906682Y-49779134D01*
X152906682Y-49754600D01*
X152906080Y-49754600D01*
X152906080Y-49254600D01*
X152906682Y-49254600D01*
X152906682Y-49230066D01*
X152911492Y-49181235D01*
X152921064Y-49133110D01*
X152935308Y-49086155D01*
X152954085Y-49040822D01*
X152977216Y-48997549D01*
X153004476Y-48956750D01*
X153035604Y-48918821D01*
X153070301Y-48884124D01*
X153108230Y-48852996D01*
X153149029Y-48825736D01*
X153192302Y-48802605D01*
X153237635Y-48783828D01*
X153284590Y-48769584D01*
X153332715Y-48760012D01*
X153381546Y-48755202D01*
X153406080Y-48755202D01*
X153406080Y-48754600D01*
X153906080Y-48754600D01*
X153906080Y-50254600D01*
G37*
G36*
X154706080Y-48755202D02*
G01*
X154730614Y-48755202D01*
X154779445Y-48760012D01*
X154827570Y-48769584D01*
X154874525Y-48783828D01*
X154919858Y-48802605D01*
X154963131Y-48825736D01*
X155003930Y-48852996D01*
X155041859Y-48884124D01*
X155076556Y-48918821D01*
X155107684Y-48956750D01*
X155134944Y-48997549D01*
X155158075Y-49040822D01*
X155176852Y-49086155D01*
X155191096Y-49133110D01*
X155200668Y-49181235D01*
X155205478Y-49230066D01*
X155205478Y-49254600D01*
X155206080Y-49254600D01*
X155206080Y-49754600D01*
X155205478Y-49754600D01*
X155205478Y-49779134D01*
X155200668Y-49827965D01*
X155191096Y-49876090D01*
X155176852Y-49923045D01*
X155158075Y-49968378D01*
X155134944Y-50011651D01*
X155107684Y-50052450D01*
X155076556Y-50090379D01*
X155041859Y-50125076D01*
X155003930Y-50156204D01*
X154963131Y-50183464D01*
X154919858Y-50206595D01*
X154874525Y-50225372D01*
X154827570Y-50239616D01*
X154779445Y-50249188D01*
X154730614Y-50253998D01*
X154706080Y-50253998D01*
X154706080Y-50254600D01*
X154206080Y-50254600D01*
X154206080Y-48754600D01*
X154706080Y-48754600D01*
X154706080Y-48755202D01*
G37*
%TD*%
%TO.C,JP6*%
G36*
X160021840Y-50498360D02*
G01*
X160021840Y-49948360D01*
X160022442Y-49948360D01*
X160022442Y-49923826D01*
X160027252Y-49874995D01*
X160036824Y-49826870D01*
X160051068Y-49779915D01*
X160069845Y-49734582D01*
X160092976Y-49691309D01*
X160120236Y-49650510D01*
X160151364Y-49612581D01*
X160186061Y-49577884D01*
X160223990Y-49546756D01*
X160264789Y-49519496D01*
X160308062Y-49496365D01*
X160353395Y-49477588D01*
X160400350Y-49463344D01*
X160448475Y-49453772D01*
X160497306Y-49448962D01*
X160521840Y-49448962D01*
X160521840Y-49448360D01*
X161021840Y-49448360D01*
X161021840Y-49448962D01*
X161046374Y-49448962D01*
X161095205Y-49453772D01*
X161143330Y-49463344D01*
X161190285Y-49477588D01*
X161235618Y-49496365D01*
X161278891Y-49519496D01*
X161319690Y-49546756D01*
X161357619Y-49577884D01*
X161392316Y-49612581D01*
X161423444Y-49650510D01*
X161450704Y-49691309D01*
X161473835Y-49734582D01*
X161492612Y-49779915D01*
X161506856Y-49826870D01*
X161516428Y-49874995D01*
X161521238Y-49923826D01*
X161521238Y-49948360D01*
X161521840Y-49948360D01*
X161521840Y-50498360D01*
X160021840Y-50498360D01*
G37*
D22*
X160771840Y-51248360D03*
D20*
G36*
X161521238Y-52548360D02*
G01*
X161521238Y-52572894D01*
X161516428Y-52621725D01*
X161506856Y-52669850D01*
X161492612Y-52716805D01*
X161473835Y-52762138D01*
X161450704Y-52805411D01*
X161423444Y-52846210D01*
X161392316Y-52884139D01*
X161357619Y-52918836D01*
X161319690Y-52949964D01*
X161278891Y-52977224D01*
X161235618Y-53000355D01*
X161190285Y-53019132D01*
X161143330Y-53033376D01*
X161095205Y-53042948D01*
X161046374Y-53047758D01*
X161021840Y-53047758D01*
X161021840Y-53048360D01*
X160521840Y-53048360D01*
X160521840Y-53047758D01*
X160497306Y-53047758D01*
X160448475Y-53042948D01*
X160400350Y-53033376D01*
X160353395Y-53019132D01*
X160308062Y-53000355D01*
X160264789Y-52977224D01*
X160223990Y-52949964D01*
X160186061Y-52918836D01*
X160151364Y-52884139D01*
X160120236Y-52846210D01*
X160092976Y-52805411D01*
X160069845Y-52762138D01*
X160051068Y-52716805D01*
X160036824Y-52669850D01*
X160027252Y-52621725D01*
X160022442Y-52572894D01*
X160022442Y-52548360D01*
X160021840Y-52548360D01*
X160021840Y-51998360D01*
X161521840Y-51998360D01*
X161521840Y-52548360D01*
X161521238Y-52548360D01*
G37*
%TD*%
%TO.C,JP9*%
G36*
X153901000Y-52820000D02*
G01*
X153401000Y-52820000D01*
X153401000Y-52819398D01*
X153376466Y-52819398D01*
X153327635Y-52814588D01*
X153279510Y-52805016D01*
X153232555Y-52790772D01*
X153187222Y-52771995D01*
X153143949Y-52748864D01*
X153103150Y-52721604D01*
X153065221Y-52690476D01*
X153030524Y-52655779D01*
X152999396Y-52617850D01*
X152972136Y-52577051D01*
X152949005Y-52533778D01*
X152930228Y-52488445D01*
X152915984Y-52441490D01*
X152906412Y-52393365D01*
X152901602Y-52344534D01*
X152901602Y-52320000D01*
X152901000Y-52320000D01*
X152901000Y-51820000D01*
X152901602Y-51820000D01*
X152901602Y-51795466D01*
X152906412Y-51746635D01*
X152915984Y-51698510D01*
X152930228Y-51651555D01*
X152949005Y-51606222D01*
X152972136Y-51562949D01*
X152999396Y-51522150D01*
X153030524Y-51484221D01*
X153065221Y-51449524D01*
X153103150Y-51418396D01*
X153143949Y-51391136D01*
X153187222Y-51368005D01*
X153232555Y-51349228D01*
X153279510Y-51334984D01*
X153327635Y-51325412D01*
X153376466Y-51320602D01*
X153401000Y-51320602D01*
X153401000Y-51320000D01*
X153901000Y-51320000D01*
X153901000Y-52820000D01*
G37*
G36*
X154701000Y-51320602D02*
G01*
X154725534Y-51320602D01*
X154774365Y-51325412D01*
X154822490Y-51334984D01*
X154869445Y-51349228D01*
X154914778Y-51368005D01*
X154958051Y-51391136D01*
X154998850Y-51418396D01*
X155036779Y-51449524D01*
X155071476Y-51484221D01*
X155102604Y-51522150D01*
X155129864Y-51562949D01*
X155152995Y-51606222D01*
X155171772Y-51651555D01*
X155186016Y-51698510D01*
X155195588Y-51746635D01*
X155200398Y-51795466D01*
X155200398Y-51820000D01*
X155201000Y-51820000D01*
X155201000Y-52320000D01*
X155200398Y-52320000D01*
X155200398Y-52344534D01*
X155195588Y-52393365D01*
X155186016Y-52441490D01*
X155171772Y-52488445D01*
X155152995Y-52533778D01*
X155129864Y-52577051D01*
X155102604Y-52617850D01*
X155071476Y-52655779D01*
X155036779Y-52690476D01*
X154998850Y-52721604D01*
X154958051Y-52748864D01*
X154914778Y-52771995D01*
X154869445Y-52790772D01*
X154822490Y-52805016D01*
X154774365Y-52814588D01*
X154725534Y-52819398D01*
X154701000Y-52819398D01*
X154701000Y-52820000D01*
X154201000Y-52820000D01*
X154201000Y-51320000D01*
X154701000Y-51320000D01*
X154701000Y-51320602D01*
G37*
%TD*%
%TO.C,J28*%
G36*
G01*
X51473800Y-22719400D02*
X49973800Y-22719400D01*
G75*
G02*
X49723800Y-22469400I0J250000D01*
G01*
X49723800Y-21269400D01*
G75*
G02*
X49973800Y-21019400I250000J0D01*
G01*
X51473800Y-21019400D01*
G75*
G02*
X51723800Y-21269400I0J-250000D01*
G01*
X51723800Y-22469400D01*
G75*
G02*
X51473800Y-22719400I-250000J0D01*
G01*
G37*
D15*
X50723800Y-19369400D03*
%TD*%
%TO.C,J25*%
G36*
G01*
X51473800Y-51777000D02*
X49973800Y-51777000D01*
G75*
G02*
X49723800Y-51527000I0J250000D01*
G01*
X49723800Y-50327000D01*
G75*
G02*
X49973800Y-50077000I250000J0D01*
G01*
X51473800Y-50077000D01*
G75*
G02*
X51723800Y-50327000I0J-250000D01*
G01*
X51723800Y-51527000D01*
G75*
G02*
X51473800Y-51777000I-250000J0D01*
G01*
G37*
X50723800Y-48427000D03*
%TD*%
D12*
%TO.C,J2*%
X191195000Y-18669000D03*
X192445000Y-18669000D03*
X193695000Y-18669000D03*
G36*
G01*
X195345000Y-18219000D02*
X195345000Y-19119000D01*
G75*
G02*
X195145000Y-19319000I-200000J0D01*
G01*
X194745000Y-19319000D01*
G75*
G02*
X194545000Y-19119000I0J200000D01*
G01*
X194545000Y-18219000D01*
G75*
G02*
X194745000Y-18019000I200000J0D01*
G01*
X195145000Y-18019000D01*
G75*
G02*
X195345000Y-18219000I0J-200000D01*
G01*
G37*
%TD*%
D16*
%TO.C,J6*%
X136809480Y-28407040D03*
G36*
G01*
X137259480Y-30057040D02*
X136359480Y-30057040D01*
G75*
G02*
X136159480Y-29857040I0J200000D01*
G01*
X136159480Y-29457040D01*
G75*
G02*
X136359480Y-29257040I200000J0D01*
G01*
X137259480Y-29257040D01*
G75*
G02*
X137459480Y-29457040I0J-200000D01*
G01*
X137459480Y-29857040D01*
G75*
G02*
X137259480Y-30057040I-200000J0D01*
G01*
G37*
%TD*%
%TO.C,J7*%
X136809480Y-23042560D03*
G36*
G01*
X137259480Y-24692560D02*
X136359480Y-24692560D01*
G75*
G02*
X136159480Y-24492560I0J200000D01*
G01*
X136159480Y-24092560D01*
G75*
G02*
X136359480Y-23892560I200000J0D01*
G01*
X137259480Y-23892560D01*
G75*
G02*
X137459480Y-24092560I0J-200000D01*
G01*
X137459480Y-24492560D01*
G75*
G02*
X137259480Y-24692560I-200000J0D01*
G01*
G37*
%TD*%
%TO.C,J8*%
X136809480Y-17627280D03*
G36*
G01*
X137259480Y-19277280D02*
X136359480Y-19277280D01*
G75*
G02*
X136159480Y-19077280I0J200000D01*
G01*
X136159480Y-18677280D01*
G75*
G02*
X136359480Y-18477280I200000J0D01*
G01*
X137259480Y-18477280D01*
G75*
G02*
X137459480Y-18677280I0J-200000D01*
G01*
X137459480Y-19077280D01*
G75*
G02*
X137259480Y-19277280I-200000J0D01*
G01*
G37*
%TD*%
%TO.C,J9*%
X131597400Y-28407040D03*
G36*
G01*
X132047400Y-30057040D02*
X131147400Y-30057040D01*
G75*
G02*
X130947400Y-29857040I0J200000D01*
G01*
X130947400Y-29457040D01*
G75*
G02*
X131147400Y-29257040I200000J0D01*
G01*
X132047400Y-29257040D01*
G75*
G02*
X132247400Y-29457040I0J-200000D01*
G01*
X132247400Y-29857040D01*
G75*
G02*
X132047400Y-30057040I-200000J0D01*
G01*
G37*
%TD*%
%TO.C,J10*%
X131597400Y-23042560D03*
G36*
G01*
X132047400Y-24692560D02*
X131147400Y-24692560D01*
G75*
G02*
X130947400Y-24492560I0J200000D01*
G01*
X130947400Y-24092560D01*
G75*
G02*
X131147400Y-23892560I200000J0D01*
G01*
X132047400Y-23892560D01*
G75*
G02*
X132247400Y-24092560I0J-200000D01*
G01*
X132247400Y-24492560D01*
G75*
G02*
X132047400Y-24692560I-200000J0D01*
G01*
G37*
%TD*%
%TO.C,J11*%
X131597400Y-17627280D03*
G36*
G01*
X132047400Y-19277280D02*
X131147400Y-19277280D01*
G75*
G02*
X130947400Y-19077280I0J200000D01*
G01*
X130947400Y-18677280D01*
G75*
G02*
X131147400Y-18477280I200000J0D01*
G01*
X132047400Y-18477280D01*
G75*
G02*
X132247400Y-18677280I0J-200000D01*
G01*
X132247400Y-19077280D01*
G75*
G02*
X132047400Y-19277280I-200000J0D01*
G01*
G37*
%TD*%
%TO.C,J12*%
X126192280Y-28407040D03*
G36*
G01*
X126642280Y-30057040D02*
X125742280Y-30057040D01*
G75*
G02*
X125542280Y-29857040I0J200000D01*
G01*
X125542280Y-29457040D01*
G75*
G02*
X125742280Y-29257040I200000J0D01*
G01*
X126642280Y-29257040D01*
G75*
G02*
X126842280Y-29457040I0J-200000D01*
G01*
X126842280Y-29857040D01*
G75*
G02*
X126642280Y-30057040I-200000J0D01*
G01*
G37*
%TD*%
%TO.C,J13*%
G36*
G01*
X126642280Y-24692560D02*
X125742280Y-24692560D01*
G75*
G02*
X125542280Y-24492560I0J200000D01*
G01*
X125542280Y-24092560D01*
G75*
G02*
X125742280Y-23892560I200000J0D01*
G01*
X126642280Y-23892560D01*
G75*
G02*
X126842280Y-24092560I0J-200000D01*
G01*
X126842280Y-24492560D01*
G75*
G02*
X126642280Y-24692560I-200000J0D01*
G01*
G37*
X126192280Y-23042560D03*
%TD*%
%TO.C,J14*%
X126192280Y-17627280D03*
G36*
G01*
X126642280Y-19277280D02*
X125742280Y-19277280D01*
G75*
G02*
X125542280Y-19077280I0J200000D01*
G01*
X125542280Y-18677280D01*
G75*
G02*
X125742280Y-18477280I200000J0D01*
G01*
X126642280Y-18477280D01*
G75*
G02*
X126842280Y-18677280I0J-200000D01*
G01*
X126842280Y-19077280D01*
G75*
G02*
X126642280Y-19277280I-200000J0D01*
G01*
G37*
%TD*%
D23*
%TO.C,J1*%
X190996960Y-43906120D03*
X190996960Y-26106120D03*
D24*
X190996960Y-39956120D03*
X190996960Y-38856120D03*
X190996960Y-37756120D03*
X190996960Y-32256120D03*
X190996960Y-31156120D03*
X190996960Y-30056120D03*
X192321960Y-29656120D03*
X192321960Y-30756120D03*
X192321960Y-31856120D03*
X192321960Y-32956120D03*
X191521960Y-33706120D03*
X192321960Y-34456120D03*
X192321960Y-35556120D03*
X191521960Y-36306120D03*
X192321960Y-37056120D03*
X192321960Y-38156120D03*
X192321960Y-39256120D03*
X192321960Y-40356120D03*
X189671960Y-40731120D03*
X189671960Y-39631120D03*
X189671960Y-38531120D03*
X189671960Y-37431120D03*
X190471960Y-36681120D03*
X189671960Y-35956120D03*
X189671960Y-34056120D03*
X190471960Y-33331120D03*
X189671960Y-32581120D03*
X189671960Y-31481120D03*
X189671960Y-30381120D03*
D25*
X189671960Y-29281120D03*
%TD*%
D16*
%TO.C,J17*%
X92951300Y-18689000D03*
G36*
G01*
X93401300Y-20339000D02*
X92501300Y-20339000D01*
G75*
G02*
X92301300Y-20139000I0J200000D01*
G01*
X92301300Y-19739000D01*
G75*
G02*
X92501300Y-19539000I200000J0D01*
G01*
X93401300Y-19539000D01*
G75*
G02*
X93601300Y-19739000I0J-200000D01*
G01*
X93601300Y-20139000D01*
G75*
G02*
X93401300Y-20339000I-200000J0D01*
G01*
G37*
%TD*%
%TO.C,J19*%
X82588100Y-18689000D03*
G36*
G01*
X83038100Y-20339000D02*
X82138100Y-20339000D01*
G75*
G02*
X81938100Y-20139000I0J200000D01*
G01*
X81938100Y-19739000D01*
G75*
G02*
X82138100Y-19539000I200000J0D01*
G01*
X83038100Y-19539000D01*
G75*
G02*
X83238100Y-19739000I0J-200000D01*
G01*
X83238100Y-20139000D01*
G75*
G02*
X83038100Y-20339000I-200000J0D01*
G01*
G37*
%TD*%
%TO.C,J18*%
X87769700Y-18689000D03*
G36*
G01*
X88219700Y-20339000D02*
X87319700Y-20339000D01*
G75*
G02*
X87119700Y-20139000I0J200000D01*
G01*
X87119700Y-19739000D01*
G75*
G02*
X87319700Y-19539000I200000J0D01*
G01*
X88219700Y-19539000D01*
G75*
G02*
X88419700Y-19739000I0J-200000D01*
G01*
X88419700Y-20139000D01*
G75*
G02*
X88219700Y-20339000I-200000J0D01*
G01*
G37*
%TD*%
D26*
%TO.C,J30*%
X68478400Y-44551600D03*
X68478400Y-41376600D03*
X68478400Y-38201600D03*
%TD*%
%TO.C,J3*%
G36*
G01*
X179470000Y-51620000D02*
X179470000Y-52520000D01*
G75*
G02*
X179270000Y-52720000I-200000J0D01*
G01*
X178870000Y-52720000D01*
G75*
G02*
X178670000Y-52520000I0J200000D01*
G01*
X178670000Y-51620000D01*
G75*
G02*
X178870000Y-51420000I200000J0D01*
G01*
X179270000Y-51420000D01*
G75*
G02*
X179470000Y-51620000I0J-200000D01*
G01*
G37*
D12*
X177820000Y-52070000D03*
X176570000Y-52070000D03*
X175320000Y-52070000D03*
%TD*%
%TO.C,J22*%
X140516600Y-47434500D03*
X141766600Y-47434500D03*
X143016600Y-47434500D03*
X144266600Y-47434500D03*
G36*
G01*
X145916600Y-46984500D02*
X145916600Y-47884500D01*
G75*
G02*
X145716600Y-48084500I-200000J0D01*
G01*
X145316600Y-48084500D01*
G75*
G02*
X145116600Y-47884500I0J200000D01*
G01*
X145116600Y-46984500D01*
G75*
G02*
X145316600Y-46784500I200000J0D01*
G01*
X145716600Y-46784500D01*
G75*
G02*
X145916600Y-46984500I0J-200000D01*
G01*
G37*
%TD*%
%TO.C,J23*%
X140516600Y-51917600D03*
X141766600Y-51917600D03*
X143016600Y-51917600D03*
X144266600Y-51917600D03*
G36*
G01*
X145916600Y-51467600D02*
X145916600Y-52367600D01*
G75*
G02*
X145716600Y-52567600I-200000J0D01*
G01*
X145316600Y-52567600D01*
G75*
G02*
X145116600Y-52367600I0J200000D01*
G01*
X145116600Y-51467600D01*
G75*
G02*
X145316600Y-51267600I200000J0D01*
G01*
X145716600Y-51267600D01*
G75*
G02*
X145916600Y-51467600I0J-200000D01*
G01*
G37*
%TD*%
%TO.C,J21*%
X140516600Y-42951400D03*
X141766600Y-42951400D03*
X143016600Y-42951400D03*
X144266600Y-42951400D03*
G36*
G01*
X145916600Y-42501400D02*
X145916600Y-43401400D01*
G75*
G02*
X145716600Y-43601400I-200000J0D01*
G01*
X145316600Y-43601400D01*
G75*
G02*
X145116600Y-43401400I0J200000D01*
G01*
X145116600Y-42501400D01*
G75*
G02*
X145316600Y-42301400I200000J0D01*
G01*
X145716600Y-42301400D01*
G75*
G02*
X145916600Y-42501400I0J-200000D01*
G01*
G37*
%TD*%
M02*
