M48
; DRILL file {KiCad (5.1.9)-1} date 05/21/21 14:20:43
; FORMAT={-:-/ absolute / inch / decimal}
; #@! TF.CreationDate,2021-05-21T14:20:43+01:00
; #@! TF.GenerationSoftware,Kicad,Pcbnew,(5.1.9)-1
; #@! TF.FileFunction,Plated,1,4,PTH
FMAT,2
INCH
T1C0.0157
T2C0.0197
T3C0.0228
T4C0.0315
T5C0.0315
T6C0.0319
T7C0.0350
T8C0.0394
T9C0.0472
T10C0.0618
T11C0.1301
%
G90
G05
T1
X1.942Y-1.382
X1.9525Y-1.765
X1.954Y-0.9945
X2.14Y-1.159
X2.2049Y-1.5073
X2.2049Y-1.8645
X2.225Y-0.783
X2.256Y-1.047
X2.275Y-1.299
X2.3925Y-0.715
X2.45Y-0.898
X2.45Y-1.4
X2.45Y-1.604
X2.458Y-1.792
X2.46Y-2.04
X2.5515Y-1.1225
X2.9645Y-1.5145
X3.134Y-1.83
X3.1347Y-1.4997
X3.159Y-1.7365
X3.296Y-1.288
X3.308Y-1.338
X3.3124Y-1.8736
X3.338Y-1.538
X3.348Y-1.048
X3.3658Y-1.466
X3.4014Y-1.4197
X3.4069Y-1.4615
X3.4574Y-1.433
X3.474Y-1.2437
X3.4928Y-1.4876
X3.515Y-1.29
X3.5358Y-1.9566
X3.5532Y-1.6667
X3.5533Y-1.5034
X3.5864Y-1.6816
X3.5913Y-1.2644
X3.6024Y-1.6341
X3.6387Y-1.6324
X3.7Y-1.655
X3.7324Y-1.6162
X3.7931Y-1.2771
X3.8147Y-1.5105
X3.8318Y-1.2665
X3.861Y-1.7409
X3.979Y-1.486
X3.9895Y-1.161
X3.993Y-1.8535
X4.0Y-1.431
X4.2501Y-1.2431
X4.2728Y-1.9476
X4.2894Y-1.669
X4.3202Y-1.6332
X4.332Y-1.492
X4.4275Y-1.4965
X4.445Y-1.59
X4.5328Y-1.6516
X4.547Y-1.487
X4.5509Y-1.2423
X4.5665Y-1.72
X4.5949Y-1.2324
X4.6107Y-1.439
X4.6677Y-1.6323
X4.702Y-1.038
X4.7557Y-1.665
X4.8005Y-1.6222
X4.818Y-1.315
X4.8394Y-1.2246
X4.866Y-1.198
X4.874Y-2.058
X4.8838Y-1.5945
X4.894Y-1.882
X4.899Y-1.4615
X4.9018Y-1.7684
X4.9313Y-1.6792
X4.9474Y-1.8146
X4.951Y-1.43
X4.9695Y-1.4698
X5.0247Y-1.4167
X5.064Y-0.81
X5.0779Y-1.5945
X5.105Y-1.88
X5.1059Y-1.4131
X5.112Y-2.0435
X5.1473Y-1.5483
X5.174Y-1.986
X5.1892Y-1.5331
X5.1911Y-1.4379
X5.1993Y-2.0566
X5.2128Y-1.5714
X5.2275Y-1.027
X5.23Y-0.818
X5.2339Y-1.5138
X5.2417Y-1.8527
X5.282Y-1.4671
X5.285Y-1.5232
X5.285Y-1.6131
X5.2974Y-1.4341
X5.3005Y-1.756
X5.3358Y-1.5811
X5.3536Y-1.4209
X5.412Y-2.0617
X5.4146Y-1.5421
X5.435Y-1.718
X5.445Y-2.0385
X5.4619Y-1.2235
X5.4936Y-1.5512
X5.5045Y-1.743
X5.5363Y-1.4578
X5.5561Y-1.3427
X5.5832Y-1.9656
X5.662Y-1.952
X5.7167Y-1.6136
X5.762Y-1.096
X5.815Y-1.75
X5.8234Y-2.0164
X5.8282Y-1.6482
X5.8294Y-1.9805
X5.8535Y-1.743
X5.874Y-1.122
X5.9032Y-1.7501
X5.9045Y-1.9397
X5.93Y-2.0005
X5.9394Y-1.7428
X5.9396Y-1.6572
X5.9498Y-1.7891
X5.9803Y-1.6602
X5.9819Y-2.0159
X5.9872Y-1.9594
X5.9985Y-1.769
X6.0233Y-1.618
X6.041Y-1.7755
X6.043Y-1.5436
X6.0437Y-1.584
X6.076Y-1.762
X6.102Y-1.788
X6.1204Y-1.6023
X6.1252Y-1.556
X6.132Y-1.9584
X6.1461Y-1.2851
X6.1501Y-2.0493
X6.16Y-0.954
X6.164Y-1.858
X6.1698Y-1.4983
X6.196Y-0.6914
X6.2456Y-1.2753
X6.246Y-1.4707
X6.256Y-1.657
X6.2584Y-1.9593
X6.2666Y-1.8999
X6.2755Y-2.0435
X6.2823Y-1.3997
X6.3161Y-1.8993
X6.3186Y-1.4149
X6.3529Y-1.2757
X6.3589Y-1.8645
X6.3721Y-1.5728
X6.3735Y-1.436
X6.3744Y-1.1612
X6.3777Y-1.9494
X6.3839Y-2.1158
X6.3899Y-1.7048
X6.4285Y-1.774
X6.452Y-1.802
X6.4524Y-1.6669
X6.4542Y-1.0846
X6.4931Y-1.6661
X6.497Y-1.2976
X6.5005Y-1.9365
X6.5118Y-1.0532
X6.5184Y-1.61
X6.5198Y-1.7066
X6.5378Y-1.6417
X6.5598Y-1.7336
X6.566Y-1.8707
X6.566Y-1.7995
X6.5722Y-1.4463
X6.573Y-1.5281
X6.5865Y-1.6455
X6.5907Y-2.0176
X6.5987Y-1.554
X6.6022Y-1.8103
X6.6058Y-2.0576
X6.6098Y-1.7599
X6.622Y-1.2622
X6.6338Y-1.4931
X6.6365Y-1.6325
X6.6376Y-1.8018
X6.6515Y-1.841
X6.682Y-1.1268
X6.7198Y-2.077
X6.7278Y-2.0319
X6.7426Y-1.8881
X6.756Y-1.6975
X6.7634Y-1.0448
X6.806Y-2.0515
X6.8284Y-1.8902
X6.848Y-1.494
X6.8675Y-1.3125
X6.8733Y-1.8096
X6.884Y-1.562
X6.8842Y-1.7749
X6.8896Y-1.8967
X6.896Y-0.8098
X6.9127Y-1.867
X6.9206Y-1.7762
X6.9208Y-1.7398
X6.9235Y-1.7
X6.93Y-1.215
X6.9436Y-1.8477
X6.9557Y-1.9049
X6.9796Y-1.1369
X6.982Y-1.8759
X7.0132Y-1.857
X7.0304Y-1.5198
X7.052Y-1.064
X7.0525Y-1.862
X7.0923Y-1.3602
X7.114Y-1.088
X7.1322Y-1.5166
X7.143Y-0.7256
X7.1565Y-1.0235
X7.2494Y-1.4826
X7.2602Y-1.1358
X7.3026Y-1.0894
X7.3084Y-0.8224
X7.3236Y-1.3642
X7.3838Y-0.8028
X7.4107Y-1.1522
X7.442Y-1.956
X7.5752Y-2.0086
X7.715Y-0.84
T2
X3.0475Y-0.7358
X3.0475Y-0.785
X3.2515Y-0.7358
X3.2515Y-0.785
X3.4555Y-0.7358
X3.4555Y-0.785
X3.6595Y-0.7358
X3.6595Y-0.785
X3.8635Y-0.7358
X3.8635Y-0.785
X4.0675Y-0.7358
X4.0675Y-0.785
X4.9682Y-0.694
X4.9682Y-0.7432
X4.9682Y-0.9072
X4.9682Y-0.9564
X4.9682Y-1.1184
X4.9682Y-1.1676
X5.181Y-0.694
X5.181Y-0.7432
X5.181Y-0.9072
X5.181Y-0.9564
X5.181Y-1.1184
X5.181Y-1.1676
X5.3862Y-0.694
X5.3862Y-0.7432
X5.3862Y-0.9072
X5.3862Y-0.9564
X5.3862Y-1.1184
X5.3862Y-1.1676
X5.5321Y-1.691
X5.5321Y-1.8675
X5.5321Y-2.044
X5.5814Y-1.691
X5.5814Y-1.8675
X5.5814Y-2.044
X5.6306Y-1.691
X5.6306Y-1.8675
X5.6306Y-2.044
X5.6798Y-1.691
X5.6798Y-1.8675
X5.6798Y-2.044
X5.729Y-1.691
X5.729Y-1.8675
X5.729Y-2.044
X5.988Y-1.3684
X6.0372Y-1.3684
X6.0864Y-1.3684
X6.1356Y-1.3684
X6.9024Y-2.05
X6.9516Y-2.05
X7.0008Y-2.05
X7.05Y-2.05
X7.2268Y-2.0505
X7.276Y-2.0505
X7.5274Y-0.735
X7.5766Y-0.735
X7.6258Y-0.735
X7.675Y-0.735
T3
X7.4674Y-1.1528
X7.4674Y-1.1961
X7.4674Y-1.2394
X7.4674Y-1.2827
X7.4674Y-1.3408
X7.4674Y-1.4156
X7.4674Y-1.4737
X7.4674Y-1.517
X7.4674Y-1.5603
X7.4674Y-1.6036
X7.4989Y-1.3122
X7.4989Y-1.4441
X7.5196Y-1.1833
X7.5196Y-1.2266
X7.5196Y-1.2699
X7.5196Y-1.4865
X7.5196Y-1.5298
X7.5196Y-1.5731
X7.5402Y-1.327
X7.5402Y-1.4294
X7.5717Y-1.1676
X7.5717Y-1.2109
X7.5717Y-1.2542
X7.5717Y-1.2975
X7.5717Y-1.3565
X7.5717Y-1.3998
X7.5717Y-1.4589
X7.5717Y-1.5022
X7.5717Y-1.5455
X7.5717Y-1.5888
T4
X5.7392Y-0.7788
X5.8392Y-0.7788
X5.9392Y-0.7788
X6.2892Y-0.7846
X6.3892Y-0.7846
X6.4892Y-0.7846
T5
X2.696Y-1.504
X2.696Y-1.629
X2.696Y-1.754
T6
X2.5779Y-1.2292
X2.5779Y-1.3292
X2.5779Y-1.4292
X2.5779Y-1.5292
X2.5779Y-1.6292
X2.5779Y-1.7292
X4.7062Y-1.1556
X4.7062Y-1.2556
X4.7062Y-1.3556
X4.7062Y-1.4556
X4.7062Y-1.5556
T7
X2.9379Y-1.0839
X2.9379Y-1.3437
X2.9879Y-1.1839
X2.9879Y-1.4437
X3.0379Y-1.0839
X3.0379Y-1.3437
X3.0879Y-1.1839
X3.0879Y-1.4437
X3.1379Y-1.0839
X3.1379Y-1.3437
X3.1879Y-1.1839
X3.1879Y-1.4437
X3.2379Y-1.0839
X3.2379Y-1.3437
X3.2879Y-1.1839
X3.2879Y-1.4437
X3.4879Y-1.0839
X3.4879Y-1.3437
X3.5379Y-1.1839
X3.5379Y-1.4437
X3.5879Y-1.0839
X3.5879Y-1.3437
X3.6379Y-1.1839
X3.6379Y-1.4437
X3.6879Y-1.0839
X3.6879Y-1.3437
X3.7379Y-1.1839
X3.7379Y-1.4437
X3.7879Y-1.0839
X3.7879Y-1.3437
X3.8379Y-1.1839
X3.8379Y-1.4437
X4.0379Y-1.0839
X4.0379Y-1.3437
X4.0879Y-1.1839
X4.0879Y-1.4437
X4.1379Y-1.0839
X4.1379Y-1.3437
X4.1879Y-1.1839
X4.1879Y-1.4437
X4.2379Y-1.0839
X4.2379Y-1.3437
X4.2879Y-1.1839
X4.2879Y-1.4437
X4.3379Y-1.0839
X4.3379Y-1.3437
X4.3879Y-1.1839
X4.3879Y-1.4437
T8
X1.997Y-0.7626
X1.997Y-0.861
X1.997Y-1.1439
X1.997Y-1.2423
X1.997Y-1.5252
X1.997Y-1.6237
X1.997Y-1.9066
X1.997Y-2.005
X6.738Y-0.786
X6.738Y-0.8844
T9
X5.9Y-1.56
T10
X2.7781Y-1.2437
X2.7781Y-1.8736
X2.808Y-1.4638
X4.5178Y-1.3339
X4.5477Y-1.0839
X4.5477Y-1.8736
T11
X7.5196Y-1.0278
X7.5196Y-1.7286
T0
M30
