%TF.GenerationSoftware,KiCad,Pcbnew,(5.1.4)-1*%
%TF.CreationDate,2023-02-08T11:14:36+00:00*%
%TF.ProjectId,MountBoard_0.35_0.4,4d6f756e-7442-46f6-9172-645f302e3335,rev?*%
%TF.SameCoordinates,Original*%
%TF.FileFunction,Copper,L1,Top*%
%TF.FilePolarity,Positive*%
%FSLAX46Y46*%
G04 Gerber Fmt 4.6, Leading zero omitted, Abs format (unit mm)*
G04 Created by KiCad (PCBNEW (5.1.4)-1) date 2023-02-08 11:14:36*
%MOMM*%
%LPD*%
G04 APERTURE LIST*
%TA.AperFunction,ComponentPad*%
%ADD10C,3.000000*%
%TD*%
%TA.AperFunction,ViaPad*%
%ADD11C,0.700000*%
%TD*%
%TA.AperFunction,Conductor*%
%ADD12C,0.254000*%
%TD*%
G04 APERTURE END LIST*
D10*
%TO.P,GND,1*%
%TO.N,GND*%
X-6436360Y76200D03*
%TD*%
D11*
%TO.N,*%
X0Y0D03*
X-4000000Y0D03*
X4250000Y0D03*
%TO.N,GND*%
X3200000Y600000D03*
X1600000Y1200000D03*
X1200000Y3500000D03*
X-400000Y2600000D03*
X-2400000Y5000000D03*
X-3200000Y2200000D03*
X1600000Y-1200000D03*
X-400000Y-2600000D03*
X1200000Y-3500000D03*
X3200000Y-600000D03*
X-2400000Y-5000000D03*
X-3200000Y-2200000D03*
%TD*%
D12*
%TO.N,GND*%
G36*
X1643480Y4923139D02*
G01*
X4340000Y2226619D01*
X4340000Y985000D01*
X4152986Y985000D01*
X3962686Y947147D01*
X3783428Y872896D01*
X3622099Y765099D01*
X3484901Y627901D01*
X3377104Y466572D01*
X3302853Y287314D01*
X3265000Y97014D01*
X3265000Y-97014D01*
X3302853Y-287314D01*
X3377104Y-466572D01*
X3484901Y-627901D01*
X3622099Y-765099D01*
X3783428Y-872896D01*
X3962686Y-947147D01*
X4152986Y-985000D01*
X4340001Y-985000D01*
X4340001Y-2226618D01*
X1643480Y-4923139D01*
X-1107102Y-5840000D01*
X-4671241Y-5840000D01*
X-8010522Y-1415453D01*
X-7748408Y-1415453D01*
X-7592398Y-1731014D01*
X-7217615Y-1921820D01*
X-6812809Y-2035844D01*
X-6393536Y-2068702D01*
X-5975909Y-2019134D01*
X-5575977Y-1889043D01*
X-5280322Y-1731014D01*
X-5124312Y-1415453D01*
X-6436360Y-103405D01*
X-7748408Y-1415453D01*
X-8010522Y-1415453D01*
X-8340000Y-978896D01*
X-8340000Y-899435D01*
X-8243574Y-1079838D01*
X-7928013Y-1235848D01*
X-6615965Y76200D01*
X-6256755Y76200D01*
X-4944707Y-1235848D01*
X-4629146Y-1079838D01*
X-4509266Y-844369D01*
X-4466572Y-872896D01*
X-4287314Y-947147D01*
X-4097014Y-985000D01*
X-3902986Y-985000D01*
X-3712686Y-947147D01*
X-3533428Y-872896D01*
X-3372099Y-765099D01*
X-3234901Y-627901D01*
X-3127104Y-466572D01*
X-3052853Y-287314D01*
X-3015000Y-97014D01*
X-3015000Y97014D01*
X-985000Y97014D01*
X-985000Y-97014D01*
X-947147Y-287314D01*
X-872896Y-466572D01*
X-765099Y-627901D01*
X-627901Y-765099D01*
X-466572Y-872896D01*
X-287314Y-947147D01*
X-97014Y-985000D01*
X97014Y-985000D01*
X287314Y-947147D01*
X466572Y-872896D01*
X627901Y-765099D01*
X765099Y-627901D01*
X872896Y-466572D01*
X947147Y-287314D01*
X985000Y-97014D01*
X985000Y97014D01*
X947147Y287314D01*
X872896Y466572D01*
X765099Y627901D01*
X627901Y765099D01*
X466572Y872896D01*
X287314Y947147D01*
X97014Y985000D01*
X-97014Y985000D01*
X-287314Y947147D01*
X-466572Y872896D01*
X-627901Y765099D01*
X-765099Y627901D01*
X-872896Y466572D01*
X-947147Y287314D01*
X-985000Y97014D01*
X-3015000Y97014D01*
X-3052853Y287314D01*
X-3127104Y466572D01*
X-3234901Y627901D01*
X-3372099Y765099D01*
X-3533428Y872896D01*
X-3712686Y947147D01*
X-3902986Y985000D01*
X-4097014Y985000D01*
X-4287314Y947147D01*
X-4452321Y878799D01*
X-4471117Y936583D01*
X-4629146Y1232238D01*
X-4944707Y1388248D01*
X-6256755Y76200D01*
X-6615965Y76200D01*
X-6630108Y90343D01*
X-6450503Y269948D01*
X-6436360Y255805D01*
X-5124312Y1567853D01*
X-5280322Y1883414D01*
X-5655105Y2074220D01*
X-6059911Y2188244D01*
X-6479184Y2221102D01*
X-6896811Y2171534D01*
X-7296743Y2041443D01*
X-7592398Y1883414D01*
X-7748407Y1567855D01*
X-7832235Y1651683D01*
X-4671241Y5840000D01*
X-1107102Y5840000D01*
X1643480Y4923139D01*
X1643480Y4923139D01*
G37*
X1643480Y4923139D02*
X4340000Y2226619D01*
X4340000Y985000D01*
X4152986Y985000D01*
X3962686Y947147D01*
X3783428Y872896D01*
X3622099Y765099D01*
X3484901Y627901D01*
X3377104Y466572D01*
X3302853Y287314D01*
X3265000Y97014D01*
X3265000Y-97014D01*
X3302853Y-287314D01*
X3377104Y-466572D01*
X3484901Y-627901D01*
X3622099Y-765099D01*
X3783428Y-872896D01*
X3962686Y-947147D01*
X4152986Y-985000D01*
X4340001Y-985000D01*
X4340001Y-2226618D01*
X1643480Y-4923139D01*
X-1107102Y-5840000D01*
X-4671241Y-5840000D01*
X-8010522Y-1415453D01*
X-7748408Y-1415453D01*
X-7592398Y-1731014D01*
X-7217615Y-1921820D01*
X-6812809Y-2035844D01*
X-6393536Y-2068702D01*
X-5975909Y-2019134D01*
X-5575977Y-1889043D01*
X-5280322Y-1731014D01*
X-5124312Y-1415453D01*
X-6436360Y-103405D01*
X-7748408Y-1415453D01*
X-8010522Y-1415453D01*
X-8340000Y-978896D01*
X-8340000Y-899435D01*
X-8243574Y-1079838D01*
X-7928013Y-1235848D01*
X-6615965Y76200D01*
X-6256755Y76200D01*
X-4944707Y-1235848D01*
X-4629146Y-1079838D01*
X-4509266Y-844369D01*
X-4466572Y-872896D01*
X-4287314Y-947147D01*
X-4097014Y-985000D01*
X-3902986Y-985000D01*
X-3712686Y-947147D01*
X-3533428Y-872896D01*
X-3372099Y-765099D01*
X-3234901Y-627901D01*
X-3127104Y-466572D01*
X-3052853Y-287314D01*
X-3015000Y-97014D01*
X-3015000Y97014D01*
X-985000Y97014D01*
X-985000Y-97014D01*
X-947147Y-287314D01*
X-872896Y-466572D01*
X-765099Y-627901D01*
X-627901Y-765099D01*
X-466572Y-872896D01*
X-287314Y-947147D01*
X-97014Y-985000D01*
X97014Y-985000D01*
X287314Y-947147D01*
X466572Y-872896D01*
X627901Y-765099D01*
X765099Y-627901D01*
X872896Y-466572D01*
X947147Y-287314D01*
X985000Y-97014D01*
X985000Y97014D01*
X947147Y287314D01*
X872896Y466572D01*
X765099Y627901D01*
X627901Y765099D01*
X466572Y872896D01*
X287314Y947147D01*
X97014Y985000D01*
X-97014Y985000D01*
X-287314Y947147D01*
X-466572Y872896D01*
X-627901Y765099D01*
X-765099Y627901D01*
X-872896Y466572D01*
X-947147Y287314D01*
X-985000Y97014D01*
X-3015000Y97014D01*
X-3052853Y287314D01*
X-3127104Y466572D01*
X-3234901Y627901D01*
X-3372099Y765099D01*
X-3533428Y872896D01*
X-3712686Y947147D01*
X-3902986Y985000D01*
X-4097014Y985000D01*
X-4287314Y947147D01*
X-4452321Y878799D01*
X-4471117Y936583D01*
X-4629146Y1232238D01*
X-4944707Y1388248D01*
X-6256755Y76200D01*
X-6615965Y76200D01*
X-6630108Y90343D01*
X-6450503Y269948D01*
X-6436360Y255805D01*
X-5124312Y1567853D01*
X-5280322Y1883414D01*
X-5655105Y2074220D01*
X-6059911Y2188244D01*
X-6479184Y2221102D01*
X-6896811Y2171534D01*
X-7296743Y2041443D01*
X-7592398Y1883414D01*
X-7748407Y1567855D01*
X-7832235Y1651683D01*
X-4671241Y5840000D01*
X-1107102Y5840000D01*
X1643480Y4923139D01*
%TD*%
M02*
