M48
; DRILL file {KiCad (5.1.4)-1} date 12/01/2023 23:36:23
; FORMAT={-:-/ absolute / inch / decimal}
; #@! TF.CreationDate,2023-01-12T23:36:23+00:00
; #@! TF.GenerationSoftware,Kicad,Pcbnew,(5.1.4)-1
; #@! TF.FileFunction,Plated,1,4,PTH
FMAT,2
INCH
T1C0.0079
T2C0.0120
T3C0.0197
%
G90
G05
T1
X-0.2047Y0.0886
X-0.1889Y-0.0886
X-0.1417Y0.0886
X-0.1259Y-0.0886
X-0.0788Y0.0886
X-0.0628Y-0.0886
X-0.0156Y0.0886
X0.0Y-0.0886
X0.0472Y0.0886
X0.063Y-0.0886
X0.1103Y0.0885
X0.126Y-0.0886
X0.1732Y0.0886
X0.189Y-0.0886
X0.2362Y0.0886
X0.252Y0.0079
X0.252Y-0.0885
T2
X0.1381Y-0.1705
X0.0852Y0.1705
X0.1381Y0.1705
X0.1909Y0.1705
X0.0324Y-0.1705
X-0.0204Y0.1705
X0.0324Y0.1705
X-0.1261Y-0.1705
X0.2559Y0.126
X-0.1789Y0.1705
X-0.0732Y0.1705
X-0.0732Y-0.1705
X0.2559Y-0.126
X0.0852Y-0.1705
X0.1909Y-0.1705
X-0.1261Y0.1705
X-0.1789Y-0.1705
X-0.0204Y-0.1705
T3
X-0.235Y-0.167
X0.2437Y-0.167
X0.2437Y0.1705
X-0.235Y0.1671
T0
M30
