%TF.GenerationSoftware,KiCad,Pcbnew,(5.1.4)-1*%
%TF.CreationDate,2023-01-12T23:36:30+00:00*%
%TF.ProjectId,10X15M,31305831-354d-42e6-9b69-6361645f7063,rev?*%
%TF.SameCoordinates,Original*%
%TF.FileFunction,Copper,L4,Bot*%
%TF.FilePolarity,Positive*%
%FSLAX46Y46*%
G04 Gerber Fmt 4.6, Leading zero omitted, Abs format (unit mm)*
G04 Created by KiCad (PCBNEW (5.1.4)-1) date 2023-01-12 23:36:30*
%MOMM*%
%LPD*%
G04 APERTURE LIST*
%TA.AperFunction,BGAPad,CuDef*%
%ADD10C,4.000000*%
%TD*%
%TA.AperFunction,ComponentPad*%
%ADD11C,0.533400*%
%TD*%
%TA.AperFunction,ComponentPad*%
%ADD12C,0.700000*%
%TD*%
%TA.AperFunction,ViaPad*%
%ADD13C,0.352000*%
%TD*%
%TA.AperFunction,Conductor*%
%ADD14C,0.063500*%
%TD*%
G04 APERTURE END LIST*
D10*
%TO.P,MP2,1*%
%TO.N,N/C*%
X3650000Y0D03*
%TD*%
%TO.P,MP1,1*%
%TO.N,N/C*%
X-4250000Y0D03*
%TD*%
%TO.P,REF\002A\002A,1*%
%TO.N,N/C*%
X-425000000Y0D03*
%TD*%
D11*
%TO.P,REF\002A\002A,0*%
%TO.N,GND*%
X6500000Y-3200000D03*
%TD*%
%TO.P,REF\002A\002A,0*%
%TO.N,Net-(J1-Pad69)*%
X6500000Y3200000D03*
%TD*%
D12*
%TO.P,GND1,P$1*%
%TO.N,GND*%
X6190252Y-4243000D03*
%TD*%
%TO.P,SHLD_A1,P$1*%
%TO.N,GND*%
X-5969000Y4243363D03*
%TD*%
%TO.P,GND0,P$1*%
%TO.N,GND*%
X-5969000Y-4243000D03*
%TD*%
%TO.P,REF1,P$1*%
%TO.N,Net-(J1-Pad69)*%
X6190252Y4330363D03*
%TD*%
D11*
%TO.P,LFP9,0*%
%TO.N,Net-(J1-Pad68)*%
X4848476Y4330363D03*
%TD*%
%TO.P,LFP13,0*%
%TO.N,Net-(J1-Pad52)*%
X-518612Y4330363D03*
%TD*%
%TO.P,LFP5,0*%
%TO.N,Net-(J1-Pad18)*%
X-518612Y-4330363D03*
%TD*%
%TO.P,LFP12,0*%
%TO.N,Net-(J1-Pad56)*%
X823160Y4330363D03*
%TD*%
%TO.P,LFP3,0*%
%TO.N,Net-(J1-Pad10)*%
X2164932Y-4330363D03*
%TD*%
%TO.P,LFP16,0*%
%TO.N,Net-(J1-Pad40)*%
X-4543928Y4330363D03*
%TD*%
%TO.P,LFP15,0*%
%TO.N,Net-(J1-Pad44)*%
X-3202156Y4330363D03*
%TD*%
%TO.P,LFP2,0*%
%TO.N,Net-(J1-Pad6)*%
X3506704Y-4330363D03*
%TD*%
%TO.P,LFP14,0*%
%TO.N,Net-(J1-Pad48)*%
X-1860384Y4330363D03*
%TD*%
%TO.P,LFP1,0*%
%TO.N,Net-(J1-Pad2)*%
X4848476Y-4330363D03*
%TD*%
%TO.P,LFP7,0*%
%TO.N,Net-(J1-Pad26)*%
X-3202156Y-4330363D03*
%TD*%
%TO.P,LFP4,0*%
%TO.N,Net-(J1-Pad14)*%
X823160Y-4330363D03*
%TD*%
%TO.P,LFP8,0*%
%TO.N,Net-(J1-Pad30)*%
X-4543928Y-4330363D03*
%TD*%
%TO.P,LFP10,0*%
%TO.N,Net-(J1-Pad64)*%
X3506704Y4330363D03*
%TD*%
%TO.P,LFP11,0*%
%TO.N,Net-(J1-Pad60)*%
X2164932Y4330363D03*
%TD*%
%TO.P,LFP6,0*%
%TO.N,Net-(J1-Pad22)*%
X-1860384Y-4330363D03*
%TD*%
D13*
%TO.N,Net-(J1-Pad68)*%
X5999480Y2250000D03*
%TO.N,Net-(J1-Pad14)*%
X1600200Y-2250000D03*
%TO.N,Net-(J1-Pad10)*%
X3200400Y-2250000D03*
%TO.N,Net-(J1-Pad6)*%
X4800600Y-2250000D03*
%TO.N,Net-(J1-Pad2)*%
X6400800Y-2248920D03*
%TO.N,Net-(J1-Pad69)*%
X6400000Y200000D03*
%TO.N,Net-(J1-Pad64)*%
X4399280Y2250000D03*
%TO.N,Net-(J1-Pad60)*%
X2801620Y2248920D03*
%TO.N,Net-(J1-Pad56)*%
X1198880Y2250000D03*
%TO.N,Net-(J1-Pad52)*%
X-396240Y2250440D03*
%TO.N,Net-(J1-Pad48)*%
X-2001520Y2250000D03*
%TO.N,Net-(J1-Pad44)*%
X-3599180Y2250000D03*
%TO.N,Net-(J1-Pad40)*%
X-5199380Y2251460D03*
%TO.N,Net-(J1-Pad30)*%
X-4798060Y-2250000D03*
%TO.N,Net-(J1-Pad26)*%
X-3197860Y-2250000D03*
%TO.N,Net-(J1-Pad22)*%
X-1595120Y-2250000D03*
%TO.N,Net-(J1-Pad18)*%
X0Y-2250000D03*
%TD*%
D14*
%TO.N,GND*%
G36*
X7343250Y1981954D02*
G01*
X7343251Y-1981950D01*
X6675615Y-4843250D01*
X-6675615Y-4843250D01*
X-6722808Y-4640992D01*
X-6286735Y-4640992D01*
X-6251413Y-4728256D01*
X-6151318Y-4774029D01*
X-6044216Y-4799393D01*
X-5934223Y-4803376D01*
X-5825568Y-4785825D01*
X-5722424Y-4747413D01*
X-5686587Y-4728256D01*
X-5651265Y-4640992D01*
X-5969000Y-4323257D01*
X-6286735Y-4640992D01*
X-6722808Y-4640992D01*
X-6807558Y-4277777D01*
X-6529376Y-4277777D01*
X-6511825Y-4386432D01*
X-6473413Y-4489576D01*
X-6454256Y-4525413D01*
X-6366992Y-4560735D01*
X-6049257Y-4243000D01*
X-5888743Y-4243000D01*
X-5571008Y-4560735D01*
X-5483744Y-4525413D01*
X-5437971Y-4425318D01*
X-5412607Y-4318216D01*
X-5411621Y-4290961D01*
X-4943978Y-4290961D01*
X-4943978Y-4369765D01*
X-4928605Y-4447053D01*
X-4898448Y-4519858D01*
X-4854667Y-4585380D01*
X-4798945Y-4641102D01*
X-4733423Y-4684883D01*
X-4660618Y-4715040D01*
X-4583330Y-4730413D01*
X-4504526Y-4730413D01*
X-4427238Y-4715040D01*
X-4354433Y-4684883D01*
X-4288911Y-4641102D01*
X-4233189Y-4585380D01*
X-4189408Y-4519858D01*
X-4159251Y-4447053D01*
X-4143878Y-4369765D01*
X-4143878Y-4290961D01*
X-3602206Y-4290961D01*
X-3602206Y-4369765D01*
X-3586833Y-4447053D01*
X-3556676Y-4519858D01*
X-3512895Y-4585380D01*
X-3457173Y-4641102D01*
X-3391651Y-4684883D01*
X-3318846Y-4715040D01*
X-3241558Y-4730413D01*
X-3162754Y-4730413D01*
X-3085466Y-4715040D01*
X-3012661Y-4684883D01*
X-2947139Y-4641102D01*
X-2891417Y-4585380D01*
X-2847636Y-4519858D01*
X-2817479Y-4447053D01*
X-2802106Y-4369765D01*
X-2802106Y-4290961D01*
X-2260434Y-4290961D01*
X-2260434Y-4369765D01*
X-2245061Y-4447053D01*
X-2214904Y-4519858D01*
X-2171123Y-4585380D01*
X-2115401Y-4641102D01*
X-2049879Y-4684883D01*
X-1977074Y-4715040D01*
X-1899786Y-4730413D01*
X-1820982Y-4730413D01*
X-1743694Y-4715040D01*
X-1670889Y-4684883D01*
X-1605367Y-4641102D01*
X-1549645Y-4585380D01*
X-1505864Y-4519858D01*
X-1475707Y-4447053D01*
X-1460334Y-4369765D01*
X-1460334Y-4290961D01*
X-918662Y-4290961D01*
X-918662Y-4369765D01*
X-903289Y-4447053D01*
X-873132Y-4519858D01*
X-829351Y-4585380D01*
X-773629Y-4641102D01*
X-708107Y-4684883D01*
X-635302Y-4715040D01*
X-558014Y-4730413D01*
X-479210Y-4730413D01*
X-401922Y-4715040D01*
X-329117Y-4684883D01*
X-263595Y-4641102D01*
X-207873Y-4585380D01*
X-164092Y-4519858D01*
X-133935Y-4447053D01*
X-118562Y-4369765D01*
X-118562Y-4290961D01*
X423110Y-4290961D01*
X423110Y-4369765D01*
X438483Y-4447053D01*
X468640Y-4519858D01*
X512421Y-4585380D01*
X568143Y-4641102D01*
X633665Y-4684883D01*
X706470Y-4715040D01*
X783758Y-4730413D01*
X862562Y-4730413D01*
X939850Y-4715040D01*
X1012655Y-4684883D01*
X1078177Y-4641102D01*
X1133899Y-4585380D01*
X1177680Y-4519858D01*
X1207837Y-4447053D01*
X1223210Y-4369765D01*
X1223210Y-4290961D01*
X1764882Y-4290961D01*
X1764882Y-4369765D01*
X1780255Y-4447053D01*
X1810412Y-4519858D01*
X1854193Y-4585380D01*
X1909915Y-4641102D01*
X1975437Y-4684883D01*
X2048242Y-4715040D01*
X2125530Y-4730413D01*
X2204334Y-4730413D01*
X2281622Y-4715040D01*
X2354427Y-4684883D01*
X2419949Y-4641102D01*
X2475671Y-4585380D01*
X2519452Y-4519858D01*
X2549609Y-4447053D01*
X2564982Y-4369765D01*
X2564982Y-4290961D01*
X3106654Y-4290961D01*
X3106654Y-4369765D01*
X3122027Y-4447053D01*
X3152184Y-4519858D01*
X3195965Y-4585380D01*
X3251687Y-4641102D01*
X3317209Y-4684883D01*
X3390014Y-4715040D01*
X3467302Y-4730413D01*
X3546106Y-4730413D01*
X3623394Y-4715040D01*
X3696199Y-4684883D01*
X3761721Y-4641102D01*
X3817443Y-4585380D01*
X3861224Y-4519858D01*
X3891381Y-4447053D01*
X3906754Y-4369765D01*
X3906754Y-4290961D01*
X4448426Y-4290961D01*
X4448426Y-4369765D01*
X4463799Y-4447053D01*
X4493956Y-4519858D01*
X4537737Y-4585380D01*
X4593459Y-4641102D01*
X4658981Y-4684883D01*
X4731786Y-4715040D01*
X4809074Y-4730413D01*
X4887878Y-4730413D01*
X4965166Y-4715040D01*
X5037971Y-4684883D01*
X5103493Y-4641102D01*
X5103603Y-4640992D01*
X5872517Y-4640992D01*
X5907839Y-4728256D01*
X6007934Y-4774029D01*
X6115036Y-4799393D01*
X6225029Y-4803376D01*
X6333684Y-4785825D01*
X6436828Y-4747413D01*
X6472665Y-4728256D01*
X6507987Y-4640992D01*
X6190252Y-4323257D01*
X5872517Y-4640992D01*
X5103603Y-4640992D01*
X5159215Y-4585380D01*
X5202996Y-4519858D01*
X5233153Y-4447053D01*
X5248526Y-4369765D01*
X5248526Y-4290961D01*
X5245904Y-4277777D01*
X5629876Y-4277777D01*
X5647427Y-4386432D01*
X5685839Y-4489576D01*
X5704996Y-4525413D01*
X5792260Y-4560735D01*
X6109995Y-4243000D01*
X6270509Y-4243000D01*
X6588244Y-4560735D01*
X6675508Y-4525413D01*
X6721281Y-4425318D01*
X6746645Y-4318216D01*
X6750628Y-4208223D01*
X6733077Y-4099568D01*
X6694665Y-3996424D01*
X6675508Y-3960587D01*
X6588244Y-3925265D01*
X6270509Y-4243000D01*
X6109995Y-4243000D01*
X5792260Y-3925265D01*
X5704996Y-3960587D01*
X5659223Y-4060682D01*
X5633859Y-4167784D01*
X5629876Y-4277777D01*
X5245904Y-4277777D01*
X5233153Y-4213673D01*
X5202996Y-4140868D01*
X5159215Y-4075346D01*
X5103493Y-4019624D01*
X5037971Y-3975843D01*
X4965166Y-3945686D01*
X4887878Y-3930313D01*
X4809074Y-3930313D01*
X4731786Y-3945686D01*
X4658981Y-3975843D01*
X4593459Y-4019624D01*
X4537737Y-4075346D01*
X4493956Y-4140868D01*
X4463799Y-4213673D01*
X4448426Y-4290961D01*
X3906754Y-4290961D01*
X3891381Y-4213673D01*
X3861224Y-4140868D01*
X3817443Y-4075346D01*
X3761721Y-4019624D01*
X3696199Y-3975843D01*
X3623394Y-3945686D01*
X3546106Y-3930313D01*
X3467302Y-3930313D01*
X3390014Y-3945686D01*
X3317209Y-3975843D01*
X3251687Y-4019624D01*
X3195965Y-4075346D01*
X3152184Y-4140868D01*
X3122027Y-4213673D01*
X3106654Y-4290961D01*
X2564982Y-4290961D01*
X2549609Y-4213673D01*
X2519452Y-4140868D01*
X2475671Y-4075346D01*
X2419949Y-4019624D01*
X2354427Y-3975843D01*
X2281622Y-3945686D01*
X2204334Y-3930313D01*
X2125530Y-3930313D01*
X2048242Y-3945686D01*
X1975437Y-3975843D01*
X1909915Y-4019624D01*
X1854193Y-4075346D01*
X1810412Y-4140868D01*
X1780255Y-4213673D01*
X1764882Y-4290961D01*
X1223210Y-4290961D01*
X1207837Y-4213673D01*
X1177680Y-4140868D01*
X1133899Y-4075346D01*
X1078177Y-4019624D01*
X1012655Y-3975843D01*
X939850Y-3945686D01*
X862562Y-3930313D01*
X783758Y-3930313D01*
X706470Y-3945686D01*
X633665Y-3975843D01*
X568143Y-4019624D01*
X512421Y-4075346D01*
X468640Y-4140868D01*
X438483Y-4213673D01*
X423110Y-4290961D01*
X-118562Y-4290961D01*
X-133935Y-4213673D01*
X-164092Y-4140868D01*
X-207873Y-4075346D01*
X-263595Y-4019624D01*
X-329117Y-3975843D01*
X-401922Y-3945686D01*
X-479210Y-3930313D01*
X-558014Y-3930313D01*
X-635302Y-3945686D01*
X-708107Y-3975843D01*
X-773629Y-4019624D01*
X-829351Y-4075346D01*
X-873132Y-4140868D01*
X-903289Y-4213673D01*
X-918662Y-4290961D01*
X-1460334Y-4290961D01*
X-1475707Y-4213673D01*
X-1505864Y-4140868D01*
X-1549645Y-4075346D01*
X-1605367Y-4019624D01*
X-1670889Y-3975843D01*
X-1743694Y-3945686D01*
X-1820982Y-3930313D01*
X-1899786Y-3930313D01*
X-1977074Y-3945686D01*
X-2049879Y-3975843D01*
X-2115401Y-4019624D01*
X-2171123Y-4075346D01*
X-2214904Y-4140868D01*
X-2245061Y-4213673D01*
X-2260434Y-4290961D01*
X-2802106Y-4290961D01*
X-2817479Y-4213673D01*
X-2847636Y-4140868D01*
X-2891417Y-4075346D01*
X-2947139Y-4019624D01*
X-3012661Y-3975843D01*
X-3085466Y-3945686D01*
X-3162754Y-3930313D01*
X-3241558Y-3930313D01*
X-3318846Y-3945686D01*
X-3391651Y-3975843D01*
X-3457173Y-4019624D01*
X-3512895Y-4075346D01*
X-3556676Y-4140868D01*
X-3586833Y-4213673D01*
X-3602206Y-4290961D01*
X-4143878Y-4290961D01*
X-4159251Y-4213673D01*
X-4189408Y-4140868D01*
X-4233189Y-4075346D01*
X-4288911Y-4019624D01*
X-4354433Y-3975843D01*
X-4427238Y-3945686D01*
X-4504526Y-3930313D01*
X-4583330Y-3930313D01*
X-4660618Y-3945686D01*
X-4733423Y-3975843D01*
X-4798945Y-4019624D01*
X-4854667Y-4075346D01*
X-4898448Y-4140868D01*
X-4928605Y-4213673D01*
X-4943978Y-4290961D01*
X-5411621Y-4290961D01*
X-5408624Y-4208223D01*
X-5426175Y-4099568D01*
X-5464587Y-3996424D01*
X-5483744Y-3960587D01*
X-5571008Y-3925265D01*
X-5888743Y-4243000D01*
X-6049257Y-4243000D01*
X-6366992Y-3925265D01*
X-6454256Y-3960587D01*
X-6500029Y-4060682D01*
X-6525393Y-4167784D01*
X-6529376Y-4277777D01*
X-6807558Y-4277777D01*
X-6908537Y-3845008D01*
X-6286735Y-3845008D01*
X-5969000Y-4162743D01*
X-5651265Y-3845008D01*
X5872517Y-3845008D01*
X6190252Y-4162743D01*
X6507987Y-3845008D01*
X6472665Y-3757744D01*
X6372570Y-3711971D01*
X6265468Y-3686607D01*
X6155475Y-3682624D01*
X6046820Y-3700175D01*
X5943676Y-3738587D01*
X5907839Y-3757744D01*
X5872517Y-3845008D01*
X-5651265Y-3845008D01*
X-5686587Y-3757744D01*
X-5786682Y-3711971D01*
X-5893784Y-3686607D01*
X-6003777Y-3682624D01*
X-6112432Y-3700175D01*
X-6215576Y-3738587D01*
X-6251413Y-3757744D01*
X-6286735Y-3845008D01*
X-6908537Y-3845008D01*
X-6980088Y-3538359D01*
X6241898Y-3538359D01*
X6267086Y-3617128D01*
X6352939Y-3654552D01*
X6444443Y-3674509D01*
X6538083Y-3676230D01*
X6630258Y-3659650D01*
X6717428Y-3625405D01*
X6732914Y-3617128D01*
X6758102Y-3538359D01*
X6500000Y-3280257D01*
X6241898Y-3538359D01*
X-6980088Y-3538359D01*
X-7050153Y-3238083D01*
X6023770Y-3238083D01*
X6040350Y-3330258D01*
X6074595Y-3417428D01*
X6082872Y-3432914D01*
X6161641Y-3458102D01*
X6419743Y-3200000D01*
X6580257Y-3200000D01*
X6838359Y-3458102D01*
X6917128Y-3432914D01*
X6954552Y-3347061D01*
X6974509Y-3255557D01*
X6976230Y-3161917D01*
X6959650Y-3069742D01*
X6925405Y-2982572D01*
X6917128Y-2967086D01*
X6838359Y-2941898D01*
X6580257Y-3200000D01*
X6419743Y-3200000D01*
X6161641Y-2941898D01*
X6082872Y-2967086D01*
X6045448Y-3052939D01*
X6025491Y-3144443D01*
X6023770Y-3238083D01*
X-7050153Y-3238083D01*
X-7137989Y-2861641D01*
X6241898Y-2861641D01*
X6500000Y-3119743D01*
X6758102Y-2861641D01*
X6732914Y-2782872D01*
X6647061Y-2745448D01*
X6555557Y-2725491D01*
X6461917Y-2723770D01*
X6369742Y-2740350D01*
X6282572Y-2774595D01*
X6267086Y-2782872D01*
X6241898Y-2861641D01*
X-7137989Y-2861641D01*
X-7343250Y-1981958D01*
X-7343250Y210117D01*
X-6383350Y210117D01*
X-6383350Y-210117D01*
X-6301366Y-622275D01*
X-6140550Y-1010520D01*
X-5907081Y-1359931D01*
X-5609931Y-1657081D01*
X-5260520Y-1890550D01*
X-4986678Y-2003979D01*
X-4995259Y-2009712D01*
X-5038348Y-2052801D01*
X-5072203Y-2103468D01*
X-5095522Y-2159766D01*
X-5107410Y-2219532D01*
X-5107410Y-2280468D01*
X-5095522Y-2340234D01*
X-5072203Y-2396532D01*
X-5038348Y-2447199D01*
X-4995259Y-2490288D01*
X-4944592Y-2524143D01*
X-4888294Y-2547462D01*
X-4828528Y-2559350D01*
X-4767592Y-2559350D01*
X-4707826Y-2547462D01*
X-4651528Y-2524143D01*
X-4600861Y-2490288D01*
X-4557772Y-2447199D01*
X-4523917Y-2396532D01*
X-4500598Y-2340234D01*
X-4488710Y-2280468D01*
X-4488710Y-2219532D01*
X-3507210Y-2219532D01*
X-3507210Y-2280468D01*
X-3495322Y-2340234D01*
X-3472003Y-2396532D01*
X-3438148Y-2447199D01*
X-3395059Y-2490288D01*
X-3344392Y-2524143D01*
X-3288094Y-2547462D01*
X-3228328Y-2559350D01*
X-3167392Y-2559350D01*
X-3107626Y-2547462D01*
X-3051328Y-2524143D01*
X-3000661Y-2490288D01*
X-2957572Y-2447199D01*
X-2923717Y-2396532D01*
X-2900398Y-2340234D01*
X-2888510Y-2280468D01*
X-2888510Y-2219532D01*
X-1904470Y-2219532D01*
X-1904470Y-2280468D01*
X-1892582Y-2340234D01*
X-1869263Y-2396532D01*
X-1835408Y-2447199D01*
X-1792319Y-2490288D01*
X-1741652Y-2524143D01*
X-1685354Y-2547462D01*
X-1625588Y-2559350D01*
X-1564652Y-2559350D01*
X-1504886Y-2547462D01*
X-1448588Y-2524143D01*
X-1397921Y-2490288D01*
X-1354832Y-2447199D01*
X-1320977Y-2396532D01*
X-1297658Y-2340234D01*
X-1285770Y-2280468D01*
X-1285770Y-2219532D01*
X-309350Y-2219532D01*
X-309350Y-2280468D01*
X-297462Y-2340234D01*
X-274143Y-2396532D01*
X-240288Y-2447199D01*
X-197199Y-2490288D01*
X-146532Y-2524143D01*
X-90234Y-2547462D01*
X-30468Y-2559350D01*
X30468Y-2559350D01*
X90234Y-2547462D01*
X146532Y-2524143D01*
X197199Y-2490288D01*
X240288Y-2447199D01*
X274143Y-2396532D01*
X297462Y-2340234D01*
X309350Y-2280468D01*
X309350Y-2219532D01*
X1290850Y-2219532D01*
X1290850Y-2280468D01*
X1302738Y-2340234D01*
X1326057Y-2396532D01*
X1359912Y-2447199D01*
X1403001Y-2490288D01*
X1453668Y-2524143D01*
X1509966Y-2547462D01*
X1569732Y-2559350D01*
X1630668Y-2559350D01*
X1690434Y-2547462D01*
X1746732Y-2524143D01*
X1797399Y-2490288D01*
X1840488Y-2447199D01*
X1874343Y-2396532D01*
X1897662Y-2340234D01*
X1909550Y-2280468D01*
X1909550Y-2219532D01*
X1897662Y-2159766D01*
X1874343Y-2103468D01*
X1840488Y-2052801D01*
X1797399Y-2009712D01*
X1746732Y-1975857D01*
X1690434Y-1952538D01*
X1630668Y-1940650D01*
X1569732Y-1940650D01*
X1509966Y-1952538D01*
X1453668Y-1975857D01*
X1403001Y-2009712D01*
X1359912Y-2052801D01*
X1326057Y-2103468D01*
X1302738Y-2159766D01*
X1290850Y-2219532D01*
X309350Y-2219532D01*
X297462Y-2159766D01*
X274143Y-2103468D01*
X240288Y-2052801D01*
X197199Y-2009712D01*
X146532Y-1975857D01*
X90234Y-1952538D01*
X30468Y-1940650D01*
X-30468Y-1940650D01*
X-90234Y-1952538D01*
X-146532Y-1975857D01*
X-197199Y-2009712D01*
X-240288Y-2052801D01*
X-274143Y-2103468D01*
X-297462Y-2159766D01*
X-309350Y-2219532D01*
X-1285770Y-2219532D01*
X-1297658Y-2159766D01*
X-1320977Y-2103468D01*
X-1354832Y-2052801D01*
X-1397921Y-2009712D01*
X-1448588Y-1975857D01*
X-1504886Y-1952538D01*
X-1564652Y-1940650D01*
X-1625588Y-1940650D01*
X-1685354Y-1952538D01*
X-1741652Y-1975857D01*
X-1792319Y-2009712D01*
X-1835408Y-2052801D01*
X-1869263Y-2103468D01*
X-1892582Y-2159766D01*
X-1904470Y-2219532D01*
X-2888510Y-2219532D01*
X-2900398Y-2159766D01*
X-2923717Y-2103468D01*
X-2957572Y-2052801D01*
X-3000661Y-2009712D01*
X-3051328Y-1975857D01*
X-3107626Y-1952538D01*
X-3167392Y-1940650D01*
X-3228328Y-1940650D01*
X-3288094Y-1952538D01*
X-3344392Y-1975857D01*
X-3395059Y-2009712D01*
X-3438148Y-2052801D01*
X-3472003Y-2103468D01*
X-3495322Y-2159766D01*
X-3507210Y-2219532D01*
X-4488710Y-2219532D01*
X-4500598Y-2159766D01*
X-4516157Y-2122203D01*
X-4460117Y-2133350D01*
X-4039883Y-2133350D01*
X-3627725Y-2051366D01*
X-3239480Y-1890550D01*
X-2890069Y-1657081D01*
X-2592919Y-1359931D01*
X-2359450Y-1010520D01*
X-2198634Y-622275D01*
X-2116650Y-210117D01*
X-2116650Y210117D01*
X1516650Y210117D01*
X1516650Y-210117D01*
X1598634Y-622275D01*
X1759450Y-1010520D01*
X1992919Y-1359931D01*
X2290069Y-1657081D01*
X2639480Y-1890550D01*
X2980930Y-2031983D01*
X2960112Y-2052801D01*
X2926257Y-2103468D01*
X2902938Y-2159766D01*
X2891050Y-2219532D01*
X2891050Y-2280468D01*
X2902938Y-2340234D01*
X2926257Y-2396532D01*
X2960112Y-2447199D01*
X3003201Y-2490288D01*
X3053868Y-2524143D01*
X3110166Y-2547462D01*
X3169932Y-2559350D01*
X3230868Y-2559350D01*
X3290634Y-2547462D01*
X3346932Y-2524143D01*
X3397599Y-2490288D01*
X3440688Y-2447199D01*
X3474543Y-2396532D01*
X3497862Y-2340234D01*
X3509750Y-2280468D01*
X3509750Y-2219532D01*
X4491250Y-2219532D01*
X4491250Y-2280468D01*
X4503138Y-2340234D01*
X4526457Y-2396532D01*
X4560312Y-2447199D01*
X4603401Y-2490288D01*
X4654068Y-2524143D01*
X4710366Y-2547462D01*
X4770132Y-2559350D01*
X4831068Y-2559350D01*
X4890834Y-2547462D01*
X4947132Y-2524143D01*
X4997799Y-2490288D01*
X5040888Y-2447199D01*
X5074743Y-2396532D01*
X5098062Y-2340234D01*
X5109950Y-2280468D01*
X5109950Y-2219532D01*
X5109736Y-2218452D01*
X6091450Y-2218452D01*
X6091450Y-2279388D01*
X6103338Y-2339154D01*
X6126657Y-2395452D01*
X6160512Y-2446119D01*
X6203601Y-2489208D01*
X6254268Y-2523063D01*
X6310566Y-2546382D01*
X6370332Y-2558270D01*
X6431268Y-2558270D01*
X6491034Y-2546382D01*
X6547332Y-2523063D01*
X6597999Y-2489208D01*
X6641088Y-2446119D01*
X6674943Y-2395452D01*
X6698262Y-2339154D01*
X6710150Y-2279388D01*
X6710150Y-2218452D01*
X6698262Y-2158686D01*
X6674943Y-2102388D01*
X6641088Y-2051721D01*
X6597999Y-2008632D01*
X6547332Y-1974777D01*
X6491034Y-1951458D01*
X6431268Y-1939570D01*
X6370332Y-1939570D01*
X6310566Y-1951458D01*
X6254268Y-1974777D01*
X6203601Y-2008632D01*
X6160512Y-2051721D01*
X6126657Y-2102388D01*
X6103338Y-2158686D01*
X6091450Y-2218452D01*
X5109736Y-2218452D01*
X5098062Y-2159766D01*
X5074743Y-2103468D01*
X5040888Y-2052801D01*
X4997799Y-2009712D01*
X4947132Y-1975857D01*
X4890834Y-1952538D01*
X4831068Y-1940650D01*
X4770132Y-1940650D01*
X4710366Y-1952538D01*
X4654068Y-1975857D01*
X4603401Y-2009712D01*
X4560312Y-2052801D01*
X4526457Y-2103468D01*
X4503138Y-2159766D01*
X4491250Y-2219532D01*
X3509750Y-2219532D01*
X3497862Y-2159766D01*
X3486920Y-2133350D01*
X3860117Y-2133350D01*
X4272275Y-2051366D01*
X4660520Y-1890550D01*
X5009931Y-1657081D01*
X5307081Y-1359931D01*
X5540550Y-1010520D01*
X5701366Y-622275D01*
X5783350Y-210117D01*
X5783350Y210117D01*
X5779302Y230468D01*
X6090650Y230468D01*
X6090650Y169532D01*
X6102538Y109766D01*
X6125857Y53468D01*
X6159712Y2801D01*
X6202801Y-40288D01*
X6253468Y-74143D01*
X6309766Y-97462D01*
X6369532Y-109350D01*
X6430468Y-109350D01*
X6490234Y-97462D01*
X6546532Y-74143D01*
X6597199Y-40288D01*
X6640288Y2801D01*
X6674143Y53468D01*
X6697462Y109766D01*
X6709350Y169532D01*
X6709350Y230468D01*
X6697462Y290234D01*
X6674143Y346532D01*
X6640288Y397199D01*
X6597199Y440288D01*
X6546532Y474143D01*
X6490234Y497462D01*
X6430468Y509350D01*
X6369532Y509350D01*
X6309766Y497462D01*
X6253468Y474143D01*
X6202801Y440288D01*
X6159712Y397199D01*
X6125857Y346532D01*
X6102538Y290234D01*
X6090650Y230468D01*
X5779302Y230468D01*
X5701366Y622275D01*
X5540550Y1010520D01*
X5307081Y1359931D01*
X5009931Y1657081D01*
X4660520Y1890550D01*
X4500191Y1956960D01*
X4545812Y1975857D01*
X4596479Y2009712D01*
X4639568Y2052801D01*
X4673423Y2103468D01*
X4696742Y2159766D01*
X4708630Y2219532D01*
X4708630Y2280468D01*
X5690130Y2280468D01*
X5690130Y2219532D01*
X5702018Y2159766D01*
X5725337Y2103468D01*
X5759192Y2052801D01*
X5802281Y2009712D01*
X5852948Y1975857D01*
X5909246Y1952538D01*
X5969012Y1940650D01*
X6029948Y1940650D01*
X6089714Y1952538D01*
X6146012Y1975857D01*
X6196679Y2009712D01*
X6239768Y2052801D01*
X6273623Y2103468D01*
X6296942Y2159766D01*
X6308830Y2219532D01*
X6308830Y2280468D01*
X6296942Y2340234D01*
X6273623Y2396532D01*
X6239768Y2447199D01*
X6196679Y2490288D01*
X6146012Y2524143D01*
X6089714Y2547462D01*
X6029948Y2559350D01*
X5969012Y2559350D01*
X5909246Y2547462D01*
X5852948Y2524143D01*
X5802281Y2490288D01*
X5759192Y2447199D01*
X5725337Y2396532D01*
X5702018Y2340234D01*
X5690130Y2280468D01*
X4708630Y2280468D01*
X4696742Y2340234D01*
X4673423Y2396532D01*
X4639568Y2447199D01*
X4596479Y2490288D01*
X4545812Y2524143D01*
X4489514Y2547462D01*
X4429748Y2559350D01*
X4368812Y2559350D01*
X4309046Y2547462D01*
X4252748Y2524143D01*
X4202081Y2490288D01*
X4158992Y2447199D01*
X4125137Y2396532D01*
X4101818Y2340234D01*
X4089930Y2280468D01*
X4089930Y2219532D01*
X4101818Y2159766D01*
X4125137Y2103468D01*
X4142733Y2077134D01*
X3860117Y2133350D01*
X3439883Y2133350D01*
X3043808Y2054565D01*
X3075763Y2102388D01*
X3099082Y2158686D01*
X3110970Y2218452D01*
X3110970Y2279388D01*
X3099082Y2339154D01*
X3075763Y2395452D01*
X3041908Y2446119D01*
X2998819Y2489208D01*
X2948152Y2523063D01*
X2891854Y2546382D01*
X2832088Y2558270D01*
X2771152Y2558270D01*
X2711386Y2546382D01*
X2655088Y2523063D01*
X2604421Y2489208D01*
X2561332Y2446119D01*
X2527477Y2395452D01*
X2504158Y2339154D01*
X2492270Y2279388D01*
X2492270Y2218452D01*
X2504158Y2158686D01*
X2527477Y2102388D01*
X2561332Y2051721D01*
X2604421Y2008632D01*
X2655088Y1974777D01*
X2711386Y1951458D01*
X2762149Y1941361D01*
X2639480Y1890550D01*
X2290069Y1657081D01*
X1992919Y1359931D01*
X1759450Y1010520D01*
X1598634Y622275D01*
X1516650Y210117D01*
X-2116650Y210117D01*
X-2198634Y622275D01*
X-2359450Y1010520D01*
X-2592919Y1359931D01*
X-2890069Y1657081D01*
X-3239480Y1890550D01*
X-3449886Y1977703D01*
X-3401981Y2009712D01*
X-3358892Y2052801D01*
X-3325037Y2103468D01*
X-3301718Y2159766D01*
X-3289830Y2219532D01*
X-3289830Y2280468D01*
X-2310870Y2280468D01*
X-2310870Y2219532D01*
X-2298982Y2159766D01*
X-2275663Y2103468D01*
X-2241808Y2052801D01*
X-2198719Y2009712D01*
X-2148052Y1975857D01*
X-2091754Y1952538D01*
X-2031988Y1940650D01*
X-1971052Y1940650D01*
X-1911286Y1952538D01*
X-1854988Y1975857D01*
X-1804321Y2009712D01*
X-1761232Y2052801D01*
X-1727377Y2103468D01*
X-1704058Y2159766D01*
X-1692170Y2219532D01*
X-1692170Y2280468D01*
X-1692257Y2280908D01*
X-705590Y2280908D01*
X-705590Y2219972D01*
X-693702Y2160206D01*
X-670383Y2103908D01*
X-636528Y2053241D01*
X-593439Y2010152D01*
X-542772Y1976297D01*
X-486474Y1952978D01*
X-426708Y1941090D01*
X-365772Y1941090D01*
X-306006Y1952978D01*
X-249708Y1976297D01*
X-199041Y2010152D01*
X-155952Y2053241D01*
X-122097Y2103908D01*
X-98778Y2160206D01*
X-86890Y2219972D01*
X-86890Y2280468D01*
X889530Y2280468D01*
X889530Y2219532D01*
X901418Y2159766D01*
X924737Y2103468D01*
X958592Y2052801D01*
X1001681Y2009712D01*
X1052348Y1975857D01*
X1108646Y1952538D01*
X1168412Y1940650D01*
X1229348Y1940650D01*
X1289114Y1952538D01*
X1345412Y1975857D01*
X1396079Y2009712D01*
X1439168Y2052801D01*
X1473023Y2103468D01*
X1496342Y2159766D01*
X1508230Y2219532D01*
X1508230Y2280468D01*
X1496342Y2340234D01*
X1473023Y2396532D01*
X1439168Y2447199D01*
X1396079Y2490288D01*
X1345412Y2524143D01*
X1289114Y2547462D01*
X1229348Y2559350D01*
X1168412Y2559350D01*
X1108646Y2547462D01*
X1052348Y2524143D01*
X1001681Y2490288D01*
X958592Y2447199D01*
X924737Y2396532D01*
X901418Y2340234D01*
X889530Y2280468D01*
X-86890Y2280468D01*
X-86890Y2280908D01*
X-98778Y2340674D01*
X-122097Y2396972D01*
X-155952Y2447639D01*
X-199041Y2490728D01*
X-249708Y2524583D01*
X-306006Y2547902D01*
X-365772Y2559790D01*
X-426708Y2559790D01*
X-486474Y2547902D01*
X-542772Y2524583D01*
X-593439Y2490728D01*
X-636528Y2447639D01*
X-670383Y2396972D01*
X-693702Y2340674D01*
X-705590Y2280908D01*
X-1692257Y2280908D01*
X-1704058Y2340234D01*
X-1727377Y2396532D01*
X-1761232Y2447199D01*
X-1804321Y2490288D01*
X-1854988Y2524143D01*
X-1911286Y2547462D01*
X-1971052Y2559350D01*
X-2031988Y2559350D01*
X-2091754Y2547462D01*
X-2148052Y2524143D01*
X-2198719Y2490288D01*
X-2241808Y2447199D01*
X-2275663Y2396532D01*
X-2298982Y2340234D01*
X-2310870Y2280468D01*
X-3289830Y2280468D01*
X-3301718Y2340234D01*
X-3325037Y2396532D01*
X-3358892Y2447199D01*
X-3401981Y2490288D01*
X-3452648Y2524143D01*
X-3508946Y2547462D01*
X-3568712Y2559350D01*
X-3629648Y2559350D01*
X-3689414Y2547462D01*
X-3745712Y2524143D01*
X-3796379Y2490288D01*
X-3839468Y2447199D01*
X-3873323Y2396532D01*
X-3896642Y2340234D01*
X-3908530Y2280468D01*
X-3908530Y2219532D01*
X-3896642Y2159766D01*
X-3873323Y2103468D01*
X-3870819Y2099721D01*
X-4039883Y2133350D01*
X-4460117Y2133350D01*
X-4872275Y2051366D01*
X-5260520Y1890550D01*
X-5609931Y1657081D01*
X-5907081Y1359931D01*
X-6140550Y1010520D01*
X-6301366Y622275D01*
X-6383350Y210117D01*
X-7343250Y210117D01*
X-7343250Y1981958D01*
X-7273258Y2281928D01*
X-5508730Y2281928D01*
X-5508730Y2220992D01*
X-5496842Y2161226D01*
X-5473523Y2104928D01*
X-5439668Y2054261D01*
X-5396579Y2011172D01*
X-5345912Y1977317D01*
X-5289614Y1953998D01*
X-5229848Y1942110D01*
X-5168912Y1942110D01*
X-5109146Y1953998D01*
X-5052848Y1977317D01*
X-5002181Y2011172D01*
X-4959092Y2054261D01*
X-4925237Y2104928D01*
X-4901918Y2161226D01*
X-4890030Y2220992D01*
X-4890030Y2281928D01*
X-4901918Y2341694D01*
X-4925237Y2397992D01*
X-4959092Y2448659D01*
X-5002181Y2491748D01*
X-5052848Y2525603D01*
X-5109146Y2548922D01*
X-5168912Y2560810D01*
X-5229848Y2560810D01*
X-5289614Y2548922D01*
X-5345912Y2525603D01*
X-5396579Y2491748D01*
X-5439668Y2448659D01*
X-5473523Y2397992D01*
X-5496842Y2341694D01*
X-5508730Y2281928D01*
X-7273258Y2281928D01*
X-7049848Y3239402D01*
X6099950Y3239402D01*
X6099950Y3160598D01*
X6115323Y3083310D01*
X6145480Y3010505D01*
X6189261Y2944983D01*
X6244983Y2889261D01*
X6310505Y2845480D01*
X6383310Y2815323D01*
X6460598Y2799950D01*
X6539402Y2799950D01*
X6616690Y2815323D01*
X6689495Y2845480D01*
X6755017Y2889261D01*
X6810739Y2944983D01*
X6854520Y3010505D01*
X6884677Y3083310D01*
X6900050Y3160598D01*
X6900050Y3239402D01*
X6884677Y3316690D01*
X6854520Y3389495D01*
X6810739Y3455017D01*
X6755017Y3510739D01*
X6689495Y3554520D01*
X6616690Y3584677D01*
X6539402Y3600050D01*
X6460598Y3600050D01*
X6383310Y3584677D01*
X6310505Y3554520D01*
X6244983Y3510739D01*
X6189261Y3455017D01*
X6145480Y3389495D01*
X6115323Y3316690D01*
X6099950Y3239402D01*
X-7049848Y3239402D01*
X-6908455Y3845371D01*
X-6286735Y3845371D01*
X-6251413Y3758107D01*
X-6151318Y3712334D01*
X-6044216Y3686970D01*
X-5934223Y3682987D01*
X-5825568Y3700538D01*
X-5722424Y3738950D01*
X-5686587Y3758107D01*
X-5651265Y3845371D01*
X-5969000Y4163106D01*
X-6286735Y3845371D01*
X-6908455Y3845371D01*
X-6823704Y4208586D01*
X-6529376Y4208586D01*
X-6511825Y4099931D01*
X-6473413Y3996787D01*
X-6454256Y3960950D01*
X-6366992Y3925628D01*
X-6049257Y4243363D01*
X-5888743Y4243363D01*
X-5571008Y3925628D01*
X-5483744Y3960950D01*
X-5437971Y4061045D01*
X-5412607Y4168147D01*
X-5408624Y4278140D01*
X-5423424Y4369765D01*
X-4943978Y4369765D01*
X-4943978Y4290961D01*
X-4928605Y4213673D01*
X-4898448Y4140868D01*
X-4854667Y4075346D01*
X-4798945Y4019624D01*
X-4733423Y3975843D01*
X-4660618Y3945686D01*
X-4583330Y3930313D01*
X-4504526Y3930313D01*
X-4427238Y3945686D01*
X-4354433Y3975843D01*
X-4288911Y4019624D01*
X-4233189Y4075346D01*
X-4189408Y4140868D01*
X-4159251Y4213673D01*
X-4143878Y4290961D01*
X-4143878Y4369765D01*
X-3602206Y4369765D01*
X-3602206Y4290961D01*
X-3586833Y4213673D01*
X-3556676Y4140868D01*
X-3512895Y4075346D01*
X-3457173Y4019624D01*
X-3391651Y3975843D01*
X-3318846Y3945686D01*
X-3241558Y3930313D01*
X-3162754Y3930313D01*
X-3085466Y3945686D01*
X-3012661Y3975843D01*
X-2947139Y4019624D01*
X-2891417Y4075346D01*
X-2847636Y4140868D01*
X-2817479Y4213673D01*
X-2802106Y4290961D01*
X-2802106Y4369765D01*
X-2260434Y4369765D01*
X-2260434Y4290961D01*
X-2245061Y4213673D01*
X-2214904Y4140868D01*
X-2171123Y4075346D01*
X-2115401Y4019624D01*
X-2049879Y3975843D01*
X-1977074Y3945686D01*
X-1899786Y3930313D01*
X-1820982Y3930313D01*
X-1743694Y3945686D01*
X-1670889Y3975843D01*
X-1605367Y4019624D01*
X-1549645Y4075346D01*
X-1505864Y4140868D01*
X-1475707Y4213673D01*
X-1460334Y4290961D01*
X-1460334Y4369765D01*
X-918662Y4369765D01*
X-918662Y4290961D01*
X-903289Y4213673D01*
X-873132Y4140868D01*
X-829351Y4075346D01*
X-773629Y4019624D01*
X-708107Y3975843D01*
X-635302Y3945686D01*
X-558014Y3930313D01*
X-479210Y3930313D01*
X-401922Y3945686D01*
X-329117Y3975843D01*
X-263595Y4019624D01*
X-207873Y4075346D01*
X-164092Y4140868D01*
X-133935Y4213673D01*
X-118562Y4290961D01*
X-118562Y4369765D01*
X423110Y4369765D01*
X423110Y4290961D01*
X438483Y4213673D01*
X468640Y4140868D01*
X512421Y4075346D01*
X568143Y4019624D01*
X633665Y3975843D01*
X706470Y3945686D01*
X783758Y3930313D01*
X862562Y3930313D01*
X939850Y3945686D01*
X1012655Y3975843D01*
X1078177Y4019624D01*
X1133899Y4075346D01*
X1177680Y4140868D01*
X1207837Y4213673D01*
X1223210Y4290961D01*
X1223210Y4369765D01*
X1764882Y4369765D01*
X1764882Y4290961D01*
X1780255Y4213673D01*
X1810412Y4140868D01*
X1854193Y4075346D01*
X1909915Y4019624D01*
X1975437Y3975843D01*
X2048242Y3945686D01*
X2125530Y3930313D01*
X2204334Y3930313D01*
X2281622Y3945686D01*
X2354427Y3975843D01*
X2419949Y4019624D01*
X2475671Y4075346D01*
X2519452Y4140868D01*
X2549609Y4213673D01*
X2564982Y4290961D01*
X2564982Y4369765D01*
X3106654Y4369765D01*
X3106654Y4290961D01*
X3122027Y4213673D01*
X3152184Y4140868D01*
X3195965Y4075346D01*
X3251687Y4019624D01*
X3317209Y3975843D01*
X3390014Y3945686D01*
X3467302Y3930313D01*
X3546106Y3930313D01*
X3623394Y3945686D01*
X3696199Y3975843D01*
X3761721Y4019624D01*
X3817443Y4075346D01*
X3861224Y4140868D01*
X3891381Y4213673D01*
X3906754Y4290961D01*
X3906754Y4369765D01*
X4448426Y4369765D01*
X4448426Y4290961D01*
X4463799Y4213673D01*
X4493956Y4140868D01*
X4537737Y4075346D01*
X4593459Y4019624D01*
X4658981Y3975843D01*
X4731786Y3945686D01*
X4809074Y3930313D01*
X4887878Y3930313D01*
X4965166Y3945686D01*
X5037971Y3975843D01*
X5103493Y4019624D01*
X5159215Y4075346D01*
X5202996Y4140868D01*
X5233153Y4213673D01*
X5248526Y4290961D01*
X5248526Y4369765D01*
X5246895Y4377969D01*
X5706902Y4377969D01*
X5706902Y4282757D01*
X5725477Y4189375D01*
X5761913Y4101411D01*
X5814809Y4022245D01*
X5882134Y3954920D01*
X5961300Y3902024D01*
X6049264Y3865588D01*
X6142646Y3847013D01*
X6237858Y3847013D01*
X6331240Y3865588D01*
X6419204Y3902024D01*
X6498370Y3954920D01*
X6565695Y4022245D01*
X6618591Y4101411D01*
X6655027Y4189375D01*
X6673602Y4282757D01*
X6673602Y4377969D01*
X6655027Y4471351D01*
X6618591Y4559315D01*
X6565695Y4638481D01*
X6498370Y4705806D01*
X6419204Y4758702D01*
X6331240Y4795138D01*
X6237858Y4813713D01*
X6142646Y4813713D01*
X6049264Y4795138D01*
X5961300Y4758702D01*
X5882134Y4705806D01*
X5814809Y4638481D01*
X5761913Y4559315D01*
X5725477Y4471351D01*
X5706902Y4377969D01*
X5246895Y4377969D01*
X5233153Y4447053D01*
X5202996Y4519858D01*
X5159215Y4585380D01*
X5103493Y4641102D01*
X5037971Y4684883D01*
X4965166Y4715040D01*
X4887878Y4730413D01*
X4809074Y4730413D01*
X4731786Y4715040D01*
X4658981Y4684883D01*
X4593459Y4641102D01*
X4537737Y4585380D01*
X4493956Y4519858D01*
X4463799Y4447053D01*
X4448426Y4369765D01*
X3906754Y4369765D01*
X3891381Y4447053D01*
X3861224Y4519858D01*
X3817443Y4585380D01*
X3761721Y4641102D01*
X3696199Y4684883D01*
X3623394Y4715040D01*
X3546106Y4730413D01*
X3467302Y4730413D01*
X3390014Y4715040D01*
X3317209Y4684883D01*
X3251687Y4641102D01*
X3195965Y4585380D01*
X3152184Y4519858D01*
X3122027Y4447053D01*
X3106654Y4369765D01*
X2564982Y4369765D01*
X2549609Y4447053D01*
X2519452Y4519858D01*
X2475671Y4585380D01*
X2419949Y4641102D01*
X2354427Y4684883D01*
X2281622Y4715040D01*
X2204334Y4730413D01*
X2125530Y4730413D01*
X2048242Y4715040D01*
X1975437Y4684883D01*
X1909915Y4641102D01*
X1854193Y4585380D01*
X1810412Y4519858D01*
X1780255Y4447053D01*
X1764882Y4369765D01*
X1223210Y4369765D01*
X1207837Y4447053D01*
X1177680Y4519858D01*
X1133899Y4585380D01*
X1078177Y4641102D01*
X1012655Y4684883D01*
X939850Y4715040D01*
X862562Y4730413D01*
X783758Y4730413D01*
X706470Y4715040D01*
X633665Y4684883D01*
X568143Y4641102D01*
X512421Y4585380D01*
X468640Y4519858D01*
X438483Y4447053D01*
X423110Y4369765D01*
X-118562Y4369765D01*
X-133935Y4447053D01*
X-164092Y4519858D01*
X-207873Y4585380D01*
X-263595Y4641102D01*
X-329117Y4684883D01*
X-401922Y4715040D01*
X-479210Y4730413D01*
X-558014Y4730413D01*
X-635302Y4715040D01*
X-708107Y4684883D01*
X-773629Y4641102D01*
X-829351Y4585380D01*
X-873132Y4519858D01*
X-903289Y4447053D01*
X-918662Y4369765D01*
X-1460334Y4369765D01*
X-1475707Y4447053D01*
X-1505864Y4519858D01*
X-1549645Y4585380D01*
X-1605367Y4641102D01*
X-1670889Y4684883D01*
X-1743694Y4715040D01*
X-1820982Y4730413D01*
X-1899786Y4730413D01*
X-1977074Y4715040D01*
X-2049879Y4684883D01*
X-2115401Y4641102D01*
X-2171123Y4585380D01*
X-2214904Y4519858D01*
X-2245061Y4447053D01*
X-2260434Y4369765D01*
X-2802106Y4369765D01*
X-2817479Y4447053D01*
X-2847636Y4519858D01*
X-2891417Y4585380D01*
X-2947139Y4641102D01*
X-3012661Y4684883D01*
X-3085466Y4715040D01*
X-3162754Y4730413D01*
X-3241558Y4730413D01*
X-3318846Y4715040D01*
X-3391651Y4684883D01*
X-3457173Y4641102D01*
X-3512895Y4585380D01*
X-3556676Y4519858D01*
X-3586833Y4447053D01*
X-3602206Y4369765D01*
X-4143878Y4369765D01*
X-4159251Y4447053D01*
X-4189408Y4519858D01*
X-4233189Y4585380D01*
X-4288911Y4641102D01*
X-4354433Y4684883D01*
X-4427238Y4715040D01*
X-4504526Y4730413D01*
X-4583330Y4730413D01*
X-4660618Y4715040D01*
X-4733423Y4684883D01*
X-4798945Y4641102D01*
X-4854667Y4585380D01*
X-4898448Y4519858D01*
X-4928605Y4447053D01*
X-4943978Y4369765D01*
X-5423424Y4369765D01*
X-5426175Y4386795D01*
X-5464587Y4489939D01*
X-5483744Y4525776D01*
X-5571008Y4561098D01*
X-5888743Y4243363D01*
X-6049257Y4243363D01*
X-6366992Y4561098D01*
X-6454256Y4525776D01*
X-6500029Y4425681D01*
X-6525393Y4318579D01*
X-6529376Y4208586D01*
X-6823704Y4208586D01*
X-6722725Y4641355D01*
X-6286735Y4641355D01*
X-5969000Y4323620D01*
X-5651265Y4641355D01*
X-5686587Y4728619D01*
X-5786682Y4774392D01*
X-5893784Y4799756D01*
X-6003777Y4803739D01*
X-6112432Y4786188D01*
X-6215576Y4747776D01*
X-6251413Y4728619D01*
X-6286735Y4641355D01*
X-6722725Y4641355D01*
X-6675615Y4843250D01*
X6675615Y4843250D01*
X7343250Y1981954D01*
X7343250Y1981954D01*
G37*
X7343250Y1981954D02*
X7343251Y-1981950D01*
X6675615Y-4843250D01*
X-6675615Y-4843250D01*
X-6722808Y-4640992D01*
X-6286735Y-4640992D01*
X-6251413Y-4728256D01*
X-6151318Y-4774029D01*
X-6044216Y-4799393D01*
X-5934223Y-4803376D01*
X-5825568Y-4785825D01*
X-5722424Y-4747413D01*
X-5686587Y-4728256D01*
X-5651265Y-4640992D01*
X-5969000Y-4323257D01*
X-6286735Y-4640992D01*
X-6722808Y-4640992D01*
X-6807558Y-4277777D01*
X-6529376Y-4277777D01*
X-6511825Y-4386432D01*
X-6473413Y-4489576D01*
X-6454256Y-4525413D01*
X-6366992Y-4560735D01*
X-6049257Y-4243000D01*
X-5888743Y-4243000D01*
X-5571008Y-4560735D01*
X-5483744Y-4525413D01*
X-5437971Y-4425318D01*
X-5412607Y-4318216D01*
X-5411621Y-4290961D01*
X-4943978Y-4290961D01*
X-4943978Y-4369765D01*
X-4928605Y-4447053D01*
X-4898448Y-4519858D01*
X-4854667Y-4585380D01*
X-4798945Y-4641102D01*
X-4733423Y-4684883D01*
X-4660618Y-4715040D01*
X-4583330Y-4730413D01*
X-4504526Y-4730413D01*
X-4427238Y-4715040D01*
X-4354433Y-4684883D01*
X-4288911Y-4641102D01*
X-4233189Y-4585380D01*
X-4189408Y-4519858D01*
X-4159251Y-4447053D01*
X-4143878Y-4369765D01*
X-4143878Y-4290961D01*
X-3602206Y-4290961D01*
X-3602206Y-4369765D01*
X-3586833Y-4447053D01*
X-3556676Y-4519858D01*
X-3512895Y-4585380D01*
X-3457173Y-4641102D01*
X-3391651Y-4684883D01*
X-3318846Y-4715040D01*
X-3241558Y-4730413D01*
X-3162754Y-4730413D01*
X-3085466Y-4715040D01*
X-3012661Y-4684883D01*
X-2947139Y-4641102D01*
X-2891417Y-4585380D01*
X-2847636Y-4519858D01*
X-2817479Y-4447053D01*
X-2802106Y-4369765D01*
X-2802106Y-4290961D01*
X-2260434Y-4290961D01*
X-2260434Y-4369765D01*
X-2245061Y-4447053D01*
X-2214904Y-4519858D01*
X-2171123Y-4585380D01*
X-2115401Y-4641102D01*
X-2049879Y-4684883D01*
X-1977074Y-4715040D01*
X-1899786Y-4730413D01*
X-1820982Y-4730413D01*
X-1743694Y-4715040D01*
X-1670889Y-4684883D01*
X-1605367Y-4641102D01*
X-1549645Y-4585380D01*
X-1505864Y-4519858D01*
X-1475707Y-4447053D01*
X-1460334Y-4369765D01*
X-1460334Y-4290961D01*
X-918662Y-4290961D01*
X-918662Y-4369765D01*
X-903289Y-4447053D01*
X-873132Y-4519858D01*
X-829351Y-4585380D01*
X-773629Y-4641102D01*
X-708107Y-4684883D01*
X-635302Y-4715040D01*
X-558014Y-4730413D01*
X-479210Y-4730413D01*
X-401922Y-4715040D01*
X-329117Y-4684883D01*
X-263595Y-4641102D01*
X-207873Y-4585380D01*
X-164092Y-4519858D01*
X-133935Y-4447053D01*
X-118562Y-4369765D01*
X-118562Y-4290961D01*
X423110Y-4290961D01*
X423110Y-4369765D01*
X438483Y-4447053D01*
X468640Y-4519858D01*
X512421Y-4585380D01*
X568143Y-4641102D01*
X633665Y-4684883D01*
X706470Y-4715040D01*
X783758Y-4730413D01*
X862562Y-4730413D01*
X939850Y-4715040D01*
X1012655Y-4684883D01*
X1078177Y-4641102D01*
X1133899Y-4585380D01*
X1177680Y-4519858D01*
X1207837Y-4447053D01*
X1223210Y-4369765D01*
X1223210Y-4290961D01*
X1764882Y-4290961D01*
X1764882Y-4369765D01*
X1780255Y-4447053D01*
X1810412Y-4519858D01*
X1854193Y-4585380D01*
X1909915Y-4641102D01*
X1975437Y-4684883D01*
X2048242Y-4715040D01*
X2125530Y-4730413D01*
X2204334Y-4730413D01*
X2281622Y-4715040D01*
X2354427Y-4684883D01*
X2419949Y-4641102D01*
X2475671Y-4585380D01*
X2519452Y-4519858D01*
X2549609Y-4447053D01*
X2564982Y-4369765D01*
X2564982Y-4290961D01*
X3106654Y-4290961D01*
X3106654Y-4369765D01*
X3122027Y-4447053D01*
X3152184Y-4519858D01*
X3195965Y-4585380D01*
X3251687Y-4641102D01*
X3317209Y-4684883D01*
X3390014Y-4715040D01*
X3467302Y-4730413D01*
X3546106Y-4730413D01*
X3623394Y-4715040D01*
X3696199Y-4684883D01*
X3761721Y-4641102D01*
X3817443Y-4585380D01*
X3861224Y-4519858D01*
X3891381Y-4447053D01*
X3906754Y-4369765D01*
X3906754Y-4290961D01*
X4448426Y-4290961D01*
X4448426Y-4369765D01*
X4463799Y-4447053D01*
X4493956Y-4519858D01*
X4537737Y-4585380D01*
X4593459Y-4641102D01*
X4658981Y-4684883D01*
X4731786Y-4715040D01*
X4809074Y-4730413D01*
X4887878Y-4730413D01*
X4965166Y-4715040D01*
X5037971Y-4684883D01*
X5103493Y-4641102D01*
X5103603Y-4640992D01*
X5872517Y-4640992D01*
X5907839Y-4728256D01*
X6007934Y-4774029D01*
X6115036Y-4799393D01*
X6225029Y-4803376D01*
X6333684Y-4785825D01*
X6436828Y-4747413D01*
X6472665Y-4728256D01*
X6507987Y-4640992D01*
X6190252Y-4323257D01*
X5872517Y-4640992D01*
X5103603Y-4640992D01*
X5159215Y-4585380D01*
X5202996Y-4519858D01*
X5233153Y-4447053D01*
X5248526Y-4369765D01*
X5248526Y-4290961D01*
X5245904Y-4277777D01*
X5629876Y-4277777D01*
X5647427Y-4386432D01*
X5685839Y-4489576D01*
X5704996Y-4525413D01*
X5792260Y-4560735D01*
X6109995Y-4243000D01*
X6270509Y-4243000D01*
X6588244Y-4560735D01*
X6675508Y-4525413D01*
X6721281Y-4425318D01*
X6746645Y-4318216D01*
X6750628Y-4208223D01*
X6733077Y-4099568D01*
X6694665Y-3996424D01*
X6675508Y-3960587D01*
X6588244Y-3925265D01*
X6270509Y-4243000D01*
X6109995Y-4243000D01*
X5792260Y-3925265D01*
X5704996Y-3960587D01*
X5659223Y-4060682D01*
X5633859Y-4167784D01*
X5629876Y-4277777D01*
X5245904Y-4277777D01*
X5233153Y-4213673D01*
X5202996Y-4140868D01*
X5159215Y-4075346D01*
X5103493Y-4019624D01*
X5037971Y-3975843D01*
X4965166Y-3945686D01*
X4887878Y-3930313D01*
X4809074Y-3930313D01*
X4731786Y-3945686D01*
X4658981Y-3975843D01*
X4593459Y-4019624D01*
X4537737Y-4075346D01*
X4493956Y-4140868D01*
X4463799Y-4213673D01*
X4448426Y-4290961D01*
X3906754Y-4290961D01*
X3891381Y-4213673D01*
X3861224Y-4140868D01*
X3817443Y-4075346D01*
X3761721Y-4019624D01*
X3696199Y-3975843D01*
X3623394Y-3945686D01*
X3546106Y-3930313D01*
X3467302Y-3930313D01*
X3390014Y-3945686D01*
X3317209Y-3975843D01*
X3251687Y-4019624D01*
X3195965Y-4075346D01*
X3152184Y-4140868D01*
X3122027Y-4213673D01*
X3106654Y-4290961D01*
X2564982Y-4290961D01*
X2549609Y-4213673D01*
X2519452Y-4140868D01*
X2475671Y-4075346D01*
X2419949Y-4019624D01*
X2354427Y-3975843D01*
X2281622Y-3945686D01*
X2204334Y-3930313D01*
X2125530Y-3930313D01*
X2048242Y-3945686D01*
X1975437Y-3975843D01*
X1909915Y-4019624D01*
X1854193Y-4075346D01*
X1810412Y-4140868D01*
X1780255Y-4213673D01*
X1764882Y-4290961D01*
X1223210Y-4290961D01*
X1207837Y-4213673D01*
X1177680Y-4140868D01*
X1133899Y-4075346D01*
X1078177Y-4019624D01*
X1012655Y-3975843D01*
X939850Y-3945686D01*
X862562Y-3930313D01*
X783758Y-3930313D01*
X706470Y-3945686D01*
X633665Y-3975843D01*
X568143Y-4019624D01*
X512421Y-4075346D01*
X468640Y-4140868D01*
X438483Y-4213673D01*
X423110Y-4290961D01*
X-118562Y-4290961D01*
X-133935Y-4213673D01*
X-164092Y-4140868D01*
X-207873Y-4075346D01*
X-263595Y-4019624D01*
X-329117Y-3975843D01*
X-401922Y-3945686D01*
X-479210Y-3930313D01*
X-558014Y-3930313D01*
X-635302Y-3945686D01*
X-708107Y-3975843D01*
X-773629Y-4019624D01*
X-829351Y-4075346D01*
X-873132Y-4140868D01*
X-903289Y-4213673D01*
X-918662Y-4290961D01*
X-1460334Y-4290961D01*
X-1475707Y-4213673D01*
X-1505864Y-4140868D01*
X-1549645Y-4075346D01*
X-1605367Y-4019624D01*
X-1670889Y-3975843D01*
X-1743694Y-3945686D01*
X-1820982Y-3930313D01*
X-1899786Y-3930313D01*
X-1977074Y-3945686D01*
X-2049879Y-3975843D01*
X-2115401Y-4019624D01*
X-2171123Y-4075346D01*
X-2214904Y-4140868D01*
X-2245061Y-4213673D01*
X-2260434Y-4290961D01*
X-2802106Y-4290961D01*
X-2817479Y-4213673D01*
X-2847636Y-4140868D01*
X-2891417Y-4075346D01*
X-2947139Y-4019624D01*
X-3012661Y-3975843D01*
X-3085466Y-3945686D01*
X-3162754Y-3930313D01*
X-3241558Y-3930313D01*
X-3318846Y-3945686D01*
X-3391651Y-3975843D01*
X-3457173Y-4019624D01*
X-3512895Y-4075346D01*
X-3556676Y-4140868D01*
X-3586833Y-4213673D01*
X-3602206Y-4290961D01*
X-4143878Y-4290961D01*
X-4159251Y-4213673D01*
X-4189408Y-4140868D01*
X-4233189Y-4075346D01*
X-4288911Y-4019624D01*
X-4354433Y-3975843D01*
X-4427238Y-3945686D01*
X-4504526Y-3930313D01*
X-4583330Y-3930313D01*
X-4660618Y-3945686D01*
X-4733423Y-3975843D01*
X-4798945Y-4019624D01*
X-4854667Y-4075346D01*
X-4898448Y-4140868D01*
X-4928605Y-4213673D01*
X-4943978Y-4290961D01*
X-5411621Y-4290961D01*
X-5408624Y-4208223D01*
X-5426175Y-4099568D01*
X-5464587Y-3996424D01*
X-5483744Y-3960587D01*
X-5571008Y-3925265D01*
X-5888743Y-4243000D01*
X-6049257Y-4243000D01*
X-6366992Y-3925265D01*
X-6454256Y-3960587D01*
X-6500029Y-4060682D01*
X-6525393Y-4167784D01*
X-6529376Y-4277777D01*
X-6807558Y-4277777D01*
X-6908537Y-3845008D01*
X-6286735Y-3845008D01*
X-5969000Y-4162743D01*
X-5651265Y-3845008D01*
X5872517Y-3845008D01*
X6190252Y-4162743D01*
X6507987Y-3845008D01*
X6472665Y-3757744D01*
X6372570Y-3711971D01*
X6265468Y-3686607D01*
X6155475Y-3682624D01*
X6046820Y-3700175D01*
X5943676Y-3738587D01*
X5907839Y-3757744D01*
X5872517Y-3845008D01*
X-5651265Y-3845008D01*
X-5686587Y-3757744D01*
X-5786682Y-3711971D01*
X-5893784Y-3686607D01*
X-6003777Y-3682624D01*
X-6112432Y-3700175D01*
X-6215576Y-3738587D01*
X-6251413Y-3757744D01*
X-6286735Y-3845008D01*
X-6908537Y-3845008D01*
X-6980088Y-3538359D01*
X6241898Y-3538359D01*
X6267086Y-3617128D01*
X6352939Y-3654552D01*
X6444443Y-3674509D01*
X6538083Y-3676230D01*
X6630258Y-3659650D01*
X6717428Y-3625405D01*
X6732914Y-3617128D01*
X6758102Y-3538359D01*
X6500000Y-3280257D01*
X6241898Y-3538359D01*
X-6980088Y-3538359D01*
X-7050153Y-3238083D01*
X6023770Y-3238083D01*
X6040350Y-3330258D01*
X6074595Y-3417428D01*
X6082872Y-3432914D01*
X6161641Y-3458102D01*
X6419743Y-3200000D01*
X6580257Y-3200000D01*
X6838359Y-3458102D01*
X6917128Y-3432914D01*
X6954552Y-3347061D01*
X6974509Y-3255557D01*
X6976230Y-3161917D01*
X6959650Y-3069742D01*
X6925405Y-2982572D01*
X6917128Y-2967086D01*
X6838359Y-2941898D01*
X6580257Y-3200000D01*
X6419743Y-3200000D01*
X6161641Y-2941898D01*
X6082872Y-2967086D01*
X6045448Y-3052939D01*
X6025491Y-3144443D01*
X6023770Y-3238083D01*
X-7050153Y-3238083D01*
X-7137989Y-2861641D01*
X6241898Y-2861641D01*
X6500000Y-3119743D01*
X6758102Y-2861641D01*
X6732914Y-2782872D01*
X6647061Y-2745448D01*
X6555557Y-2725491D01*
X6461917Y-2723770D01*
X6369742Y-2740350D01*
X6282572Y-2774595D01*
X6267086Y-2782872D01*
X6241898Y-2861641D01*
X-7137989Y-2861641D01*
X-7343250Y-1981958D01*
X-7343250Y210117D01*
X-6383350Y210117D01*
X-6383350Y-210117D01*
X-6301366Y-622275D01*
X-6140550Y-1010520D01*
X-5907081Y-1359931D01*
X-5609931Y-1657081D01*
X-5260520Y-1890550D01*
X-4986678Y-2003979D01*
X-4995259Y-2009712D01*
X-5038348Y-2052801D01*
X-5072203Y-2103468D01*
X-5095522Y-2159766D01*
X-5107410Y-2219532D01*
X-5107410Y-2280468D01*
X-5095522Y-2340234D01*
X-5072203Y-2396532D01*
X-5038348Y-2447199D01*
X-4995259Y-2490288D01*
X-4944592Y-2524143D01*
X-4888294Y-2547462D01*
X-4828528Y-2559350D01*
X-4767592Y-2559350D01*
X-4707826Y-2547462D01*
X-4651528Y-2524143D01*
X-4600861Y-2490288D01*
X-4557772Y-2447199D01*
X-4523917Y-2396532D01*
X-4500598Y-2340234D01*
X-4488710Y-2280468D01*
X-4488710Y-2219532D01*
X-3507210Y-2219532D01*
X-3507210Y-2280468D01*
X-3495322Y-2340234D01*
X-3472003Y-2396532D01*
X-3438148Y-2447199D01*
X-3395059Y-2490288D01*
X-3344392Y-2524143D01*
X-3288094Y-2547462D01*
X-3228328Y-2559350D01*
X-3167392Y-2559350D01*
X-3107626Y-2547462D01*
X-3051328Y-2524143D01*
X-3000661Y-2490288D01*
X-2957572Y-2447199D01*
X-2923717Y-2396532D01*
X-2900398Y-2340234D01*
X-2888510Y-2280468D01*
X-2888510Y-2219532D01*
X-1904470Y-2219532D01*
X-1904470Y-2280468D01*
X-1892582Y-2340234D01*
X-1869263Y-2396532D01*
X-1835408Y-2447199D01*
X-1792319Y-2490288D01*
X-1741652Y-2524143D01*
X-1685354Y-2547462D01*
X-1625588Y-2559350D01*
X-1564652Y-2559350D01*
X-1504886Y-2547462D01*
X-1448588Y-2524143D01*
X-1397921Y-2490288D01*
X-1354832Y-2447199D01*
X-1320977Y-2396532D01*
X-1297658Y-2340234D01*
X-1285770Y-2280468D01*
X-1285770Y-2219532D01*
X-309350Y-2219532D01*
X-309350Y-2280468D01*
X-297462Y-2340234D01*
X-274143Y-2396532D01*
X-240288Y-2447199D01*
X-197199Y-2490288D01*
X-146532Y-2524143D01*
X-90234Y-2547462D01*
X-30468Y-2559350D01*
X30468Y-2559350D01*
X90234Y-2547462D01*
X146532Y-2524143D01*
X197199Y-2490288D01*
X240288Y-2447199D01*
X274143Y-2396532D01*
X297462Y-2340234D01*
X309350Y-2280468D01*
X309350Y-2219532D01*
X1290850Y-2219532D01*
X1290850Y-2280468D01*
X1302738Y-2340234D01*
X1326057Y-2396532D01*
X1359912Y-2447199D01*
X1403001Y-2490288D01*
X1453668Y-2524143D01*
X1509966Y-2547462D01*
X1569732Y-2559350D01*
X1630668Y-2559350D01*
X1690434Y-2547462D01*
X1746732Y-2524143D01*
X1797399Y-2490288D01*
X1840488Y-2447199D01*
X1874343Y-2396532D01*
X1897662Y-2340234D01*
X1909550Y-2280468D01*
X1909550Y-2219532D01*
X1897662Y-2159766D01*
X1874343Y-2103468D01*
X1840488Y-2052801D01*
X1797399Y-2009712D01*
X1746732Y-1975857D01*
X1690434Y-1952538D01*
X1630668Y-1940650D01*
X1569732Y-1940650D01*
X1509966Y-1952538D01*
X1453668Y-1975857D01*
X1403001Y-2009712D01*
X1359912Y-2052801D01*
X1326057Y-2103468D01*
X1302738Y-2159766D01*
X1290850Y-2219532D01*
X309350Y-2219532D01*
X297462Y-2159766D01*
X274143Y-2103468D01*
X240288Y-2052801D01*
X197199Y-2009712D01*
X146532Y-1975857D01*
X90234Y-1952538D01*
X30468Y-1940650D01*
X-30468Y-1940650D01*
X-90234Y-1952538D01*
X-146532Y-1975857D01*
X-197199Y-2009712D01*
X-240288Y-2052801D01*
X-274143Y-2103468D01*
X-297462Y-2159766D01*
X-309350Y-2219532D01*
X-1285770Y-2219532D01*
X-1297658Y-2159766D01*
X-1320977Y-2103468D01*
X-1354832Y-2052801D01*
X-1397921Y-2009712D01*
X-1448588Y-1975857D01*
X-1504886Y-1952538D01*
X-1564652Y-1940650D01*
X-1625588Y-1940650D01*
X-1685354Y-1952538D01*
X-1741652Y-1975857D01*
X-1792319Y-2009712D01*
X-1835408Y-2052801D01*
X-1869263Y-2103468D01*
X-1892582Y-2159766D01*
X-1904470Y-2219532D01*
X-2888510Y-2219532D01*
X-2900398Y-2159766D01*
X-2923717Y-2103468D01*
X-2957572Y-2052801D01*
X-3000661Y-2009712D01*
X-3051328Y-1975857D01*
X-3107626Y-1952538D01*
X-3167392Y-1940650D01*
X-3228328Y-1940650D01*
X-3288094Y-1952538D01*
X-3344392Y-1975857D01*
X-3395059Y-2009712D01*
X-3438148Y-2052801D01*
X-3472003Y-2103468D01*
X-3495322Y-2159766D01*
X-3507210Y-2219532D01*
X-4488710Y-2219532D01*
X-4500598Y-2159766D01*
X-4516157Y-2122203D01*
X-4460117Y-2133350D01*
X-4039883Y-2133350D01*
X-3627725Y-2051366D01*
X-3239480Y-1890550D01*
X-2890069Y-1657081D01*
X-2592919Y-1359931D01*
X-2359450Y-1010520D01*
X-2198634Y-622275D01*
X-2116650Y-210117D01*
X-2116650Y210117D01*
X1516650Y210117D01*
X1516650Y-210117D01*
X1598634Y-622275D01*
X1759450Y-1010520D01*
X1992919Y-1359931D01*
X2290069Y-1657081D01*
X2639480Y-1890550D01*
X2980930Y-2031983D01*
X2960112Y-2052801D01*
X2926257Y-2103468D01*
X2902938Y-2159766D01*
X2891050Y-2219532D01*
X2891050Y-2280468D01*
X2902938Y-2340234D01*
X2926257Y-2396532D01*
X2960112Y-2447199D01*
X3003201Y-2490288D01*
X3053868Y-2524143D01*
X3110166Y-2547462D01*
X3169932Y-2559350D01*
X3230868Y-2559350D01*
X3290634Y-2547462D01*
X3346932Y-2524143D01*
X3397599Y-2490288D01*
X3440688Y-2447199D01*
X3474543Y-2396532D01*
X3497862Y-2340234D01*
X3509750Y-2280468D01*
X3509750Y-2219532D01*
X4491250Y-2219532D01*
X4491250Y-2280468D01*
X4503138Y-2340234D01*
X4526457Y-2396532D01*
X4560312Y-2447199D01*
X4603401Y-2490288D01*
X4654068Y-2524143D01*
X4710366Y-2547462D01*
X4770132Y-2559350D01*
X4831068Y-2559350D01*
X4890834Y-2547462D01*
X4947132Y-2524143D01*
X4997799Y-2490288D01*
X5040888Y-2447199D01*
X5074743Y-2396532D01*
X5098062Y-2340234D01*
X5109950Y-2280468D01*
X5109950Y-2219532D01*
X5109736Y-2218452D01*
X6091450Y-2218452D01*
X6091450Y-2279388D01*
X6103338Y-2339154D01*
X6126657Y-2395452D01*
X6160512Y-2446119D01*
X6203601Y-2489208D01*
X6254268Y-2523063D01*
X6310566Y-2546382D01*
X6370332Y-2558270D01*
X6431268Y-2558270D01*
X6491034Y-2546382D01*
X6547332Y-2523063D01*
X6597999Y-2489208D01*
X6641088Y-2446119D01*
X6674943Y-2395452D01*
X6698262Y-2339154D01*
X6710150Y-2279388D01*
X6710150Y-2218452D01*
X6698262Y-2158686D01*
X6674943Y-2102388D01*
X6641088Y-2051721D01*
X6597999Y-2008632D01*
X6547332Y-1974777D01*
X6491034Y-1951458D01*
X6431268Y-1939570D01*
X6370332Y-1939570D01*
X6310566Y-1951458D01*
X6254268Y-1974777D01*
X6203601Y-2008632D01*
X6160512Y-2051721D01*
X6126657Y-2102388D01*
X6103338Y-2158686D01*
X6091450Y-2218452D01*
X5109736Y-2218452D01*
X5098062Y-2159766D01*
X5074743Y-2103468D01*
X5040888Y-2052801D01*
X4997799Y-2009712D01*
X4947132Y-1975857D01*
X4890834Y-1952538D01*
X4831068Y-1940650D01*
X4770132Y-1940650D01*
X4710366Y-1952538D01*
X4654068Y-1975857D01*
X4603401Y-2009712D01*
X4560312Y-2052801D01*
X4526457Y-2103468D01*
X4503138Y-2159766D01*
X4491250Y-2219532D01*
X3509750Y-2219532D01*
X3497862Y-2159766D01*
X3486920Y-2133350D01*
X3860117Y-2133350D01*
X4272275Y-2051366D01*
X4660520Y-1890550D01*
X5009931Y-1657081D01*
X5307081Y-1359931D01*
X5540550Y-1010520D01*
X5701366Y-622275D01*
X5783350Y-210117D01*
X5783350Y210117D01*
X5779302Y230468D01*
X6090650Y230468D01*
X6090650Y169532D01*
X6102538Y109766D01*
X6125857Y53468D01*
X6159712Y2801D01*
X6202801Y-40288D01*
X6253468Y-74143D01*
X6309766Y-97462D01*
X6369532Y-109350D01*
X6430468Y-109350D01*
X6490234Y-97462D01*
X6546532Y-74143D01*
X6597199Y-40288D01*
X6640288Y2801D01*
X6674143Y53468D01*
X6697462Y109766D01*
X6709350Y169532D01*
X6709350Y230468D01*
X6697462Y290234D01*
X6674143Y346532D01*
X6640288Y397199D01*
X6597199Y440288D01*
X6546532Y474143D01*
X6490234Y497462D01*
X6430468Y509350D01*
X6369532Y509350D01*
X6309766Y497462D01*
X6253468Y474143D01*
X6202801Y440288D01*
X6159712Y397199D01*
X6125857Y346532D01*
X6102538Y290234D01*
X6090650Y230468D01*
X5779302Y230468D01*
X5701366Y622275D01*
X5540550Y1010520D01*
X5307081Y1359931D01*
X5009931Y1657081D01*
X4660520Y1890550D01*
X4500191Y1956960D01*
X4545812Y1975857D01*
X4596479Y2009712D01*
X4639568Y2052801D01*
X4673423Y2103468D01*
X4696742Y2159766D01*
X4708630Y2219532D01*
X4708630Y2280468D01*
X5690130Y2280468D01*
X5690130Y2219532D01*
X5702018Y2159766D01*
X5725337Y2103468D01*
X5759192Y2052801D01*
X5802281Y2009712D01*
X5852948Y1975857D01*
X5909246Y1952538D01*
X5969012Y1940650D01*
X6029948Y1940650D01*
X6089714Y1952538D01*
X6146012Y1975857D01*
X6196679Y2009712D01*
X6239768Y2052801D01*
X6273623Y2103468D01*
X6296942Y2159766D01*
X6308830Y2219532D01*
X6308830Y2280468D01*
X6296942Y2340234D01*
X6273623Y2396532D01*
X6239768Y2447199D01*
X6196679Y2490288D01*
X6146012Y2524143D01*
X6089714Y2547462D01*
X6029948Y2559350D01*
X5969012Y2559350D01*
X5909246Y2547462D01*
X5852948Y2524143D01*
X5802281Y2490288D01*
X5759192Y2447199D01*
X5725337Y2396532D01*
X5702018Y2340234D01*
X5690130Y2280468D01*
X4708630Y2280468D01*
X4696742Y2340234D01*
X4673423Y2396532D01*
X4639568Y2447199D01*
X4596479Y2490288D01*
X4545812Y2524143D01*
X4489514Y2547462D01*
X4429748Y2559350D01*
X4368812Y2559350D01*
X4309046Y2547462D01*
X4252748Y2524143D01*
X4202081Y2490288D01*
X4158992Y2447199D01*
X4125137Y2396532D01*
X4101818Y2340234D01*
X4089930Y2280468D01*
X4089930Y2219532D01*
X4101818Y2159766D01*
X4125137Y2103468D01*
X4142733Y2077134D01*
X3860117Y2133350D01*
X3439883Y2133350D01*
X3043808Y2054565D01*
X3075763Y2102388D01*
X3099082Y2158686D01*
X3110970Y2218452D01*
X3110970Y2279388D01*
X3099082Y2339154D01*
X3075763Y2395452D01*
X3041908Y2446119D01*
X2998819Y2489208D01*
X2948152Y2523063D01*
X2891854Y2546382D01*
X2832088Y2558270D01*
X2771152Y2558270D01*
X2711386Y2546382D01*
X2655088Y2523063D01*
X2604421Y2489208D01*
X2561332Y2446119D01*
X2527477Y2395452D01*
X2504158Y2339154D01*
X2492270Y2279388D01*
X2492270Y2218452D01*
X2504158Y2158686D01*
X2527477Y2102388D01*
X2561332Y2051721D01*
X2604421Y2008632D01*
X2655088Y1974777D01*
X2711386Y1951458D01*
X2762149Y1941361D01*
X2639480Y1890550D01*
X2290069Y1657081D01*
X1992919Y1359931D01*
X1759450Y1010520D01*
X1598634Y622275D01*
X1516650Y210117D01*
X-2116650Y210117D01*
X-2198634Y622275D01*
X-2359450Y1010520D01*
X-2592919Y1359931D01*
X-2890069Y1657081D01*
X-3239480Y1890550D01*
X-3449886Y1977703D01*
X-3401981Y2009712D01*
X-3358892Y2052801D01*
X-3325037Y2103468D01*
X-3301718Y2159766D01*
X-3289830Y2219532D01*
X-3289830Y2280468D01*
X-2310870Y2280468D01*
X-2310870Y2219532D01*
X-2298982Y2159766D01*
X-2275663Y2103468D01*
X-2241808Y2052801D01*
X-2198719Y2009712D01*
X-2148052Y1975857D01*
X-2091754Y1952538D01*
X-2031988Y1940650D01*
X-1971052Y1940650D01*
X-1911286Y1952538D01*
X-1854988Y1975857D01*
X-1804321Y2009712D01*
X-1761232Y2052801D01*
X-1727377Y2103468D01*
X-1704058Y2159766D01*
X-1692170Y2219532D01*
X-1692170Y2280468D01*
X-1692257Y2280908D01*
X-705590Y2280908D01*
X-705590Y2219972D01*
X-693702Y2160206D01*
X-670383Y2103908D01*
X-636528Y2053241D01*
X-593439Y2010152D01*
X-542772Y1976297D01*
X-486474Y1952978D01*
X-426708Y1941090D01*
X-365772Y1941090D01*
X-306006Y1952978D01*
X-249708Y1976297D01*
X-199041Y2010152D01*
X-155952Y2053241D01*
X-122097Y2103908D01*
X-98778Y2160206D01*
X-86890Y2219972D01*
X-86890Y2280468D01*
X889530Y2280468D01*
X889530Y2219532D01*
X901418Y2159766D01*
X924737Y2103468D01*
X958592Y2052801D01*
X1001681Y2009712D01*
X1052348Y1975857D01*
X1108646Y1952538D01*
X1168412Y1940650D01*
X1229348Y1940650D01*
X1289114Y1952538D01*
X1345412Y1975857D01*
X1396079Y2009712D01*
X1439168Y2052801D01*
X1473023Y2103468D01*
X1496342Y2159766D01*
X1508230Y2219532D01*
X1508230Y2280468D01*
X1496342Y2340234D01*
X1473023Y2396532D01*
X1439168Y2447199D01*
X1396079Y2490288D01*
X1345412Y2524143D01*
X1289114Y2547462D01*
X1229348Y2559350D01*
X1168412Y2559350D01*
X1108646Y2547462D01*
X1052348Y2524143D01*
X1001681Y2490288D01*
X958592Y2447199D01*
X924737Y2396532D01*
X901418Y2340234D01*
X889530Y2280468D01*
X-86890Y2280468D01*
X-86890Y2280908D01*
X-98778Y2340674D01*
X-122097Y2396972D01*
X-155952Y2447639D01*
X-199041Y2490728D01*
X-249708Y2524583D01*
X-306006Y2547902D01*
X-365772Y2559790D01*
X-426708Y2559790D01*
X-486474Y2547902D01*
X-542772Y2524583D01*
X-593439Y2490728D01*
X-636528Y2447639D01*
X-670383Y2396972D01*
X-693702Y2340674D01*
X-705590Y2280908D01*
X-1692257Y2280908D01*
X-1704058Y2340234D01*
X-1727377Y2396532D01*
X-1761232Y2447199D01*
X-1804321Y2490288D01*
X-1854988Y2524143D01*
X-1911286Y2547462D01*
X-1971052Y2559350D01*
X-2031988Y2559350D01*
X-2091754Y2547462D01*
X-2148052Y2524143D01*
X-2198719Y2490288D01*
X-2241808Y2447199D01*
X-2275663Y2396532D01*
X-2298982Y2340234D01*
X-2310870Y2280468D01*
X-3289830Y2280468D01*
X-3301718Y2340234D01*
X-3325037Y2396532D01*
X-3358892Y2447199D01*
X-3401981Y2490288D01*
X-3452648Y2524143D01*
X-3508946Y2547462D01*
X-3568712Y2559350D01*
X-3629648Y2559350D01*
X-3689414Y2547462D01*
X-3745712Y2524143D01*
X-3796379Y2490288D01*
X-3839468Y2447199D01*
X-3873323Y2396532D01*
X-3896642Y2340234D01*
X-3908530Y2280468D01*
X-3908530Y2219532D01*
X-3896642Y2159766D01*
X-3873323Y2103468D01*
X-3870819Y2099721D01*
X-4039883Y2133350D01*
X-4460117Y2133350D01*
X-4872275Y2051366D01*
X-5260520Y1890550D01*
X-5609931Y1657081D01*
X-5907081Y1359931D01*
X-6140550Y1010520D01*
X-6301366Y622275D01*
X-6383350Y210117D01*
X-7343250Y210117D01*
X-7343250Y1981958D01*
X-7273258Y2281928D01*
X-5508730Y2281928D01*
X-5508730Y2220992D01*
X-5496842Y2161226D01*
X-5473523Y2104928D01*
X-5439668Y2054261D01*
X-5396579Y2011172D01*
X-5345912Y1977317D01*
X-5289614Y1953998D01*
X-5229848Y1942110D01*
X-5168912Y1942110D01*
X-5109146Y1953998D01*
X-5052848Y1977317D01*
X-5002181Y2011172D01*
X-4959092Y2054261D01*
X-4925237Y2104928D01*
X-4901918Y2161226D01*
X-4890030Y2220992D01*
X-4890030Y2281928D01*
X-4901918Y2341694D01*
X-4925237Y2397992D01*
X-4959092Y2448659D01*
X-5002181Y2491748D01*
X-5052848Y2525603D01*
X-5109146Y2548922D01*
X-5168912Y2560810D01*
X-5229848Y2560810D01*
X-5289614Y2548922D01*
X-5345912Y2525603D01*
X-5396579Y2491748D01*
X-5439668Y2448659D01*
X-5473523Y2397992D01*
X-5496842Y2341694D01*
X-5508730Y2281928D01*
X-7273258Y2281928D01*
X-7049848Y3239402D01*
X6099950Y3239402D01*
X6099950Y3160598D01*
X6115323Y3083310D01*
X6145480Y3010505D01*
X6189261Y2944983D01*
X6244983Y2889261D01*
X6310505Y2845480D01*
X6383310Y2815323D01*
X6460598Y2799950D01*
X6539402Y2799950D01*
X6616690Y2815323D01*
X6689495Y2845480D01*
X6755017Y2889261D01*
X6810739Y2944983D01*
X6854520Y3010505D01*
X6884677Y3083310D01*
X6900050Y3160598D01*
X6900050Y3239402D01*
X6884677Y3316690D01*
X6854520Y3389495D01*
X6810739Y3455017D01*
X6755017Y3510739D01*
X6689495Y3554520D01*
X6616690Y3584677D01*
X6539402Y3600050D01*
X6460598Y3600050D01*
X6383310Y3584677D01*
X6310505Y3554520D01*
X6244983Y3510739D01*
X6189261Y3455017D01*
X6145480Y3389495D01*
X6115323Y3316690D01*
X6099950Y3239402D01*
X-7049848Y3239402D01*
X-6908455Y3845371D01*
X-6286735Y3845371D01*
X-6251413Y3758107D01*
X-6151318Y3712334D01*
X-6044216Y3686970D01*
X-5934223Y3682987D01*
X-5825568Y3700538D01*
X-5722424Y3738950D01*
X-5686587Y3758107D01*
X-5651265Y3845371D01*
X-5969000Y4163106D01*
X-6286735Y3845371D01*
X-6908455Y3845371D01*
X-6823704Y4208586D01*
X-6529376Y4208586D01*
X-6511825Y4099931D01*
X-6473413Y3996787D01*
X-6454256Y3960950D01*
X-6366992Y3925628D01*
X-6049257Y4243363D01*
X-5888743Y4243363D01*
X-5571008Y3925628D01*
X-5483744Y3960950D01*
X-5437971Y4061045D01*
X-5412607Y4168147D01*
X-5408624Y4278140D01*
X-5423424Y4369765D01*
X-4943978Y4369765D01*
X-4943978Y4290961D01*
X-4928605Y4213673D01*
X-4898448Y4140868D01*
X-4854667Y4075346D01*
X-4798945Y4019624D01*
X-4733423Y3975843D01*
X-4660618Y3945686D01*
X-4583330Y3930313D01*
X-4504526Y3930313D01*
X-4427238Y3945686D01*
X-4354433Y3975843D01*
X-4288911Y4019624D01*
X-4233189Y4075346D01*
X-4189408Y4140868D01*
X-4159251Y4213673D01*
X-4143878Y4290961D01*
X-4143878Y4369765D01*
X-3602206Y4369765D01*
X-3602206Y4290961D01*
X-3586833Y4213673D01*
X-3556676Y4140868D01*
X-3512895Y4075346D01*
X-3457173Y4019624D01*
X-3391651Y3975843D01*
X-3318846Y3945686D01*
X-3241558Y3930313D01*
X-3162754Y3930313D01*
X-3085466Y3945686D01*
X-3012661Y3975843D01*
X-2947139Y4019624D01*
X-2891417Y4075346D01*
X-2847636Y4140868D01*
X-2817479Y4213673D01*
X-2802106Y4290961D01*
X-2802106Y4369765D01*
X-2260434Y4369765D01*
X-2260434Y4290961D01*
X-2245061Y4213673D01*
X-2214904Y4140868D01*
X-2171123Y4075346D01*
X-2115401Y4019624D01*
X-2049879Y3975843D01*
X-1977074Y3945686D01*
X-1899786Y3930313D01*
X-1820982Y3930313D01*
X-1743694Y3945686D01*
X-1670889Y3975843D01*
X-1605367Y4019624D01*
X-1549645Y4075346D01*
X-1505864Y4140868D01*
X-1475707Y4213673D01*
X-1460334Y4290961D01*
X-1460334Y4369765D01*
X-918662Y4369765D01*
X-918662Y4290961D01*
X-903289Y4213673D01*
X-873132Y4140868D01*
X-829351Y4075346D01*
X-773629Y4019624D01*
X-708107Y3975843D01*
X-635302Y3945686D01*
X-558014Y3930313D01*
X-479210Y3930313D01*
X-401922Y3945686D01*
X-329117Y3975843D01*
X-263595Y4019624D01*
X-207873Y4075346D01*
X-164092Y4140868D01*
X-133935Y4213673D01*
X-118562Y4290961D01*
X-118562Y4369765D01*
X423110Y4369765D01*
X423110Y4290961D01*
X438483Y4213673D01*
X468640Y4140868D01*
X512421Y4075346D01*
X568143Y4019624D01*
X633665Y3975843D01*
X706470Y3945686D01*
X783758Y3930313D01*
X862562Y3930313D01*
X939850Y3945686D01*
X1012655Y3975843D01*
X1078177Y4019624D01*
X1133899Y4075346D01*
X1177680Y4140868D01*
X1207837Y4213673D01*
X1223210Y4290961D01*
X1223210Y4369765D01*
X1764882Y4369765D01*
X1764882Y4290961D01*
X1780255Y4213673D01*
X1810412Y4140868D01*
X1854193Y4075346D01*
X1909915Y4019624D01*
X1975437Y3975843D01*
X2048242Y3945686D01*
X2125530Y3930313D01*
X2204334Y3930313D01*
X2281622Y3945686D01*
X2354427Y3975843D01*
X2419949Y4019624D01*
X2475671Y4075346D01*
X2519452Y4140868D01*
X2549609Y4213673D01*
X2564982Y4290961D01*
X2564982Y4369765D01*
X3106654Y4369765D01*
X3106654Y4290961D01*
X3122027Y4213673D01*
X3152184Y4140868D01*
X3195965Y4075346D01*
X3251687Y4019624D01*
X3317209Y3975843D01*
X3390014Y3945686D01*
X3467302Y3930313D01*
X3546106Y3930313D01*
X3623394Y3945686D01*
X3696199Y3975843D01*
X3761721Y4019624D01*
X3817443Y4075346D01*
X3861224Y4140868D01*
X3891381Y4213673D01*
X3906754Y4290961D01*
X3906754Y4369765D01*
X4448426Y4369765D01*
X4448426Y4290961D01*
X4463799Y4213673D01*
X4493956Y4140868D01*
X4537737Y4075346D01*
X4593459Y4019624D01*
X4658981Y3975843D01*
X4731786Y3945686D01*
X4809074Y3930313D01*
X4887878Y3930313D01*
X4965166Y3945686D01*
X5037971Y3975843D01*
X5103493Y4019624D01*
X5159215Y4075346D01*
X5202996Y4140868D01*
X5233153Y4213673D01*
X5248526Y4290961D01*
X5248526Y4369765D01*
X5246895Y4377969D01*
X5706902Y4377969D01*
X5706902Y4282757D01*
X5725477Y4189375D01*
X5761913Y4101411D01*
X5814809Y4022245D01*
X5882134Y3954920D01*
X5961300Y3902024D01*
X6049264Y3865588D01*
X6142646Y3847013D01*
X6237858Y3847013D01*
X6331240Y3865588D01*
X6419204Y3902024D01*
X6498370Y3954920D01*
X6565695Y4022245D01*
X6618591Y4101411D01*
X6655027Y4189375D01*
X6673602Y4282757D01*
X6673602Y4377969D01*
X6655027Y4471351D01*
X6618591Y4559315D01*
X6565695Y4638481D01*
X6498370Y4705806D01*
X6419204Y4758702D01*
X6331240Y4795138D01*
X6237858Y4813713D01*
X6142646Y4813713D01*
X6049264Y4795138D01*
X5961300Y4758702D01*
X5882134Y4705806D01*
X5814809Y4638481D01*
X5761913Y4559315D01*
X5725477Y4471351D01*
X5706902Y4377969D01*
X5246895Y4377969D01*
X5233153Y4447053D01*
X5202996Y4519858D01*
X5159215Y4585380D01*
X5103493Y4641102D01*
X5037971Y4684883D01*
X4965166Y4715040D01*
X4887878Y4730413D01*
X4809074Y4730413D01*
X4731786Y4715040D01*
X4658981Y4684883D01*
X4593459Y4641102D01*
X4537737Y4585380D01*
X4493956Y4519858D01*
X4463799Y4447053D01*
X4448426Y4369765D01*
X3906754Y4369765D01*
X3891381Y4447053D01*
X3861224Y4519858D01*
X3817443Y4585380D01*
X3761721Y4641102D01*
X3696199Y4684883D01*
X3623394Y4715040D01*
X3546106Y4730413D01*
X3467302Y4730413D01*
X3390014Y4715040D01*
X3317209Y4684883D01*
X3251687Y4641102D01*
X3195965Y4585380D01*
X3152184Y4519858D01*
X3122027Y4447053D01*
X3106654Y4369765D01*
X2564982Y4369765D01*
X2549609Y4447053D01*
X2519452Y4519858D01*
X2475671Y4585380D01*
X2419949Y4641102D01*
X2354427Y4684883D01*
X2281622Y4715040D01*
X2204334Y4730413D01*
X2125530Y4730413D01*
X2048242Y4715040D01*
X1975437Y4684883D01*
X1909915Y4641102D01*
X1854193Y4585380D01*
X1810412Y4519858D01*
X1780255Y4447053D01*
X1764882Y4369765D01*
X1223210Y4369765D01*
X1207837Y4447053D01*
X1177680Y4519858D01*
X1133899Y4585380D01*
X1078177Y4641102D01*
X1012655Y4684883D01*
X939850Y4715040D01*
X862562Y4730413D01*
X783758Y4730413D01*
X706470Y4715040D01*
X633665Y4684883D01*
X568143Y4641102D01*
X512421Y4585380D01*
X468640Y4519858D01*
X438483Y4447053D01*
X423110Y4369765D01*
X-118562Y4369765D01*
X-133935Y4447053D01*
X-164092Y4519858D01*
X-207873Y4585380D01*
X-263595Y4641102D01*
X-329117Y4684883D01*
X-401922Y4715040D01*
X-479210Y4730413D01*
X-558014Y4730413D01*
X-635302Y4715040D01*
X-708107Y4684883D01*
X-773629Y4641102D01*
X-829351Y4585380D01*
X-873132Y4519858D01*
X-903289Y4447053D01*
X-918662Y4369765D01*
X-1460334Y4369765D01*
X-1475707Y4447053D01*
X-1505864Y4519858D01*
X-1549645Y4585380D01*
X-1605367Y4641102D01*
X-1670889Y4684883D01*
X-1743694Y4715040D01*
X-1820982Y4730413D01*
X-1899786Y4730413D01*
X-1977074Y4715040D01*
X-2049879Y4684883D01*
X-2115401Y4641102D01*
X-2171123Y4585380D01*
X-2214904Y4519858D01*
X-2245061Y4447053D01*
X-2260434Y4369765D01*
X-2802106Y4369765D01*
X-2817479Y4447053D01*
X-2847636Y4519858D01*
X-2891417Y4585380D01*
X-2947139Y4641102D01*
X-3012661Y4684883D01*
X-3085466Y4715040D01*
X-3162754Y4730413D01*
X-3241558Y4730413D01*
X-3318846Y4715040D01*
X-3391651Y4684883D01*
X-3457173Y4641102D01*
X-3512895Y4585380D01*
X-3556676Y4519858D01*
X-3586833Y4447053D01*
X-3602206Y4369765D01*
X-4143878Y4369765D01*
X-4159251Y4447053D01*
X-4189408Y4519858D01*
X-4233189Y4585380D01*
X-4288911Y4641102D01*
X-4354433Y4684883D01*
X-4427238Y4715040D01*
X-4504526Y4730413D01*
X-4583330Y4730413D01*
X-4660618Y4715040D01*
X-4733423Y4684883D01*
X-4798945Y4641102D01*
X-4854667Y4585380D01*
X-4898448Y4519858D01*
X-4928605Y4447053D01*
X-4943978Y4369765D01*
X-5423424Y4369765D01*
X-5426175Y4386795D01*
X-5464587Y4489939D01*
X-5483744Y4525776D01*
X-5571008Y4561098D01*
X-5888743Y4243363D01*
X-6049257Y4243363D01*
X-6366992Y4561098D01*
X-6454256Y4525776D01*
X-6500029Y4425681D01*
X-6525393Y4318579D01*
X-6529376Y4208586D01*
X-6823704Y4208586D01*
X-6722725Y4641355D01*
X-6286735Y4641355D01*
X-5969000Y4323620D01*
X-5651265Y4641355D01*
X-5686587Y4728619D01*
X-5786682Y4774392D01*
X-5893784Y4799756D01*
X-6003777Y4803739D01*
X-6112432Y4786188D01*
X-6215576Y4747776D01*
X-6251413Y4728619D01*
X-6286735Y4641355D01*
X-6722725Y4641355D01*
X-6675615Y4843250D01*
X6675615Y4843250D01*
X7343250Y1981954D01*
%TD*%
M02*
