%TF.GenerationSoftware,KiCad,Pcbnew,(5.1.4)-1*%
%TF.CreationDate,2023-01-12T23:36:30+00:00*%
%TF.ProjectId,10X15M,31305831-354d-42e6-9b69-6361645f7063,rev?*%
%TF.SameCoordinates,Original*%
%TF.FileFunction,Legend,Top*%
%TF.FilePolarity,Positive*%
%FSLAX46Y46*%
G04 Gerber Fmt 4.6, Leading zero omitted, Abs format (unit mm)*
G04 Created by KiCad (PCBNEW (5.1.4)-1) date 2023-01-12 23:36:30*
%MOMM*%
%LPD*%
G04 APERTURE LIST*
%ADD10C,0.125000*%
%ADD11C,0.127000*%
%ADD12C,0.160000*%
G04 APERTURE END LIST*
D10*
X6131690Y2885261D02*
X5893595Y2718595D01*
X6131690Y2599547D02*
X5631690Y2599547D01*
X5631690Y2790023D01*
X5655500Y2837642D01*
X5679309Y2861452D01*
X5726928Y2885261D01*
X5798357Y2885261D01*
X5845976Y2861452D01*
X5869785Y2837642D01*
X5893595Y2790023D01*
X5893595Y2599547D01*
X5719000Y-2536047D02*
X5695190Y-2583666D01*
X5695190Y-2655095D01*
X5719000Y-2726523D01*
X5766619Y-2774142D01*
X5814238Y-2797952D01*
X5909476Y-2821761D01*
X5980904Y-2821761D01*
X6076142Y-2797952D01*
X6123761Y-2774142D01*
X6171380Y-2726523D01*
X6195190Y-2655095D01*
X6195190Y-2607476D01*
X6171380Y-2536047D01*
X6147571Y-2512238D01*
X5980904Y-2512238D01*
X5980904Y-2607476D01*
X-6204028Y-3174952D02*
X-6227837Y-3222571D01*
X-6227837Y-3294000D01*
X-6204028Y-3365428D01*
X-6156408Y-3413047D01*
X-6108789Y-3436857D01*
X-6013551Y-3460666D01*
X-5942123Y-3460666D01*
X-5846885Y-3436857D01*
X-5799266Y-3413047D01*
X-5751647Y-3365428D01*
X-5727837Y-3294000D01*
X-5727837Y-3246380D01*
X-5751647Y-3174952D01*
X-5775456Y-3151142D01*
X-5942123Y-3151142D01*
X-5942123Y-3246380D01*
X-5727837Y-2936857D02*
X-6227837Y-2936857D01*
X-5727837Y-2651142D01*
X-6227837Y-2651142D01*
X-5727837Y-2413047D02*
X-6227837Y-2413047D01*
X-6227837Y-2294000D01*
X-6204028Y-2222571D01*
X-6156408Y-2174952D01*
X-6108789Y-2151142D01*
X-6013551Y-2127333D01*
X-5942123Y-2127333D01*
X-5846885Y-2151142D01*
X-5799266Y-2174952D01*
X-5751647Y-2222571D01*
X-5727837Y-2294000D01*
X-5727837Y-2413047D01*
X-6155500Y2476547D02*
X-6179309Y2428928D01*
X-6179309Y2357500D01*
X-6155500Y2286071D01*
X-6107880Y2238452D01*
X-6060261Y2214642D01*
X-5965023Y2190833D01*
X-5893595Y2190833D01*
X-5798357Y2214642D01*
X-5750738Y2238452D01*
X-5703119Y2286071D01*
X-5679309Y2357500D01*
X-5679309Y2405119D01*
X-5703119Y2476547D01*
X-5726928Y2500357D01*
X-5893595Y2500357D01*
X-5893595Y2405119D01*
X-5679309Y2714642D02*
X-6179309Y2714642D01*
X-5679309Y3000357D01*
X-6179309Y3000357D01*
X-5679309Y3238452D02*
X-6179309Y3238452D01*
X-6179309Y3357500D01*
X-6155500Y3428928D01*
X-6107880Y3476547D01*
X-6060261Y3500357D01*
X-5965023Y3524166D01*
X-5893595Y3524166D01*
X-5798357Y3500357D01*
X-5750738Y3476547D01*
X-5703119Y3428928D01*
X-5679309Y3357500D01*
X-5679309Y3238452D01*
X-288009Y-3622238D02*
X-788009Y-3622238D01*
X-288009Y-3336523D01*
X-788009Y-3336523D01*
X-430866Y-3122238D02*
X-430866Y-2884142D01*
X-288009Y-3169857D02*
X-788009Y-3003190D01*
X-288009Y-2836523D01*
X-311819Y-2693666D02*
X-288009Y-2622238D01*
X-288009Y-2503190D01*
X-311819Y-2455571D01*
X-335628Y-2431761D01*
X-383247Y-2407952D01*
X-430866Y-2407952D01*
X-478485Y-2431761D01*
X-502295Y-2455571D01*
X-526104Y-2503190D01*
X-549914Y-2598428D01*
X-573723Y-2646047D01*
X-597533Y-2669857D01*
X-645152Y-2693666D01*
X-692771Y-2693666D01*
X-740390Y-2669857D01*
X-764200Y-2646047D01*
X-788009Y-2598428D01*
X-788009Y-2479380D01*
X-764200Y-2407952D01*
X-1656785Y-3634142D02*
X-2156785Y-3634142D01*
X-1656785Y-3348428D01*
X-2156785Y-3348428D01*
X-1799642Y-3134142D02*
X-1799642Y-2896047D01*
X-1656785Y-3181761D02*
X-2156785Y-3015095D01*
X-1656785Y-2848428D01*
X-1704404Y-2396047D02*
X-1680595Y-2419857D01*
X-1656785Y-2491285D01*
X-1656785Y-2538904D01*
X-1680595Y-2610333D01*
X-1728214Y-2657952D01*
X-1775833Y-2681761D01*
X-1871071Y-2705571D01*
X-1942499Y-2705571D01*
X-2037737Y-2681761D01*
X-2085356Y-2657952D01*
X-2132976Y-2610333D01*
X-2156785Y-2538904D01*
X-2156785Y-2491285D01*
X-2132976Y-2419857D01*
X-2109166Y-2396047D01*
X-3025561Y-3229380D02*
X-3525561Y-3229380D01*
X-3025561Y-2753190D02*
X-3025561Y-2991285D01*
X-3525561Y-2991285D01*
X-4394337Y-3515095D02*
X-4894337Y-3515095D01*
X-4894337Y-3324619D01*
X-4870528Y-3277000D01*
X-4846718Y-3253190D01*
X-4799099Y-3229380D01*
X-4727670Y-3229380D01*
X-4680051Y-3253190D01*
X-4656242Y-3277000D01*
X-4632432Y-3324619D01*
X-4632432Y-3515095D01*
X-4394337Y-3015095D02*
X-4727670Y-3015095D01*
X-4632432Y-3015095D02*
X-4680051Y-2991285D01*
X-4703861Y-2967476D01*
X-4727670Y-2919857D01*
X-4727670Y-2872238D01*
X-4394337Y-2467476D02*
X-4394337Y-2705571D01*
X-4894337Y-2705571D01*
X1080766Y-3560333D02*
X818861Y-3560333D01*
X771242Y-3584142D01*
X747433Y-3631761D01*
X747433Y-3727000D01*
X771242Y-3774619D01*
X1056956Y-3560333D02*
X1080766Y-3607952D01*
X1080766Y-3727000D01*
X1056956Y-3774619D01*
X1009337Y-3798428D01*
X961718Y-3798428D01*
X914099Y-3774619D01*
X890290Y-3727000D01*
X890290Y-3607952D01*
X866480Y-3560333D01*
X1080766Y-3322238D02*
X580766Y-3322238D01*
X580766Y-3203190D01*
X604576Y-3131761D01*
X652195Y-3084142D01*
X699814Y-3060333D01*
X795052Y-3036523D01*
X866480Y-3036523D01*
X961718Y-3060333D01*
X1009337Y-3084142D01*
X1056956Y-3131761D01*
X1080766Y-3203190D01*
X1080766Y-3322238D01*
X1080766Y-2584142D02*
X1080766Y-2822238D01*
X580766Y-2822238D01*
X1056956Y-2441285D02*
X1080766Y-2369857D01*
X1080766Y-2250809D01*
X1056956Y-2203190D01*
X1033147Y-2179380D01*
X985528Y-2155571D01*
X937909Y-2155571D01*
X890290Y-2179380D01*
X866480Y-2203190D01*
X842671Y-2250809D01*
X818861Y-2346047D01*
X795052Y-2393666D01*
X771242Y-2417476D01*
X723623Y-2441285D01*
X676004Y-2441285D01*
X628385Y-2417476D01*
X604576Y-2393666D01*
X580766Y-2346047D01*
X580766Y-2227000D01*
X604576Y-2155571D01*
X3556413Y-3425732D02*
X3580223Y-3354303D01*
X3604032Y-3330494D01*
X3651651Y-3306684D01*
X3723080Y-3306684D01*
X3770699Y-3330494D01*
X3794508Y-3354303D01*
X3818318Y-3401922D01*
X3818318Y-3592399D01*
X3318318Y-3592399D01*
X3318318Y-3425732D01*
X3342128Y-3378113D01*
X3365937Y-3354303D01*
X3413556Y-3330494D01*
X3461175Y-3330494D01*
X3508794Y-3354303D01*
X3532604Y-3378113D01*
X3556413Y-3425732D01*
X3556413Y-3592399D01*
X3818318Y-2854303D02*
X3818318Y-3092399D01*
X3318318Y-3092399D01*
X3675461Y-2711446D02*
X3675461Y-2473351D01*
X3818318Y-2759065D02*
X3318318Y-2592399D01*
X3818318Y-2425732D01*
X2107737Y-3857952D02*
X2607737Y-3857952D01*
X2131546Y-3857952D02*
X2107737Y-3810333D01*
X2107737Y-3715095D01*
X2131546Y-3667476D01*
X2155356Y-3643666D01*
X2202975Y-3619857D01*
X2345832Y-3619857D01*
X2393451Y-3643666D01*
X2417260Y-3667476D01*
X2441070Y-3715095D01*
X2441070Y-3810333D01*
X2417260Y-3857952D01*
X2441070Y-3405571D02*
X1941070Y-3405571D01*
X1941070Y-3286523D01*
X1964880Y-3215095D01*
X2012499Y-3167476D01*
X2060118Y-3143666D01*
X2155356Y-3119857D01*
X2226784Y-3119857D01*
X2322022Y-3143666D01*
X2369641Y-3167476D01*
X2417260Y-3215095D01*
X2441070Y-3286523D01*
X2441070Y-3405571D01*
X2441070Y-2905571D02*
X1941070Y-2905571D01*
X2298213Y-2738904D01*
X1941070Y-2572238D01*
X2441070Y-2572238D01*
X2417260Y-2357952D02*
X2441070Y-2286523D01*
X2441070Y-2167476D01*
X2417260Y-2119857D01*
X2393451Y-2096047D01*
X2345832Y-2072238D01*
X2298213Y-2072238D01*
X2250594Y-2096047D01*
X2226784Y-2119857D01*
X2202975Y-2167476D01*
X2179165Y-2262714D01*
X2155356Y-2310333D01*
X2131546Y-2334142D01*
X2083927Y-2357952D01*
X2036308Y-2357952D01*
X1988689Y-2334142D01*
X1964880Y-2310333D01*
X1941070Y-2262714D01*
X1941070Y-2143666D01*
X1964880Y-2072238D01*
X5189350Y-3572238D02*
X4689350Y-3572238D01*
X5165540Y-3572238D02*
X5189350Y-3619857D01*
X5189350Y-3715095D01*
X5165540Y-3762714D01*
X5141731Y-3786523D01*
X5094112Y-3810333D01*
X4951255Y-3810333D01*
X4903636Y-3786523D01*
X4879826Y-3762714D01*
X4856017Y-3715095D01*
X4856017Y-3619857D01*
X4879826Y-3572238D01*
X5141731Y-3048428D02*
X5165540Y-3072238D01*
X5189350Y-3143666D01*
X5189350Y-3191285D01*
X5165540Y-3262714D01*
X5117921Y-3310333D01*
X5070302Y-3334142D01*
X4975064Y-3357952D01*
X4903636Y-3357952D01*
X4808398Y-3334142D01*
X4760779Y-3310333D01*
X4713160Y-3262714D01*
X4689350Y-3191285D01*
X4689350Y-3143666D01*
X4713160Y-3072238D01*
X4736969Y-3048428D01*
X5046493Y-2857952D02*
X5046493Y-2619857D01*
X5189350Y-2905571D02*
X4689350Y-2738904D01*
X5189350Y-2572238D01*
X5189350Y-2143666D02*
X5189350Y-2429380D01*
X5189350Y-2286523D02*
X4689350Y-2286523D01*
X4760779Y-2334142D01*
X4808398Y-2381761D01*
X4832207Y-2429380D01*
X5189350Y2277761D02*
X4689350Y2277761D01*
X5165540Y2277761D02*
X5189350Y2230142D01*
X5189350Y2134904D01*
X5165540Y2087285D01*
X5141731Y2063476D01*
X5094112Y2039666D01*
X4951255Y2039666D01*
X4903636Y2063476D01*
X4879826Y2087285D01*
X4856017Y2134904D01*
X4856017Y2230142D01*
X4879826Y2277761D01*
X5141731Y2801571D02*
X5165540Y2777761D01*
X5189350Y2706333D01*
X5189350Y2658714D01*
X5165540Y2587285D01*
X5117921Y2539666D01*
X5070302Y2515857D01*
X4975064Y2492047D01*
X4903636Y2492047D01*
X4808398Y2515857D01*
X4760779Y2539666D01*
X4713160Y2587285D01*
X4689350Y2658714D01*
X4689350Y2706333D01*
X4713160Y2777761D01*
X4736969Y2801571D01*
X5046493Y2992047D02*
X5046493Y3230142D01*
X5189350Y2944428D02*
X4689350Y3111095D01*
X5189350Y3277761D01*
X5189350Y3706333D02*
X5189350Y3420619D01*
X5189350Y3563476D02*
X4689350Y3563476D01*
X4760779Y3515857D01*
X4808398Y3468238D01*
X4832207Y3420619D01*
X2107737Y1992047D02*
X2607737Y1992047D01*
X2131546Y1992047D02*
X2107737Y2039666D01*
X2107737Y2134904D01*
X2131546Y2182523D01*
X2155356Y2206333D01*
X2202975Y2230142D01*
X2345832Y2230142D01*
X2393451Y2206333D01*
X2417260Y2182523D01*
X2441070Y2134904D01*
X2441070Y2039666D01*
X2417260Y1992047D01*
X2441070Y2444428D02*
X1941070Y2444428D01*
X1941070Y2563476D01*
X1964880Y2634904D01*
X2012499Y2682523D01*
X2060118Y2706333D01*
X2155356Y2730142D01*
X2226784Y2730142D01*
X2322022Y2706333D01*
X2369641Y2682523D01*
X2417260Y2634904D01*
X2441070Y2563476D01*
X2441070Y2444428D01*
X2441070Y2944428D02*
X1941070Y2944428D01*
X2298213Y3111095D01*
X1941070Y3277761D01*
X2441070Y3277761D01*
X2417260Y3492047D02*
X2441070Y3563476D01*
X2441070Y3682523D01*
X2417260Y3730142D01*
X2393451Y3753952D01*
X2345832Y3777761D01*
X2298213Y3777761D01*
X2250594Y3753952D01*
X2226784Y3730142D01*
X2202975Y3682523D01*
X2179165Y3587285D01*
X2155356Y3539666D01*
X2131546Y3515857D01*
X2083927Y3492047D01*
X2036308Y3492047D01*
X1988689Y3515857D01*
X1964880Y3539666D01*
X1941070Y3587285D01*
X1941070Y3706333D01*
X1964880Y3777761D01*
X3556413Y2474267D02*
X3580223Y2545696D01*
X3604032Y2569505D01*
X3651651Y2593315D01*
X3723080Y2593315D01*
X3770699Y2569505D01*
X3794508Y2545696D01*
X3818318Y2498077D01*
X3818318Y2307600D01*
X3318318Y2307600D01*
X3318318Y2474267D01*
X3342128Y2521886D01*
X3365937Y2545696D01*
X3413556Y2569505D01*
X3461175Y2569505D01*
X3508794Y2545696D01*
X3532604Y2521886D01*
X3556413Y2474267D01*
X3556413Y2307600D01*
X3818318Y3045696D02*
X3818318Y2807600D01*
X3318318Y2807600D01*
X3675461Y3188553D02*
X3675461Y3426648D01*
X3818318Y3140934D02*
X3318318Y3307600D01*
X3818318Y3474267D01*
X1080766Y2289666D02*
X818861Y2289666D01*
X771242Y2265857D01*
X747433Y2218238D01*
X747433Y2123000D01*
X771242Y2075380D01*
X1056956Y2289666D02*
X1080766Y2242047D01*
X1080766Y2123000D01*
X1056956Y2075380D01*
X1009337Y2051571D01*
X961718Y2051571D01*
X914099Y2075380D01*
X890290Y2123000D01*
X890290Y2242047D01*
X866480Y2289666D01*
X1080766Y2527761D02*
X580766Y2527761D01*
X580766Y2646809D01*
X604576Y2718238D01*
X652195Y2765857D01*
X699814Y2789666D01*
X795052Y2813476D01*
X866480Y2813476D01*
X961718Y2789666D01*
X1009337Y2765857D01*
X1056956Y2718238D01*
X1080766Y2646809D01*
X1080766Y2527761D01*
X1080766Y3265857D02*
X1080766Y3027761D01*
X580766Y3027761D01*
X1056956Y3408714D02*
X1080766Y3480142D01*
X1080766Y3599190D01*
X1056956Y3646809D01*
X1033147Y3670619D01*
X985528Y3694428D01*
X937909Y3694428D01*
X890290Y3670619D01*
X866480Y3646809D01*
X842671Y3599190D01*
X818861Y3503952D01*
X795052Y3456333D01*
X771242Y3432523D01*
X723623Y3408714D01*
X676004Y3408714D01*
X628385Y3432523D01*
X604576Y3456333D01*
X580766Y3503952D01*
X580766Y3623000D01*
X604576Y3694428D01*
X-288009Y2277761D02*
X-788009Y2277761D01*
X-288009Y2563476D01*
X-788009Y2563476D01*
X-430866Y2777761D02*
X-430866Y3015857D01*
X-288009Y2730142D02*
X-788009Y2896809D01*
X-288009Y3063476D01*
X-311819Y3206333D02*
X-288009Y3277761D01*
X-288009Y3396809D01*
X-311819Y3444428D01*
X-335628Y3468238D01*
X-383247Y3492047D01*
X-430866Y3492047D01*
X-478485Y3468238D01*
X-502295Y3444428D01*
X-526104Y3396809D01*
X-549914Y3301571D01*
X-573723Y3253952D01*
X-597533Y3230142D01*
X-645152Y3206333D01*
X-692771Y3206333D01*
X-740390Y3230142D01*
X-764200Y3253952D01*
X-788009Y3301571D01*
X-788009Y3420619D01*
X-764200Y3492047D01*
X-1656785Y2265857D02*
X-2156785Y2265857D01*
X-1656785Y2551571D01*
X-2156785Y2551571D01*
X-1799642Y2765857D02*
X-1799642Y3003952D01*
X-1656785Y2718238D02*
X-2156785Y2884904D01*
X-1656785Y3051571D01*
X-1704404Y3503952D02*
X-1680595Y3480142D01*
X-1656785Y3408714D01*
X-1656785Y3361095D01*
X-1680595Y3289666D01*
X-1728214Y3242047D01*
X-1775833Y3218238D01*
X-1871071Y3194428D01*
X-1942499Y3194428D01*
X-2037737Y3218238D01*
X-2085356Y3242047D01*
X-2132976Y3289666D01*
X-2156785Y3361095D01*
X-2156785Y3408714D01*
X-2132976Y3480142D01*
X-2109166Y3503952D01*
X-4394337Y2384904D02*
X-4894337Y2384904D01*
X-4894337Y2575380D01*
X-4870528Y2623000D01*
X-4846718Y2646809D01*
X-4799099Y2670619D01*
X-4727670Y2670619D01*
X-4680051Y2646809D01*
X-4656242Y2623000D01*
X-4632432Y2575380D01*
X-4632432Y2384904D01*
X-4394337Y2884904D02*
X-4727670Y2884904D01*
X-4632432Y2884904D02*
X-4680051Y2908714D01*
X-4703861Y2932523D01*
X-4727670Y2980142D01*
X-4727670Y3027761D01*
X-4394337Y3432523D02*
X-4394337Y3194428D01*
X-4894337Y3194428D01*
X-3025561Y2670619D02*
X-3525561Y2670619D01*
X-3025561Y3146809D02*
X-3025561Y2908714D01*
X-3525561Y2908714D01*
D11*
%TO.C,J1*%
X7650584Y-554200D02*
G75*
G03X7650584Y-554200I-227184J0D01*
G01*
X8300000Y1440000D02*
X8300000Y-1440000D01*
X8300000Y-1440000D02*
X7200000Y-1440000D01*
X-7200000Y-1440000D02*
X-8300000Y-1440000D01*
X-8300000Y-1440000D02*
X-8300000Y1440000D01*
X-8300000Y1440000D02*
X-7200000Y1440000D01*
X7200000Y1440000D02*
X8300000Y1440000D01*
X8000000Y-1100000D02*
X8000000Y1100000D01*
X-8000000Y1100000D02*
X-8000000Y-1100000D01*
X8000000Y-1100000D02*
X7200000Y-1100000D01*
X8000000Y1100000D02*
X7200000Y1100000D01*
X-8000000Y-1100000D02*
X-7200000Y-1100000D01*
X-8000000Y1100000D02*
X-7200000Y1100000D01*
D12*
X-213333Y350476D02*
X-213333Y-106666D01*
X-243809Y-198095D01*
X-304761Y-259047D01*
X-396190Y-289523D01*
X-457142Y-289523D01*
X426666Y-289523D02*
X60952Y-289523D01*
X243809Y-289523D02*
X243809Y350476D01*
X182857Y259047D01*
X121904Y198095D01*
X60952Y167619D01*
%TD*%
M02*
