%TF.GenerationSoftware,KiCad,Pcbnew,(5.1.4)-1*%
%TF.CreationDate,2022-12-19T12:48:46+00:00*%
%TF.ProjectId,12X18_CAP,31325831-385f-4434-9150-2e6b69636164,rev?*%
%TF.SameCoordinates,Original*%
%TF.FileFunction,Paste,Top*%
%TF.FilePolarity,Positive*%
%FSLAX46Y46*%
G04 Gerber Fmt 4.6, Leading zero omitted, Abs format (unit mm)*
G04 Created by KiCad (PCBNEW (5.1.4)-1) date 2022-12-19 12:48:46*
%MOMM*%
%LPD*%
G04 APERTURE LIST*
%ADD10R,0.200000X0.700000*%
G04 APERTURE END LIST*
D10*
%TO.C,J\002A\002A*%
X6800000Y1540000D03*
X6800000Y-1540000D03*
X6400000Y1540000D03*
X6400000Y-1540000D03*
X6000000Y1540000D03*
X6000000Y-1540000D03*
X5600000Y1540000D03*
X5600000Y-1540000D03*
X5200000Y1540000D03*
X5200000Y-1540000D03*
X4800000Y1540000D03*
X4800000Y-1540000D03*
X4400000Y1540000D03*
X4400000Y-1540000D03*
X4000000Y1540000D03*
X4000000Y-1540000D03*
X3600000Y1540000D03*
X3600000Y-1540000D03*
X3200000Y1540000D03*
X3200000Y-1540000D03*
X2800000Y1540000D03*
X2800000Y-1540000D03*
X2400000Y1540000D03*
X2400000Y-1540000D03*
X2000000Y1540000D03*
X2000000Y-1540000D03*
X1600000Y1540000D03*
X1600000Y-1540000D03*
X1200000Y1540000D03*
X1200000Y-1540000D03*
X800000Y1540000D03*
X800000Y-1540000D03*
X400000Y1540000D03*
X400000Y-1540000D03*
X0Y1540000D03*
X0Y-1540000D03*
X-400000Y1540000D03*
X-400000Y-1540000D03*
X-800000Y1540000D03*
X-800000Y-1540000D03*
X-1200000Y1540000D03*
X-1200000Y-1540000D03*
X-1600000Y1540000D03*
X-1600000Y-1540000D03*
X-2000000Y1540000D03*
X-2000000Y-1540000D03*
X-2400000Y1540000D03*
X-2400000Y-1540000D03*
X-2800000Y1540000D03*
X-2800000Y-1540000D03*
X-3200000Y1540000D03*
X-3200000Y-1540000D03*
X-3600000Y1540000D03*
X-3600000Y-1540000D03*
X-4000000Y1540000D03*
X-4000000Y-1540000D03*
X-4400000Y1540000D03*
X-4400000Y-1540000D03*
X-4800000Y1540000D03*
X-4800000Y-1540000D03*
X-5200000Y1540000D03*
X-5200000Y-1540000D03*
X-5600000Y1540000D03*
X-5600000Y-1540000D03*
X-6000000Y1540000D03*
X-6000000Y-1540000D03*
X-6400000Y1540000D03*
X-6400000Y-1540000D03*
X-6800000Y1540000D03*
X-6800000Y-1540000D03*
%TD*%
M02*
