%TF.GenerationSoftware,KiCad,Pcbnew,(5.1.4)-1*%
%TF.CreationDate,2022-12-19T12:48:46+00:00*%
%TF.ProjectId,12X18_CAP,31325831-385f-4434-9150-2e6b69636164,rev?*%
%TF.SameCoordinates,Original*%
%TF.FileFunction,Legend,Top*%
%TF.FilePolarity,Positive*%
%FSLAX46Y46*%
G04 Gerber Fmt 4.6, Leading zero omitted, Abs format (unit mm)*
G04 Created by KiCad (PCBNEW (5.1.4)-1) date 2022-12-19 12:48:46*
%MOMM*%
%LPD*%
G04 APERTURE LIST*
%ADD10C,0.150000*%
%ADD11C,0.200000*%
%ADD12C,0.254000*%
G04 APERTURE END LIST*
D10*
X-5797619Y-2452380D02*
X-5464285Y-3452380D01*
X-5130952Y-2452380D01*
X-4273809Y-3452380D02*
X-4845238Y-3452380D01*
X-4559523Y-3452380D02*
X-4559523Y-2452380D01*
X-4654761Y-2595238D01*
X-4750000Y-2690476D01*
X-4845238Y-2738095D01*
X-3845238Y-3357142D02*
X-3797619Y-3404761D01*
X-3845238Y-3452380D01*
X-3892857Y-3404761D01*
X-3845238Y-3357142D01*
X-3845238Y-3452380D01*
X-3178571Y-2452380D02*
X-3083333Y-2452380D01*
X-2988095Y-2500000D01*
X-2940476Y-2547619D01*
X-2892857Y-2642857D01*
X-2845238Y-2833333D01*
X-2845238Y-3071428D01*
X-2892857Y-3261904D01*
X-2940476Y-3357142D01*
X-2988095Y-3404761D01*
X-3083333Y-3452380D01*
X-3178571Y-3452380D01*
X-3273809Y-3404761D01*
X-3321428Y-3357142D01*
X-3369047Y-3261904D01*
X-3416666Y-3071428D01*
X-3416666Y-2833333D01*
X-3369047Y-2642857D01*
X-3321428Y-2547619D01*
X-3273809Y-2500000D01*
X-3178571Y-2452380D01*
X-1654761Y-3452380D02*
X-1654761Y-2452380D01*
X-1416666Y-2452380D01*
X-1273809Y-2500000D01*
X-1178571Y-2595238D01*
X-1130952Y-2690476D01*
X-1083333Y-2880952D01*
X-1083333Y-3023809D01*
X-1130952Y-3214285D01*
X-1178571Y-3309523D01*
X-1273809Y-3404761D01*
X-1416666Y-3452380D01*
X-1654761Y-3452380D01*
X-273809Y-3404761D02*
X-369047Y-3452380D01*
X-559523Y-3452380D01*
X-654761Y-3404761D01*
X-702380Y-3309523D01*
X-702380Y-2928571D01*
X-654761Y-2833333D01*
X-559523Y-2785714D01*
X-369047Y-2785714D01*
X-273809Y-2833333D01*
X-226190Y-2928571D01*
X-226190Y-3023809D01*
X-702380Y-3119047D01*
X630952Y-3404761D02*
X535714Y-3452380D01*
X345238Y-3452380D01*
X250000Y-3404761D01*
X202380Y-3357142D01*
X154761Y-3261904D01*
X154761Y-2976190D01*
X202380Y-2880952D01*
X250000Y-2833333D01*
X345238Y-2785714D01*
X535714Y-2785714D01*
X630952Y-2833333D01*
X1773809Y-2547619D02*
X1821428Y-2500000D01*
X1916666Y-2452380D01*
X2154761Y-2452380D01*
X2250000Y-2500000D01*
X2297619Y-2547619D01*
X2345238Y-2642857D01*
X2345238Y-2738095D01*
X2297619Y-2880952D01*
X1726190Y-3452380D01*
X2345238Y-3452380D01*
X2964285Y-2452380D02*
X3059523Y-2452380D01*
X3154761Y-2500000D01*
X3202380Y-2547619D01*
X3250000Y-2642857D01*
X3297619Y-2833333D01*
X3297619Y-3071428D01*
X3250000Y-3261904D01*
X3202380Y-3357142D01*
X3154761Y-3404761D01*
X3059523Y-3452380D01*
X2964285Y-3452380D01*
X2869047Y-3404761D01*
X2821428Y-3357142D01*
X2773809Y-3261904D01*
X2726190Y-3071428D01*
X2726190Y-2833333D01*
X2773809Y-2642857D01*
X2821428Y-2547619D01*
X2869047Y-2500000D01*
X2964285Y-2452380D01*
X3678571Y-2547619D02*
X3726190Y-2500000D01*
X3821428Y-2452380D01*
X4059523Y-2452380D01*
X4154761Y-2500000D01*
X4202380Y-2547619D01*
X4249999Y-2642857D01*
X4249999Y-2738095D01*
X4202380Y-2880952D01*
X3630952Y-3452380D01*
X4249999Y-3452380D01*
X4630952Y-2547619D02*
X4678571Y-2500000D01*
X4773809Y-2452380D01*
X5011904Y-2452380D01*
X5107142Y-2500000D01*
X5154761Y-2547619D01*
X5202380Y-2642857D01*
X5202380Y-2738095D01*
X5154761Y-2880952D01*
X4583333Y-3452380D01*
X5202380Y-3452380D01*
X-7988095Y2547619D02*
X-7988095Y3547619D01*
X-7750000Y3547619D01*
X-7607142Y3500000D01*
X-7511904Y3404761D01*
X-7464285Y3309523D01*
X-7416666Y3119047D01*
X-7416666Y2976190D01*
X-7464285Y2785714D01*
X-7511904Y2690476D01*
X-7607142Y2595238D01*
X-7750000Y2547619D01*
X-7988095Y2547619D01*
X-7130952Y3547619D02*
X-6559523Y3547619D01*
X-6845238Y2547619D02*
X-6845238Y3547619D01*
X-6464285Y2452380D02*
X-5702380Y2452380D01*
X-5464285Y3071428D02*
X-5130952Y3071428D01*
X-4988095Y2547619D02*
X-5464285Y2547619D01*
X-5464285Y3547619D01*
X-4988095Y3547619D01*
X-4559523Y2547619D02*
X-4559523Y3547619D01*
X-3750000Y3071428D02*
X-3607142Y3023809D01*
X-3559523Y2976190D01*
X-3511904Y2880952D01*
X-3511904Y2738095D01*
X-3559523Y2642857D01*
X-3607142Y2595238D01*
X-3702380Y2547619D01*
X-4083333Y2547619D01*
X-4083333Y3547619D01*
X-3750000Y3547619D01*
X-3654761Y3500000D01*
X-3607142Y3452380D01*
X-3559523Y3357142D01*
X-3559523Y3261904D01*
X-3607142Y3166666D01*
X-3654761Y3119047D01*
X-3750000Y3071428D01*
X-4083333Y3071428D01*
X-2559523Y2547619D02*
X-3130952Y2547619D01*
X-2845238Y2547619D02*
X-2845238Y3547619D01*
X-2940476Y3404761D01*
X-3035714Y3309523D01*
X-3130952Y3261904D01*
X-1702380Y3547619D02*
X-1892857Y3547619D01*
X-1988095Y3500000D01*
X-2035714Y3452380D01*
X-2130952Y3309523D01*
X-2178571Y3119047D01*
X-2178571Y2738095D01*
X-2130952Y2642857D01*
X-2083333Y2595238D01*
X-1988095Y2547619D01*
X-1797619Y2547619D01*
X-1702380Y2595238D01*
X-1654761Y2642857D01*
X-1607142Y2738095D01*
X-1607142Y2976190D01*
X-1654761Y3071428D01*
X-1702380Y3119047D01*
X-1797619Y3166666D01*
X-1988095Y3166666D01*
X-2083333Y3119047D01*
X-2130952Y3071428D01*
X-2178571Y2976190D01*
X-1416666Y2452380D02*
X-654761Y2452380D01*
X154761Y2642857D02*
X107142Y2595238D01*
X-35714Y2547619D01*
X-130952Y2547619D01*
X-273809Y2595238D01*
X-369047Y2690476D01*
X-416666Y2785714D01*
X-464285Y2976190D01*
X-464285Y3119047D01*
X-416666Y3309523D01*
X-369047Y3404761D01*
X-273809Y3500000D01*
X-130952Y3547619D01*
X-35714Y3547619D01*
X107142Y3500000D01*
X154761Y3452380D01*
X535714Y2833333D02*
X1011904Y2833333D01*
X440476Y2547619D02*
X773809Y3547619D01*
X1107142Y2547619D01*
X1440476Y2547619D02*
X1440476Y3547619D01*
X1821428Y3547619D01*
X1916666Y3500000D01*
X1964285Y3452380D01*
X2011904Y3357142D01*
X2011904Y3214285D01*
X1964285Y3119047D01*
X1916666Y3071428D01*
X1821428Y3023809D01*
X1440476Y3023809D01*
X2202380Y2452380D02*
X2964285Y2452380D01*
X3726190Y2547619D02*
X3154761Y2547619D01*
X3440476Y2547619D02*
X3440476Y3547619D01*
X3345238Y3404761D01*
X3249999Y3309523D01*
X3154761Y3261904D01*
X4107142Y3452380D02*
X4154761Y3500000D01*
X4249999Y3547619D01*
X4488095Y3547619D01*
X4583333Y3500000D01*
X4630952Y3452380D01*
X4678571Y3357142D01*
X4678571Y3261904D01*
X4630952Y3119047D01*
X4059523Y2547619D01*
X4678571Y2547619D01*
X5011904Y3547619D02*
X5678571Y2547619D01*
X5678571Y3547619D02*
X5011904Y2547619D01*
X6583333Y2547619D02*
X6011904Y2547619D01*
X6297619Y2547619D02*
X6297619Y3547619D01*
X6202380Y3404761D01*
X6107142Y3309523D01*
X6011904Y3261904D01*
X7154761Y3119047D02*
X7059523Y3166666D01*
X7011904Y3214285D01*
X6964285Y3309523D01*
X6964285Y3357142D01*
X7011904Y3452380D01*
X7059523Y3500000D01*
X7154761Y3547619D01*
X7345238Y3547619D01*
X7440476Y3500000D01*
X7488095Y3452380D01*
X7535714Y3357142D01*
X7535714Y3309523D01*
X7488095Y3214285D01*
X7440476Y3166666D01*
X7345238Y3119047D01*
X7154761Y3119047D01*
X7059523Y3071428D01*
X7011904Y3023809D01*
X6964285Y2928571D01*
X6964285Y2738095D01*
X7011904Y2642857D01*
X7059523Y2595238D01*
X7154761Y2547619D01*
X7345238Y2547619D01*
X7440476Y2595238D01*
X7488095Y2642857D01*
X7535714Y2738095D01*
X7535714Y2928571D01*
X7488095Y3023809D01*
X7440476Y3071428D01*
X7345238Y3119047D01*
D11*
%TO.C,J\002A\002A*%
X7200000Y1470000D02*
X8300000Y1470000D01*
X8300000Y1470000D02*
X8300000Y-1470000D01*
X8300000Y-1470000D02*
X7200000Y-1470000D01*
X-7200000Y1470000D02*
X-8300000Y1470000D01*
X-8300000Y1470000D02*
X-8300000Y-1470000D01*
X-8300000Y-1470000D02*
X-7200000Y-1470000D01*
D12*
X-786190Y695476D02*
X-786190Y-211666D01*
X-846666Y-393095D01*
X-967619Y-514047D01*
X-1149047Y-574523D01*
X-1270000Y-574523D01*
X0Y695476D02*
X0Y393095D01*
X-302380Y514047D02*
X0Y393095D01*
X302380Y514047D01*
X-181428Y151190D02*
X0Y393095D01*
X181428Y151190D01*
X967619Y695476D02*
X967619Y393095D01*
X665238Y514047D02*
X967619Y393095D01*
X1270000Y514047D01*
X786190Y151190D02*
X967619Y393095D01*
X1149047Y151190D01*
%TD*%
M02*
