G04 #@! TF.GenerationSoftware,KiCad,Pcbnew,(5.1.4)-1*
G04 #@! TF.CreationDate,2022-11-30T15:04:29+00:00*
G04 #@! TF.ProjectId,PIR_Board,5049525f-426f-4617-9264-2e6b69636164,rev?*
G04 #@! TF.SameCoordinates,Original*
G04 #@! TF.FileFunction,Legend,Top*
G04 #@! TF.FilePolarity,Positive*
%FSLAX46Y46*%
G04 Gerber Fmt 4.6, Leading zero omitted, Abs format (unit mm)*
G04 Created by KiCad (PCBNEW (5.1.4)-1) date 2022-11-30 15:04:29*
%MOMM*%
%LPD*%
G04 APERTURE LIST*
%ADD10C,0.200000*%
%ADD11C,0.100000*%
%ADD12C,0.120000*%
%ADD13C,0.254000*%
%ADD14C,0.150000*%
G04 APERTURE END LIST*
D10*
X66857000Y-81307000D02*
G75*
G03X66857000Y-81507000I0J-100000D01*
G01*
X66857000Y-81507000D02*
G75*
G03X66857000Y-81307000I0J100000D01*
G01*
D11*
X67053000Y-83203000D02*
G75*
G03X78053000Y-83203000I5500000J0D01*
G01*
X78053000Y-83203000D02*
G75*
G03X67053000Y-83203000I-5500000J0D01*
G01*
D10*
X66857000Y-81507000D02*
X66857000Y-81507000D01*
X66857000Y-81307000D02*
X66857000Y-81307000D01*
D11*
X78053000Y-83203000D02*
X78053000Y-83203000D01*
X67053000Y-83203000D02*
X67053000Y-83203000D01*
X64785000Y-54667500D02*
X64785000Y-60667500D01*
X80025000Y-54667500D02*
X64785000Y-54667500D01*
X80025000Y-60667500D02*
X80025000Y-54667500D01*
X64785000Y-72667500D02*
X64785000Y-64167500D01*
X80025000Y-72667500D02*
X64785000Y-72667500D01*
X80025000Y-64167500D02*
X80025000Y-72667500D01*
D12*
X80264000Y-77346500D02*
X81594000Y-77346500D01*
X81594000Y-77346500D02*
X81594000Y-78676500D01*
X81594000Y-79946500D02*
X81594000Y-82546500D01*
X78934000Y-82546500D02*
X81594000Y-82546500D01*
X78934000Y-79946500D02*
X78934000Y-82546500D01*
X78934000Y-79946500D02*
X81594000Y-79946500D01*
D13*
X63679647Y-83114194D02*
X64107278Y-82686563D01*
X63850699Y-83456299D02*
X63252015Y-82258932D01*
X64449383Y-82857615D01*
X64748725Y-82558274D02*
X63850699Y-81660248D01*
X64791488Y-82002353D01*
X64449383Y-81061564D01*
X65347409Y-81959590D01*
X65775040Y-81531959D02*
X64877014Y-80633933D01*
X66288197Y-81018801D01*
X65390172Y-80120775D01*
X65732277Y-79778670D02*
X66288197Y-79222750D01*
X66330960Y-79864197D01*
X66459250Y-79735907D01*
X66587539Y-79693144D01*
X66673065Y-79693144D01*
X66801355Y-79735907D01*
X67015170Y-79949723D01*
X67057934Y-80078012D01*
X67057934Y-80163539D01*
X67015170Y-80291828D01*
X66758592Y-80548407D01*
X66630302Y-80591170D01*
X66544776Y-80591170D01*
X66715829Y-78966171D02*
X66715829Y-78880645D01*
X66758592Y-78752355D01*
X66972407Y-78538540D01*
X67100697Y-78495777D01*
X67186223Y-78495777D01*
X67314512Y-78538540D01*
X67400039Y-78624066D01*
X67485565Y-78795119D01*
X67485565Y-79821434D01*
X68041485Y-79265513D01*
X68896748Y-78410250D02*
X68383590Y-78923408D01*
X68640169Y-78666829D02*
X67742144Y-77768804D01*
X67784907Y-77982619D01*
X67784907Y-78153672D01*
X67742144Y-78281961D01*
X69752010Y-77554988D02*
X69238853Y-78068145D01*
X69495432Y-77811567D02*
X68597406Y-76913541D01*
X68640169Y-77127357D01*
X68640169Y-77298409D01*
X68597406Y-77426699D01*
X70607273Y-76699725D02*
X70094115Y-77212883D01*
X70350694Y-76956304D02*
X69452669Y-76058279D01*
X69495432Y-76272094D01*
X69495432Y-76443147D01*
X69452669Y-76571436D01*
X71981666Y-62972023D02*
X71981666Y-63879166D01*
X71921190Y-64060595D01*
X71800238Y-64181547D01*
X71618809Y-64242023D01*
X71497857Y-64242023D01*
X73251666Y-64242023D02*
X72525952Y-64242023D01*
X72888809Y-64242023D02*
X72888809Y-62972023D01*
X72767857Y-63153452D01*
X72646904Y-63274404D01*
X72525952Y-63334880D01*
D14*
X62547690Y-85351880D02*
X62547690Y-84351880D01*
X62881023Y-85066166D01*
X63214357Y-84351880D01*
X63214357Y-85351880D01*
X63642928Y-84447119D02*
X63690547Y-84399500D01*
X63785785Y-84351880D01*
X64023880Y-84351880D01*
X64119119Y-84399500D01*
X64166738Y-84447119D01*
X64214357Y-84542357D01*
X64214357Y-84637595D01*
X64166738Y-84780452D01*
X63595309Y-85351880D01*
X64214357Y-85351880D01*
X64642928Y-85256642D02*
X64690547Y-85304261D01*
X64642928Y-85351880D01*
X64595309Y-85304261D01*
X64642928Y-85256642D01*
X64642928Y-85351880D01*
X65595309Y-84351880D02*
X65119119Y-84351880D01*
X65071500Y-84828071D01*
X65119119Y-84780452D01*
X65214357Y-84732833D01*
X65452452Y-84732833D01*
X65547690Y-84780452D01*
X65595309Y-84828071D01*
X65642928Y-84923309D01*
X65642928Y-85161404D01*
X65595309Y-85256642D01*
X65547690Y-85304261D01*
X65452452Y-85351880D01*
X65214357Y-85351880D01*
X65119119Y-85304261D01*
X65071500Y-85256642D01*
X78041690Y-85415380D02*
X78041690Y-84415380D01*
X78375023Y-85129666D01*
X78708357Y-84415380D01*
X78708357Y-85415380D01*
X79136928Y-84510619D02*
X79184547Y-84463000D01*
X79279785Y-84415380D01*
X79517880Y-84415380D01*
X79613119Y-84463000D01*
X79660738Y-84510619D01*
X79708357Y-84605857D01*
X79708357Y-84701095D01*
X79660738Y-84843952D01*
X79089309Y-85415380D01*
X79708357Y-85415380D01*
X80136928Y-85320142D02*
X80184547Y-85367761D01*
X80136928Y-85415380D01*
X80089309Y-85367761D01*
X80136928Y-85320142D01*
X80136928Y-85415380D01*
X81089309Y-84415380D02*
X80613119Y-84415380D01*
X80565500Y-84891571D01*
X80613119Y-84843952D01*
X80708357Y-84796333D01*
X80946452Y-84796333D01*
X81041690Y-84843952D01*
X81089309Y-84891571D01*
X81136928Y-84986809D01*
X81136928Y-85224904D01*
X81089309Y-85320142D01*
X81041690Y-85367761D01*
X80946452Y-85415380D01*
X80708357Y-85415380D01*
X80613119Y-85367761D01*
X80565500Y-85320142D01*
X78684380Y-80890976D02*
X78684380Y-81367166D01*
X77684380Y-81367166D01*
X78684380Y-80557642D02*
X77684380Y-80557642D01*
X77684380Y-80319547D01*
X77732000Y-80176690D01*
X77827238Y-80081452D01*
X77922476Y-80033833D01*
X78112952Y-79986214D01*
X78255809Y-79986214D01*
X78446285Y-80033833D01*
X78541523Y-80081452D01*
X78636761Y-80176690D01*
X78684380Y-80319547D01*
X78684380Y-80557642D01*
X78684380Y-78986214D02*
X78208190Y-79319547D01*
X78684380Y-79557642D02*
X77684380Y-79557642D01*
X77684380Y-79176690D01*
X77732000Y-79081452D01*
X77779619Y-79033833D01*
X77874857Y-78986214D01*
X78017714Y-78986214D01*
X78112952Y-79033833D01*
X78160571Y-79081452D01*
X78208190Y-79176690D01*
X78208190Y-79557642D01*
M02*
