G04 #@! TF.GenerationSoftware,KiCad,Pcbnew,(5.1.4)-1*
G04 #@! TF.CreationDate,2022-11-30T15:04:29+00:00*
G04 #@! TF.ProjectId,PIR_Board,5049525f-426f-4617-9264-2e6b69636164,rev?*
G04 #@! TF.SameCoordinates,Original*
G04 #@! TF.FileFunction,Copper,L1,Top*
G04 #@! TF.FilePolarity,Positive*
%FSLAX46Y46*%
G04 Gerber Fmt 4.6, Leading zero omitted, Abs format (unit mm)*
G04 Created by KiCad (PCBNEW (5.1.4)-1) date 2022-11-30 15:04:29*
%MOMM*%
%LPD*%
G04 APERTURE LIST*
%ADD10C,1.200000*%
%ADD11C,1.303000*%
%ADD12O,1.700000X1.700000*%
%ADD13R,1.700000X1.700000*%
%ADD14C,0.250000*%
%ADD15C,0.254000*%
G04 APERTURE END LIST*
D10*
X74349000Y-84999000D03*
X70757000Y-84999000D03*
X70757000Y-81407000D03*
D11*
X67960000Y-71437500D03*
X69230000Y-68897500D03*
X70500000Y-71437500D03*
X71770000Y-68897500D03*
X73040000Y-71437500D03*
X74310000Y-68897500D03*
X75580000Y-71437500D03*
X76850000Y-68897500D03*
D12*
X63500000Y-74930000D03*
X66040000Y-74930000D03*
X68580000Y-74930000D03*
X71120000Y-74930000D03*
X73660000Y-74930000D03*
X76200000Y-74930000D03*
X78740000Y-74930000D03*
D13*
X81280000Y-74930000D03*
D12*
X80264000Y-81216500D03*
D13*
X80264000Y-78676500D03*
D14*
X66992500Y-71437500D02*
X67960000Y-71437500D01*
X63500000Y-74930000D02*
X66992500Y-71437500D01*
X68834000Y-74930000D02*
X68580000Y-75184000D01*
X68580000Y-73357500D02*
X68580000Y-74930000D01*
X70500000Y-71437500D02*
X68580000Y-73357500D01*
X68580000Y-79230000D02*
X70757000Y-81407000D01*
X68580000Y-74930000D02*
X68580000Y-79230000D01*
X73487500Y-78676500D02*
X70757000Y-81407000D01*
X80264000Y-78676500D02*
X73487500Y-78676500D01*
X71120000Y-73981919D02*
X71120000Y-75184000D01*
X74310000Y-73040000D02*
X76200000Y-74930000D01*
X74310000Y-68897500D02*
X74310000Y-73040000D01*
X77978000Y-75184000D02*
X78740000Y-75184000D01*
X81280000Y-74676000D02*
X81280000Y-75184000D01*
X81026000Y-74930000D02*
X81280000Y-75184000D01*
X69230000Y-71740000D02*
X69230000Y-71071500D01*
X66040000Y-74930000D02*
X69230000Y-71740000D01*
X69230000Y-68897500D02*
X69230000Y-71071500D01*
D15*
G36*
X81880001Y-73441928D02*
G01*
X80430000Y-73441928D01*
X80305518Y-73454188D01*
X80185820Y-73490498D01*
X80075506Y-73549463D01*
X79978815Y-73628815D01*
X79899463Y-73725506D01*
X79840498Y-73835820D01*
X79816034Y-73916466D01*
X79740269Y-73832412D01*
X79506920Y-73658359D01*
X79244099Y-73533175D01*
X79096890Y-73488524D01*
X78867000Y-73609845D01*
X78867000Y-74803000D01*
X78887000Y-74803000D01*
X78887000Y-75057000D01*
X78867000Y-75057000D01*
X78867000Y-76250155D01*
X79096890Y-76371476D01*
X79244099Y-76326825D01*
X79506920Y-76201641D01*
X79740269Y-76027588D01*
X79816034Y-75943534D01*
X79840498Y-76024180D01*
X79899463Y-76134494D01*
X79978815Y-76231185D01*
X80075506Y-76310537D01*
X80185820Y-76369502D01*
X80305518Y-76405812D01*
X80430000Y-76418072D01*
X81880001Y-76418072D01*
X81880001Y-89186787D01*
X62930000Y-89194714D01*
X62930000Y-86969344D01*
X63075500Y-86969344D01*
X63075500Y-87340656D01*
X63147939Y-87704834D01*
X63290034Y-88047882D01*
X63496325Y-88356618D01*
X63758882Y-88619175D01*
X64067618Y-88825466D01*
X64410666Y-88967561D01*
X64774844Y-89040000D01*
X65146156Y-89040000D01*
X65510334Y-88967561D01*
X65853382Y-88825466D01*
X66162118Y-88619175D01*
X66424675Y-88356618D01*
X66630966Y-88047882D01*
X66773061Y-87704834D01*
X66845500Y-87340656D01*
X66845500Y-86969344D01*
X66843810Y-86960844D01*
X77964500Y-86960844D01*
X77964500Y-87332156D01*
X78036939Y-87696334D01*
X78179034Y-88039382D01*
X78385325Y-88348118D01*
X78647882Y-88610675D01*
X78956618Y-88816966D01*
X79299666Y-88959061D01*
X79663844Y-89031500D01*
X80035156Y-89031500D01*
X80399334Y-88959061D01*
X80742382Y-88816966D01*
X81051118Y-88610675D01*
X81313675Y-88348118D01*
X81519966Y-88039382D01*
X81662061Y-87696334D01*
X81734500Y-87332156D01*
X81734500Y-86960844D01*
X81662061Y-86596666D01*
X81519966Y-86253618D01*
X81313675Y-85944882D01*
X81051118Y-85682325D01*
X80742382Y-85476034D01*
X80399334Y-85333939D01*
X80035156Y-85261500D01*
X79663844Y-85261500D01*
X79299666Y-85333939D01*
X78956618Y-85476034D01*
X78647882Y-85682325D01*
X78385325Y-85944882D01*
X78179034Y-86253618D01*
X78036939Y-86596666D01*
X77964500Y-86960844D01*
X66843810Y-86960844D01*
X66773061Y-86605166D01*
X66630966Y-86262118D01*
X66424675Y-85953382D01*
X66162118Y-85690825D01*
X65853382Y-85484534D01*
X65510334Y-85342439D01*
X65146156Y-85270000D01*
X64774844Y-85270000D01*
X64410666Y-85342439D01*
X64067618Y-85484534D01*
X63758882Y-85690825D01*
X63496325Y-85953382D01*
X63290034Y-86262118D01*
X63147939Y-86605166D01*
X63075500Y-86969344D01*
X62930000Y-86969344D01*
X62930000Y-84877363D01*
X69522000Y-84877363D01*
X69522000Y-85120637D01*
X69569460Y-85359236D01*
X69662557Y-85583992D01*
X69797713Y-85786267D01*
X69969733Y-85958287D01*
X70172008Y-86093443D01*
X70396764Y-86186540D01*
X70635363Y-86234000D01*
X70878637Y-86234000D01*
X71117236Y-86186540D01*
X71341992Y-86093443D01*
X71544267Y-85958287D01*
X71653790Y-85848764D01*
X73678841Y-85848764D01*
X73726148Y-86072348D01*
X73947516Y-86173237D01*
X74184313Y-86229000D01*
X74427438Y-86237495D01*
X74667549Y-86198395D01*
X74895418Y-86113202D01*
X74971852Y-86072348D01*
X75019159Y-85848764D01*
X74349000Y-85178605D01*
X73678841Y-85848764D01*
X71653790Y-85848764D01*
X71716287Y-85786267D01*
X71851443Y-85583992D01*
X71944540Y-85359236D01*
X71992000Y-85120637D01*
X71992000Y-85077438D01*
X73110505Y-85077438D01*
X73149605Y-85317549D01*
X73234798Y-85545418D01*
X73275652Y-85621852D01*
X73499236Y-85669159D01*
X74169395Y-84999000D01*
X74528605Y-84999000D01*
X75198764Y-85669159D01*
X75422348Y-85621852D01*
X75523237Y-85400484D01*
X75579000Y-85163687D01*
X75587495Y-84920562D01*
X75548395Y-84680451D01*
X75463202Y-84452582D01*
X75422348Y-84376148D01*
X75198764Y-84328841D01*
X74528605Y-84999000D01*
X74169395Y-84999000D01*
X73499236Y-84328841D01*
X73275652Y-84376148D01*
X73174763Y-84597516D01*
X73119000Y-84834313D01*
X73110505Y-85077438D01*
X71992000Y-85077438D01*
X71992000Y-84877363D01*
X71944540Y-84638764D01*
X71851443Y-84414008D01*
X71716287Y-84211733D01*
X71653790Y-84149236D01*
X73678841Y-84149236D01*
X74349000Y-84819395D01*
X75019159Y-84149236D01*
X74971852Y-83925652D01*
X74750484Y-83824763D01*
X74513687Y-83769000D01*
X74270562Y-83760505D01*
X74030451Y-83799605D01*
X73802582Y-83884798D01*
X73726148Y-83925652D01*
X73678841Y-84149236D01*
X71653790Y-84149236D01*
X71544267Y-84039713D01*
X71341992Y-83904557D01*
X71117236Y-83811460D01*
X70878637Y-83764000D01*
X70635363Y-83764000D01*
X70396764Y-83811460D01*
X70172008Y-83904557D01*
X69969733Y-84039713D01*
X69797713Y-84211733D01*
X69662557Y-84414008D01*
X69569460Y-84638764D01*
X69522000Y-84877363D01*
X62930000Y-84877363D01*
X62930000Y-76308913D01*
X63208889Y-76393513D01*
X63427050Y-76415000D01*
X63572950Y-76415000D01*
X63791111Y-76393513D01*
X64071034Y-76308599D01*
X64329014Y-76170706D01*
X64555134Y-75985134D01*
X64740706Y-75759014D01*
X64770000Y-75704209D01*
X64799294Y-75759014D01*
X64984866Y-75985134D01*
X65210986Y-76170706D01*
X65468966Y-76308599D01*
X65748889Y-76393513D01*
X65967050Y-76415000D01*
X66112950Y-76415000D01*
X66331111Y-76393513D01*
X66611034Y-76308599D01*
X66869014Y-76170706D01*
X67095134Y-75985134D01*
X67280706Y-75759014D01*
X67310000Y-75704209D01*
X67339294Y-75759014D01*
X67524866Y-75985134D01*
X67750986Y-76170706D01*
X67820000Y-76207595D01*
X67820001Y-79192668D01*
X67816324Y-79230000D01*
X67820001Y-79267333D01*
X67830998Y-79378986D01*
X67844180Y-79422442D01*
X67874454Y-79522246D01*
X67945026Y-79654276D01*
X68008403Y-79731500D01*
X68040000Y-79770001D01*
X68068998Y-79793799D01*
X69528398Y-81253199D01*
X69522000Y-81285363D01*
X69522000Y-81528637D01*
X69569460Y-81767236D01*
X69662557Y-81991992D01*
X69797713Y-82194267D01*
X69969733Y-82366287D01*
X70172008Y-82501443D01*
X70396764Y-82594540D01*
X70635363Y-82642000D01*
X70878637Y-82642000D01*
X71117236Y-82594540D01*
X71341992Y-82501443D01*
X71544267Y-82366287D01*
X71716287Y-82194267D01*
X71851443Y-81991992D01*
X71944540Y-81767236D01*
X71992000Y-81528637D01*
X71992000Y-81285363D01*
X71985602Y-81253199D01*
X73802302Y-79436500D01*
X78775928Y-79436500D01*
X78775928Y-79526500D01*
X78788188Y-79650982D01*
X78824498Y-79770680D01*
X78883463Y-79880994D01*
X78962815Y-79977685D01*
X79059506Y-80057037D01*
X79169820Y-80116002D01*
X79238687Y-80136893D01*
X79208866Y-80161366D01*
X79023294Y-80387486D01*
X78885401Y-80645466D01*
X78800487Y-80925389D01*
X78771815Y-81216500D01*
X78800487Y-81507611D01*
X78885401Y-81787534D01*
X79023294Y-82045514D01*
X79208866Y-82271634D01*
X79434986Y-82457206D01*
X79692966Y-82595099D01*
X79972889Y-82680013D01*
X80191050Y-82701500D01*
X80336950Y-82701500D01*
X80555111Y-82680013D01*
X80835034Y-82595099D01*
X81093014Y-82457206D01*
X81319134Y-82271634D01*
X81504706Y-82045514D01*
X81642599Y-81787534D01*
X81727513Y-81507611D01*
X81756185Y-81216500D01*
X81727513Y-80925389D01*
X81642599Y-80645466D01*
X81504706Y-80387486D01*
X81319134Y-80161366D01*
X81289313Y-80136893D01*
X81358180Y-80116002D01*
X81468494Y-80057037D01*
X81565185Y-79977685D01*
X81644537Y-79880994D01*
X81703502Y-79770680D01*
X81739812Y-79650982D01*
X81752072Y-79526500D01*
X81752072Y-77826500D01*
X81739812Y-77702018D01*
X81703502Y-77582320D01*
X81644537Y-77472006D01*
X81565185Y-77375315D01*
X81468494Y-77295963D01*
X81358180Y-77236998D01*
X81238482Y-77200688D01*
X81114000Y-77188428D01*
X79414000Y-77188428D01*
X79289518Y-77200688D01*
X79169820Y-77236998D01*
X79059506Y-77295963D01*
X78962815Y-77375315D01*
X78883463Y-77472006D01*
X78824498Y-77582320D01*
X78788188Y-77702018D01*
X78775928Y-77826500D01*
X78775928Y-77916500D01*
X73524822Y-77916500D01*
X73487499Y-77912824D01*
X73450176Y-77916500D01*
X73450167Y-77916500D01*
X73338514Y-77927497D01*
X73195253Y-77970954D01*
X73063223Y-78041526D01*
X72979583Y-78110168D01*
X72947499Y-78136499D01*
X72923701Y-78165497D01*
X70910801Y-80178398D01*
X70878637Y-80172000D01*
X70635363Y-80172000D01*
X70603199Y-80178398D01*
X69340000Y-78915199D01*
X69340000Y-76207595D01*
X69409014Y-76170706D01*
X69635134Y-75985134D01*
X69820706Y-75759014D01*
X69850000Y-75704209D01*
X69879294Y-75759014D01*
X70064866Y-75985134D01*
X70290986Y-76170706D01*
X70548966Y-76308599D01*
X70828889Y-76393513D01*
X71047050Y-76415000D01*
X71192950Y-76415000D01*
X71411111Y-76393513D01*
X71691034Y-76308599D01*
X71949014Y-76170706D01*
X72175134Y-75985134D01*
X72360706Y-75759014D01*
X72390000Y-75704209D01*
X72419294Y-75759014D01*
X72604866Y-75985134D01*
X72830986Y-76170706D01*
X73088966Y-76308599D01*
X73368889Y-76393513D01*
X73587050Y-76415000D01*
X73732950Y-76415000D01*
X73951111Y-76393513D01*
X74231034Y-76308599D01*
X74489014Y-76170706D01*
X74715134Y-75985134D01*
X74900706Y-75759014D01*
X74930000Y-75704209D01*
X74959294Y-75759014D01*
X75144866Y-75985134D01*
X75370986Y-76170706D01*
X75628966Y-76308599D01*
X75908889Y-76393513D01*
X76127050Y-76415000D01*
X76272950Y-76415000D01*
X76491111Y-76393513D01*
X76771034Y-76308599D01*
X77029014Y-76170706D01*
X77255134Y-75985134D01*
X77440706Y-75759014D01*
X77475201Y-75694477D01*
X77544822Y-75811355D01*
X77739731Y-76027588D01*
X77973080Y-76201641D01*
X78235901Y-76326825D01*
X78383110Y-76371476D01*
X78613000Y-76250155D01*
X78613000Y-75057000D01*
X78593000Y-75057000D01*
X78593000Y-74803000D01*
X78613000Y-74803000D01*
X78613000Y-73609845D01*
X78383110Y-73488524D01*
X78235901Y-73533175D01*
X77973080Y-73658359D01*
X77739731Y-73832412D01*
X77544822Y-74048645D01*
X77475201Y-74165523D01*
X77440706Y-74100986D01*
X77255134Y-73874866D01*
X77029014Y-73689294D01*
X76771034Y-73551401D01*
X76491111Y-73466487D01*
X76272950Y-73445000D01*
X76127050Y-73445000D01*
X75908889Y-73466487D01*
X75834005Y-73489203D01*
X75070000Y-72725199D01*
X75070000Y-72619006D01*
X75156740Y-72658970D01*
X75403170Y-72718074D01*
X75656396Y-72727966D01*
X75906685Y-72688265D01*
X76144420Y-72600499D01*
X76233424Y-72552926D01*
X76286994Y-72324099D01*
X75580000Y-71617105D01*
X75565858Y-71631248D01*
X75386253Y-71451643D01*
X75400395Y-71437500D01*
X75759605Y-71437500D01*
X76466599Y-72144494D01*
X76695426Y-72090924D01*
X76801470Y-71860760D01*
X76860574Y-71614330D01*
X76870466Y-71361104D01*
X76830765Y-71110815D01*
X76742999Y-70873080D01*
X76695426Y-70784076D01*
X76466599Y-70730506D01*
X75759605Y-71437500D01*
X75400395Y-71437500D01*
X75386253Y-71423358D01*
X75565858Y-71243753D01*
X75580000Y-71257895D01*
X76286994Y-70550901D01*
X76233424Y-70322074D01*
X76003260Y-70216030D01*
X75756830Y-70156926D01*
X75503604Y-70147034D01*
X75253315Y-70186735D01*
X75070000Y-70254410D01*
X75070000Y-69936945D01*
X75130096Y-69896790D01*
X75309290Y-69717596D01*
X75450082Y-69506886D01*
X75547061Y-69272758D01*
X75580000Y-69107161D01*
X75612939Y-69272758D01*
X75709918Y-69506886D01*
X75850710Y-69717596D01*
X76029904Y-69896790D01*
X76240614Y-70037582D01*
X76474742Y-70134561D01*
X76723291Y-70184000D01*
X76976709Y-70184000D01*
X77225258Y-70134561D01*
X77459386Y-70037582D01*
X77670096Y-69896790D01*
X77849290Y-69717596D01*
X77990082Y-69506886D01*
X78087061Y-69272758D01*
X78136500Y-69024209D01*
X78136500Y-68770791D01*
X78087061Y-68522242D01*
X77990082Y-68288114D01*
X77849290Y-68077404D01*
X77670096Y-67898210D01*
X77459386Y-67757418D01*
X77225258Y-67660439D01*
X76976709Y-67611000D01*
X76723291Y-67611000D01*
X76474742Y-67660439D01*
X76240614Y-67757418D01*
X76029904Y-67898210D01*
X75850710Y-68077404D01*
X75709918Y-68288114D01*
X75612939Y-68522242D01*
X75580000Y-68687839D01*
X75547061Y-68522242D01*
X75450082Y-68288114D01*
X75309290Y-68077404D01*
X75130096Y-67898210D01*
X74919386Y-67757418D01*
X74685258Y-67660439D01*
X74436709Y-67611000D01*
X74183291Y-67611000D01*
X73934742Y-67660439D01*
X73700614Y-67757418D01*
X73489904Y-67898210D01*
X73310710Y-68077404D01*
X73169918Y-68288114D01*
X73072939Y-68522242D01*
X73040000Y-68687839D01*
X73007061Y-68522242D01*
X72910082Y-68288114D01*
X72769290Y-68077404D01*
X72590096Y-67898210D01*
X72379386Y-67757418D01*
X72145258Y-67660439D01*
X71896709Y-67611000D01*
X71643291Y-67611000D01*
X71394742Y-67660439D01*
X71160614Y-67757418D01*
X70949904Y-67898210D01*
X70770710Y-68077404D01*
X70629918Y-68288114D01*
X70532939Y-68522242D01*
X70500000Y-68687839D01*
X70467061Y-68522242D01*
X70370082Y-68288114D01*
X70229290Y-68077404D01*
X70050096Y-67898210D01*
X69839386Y-67757418D01*
X69605258Y-67660439D01*
X69356709Y-67611000D01*
X69103291Y-67611000D01*
X68854742Y-67660439D01*
X68620614Y-67757418D01*
X68409904Y-67898210D01*
X68230710Y-68077404D01*
X68089918Y-68288114D01*
X67992939Y-68522242D01*
X67943500Y-68770791D01*
X67943500Y-69024209D01*
X67992939Y-69272758D01*
X68089918Y-69506886D01*
X68230710Y-69717596D01*
X68409904Y-69896790D01*
X68470000Y-69936945D01*
X68470001Y-70256251D01*
X68335258Y-70200439D01*
X68086709Y-70151000D01*
X67833291Y-70151000D01*
X67584742Y-70200439D01*
X67350614Y-70297418D01*
X67139904Y-70438210D01*
X66960710Y-70617404D01*
X66918117Y-70681149D01*
X66843514Y-70688497D01*
X66700253Y-70731954D01*
X66568224Y-70802526D01*
X66452499Y-70897499D01*
X66428701Y-70926497D01*
X63865996Y-73489203D01*
X63791111Y-73466487D01*
X63572950Y-73445000D01*
X63427050Y-73445000D01*
X63208889Y-73466487D01*
X62930000Y-73551087D01*
X62930000Y-62319985D01*
X64379000Y-62319985D01*
X64379000Y-62775015D01*
X64467772Y-63221302D01*
X64641905Y-63641695D01*
X64894706Y-64020039D01*
X65216461Y-64341794D01*
X65594805Y-64594595D01*
X66015198Y-64768728D01*
X66461485Y-64857500D01*
X66916515Y-64857500D01*
X67362802Y-64768728D01*
X67783195Y-64594595D01*
X68161539Y-64341794D01*
X68483294Y-64020039D01*
X68736095Y-63641695D01*
X68910228Y-63221302D01*
X68999000Y-62775015D01*
X68999000Y-62319985D01*
X75811000Y-62319985D01*
X75811000Y-62775015D01*
X75899772Y-63221302D01*
X76073905Y-63641695D01*
X76326706Y-64020039D01*
X76648461Y-64341794D01*
X77026805Y-64594595D01*
X77447198Y-64768728D01*
X77893485Y-64857500D01*
X78348515Y-64857500D01*
X78794802Y-64768728D01*
X79215195Y-64594595D01*
X79593539Y-64341794D01*
X79915294Y-64020039D01*
X80168095Y-63641695D01*
X80342228Y-63221302D01*
X80431000Y-62775015D01*
X80431000Y-62319985D01*
X80342228Y-61873698D01*
X80168095Y-61453305D01*
X79915294Y-61074961D01*
X79593539Y-60753206D01*
X79215195Y-60500405D01*
X78794802Y-60326272D01*
X78348515Y-60237500D01*
X77893485Y-60237500D01*
X77447198Y-60326272D01*
X77026805Y-60500405D01*
X76648461Y-60753206D01*
X76326706Y-61074961D01*
X76073905Y-61453305D01*
X75899772Y-61873698D01*
X75811000Y-62319985D01*
X68999000Y-62319985D01*
X68910228Y-61873698D01*
X68736095Y-61453305D01*
X68483294Y-61074961D01*
X68161539Y-60753206D01*
X67783195Y-60500405D01*
X67362802Y-60326272D01*
X66916515Y-60237500D01*
X66461485Y-60237500D01*
X66015198Y-60326272D01*
X65594805Y-60500405D01*
X65216461Y-60753206D01*
X64894706Y-61074961D01*
X64641905Y-61453305D01*
X64467772Y-61873698D01*
X64379000Y-62319985D01*
X62930000Y-62319985D01*
X62930000Y-55295000D01*
X81880000Y-55295000D01*
X81880001Y-73441928D01*
X81880001Y-73441928D01*
G37*
X81880001Y-73441928D02*
X80430000Y-73441928D01*
X80305518Y-73454188D01*
X80185820Y-73490498D01*
X80075506Y-73549463D01*
X79978815Y-73628815D01*
X79899463Y-73725506D01*
X79840498Y-73835820D01*
X79816034Y-73916466D01*
X79740269Y-73832412D01*
X79506920Y-73658359D01*
X79244099Y-73533175D01*
X79096890Y-73488524D01*
X78867000Y-73609845D01*
X78867000Y-74803000D01*
X78887000Y-74803000D01*
X78887000Y-75057000D01*
X78867000Y-75057000D01*
X78867000Y-76250155D01*
X79096890Y-76371476D01*
X79244099Y-76326825D01*
X79506920Y-76201641D01*
X79740269Y-76027588D01*
X79816034Y-75943534D01*
X79840498Y-76024180D01*
X79899463Y-76134494D01*
X79978815Y-76231185D01*
X80075506Y-76310537D01*
X80185820Y-76369502D01*
X80305518Y-76405812D01*
X80430000Y-76418072D01*
X81880001Y-76418072D01*
X81880001Y-89186787D01*
X62930000Y-89194714D01*
X62930000Y-86969344D01*
X63075500Y-86969344D01*
X63075500Y-87340656D01*
X63147939Y-87704834D01*
X63290034Y-88047882D01*
X63496325Y-88356618D01*
X63758882Y-88619175D01*
X64067618Y-88825466D01*
X64410666Y-88967561D01*
X64774844Y-89040000D01*
X65146156Y-89040000D01*
X65510334Y-88967561D01*
X65853382Y-88825466D01*
X66162118Y-88619175D01*
X66424675Y-88356618D01*
X66630966Y-88047882D01*
X66773061Y-87704834D01*
X66845500Y-87340656D01*
X66845500Y-86969344D01*
X66843810Y-86960844D01*
X77964500Y-86960844D01*
X77964500Y-87332156D01*
X78036939Y-87696334D01*
X78179034Y-88039382D01*
X78385325Y-88348118D01*
X78647882Y-88610675D01*
X78956618Y-88816966D01*
X79299666Y-88959061D01*
X79663844Y-89031500D01*
X80035156Y-89031500D01*
X80399334Y-88959061D01*
X80742382Y-88816966D01*
X81051118Y-88610675D01*
X81313675Y-88348118D01*
X81519966Y-88039382D01*
X81662061Y-87696334D01*
X81734500Y-87332156D01*
X81734500Y-86960844D01*
X81662061Y-86596666D01*
X81519966Y-86253618D01*
X81313675Y-85944882D01*
X81051118Y-85682325D01*
X80742382Y-85476034D01*
X80399334Y-85333939D01*
X80035156Y-85261500D01*
X79663844Y-85261500D01*
X79299666Y-85333939D01*
X78956618Y-85476034D01*
X78647882Y-85682325D01*
X78385325Y-85944882D01*
X78179034Y-86253618D01*
X78036939Y-86596666D01*
X77964500Y-86960844D01*
X66843810Y-86960844D01*
X66773061Y-86605166D01*
X66630966Y-86262118D01*
X66424675Y-85953382D01*
X66162118Y-85690825D01*
X65853382Y-85484534D01*
X65510334Y-85342439D01*
X65146156Y-85270000D01*
X64774844Y-85270000D01*
X64410666Y-85342439D01*
X64067618Y-85484534D01*
X63758882Y-85690825D01*
X63496325Y-85953382D01*
X63290034Y-86262118D01*
X63147939Y-86605166D01*
X63075500Y-86969344D01*
X62930000Y-86969344D01*
X62930000Y-84877363D01*
X69522000Y-84877363D01*
X69522000Y-85120637D01*
X69569460Y-85359236D01*
X69662557Y-85583992D01*
X69797713Y-85786267D01*
X69969733Y-85958287D01*
X70172008Y-86093443D01*
X70396764Y-86186540D01*
X70635363Y-86234000D01*
X70878637Y-86234000D01*
X71117236Y-86186540D01*
X71341992Y-86093443D01*
X71544267Y-85958287D01*
X71653790Y-85848764D01*
X73678841Y-85848764D01*
X73726148Y-86072348D01*
X73947516Y-86173237D01*
X74184313Y-86229000D01*
X74427438Y-86237495D01*
X74667549Y-86198395D01*
X74895418Y-86113202D01*
X74971852Y-86072348D01*
X75019159Y-85848764D01*
X74349000Y-85178605D01*
X73678841Y-85848764D01*
X71653790Y-85848764D01*
X71716287Y-85786267D01*
X71851443Y-85583992D01*
X71944540Y-85359236D01*
X71992000Y-85120637D01*
X71992000Y-85077438D01*
X73110505Y-85077438D01*
X73149605Y-85317549D01*
X73234798Y-85545418D01*
X73275652Y-85621852D01*
X73499236Y-85669159D01*
X74169395Y-84999000D01*
X74528605Y-84999000D01*
X75198764Y-85669159D01*
X75422348Y-85621852D01*
X75523237Y-85400484D01*
X75579000Y-85163687D01*
X75587495Y-84920562D01*
X75548395Y-84680451D01*
X75463202Y-84452582D01*
X75422348Y-84376148D01*
X75198764Y-84328841D01*
X74528605Y-84999000D01*
X74169395Y-84999000D01*
X73499236Y-84328841D01*
X73275652Y-84376148D01*
X73174763Y-84597516D01*
X73119000Y-84834313D01*
X73110505Y-85077438D01*
X71992000Y-85077438D01*
X71992000Y-84877363D01*
X71944540Y-84638764D01*
X71851443Y-84414008D01*
X71716287Y-84211733D01*
X71653790Y-84149236D01*
X73678841Y-84149236D01*
X74349000Y-84819395D01*
X75019159Y-84149236D01*
X74971852Y-83925652D01*
X74750484Y-83824763D01*
X74513687Y-83769000D01*
X74270562Y-83760505D01*
X74030451Y-83799605D01*
X73802582Y-83884798D01*
X73726148Y-83925652D01*
X73678841Y-84149236D01*
X71653790Y-84149236D01*
X71544267Y-84039713D01*
X71341992Y-83904557D01*
X71117236Y-83811460D01*
X70878637Y-83764000D01*
X70635363Y-83764000D01*
X70396764Y-83811460D01*
X70172008Y-83904557D01*
X69969733Y-84039713D01*
X69797713Y-84211733D01*
X69662557Y-84414008D01*
X69569460Y-84638764D01*
X69522000Y-84877363D01*
X62930000Y-84877363D01*
X62930000Y-76308913D01*
X63208889Y-76393513D01*
X63427050Y-76415000D01*
X63572950Y-76415000D01*
X63791111Y-76393513D01*
X64071034Y-76308599D01*
X64329014Y-76170706D01*
X64555134Y-75985134D01*
X64740706Y-75759014D01*
X64770000Y-75704209D01*
X64799294Y-75759014D01*
X64984866Y-75985134D01*
X65210986Y-76170706D01*
X65468966Y-76308599D01*
X65748889Y-76393513D01*
X65967050Y-76415000D01*
X66112950Y-76415000D01*
X66331111Y-76393513D01*
X66611034Y-76308599D01*
X66869014Y-76170706D01*
X67095134Y-75985134D01*
X67280706Y-75759014D01*
X67310000Y-75704209D01*
X67339294Y-75759014D01*
X67524866Y-75985134D01*
X67750986Y-76170706D01*
X67820000Y-76207595D01*
X67820001Y-79192668D01*
X67816324Y-79230000D01*
X67820001Y-79267333D01*
X67830998Y-79378986D01*
X67844180Y-79422442D01*
X67874454Y-79522246D01*
X67945026Y-79654276D01*
X68008403Y-79731500D01*
X68040000Y-79770001D01*
X68068998Y-79793799D01*
X69528398Y-81253199D01*
X69522000Y-81285363D01*
X69522000Y-81528637D01*
X69569460Y-81767236D01*
X69662557Y-81991992D01*
X69797713Y-82194267D01*
X69969733Y-82366287D01*
X70172008Y-82501443D01*
X70396764Y-82594540D01*
X70635363Y-82642000D01*
X70878637Y-82642000D01*
X71117236Y-82594540D01*
X71341992Y-82501443D01*
X71544267Y-82366287D01*
X71716287Y-82194267D01*
X71851443Y-81991992D01*
X71944540Y-81767236D01*
X71992000Y-81528637D01*
X71992000Y-81285363D01*
X71985602Y-81253199D01*
X73802302Y-79436500D01*
X78775928Y-79436500D01*
X78775928Y-79526500D01*
X78788188Y-79650982D01*
X78824498Y-79770680D01*
X78883463Y-79880994D01*
X78962815Y-79977685D01*
X79059506Y-80057037D01*
X79169820Y-80116002D01*
X79238687Y-80136893D01*
X79208866Y-80161366D01*
X79023294Y-80387486D01*
X78885401Y-80645466D01*
X78800487Y-80925389D01*
X78771815Y-81216500D01*
X78800487Y-81507611D01*
X78885401Y-81787534D01*
X79023294Y-82045514D01*
X79208866Y-82271634D01*
X79434986Y-82457206D01*
X79692966Y-82595099D01*
X79972889Y-82680013D01*
X80191050Y-82701500D01*
X80336950Y-82701500D01*
X80555111Y-82680013D01*
X80835034Y-82595099D01*
X81093014Y-82457206D01*
X81319134Y-82271634D01*
X81504706Y-82045514D01*
X81642599Y-81787534D01*
X81727513Y-81507611D01*
X81756185Y-81216500D01*
X81727513Y-80925389D01*
X81642599Y-80645466D01*
X81504706Y-80387486D01*
X81319134Y-80161366D01*
X81289313Y-80136893D01*
X81358180Y-80116002D01*
X81468494Y-80057037D01*
X81565185Y-79977685D01*
X81644537Y-79880994D01*
X81703502Y-79770680D01*
X81739812Y-79650982D01*
X81752072Y-79526500D01*
X81752072Y-77826500D01*
X81739812Y-77702018D01*
X81703502Y-77582320D01*
X81644537Y-77472006D01*
X81565185Y-77375315D01*
X81468494Y-77295963D01*
X81358180Y-77236998D01*
X81238482Y-77200688D01*
X81114000Y-77188428D01*
X79414000Y-77188428D01*
X79289518Y-77200688D01*
X79169820Y-77236998D01*
X79059506Y-77295963D01*
X78962815Y-77375315D01*
X78883463Y-77472006D01*
X78824498Y-77582320D01*
X78788188Y-77702018D01*
X78775928Y-77826500D01*
X78775928Y-77916500D01*
X73524822Y-77916500D01*
X73487499Y-77912824D01*
X73450176Y-77916500D01*
X73450167Y-77916500D01*
X73338514Y-77927497D01*
X73195253Y-77970954D01*
X73063223Y-78041526D01*
X72979583Y-78110168D01*
X72947499Y-78136499D01*
X72923701Y-78165497D01*
X70910801Y-80178398D01*
X70878637Y-80172000D01*
X70635363Y-80172000D01*
X70603199Y-80178398D01*
X69340000Y-78915199D01*
X69340000Y-76207595D01*
X69409014Y-76170706D01*
X69635134Y-75985134D01*
X69820706Y-75759014D01*
X69850000Y-75704209D01*
X69879294Y-75759014D01*
X70064866Y-75985134D01*
X70290986Y-76170706D01*
X70548966Y-76308599D01*
X70828889Y-76393513D01*
X71047050Y-76415000D01*
X71192950Y-76415000D01*
X71411111Y-76393513D01*
X71691034Y-76308599D01*
X71949014Y-76170706D01*
X72175134Y-75985134D01*
X72360706Y-75759014D01*
X72390000Y-75704209D01*
X72419294Y-75759014D01*
X72604866Y-75985134D01*
X72830986Y-76170706D01*
X73088966Y-76308599D01*
X73368889Y-76393513D01*
X73587050Y-76415000D01*
X73732950Y-76415000D01*
X73951111Y-76393513D01*
X74231034Y-76308599D01*
X74489014Y-76170706D01*
X74715134Y-75985134D01*
X74900706Y-75759014D01*
X74930000Y-75704209D01*
X74959294Y-75759014D01*
X75144866Y-75985134D01*
X75370986Y-76170706D01*
X75628966Y-76308599D01*
X75908889Y-76393513D01*
X76127050Y-76415000D01*
X76272950Y-76415000D01*
X76491111Y-76393513D01*
X76771034Y-76308599D01*
X77029014Y-76170706D01*
X77255134Y-75985134D01*
X77440706Y-75759014D01*
X77475201Y-75694477D01*
X77544822Y-75811355D01*
X77739731Y-76027588D01*
X77973080Y-76201641D01*
X78235901Y-76326825D01*
X78383110Y-76371476D01*
X78613000Y-76250155D01*
X78613000Y-75057000D01*
X78593000Y-75057000D01*
X78593000Y-74803000D01*
X78613000Y-74803000D01*
X78613000Y-73609845D01*
X78383110Y-73488524D01*
X78235901Y-73533175D01*
X77973080Y-73658359D01*
X77739731Y-73832412D01*
X77544822Y-74048645D01*
X77475201Y-74165523D01*
X77440706Y-74100986D01*
X77255134Y-73874866D01*
X77029014Y-73689294D01*
X76771034Y-73551401D01*
X76491111Y-73466487D01*
X76272950Y-73445000D01*
X76127050Y-73445000D01*
X75908889Y-73466487D01*
X75834005Y-73489203D01*
X75070000Y-72725199D01*
X75070000Y-72619006D01*
X75156740Y-72658970D01*
X75403170Y-72718074D01*
X75656396Y-72727966D01*
X75906685Y-72688265D01*
X76144420Y-72600499D01*
X76233424Y-72552926D01*
X76286994Y-72324099D01*
X75580000Y-71617105D01*
X75565858Y-71631248D01*
X75386253Y-71451643D01*
X75400395Y-71437500D01*
X75759605Y-71437500D01*
X76466599Y-72144494D01*
X76695426Y-72090924D01*
X76801470Y-71860760D01*
X76860574Y-71614330D01*
X76870466Y-71361104D01*
X76830765Y-71110815D01*
X76742999Y-70873080D01*
X76695426Y-70784076D01*
X76466599Y-70730506D01*
X75759605Y-71437500D01*
X75400395Y-71437500D01*
X75386253Y-71423358D01*
X75565858Y-71243753D01*
X75580000Y-71257895D01*
X76286994Y-70550901D01*
X76233424Y-70322074D01*
X76003260Y-70216030D01*
X75756830Y-70156926D01*
X75503604Y-70147034D01*
X75253315Y-70186735D01*
X75070000Y-70254410D01*
X75070000Y-69936945D01*
X75130096Y-69896790D01*
X75309290Y-69717596D01*
X75450082Y-69506886D01*
X75547061Y-69272758D01*
X75580000Y-69107161D01*
X75612939Y-69272758D01*
X75709918Y-69506886D01*
X75850710Y-69717596D01*
X76029904Y-69896790D01*
X76240614Y-70037582D01*
X76474742Y-70134561D01*
X76723291Y-70184000D01*
X76976709Y-70184000D01*
X77225258Y-70134561D01*
X77459386Y-70037582D01*
X77670096Y-69896790D01*
X77849290Y-69717596D01*
X77990082Y-69506886D01*
X78087061Y-69272758D01*
X78136500Y-69024209D01*
X78136500Y-68770791D01*
X78087061Y-68522242D01*
X77990082Y-68288114D01*
X77849290Y-68077404D01*
X77670096Y-67898210D01*
X77459386Y-67757418D01*
X77225258Y-67660439D01*
X76976709Y-67611000D01*
X76723291Y-67611000D01*
X76474742Y-67660439D01*
X76240614Y-67757418D01*
X76029904Y-67898210D01*
X75850710Y-68077404D01*
X75709918Y-68288114D01*
X75612939Y-68522242D01*
X75580000Y-68687839D01*
X75547061Y-68522242D01*
X75450082Y-68288114D01*
X75309290Y-68077404D01*
X75130096Y-67898210D01*
X74919386Y-67757418D01*
X74685258Y-67660439D01*
X74436709Y-67611000D01*
X74183291Y-67611000D01*
X73934742Y-67660439D01*
X73700614Y-67757418D01*
X73489904Y-67898210D01*
X73310710Y-68077404D01*
X73169918Y-68288114D01*
X73072939Y-68522242D01*
X73040000Y-68687839D01*
X73007061Y-68522242D01*
X72910082Y-68288114D01*
X72769290Y-68077404D01*
X72590096Y-67898210D01*
X72379386Y-67757418D01*
X72145258Y-67660439D01*
X71896709Y-67611000D01*
X71643291Y-67611000D01*
X71394742Y-67660439D01*
X71160614Y-67757418D01*
X70949904Y-67898210D01*
X70770710Y-68077404D01*
X70629918Y-68288114D01*
X70532939Y-68522242D01*
X70500000Y-68687839D01*
X70467061Y-68522242D01*
X70370082Y-68288114D01*
X70229290Y-68077404D01*
X70050096Y-67898210D01*
X69839386Y-67757418D01*
X69605258Y-67660439D01*
X69356709Y-67611000D01*
X69103291Y-67611000D01*
X68854742Y-67660439D01*
X68620614Y-67757418D01*
X68409904Y-67898210D01*
X68230710Y-68077404D01*
X68089918Y-68288114D01*
X67992939Y-68522242D01*
X67943500Y-68770791D01*
X67943500Y-69024209D01*
X67992939Y-69272758D01*
X68089918Y-69506886D01*
X68230710Y-69717596D01*
X68409904Y-69896790D01*
X68470000Y-69936945D01*
X68470001Y-70256251D01*
X68335258Y-70200439D01*
X68086709Y-70151000D01*
X67833291Y-70151000D01*
X67584742Y-70200439D01*
X67350614Y-70297418D01*
X67139904Y-70438210D01*
X66960710Y-70617404D01*
X66918117Y-70681149D01*
X66843514Y-70688497D01*
X66700253Y-70731954D01*
X66568224Y-70802526D01*
X66452499Y-70897499D01*
X66428701Y-70926497D01*
X63865996Y-73489203D01*
X63791111Y-73466487D01*
X63572950Y-73445000D01*
X63427050Y-73445000D01*
X63208889Y-73466487D01*
X62930000Y-73551087D01*
X62930000Y-62319985D01*
X64379000Y-62319985D01*
X64379000Y-62775015D01*
X64467772Y-63221302D01*
X64641905Y-63641695D01*
X64894706Y-64020039D01*
X65216461Y-64341794D01*
X65594805Y-64594595D01*
X66015198Y-64768728D01*
X66461485Y-64857500D01*
X66916515Y-64857500D01*
X67362802Y-64768728D01*
X67783195Y-64594595D01*
X68161539Y-64341794D01*
X68483294Y-64020039D01*
X68736095Y-63641695D01*
X68910228Y-63221302D01*
X68999000Y-62775015D01*
X68999000Y-62319985D01*
X75811000Y-62319985D01*
X75811000Y-62775015D01*
X75899772Y-63221302D01*
X76073905Y-63641695D01*
X76326706Y-64020039D01*
X76648461Y-64341794D01*
X77026805Y-64594595D01*
X77447198Y-64768728D01*
X77893485Y-64857500D01*
X78348515Y-64857500D01*
X78794802Y-64768728D01*
X79215195Y-64594595D01*
X79593539Y-64341794D01*
X79915294Y-64020039D01*
X80168095Y-63641695D01*
X80342228Y-63221302D01*
X80431000Y-62775015D01*
X80431000Y-62319985D01*
X80342228Y-61873698D01*
X80168095Y-61453305D01*
X79915294Y-61074961D01*
X79593539Y-60753206D01*
X79215195Y-60500405D01*
X78794802Y-60326272D01*
X78348515Y-60237500D01*
X77893485Y-60237500D01*
X77447198Y-60326272D01*
X77026805Y-60500405D01*
X76648461Y-60753206D01*
X76326706Y-61074961D01*
X76073905Y-61453305D01*
X75899772Y-61873698D01*
X75811000Y-62319985D01*
X68999000Y-62319985D01*
X68910228Y-61873698D01*
X68736095Y-61453305D01*
X68483294Y-61074961D01*
X68161539Y-60753206D01*
X67783195Y-60500405D01*
X67362802Y-60326272D01*
X66916515Y-60237500D01*
X66461485Y-60237500D01*
X66015198Y-60326272D01*
X65594805Y-60500405D01*
X65216461Y-60753206D01*
X64894706Y-61074961D01*
X64641905Y-61453305D01*
X64467772Y-61873698D01*
X64379000Y-62319985D01*
X62930000Y-62319985D01*
X62930000Y-55295000D01*
X81880000Y-55295000D01*
X81880001Y-73441928D01*
M02*
