M48
; DRILL file {KiCad (5.1.4)-1} date 30/11/2022 15:04:31
; FORMAT={-:-/ absolute / inch / decimal}
; #@! TF.CreationDate,2022-11-30T15:04:31+00:00
; #@! TF.GenerationSoftware,Kicad,Pcbnew,(5.1.4)-1
; #@! TF.FileFunction,Plated,1,2,PTH
FMAT,2
INCH
T1C0.0276
T2C0.0299
T3C0.0394
%
G90
G05
T1
X2.7857Y-3.205
X2.7857Y-3.3464
X2.9271Y-3.3464
T2
X2.6756Y-2.8125
X2.7256Y-2.7125
X2.7756Y-2.8125
X2.8256Y-2.7125
X2.8756Y-2.8125
X2.9256Y-2.7125
X2.9756Y-2.8125
X3.0256Y-2.7125
T3
X3.16Y-3.0975
X3.16Y-3.1975
X2.5Y-2.95
X2.6Y-2.95
X2.7Y-2.95
X2.8Y-2.95
X2.9Y-2.95
X3.0Y-2.95
X3.1Y-2.95
X3.2Y-2.95
T0
M30
