G04 #@! TF.GenerationSoftware,KiCad,Pcbnew,(5.1.4)-1*
G04 #@! TF.CreationDate,2022-11-30T15:04:29+00:00*
G04 #@! TF.ProjectId,PIR_Board,5049525f-426f-4617-9264-2e6b69636164,rev?*
G04 #@! TF.SameCoordinates,Original*
G04 #@! TF.FileFunction,Soldermask,Bot*
G04 #@! TF.FilePolarity,Negative*
%FSLAX46Y46*%
G04 Gerber Fmt 4.6, Leading zero omitted, Abs format (unit mm)*
G04 Created by KiCad (PCBNEW (5.1.4)-1) date 2022-11-30 15:04:29*
%MOMM*%
%LPD*%
G04 APERTURE LIST*
%ADD10C,0.100000*%
G04 APERTURE END LIST*
D10*
G36*
X65339987Y-85903996D02*
G01*
X65576753Y-86002068D01*
X65576755Y-86002069D01*
X65777118Y-86135947D01*
X65789839Y-86144447D01*
X65971053Y-86325661D01*
X66113432Y-86538747D01*
X66211504Y-86775513D01*
X66261500Y-87026861D01*
X66261500Y-87283139D01*
X66211504Y-87534487D01*
X66116953Y-87762753D01*
X66113431Y-87771255D01*
X65971053Y-87984339D01*
X65789839Y-88165553D01*
X65576755Y-88307931D01*
X65576754Y-88307932D01*
X65576753Y-88307932D01*
X65339987Y-88406004D01*
X65088639Y-88456000D01*
X64832361Y-88456000D01*
X64581013Y-88406004D01*
X64344247Y-88307932D01*
X64344246Y-88307932D01*
X64344245Y-88307931D01*
X64131161Y-88165553D01*
X63949947Y-87984339D01*
X63807569Y-87771255D01*
X63804047Y-87762753D01*
X63709496Y-87534487D01*
X63659500Y-87283139D01*
X63659500Y-87026861D01*
X63709496Y-86775513D01*
X63807568Y-86538747D01*
X63949947Y-86325661D01*
X64131161Y-86144447D01*
X64143882Y-86135947D01*
X64344245Y-86002069D01*
X64344247Y-86002068D01*
X64581013Y-85903996D01*
X64832361Y-85854000D01*
X65088639Y-85854000D01*
X65339987Y-85903996D01*
X65339987Y-85903996D01*
G37*
G36*
X80228987Y-85895496D02*
G01*
X80465753Y-85993568D01*
X80465755Y-85993569D01*
X80678839Y-86135947D01*
X80860053Y-86317161D01*
X80865733Y-86325661D01*
X81002432Y-86530247D01*
X81100504Y-86767013D01*
X81150500Y-87018361D01*
X81150500Y-87274639D01*
X81100504Y-87525987D01*
X81002432Y-87762753D01*
X81002431Y-87762755D01*
X80860053Y-87975839D01*
X80678839Y-88157053D01*
X80465755Y-88299431D01*
X80465754Y-88299432D01*
X80465753Y-88299432D01*
X80228987Y-88397504D01*
X79977639Y-88447500D01*
X79721361Y-88447500D01*
X79470013Y-88397504D01*
X79233247Y-88299432D01*
X79233246Y-88299432D01*
X79233245Y-88299431D01*
X79020161Y-88157053D01*
X78838947Y-87975839D01*
X78696569Y-87762755D01*
X78696568Y-87762753D01*
X78598496Y-87525987D01*
X78548500Y-87274639D01*
X78548500Y-87018361D01*
X78598496Y-86767013D01*
X78696568Y-86530247D01*
X78833268Y-86325661D01*
X78838947Y-86317161D01*
X79020161Y-86135947D01*
X79233245Y-85993569D01*
X79233247Y-85993568D01*
X79470013Y-85895496D01*
X79721361Y-85845500D01*
X79977639Y-85845500D01*
X80228987Y-85895496D01*
X80228987Y-85895496D01*
G37*
G36*
X74538890Y-84373017D02*
G01*
X74657364Y-84422091D01*
X74763988Y-84493335D01*
X74854665Y-84584012D01*
X74925909Y-84690636D01*
X74974983Y-84809110D01*
X75000000Y-84934882D01*
X75000000Y-85063118D01*
X74974983Y-85188890D01*
X74925909Y-85307364D01*
X74854665Y-85413988D01*
X74763988Y-85504665D01*
X74657364Y-85575909D01*
X74657363Y-85575910D01*
X74657362Y-85575910D01*
X74538890Y-85624983D01*
X74413119Y-85650000D01*
X74284881Y-85650000D01*
X74159110Y-85624983D01*
X74040638Y-85575910D01*
X74040637Y-85575910D01*
X74040636Y-85575909D01*
X73934012Y-85504665D01*
X73843335Y-85413988D01*
X73772091Y-85307364D01*
X73723017Y-85188890D01*
X73698000Y-85063118D01*
X73698000Y-84934882D01*
X73723017Y-84809110D01*
X73772091Y-84690636D01*
X73843335Y-84584012D01*
X73934012Y-84493335D01*
X74040636Y-84422091D01*
X74159110Y-84373017D01*
X74284881Y-84348000D01*
X74413119Y-84348000D01*
X74538890Y-84373017D01*
X74538890Y-84373017D01*
G37*
G36*
X70946890Y-84373017D02*
G01*
X71065364Y-84422091D01*
X71171988Y-84493335D01*
X71262665Y-84584012D01*
X71333909Y-84690636D01*
X71382983Y-84809110D01*
X71408000Y-84934882D01*
X71408000Y-85063118D01*
X71382983Y-85188890D01*
X71333909Y-85307364D01*
X71262665Y-85413988D01*
X71171988Y-85504665D01*
X71065364Y-85575909D01*
X71065363Y-85575910D01*
X71065362Y-85575910D01*
X70946890Y-85624983D01*
X70821119Y-85650000D01*
X70692881Y-85650000D01*
X70567110Y-85624983D01*
X70448638Y-85575910D01*
X70448637Y-85575910D01*
X70448636Y-85575909D01*
X70342012Y-85504665D01*
X70251335Y-85413988D01*
X70180091Y-85307364D01*
X70131017Y-85188890D01*
X70106000Y-85063118D01*
X70106000Y-84934882D01*
X70131017Y-84809110D01*
X70180091Y-84690636D01*
X70251335Y-84584012D01*
X70342012Y-84493335D01*
X70448636Y-84422091D01*
X70567110Y-84373017D01*
X70692881Y-84348000D01*
X70821119Y-84348000D01*
X70946890Y-84373017D01*
X70946890Y-84373017D01*
G37*
G36*
X64911562Y-81310681D02*
G01*
X64946481Y-81321274D01*
X64978663Y-81338476D01*
X65006873Y-81361627D01*
X65030024Y-81389837D01*
X65047226Y-81422019D01*
X65057819Y-81456938D01*
X65062000Y-81499395D01*
X65062000Y-82965605D01*
X65057819Y-83008062D01*
X65047226Y-83042981D01*
X65030024Y-83075163D01*
X65006873Y-83103373D01*
X64978663Y-83126524D01*
X64946481Y-83143726D01*
X64911562Y-83154319D01*
X64869105Y-83158500D01*
X63727895Y-83158500D01*
X63685438Y-83154319D01*
X63650519Y-83143726D01*
X63618337Y-83126524D01*
X63590127Y-83103373D01*
X63566976Y-83075163D01*
X63549774Y-83042981D01*
X63539181Y-83008062D01*
X63535000Y-82965605D01*
X63535000Y-81499395D01*
X63539181Y-81456938D01*
X63549774Y-81422019D01*
X63566976Y-81389837D01*
X63590127Y-81361627D01*
X63618337Y-81338476D01*
X63650519Y-81321274D01*
X63685438Y-81310681D01*
X63727895Y-81306500D01*
X64869105Y-81306500D01*
X64911562Y-81310681D01*
X64911562Y-81310681D01*
G37*
G36*
X67886562Y-81310681D02*
G01*
X67921481Y-81321274D01*
X67953663Y-81338476D01*
X67981873Y-81361627D01*
X68005024Y-81389837D01*
X68022226Y-81422019D01*
X68032819Y-81456938D01*
X68037000Y-81499395D01*
X68037000Y-82965605D01*
X68032819Y-83008062D01*
X68022226Y-83042981D01*
X68005024Y-83075163D01*
X67981873Y-83103373D01*
X67953663Y-83126524D01*
X67921481Y-83143726D01*
X67886562Y-83154319D01*
X67844105Y-83158500D01*
X66702895Y-83158500D01*
X66660438Y-83154319D01*
X66625519Y-83143726D01*
X66593337Y-83126524D01*
X66565127Y-83103373D01*
X66541976Y-83075163D01*
X66524774Y-83042981D01*
X66514181Y-83008062D01*
X66510000Y-82965605D01*
X66510000Y-81499395D01*
X66514181Y-81456938D01*
X66524774Y-81422019D01*
X66541976Y-81389837D01*
X66565127Y-81361627D01*
X66593337Y-81338476D01*
X66625519Y-81321274D01*
X66660438Y-81310681D01*
X66702895Y-81306500D01*
X67844105Y-81306500D01*
X67886562Y-81310681D01*
X67886562Y-81310681D01*
G37*
G36*
X77420062Y-81436681D02*
G01*
X77454981Y-81447274D01*
X77487163Y-81464476D01*
X77515373Y-81487627D01*
X77538524Y-81515837D01*
X77555726Y-81548019D01*
X77566319Y-81582938D01*
X77570500Y-81625395D01*
X77570500Y-82766605D01*
X77566319Y-82809062D01*
X77555726Y-82843981D01*
X77538524Y-82876163D01*
X77515373Y-82904373D01*
X77487163Y-82927524D01*
X77454981Y-82944726D01*
X77420062Y-82955319D01*
X77377605Y-82959500D01*
X75911395Y-82959500D01*
X75868938Y-82955319D01*
X75834019Y-82944726D01*
X75801837Y-82927524D01*
X75773627Y-82904373D01*
X75750476Y-82876163D01*
X75733274Y-82843981D01*
X75722681Y-82809062D01*
X75718500Y-82766605D01*
X75718500Y-81625395D01*
X75722681Y-81582938D01*
X75733274Y-81548019D01*
X75750476Y-81515837D01*
X75773627Y-81487627D01*
X75801837Y-81464476D01*
X75834019Y-81447274D01*
X75868938Y-81436681D01*
X75911395Y-81432500D01*
X77377605Y-81432500D01*
X77420062Y-81436681D01*
X77420062Y-81436681D01*
G37*
G36*
X80374442Y-80322018D02*
G01*
X80440627Y-80328537D01*
X80610466Y-80380057D01*
X80766991Y-80463722D01*
X80802729Y-80493052D01*
X80904186Y-80576314D01*
X80987448Y-80677771D01*
X81016778Y-80713509D01*
X81100443Y-80870034D01*
X81151963Y-81039873D01*
X81169359Y-81216500D01*
X81151963Y-81393127D01*
X81100443Y-81562966D01*
X81016778Y-81719491D01*
X80987448Y-81755229D01*
X80904186Y-81856686D01*
X80835974Y-81912665D01*
X80766991Y-81969278D01*
X80610466Y-82052943D01*
X80440627Y-82104463D01*
X80374442Y-82110982D01*
X80308260Y-82117500D01*
X80219740Y-82117500D01*
X80153558Y-82110982D01*
X80087373Y-82104463D01*
X79917534Y-82052943D01*
X79761009Y-81969278D01*
X79692026Y-81912665D01*
X79623814Y-81856686D01*
X79540552Y-81755229D01*
X79511222Y-81719491D01*
X79427557Y-81562966D01*
X79376037Y-81393127D01*
X79358641Y-81216500D01*
X79376037Y-81039873D01*
X79427557Y-80870034D01*
X79511222Y-80713509D01*
X79540552Y-80677771D01*
X79623814Y-80576314D01*
X79725271Y-80493052D01*
X79761009Y-80463722D01*
X79917534Y-80380057D01*
X80087373Y-80328537D01*
X80153558Y-80322018D01*
X80219740Y-80315500D01*
X80308260Y-80315500D01*
X80374442Y-80322018D01*
X80374442Y-80322018D01*
G37*
G36*
X70946890Y-80781017D02*
G01*
X71065364Y-80830091D01*
X71125140Y-80870032D01*
X71171988Y-80901335D01*
X71262665Y-80992012D01*
X71333910Y-81098638D01*
X71382983Y-81217110D01*
X71408000Y-81342881D01*
X71408000Y-81471119D01*
X71382983Y-81596890D01*
X71340110Y-81700395D01*
X71333909Y-81715364D01*
X71262665Y-81821988D01*
X71171988Y-81912665D01*
X71065364Y-81983909D01*
X71065363Y-81983910D01*
X71065362Y-81983910D01*
X70946890Y-82032983D01*
X70821119Y-82058000D01*
X70692881Y-82058000D01*
X70567110Y-82032983D01*
X70448638Y-81983910D01*
X70448637Y-81983910D01*
X70448636Y-81983909D01*
X70342012Y-81912665D01*
X70251335Y-81821988D01*
X70180091Y-81715364D01*
X70173891Y-81700395D01*
X70131017Y-81596890D01*
X70106000Y-81471119D01*
X70106000Y-81342881D01*
X70131017Y-81217110D01*
X70180090Y-81098638D01*
X70251335Y-80992012D01*
X70342012Y-80901335D01*
X70388860Y-80870032D01*
X70448636Y-80830091D01*
X70567110Y-80781017D01*
X70692881Y-80756000D01*
X70821119Y-80756000D01*
X70946890Y-80781017D01*
X70946890Y-80781017D01*
G37*
G36*
X77420062Y-78461681D02*
G01*
X77454981Y-78472274D01*
X77487163Y-78489476D01*
X77515373Y-78512627D01*
X77538524Y-78540837D01*
X77555726Y-78573019D01*
X77566319Y-78607938D01*
X77570500Y-78650395D01*
X77570500Y-79791605D01*
X77566319Y-79834062D01*
X77555726Y-79868981D01*
X77538524Y-79901163D01*
X77515373Y-79929373D01*
X77487163Y-79952524D01*
X77454981Y-79969726D01*
X77420062Y-79980319D01*
X77377605Y-79984500D01*
X75911395Y-79984500D01*
X75868938Y-79980319D01*
X75834019Y-79969726D01*
X75801837Y-79952524D01*
X75773627Y-79929373D01*
X75750476Y-79901163D01*
X75733274Y-79868981D01*
X75722681Y-79834062D01*
X75718500Y-79791605D01*
X75718500Y-78650395D01*
X75722681Y-78607938D01*
X75733274Y-78573019D01*
X75750476Y-78540837D01*
X75773627Y-78512627D01*
X75801837Y-78489476D01*
X75834019Y-78472274D01*
X75868938Y-78461681D01*
X75911395Y-78457500D01*
X77377605Y-78457500D01*
X77420062Y-78461681D01*
X77420062Y-78461681D01*
G37*
G36*
X67950062Y-78008681D02*
G01*
X67984981Y-78019274D01*
X68017163Y-78036476D01*
X68045373Y-78059627D01*
X68068524Y-78087837D01*
X68085726Y-78120019D01*
X68096319Y-78154938D01*
X68100500Y-78197395D01*
X68100500Y-79663605D01*
X68096319Y-79706062D01*
X68085726Y-79740981D01*
X68068524Y-79773163D01*
X68045373Y-79801373D01*
X68017163Y-79824524D01*
X67984981Y-79841726D01*
X67950062Y-79852319D01*
X67907605Y-79856500D01*
X66766395Y-79856500D01*
X66723938Y-79852319D01*
X66689019Y-79841726D01*
X66656837Y-79824524D01*
X66628627Y-79801373D01*
X66605476Y-79773163D01*
X66588274Y-79740981D01*
X66577681Y-79706062D01*
X66573500Y-79663605D01*
X66573500Y-78197395D01*
X66577681Y-78154938D01*
X66588274Y-78120019D01*
X66605476Y-78087837D01*
X66628627Y-78059627D01*
X66656837Y-78036476D01*
X66689019Y-78019274D01*
X66723938Y-78008681D01*
X66766395Y-78004500D01*
X67907605Y-78004500D01*
X67950062Y-78008681D01*
X67950062Y-78008681D01*
G37*
G36*
X64975062Y-78008681D02*
G01*
X65009981Y-78019274D01*
X65042163Y-78036476D01*
X65070373Y-78059627D01*
X65093524Y-78087837D01*
X65110726Y-78120019D01*
X65121319Y-78154938D01*
X65125500Y-78197395D01*
X65125500Y-79663605D01*
X65121319Y-79706062D01*
X65110726Y-79740981D01*
X65093524Y-79773163D01*
X65070373Y-79801373D01*
X65042163Y-79824524D01*
X65009981Y-79841726D01*
X64975062Y-79852319D01*
X64932605Y-79856500D01*
X63791395Y-79856500D01*
X63748938Y-79852319D01*
X63714019Y-79841726D01*
X63681837Y-79824524D01*
X63653627Y-79801373D01*
X63630476Y-79773163D01*
X63613274Y-79740981D01*
X63602681Y-79706062D01*
X63598500Y-79663605D01*
X63598500Y-78197395D01*
X63602681Y-78154938D01*
X63613274Y-78120019D01*
X63630476Y-78087837D01*
X63653627Y-78059627D01*
X63681837Y-78036476D01*
X63714019Y-78019274D01*
X63748938Y-78008681D01*
X63791395Y-78004500D01*
X64932605Y-78004500D01*
X64975062Y-78008681D01*
X64975062Y-78008681D01*
G37*
G36*
X81165000Y-79577500D02*
G01*
X79363000Y-79577500D01*
X79363000Y-77775500D01*
X81165000Y-77775500D01*
X81165000Y-79577500D01*
X81165000Y-79577500D01*
G37*
G36*
X70984999Y-77939737D02*
G01*
X70999528Y-77944145D01*
X71012711Y-77949606D01*
X71036745Y-77954388D01*
X71061249Y-77954389D01*
X71085282Y-77949609D01*
X71107921Y-77940232D01*
X71109765Y-77939000D01*
X72341050Y-77939000D01*
X72353164Y-77945475D01*
X72376613Y-77952588D01*
X72400999Y-77954990D01*
X72425385Y-77952588D01*
X72448834Y-77945475D01*
X72453746Y-77943152D01*
X72465001Y-77939737D01*
X72481140Y-77938148D01*
X73018861Y-77938148D01*
X73037199Y-77939954D01*
X73049450Y-77940556D01*
X73067869Y-77940556D01*
X73090149Y-77942750D01*
X73174233Y-77959476D01*
X73195660Y-77965976D01*
X73274858Y-77998780D01*
X73280303Y-78001691D01*
X73280309Y-78001693D01*
X73289169Y-78006429D01*
X73289173Y-78006432D01*
X73294614Y-78009340D01*
X73365899Y-78056971D01*
X73383204Y-78071172D01*
X73443828Y-78131796D01*
X73458029Y-78149101D01*
X73505660Y-78220386D01*
X73508568Y-78225827D01*
X73508571Y-78225831D01*
X73513307Y-78234691D01*
X73513309Y-78234697D01*
X73516220Y-78240142D01*
X73549024Y-78319340D01*
X73555524Y-78340767D01*
X73572250Y-78424851D01*
X73574444Y-78447131D01*
X73574444Y-78465550D01*
X73575046Y-78477801D01*
X73576852Y-78496139D01*
X73576852Y-78983862D01*
X73575046Y-79002199D01*
X73574444Y-79014450D01*
X73574444Y-79032869D01*
X73572250Y-79055149D01*
X73555524Y-79139233D01*
X73549024Y-79160660D01*
X73516220Y-79239858D01*
X73513309Y-79245303D01*
X73513307Y-79245309D01*
X73508571Y-79254169D01*
X73508568Y-79254173D01*
X73505660Y-79259614D01*
X73458029Y-79330899D01*
X73443828Y-79348204D01*
X73383204Y-79408828D01*
X73365899Y-79423029D01*
X73294614Y-79470660D01*
X73289173Y-79473568D01*
X73289169Y-79473571D01*
X73280309Y-79478307D01*
X73280303Y-79478309D01*
X73274858Y-79481220D01*
X73195660Y-79514024D01*
X73174233Y-79520524D01*
X73090149Y-79537250D01*
X73067869Y-79539444D01*
X73049450Y-79539444D01*
X73037199Y-79540046D01*
X73018862Y-79541852D01*
X72481140Y-79541852D01*
X72465001Y-79540263D01*
X72450472Y-79535855D01*
X72437289Y-79530394D01*
X72413255Y-79525612D01*
X72388751Y-79525611D01*
X72364718Y-79530391D01*
X72342079Y-79539768D01*
X72340235Y-79541000D01*
X71108950Y-79541000D01*
X71096836Y-79534525D01*
X71073387Y-79527412D01*
X71049001Y-79525010D01*
X71024615Y-79527412D01*
X71001166Y-79534525D01*
X70996254Y-79536848D01*
X70984999Y-79540263D01*
X70968860Y-79541852D01*
X70431138Y-79541852D01*
X70412801Y-79540046D01*
X70400550Y-79539444D01*
X70382131Y-79539444D01*
X70359851Y-79537250D01*
X70275767Y-79520524D01*
X70254340Y-79514024D01*
X70175142Y-79481220D01*
X70169697Y-79478309D01*
X70169691Y-79478307D01*
X70160831Y-79473571D01*
X70160827Y-79473568D01*
X70155386Y-79470660D01*
X70084101Y-79423029D01*
X70066796Y-79408828D01*
X70006172Y-79348204D01*
X69991971Y-79330899D01*
X69944340Y-79259614D01*
X69941432Y-79254173D01*
X69941429Y-79254169D01*
X69936693Y-79245309D01*
X69936691Y-79245303D01*
X69933780Y-79239858D01*
X69900976Y-79160660D01*
X69894476Y-79139233D01*
X69877750Y-79055149D01*
X69875556Y-79032869D01*
X69875556Y-79014450D01*
X69874954Y-79002199D01*
X69873148Y-78983862D01*
X69873148Y-78496139D01*
X69874954Y-78477801D01*
X69875556Y-78465550D01*
X69875556Y-78447131D01*
X69877750Y-78424851D01*
X69894476Y-78340767D01*
X69900976Y-78319340D01*
X69933780Y-78240142D01*
X69936691Y-78234697D01*
X69936693Y-78234691D01*
X69941429Y-78225831D01*
X69941432Y-78225827D01*
X69944340Y-78220386D01*
X69991971Y-78149101D01*
X70006172Y-78131796D01*
X70066796Y-78071172D01*
X70084101Y-78056971D01*
X70155386Y-78009340D01*
X70160827Y-78006432D01*
X70160831Y-78006429D01*
X70169691Y-78001693D01*
X70169697Y-78001691D01*
X70175142Y-77998780D01*
X70254340Y-77965976D01*
X70275767Y-77959476D01*
X70359851Y-77942750D01*
X70382131Y-77940556D01*
X70400550Y-77940556D01*
X70412801Y-77939954D01*
X70431139Y-77938148D01*
X70968860Y-77938148D01*
X70984999Y-77939737D01*
X70984999Y-77939737D01*
G37*
G36*
X66150442Y-74035518D02*
G01*
X66216627Y-74042037D01*
X66386466Y-74093557D01*
X66542991Y-74177222D01*
X66578729Y-74206552D01*
X66680186Y-74289814D01*
X66763448Y-74391271D01*
X66792778Y-74427009D01*
X66876443Y-74583534D01*
X66927963Y-74753373D01*
X66945359Y-74930000D01*
X66927963Y-75106627D01*
X66876443Y-75276466D01*
X66792778Y-75432991D01*
X66763448Y-75468729D01*
X66680186Y-75570186D01*
X66578729Y-75653448D01*
X66542991Y-75682778D01*
X66386466Y-75766443D01*
X66216627Y-75817963D01*
X66150442Y-75824482D01*
X66084260Y-75831000D01*
X65995740Y-75831000D01*
X65929558Y-75824482D01*
X65863373Y-75817963D01*
X65693534Y-75766443D01*
X65537009Y-75682778D01*
X65501271Y-75653448D01*
X65399814Y-75570186D01*
X65316552Y-75468729D01*
X65287222Y-75432991D01*
X65203557Y-75276466D01*
X65152037Y-75106627D01*
X65134641Y-74930000D01*
X65152037Y-74753373D01*
X65203557Y-74583534D01*
X65287222Y-74427009D01*
X65316552Y-74391271D01*
X65399814Y-74289814D01*
X65501271Y-74206552D01*
X65537009Y-74177222D01*
X65693534Y-74093557D01*
X65863373Y-74042037D01*
X65929558Y-74035518D01*
X65995740Y-74029000D01*
X66084260Y-74029000D01*
X66150442Y-74035518D01*
X66150442Y-74035518D01*
G37*
G36*
X82181000Y-75831000D02*
G01*
X80379000Y-75831000D01*
X80379000Y-74029000D01*
X82181000Y-74029000D01*
X82181000Y-75831000D01*
X82181000Y-75831000D01*
G37*
G36*
X78850442Y-74035518D02*
G01*
X78916627Y-74042037D01*
X79086466Y-74093557D01*
X79242991Y-74177222D01*
X79278729Y-74206552D01*
X79380186Y-74289814D01*
X79463448Y-74391271D01*
X79492778Y-74427009D01*
X79576443Y-74583534D01*
X79627963Y-74753373D01*
X79645359Y-74930000D01*
X79627963Y-75106627D01*
X79576443Y-75276466D01*
X79492778Y-75432991D01*
X79463448Y-75468729D01*
X79380186Y-75570186D01*
X79278729Y-75653448D01*
X79242991Y-75682778D01*
X79086466Y-75766443D01*
X78916627Y-75817963D01*
X78850442Y-75824482D01*
X78784260Y-75831000D01*
X78695740Y-75831000D01*
X78629558Y-75824482D01*
X78563373Y-75817963D01*
X78393534Y-75766443D01*
X78237009Y-75682778D01*
X78201271Y-75653448D01*
X78099814Y-75570186D01*
X78016552Y-75468729D01*
X77987222Y-75432991D01*
X77903557Y-75276466D01*
X77852037Y-75106627D01*
X77834641Y-74930000D01*
X77852037Y-74753373D01*
X77903557Y-74583534D01*
X77987222Y-74427009D01*
X78016552Y-74391271D01*
X78099814Y-74289814D01*
X78201271Y-74206552D01*
X78237009Y-74177222D01*
X78393534Y-74093557D01*
X78563373Y-74042037D01*
X78629558Y-74035518D01*
X78695740Y-74029000D01*
X78784260Y-74029000D01*
X78850442Y-74035518D01*
X78850442Y-74035518D01*
G37*
G36*
X76310442Y-74035518D02*
G01*
X76376627Y-74042037D01*
X76546466Y-74093557D01*
X76702991Y-74177222D01*
X76738729Y-74206552D01*
X76840186Y-74289814D01*
X76923448Y-74391271D01*
X76952778Y-74427009D01*
X77036443Y-74583534D01*
X77087963Y-74753373D01*
X77105359Y-74930000D01*
X77087963Y-75106627D01*
X77036443Y-75276466D01*
X76952778Y-75432991D01*
X76923448Y-75468729D01*
X76840186Y-75570186D01*
X76738729Y-75653448D01*
X76702991Y-75682778D01*
X76546466Y-75766443D01*
X76376627Y-75817963D01*
X76310442Y-75824482D01*
X76244260Y-75831000D01*
X76155740Y-75831000D01*
X76089558Y-75824482D01*
X76023373Y-75817963D01*
X75853534Y-75766443D01*
X75697009Y-75682778D01*
X75661271Y-75653448D01*
X75559814Y-75570186D01*
X75476552Y-75468729D01*
X75447222Y-75432991D01*
X75363557Y-75276466D01*
X75312037Y-75106627D01*
X75294641Y-74930000D01*
X75312037Y-74753373D01*
X75363557Y-74583534D01*
X75447222Y-74427009D01*
X75476552Y-74391271D01*
X75559814Y-74289814D01*
X75661271Y-74206552D01*
X75697009Y-74177222D01*
X75853534Y-74093557D01*
X76023373Y-74042037D01*
X76089558Y-74035518D01*
X76155740Y-74029000D01*
X76244260Y-74029000D01*
X76310442Y-74035518D01*
X76310442Y-74035518D01*
G37*
G36*
X73770442Y-74035518D02*
G01*
X73836627Y-74042037D01*
X74006466Y-74093557D01*
X74162991Y-74177222D01*
X74198729Y-74206552D01*
X74300186Y-74289814D01*
X74383448Y-74391271D01*
X74412778Y-74427009D01*
X74496443Y-74583534D01*
X74547963Y-74753373D01*
X74565359Y-74930000D01*
X74547963Y-75106627D01*
X74496443Y-75276466D01*
X74412778Y-75432991D01*
X74383448Y-75468729D01*
X74300186Y-75570186D01*
X74198729Y-75653448D01*
X74162991Y-75682778D01*
X74006466Y-75766443D01*
X73836627Y-75817963D01*
X73770442Y-75824482D01*
X73704260Y-75831000D01*
X73615740Y-75831000D01*
X73549558Y-75824482D01*
X73483373Y-75817963D01*
X73313534Y-75766443D01*
X73157009Y-75682778D01*
X73121271Y-75653448D01*
X73019814Y-75570186D01*
X72936552Y-75468729D01*
X72907222Y-75432991D01*
X72823557Y-75276466D01*
X72772037Y-75106627D01*
X72754641Y-74930000D01*
X72772037Y-74753373D01*
X72823557Y-74583534D01*
X72907222Y-74427009D01*
X72936552Y-74391271D01*
X73019814Y-74289814D01*
X73121271Y-74206552D01*
X73157009Y-74177222D01*
X73313534Y-74093557D01*
X73483373Y-74042037D01*
X73549558Y-74035518D01*
X73615740Y-74029000D01*
X73704260Y-74029000D01*
X73770442Y-74035518D01*
X73770442Y-74035518D01*
G37*
G36*
X71230442Y-74035518D02*
G01*
X71296627Y-74042037D01*
X71466466Y-74093557D01*
X71622991Y-74177222D01*
X71658729Y-74206552D01*
X71760186Y-74289814D01*
X71843448Y-74391271D01*
X71872778Y-74427009D01*
X71956443Y-74583534D01*
X72007963Y-74753373D01*
X72025359Y-74930000D01*
X72007963Y-75106627D01*
X71956443Y-75276466D01*
X71872778Y-75432991D01*
X71843448Y-75468729D01*
X71760186Y-75570186D01*
X71658729Y-75653448D01*
X71622991Y-75682778D01*
X71466466Y-75766443D01*
X71296627Y-75817963D01*
X71230442Y-75824482D01*
X71164260Y-75831000D01*
X71075740Y-75831000D01*
X71009558Y-75824482D01*
X70943373Y-75817963D01*
X70773534Y-75766443D01*
X70617009Y-75682778D01*
X70581271Y-75653448D01*
X70479814Y-75570186D01*
X70396552Y-75468729D01*
X70367222Y-75432991D01*
X70283557Y-75276466D01*
X70232037Y-75106627D01*
X70214641Y-74930000D01*
X70232037Y-74753373D01*
X70283557Y-74583534D01*
X70367222Y-74427009D01*
X70396552Y-74391271D01*
X70479814Y-74289814D01*
X70581271Y-74206552D01*
X70617009Y-74177222D01*
X70773534Y-74093557D01*
X70943373Y-74042037D01*
X71009558Y-74035518D01*
X71075740Y-74029000D01*
X71164260Y-74029000D01*
X71230442Y-74035518D01*
X71230442Y-74035518D01*
G37*
G36*
X68690442Y-74035518D02*
G01*
X68756627Y-74042037D01*
X68926466Y-74093557D01*
X69082991Y-74177222D01*
X69118729Y-74206552D01*
X69220186Y-74289814D01*
X69303448Y-74391271D01*
X69332778Y-74427009D01*
X69416443Y-74583534D01*
X69467963Y-74753373D01*
X69485359Y-74930000D01*
X69467963Y-75106627D01*
X69416443Y-75276466D01*
X69332778Y-75432991D01*
X69303448Y-75468729D01*
X69220186Y-75570186D01*
X69118729Y-75653448D01*
X69082991Y-75682778D01*
X68926466Y-75766443D01*
X68756627Y-75817963D01*
X68690442Y-75824482D01*
X68624260Y-75831000D01*
X68535740Y-75831000D01*
X68469558Y-75824482D01*
X68403373Y-75817963D01*
X68233534Y-75766443D01*
X68077009Y-75682778D01*
X68041271Y-75653448D01*
X67939814Y-75570186D01*
X67856552Y-75468729D01*
X67827222Y-75432991D01*
X67743557Y-75276466D01*
X67692037Y-75106627D01*
X67674641Y-74930000D01*
X67692037Y-74753373D01*
X67743557Y-74583534D01*
X67827222Y-74427009D01*
X67856552Y-74391271D01*
X67939814Y-74289814D01*
X68041271Y-74206552D01*
X68077009Y-74177222D01*
X68233534Y-74093557D01*
X68403373Y-74042037D01*
X68469558Y-74035518D01*
X68535740Y-74029000D01*
X68624260Y-74029000D01*
X68690442Y-74035518D01*
X68690442Y-74035518D01*
G37*
G36*
X63610442Y-74035518D02*
G01*
X63676627Y-74042037D01*
X63846466Y-74093557D01*
X64002991Y-74177222D01*
X64038729Y-74206552D01*
X64140186Y-74289814D01*
X64223448Y-74391271D01*
X64252778Y-74427009D01*
X64336443Y-74583534D01*
X64387963Y-74753373D01*
X64405359Y-74930000D01*
X64387963Y-75106627D01*
X64336443Y-75276466D01*
X64252778Y-75432991D01*
X64223448Y-75468729D01*
X64140186Y-75570186D01*
X64038729Y-75653448D01*
X64002991Y-75682778D01*
X63846466Y-75766443D01*
X63676627Y-75817963D01*
X63610442Y-75824482D01*
X63544260Y-75831000D01*
X63455740Y-75831000D01*
X63389558Y-75824482D01*
X63323373Y-75817963D01*
X63153534Y-75766443D01*
X62997009Y-75682778D01*
X62961271Y-75653448D01*
X62859814Y-75570186D01*
X62776552Y-75468729D01*
X62747222Y-75432991D01*
X62663557Y-75276466D01*
X62612037Y-75106627D01*
X62594641Y-74930000D01*
X62612037Y-74753373D01*
X62663557Y-74583534D01*
X62747222Y-74427009D01*
X62776552Y-74391271D01*
X62859814Y-74289814D01*
X62961271Y-74206552D01*
X62997009Y-74177222D01*
X63153534Y-74093557D01*
X63323373Y-74042037D01*
X63389558Y-74035518D01*
X63455740Y-74029000D01*
X63544260Y-74029000D01*
X63610442Y-74035518D01*
X63610442Y-74035518D01*
G37*
G36*
X75784911Y-70761996D02*
G01*
X75912760Y-70814953D01*
X76027815Y-70891830D01*
X76125670Y-70989685D01*
X76202547Y-71104740D01*
X76255504Y-71232589D01*
X76282500Y-71368308D01*
X76282500Y-71506692D01*
X76255504Y-71642411D01*
X76202547Y-71770260D01*
X76125670Y-71885315D01*
X76027815Y-71983170D01*
X75912760Y-72060047D01*
X75784911Y-72113004D01*
X75649192Y-72140000D01*
X75510808Y-72140000D01*
X75375089Y-72113004D01*
X75247240Y-72060047D01*
X75132185Y-71983170D01*
X75034330Y-71885315D01*
X74957453Y-71770260D01*
X74904496Y-71642411D01*
X74877500Y-71506692D01*
X74877500Y-71368308D01*
X74904496Y-71232589D01*
X74957453Y-71104740D01*
X75034330Y-70989685D01*
X75132185Y-70891830D01*
X75247240Y-70814953D01*
X75375089Y-70761996D01*
X75510808Y-70735000D01*
X75649192Y-70735000D01*
X75784911Y-70761996D01*
X75784911Y-70761996D01*
G37*
G36*
X73244911Y-70761996D02*
G01*
X73372760Y-70814953D01*
X73487815Y-70891830D01*
X73585670Y-70989685D01*
X73662547Y-71104740D01*
X73715504Y-71232589D01*
X73742500Y-71368308D01*
X73742500Y-71506692D01*
X73715504Y-71642411D01*
X73662547Y-71770260D01*
X73585670Y-71885315D01*
X73487815Y-71983170D01*
X73372760Y-72060047D01*
X73244911Y-72113004D01*
X73109192Y-72140000D01*
X72970808Y-72140000D01*
X72835089Y-72113004D01*
X72707240Y-72060047D01*
X72592185Y-71983170D01*
X72494330Y-71885315D01*
X72417453Y-71770260D01*
X72364496Y-71642411D01*
X72337500Y-71506692D01*
X72337500Y-71368308D01*
X72364496Y-71232589D01*
X72417453Y-71104740D01*
X72494330Y-70989685D01*
X72592185Y-70891830D01*
X72707240Y-70814953D01*
X72835089Y-70761996D01*
X72970808Y-70735000D01*
X73109192Y-70735000D01*
X73244911Y-70761996D01*
X73244911Y-70761996D01*
G37*
G36*
X70704911Y-70761996D02*
G01*
X70832760Y-70814953D01*
X70947815Y-70891830D01*
X71045670Y-70989685D01*
X71122547Y-71104740D01*
X71175504Y-71232589D01*
X71202500Y-71368308D01*
X71202500Y-71506692D01*
X71175504Y-71642411D01*
X71122547Y-71770260D01*
X71045670Y-71885315D01*
X70947815Y-71983170D01*
X70832760Y-72060047D01*
X70704911Y-72113004D01*
X70569192Y-72140000D01*
X70430808Y-72140000D01*
X70295089Y-72113004D01*
X70167240Y-72060047D01*
X70052185Y-71983170D01*
X69954330Y-71885315D01*
X69877453Y-71770260D01*
X69824496Y-71642411D01*
X69797500Y-71506692D01*
X69797500Y-71368308D01*
X69824496Y-71232589D01*
X69877453Y-71104740D01*
X69954330Y-70989685D01*
X70052185Y-70891830D01*
X70167240Y-70814953D01*
X70295089Y-70761996D01*
X70430808Y-70735000D01*
X70569192Y-70735000D01*
X70704911Y-70761996D01*
X70704911Y-70761996D01*
G37*
G36*
X68164911Y-70761996D02*
G01*
X68292760Y-70814953D01*
X68407815Y-70891830D01*
X68505670Y-70989685D01*
X68582547Y-71104740D01*
X68635504Y-71232589D01*
X68662500Y-71368308D01*
X68662500Y-71506692D01*
X68635504Y-71642411D01*
X68582547Y-71770260D01*
X68505670Y-71885315D01*
X68407815Y-71983170D01*
X68292760Y-72060047D01*
X68164911Y-72113004D01*
X68029192Y-72140000D01*
X67890808Y-72140000D01*
X67755089Y-72113004D01*
X67627240Y-72060047D01*
X67512185Y-71983170D01*
X67414330Y-71885315D01*
X67337453Y-71770260D01*
X67284496Y-71642411D01*
X67257500Y-71506692D01*
X67257500Y-71368308D01*
X67284496Y-71232589D01*
X67337453Y-71104740D01*
X67414330Y-70989685D01*
X67512185Y-70891830D01*
X67627240Y-70814953D01*
X67755089Y-70761996D01*
X67890808Y-70735000D01*
X68029192Y-70735000D01*
X68164911Y-70761996D01*
X68164911Y-70761996D01*
G37*
G36*
X74514911Y-68221996D02*
G01*
X74642760Y-68274953D01*
X74757815Y-68351830D01*
X74855670Y-68449685D01*
X74932547Y-68564740D01*
X74985504Y-68692589D01*
X75012500Y-68828308D01*
X75012500Y-68966692D01*
X74985504Y-69102411D01*
X74932547Y-69230260D01*
X74855670Y-69345315D01*
X74757815Y-69443170D01*
X74642760Y-69520047D01*
X74514911Y-69573004D01*
X74379192Y-69600000D01*
X74240808Y-69600000D01*
X74105089Y-69573004D01*
X73977240Y-69520047D01*
X73862185Y-69443170D01*
X73764330Y-69345315D01*
X73687453Y-69230260D01*
X73634496Y-69102411D01*
X73607500Y-68966692D01*
X73607500Y-68828308D01*
X73634496Y-68692589D01*
X73687453Y-68564740D01*
X73764330Y-68449685D01*
X73862185Y-68351830D01*
X73977240Y-68274953D01*
X74105089Y-68221996D01*
X74240808Y-68195000D01*
X74379192Y-68195000D01*
X74514911Y-68221996D01*
X74514911Y-68221996D01*
G37*
G36*
X77054911Y-68221996D02*
G01*
X77182760Y-68274953D01*
X77297815Y-68351830D01*
X77395670Y-68449685D01*
X77472547Y-68564740D01*
X77525504Y-68692589D01*
X77552500Y-68828308D01*
X77552500Y-68966692D01*
X77525504Y-69102411D01*
X77472547Y-69230260D01*
X77395670Y-69345315D01*
X77297815Y-69443170D01*
X77182760Y-69520047D01*
X77054911Y-69573004D01*
X76919192Y-69600000D01*
X76780808Y-69600000D01*
X76645089Y-69573004D01*
X76517240Y-69520047D01*
X76402185Y-69443170D01*
X76304330Y-69345315D01*
X76227453Y-69230260D01*
X76174496Y-69102411D01*
X76147500Y-68966692D01*
X76147500Y-68828308D01*
X76174496Y-68692589D01*
X76227453Y-68564740D01*
X76304330Y-68449685D01*
X76402185Y-68351830D01*
X76517240Y-68274953D01*
X76645089Y-68221996D01*
X76780808Y-68195000D01*
X76919192Y-68195000D01*
X77054911Y-68221996D01*
X77054911Y-68221996D01*
G37*
G36*
X71974911Y-68221996D02*
G01*
X72102760Y-68274953D01*
X72217815Y-68351830D01*
X72315670Y-68449685D01*
X72392547Y-68564740D01*
X72445504Y-68692589D01*
X72472500Y-68828308D01*
X72472500Y-68966692D01*
X72445504Y-69102411D01*
X72392547Y-69230260D01*
X72315670Y-69345315D01*
X72217815Y-69443170D01*
X72102760Y-69520047D01*
X71974911Y-69573004D01*
X71839192Y-69600000D01*
X71700808Y-69600000D01*
X71565089Y-69573004D01*
X71437240Y-69520047D01*
X71322185Y-69443170D01*
X71224330Y-69345315D01*
X71147453Y-69230260D01*
X71094496Y-69102411D01*
X71067500Y-68966692D01*
X71067500Y-68828308D01*
X71094496Y-68692589D01*
X71147453Y-68564740D01*
X71224330Y-68449685D01*
X71322185Y-68351830D01*
X71437240Y-68274953D01*
X71565089Y-68221996D01*
X71700808Y-68195000D01*
X71839192Y-68195000D01*
X71974911Y-68221996D01*
X71974911Y-68221996D01*
G37*
G36*
X69434911Y-68221996D02*
G01*
X69562760Y-68274953D01*
X69677815Y-68351830D01*
X69775670Y-68449685D01*
X69852547Y-68564740D01*
X69905504Y-68692589D01*
X69932500Y-68828308D01*
X69932500Y-68966692D01*
X69905504Y-69102411D01*
X69852547Y-69230260D01*
X69775670Y-69345315D01*
X69677815Y-69443170D01*
X69562760Y-69520047D01*
X69434911Y-69573004D01*
X69299192Y-69600000D01*
X69160808Y-69600000D01*
X69025089Y-69573004D01*
X68897240Y-69520047D01*
X68782185Y-69443170D01*
X68684330Y-69345315D01*
X68607453Y-69230260D01*
X68554496Y-69102411D01*
X68527500Y-68966692D01*
X68527500Y-68828308D01*
X68554496Y-68692589D01*
X68607453Y-68564740D01*
X68684330Y-68449685D01*
X68782185Y-68351830D01*
X68897240Y-68274953D01*
X69025089Y-68221996D01*
X69160808Y-68195000D01*
X69299192Y-68195000D01*
X69434911Y-68221996D01*
X69434911Y-68221996D01*
G37*
G36*
X67192454Y-60887829D02*
G01*
X67506566Y-61017938D01*
X67789260Y-61206828D01*
X68029672Y-61447240D01*
X68218562Y-61729934D01*
X68348671Y-62044046D01*
X68415000Y-62377503D01*
X68415000Y-62717497D01*
X68348671Y-63050954D01*
X68218562Y-63365066D01*
X68029672Y-63647760D01*
X67789260Y-63888172D01*
X67506566Y-64077062D01*
X67192454Y-64207171D01*
X66858997Y-64273500D01*
X66519003Y-64273500D01*
X66185546Y-64207171D01*
X65871434Y-64077062D01*
X65588740Y-63888172D01*
X65348328Y-63647760D01*
X65159438Y-63365066D01*
X65029329Y-63050954D01*
X64963000Y-62717497D01*
X64963000Y-62377503D01*
X65029329Y-62044046D01*
X65159438Y-61729934D01*
X65348328Y-61447240D01*
X65588740Y-61206828D01*
X65871434Y-61017938D01*
X66185546Y-60887829D01*
X66519003Y-60821500D01*
X66858997Y-60821500D01*
X67192454Y-60887829D01*
X67192454Y-60887829D01*
G37*
G36*
X78624454Y-60887829D02*
G01*
X78938566Y-61017938D01*
X79221260Y-61206828D01*
X79461672Y-61447240D01*
X79650562Y-61729934D01*
X79780671Y-62044046D01*
X79847000Y-62377503D01*
X79847000Y-62717497D01*
X79780671Y-63050954D01*
X79650562Y-63365066D01*
X79461672Y-63647760D01*
X79221260Y-63888172D01*
X78938566Y-64077062D01*
X78624454Y-64207171D01*
X78290997Y-64273500D01*
X77951003Y-64273500D01*
X77617546Y-64207171D01*
X77303434Y-64077062D01*
X77020740Y-63888172D01*
X76780328Y-63647760D01*
X76591438Y-63365066D01*
X76461329Y-63050954D01*
X76395000Y-62717497D01*
X76395000Y-62377503D01*
X76461329Y-62044046D01*
X76591438Y-61729934D01*
X76780328Y-61447240D01*
X77020740Y-61206828D01*
X77303434Y-61017938D01*
X77617546Y-60887829D01*
X77951003Y-60821500D01*
X78290997Y-60821500D01*
X78624454Y-60887829D01*
X78624454Y-60887829D01*
G37*
M02*
